G04 Gerber file generated by Gerbonara*
%MOMM*%
%FSLAX46Y46*%
%IPPOS*%
G75
%LPD*%
%AMGNC*
1,1,$1,0,0,-57.29578X$4*
1,0,$2,0,0,0*
21,0,$2,$3,0,0,-57.29578X$4*
%
%AMGNR*
21,1,$1,$2,0,0,$5X-57.29578*
1,0,$3,0,0,0*
21,0,$3,$4,0,0,$5X-57.29578*
%
%AMGNO*
21,1,$1,$2,0,0,$5X-57.29578*
1,1,$2,$1/2,0,$5X-57.29578*
1,1,$2,(0-$1)/2,0,$5X-57.29578*
1,0,$3,0,0,0*
21,0,$3,$4,0,0,$5X-57.29578*
%
%AMGNP*
5,1,$2,0,0,$1,$3X-57.29578*
1,0,$4,0,0,0*
%
%ADD10C,0.05*%
%ADD11C,0.14*%
G36*
G01*
X0007945317Y0109162589D02*
X0007381462Y0106745134D01*
X0008169350Y0106745134D01*
X0008205194Y0106745488D01*
X0008275400Y0106749740D01*
X0008343826Y0106758244D01*
X0008410472Y0106771000D01*
X0008475338Y0106788007D01*
X0008538424Y0106809267D01*
X0008599731Y0106834778D01*
X0008659258Y0106864542D01*
X0008688279Y0106881195D01*
X0008746092Y0106916990D01*
X0008854466Y0106998469D01*
X0008954139Y0107091813D01*
X0009045109Y0107197022D01*
X0009086969Y0107254571D01*
X0009128071Y0107313703D01*
X0009202034Y0107437898D01*
X0009266110Y0107569212D01*
X0009320297Y0107707646D01*
X0009343270Y0107779830D01*
X0009365255Y0107852771D01*
X0009399666Y0108000303D01*
X0009422606Y0108149812D01*
X0009434077Y0108301298D01*
X0009435033Y0108377865D01*
X0009434011Y0108447115D01*
X0009421749Y0108574079D01*
X0009404124Y0108659784D01*
X0009388797Y0108712884D01*
X0009370405Y0108762522D01*
X0009348948Y0108808700D01*
X0009336942Y0108830346D01*
X0009324862Y0108851853D01*
X0009298559Y0108892395D01*
X0009269686Y0108929970D01*
X0009238242Y0108964579D01*
X0009204226Y0108996221D01*
X0009167640Y0109024896D01*
X0009128483Y0109050606D01*
X0009086755Y0109073348D01*
X0009064820Y0109083484D01*
X0009020620Y0109102436D01*
X0008940437Y0109127389D01*
X0008965477Y0109165653D01*
X0009130016Y0109150163D01*
X0009304047Y0109120894D01*
X0009424238Y0109091057D01*
X0009499981Y0109067820D01*
X0009536287Y0109055006D01*
X0009572313Y0109041707D01*
X0009640738Y0109012636D01*
X0009704814Y0108980598D01*
X0009764538Y0108945594D01*
X0009819912Y0108907623D01*
X0009870935Y0108866686D01*
X0009917607Y0108822783D01*
X0009959928Y0108775913D01*
X0009979276Y0108751242D01*
X0009997865Y0108726060D01*
X0010031090Y0108673060D01*
X0010059568Y0108616895D01*
X0010083299Y0108557566D01*
X0010102284Y0108495073D01*
X0010116523Y0108429416D01*
X0010126016Y0108360594D01*
X0010130762Y0108288609D01*
X0010131158Y0108251297D01*
X0010130762Y0108207188D01*
X0010126016Y0108120865D01*
X0010116523Y0108036815D01*
X0010102284Y0107955040D01*
X0010083299Y0107875540D01*
X0010059568Y0107798314D01*
X0010031090Y0107723361D01*
X0009997865Y0107650684D01*
X0009979276Y0107615292D01*
X0009959977Y0107580305D01*
X0009918249Y0107512472D01*
X0009872764Y0107447210D01*
X0009823521Y0107384519D01*
X0009770520Y0107324399D01*
X0009713763Y0107266850D01*
X0009653247Y0107211872D01*
X0009588974Y0107159465D01*
X0009555272Y0107134332D01*
X0009521422Y0107110049D01*
X0009451414Y0107063871D01*
X0009378637Y0107020561D01*
X0009303092Y0106980119D01*
X0009184928Y0106924473D01*
X0009017225Y0106860794D01*
X0008928759Y0106833733D01*
X0008839634Y0106809474D01*
X0008656110Y0106771503D01*
X0008466258Y0106746190D01*
X0008270077Y0106733533D01*
X0008169350Y0106732478D01*
X0006207541Y0106732477D01*
X0006207541Y0106745134D01*
X0006780263Y0106745134D01*
X0007486695Y0109773864D01*
G37*
G36*
G01*
X0010331566Y0111094470D02*
X0010380512Y0111015364D01*
X0010419669Y0110928349D01*
X0010449037Y0110833423D01*
X0010468616Y0110730586D01*
X0010478405Y0110619839D01*
X0010479221Y0110561169D01*
X0010478891Y0110528406D01*
X0010474936Y0110463540D01*
X0010467025Y0110399465D01*
X0010455159Y0110336180D01*
X0010439338Y0110273687D01*
X0010419562Y0110211985D01*
X0010395830Y0110151074D01*
X0010368143Y0110090954D01*
X0010352652Y0110061224D01*
X0010319988Y0110002390D01*
X0010244443Y0109889665D01*
X0010156636Y0109782873D01*
X0010056568Y0109682014D01*
X0010001426Y0109634056D01*
X0009944503Y0109588076D01*
X0009823076Y0109503038D01*
X0009692552Y0109426306D01*
X0009552932Y0109357880D01*
X0009479331Y0109327128D01*
X0009404511Y0109297958D01*
X0009250256Y0109248517D01*
X0009090463Y0109209756D01*
X0008982318Y0109191386D01*
X0009043733Y0109285234D01*
X0009057500Y0109291662D01*
X0009161128Y0109350200D01*
X0009262382Y0109419813D01*
X0009361264Y0109500500D01*
X0009409715Y0109545458D01*
X0009457212Y0109592229D01*
X0009544623Y0109694670D01*
X0009622937Y0109807791D01*
X0009692154Y0109931591D01*
X0009722972Y0109997940D01*
X0009738076Y0110032170D01*
X0009765071Y0110102771D01*
X0009788209Y0110175943D01*
X0009807491Y0110251686D01*
X0009822917Y0110330001D01*
X0009834486Y0110410886D01*
X0009842199Y0110494341D01*
X0009842729Y0110506172D01*
X0010273654Y0111164665D01*
G37*
G36*
G01*
X0009181508Y0111478212D02*
X0009358803Y0111471290D01*
X0009521957Y0111457447D01*
X0009670972Y0111436682D01*
X0009805846Y0111408995D01*
X0009926580Y0111374386D01*
X0010033174Y0111332856D01*
X0010125629Y0111284404D01*
X0010165964Y0111257294D01*
X0010204305Y0111228948D01*
X0010272830Y0111165664D01*
X0010273654Y0111164665D01*
X0009842729Y0110506172D01*
X0009846055Y0110580368D01*
X0009846376Y0110624453D01*
X0009845585Y0110678772D01*
X0009836093Y0110784773D01*
X0009817108Y0110887610D01*
X0009788630Y0110987282D01*
X0009770436Y0111035800D01*
X0009750494Y0111083263D01*
X0009701054Y0111170279D01*
X0009640143Y0111247802D01*
X0009567761Y0111315832D01*
X0009526792Y0111345892D01*
X0009505557Y0111360609D01*
X0009460368Y0111386912D01*
X0009411916Y0111409457D01*
X0009360201Y0111428244D01*
X0009305223Y0111443274D01*
X0009246981Y0111454547D01*
X0009185477Y0111462062D01*
X0009120710Y0111465819D01*
X0009086966Y0111466132D01*
X0008482603Y0111466132D01*
X0007948269Y0109175246D01*
X0008612336Y0109175246D01*
X0008657755Y0109176202D01*
X0008751890Y0109187672D01*
X0008849981Y0109210613D01*
X0008952027Y0109245023D01*
X0009004698Y0109267008D01*
X0009043733Y0109285234D01*
X0008982318Y0109191386D01*
X0008925134Y0109181673D01*
X0008840161Y0109172082D01*
X0008940955Y0109167962D01*
X0008965477Y0109165653D01*
X0008940437Y0109127389D01*
X0008925298Y0109132100D01*
X0008821671Y0109151877D01*
X0008709737Y0109161765D01*
X0008650309Y0109162589D01*
X0007945317Y0109162589D01*
X0007486695Y0109773864D01*
X0007881407Y0111466132D01*
X0007315013Y0111466132D01*
X0007315013Y0111478789D01*
X0009086969Y0111478789D01*
G37*
D11*
X0006207541Y0106732477D02*
X0006207541Y0106745134D01*
X0006780263Y0106745134D01*
X0007881407Y0111466132D01*
X0007315013Y0111466132D01*
X0007315013Y0111478789D01*
X0009086969Y0111478789D01*
X0009086969Y0111478789D01*
X0009181508Y0111478212D01*
X0009358803Y0111471290D01*
X0009521957Y0111457447D01*
X0009670972Y0111436682D01*
X0009805846Y0111408995D01*
X0009926580Y0111374386D01*
X0010033174Y0111332856D01*
X0010125629Y0111284404D01*
X0010165964Y0111257294D01*
X0010165964Y0111257294D01*
X0010204305Y0111228948D01*
X0010272830Y0111165664D01*
X0010331566Y0111094470D01*
X0010380512Y0111015364D01*
X0010419669Y0110928349D01*
X0010449037Y0110833423D01*
X0010468616Y0110730586D01*
X0010478405Y0110619839D01*
X0010479221Y0110561169D01*
X0010479221Y0110561169D01*
X0010478891Y0110528406D01*
X0010474936Y0110463540D01*
X0010467025Y0110399465D01*
X0010455159Y0110336180D01*
X0010439338Y0110273687D01*
X0010419562Y0110211985D01*
X0010395830Y0110151074D01*
X0010368143Y0110090954D01*
X0010352652Y0110061224D01*
X0010352652Y0110061224D01*
X0010319988Y0110002390D01*
X0010244443Y0109889665D01*
X0010156636Y0109782873D01*
X0010056568Y0109682014D01*
X0010001426Y0109634056D01*
X0010001426Y0109634056D01*
X0009944503Y0109588076D01*
X0009823076Y0109503038D01*
X0009692552Y0109426306D01*
X0009552932Y0109357880D01*
X0009479331Y0109327128D01*
X0009479331Y0109327128D01*
X0009404511Y0109297958D01*
X0009250256Y0109248517D01*
X0009090463Y0109209756D01*
X0008925134Y0109181673D01*
X0008840161Y0109172082D01*
X0008840161Y0109172082D01*
X0008940955Y0109167962D01*
X0009130016Y0109150163D01*
X0009304047Y0109120894D01*
X0009424238Y0109091057D01*
X0009499981Y0109067820D01*
X0009536287Y0109055006D01*
X0009536287Y0109055006D01*
X0009572313Y0109041707D01*
X0009640738Y0109012636D01*
X0009704814Y0108980598D01*
X0009764538Y0108945594D01*
X0009819912Y0108907623D01*
X0009870935Y0108866686D01*
X0009917607Y0108822783D01*
X0009959928Y0108775913D01*
X0009979276Y0108751242D01*
X0009979276Y0108751242D01*
X0009997865Y0108726060D01*
X0010031090Y0108673060D01*
X0010059568Y0108616895D01*
X0010083299Y0108557566D01*
X0010102284Y0108495073D01*
X0010116523Y0108429416D01*
X0010126016Y0108360594D01*
X0010130762Y0108288609D01*
X0010131158Y0108251297D01*
X0010131158Y0108251297D01*
X0010130762Y0108207188D01*
X0010126016Y0108120865D01*
X0010116523Y0108036815D01*
X0010102284Y0107955040D01*
X0010083299Y0107875540D01*
X0010059568Y0107798314D01*
X0010031090Y0107723361D01*
X0009997865Y0107650684D01*
X0009979276Y0107615292D01*
X0009979276Y0107615292D01*
X0009959977Y0107580305D01*
X0009918249Y0107512472D01*
X0009872764Y0107447210D01*
X0009823521Y0107384519D01*
X0009770520Y0107324399D01*
X0009713763Y0107266850D01*
X0009653247Y0107211872D01*
X0009588974Y0107159465D01*
X0009555272Y0107134332D01*
X0009555272Y0107134332D01*
X0009521422Y0107110049D01*
X0009451414Y0107063871D01*
X0009378637Y0107020561D01*
X0009303092Y0106980119D01*
X0009184928Y0106924473D01*
X0009017225Y0106860794D01*
X0008928759Y0106833733D01*
X0008928759Y0106833733D01*
X0008839634Y0106809474D01*
X0008656110Y0106771503D01*
X0008466258Y0106746190D01*
X0008270077Y0106733533D01*
X0008169350Y0106732478D01*
X0006207541Y0106732477D01*
X0007381462Y0106745134D02*
X0008169350Y0106745134D01*
X0008169350Y0106745134D01*
X0008205194Y0106745488D01*
X0008275400Y0106749740D01*
X0008343826Y0106758244D01*
X0008410472Y0106771000D01*
X0008475338Y0106788007D01*
X0008538424Y0106809267D01*
X0008599731Y0106834778D01*
X0008659258Y0106864542D01*
X0008688279Y0106881195D01*
X0008688279Y0106881195D01*
X0008746092Y0106916990D01*
X0008854466Y0106998469D01*
X0008954139Y0107091813D01*
X0009045109Y0107197022D01*
X0009086969Y0107254571D01*
X0009086969Y0107254571D01*
X0009128071Y0107313703D01*
X0009202034Y0107437898D01*
X0009266110Y0107569212D01*
X0009320297Y0107707646D01*
X0009343270Y0107779830D01*
X0009343270Y0107779830D01*
X0009365255Y0107852771D01*
X0009399666Y0108000303D01*
X0009422606Y0108149812D01*
X0009434077Y0108301298D01*
X0009435033Y0108377865D01*
X0009435033Y0108377865D01*
X0009434011Y0108447115D01*
X0009421749Y0108574079D01*
X0009404124Y0108659784D01*
X0009388797Y0108712884D01*
X0009370405Y0108762522D01*
X0009348948Y0108808700D01*
X0009336942Y0108830346D01*
X0009336942Y0108830346D01*
X0009324862Y0108851853D01*
X0009298559Y0108892395D01*
X0009269686Y0108929970D01*
X0009238242Y0108964579D01*
X0009204226Y0108996221D01*
X0009167640Y0109024896D01*
X0009128483Y0109050606D01*
X0009086755Y0109073348D01*
X0009064820Y0109083484D01*
X0009064820Y0109083484D01*
X0009020620Y0109102436D01*
X0008925298Y0109132100D01*
X0008821671Y0109151877D01*
X0008709737Y0109161765D01*
X0008650309Y0109162589D01*
X0007751674Y0109162589D01*
X0007754835Y0109175246D01*
X0008612336Y0109175246D01*
X0008612336Y0109175246D01*
X0008657755Y0109176202D01*
X0008751890Y0109187672D01*
X0008849981Y0109210613D01*
X0008952027Y0109245023D01*
X0009004698Y0109267008D01*
X0009004698Y0109267008D01*
X0009057500Y0109291662D01*
X0009161128Y0109350200D01*
X0009262382Y0109419813D01*
X0009361264Y0109500500D01*
X0009409715Y0109545458D01*
X0009409715Y0109545458D01*
X0009457212Y0109592229D01*
X0009544623Y0109694670D01*
X0009622937Y0109807791D01*
X0009692154Y0109931591D01*
X0009722972Y0109997940D01*
X0009722972Y0109997940D01*
X0009738076Y0110032170D01*
X0009765071Y0110102771D01*
X0009788209Y0110175943D01*
X0009807491Y0110251686D01*
X0009822917Y0110330001D01*
X0009834486Y0110410886D01*
X0009842199Y0110494341D01*
X0009846055Y0110580368D01*
X0009846376Y0110624453D01*
X0009846376Y0110624453D01*
X0009845585Y0110678772D01*
X0009836093Y0110784773D01*
X0009817108Y0110887610D01*
X0009788630Y0110987282D01*
X0009770436Y0111035800D01*
X0009770436Y0111035800D01*
X0009750494Y0111083263D01*
X0009701054Y0111170279D01*
X0009640143Y0111247802D01*
X0009567761Y0111315832D01*
X0009526792Y0111345892D01*
X0009526792Y0111345892D01*
X0009505557Y0111360609D01*
X0009460368Y0111386912D01*
X0009411916Y0111409457D01*
X0009360201Y0111428244D01*
X0009305223Y0111443274D01*
X0009246981Y0111454547D01*
X0009185477Y0111462062D01*
X0009120710Y0111465819D01*
X0009086966Y0111466132D01*
X0008482603Y0111466132D01*
X0007381462Y0106745134D01*
G36*
G01*
X0012375383Y0109690698D02*
X0012332765Y0109686941D01*
X0012269011Y0109674729D01*
X0012184368Y0109644669D01*
X0012100121Y0109599579D01*
X0012058163Y0109570771D01*
X0012016402Y0109540612D01*
X0011934528Y0109471395D01*
X0011854632Y0109391499D01*
X0011776713Y0109300924D01*
X0011738577Y0109251186D01*
X0011700871Y0109199998D01*
X0011628094Y0109092020D01*
X0011558482Y0108977317D01*
X0011492033Y0108855891D01*
X0011460127Y0108792376D01*
X0011428815Y0108728037D01*
X0011369486Y0108596723D01*
X0011314113Y0108462244D01*
X0011262695Y0108324601D01*
X0011238633Y0108254461D01*
X0011216088Y0108184123D01*
X0011174953Y0108044107D01*
X0011138565Y0107904882D01*
X0011106923Y0107766448D01*
X0011093079Y0107697561D01*
X0011080949Y0107629893D01*
X0011061963Y0107498183D01*
X0011049305Y0107370823D01*
X0011042977Y0107247815D01*
X0011042449Y0107188123D01*
X0011043636Y0107131332D01*
X0011053425Y0107052598D01*
X0011064104Y0107003454D01*
X0011078343Y0106957178D01*
X0011096142Y0106913769D01*
X0011117501Y0106873227D01*
X0011142419Y0106835553D01*
X0011156361Y0106817911D01*
X0011171317Y0106801258D01*
X0011204442Y0106771495D01*
X0011241424Y0106745983D01*
X0011282262Y0106724724D01*
X0011326956Y0106707716D01*
X0011375507Y0106694960D01*
X0011427914Y0106686456D01*
X0011484178Y0106682204D01*
X0011513916Y0106681850D01*
X0011513920Y0106681850D01*
X0011557329Y0106683070D01*
X0011643158Y0106697704D01*
X0011727800Y0106726973D01*
X0011811256Y0106770876D01*
X0011852490Y0106798926D01*
X0011894251Y0106829843D01*
X0011976125Y0106900246D01*
X0012056021Y0106980933D01*
X0012133940Y0107071904D01*
X0012172075Y0107121675D01*
X0012209782Y0107172862D01*
X0012282558Y0107280841D01*
X0012352171Y0107395543D01*
X0012418620Y0107516970D01*
X0012450525Y0107580485D01*
X0012481805Y0107644824D01*
X0012540738Y0107776138D01*
X0012595320Y0107910617D01*
X0012645552Y0108048260D01*
X0012668855Y0108118400D01*
X0012692125Y0108188738D01*
X0012734051Y0108328754D01*
X0012770440Y0108467979D01*
X0012801291Y0108606413D01*
X0012814409Y0108675301D01*
X0012827297Y0108743694D01*
X0012847468Y0108876195D01*
X0012860916Y0109003554D01*
X0012867640Y0109125772D01*
X0012868200Y0109184738D01*
X0012867013Y0109242254D01*
X0012857224Y0109321631D01*
X0012846545Y0109370973D01*
X0012832306Y0109417250D01*
X0012814507Y0109460461D01*
X0012793149Y0109500607D01*
X0012768231Y0109537687D01*
X0012754288Y0109554950D01*
X0012739711Y0109571604D01*
X0012707179Y0109601367D01*
X0012670593Y0109626879D01*
X0012629953Y0109648138D01*
X0012585258Y0109665146D01*
X0012536510Y0109677901D01*
X0012483707Y0109686405D01*
X0012444847Y0109689311D01*
X0012537069Y0109691262D01*
X0012609655Y0109678477D01*
X0012706163Y0109650889D01*
X0012794761Y0109614105D01*
X0012875448Y0109568125D01*
X0012948225Y0109512949D01*
X0013013091Y0109448578D01*
X0013042229Y0109412560D01*
X0013070500Y0109375817D01*
X0013121029Y0109298789D01*
X0013164339Y0109217508D01*
X0013200430Y0109131976D01*
X0013229304Y0109042192D01*
X0013250959Y0108948155D01*
X0013265395Y0108849867D01*
X0013272614Y0108747327D01*
X0013273215Y0108694286D01*
X0013272852Y0108642595D01*
X0013268502Y0108540450D01*
X0013259800Y0108439789D01*
X0013246748Y0108340611D01*
X0013229345Y0108242916D01*
X0013207591Y0108146704D01*
X0013181486Y0108051976D01*
X0013151031Y0107958731D01*
X0013133990Y0107912726D01*
X0013116719Y0107867068D01*
X0013079540Y0107777976D01*
X0013039196Y0107691553D01*
X0012995688Y0107607800D01*
X0012949016Y0107526718D01*
X0012899180Y0107448305D01*
X0012846179Y0107372561D01*
X0012790015Y0107299488D01*
X0012760614Y0107264064D01*
X0012730768Y0107229571D01*
X0012669264Y0107163715D01*
X0012605584Y0107101618D01*
X0012539729Y0107043278D01*
X0012471699Y0106988695D01*
X0012401493Y0106937870D01*
X0012329112Y0106890802D01*
X0012254555Y0106847492D01*
X0012216370Y0106827403D01*
X0012178317Y0106808039D01*
X0012101388Y0106773430D01*
X0012023469Y0106743766D01*
X0011944562Y0106719045D01*
X0011864665Y0106699269D01*
X0011783780Y0106684437D01*
X0011701906Y0106674549D01*
X0011619043Y0106669605D01*
X0011577200Y0106669193D01*
X0011518118Y0106669951D01*
X0011406382Y0106679048D01*
X0011302359Y0106697242D01*
X0011206049Y0106724533D01*
X0011117451Y0106760922D01*
X0011036566Y0106806407D01*
X0010963394Y0106860990D01*
X0010897934Y0106924669D01*
X0010868418Y0106960299D01*
X0010840146Y0106997042D01*
X0010789618Y0107074071D01*
X0010746308Y0107155352D01*
X0010710216Y0107240884D01*
X0010681342Y0107330669D01*
X0010659687Y0107424705D01*
X0010645251Y0107522993D01*
X0010638032Y0107625533D01*
X0010637431Y0107678575D01*
X0010637785Y0107730265D01*
X0010642037Y0107832410D01*
X0010650541Y0107933071D01*
X0010663296Y0108032249D01*
X0010680304Y0108129944D01*
X0010701564Y0108226156D01*
X0010727075Y0108320884D01*
X0010756838Y0108414129D01*
X0010773492Y0108460134D01*
X0010791150Y0108505784D01*
X0010829022Y0108594777D01*
X0010869959Y0108681002D01*
X0010913961Y0108764458D01*
X0010961029Y0108845145D01*
X0011011162Y0108923064D01*
X0011064360Y0108998214D01*
X0011120623Y0109070595D01*
X0011150032Y0109105632D01*
X0011179870Y0109140513D01*
X0011241275Y0109207060D01*
X0011304757Y0109269751D01*
X0011370316Y0109328585D01*
X0011437951Y0109383563D01*
X0011507662Y0109434685D01*
X0011579450Y0109481950D01*
X0011653314Y0109525359D01*
X0011691112Y0109545457D01*
X0011729552Y0109565208D01*
X0011807174Y0109600509D01*
X0011885686Y0109630767D01*
X0011965088Y0109655981D01*
X0012045379Y0109676153D01*
X0012126561Y0109691282D01*
X0012139619Y0109692887D01*
G37*
G36*
G01*
X0012392906Y0109706065D02*
X0012505236Y0109696869D01*
X0012537069Y0109691262D01*
X0012444847Y0109689311D01*
X0012426851Y0109690657D01*
X0012396733Y0109691011D01*
X0012375383Y0109690698D01*
X0012139619Y0109692887D01*
X0012208633Y0109701368D01*
X0012291594Y0109706411D01*
X0012333446Y0109706831D01*
G37*
X0011577200Y0106669193D02*
X0011577200Y0106669193D01*
X0011518118Y0106669951D01*
X0011406382Y0106679048D01*
X0011302359Y0106697242D01*
X0011206049Y0106724533D01*
X0011117451Y0106760922D01*
X0011036566Y0106806407D01*
X0010963394Y0106860990D01*
X0010897934Y0106924669D01*
X0010868418Y0106960299D01*
X0010868418Y0106960299D01*
X0010840146Y0106997042D01*
X0010789618Y0107074071D01*
X0010746308Y0107155352D01*
X0010710216Y0107240884D01*
X0010681342Y0107330669D01*
X0010659687Y0107424705D01*
X0010645251Y0107522993D01*
X0010638032Y0107625533D01*
X0010637431Y0107678575D01*
X0010637431Y0107678575D01*
X0010637785Y0107730265D01*
X0010642037Y0107832410D01*
X0010650541Y0107933071D01*
X0010663296Y0108032249D01*
X0010680304Y0108129944D01*
X0010701564Y0108226156D01*
X0010727075Y0108320884D01*
X0010756838Y0108414129D01*
X0010773492Y0108460134D01*
X0010773492Y0108460134D01*
X0010791150Y0108505784D01*
X0010829022Y0108594777D01*
X0010869959Y0108681002D01*
X0010913961Y0108764458D01*
X0010961029Y0108845145D01*
X0011011162Y0108923064D01*
X0011064360Y0108998214D01*
X0011120623Y0109070595D01*
X0011150032Y0109105632D01*
X0011150032Y0109105632D01*
X0011179870Y0109140513D01*
X0011241275Y0109207060D01*
X0011304757Y0109269751D01*
X0011370316Y0109328585D01*
X0011437951Y0109383563D01*
X0011507662Y0109434685D01*
X0011579450Y0109481950D01*
X0011653314Y0109525359D01*
X0011691112Y0109545457D01*
X0011691112Y0109545457D01*
X0011729552Y0109565208D01*
X0011807174Y0109600509D01*
X0011885686Y0109630767D01*
X0011965088Y0109655981D01*
X0012045379Y0109676153D01*
X0012126561Y0109691282D01*
X0012208633Y0109701368D01*
X0012291594Y0109706411D01*
X0012333446Y0109706831D01*
X0012333446Y0109706831D01*
X0012392906Y0109706065D01*
X0012505236Y0109696869D01*
X0012609655Y0109678477D01*
X0012706163Y0109650889D01*
X0012794761Y0109614105D01*
X0012875448Y0109568125D01*
X0012948225Y0109512949D01*
X0013013091Y0109448578D01*
X0013042229Y0109412560D01*
X0013042229Y0109412560D01*
X0013070500Y0109375817D01*
X0013121029Y0109298789D01*
X0013164339Y0109217508D01*
X0013200430Y0109131976D01*
X0013229304Y0109042192D01*
X0013250959Y0108948155D01*
X0013265395Y0108849867D01*
X0013272614Y0108747327D01*
X0013273215Y0108694286D01*
X0013273215Y0108694286D01*
X0013272852Y0108642595D01*
X0013268502Y0108540450D01*
X0013259800Y0108439789D01*
X0013246748Y0108340611D01*
X0013229345Y0108242916D01*
X0013207591Y0108146704D01*
X0013181486Y0108051976D01*
X0013151031Y0107958731D01*
X0013133990Y0107912726D01*
X0013133990Y0107912726D01*
X0013116719Y0107867068D01*
X0013079540Y0107777976D01*
X0013039196Y0107691553D01*
X0012995688Y0107607800D01*
X0012949016Y0107526718D01*
X0012899180Y0107448305D01*
X0012846179Y0107372561D01*
X0012790015Y0107299488D01*
X0012760614Y0107264064D01*
X0012760614Y0107264064D01*
X0012730768Y0107229571D01*
X0012669264Y0107163715D01*
X0012605584Y0107101618D01*
X0012539729Y0107043278D01*
X0012471699Y0106988695D01*
X0012401493Y0106937870D01*
X0012329112Y0106890802D01*
X0012254555Y0106847492D01*
X0012216370Y0106827403D01*
X0012216370Y0106827403D01*
X0012178317Y0106808039D01*
X0012101388Y0106773430D01*
X0012023469Y0106743766D01*
X0011944562Y0106719045D01*
X0011864665Y0106699269D01*
X0011783780Y0106684437D01*
X0011701906Y0106674549D01*
X0011619043Y0106669605D01*
X0011577200Y0106669193D01*
X0011577200Y0106669193D01*
X0011513920Y0106681850D02*
X0011513920Y0106681850D01*
X0011557329Y0106683070D01*
X0011643158Y0106697704D01*
X0011727800Y0106726973D01*
X0011811256Y0106770876D01*
X0011852490Y0106798926D01*
X0011852490Y0106798926D01*
X0011894251Y0106829843D01*
X0011976125Y0106900246D01*
X0012056021Y0106980933D01*
X0012133940Y0107071904D01*
X0012172075Y0107121675D01*
X0012172075Y0107121675D01*
X0012209782Y0107172862D01*
X0012282558Y0107280841D01*
X0012352171Y0107395543D01*
X0012418620Y0107516970D01*
X0012450525Y0107580485D01*
X0012450525Y0107580485D01*
X0012481805Y0107644824D01*
X0012540738Y0107776138D01*
X0012595320Y0107910617D01*
X0012645552Y0108048260D01*
X0012668855Y0108118400D01*
X0012668855Y0108118400D01*
X0012692125Y0108188738D01*
X0012734051Y0108328754D01*
X0012770440Y0108467979D01*
X0012801291Y0108606413D01*
X0012814409Y0108675301D01*
X0012814409Y0108675301D01*
X0012827297Y0108743694D01*
X0012847468Y0108876195D01*
X0012860916Y0109003554D01*
X0012867640Y0109125772D01*
X0012868200Y0109184738D01*
X0012868200Y0109184738D01*
X0012867013Y0109242254D01*
X0012857224Y0109321631D01*
X0012846545Y0109370973D01*
X0012832306Y0109417250D01*
X0012814507Y0109460461D01*
X0012793149Y0109500607D01*
X0012768231Y0109537687D01*
X0012754288Y0109554950D01*
X0012754288Y0109554950D01*
X0012739711Y0109571604D01*
X0012707179Y0109601367D01*
X0012670593Y0109626879D01*
X0012629953Y0109648138D01*
X0012585258Y0109665146D01*
X0012536510Y0109677901D01*
X0012483707Y0109686405D01*
X0012426851Y0109690657D01*
X0012396733Y0109691011D01*
X0012396733Y0109691011D01*
X0012375383Y0109690698D01*
X0012332765Y0109686941D01*
X0012269011Y0109674729D01*
X0012184368Y0109644669D01*
X0012100121Y0109599579D01*
X0012058163Y0109570771D01*
X0012058163Y0109570771D01*
X0012016402Y0109540612D01*
X0011934528Y0109471395D01*
X0011854632Y0109391499D01*
X0011776713Y0109300924D01*
X0011738577Y0109251186D01*
X0011738577Y0109251186D01*
X0011700871Y0109199998D01*
X0011628094Y0109092020D01*
X0011558482Y0108977317D01*
X0011492033Y0108855891D01*
X0011460127Y0108792376D01*
X0011460127Y0108792376D01*
X0011428815Y0108728037D01*
X0011369486Y0108596723D01*
X0011314113Y0108462244D01*
X0011262695Y0108324601D01*
X0011238633Y0108254461D01*
X0011238633Y0108254461D01*
X0011216088Y0108184123D01*
X0011174953Y0108044107D01*
X0011138565Y0107904882D01*
X0011106923Y0107766448D01*
X0011093079Y0107697561D01*
X0011093079Y0107697561D01*
X0011080949Y0107629893D01*
X0011061963Y0107498183D01*
X0011049305Y0107370823D01*
X0011042977Y0107247815D01*
X0011042449Y0107188123D01*
X0011042449Y0107188123D01*
X0011043636Y0107131332D01*
X0011053425Y0107052598D01*
X0011064104Y0107003454D01*
X0011078343Y0106957178D01*
X0011096142Y0106913769D01*
X0011117501Y0106873227D01*
X0011142419Y0106835553D01*
X0011156361Y0106817911D01*
X0011156361Y0106817911D01*
X0011171317Y0106801258D01*
X0011204442Y0106771495D01*
X0011241424Y0106745983D01*
X0011282262Y0106724724D01*
X0011326956Y0106707716D01*
X0011375507Y0106694960D01*
X0011427914Y0106686456D01*
X0011484178Y0106682204D01*
X0011513916Y0106681850D01*
X0011513920Y0106681850D01*
G36*
G01*
X0014956526Y0109643548D02*
X0015526135Y0109643548D01*
X0015526135Y0109630890D01*
X0014953045Y0109630890D01*
X0014219310Y0106963460D01*
X0014209820Y0106929708D01*
X0014200324Y0106887520D01*
X0014195975Y0106866821D01*
X0014191230Y0106824104D01*
X0014190835Y0106802086D01*
X0014191345Y0106788143D01*
X0014197476Y0106763225D01*
X0014209737Y0106741867D01*
X0014228129Y0106724069D01*
X0014252652Y0106709830D01*
X0014283305Y0106699151D01*
X0014320089Y0106692031D01*
X0014363003Y0106688471D01*
X0014387015Y0106688175D01*
X0014429534Y0106688900D01*
X0014512595Y0106697601D01*
X0014593282Y0106715003D01*
X0014671596Y0106741107D01*
X0014709764Y0106757784D01*
X0014748295Y0106776637D01*
X0014823050Y0106820936D01*
X0014895035Y0106873146D01*
X0014964252Y0106933266D01*
X0014997707Y0106966622D01*
X0015031525Y0107002055D01*
X0015097182Y0107079182D01*
X0015160466Y0107163825D01*
X0015221377Y0107255982D01*
X0015250844Y0107305192D01*
X0015280706Y0107356413D01*
X0015338453Y0107464787D01*
X0015393826Y0107580280D01*
X0015446827Y0107702893D01*
X0015472338Y0107767166D01*
X0015481828Y0107764005D01*
X0015447483Y0107678044D01*
X0015375498Y0107516669D01*
X0015299557Y0107367951D01*
X0015219661Y0107231891D01*
X0015178065Y0107169134D01*
X0015136501Y0107109410D01*
X0015049090Y0107001827D01*
X0014956537Y0106908482D01*
X0014858842Y0106829377D01*
X0014807852Y0106795758D01*
X0014782415Y0106780266D01*
X0014730304Y0106752579D01*
X0014676710Y0106728848D01*
X0014621633Y0106709071D01*
X0014565073Y0106693250D01*
X0014507030Y0106681385D01*
X0014447503Y0106673474D01*
X0014386494Y0106669519D01*
X0014355371Y0106669189D01*
X0014355378Y0106669193D01*
X0014307091Y0106669852D01*
X0014218098Y0106677762D01*
X0014138201Y0106693582D01*
X0014067402Y0106717312D01*
X0014035793Y0106732473D01*
X0014005601Y0106747898D01*
X0013951810Y0106782705D01*
X0013905929Y0106822257D01*
X0013867958Y0106866556D01*
X0013852269Y0106890683D01*
X0013838623Y0106916063D01*
X0013817263Y0106967481D01*
X0013803024Y0107019691D01*
X0013795904Y0107072691D01*
X0013795310Y0107099521D01*
X0013795970Y0107126550D01*
X0013803879Y0107197745D01*
X0013811129Y0107241910D01*
X0013819434Y0107287923D01*
X0013840000Y0107381268D01*
X0013852262Y0107428599D01*
X0014449328Y0109630890D01*
X0013817463Y0109630890D01*
X0013817463Y0109643548D01*
X0014452760Y0109643548D01*
X0014624329Y0110276385D01*
X0015130602Y0110276385D01*
G37*
X0014355378Y0106669193D02*
X0014355378Y0106669193D01*
X0014307091Y0106669852D01*
X0014218098Y0106677762D01*
X0014138201Y0106693582D01*
X0014067402Y0106717312D01*
X0014035793Y0106732473D01*
X0014035793Y0106732473D01*
X0014005601Y0106747898D01*
X0013951810Y0106782705D01*
X0013905929Y0106822257D01*
X0013867958Y0106866556D01*
X0013852269Y0106890683D01*
X0013852269Y0106890683D01*
X0013838623Y0106916063D01*
X0013817263Y0106967481D01*
X0013803024Y0107019691D01*
X0013795904Y0107072691D01*
X0013795310Y0107099521D01*
X0013795310Y0107099521D01*
X0013795970Y0107126550D01*
X0013803879Y0107197745D01*
X0013811129Y0107241910D01*
X0013811129Y0107241910D01*
X0013819434Y0107287923D01*
X0013840000Y0107381268D01*
X0013852262Y0107428599D01*
X0014624329Y0110276385D01*
X0015130602Y0110276385D01*
X0014219310Y0106963460D01*
X0014219310Y0106963460D01*
X0014209820Y0106929708D01*
X0014200324Y0106887520D01*
X0014200324Y0106887520D01*
X0014195975Y0106866821D01*
X0014191230Y0106824104D01*
X0014190835Y0106802086D01*
X0014190835Y0106802086D01*
X0014191345Y0106788143D01*
X0014197476Y0106763225D01*
X0014209737Y0106741867D01*
X0014228129Y0106724069D01*
X0014252652Y0106709830D01*
X0014283305Y0106699151D01*
X0014320089Y0106692031D01*
X0014363003Y0106688471D01*
X0014387015Y0106688175D01*
X0014387015Y0106688175D01*
X0014429534Y0106688900D01*
X0014512595Y0106697601D01*
X0014593282Y0106715003D01*
X0014671596Y0106741107D01*
X0014709764Y0106757784D01*
X0014709764Y0106757784D01*
X0014748295Y0106776637D01*
X0014823050Y0106820936D01*
X0014895035Y0106873146D01*
X0014964252Y0106933266D01*
X0014997707Y0106966622D01*
X0014997707Y0106966622D01*
X0015031525Y0107002055D01*
X0015097182Y0107079182D01*
X0015160466Y0107163825D01*
X0015221377Y0107255982D01*
X0015250844Y0107305192D01*
X0015250844Y0107305192D01*
X0015280706Y0107356413D01*
X0015338453Y0107464787D01*
X0015393826Y0107580280D01*
X0015446827Y0107702893D01*
X0015472338Y0107767166D01*
X0015481828Y0107764005D01*
X0015481828Y0107764005D01*
X0015447483Y0107678044D01*
X0015375498Y0107516669D01*
X0015299557Y0107367951D01*
X0015219661Y0107231891D01*
X0015178065Y0107169134D01*
X0015178065Y0107169134D01*
X0015136501Y0107109410D01*
X0015049090Y0107001827D01*
X0014956537Y0106908482D01*
X0014858842Y0106829377D01*
X0014807852Y0106795758D01*
X0014807852Y0106795758D01*
X0014782415Y0106780266D01*
X0014730304Y0106752579D01*
X0014676710Y0106728848D01*
X0014621633Y0106709071D01*
X0014565073Y0106693250D01*
X0014507030Y0106681385D01*
X0014447503Y0106673474D01*
X0014386494Y0106669519D01*
X0014355371Y0106669189D01*
X0014355378Y0106669193D01*
X0013817463Y0109630890D02*
X0013817463Y0109643548D01*
X0015526135Y0109643548D01*
X0015526135Y0109630890D01*
X0013817463Y0109630890D01*
G36*
G01*
X0016987942Y0109643548D02*
X0017557550Y0109643548D01*
X0017557550Y0109630890D01*
X0016984460Y0109630890D01*
X0016250726Y0106963460D01*
X0016241235Y0106929708D01*
X0016231739Y0106887520D01*
X0016227390Y0106866821D01*
X0016222645Y0106824104D01*
X0016222250Y0106802086D01*
X0016222761Y0106788143D01*
X0016228891Y0106763225D01*
X0016241152Y0106741867D01*
X0016259544Y0106724069D01*
X0016284067Y0106709830D01*
X0016314720Y0106699151D01*
X0016351504Y0106692031D01*
X0016394419Y0106688471D01*
X0016418430Y0106688175D01*
X0016460949Y0106688900D01*
X0016544010Y0106697601D01*
X0016624697Y0106715003D01*
X0016703011Y0106741107D01*
X0016741179Y0106757784D01*
X0016779710Y0106776637D01*
X0016854464Y0106820936D01*
X0016926450Y0106873146D01*
X0016995667Y0106933266D01*
X0017029122Y0106966622D01*
X0017062940Y0107002055D01*
X0017128597Y0107079182D01*
X0017191881Y0107163825D01*
X0017252792Y0107255982D01*
X0017282259Y0107305192D01*
X0017312121Y0107356413D01*
X0017369868Y0107464787D01*
X0017425241Y0107580280D01*
X0017478242Y0107702893D01*
X0017503753Y0107767166D01*
X0017513243Y0107764005D01*
X0017478898Y0107678044D01*
X0017406912Y0107516669D01*
X0017330971Y0107367951D01*
X0017251075Y0107231891D01*
X0017209478Y0107169134D01*
X0017167915Y0107109410D01*
X0017080504Y0107001827D01*
X0016987951Y0106908482D01*
X0016890256Y0106829377D01*
X0016839266Y0106795758D01*
X0016813829Y0106780266D01*
X0016761719Y0106752579D01*
X0016708125Y0106728848D01*
X0016653048Y0106709071D01*
X0016596488Y0106693250D01*
X0016538444Y0106681385D01*
X0016478917Y0106673474D01*
X0016417907Y0106669519D01*
X0016386784Y0106669189D01*
X0016386794Y0106669193D01*
X0016338507Y0106669852D01*
X0016249513Y0106677762D01*
X0016169617Y0106693582D01*
X0016098818Y0106717312D01*
X0016067209Y0106732473D01*
X0016037017Y0106747898D01*
X0015983225Y0106782705D01*
X0015937345Y0106822257D01*
X0015899374Y0106866556D01*
X0015883685Y0106890683D01*
X0015870039Y0106916063D01*
X0015848679Y0106967481D01*
X0015834440Y0107019691D01*
X0015827320Y0107072691D01*
X0015826726Y0107099521D01*
X0015827385Y0107126550D01*
X0015835295Y0107197745D01*
X0015842545Y0107241910D01*
X0015850850Y0107287923D01*
X0015871416Y0107381268D01*
X0015883678Y0107428599D01*
X0016480743Y0109630890D01*
X0015848878Y0109630890D01*
X0015848878Y0109643548D01*
X0016484175Y0109643548D01*
X0016655744Y0110276385D01*
X0017162018Y0110276385D01*
G37*
X0016386794Y0106669193D02*
X0016386794Y0106669193D01*
X0016338507Y0106669852D01*
X0016249513Y0106677762D01*
X0016169617Y0106693582D01*
X0016098818Y0106717312D01*
X0016067209Y0106732473D01*
X0016067209Y0106732473D01*
X0016037017Y0106747898D01*
X0015983225Y0106782705D01*
X0015937345Y0106822257D01*
X0015899374Y0106866556D01*
X0015883685Y0106890683D01*
X0015883685Y0106890683D01*
X0015870039Y0106916063D01*
X0015848679Y0106967481D01*
X0015834440Y0107019691D01*
X0015827320Y0107072691D01*
X0015826726Y0107099521D01*
X0015826726Y0107099521D01*
X0015827385Y0107126550D01*
X0015835295Y0107197745D01*
X0015842545Y0107241910D01*
X0015842545Y0107241910D01*
X0015850850Y0107287923D01*
X0015871416Y0107381268D01*
X0015883678Y0107428599D01*
X0016655744Y0110276385D01*
X0017162018Y0110276385D01*
X0016250726Y0106963460D01*
X0016250726Y0106963460D01*
X0016241235Y0106929708D01*
X0016231739Y0106887520D01*
X0016231739Y0106887520D01*
X0016227390Y0106866821D01*
X0016222645Y0106824104D01*
X0016222250Y0106802086D01*
X0016222250Y0106802086D01*
X0016222761Y0106788143D01*
X0016228891Y0106763225D01*
X0016241152Y0106741867D01*
X0016259544Y0106724069D01*
X0016284067Y0106709830D01*
X0016314720Y0106699151D01*
X0016351504Y0106692031D01*
X0016394419Y0106688471D01*
X0016418430Y0106688175D01*
X0016418430Y0106688175D01*
X0016460949Y0106688900D01*
X0016544010Y0106697601D01*
X0016624697Y0106715003D01*
X0016703011Y0106741107D01*
X0016741179Y0106757784D01*
X0016741179Y0106757784D01*
X0016779710Y0106776637D01*
X0016854464Y0106820936D01*
X0016926450Y0106873146D01*
X0016995667Y0106933266D01*
X0017029122Y0106966622D01*
X0017029122Y0106966622D01*
X0017062940Y0107002055D01*
X0017128597Y0107079182D01*
X0017191881Y0107163825D01*
X0017252792Y0107255982D01*
X0017282259Y0107305192D01*
X0017282259Y0107305192D01*
X0017312121Y0107356413D01*
X0017369868Y0107464787D01*
X0017425241Y0107580280D01*
X0017478242Y0107702893D01*
X0017503753Y0107767166D01*
X0017513243Y0107764005D01*
X0017513243Y0107764005D01*
X0017478898Y0107678044D01*
X0017406912Y0107516669D01*
X0017330971Y0107367951D01*
X0017251075Y0107231891D01*
X0017209478Y0107169134D01*
X0017209478Y0107169134D01*
X0017167915Y0107109410D01*
X0017080504Y0107001827D01*
X0016987951Y0106908482D01*
X0016890256Y0106829377D01*
X0016839266Y0106795758D01*
X0016839266Y0106795758D01*
X0016813829Y0106780266D01*
X0016761719Y0106752579D01*
X0016708125Y0106728848D01*
X0016653048Y0106709071D01*
X0016596488Y0106693250D01*
X0016538444Y0106681385D01*
X0016478917Y0106673474D01*
X0016417907Y0106669519D01*
X0016386784Y0106669189D01*
X0016386794Y0106669193D01*
X0015848878Y0109630890D02*
X0015848878Y0109643548D01*
X0017557550Y0109643548D01*
X0017557550Y0109630890D01*
X0015848878Y0109630890D01*
G36*
G01*
X0019485349Y0109690698D02*
X0019442731Y0109686941D01*
X0019378977Y0109674729D01*
X0019294334Y0109644669D01*
X0019210087Y0109599579D01*
X0019168128Y0109570771D01*
X0019126368Y0109540612D01*
X0019044494Y0109471395D01*
X0018964598Y0109391499D01*
X0018886679Y0109300924D01*
X0018848544Y0109251186D01*
X0018810837Y0109199998D01*
X0018738060Y0109092020D01*
X0018668448Y0108977317D01*
X0018601999Y0108855891D01*
X0018570094Y0108792376D01*
X0018538781Y0108728037D01*
X0018479452Y0108596723D01*
X0018424079Y0108462244D01*
X0018372660Y0108324601D01*
X0018348599Y0108254461D01*
X0018326054Y0108184123D01*
X0018284919Y0108044107D01*
X0018248531Y0107904882D01*
X0018216889Y0107766448D01*
X0018203046Y0107697561D01*
X0018190915Y0107629893D01*
X0018171929Y0107498183D01*
X0018159272Y0107370823D01*
X0018152943Y0107247815D01*
X0018152416Y0107188123D01*
X0018153602Y0107131332D01*
X0018163391Y0107052598D01*
X0018174071Y0107003454D01*
X0018188309Y0106957178D01*
X0018206108Y0106913769D01*
X0018227466Y0106873227D01*
X0018252384Y0106835553D01*
X0018266327Y0106817911D01*
X0018281283Y0106801258D01*
X0018314408Y0106771495D01*
X0018351390Y0106745983D01*
X0018392228Y0106724724D01*
X0018436922Y0106707716D01*
X0018485473Y0106694960D01*
X0018537880Y0106686456D01*
X0018594144Y0106682204D01*
X0018623882Y0106681850D01*
X0018623886Y0106681850D01*
X0018667295Y0106683070D01*
X0018753124Y0106697704D01*
X0018837767Y0106726973D01*
X0018921223Y0106770876D01*
X0018962456Y0106798926D01*
X0019004217Y0106829843D01*
X0019086091Y0106900246D01*
X0019165987Y0106980933D01*
X0019243906Y0107071904D01*
X0019282041Y0107121675D01*
X0019319748Y0107172862D01*
X0019392525Y0107280841D01*
X0019462137Y0107395543D01*
X0019528585Y0107516970D01*
X0019560491Y0107580485D01*
X0019591771Y0107644824D01*
X0019650704Y0107776138D01*
X0019705287Y0107910617D01*
X0019755518Y0108048260D01*
X0019778821Y0108118400D01*
X0019802092Y0108188738D01*
X0019844017Y0108328754D01*
X0019880406Y0108467979D01*
X0019911257Y0108606413D01*
X0019924375Y0108675301D01*
X0019937262Y0108743694D01*
X0019957434Y0108876195D01*
X0019970881Y0109003554D01*
X0019977605Y0109125772D01*
X0019978166Y0109184738D01*
X0019976979Y0109242254D01*
X0019967190Y0109321631D01*
X0019956511Y0109370973D01*
X0019942272Y0109417250D01*
X0019924473Y0109460461D01*
X0019903115Y0109500607D01*
X0019878197Y0109537687D01*
X0019864255Y0109554950D01*
X0019849678Y0109571604D01*
X0019817146Y0109601367D01*
X0019780559Y0109626879D01*
X0019739919Y0109648138D01*
X0019695225Y0109665146D01*
X0019646476Y0109677901D01*
X0019593673Y0109686405D01*
X0019554812Y0109689311D01*
X0019647035Y0109691262D01*
X0019719621Y0109678477D01*
X0019816129Y0109650889D01*
X0019904727Y0109614105D01*
X0019985414Y0109568125D01*
X0020058191Y0109512949D01*
X0020123057Y0109448578D01*
X0020152194Y0109412560D01*
X0020180466Y0109375817D01*
X0020230994Y0109298789D01*
X0020274305Y0109217508D01*
X0020310396Y0109131976D01*
X0020339270Y0109042192D01*
X0020360925Y0108948155D01*
X0020375361Y0108849867D01*
X0020382580Y0108747327D01*
X0020383181Y0108694286D01*
X0020382819Y0108642595D01*
X0020378468Y0108540450D01*
X0020369766Y0108439789D01*
X0020356714Y0108340611D01*
X0020339311Y0108242916D01*
X0020317557Y0108146704D01*
X0020291452Y0108051976D01*
X0020260997Y0107958731D01*
X0020243956Y0107912726D01*
X0020226685Y0107867068D01*
X0020189505Y0107777976D01*
X0020149162Y0107691553D01*
X0020105654Y0107607800D01*
X0020058982Y0107526718D01*
X0020009146Y0107448305D01*
X0019956145Y0107372561D01*
X0019899981Y0107299488D01*
X0019870580Y0107264064D01*
X0019840734Y0107229571D01*
X0019779230Y0107163715D01*
X0019715550Y0107101618D01*
X0019649695Y0107043278D01*
X0019581665Y0106988695D01*
X0019511459Y0106937870D01*
X0019439078Y0106890802D01*
X0019364521Y0106847492D01*
X0019326337Y0106827403D01*
X0019288284Y0106808039D01*
X0019211354Y0106773430D01*
X0019133435Y0106743766D01*
X0019054528Y0106719045D01*
X0018974631Y0106699269D01*
X0018893746Y0106684437D01*
X0018811872Y0106674549D01*
X0018729010Y0106669605D01*
X0018687166Y0106669193D01*
X0018628085Y0106669951D01*
X0018516349Y0106679048D01*
X0018412326Y0106697242D01*
X0018316015Y0106724533D01*
X0018227417Y0106760922D01*
X0018146532Y0106806407D01*
X0018073360Y0106860990D01*
X0018007900Y0106924669D01*
X0017978384Y0106960299D01*
X0017950112Y0106997042D01*
X0017899584Y0107074071D01*
X0017856274Y0107155352D01*
X0017820182Y0107240884D01*
X0017791309Y0107330669D01*
X0017769654Y0107424705D01*
X0017755217Y0107522993D01*
X0017747999Y0107625533D01*
X0017747397Y0107678575D01*
X0017747751Y0107730265D01*
X0017752003Y0107832410D01*
X0017760507Y0107933071D01*
X0017773263Y0108032249D01*
X0017790270Y0108129944D01*
X0017811530Y0108226156D01*
X0017837041Y0108320884D01*
X0017866805Y0108414129D01*
X0017883458Y0108460134D01*
X0017901117Y0108505784D01*
X0017938988Y0108594777D01*
X0017979925Y0108681002D01*
X0018023927Y0108764458D01*
X0018070995Y0108845145D01*
X0018121128Y0108923064D01*
X0018174326Y0108998214D01*
X0018230590Y0109070595D01*
X0018259999Y0109105632D01*
X0018289836Y0109140513D01*
X0018351241Y0109207060D01*
X0018414723Y0109269751D01*
X0018480282Y0109328585D01*
X0018547917Y0109383563D01*
X0018617628Y0109434685D01*
X0018689416Y0109481950D01*
X0018763281Y0109525359D01*
X0018801078Y0109545457D01*
X0018839518Y0109565208D01*
X0018917140Y0109600509D01*
X0018995652Y0109630767D01*
X0019075054Y0109655981D01*
X0019155346Y0109676153D01*
X0019236527Y0109691282D01*
X0019249586Y0109692887D01*
G37*
G36*
G01*
X0019502873Y0109706065D02*
X0019615202Y0109696869D01*
X0019647035Y0109691262D01*
X0019554812Y0109689311D01*
X0019536816Y0109690657D01*
X0019506699Y0109691011D01*
X0019485349Y0109690698D01*
X0019249586Y0109692887D01*
X0019318599Y0109701368D01*
X0019401560Y0109706411D01*
X0019443412Y0109706831D01*
G37*
X0018687166Y0106669193D02*
X0018687166Y0106669193D01*
X0018628085Y0106669951D01*
X0018516349Y0106679048D01*
X0018412326Y0106697242D01*
X0018316015Y0106724533D01*
X0018227417Y0106760922D01*
X0018146532Y0106806407D01*
X0018073360Y0106860990D01*
X0018007900Y0106924669D01*
X0017978384Y0106960299D01*
X0017978384Y0106960299D01*
X0017950112Y0106997042D01*
X0017899584Y0107074071D01*
X0017856274Y0107155352D01*
X0017820182Y0107240884D01*
X0017791309Y0107330669D01*
X0017769654Y0107424705D01*
X0017755217Y0107522993D01*
X0017747999Y0107625533D01*
X0017747397Y0107678575D01*
X0017747397Y0107678575D01*
X0017747751Y0107730265D01*
X0017752003Y0107832410D01*
X0017760507Y0107933071D01*
X0017773263Y0108032249D01*
X0017790270Y0108129944D01*
X0017811530Y0108226156D01*
X0017837041Y0108320884D01*
X0017866805Y0108414129D01*
X0017883458Y0108460134D01*
X0017883458Y0108460134D01*
X0017901117Y0108505784D01*
X0017938988Y0108594777D01*
X0017979925Y0108681002D01*
X0018023927Y0108764458D01*
X0018070995Y0108845145D01*
X0018121128Y0108923064D01*
X0018174326Y0108998214D01*
X0018230590Y0109070595D01*
X0018259999Y0109105632D01*
X0018259999Y0109105632D01*
X0018289836Y0109140513D01*
X0018351241Y0109207060D01*
X0018414723Y0109269751D01*
X0018480282Y0109328585D01*
X0018547917Y0109383563D01*
X0018617628Y0109434685D01*
X0018689416Y0109481950D01*
X0018763281Y0109525359D01*
X0018801078Y0109545457D01*
X0018801078Y0109545457D01*
X0018839518Y0109565208D01*
X0018917140Y0109600509D01*
X0018995652Y0109630767D01*
X0019075054Y0109655981D01*
X0019155346Y0109676153D01*
X0019236527Y0109691282D01*
X0019318599Y0109701368D01*
X0019401560Y0109706411D01*
X0019443412Y0109706831D01*
X0019443412Y0109706831D01*
X0019502873Y0109706065D01*
X0019615202Y0109696869D01*
X0019719621Y0109678477D01*
X0019816129Y0109650889D01*
X0019904727Y0109614105D01*
X0019985414Y0109568125D01*
X0020058191Y0109512949D01*
X0020123057Y0109448578D01*
X0020152194Y0109412560D01*
X0020152194Y0109412560D01*
X0020180466Y0109375817D01*
X0020230994Y0109298789D01*
X0020274305Y0109217508D01*
X0020310396Y0109131976D01*
X0020339270Y0109042192D01*
X0020360925Y0108948155D01*
X0020375361Y0108849867D01*
X0020382580Y0108747327D01*
X0020383181Y0108694286D01*
X0020383181Y0108694286D01*
X0020382819Y0108642595D01*
X0020378468Y0108540450D01*
X0020369766Y0108439789D01*
X0020356714Y0108340611D01*
X0020339311Y0108242916D01*
X0020317557Y0108146704D01*
X0020291452Y0108051976D01*
X0020260997Y0107958731D01*
X0020243956Y0107912726D01*
X0020243956Y0107912726D01*
X0020226685Y0107867068D01*
X0020189505Y0107777976D01*
X0020149162Y0107691553D01*
X0020105654Y0107607800D01*
X0020058982Y0107526718D01*
X0020009146Y0107448305D01*
X0019956145Y0107372561D01*
X0019899981Y0107299488D01*
X0019870580Y0107264064D01*
X0019870580Y0107264064D01*
X0019840734Y0107229571D01*
X0019779230Y0107163715D01*
X0019715550Y0107101618D01*
X0019649695Y0107043278D01*
X0019581665Y0106988695D01*
X0019511459Y0106937870D01*
X0019439078Y0106890802D01*
X0019364521Y0106847492D01*
X0019326337Y0106827403D01*
X0019326337Y0106827403D01*
X0019288284Y0106808039D01*
X0019211354Y0106773430D01*
X0019133435Y0106743766D01*
X0019054528Y0106719045D01*
X0018974631Y0106699269D01*
X0018893746Y0106684437D01*
X0018811872Y0106674549D01*
X0018729010Y0106669605D01*
X0018687166Y0106669193D01*
X0018687166Y0106669193D01*
X0018623886Y0106681850D02*
X0018623886Y0106681850D01*
X0018667295Y0106683070D01*
X0018753124Y0106697704D01*
X0018837767Y0106726973D01*
X0018921223Y0106770876D01*
X0018962456Y0106798926D01*
X0018962456Y0106798926D01*
X0019004217Y0106829843D01*
X0019086091Y0106900246D01*
X0019165987Y0106980933D01*
X0019243906Y0107071904D01*
X0019282041Y0107121675D01*
X0019282041Y0107121675D01*
X0019319748Y0107172862D01*
X0019392525Y0107280841D01*
X0019462137Y0107395543D01*
X0019528585Y0107516970D01*
X0019560491Y0107580485D01*
X0019560491Y0107580485D01*
X0019591771Y0107644824D01*
X0019650704Y0107776138D01*
X0019705287Y0107910617D01*
X0019755518Y0108048260D01*
X0019778821Y0108118400D01*
X0019778821Y0108118400D01*
X0019802092Y0108188738D01*
X0019844017Y0108328754D01*
X0019880406Y0108467979D01*
X0019911257Y0108606413D01*
X0019924375Y0108675301D01*
X0019924375Y0108675301D01*
X0019937262Y0108743694D01*
X0019957434Y0108876195D01*
X0019970881Y0109003554D01*
X0019977605Y0109125772D01*
X0019978166Y0109184738D01*
X0019978166Y0109184738D01*
X0019976979Y0109242254D01*
X0019967190Y0109321631D01*
X0019956511Y0109370973D01*
X0019942272Y0109417250D01*
X0019924473Y0109460461D01*
X0019903115Y0109500607D01*
X0019878197Y0109537687D01*
X0019864255Y0109554950D01*
X0019864255Y0109554950D01*
X0019849678Y0109571604D01*
X0019817146Y0109601367D01*
X0019780559Y0109626879D01*
X0019739919Y0109648138D01*
X0019695225Y0109665146D01*
X0019646476Y0109677901D01*
X0019593673Y0109686405D01*
X0019536816Y0109690657D01*
X0019506699Y0109691011D01*
X0019506699Y0109691011D01*
X0019485349Y0109690698D01*
X0019442731Y0109686941D01*
X0019378977Y0109674729D01*
X0019294334Y0109644669D01*
X0019210087Y0109599579D01*
X0019168128Y0109570771D01*
X0019168128Y0109570771D01*
X0019126368Y0109540612D01*
X0019044494Y0109471395D01*
X0018964598Y0109391499D01*
X0018886679Y0109300924D01*
X0018848544Y0109251186D01*
X0018848544Y0109251186D01*
X0018810837Y0109199998D01*
X0018738060Y0109092020D01*
X0018668448Y0108977317D01*
X0018601999Y0108855891D01*
X0018570094Y0108792376D01*
X0018570094Y0108792376D01*
X0018538781Y0108728037D01*
X0018479452Y0108596723D01*
X0018424079Y0108462244D01*
X0018372660Y0108324601D01*
X0018348599Y0108254461D01*
X0018348599Y0108254461D01*
X0018326054Y0108184123D01*
X0018284919Y0108044107D01*
X0018248531Y0107904882D01*
X0018216889Y0107766448D01*
X0018203046Y0107697561D01*
X0018203046Y0107697561D01*
X0018190915Y0107629893D01*
X0018171929Y0107498183D01*
X0018159272Y0107370823D01*
X0018152943Y0107247815D01*
X0018152416Y0107188123D01*
X0018152416Y0107188123D01*
X0018153602Y0107131332D01*
X0018163391Y0107052598D01*
X0018174071Y0107003454D01*
X0018188309Y0106957178D01*
X0018206108Y0106913769D01*
X0018227466Y0106873227D01*
X0018252384Y0106835553D01*
X0018266327Y0106817911D01*
X0018266327Y0106817911D01*
X0018281283Y0106801258D01*
X0018314408Y0106771495D01*
X0018351390Y0106745983D01*
X0018392228Y0106724724D01*
X0018436922Y0106707716D01*
X0018485473Y0106694960D01*
X0018537880Y0106686456D01*
X0018594144Y0106682204D01*
X0018623882Y0106681850D01*
X0018623886Y0106681850D01*
G36*
G01*
X0024623608Y0109703321D02*
X0024689958Y0109699168D01*
X0024751462Y0109690862D01*
X0024808121Y0109678403D01*
X0024859935Y0109661791D01*
X0024906904Y0109641026D01*
X0024949027Y0109616108D01*
X0024986306Y0109587036D01*
X0025002926Y0109570770D01*
X0025019225Y0109554331D01*
X0025048691Y0109519228D01*
X0025074401Y0109481456D01*
X0025096352Y0109441013D01*
X0025114547Y0109397901D01*
X0025128983Y0109352119D01*
X0025139662Y0109303667D01*
X0025146584Y0109252545D01*
X0025148479Y0109225872D01*
X0025151511Y0109171652D01*
X0025148346Y0109058927D01*
X0025134106Y0108941060D01*
X0025108792Y0108818052D01*
X0025091521Y0108754405D01*
X0024566262Y0106934986D01*
X0024557299Y0106905454D01*
X0024550444Y0106871698D01*
X0024547810Y0106839528D01*
X0024547283Y0106805250D01*
X0024547613Y0106792823D01*
X0024551568Y0106770278D01*
X0024559479Y0106750502D01*
X0024571345Y0106733495D01*
X0024578927Y0106726145D01*
X0024587892Y0106719323D01*
X0024608458Y0106708644D01*
X0024632190Y0106701525D01*
X0024659086Y0106697966D01*
X0024673853Y0106697669D01*
X0024718646Y0106698691D01*
X0024805266Y0106710952D01*
X0024888327Y0106735475D01*
X0024967827Y0106772259D01*
X0025006094Y0106795760D01*
X0025043900Y0106822326D01*
X0025117864Y0106887983D01*
X0025189849Y0106968670D01*
X0025259857Y0107064388D01*
X0025294037Y0107118509D01*
X0025328777Y0107175366D01*
X0025397599Y0107303911D01*
X0025465629Y0107450256D01*
X0025532869Y0107614399D01*
X0025566159Y0107703887D01*
X0025575648Y0107700726D01*
X0025541600Y0107611172D01*
X0025473174Y0107446238D01*
X0025404353Y0107298311D01*
X0025335135Y0107167392D01*
X0025300362Y0107109019D01*
X0025265984Y0107053316D01*
X0025193603Y0106954435D01*
X0025116871Y0106870583D01*
X0025035788Y0106801762D01*
X0024993434Y0106773613D01*
X0024972298Y0106760833D01*
X0024928296Y0106737991D01*
X0024882217Y0106718413D01*
X0024834062Y0106702098D01*
X0024758195Y0106683335D01*
X0024649426Y0106670282D01*
X0024591580Y0106669195D01*
X0024591581Y0106669193D01*
X0024530571Y0106670346D01*
X0024449068Y0106679864D01*
X0024399924Y0106690246D01*
X0024355230Y0106704090D01*
X0024314985Y0106721394D01*
X0024279190Y0106742159D01*
X0024247844Y0106766385D01*
X0024234026Y0106779940D01*
X0024220858Y0106794352D01*
X0024197324Y0106824906D01*
X0024177152Y0106857537D01*
X0024160342Y0106892245D01*
X0024146895Y0106929028D01*
X0024136809Y0106967889D01*
X0024127563Y0107029813D01*
X0024126443Y0107074211D01*
X0024126970Y0107108624D01*
X0024133299Y0107173490D01*
X0024139100Y0107203944D01*
X0024154392Y0107264593D01*
X0024167576Y0107314691D01*
X0024566266Y0108681628D01*
X0024598172Y0108794287D01*
X0024648799Y0108999170D01*
X0024683606Y0109179529D01*
X0024702591Y0109335367D01*
X0024705491Y0109403068D01*
X0024706208Y0109435212D01*
X0024702944Y0109492662D01*
X0024694044Y0109541905D01*
X0024679508Y0109582941D01*
X0024659337Y0109615770D01*
X0024633529Y0109640391D01*
X0024602085Y0109656805D01*
X0024565005Y0109665013D01*
X0024544116Y0109665696D01*
X0024515284Y0109665210D01*
X0024458032Y0109659376D01*
X0024401274Y0109647708D01*
X0024345010Y0109630206D01*
X0024289241Y0109606870D01*
X0024233966Y0109577700D01*
X0024179186Y0109542696D01*
X0024124900Y0109501858D01*
X0024097963Y0109479008D01*
X0024045259Y0109431051D01*
X0023942818Y0109322281D01*
X0023843937Y0109198086D01*
X0023748615Y0109058466D01*
X0023702438Y0108982228D01*
X0023657743Y0108904837D01*
X0023572310Y0108743462D01*
X0023491622Y0108574177D01*
X0023415681Y0108396981D01*
X0023379689Y0108305087D01*
X0023345377Y0108213358D01*
X0023281697Y0108030230D01*
X0023223950Y0107847497D01*
X0023172469Y0107666329D01*
X0022943024Y0106732473D01*
X0022439920Y0106732473D01*
X0022914551Y0108681625D01*
X0022942007Y0108795767D01*
X0022986702Y0109002627D01*
X0023019135Y0109183778D01*
X0023039307Y0109339220D01*
X0023044284Y0109406229D01*
X0023046163Y0109437986D01*
X0023044977Y0109494744D01*
X0023037857Y0109543393D01*
X0023024805Y0109583935D01*
X0023005820Y0109616368D01*
X0022980901Y0109640692D01*
X0022950050Y0109656909D01*
X0022913266Y0109665017D01*
X0022892402Y0109665693D01*
X0022863562Y0109665207D01*
X0022806210Y0109659373D01*
X0022749255Y0109647705D01*
X0022692694Y0109630203D01*
X0022636530Y0109606867D01*
X0022580760Y0109577697D01*
X0022525387Y0109542693D01*
X0022470409Y0109501855D01*
X0022443084Y0109479005D01*
X0022388831Y0109431047D01*
X0022283621Y0109322278D01*
X0022182367Y0109198083D01*
X0022085067Y0109058462D01*
X0022038066Y0108982224D01*
X0021991822Y0108904833D01*
X0021903620Y0108743459D01*
X0021820560Y0108574174D01*
X0021742641Y0108396978D01*
X0021705824Y0108305084D01*
X0021669996Y0108213355D01*
X0021603944Y0108030227D01*
X0021544615Y0107847494D01*
X0021493100Y0107668935D01*
X0021269163Y0106732474D01*
X0020762891Y0106732473D01*
X0021455852Y0109630887D01*
X0021016027Y0109630887D01*
X0021016027Y0109643544D01*
X0021965289Y0109643544D01*
X0021538082Y0107857041D01*
X0021593228Y0108029930D01*
X0021658094Y0108215036D01*
X0021693164Y0108308248D01*
X0021730014Y0108401757D01*
X0021808328Y0108582513D01*
X0021892179Y0108755753D01*
X0021981568Y0108921478D01*
X0022028570Y0109001210D01*
X0022077253Y0109079029D01*
X0022178903Y0109221814D01*
X0022285695Y0109349174D01*
X0022397628Y0109461107D01*
X0022455738Y0109510647D01*
X0022485097Y0109534272D01*
X0022544723Y0109576494D01*
X0022605436Y0109612685D01*
X0022667237Y0109642844D01*
X0022730126Y0109666971D01*
X0022794102Y0109685066D01*
X0022859166Y0109697130D01*
X0022925318Y0109703161D01*
X0022958847Y0109703664D01*
X0022990926Y0109703318D01*
X0023051540Y0109699165D01*
X0023107902Y0109690859D01*
X0023160013Y0109678400D01*
X0023207872Y0109661788D01*
X0023251478Y0109641022D01*
X0023290833Y0109616104D01*
X0023325936Y0109587033D01*
X0023341715Y0109570767D01*
X0023357248Y0109554328D01*
X0023385429Y0109519225D01*
X0023410150Y0109481452D01*
X0023431409Y0109441010D01*
X0023449208Y0109397897D01*
X0023463546Y0109352115D01*
X0023474423Y0109303663D01*
X0023481839Y0109252542D01*
X0023484105Y0109225868D01*
X0023487995Y0109171648D01*
X0023487204Y0109058923D01*
X0023476128Y0108941057D01*
X0023454769Y0108818048D01*
X0023439804Y0108754402D01*
X0023236028Y0107925021D01*
X0023269040Y0108029934D01*
X0023332719Y0108215040D01*
X0023367031Y0108308252D01*
X0023403090Y0108401761D01*
X0023479822Y0108582516D01*
X0023562091Y0108755756D01*
X0023649898Y0108921482D01*
X0023696108Y0109001213D01*
X0023743176Y0109079033D01*
X0023841266Y0109221818D01*
X0023944103Y0109349177D01*
X0024051686Y0109461111D01*
X0024107456Y0109510651D01*
X0024135620Y0109534275D01*
X0024192774Y0109576498D01*
X0024250916Y0109612688D01*
X0024310047Y0109642847D01*
X0024370167Y0109666974D01*
X0024431276Y0109685070D01*
X0024493373Y0109697133D01*
X0024556460Y0109703165D01*
X0024588415Y0109703668D01*
G37*
X0024591581Y0106669193D02*
X0024591581Y0106669193D01*
X0024530571Y0106670346D01*
X0024449068Y0106679864D01*
X0024399924Y0106690246D01*
X0024355230Y0106704090D01*
X0024314985Y0106721394D01*
X0024279190Y0106742159D01*
X0024247844Y0106766385D01*
X0024234026Y0106779940D01*
X0024234026Y0106779940D01*
X0024220858Y0106794352D01*
X0024197324Y0106824906D01*
X0024177152Y0106857537D01*
X0024160342Y0106892245D01*
X0024146895Y0106929028D01*
X0024136809Y0106967889D01*
X0024127563Y0107029813D01*
X0024126443Y0107074211D01*
X0024126443Y0107074211D01*
X0024126970Y0107108624D01*
X0024133299Y0107173490D01*
X0024139100Y0107203944D01*
X0024139100Y0107203944D01*
X0024154392Y0107264593D01*
X0024167576Y0107314691D01*
X0024566266Y0108681628D01*
X0024566266Y0108681628D01*
X0024598172Y0108794287D01*
X0024648799Y0108999170D01*
X0024683606Y0109179529D01*
X0024702591Y0109335367D01*
X0024705491Y0109403068D01*
X0024705491Y0109403068D01*
X0024706208Y0109435212D01*
X0024702944Y0109492662D01*
X0024694044Y0109541905D01*
X0024679508Y0109582941D01*
X0024659337Y0109615770D01*
X0024633529Y0109640391D01*
X0024602085Y0109656805D01*
X0024565005Y0109665013D01*
X0024544116Y0109665696D01*
X0024544116Y0109665696D01*
X0024515284Y0109665210D01*
X0024458032Y0109659376D01*
X0024401274Y0109647708D01*
X0024345010Y0109630206D01*
X0024289241Y0109606870D01*
X0024233966Y0109577700D01*
X0024179186Y0109542696D01*
X0024124900Y0109501858D01*
X0024097963Y0109479008D01*
X0024097963Y0109479008D01*
X0024045259Y0109431051D01*
X0023942818Y0109322281D01*
X0023843937Y0109198086D01*
X0023748615Y0109058466D01*
X0023702438Y0108982228D01*
X0023702438Y0108982228D01*
X0023657743Y0108904837D01*
X0023572310Y0108743462D01*
X0023491622Y0108574177D01*
X0023415681Y0108396981D01*
X0023379689Y0108305087D01*
X0023379689Y0108305087D01*
X0023345377Y0108213358D01*
X0023281697Y0108030230D01*
X0023223950Y0107847497D01*
X0023172136Y0107665160D01*
X0023148701Y0107574156D01*
X0023136044Y0107574156D01*
X0023136044Y0107574156D01*
X0023159479Y0107664468D01*
X0023211293Y0107846410D01*
X0023269040Y0108029934D01*
X0023332719Y0108215040D01*
X0023367031Y0108308252D01*
X0023367031Y0108308252D01*
X0023403090Y0108401761D01*
X0023479822Y0108582516D01*
X0023562091Y0108755756D01*
X0023649898Y0108921482D01*
X0023696108Y0109001213D01*
X0023696108Y0109001213D01*
X0023743176Y0109079033D01*
X0023841266Y0109221818D01*
X0023944103Y0109349177D01*
X0024051686Y0109461111D01*
X0024107456Y0109510651D01*
X0024107456Y0109510651D01*
X0024135620Y0109534275D01*
X0024192774Y0109576498D01*
X0024250916Y0109612688D01*
X0024310047Y0109642847D01*
X0024370167Y0109666974D01*
X0024431276Y0109685070D01*
X0024493373Y0109697133D01*
X0024556460Y0109703165D01*
X0024588415Y0109703668D01*
X0024588415Y0109703668D01*
X0024623608Y0109703321D01*
X0024689958Y0109699168D01*
X0024751462Y0109690862D01*
X0024808121Y0109678403D01*
X0024859935Y0109661791D01*
X0024906904Y0109641026D01*
X0024949027Y0109616108D01*
X0024986306Y0109587036D01*
X0025002926Y0109570770D01*
X0025002926Y0109570770D01*
X0025019225Y0109554331D01*
X0025048691Y0109519228D01*
X0025074401Y0109481456D01*
X0025096352Y0109441013D01*
X0025114547Y0109397901D01*
X0025128983Y0109352119D01*
X0025139662Y0109303667D01*
X0025146584Y0109252545D01*
X0025148479Y0109225872D01*
X0025148479Y0109225872D01*
X0025151511Y0109171652D01*
X0025148346Y0109058927D01*
X0025134106Y0108941060D01*
X0025108792Y0108818052D01*
X0025091521Y0108754405D01*
X0024566262Y0106934986D01*
X0024566262Y0106934986D01*
X0024557299Y0106905454D01*
X0024550444Y0106871698D01*
X0024550444Y0106871698D01*
X0024547810Y0106839528D01*
X0024547283Y0106805250D01*
X0024547283Y0106805250D01*
X0024547613Y0106792823D01*
X0024551568Y0106770278D01*
X0024559479Y0106750502D01*
X0024571345Y0106733495D01*
X0024578927Y0106726145D01*
X0024578927Y0106726145D01*
X0024587892Y0106719323D01*
X0024608458Y0106708644D01*
X0024632190Y0106701525D01*
X0024659086Y0106697966D01*
X0024673853Y0106697669D01*
X0024673853Y0106697669D01*
X0024718646Y0106698691D01*
X0024805266Y0106710952D01*
X0024888327Y0106735475D01*
X0024967827Y0106772259D01*
X0025006094Y0106795760D01*
X0025006094Y0106795760D01*
X0025043900Y0106822326D01*
X0025117864Y0106887983D01*
X0025189849Y0106968670D01*
X0025259857Y0107064388D01*
X0025294037Y0107118509D01*
X0025294037Y0107118509D01*
X0025328777Y0107175366D01*
X0025397599Y0107303911D01*
X0025465629Y0107450256D01*
X0025532869Y0107614399D01*
X0025566159Y0107703887D01*
X0025575648Y0107700726D01*
X0025575648Y0107700726D01*
X0025541600Y0107611172D01*
X0025473174Y0107446238D01*
X0025404353Y0107298311D01*
X0025335135Y0107167392D01*
X0025300362Y0107109019D01*
X0025300362Y0107109019D01*
X0025265984Y0107053316D01*
X0025193603Y0106954435D01*
X0025116871Y0106870583D01*
X0025035788Y0106801762D01*
X0024993434Y0106773613D01*
X0024993434Y0106773613D01*
X0024972298Y0106760833D01*
X0024928296Y0106737991D01*
X0024882217Y0106718413D01*
X0024834062Y0106702098D01*
X0024758195Y0106683335D01*
X0024649426Y0106670282D01*
X0024591580Y0106669195D01*
X0024591581Y0106669193D01*
X0020762891Y0106732473D02*
X0021455852Y0109630887D01*
X0021016027Y0109630887D01*
X0021016027Y0109643544D01*
X0021965289Y0109643544D01*
X0021269163Y0106732474D01*
X0020762891Y0106732473D01*
X0022439920Y0106732473D02*
X0022914551Y0108681625D01*
X0022914551Y0108681625D01*
X0022942007Y0108795767D01*
X0022986702Y0109002627D01*
X0023019135Y0109183778D01*
X0023039307Y0109339220D01*
X0023044284Y0109406229D01*
X0023044284Y0109406229D01*
X0023046163Y0109437986D01*
X0023044977Y0109494744D01*
X0023037857Y0109543393D01*
X0023024805Y0109583935D01*
X0023005820Y0109616368D01*
X0022980901Y0109640692D01*
X0022950050Y0109656909D01*
X0022913266Y0109665017D01*
X0022892402Y0109665693D01*
X0022892402Y0109665693D01*
X0022863562Y0109665207D01*
X0022806210Y0109659373D01*
X0022749255Y0109647705D01*
X0022692694Y0109630203D01*
X0022636530Y0109606867D01*
X0022580760Y0109577697D01*
X0022525387Y0109542693D01*
X0022470409Y0109501855D01*
X0022443084Y0109479005D01*
X0022443084Y0109479005D01*
X0022388831Y0109431047D01*
X0022283621Y0109322278D01*
X0022182367Y0109198083D01*
X0022085067Y0109058462D01*
X0022038066Y0108982224D01*
X0022038066Y0108982224D01*
X0021991822Y0108904833D01*
X0021903620Y0108743459D01*
X0021820560Y0108574174D01*
X0021742641Y0108396978D01*
X0021705824Y0108305084D01*
X0021705824Y0108305084D01*
X0021669996Y0108213355D01*
X0021603944Y0108030227D01*
X0021544615Y0107847494D01*
X0021492010Y0107665156D01*
X0021468509Y0107574153D01*
X0021459012Y0107574153D01*
X0021459012Y0107574153D01*
X0021482480Y0107664464D01*
X0021534690Y0107846406D01*
X0021593228Y0108029930D01*
X0021658094Y0108215036D01*
X0021693164Y0108308248D01*
X0021693164Y0108308248D01*
X0021730014Y0108401757D01*
X0021808328Y0108582513D01*
X0021892179Y0108755753D01*
X0021981568Y0108921478D01*
X0022028570Y0109001210D01*
X0022028570Y0109001210D01*
X0022077253Y0109079029D01*
X0022178903Y0109221814D01*
X0022285695Y0109349174D01*
X0022397628Y0109461107D01*
X0022455738Y0109510647D01*
X0022455738Y0109510647D01*
X0022485097Y0109534272D01*
X0022544723Y0109576494D01*
X0022605436Y0109612685D01*
X0022667237Y0109642844D01*
X0022730126Y0109666971D01*
X0022794102Y0109685066D01*
X0022859166Y0109697130D01*
X0022925318Y0109703161D01*
X0022958847Y0109703664D01*
X0022958847Y0109703664D01*
X0022990926Y0109703318D01*
X0023051540Y0109699165D01*
X0023107902Y0109690859D01*
X0023160013Y0109678400D01*
X0023207872Y0109661788D01*
X0023251478Y0109641022D01*
X0023290833Y0109616104D01*
X0023325936Y0109587033D01*
X0023341715Y0109570767D01*
X0023341715Y0109570767D01*
X0023357248Y0109554328D01*
X0023385429Y0109519225D01*
X0023410150Y0109481452D01*
X0023431409Y0109441010D01*
X0023449208Y0109397897D01*
X0023463546Y0109352115D01*
X0023474423Y0109303663D01*
X0023481839Y0109252542D01*
X0023484105Y0109225868D01*
X0023484105Y0109225868D01*
X0023487995Y0109171648D01*
X0023487204Y0109058923D01*
X0023476128Y0108941057D01*
X0023454769Y0108818048D01*
X0023439804Y0108754402D01*
X0022943024Y0106732473D01*
X0022439920Y0106732473D01*
G36*
G01*
X0030501313Y0111541676D02*
X0030592086Y0111536930D01*
X0030680289Y0111527437D01*
X0030765920Y0111513198D01*
X0030848980Y0111494213D01*
X0030929470Y0111470481D01*
X0031007389Y0111442003D01*
X0031082736Y0111408779D01*
X0031119339Y0111390189D01*
X0031155744Y0111370809D01*
X0031224763Y0111328092D01*
X0031289234Y0111280629D01*
X0031349156Y0111228420D01*
X0031404530Y0111171464D01*
X0031455355Y0111109762D01*
X0031501631Y0111043313D01*
X0031503478Y0111040163D01*
X0031948364Y0111478784D01*
X0031961022Y0111478784D01*
X0031657258Y0110181459D01*
X0031644597Y0110181459D01*
X0031644598Y0110181462D01*
X0031644597Y0110181462D01*
X0031654452Y0110262117D01*
X0031661968Y0110415185D01*
X0031657544Y0110523189D01*
X0031650326Y0110592307D01*
X0031639449Y0110658953D01*
X0031624913Y0110723127D01*
X0031616121Y0110754184D01*
X0031597794Y0110815820D01*
X0031551912Y0110930523D01*
X0031494956Y0111034942D01*
X0031444626Y0111106186D01*
X0031407843Y0111150683D01*
X0031388298Y0111171860D01*
X0031348811Y0111213686D01*
X0031262587Y0111288441D01*
X0031167660Y0111352516D01*
X0031064033Y0111405912D01*
X0031008593Y0111428160D01*
X0030952000Y0111449387D01*
X0030834529Y0111482611D01*
X0030711916Y0111504760D01*
X0030584161Y0111515835D01*
X0030518141Y0111516758D01*
X0030475951Y0111516346D01*
X0030392891Y0111511402D01*
X0030311413Y0111501514D01*
X0030231517Y0111486682D01*
X0030153202Y0111466905D01*
X0030076470Y0111442185D01*
X0030001321Y0111412521D01*
X0029927753Y0111377912D01*
X0029891628Y0111358548D01*
X0029855767Y0111338458D01*
X0029785363Y0111295148D01*
X0029716542Y0111248080D01*
X0029649302Y0111197255D01*
X0029583645Y0111142673D01*
X0029519570Y0111084333D01*
X0029426226Y0110990247D01*
X0029366370Y0110921887D01*
X0029308359Y0110852241D01*
X0029197612Y0110704710D01*
X0029093193Y0110547291D01*
X0028995103Y0110379984D01*
X0028948694Y0110292210D01*
X0028904197Y0110203150D01*
X0028821137Y0110020418D01*
X0028745196Y0109832147D01*
X0028676374Y0109638340D01*
X0028644930Y0109539129D01*
X0028615463Y0109439390D01*
X0028562463Y0109239254D01*
X0028516582Y0109038327D01*
X0028477820Y0108836608D01*
X0028461406Y0108735420D01*
X0028446244Y0108635319D01*
X0028422511Y0108438742D01*
X0028406689Y0108246517D01*
X0028398778Y0108058642D01*
X0028398119Y0107966518D01*
X0028399239Y0107886160D01*
X0028412687Y0107728741D01*
X0028439583Y0107575277D01*
X0028479927Y0107425768D01*
X0028505702Y0107352661D01*
X0028519438Y0107316553D01*
X0028549795Y0107247138D01*
X0028583612Y0107181086D01*
X0028620890Y0107118395D01*
X0028661630Y0107059066D01*
X0028705830Y0107003099D01*
X0028753491Y0106950494D01*
X0028804612Y0106901251D01*
X0028831615Y0106878030D01*
X0028859195Y0106855567D01*
X0028917238Y0106815422D01*
X0028978742Y0106781011D01*
X0029043707Y0106752335D01*
X0029112133Y0106729395D01*
X0029184020Y0106712190D01*
X0029259368Y0106700719D01*
X0029338177Y0106694984D01*
X0029379023Y0106694506D01*
X0029431875Y0106694968D01*
X0029536096Y0106700505D01*
X0029638537Y0106711580D01*
X0029739198Y0106728192D01*
X0029838080Y0106750341D01*
X0029935181Y0106778028D01*
X0030030503Y0106811252D01*
X0030124045Y0106850014D01*
X0030170074Y0106871702D01*
X0030215700Y0106894173D01*
X0030304397Y0106942328D01*
X0030390028Y0106994340D01*
X0030472594Y0107050208D01*
X0030552095Y0107109932D01*
X0030628530Y0107173513D01*
X0030701900Y0107240950D01*
X0030772205Y0107312243D01*
X0030806080Y0107349497D01*
X0030839329Y0107387657D01*
X0030902119Y0107465872D01*
X0030960459Y0107546362D01*
X0031014349Y0107629126D01*
X0031063790Y0107714164D01*
X0031108781Y0107801476D01*
X0031149323Y0107891063D01*
X0031180909Y0107971456D01*
X0031201355Y0108029075D01*
X0031201606Y0108029802D01*
X0031214264Y0108029802D01*
X0031214263Y0108029798D01*
X0031214269Y0108029798D01*
X0030866207Y0106732473D01*
X0030853545Y0106732473D01*
X0030648232Y0107167986D01*
X0030629685Y0107151182D01*
X0030550481Y0107086613D01*
X0030467816Y0107026097D01*
X0030381690Y0106969636D01*
X0030292103Y0106917229D01*
X0030199056Y0106868876D01*
X0030151090Y0106846388D01*
X0030103050Y0106824700D01*
X0030005158Y0106785939D01*
X0029905090Y0106752715D01*
X0029802846Y0106725028D01*
X0029698427Y0106702878D01*
X0029591833Y0106686266D01*
X0029483063Y0106675192D01*
X0029372118Y0106669654D01*
X0029315740Y0106669193D01*
X0029255539Y0106669720D01*
X0029138265Y0106676048D01*
X0029024749Y0106688705D01*
X0028914991Y0106707691D01*
X0028808990Y0106733004D01*
X0028706747Y0106764646D01*
X0028608261Y0106802617D01*
X0028513532Y0106846916D01*
X0028467734Y0106871702D01*
X0028423056Y0106897856D01*
X0028337820Y0106954614D01*
X0028257528Y0107016712D01*
X0028182180Y0107084149D01*
X0028111776Y0107156926D01*
X0028046317Y0107235042D01*
X0027985801Y0107318498D01*
X0027930230Y0107407294D01*
X0027904504Y0107453916D01*
X0027879718Y0107501346D01*
X0027835419Y0107599832D01*
X0027797448Y0107702669D01*
X0027765806Y0107809856D01*
X0027740493Y0107921395D01*
X0027721507Y0108037284D01*
X0027708851Y0108157523D01*
X0027702522Y0108282114D01*
X0027701995Y0108346222D01*
X0027702563Y0108427115D01*
X0027709386Y0108587007D01*
X0027723032Y0108744624D01*
X0027743500Y0108899967D01*
X0027770792Y0109053035D01*
X0027804906Y0109203829D01*
X0027845843Y0109352349D01*
X0027893603Y0109498595D01*
X0027920325Y0109570770D01*
X0027948432Y0109642797D01*
X0028008849Y0109783308D01*
X0028074309Y0109919566D01*
X0028144811Y0110051573D01*
X0028220356Y0110179328D01*
X0028300945Y0110302831D01*
X0028386576Y0110422082D01*
X0028477250Y0110537082D01*
X0028524689Y0110592810D01*
X0028572844Y0110647689D01*
X0028672121Y0110752503D01*
X0028774958Y0110851385D01*
X0028881354Y0110944333D01*
X0028991311Y0111031349D01*
X0029104827Y0111112432D01*
X0029221902Y0111187582D01*
X0029342538Y0111256799D01*
X0029404339Y0111288935D01*
X0029466584Y0111319918D01*
X0029592559Y0111375292D01*
X0029720314Y0111422755D01*
X0029849849Y0111462307D01*
X0029981164Y0111493949D01*
X0030114258Y0111517681D01*
X0030249132Y0111533502D01*
X0030385787Y0111541412D01*
X0030454855Y0111542071D01*
G37*
X0029315741Y0106669193D02*
X0029315741Y0106669193D01*
X0029255539Y0106669720D01*
X0029138265Y0106676048D01*
X0029024749Y0106688705D01*
X0028914991Y0106707691D01*
X0028808990Y0106733004D01*
X0028706747Y0106764646D01*
X0028608261Y0106802617D01*
X0028513532Y0106846916D01*
X0028467734Y0106871702D01*
X0028467734Y0106871702D01*
X0028423056Y0106897856D01*
X0028337820Y0106954614D01*
X0028257528Y0107016712D01*
X0028182180Y0107084149D01*
X0028111776Y0107156926D01*
X0028046317Y0107235042D01*
X0027985801Y0107318498D01*
X0027930230Y0107407294D01*
X0027904504Y0107453916D01*
X0027904504Y0107453916D01*
X0027879718Y0107501346D01*
X0027835419Y0107599832D01*
X0027797448Y0107702669D01*
X0027765806Y0107809856D01*
X0027740493Y0107921395D01*
X0027721507Y0108037284D01*
X0027708851Y0108157523D01*
X0027702522Y0108282114D01*
X0027701995Y0108346222D01*
X0027701995Y0108346222D01*
X0027702563Y0108427115D01*
X0027709386Y0108587007D01*
X0027723032Y0108744624D01*
X0027743500Y0108899967D01*
X0027770792Y0109053035D01*
X0027804906Y0109203829D01*
X0027845843Y0109352349D01*
X0027893603Y0109498595D01*
X0027920325Y0109570770D01*
X0027920325Y0109570770D01*
X0027948432Y0109642797D01*
X0028008849Y0109783308D01*
X0028074309Y0109919566D01*
X0028144811Y0110051573D01*
X0028220356Y0110179328D01*
X0028300945Y0110302831D01*
X0028386576Y0110422082D01*
X0028477250Y0110537082D01*
X0028524689Y0110592810D01*
X0028524689Y0110592810D01*
X0028572844Y0110647689D01*
X0028672121Y0110752503D01*
X0028774958Y0110851385D01*
X0028881354Y0110944333D01*
X0028991311Y0111031349D01*
X0029104827Y0111112432D01*
X0029221902Y0111187582D01*
X0029342538Y0111256799D01*
X0029404339Y0111288935D01*
X0029404339Y0111288935D01*
X0029466584Y0111319918D01*
X0029592559Y0111375292D01*
X0029720314Y0111422755D01*
X0029849849Y0111462307D01*
X0029981164Y0111493949D01*
X0030114258Y0111517681D01*
X0030249132Y0111533502D01*
X0030385787Y0111541412D01*
X0030454855Y0111542071D01*
X0030454855Y0111542071D01*
X0030501313Y0111541676D01*
X0030592086Y0111536930D01*
X0030680289Y0111527437D01*
X0030765920Y0111513198D01*
X0030848980Y0111494213D01*
X0030929470Y0111470481D01*
X0031007389Y0111442003D01*
X0031082736Y0111408779D01*
X0031119339Y0111390189D01*
X0031119339Y0111390189D01*
X0031155744Y0111370809D01*
X0031224763Y0111328092D01*
X0031289234Y0111280629D01*
X0031349156Y0111228420D01*
X0031404530Y0111171464D01*
X0031455355Y0111109762D01*
X0031501631Y0111043313D01*
X0031543359Y0110972119D01*
X0031562328Y0110934544D01*
X0031562328Y0110934544D01*
X0031580769Y0110896573D01*
X0031612214Y0110816677D01*
X0031637132Y0110732035D01*
X0031655524Y0110642646D01*
X0031667390Y0110548511D01*
X0031672729Y0110449629D01*
X0031671543Y0110346001D01*
X0031663830Y0110237627D01*
X0031657254Y0110181462D01*
X0031644597Y0110181462D01*
X0031644597Y0110181462D01*
X0031654452Y0110262117D01*
X0031661968Y0110415185D01*
X0031657544Y0110523189D01*
X0031650326Y0110592307D01*
X0031639449Y0110658953D01*
X0031624913Y0110723127D01*
X0031616121Y0110754184D01*
X0031616121Y0110754184D01*
X0031597794Y0110815820D01*
X0031551912Y0110930523D01*
X0031494956Y0111034942D01*
X0031444626Y0111106186D01*
X0031407843Y0111150683D01*
X0031388298Y0111171860D01*
X0031388298Y0111171860D01*
X0031348811Y0111213686D01*
X0031262587Y0111288441D01*
X0031167660Y0111352516D01*
X0031064033Y0111405912D01*
X0031008593Y0111428160D01*
X0031008593Y0111428160D01*
X0030952000Y0111449387D01*
X0030834529Y0111482611D01*
X0030711916Y0111504760D01*
X0030584161Y0111515835D01*
X0030518141Y0111516758D01*
X0030518141Y0111516758D01*
X0030475951Y0111516346D01*
X0030392891Y0111511402D01*
X0030311413Y0111501514D01*
X0030231517Y0111486682D01*
X0030153202Y0111466905D01*
X0030076470Y0111442185D01*
X0030001321Y0111412521D01*
X0029927753Y0111377912D01*
X0029891628Y0111358548D01*
X0029891628Y0111358548D01*
X0029855767Y0111338458D01*
X0029785363Y0111295148D01*
X0029716542Y0111248080D01*
X0029649302Y0111197255D01*
X0029583645Y0111142673D01*
X0029519570Y0111084333D01*
X0029426226Y0110990247D01*
X0029366370Y0110921887D01*
X0029366370Y0110921887D01*
X0029308359Y0110852241D01*
X0029197612Y0110704710D01*
X0029093193Y0110547291D01*
X0028995103Y0110379984D01*
X0028948694Y0110292210D01*
X0028948694Y0110292210D01*
X0028904197Y0110203150D01*
X0028821137Y0110020418D01*
X0028745196Y0109832147D01*
X0028676374Y0109638340D01*
X0028644930Y0109539129D01*
X0028644930Y0109539129D01*
X0028615463Y0109439390D01*
X0028562463Y0109239254D01*
X0028516582Y0109038327D01*
X0028477820Y0108836608D01*
X0028461406Y0108735420D01*
X0028461406Y0108735420D01*
X0028446244Y0108635319D01*
X0028422511Y0108438742D01*
X0028406689Y0108246517D01*
X0028398778Y0108058642D01*
X0028398119Y0107966518D01*
X0028398119Y0107966518D01*
X0028399239Y0107886160D01*
X0028412687Y0107728741D01*
X0028439583Y0107575277D01*
X0028479927Y0107425768D01*
X0028505702Y0107352661D01*
X0028505702Y0107352661D01*
X0028519438Y0107316553D01*
X0028549795Y0107247138D01*
X0028583612Y0107181086D01*
X0028620890Y0107118395D01*
X0028661630Y0107059066D01*
X0028705830Y0107003099D01*
X0028753491Y0106950494D01*
X0028804612Y0106901251D01*
X0028831615Y0106878030D01*
X0028831615Y0106878030D01*
X0028859195Y0106855567D01*
X0028917238Y0106815422D01*
X0028978742Y0106781011D01*
X0029043707Y0106752335D01*
X0029112133Y0106729395D01*
X0029184020Y0106712190D01*
X0029259368Y0106700719D01*
X0029338177Y0106694984D01*
X0029379023Y0106694506D01*
X0029379023Y0106694506D01*
X0029431875Y0106694968D01*
X0029536096Y0106700505D01*
X0029638537Y0106711580D01*
X0029739198Y0106728192D01*
X0029838080Y0106750341D01*
X0029935181Y0106778028D01*
X0030030503Y0106811252D01*
X0030124045Y0106850014D01*
X0030170074Y0106871702D01*
X0030170074Y0106871702D01*
X0030215700Y0106894173D01*
X0030304397Y0106942328D01*
X0030390028Y0106994340D01*
X0030472594Y0107050208D01*
X0030552095Y0107109932D01*
X0030628530Y0107173513D01*
X0030701900Y0107240950D01*
X0030772205Y0107312243D01*
X0030806080Y0107349497D01*
X0030806080Y0107349497D01*
X0030839329Y0107387657D01*
X0030902119Y0107465872D01*
X0030960459Y0107546362D01*
X0031014349Y0107629126D01*
X0031063790Y0107714164D01*
X0031108781Y0107801476D01*
X0031149323Y0107891063D01*
X0031185414Y0107982924D01*
X0031201606Y0108029802D01*
X0031214264Y0108029802D01*
X0031214264Y0108029802D01*
X0031198056Y0107981358D01*
X0031161766Y0107886531D01*
X0031120829Y0107794176D01*
X0031075245Y0107704292D01*
X0031025013Y0107616881D01*
X0030970134Y0107531942D01*
X0030910607Y0107449475D01*
X0030846433Y0107369480D01*
X0030812410Y0107330512D01*
X0030812410Y0107330512D01*
X0030777710Y0107292484D01*
X0030705428Y0107219806D01*
X0030629685Y0107151182D01*
X0030550481Y0107086613D01*
X0030467816Y0107026097D01*
X0030381690Y0106969636D01*
X0030292103Y0106917229D01*
X0030199056Y0106868876D01*
X0030151090Y0106846388D01*
X0030151090Y0106846388D01*
X0030103050Y0106824700D01*
X0030005158Y0106785939D01*
X0029905090Y0106752715D01*
X0029802846Y0106725028D01*
X0029698427Y0106702878D01*
X0029591833Y0106686266D01*
X0029483063Y0106675192D01*
X0029372118Y0106669654D01*
X0029315740Y0106669193D01*
X0029315741Y0106669193D01*
X0030853545Y0106732473D02*
X0030644708Y0107175462D01*
X0030644708Y0107175462D01*
X0030706278Y0107237692D01*
X0030828100Y0107367424D01*
X0030888352Y0107434927D01*
X0030888352Y0107434927D01*
X0030918445Y0107470986D01*
X0030978960Y0107555629D01*
X0031039871Y0107655301D01*
X0031101178Y0107770003D01*
X0031131996Y0107833617D01*
X0031201612Y0108029798D01*
X0031214269Y0108029798D01*
X0030866207Y0106732473D01*
X0030853545Y0106732473D01*
X0031644597Y0110181459D02*
X0031663584Y0110308028D01*
X0031663584Y0110308028D01*
X0031665462Y0110362248D01*
X0031664275Y0110467062D01*
X0031657156Y0110567525D01*
X0031644105Y0110663638D01*
X0031635108Y0110709882D01*
X0031635108Y0110709882D01*
X0031625714Y0110755334D01*
X0031600006Y0110841954D01*
X0031565991Y0110923433D01*
X0031523669Y0110999769D01*
X0031499048Y0111035795D01*
X0031948364Y0111478784D01*
X0031961022Y0111478784D01*
X0031657258Y0110181459D01*
X0031644597Y0110181459D01*
G36*
G01*
X0033474307Y0109690698D02*
X0033431689Y0109686941D01*
X0033367936Y0109674729D01*
X0033283293Y0109644669D01*
X0033199046Y0109599579D01*
X0033157087Y0109570771D01*
X0033115326Y0109540612D01*
X0033033453Y0109471395D01*
X0032953556Y0109391499D01*
X0032875638Y0109300924D01*
X0032837502Y0109251186D01*
X0032799796Y0109199998D01*
X0032727019Y0109092020D01*
X0032657406Y0108977317D01*
X0032590958Y0108855891D01*
X0032559052Y0108792376D01*
X0032527740Y0108728037D01*
X0032468411Y0108596723D01*
X0032413037Y0108462244D01*
X0032361619Y0108324601D01*
X0032337558Y0108254461D01*
X0032315013Y0108184123D01*
X0032273878Y0108044107D01*
X0032237490Y0107904882D01*
X0032205848Y0107766448D01*
X0032192004Y0107697561D01*
X0032179874Y0107629893D01*
X0032160888Y0107498183D01*
X0032148230Y0107370823D01*
X0032141902Y0107247815D01*
X0032141374Y0107188123D01*
X0032142561Y0107131332D01*
X0032152350Y0107052598D01*
X0032163029Y0107003454D01*
X0032177268Y0106957178D01*
X0032195067Y0106913769D01*
X0032216425Y0106873227D01*
X0032241343Y0106835553D01*
X0032255285Y0106817911D01*
X0032270241Y0106801258D01*
X0032303367Y0106771495D01*
X0032340348Y0106745983D01*
X0032381187Y0106724724D01*
X0032425881Y0106707716D01*
X0032474432Y0106694960D01*
X0032526839Y0106686456D01*
X0032583103Y0106682204D01*
X0032612841Y0106681850D01*
X0032612845Y0106681850D01*
X0032656254Y0106683070D01*
X0032742083Y0106697704D01*
X0032826725Y0106726973D01*
X0032910181Y0106770876D01*
X0032951415Y0106798926D01*
X0032993176Y0106829843D01*
X0033075050Y0106900246D01*
X0033154946Y0106980933D01*
X0033232864Y0107071904D01*
X0033271000Y0107121675D01*
X0033308707Y0107172862D01*
X0033381483Y0107280841D01*
X0033451096Y0107395543D01*
X0033517544Y0107516970D01*
X0033549450Y0107580485D01*
X0033580729Y0107644824D01*
X0033639663Y0107776138D01*
X0033694245Y0107910617D01*
X0033744477Y0108048260D01*
X0033767780Y0108118400D01*
X0033791050Y0108188738D01*
X0033832976Y0108328754D01*
X0033869364Y0108467979D01*
X0033900215Y0108606413D01*
X0033913334Y0108675301D01*
X0033926221Y0108743694D01*
X0033946392Y0108876195D01*
X0033959840Y0109003554D01*
X0033966564Y0109125772D01*
X0033967124Y0109184738D01*
X0033965938Y0109242254D01*
X0033956148Y0109321631D01*
X0033945469Y0109370973D01*
X0033931230Y0109417250D01*
X0033913432Y0109460461D01*
X0033892074Y0109500607D01*
X0033867156Y0109537687D01*
X0033853213Y0109554950D01*
X0033838636Y0109571604D01*
X0033806104Y0109601367D01*
X0033769518Y0109626879D01*
X0033728878Y0109648138D01*
X0033684183Y0109665146D01*
X0033635435Y0109677901D01*
X0033582632Y0109686405D01*
X0033543771Y0109689311D01*
X0033636000Y0109691262D01*
X0033708587Y0109678477D01*
X0033805095Y0109650889D01*
X0033893693Y0109614105D01*
X0033974380Y0109568125D01*
X0034047157Y0109512949D01*
X0034112023Y0109448578D01*
X0034141160Y0109412560D01*
X0034169432Y0109375817D01*
X0034219960Y0109298789D01*
X0034263270Y0109217508D01*
X0034299362Y0109131976D01*
X0034328235Y0109042192D01*
X0034349891Y0108948155D01*
X0034364327Y0108849867D01*
X0034371546Y0108747327D01*
X0034372147Y0108694286D01*
X0034371785Y0108642595D01*
X0034367434Y0108540450D01*
X0034358732Y0108439789D01*
X0034345680Y0108340611D01*
X0034328277Y0108242916D01*
X0034306523Y0108146704D01*
X0034280418Y0108051976D01*
X0034249963Y0107958731D01*
X0034232922Y0107912726D01*
X0034215651Y0107867068D01*
X0034178472Y0107777976D01*
X0034138128Y0107691553D01*
X0034094620Y0107607800D01*
X0034047948Y0107526718D01*
X0033998112Y0107448305D01*
X0033945111Y0107372561D01*
X0033888946Y0107299488D01*
X0033859546Y0107264064D01*
X0033829700Y0107229571D01*
X0033768196Y0107163715D01*
X0033704516Y0107101618D01*
X0033638661Y0107043278D01*
X0033570631Y0106988695D01*
X0033500425Y0106937870D01*
X0033428044Y0106890802D01*
X0033353487Y0106847492D01*
X0033315302Y0106827403D01*
X0033277249Y0106808039D01*
X0033200319Y0106773430D01*
X0033122401Y0106743766D01*
X0033043493Y0106719045D01*
X0032963597Y0106699269D01*
X0032882712Y0106684437D01*
X0032800838Y0106674549D01*
X0032717975Y0106669605D01*
X0032676132Y0106669193D01*
X0032617050Y0106669951D01*
X0032505314Y0106679048D01*
X0032401291Y0106697242D01*
X0032304981Y0106724533D01*
X0032216383Y0106760922D01*
X0032135498Y0106806407D01*
X0032062326Y0106860990D01*
X0031996866Y0106924669D01*
X0031967350Y0106960299D01*
X0031939078Y0106997042D01*
X0031888550Y0107074071D01*
X0031845240Y0107155352D01*
X0031809148Y0107240884D01*
X0031780274Y0107330669D01*
X0031758619Y0107424705D01*
X0031744183Y0107522993D01*
X0031736964Y0107625533D01*
X0031736363Y0107678575D01*
X0031736717Y0107730265D01*
X0031740969Y0107832410D01*
X0031749473Y0107933071D01*
X0031762229Y0108032249D01*
X0031779236Y0108129944D01*
X0031800496Y0108226156D01*
X0031826007Y0108320884D01*
X0031855770Y0108414129D01*
X0031872424Y0108460134D01*
X0031890082Y0108505784D01*
X0031927954Y0108594777D01*
X0031968891Y0108681002D01*
X0032012893Y0108764458D01*
X0032059960Y0108845145D01*
X0032110093Y0108923064D01*
X0032163292Y0108998214D01*
X0032219555Y0109070595D01*
X0032248964Y0109105632D01*
X0032278802Y0109140513D01*
X0032340207Y0109207060D01*
X0032403689Y0109269751D01*
X0032469247Y0109328585D01*
X0032536882Y0109383563D01*
X0032606594Y0109434685D01*
X0032678382Y0109481950D01*
X0032752246Y0109525359D01*
X0032790044Y0109545457D01*
X0032828484Y0109565208D01*
X0032906106Y0109600509D01*
X0032984618Y0109630767D01*
X0033064020Y0109655981D01*
X0033144311Y0109676153D01*
X0033225493Y0109691282D01*
X0033238551Y0109692887D01*
G37*
G36*
G01*
X0033491838Y0109706065D02*
X0033604168Y0109696869D01*
X0033636000Y0109691262D01*
X0033543771Y0109689311D01*
X0033525775Y0109690657D01*
X0033495657Y0109691011D01*
X0033474307Y0109690698D01*
X0033238551Y0109692887D01*
X0033307565Y0109701368D01*
X0033390526Y0109706411D01*
X0033432378Y0109706831D01*
G37*
X0032676132Y0106669193D02*
X0032676132Y0106669193D01*
X0032617050Y0106669951D01*
X0032505314Y0106679048D01*
X0032401291Y0106697242D01*
X0032304981Y0106724533D01*
X0032216383Y0106760922D01*
X0032135498Y0106806407D01*
X0032062326Y0106860990D01*
X0031996866Y0106924669D01*
X0031967350Y0106960299D01*
X0031967350Y0106960299D01*
X0031939078Y0106997042D01*
X0031888550Y0107074071D01*
X0031845240Y0107155352D01*
X0031809148Y0107240884D01*
X0031780274Y0107330669D01*
X0031758619Y0107424705D01*
X0031744183Y0107522993D01*
X0031736964Y0107625533D01*
X0031736363Y0107678575D01*
X0031736363Y0107678575D01*
X0031736717Y0107730265D01*
X0031740969Y0107832410D01*
X0031749473Y0107933071D01*
X0031762229Y0108032249D01*
X0031779236Y0108129944D01*
X0031800496Y0108226156D01*
X0031826007Y0108320884D01*
X0031855770Y0108414129D01*
X0031872424Y0108460134D01*
X0031872424Y0108460134D01*
X0031890082Y0108505784D01*
X0031927954Y0108594777D01*
X0031968891Y0108681002D01*
X0032012893Y0108764458D01*
X0032059960Y0108845145D01*
X0032110093Y0108923064D01*
X0032163292Y0108998214D01*
X0032219555Y0109070595D01*
X0032248964Y0109105632D01*
X0032248964Y0109105632D01*
X0032278802Y0109140513D01*
X0032340207Y0109207060D01*
X0032403689Y0109269751D01*
X0032469247Y0109328585D01*
X0032536882Y0109383563D01*
X0032606594Y0109434685D01*
X0032678382Y0109481950D01*
X0032752246Y0109525359D01*
X0032790044Y0109545457D01*
X0032790044Y0109545457D01*
X0032828484Y0109565208D01*
X0032906106Y0109600509D01*
X0032984618Y0109630767D01*
X0033064020Y0109655981D01*
X0033144311Y0109676153D01*
X0033225493Y0109691282D01*
X0033307565Y0109701368D01*
X0033390526Y0109706411D01*
X0033432378Y0109706831D01*
X0033432378Y0109706831D01*
X0033491838Y0109706065D01*
X0033604168Y0109696869D01*
X0033708587Y0109678477D01*
X0033805095Y0109650889D01*
X0033893693Y0109614105D01*
X0033974380Y0109568125D01*
X0034047157Y0109512949D01*
X0034112023Y0109448578D01*
X0034141160Y0109412560D01*
X0034141160Y0109412560D01*
X0034169432Y0109375817D01*
X0034219960Y0109298789D01*
X0034263270Y0109217508D01*
X0034299362Y0109131976D01*
X0034328235Y0109042192D01*
X0034349891Y0108948155D01*
X0034364327Y0108849867D01*
X0034371546Y0108747327D01*
X0034372147Y0108694286D01*
X0034372147Y0108694286D01*
X0034371785Y0108642595D01*
X0034367434Y0108540450D01*
X0034358732Y0108439789D01*
X0034345680Y0108340611D01*
X0034328277Y0108242916D01*
X0034306523Y0108146704D01*
X0034280418Y0108051976D01*
X0034249963Y0107958731D01*
X0034232922Y0107912726D01*
X0034232922Y0107912726D01*
X0034215651Y0107867068D01*
X0034178472Y0107777976D01*
X0034138128Y0107691553D01*
X0034094620Y0107607800D01*
X0034047948Y0107526718D01*
X0033998112Y0107448305D01*
X0033945111Y0107372561D01*
X0033888946Y0107299488D01*
X0033859546Y0107264064D01*
X0033859546Y0107264064D01*
X0033829700Y0107229571D01*
X0033768196Y0107163715D01*
X0033704516Y0107101618D01*
X0033638661Y0107043278D01*
X0033570631Y0106988695D01*
X0033500425Y0106937870D01*
X0033428044Y0106890802D01*
X0033353487Y0106847492D01*
X0033315302Y0106827403D01*
X0033315302Y0106827403D01*
X0033277249Y0106808039D01*
X0033200319Y0106773430D01*
X0033122401Y0106743766D01*
X0033043493Y0106719045D01*
X0032963597Y0106699269D01*
X0032882712Y0106684437D01*
X0032800838Y0106674549D01*
X0032717975Y0106669605D01*
X0032676132Y0106669193D01*
X0032676132Y0106669193D01*
X0032612845Y0106681850D02*
X0032612845Y0106681850D01*
X0032656254Y0106683070D01*
X0032742083Y0106697704D01*
X0032826725Y0106726973D01*
X0032910181Y0106770876D01*
X0032951415Y0106798926D01*
X0032951415Y0106798926D01*
X0032993176Y0106829843D01*
X0033075050Y0106900246D01*
X0033154946Y0106980933D01*
X0033232864Y0107071904D01*
X0033271000Y0107121675D01*
X0033271000Y0107121675D01*
X0033308707Y0107172862D01*
X0033381483Y0107280841D01*
X0033451096Y0107395543D01*
X0033517544Y0107516970D01*
X0033549450Y0107580485D01*
X0033549450Y0107580485D01*
X0033580729Y0107644824D01*
X0033639663Y0107776138D01*
X0033694245Y0107910617D01*
X0033744477Y0108048260D01*
X0033767780Y0108118400D01*
X0033767780Y0108118400D01*
X0033791050Y0108188738D01*
X0033832976Y0108328754D01*
X0033869364Y0108467979D01*
X0033900215Y0108606413D01*
X0033913334Y0108675301D01*
X0033913334Y0108675301D01*
X0033926221Y0108743694D01*
X0033946392Y0108876195D01*
X0033959840Y0109003554D01*
X0033966564Y0109125772D01*
X0033967124Y0109184738D01*
X0033967124Y0109184738D01*
X0033965938Y0109242254D01*
X0033956148Y0109321631D01*
X0033945469Y0109370973D01*
X0033931230Y0109417250D01*
X0033913432Y0109460461D01*
X0033892074Y0109500607D01*
X0033867156Y0109537687D01*
X0033853213Y0109554950D01*
X0033853213Y0109554950D01*
X0033838636Y0109571604D01*
X0033806104Y0109601367D01*
X0033769518Y0109626879D01*
X0033728878Y0109648138D01*
X0033684183Y0109665146D01*
X0033635435Y0109677901D01*
X0033582632Y0109686405D01*
X0033525775Y0109690657D01*
X0033495657Y0109691011D01*
X0033495657Y0109691011D01*
X0033474307Y0109690698D01*
X0033431689Y0109686941D01*
X0033367936Y0109674729D01*
X0033283293Y0109644669D01*
X0033199046Y0109599579D01*
X0033157087Y0109570771D01*
X0033157087Y0109570771D01*
X0033115326Y0109540612D01*
X0033033453Y0109471395D01*
X0032953556Y0109391499D01*
X0032875638Y0109300924D01*
X0032837502Y0109251186D01*
X0032837502Y0109251186D01*
X0032799796Y0109199998D01*
X0032727019Y0109092020D01*
X0032657406Y0108977317D01*
X0032590958Y0108855891D01*
X0032559052Y0108792376D01*
X0032559052Y0108792376D01*
X0032527740Y0108728037D01*
X0032468411Y0108596723D01*
X0032413037Y0108462244D01*
X0032361619Y0108324601D01*
X0032337558Y0108254461D01*
X0032337558Y0108254461D01*
X0032315013Y0108184123D01*
X0032273878Y0108044107D01*
X0032237490Y0107904882D01*
X0032205848Y0107766448D01*
X0032192004Y0107697561D01*
X0032192004Y0107697561D01*
X0032179874Y0107629893D01*
X0032160888Y0107498183D01*
X0032148230Y0107370823D01*
X0032141902Y0107247815D01*
X0032141374Y0107188123D01*
X0032141374Y0107188123D01*
X0032142561Y0107131332D01*
X0032152350Y0107052598D01*
X0032163029Y0107003454D01*
X0032177268Y0106957178D01*
X0032195067Y0106913769D01*
X0032216425Y0106873227D01*
X0032241343Y0106835553D01*
X0032255285Y0106817911D01*
X0032255285Y0106817911D01*
X0032270241Y0106801258D01*
X0032303367Y0106771495D01*
X0032340348Y0106745983D01*
X0032381187Y0106724724D01*
X0032425881Y0106707716D01*
X0032474432Y0106694960D01*
X0032526839Y0106686456D01*
X0032583103Y0106682204D01*
X0032612841Y0106681850D01*
X0032612845Y0106681850D01*
G36*
G01*
X0037220519Y0109655098D02*
X0037297251Y0109621083D01*
X0037366666Y0109578564D01*
X0037428764Y0109527542D01*
X0037483544Y0109468015D01*
X0037507885Y0109434709D01*
X0037531123Y0109400520D01*
X0037572653Y0109326458D01*
X0037608250Y0109245573D01*
X0037637915Y0109157865D01*
X0037661646Y0109063334D01*
X0037679445Y0108961981D01*
X0037691311Y0108853805D01*
X0037697243Y0108738805D01*
X0037697738Y0108678463D01*
X0037697392Y0108632994D01*
X0037693239Y0108542221D01*
X0037684933Y0108451645D01*
X0037672474Y0108361268D01*
X0037655862Y0108271088D01*
X0037635097Y0108181105D01*
X0037610178Y0108091321D01*
X0037581107Y0108001734D01*
X0037564841Y0107957023D01*
X0037530661Y0107869085D01*
X0037452743Y0107699800D01*
X0037363354Y0107538425D01*
X0037262495Y0107384961D01*
X0037207286Y0107311525D01*
X0037150627Y0107239935D01*
X0037032365Y0107108621D01*
X0036908169Y0106991545D01*
X0036810944Y0106913527D01*
X0036744397Y0106865669D01*
X0036710506Y0106843223D01*
X0036676466Y0106821922D01*
X0036608139Y0106783853D01*
X0036539515Y0106751222D01*
X0036470594Y0106724029D01*
X0036401377Y0106702275D01*
X0036331864Y0106685960D01*
X0036262053Y0106675083D01*
X0036191946Y0106669644D01*
X0036156769Y0106669191D01*
X0036156766Y0106669191D01*
X0036128980Y0106669537D01*
X0036076375Y0106673690D01*
X0036027330Y0106681996D01*
X0035981844Y0106694455D01*
X0035939919Y0106711068D01*
X0035901553Y0106731833D01*
X0035866746Y0106756751D01*
X0035835500Y0106785822D01*
X0035821360Y0106802088D01*
X0035794464Y0106836894D01*
X0035748583Y0106914417D01*
X0035712195Y0107001433D01*
X0035685299Y0107097941D01*
X0035675806Y0107150151D01*
X0035667467Y0107203349D01*
X0035654416Y0107311723D01*
X0035645714Y0107422470D01*
X0035641364Y0107535590D01*
X0035641001Y0107593139D01*
X0035641397Y0107646371D01*
X0035646143Y0107755141D01*
X0035650451Y0107805756D01*
X0034948233Y0105163031D01*
X0035479623Y0105163031D01*
X0035479623Y0105150373D01*
X0033963968Y0105150373D01*
X0033963968Y0105163031D01*
X0034441995Y0105163031D01*
X0035640997Y0109630890D01*
X0035185351Y0109630890D01*
X0035185351Y0109643548D01*
X0036065001Y0109643548D01*
X0035812600Y0108564533D01*
X0035815365Y0108572989D01*
X0035857290Y0108688483D01*
X0035903171Y0108800812D01*
X0035953008Y0108909977D01*
X0035979574Y0108963242D01*
X0036007557Y0109016539D01*
X0036066491Y0109118189D01*
X0036128984Y0109213906D01*
X0036195036Y0109303690D01*
X0036229546Y0109346110D01*
X0036264649Y0109387278D01*
X0036337821Y0109462032D01*
X0036414553Y0109527690D01*
X0036494845Y0109584250D01*
X0036536474Y0109608740D01*
X0036578631Y0109632241D01*
X0036625941Y0109652331D01*
X0036762761Y0109649530D01*
X0036715892Y0109645377D01*
X0036669615Y0109637071D01*
X0036623932Y0109624612D01*
X0036578842Y0109608000D01*
X0036534345Y0109587234D01*
X0036490442Y0109562316D01*
X0036447132Y0109533245D01*
X0036425724Y0109516979D01*
X0036383304Y0109483590D01*
X0036301430Y0109407253D01*
X0036223116Y0109319447D01*
X0036148361Y0109220170D01*
X0036112467Y0109165752D01*
X0036078024Y0109110609D01*
X0036012762Y0108994720D01*
X0035951851Y0108872107D01*
X0035895291Y0108742770D01*
X0035868823Y0108675300D01*
X0035843971Y0108607929D01*
X0035798882Y0108471868D01*
X0035759329Y0108334225D01*
X0035725314Y0108195000D01*
X0035710613Y0108124728D01*
X0035696967Y0108054654D01*
X0035675607Y0107917802D01*
X0035661368Y0107784905D01*
X0035654248Y0107655964D01*
X0035653655Y0107593141D01*
X0035654578Y0107501709D01*
X0035665652Y0107330050D01*
X0035687802Y0107171840D01*
X0035721026Y0107027077D01*
X0035742253Y0106960299D01*
X0035754160Y0106928542D01*
X0035782341Y0106871784D01*
X0035815763Y0106823135D01*
X0035854425Y0106782593D01*
X0035898329Y0106750160D01*
X0035947473Y0106725836D01*
X0036001857Y0106709619D01*
X0036061483Y0106701511D01*
X0036093479Y0106700835D01*
X0036114038Y0106701214D01*
X0036155073Y0106705762D01*
X0036196010Y0106714860D01*
X0036236848Y0106728505D01*
X0036277588Y0106746700D01*
X0036318228Y0106769442D01*
X0036379015Y0106811516D01*
X0036419392Y0106846388D01*
X0036459538Y0106884557D01*
X0036537852Y0106970781D01*
X0036613793Y0107068872D01*
X0036687361Y0107178828D01*
X0036723156Y0107238750D01*
X0036758424Y0107300188D01*
X0036825663Y0107428339D01*
X0036888947Y0107562818D01*
X0036948276Y0107703625D01*
X0036976293Y0107776665D01*
X0037003485Y0107851057D01*
X0037052926Y0108000170D01*
X0037096434Y0108149679D01*
X0037134009Y0108299583D01*
X0037150324Y0108374700D01*
X0037165487Y0108449389D01*
X0037189219Y0108594151D01*
X0037205041Y0108733376D01*
X0037212952Y0108867064D01*
X0037213611Y0108931601D01*
X0037212458Y0109014694D01*
X0037202940Y0109128878D01*
X0037192558Y0109199578D01*
X0037178714Y0109265631D01*
X0037161410Y0109327036D01*
X0037140645Y0109383794D01*
X0037116419Y0109435905D01*
X0037102864Y0109460024D01*
X0037088773Y0109483261D01*
X0037058120Y0109524791D01*
X0037024501Y0109560388D01*
X0036987915Y0109590053D01*
X0036948362Y0109613784D01*
X0036905843Y0109631583D01*
X0036860358Y0109643449D01*
X0036811906Y0109649382D01*
X0036787460Y0109649856D01*
X0037160804Y0109673224D01*
G37*
G36*
G01*
X0036946420Y0109706121D02*
X0037045104Y0109697617D01*
X0037136470Y0109680610D01*
X0037160804Y0109673224D01*
X0036787460Y0109649856D01*
X0036786444Y0109649876D01*
X0036762761Y0109649530D01*
X0036625941Y0109652331D01*
X0036665251Y0109669024D01*
X0036754640Y0109693547D01*
X0036846797Y0109705808D01*
X0036894029Y0109706830D01*
G37*
X0034438598Y0105150373D02*
X0035640997Y0109630890D01*
X0035185351Y0109630890D01*
X0035185351Y0109643548D01*
X0036065001Y0109643548D01*
X0035811864Y0108561389D01*
X0035691624Y0108080430D01*
X0035653652Y0107817801D01*
X0034944870Y0105150374D01*
X0034438598Y0105150373D01*
X0033963968Y0105150373D02*
X0033963968Y0105163031D01*
X0035479623Y0105163031D01*
X0035479623Y0105150373D01*
X0033963968Y0105150373D01*
X0036093478Y0106700835D02*
X0036093478Y0106700835D01*
X0036114038Y0106701214D01*
X0036155073Y0106705762D01*
X0036196010Y0106714860D01*
X0036236848Y0106728505D01*
X0036277588Y0106746700D01*
X0036318228Y0106769442D01*
X0036379015Y0106811516D01*
X0036419392Y0106846388D01*
X0036419392Y0106846388D01*
X0036459538Y0106884557D01*
X0036537852Y0106970781D01*
X0036613793Y0107068872D01*
X0036687361Y0107178828D01*
X0036723156Y0107238750D01*
X0036723156Y0107238750D01*
X0036758424Y0107300188D01*
X0036825663Y0107428339D01*
X0036888947Y0107562818D01*
X0036948276Y0107703625D01*
X0036976293Y0107776665D01*
X0036976293Y0107776665D01*
X0037003485Y0107851057D01*
X0037052926Y0108000170D01*
X0037096434Y0108149679D01*
X0037134009Y0108299583D01*
X0037150324Y0108374700D01*
X0037150324Y0108374700D01*
X0037165487Y0108449389D01*
X0037189219Y0108594151D01*
X0037205041Y0108733376D01*
X0037212952Y0108867064D01*
X0037213611Y0108931601D01*
X0037213611Y0108931601D01*
X0037212458Y0109014694D01*
X0037202940Y0109128878D01*
X0037192558Y0109199578D01*
X0037178714Y0109265631D01*
X0037161410Y0109327036D01*
X0037140645Y0109383794D01*
X0037116419Y0109435905D01*
X0037102864Y0109460024D01*
X0037102864Y0109460024D01*
X0037088773Y0109483261D01*
X0037058120Y0109524791D01*
X0037024501Y0109560388D01*
X0036987915Y0109590053D01*
X0036948362Y0109613784D01*
X0036905843Y0109631583D01*
X0036860358Y0109643449D01*
X0036811906Y0109649382D01*
X0036786444Y0109649876D01*
X0036786444Y0109649876D01*
X0036762761Y0109649530D01*
X0036715892Y0109645377D01*
X0036669615Y0109637071D01*
X0036623932Y0109624612D01*
X0036578842Y0109608000D01*
X0036534345Y0109587234D01*
X0036490442Y0109562316D01*
X0036447132Y0109533245D01*
X0036425724Y0109516979D01*
X0036425724Y0109516979D01*
X0036383304Y0109483590D01*
X0036301430Y0109407253D01*
X0036223116Y0109319447D01*
X0036148361Y0109220170D01*
X0036112467Y0109165752D01*
X0036112467Y0109165752D01*
X0036078024Y0109110609D01*
X0036012762Y0108994720D01*
X0035951851Y0108872107D01*
X0035895291Y0108742770D01*
X0035868823Y0108675300D01*
X0035868823Y0108675300D01*
X0035843971Y0108607929D01*
X0035798882Y0108471868D01*
X0035759329Y0108334225D01*
X0035725314Y0108195000D01*
X0035710613Y0108124728D01*
X0035710613Y0108124728D01*
X0035696967Y0108054654D01*
X0035675607Y0107917802D01*
X0035661368Y0107784905D01*
X0035654248Y0107655964D01*
X0035653655Y0107593141D01*
X0035653655Y0107593141D01*
X0035654578Y0107501709D01*
X0035665652Y0107330050D01*
X0035687802Y0107171840D01*
X0035721026Y0107027077D01*
X0035742253Y0106960299D01*
X0035742253Y0106960299D01*
X0035754160Y0106928542D01*
X0035782341Y0106871784D01*
X0035815763Y0106823135D01*
X0035854425Y0106782593D01*
X0035898329Y0106750160D01*
X0035947473Y0106725836D01*
X0036001857Y0106709619D01*
X0036061483Y0106701511D01*
X0036093479Y0106700835D01*
X0036093478Y0106700835D01*
X0036156766Y0106669191D02*
X0036156766Y0106669191D01*
X0036128980Y0106669537D01*
X0036076375Y0106673690D01*
X0036027330Y0106681996D01*
X0035981844Y0106694455D01*
X0035939919Y0106711068D01*
X0035901553Y0106731833D01*
X0035866746Y0106756751D01*
X0035835500Y0106785822D01*
X0035821360Y0106802088D01*
X0035821360Y0106802088D01*
X0035794464Y0106836894D01*
X0035748583Y0106914417D01*
X0035712195Y0107001433D01*
X0035685299Y0107097941D01*
X0035675806Y0107150151D01*
X0035675806Y0107150151D01*
X0035667467Y0107203349D01*
X0035654416Y0107311723D01*
X0035645714Y0107422470D01*
X0035641364Y0107535590D01*
X0035641001Y0107593139D01*
X0035641001Y0107593139D01*
X0035641397Y0107646371D01*
X0035646143Y0107755141D01*
X0035655637Y0107866679D01*
X0035669876Y0107980986D01*
X0035678974Y0108039293D01*
X0035678974Y0108039293D01*
X0035689620Y0108098622D01*
X0035714538Y0108217280D01*
X0035743807Y0108335937D01*
X0035777427Y0108454595D01*
X0035796050Y0108513924D01*
X0035796050Y0108513924D01*
X0035815365Y0108572989D01*
X0035857290Y0108688483D01*
X0035903171Y0108800812D01*
X0035953008Y0108909977D01*
X0035979574Y0108963242D01*
X0035979574Y0108963242D01*
X0036007557Y0109016539D01*
X0036066491Y0109118189D01*
X0036128984Y0109213906D01*
X0036195036Y0109303690D01*
X0036229546Y0109346110D01*
X0036229546Y0109346110D01*
X0036264649Y0109387278D01*
X0036337821Y0109462032D01*
X0036414553Y0109527690D01*
X0036494845Y0109584250D01*
X0036536474Y0109608740D01*
X0036536474Y0109608740D01*
X0036578631Y0109632241D01*
X0036665251Y0109669024D01*
X0036754640Y0109693547D01*
X0036846797Y0109705808D01*
X0036894029Y0109706830D01*
X0036894029Y0109706830D01*
X0036946420Y0109706121D01*
X0037045104Y0109697617D01*
X0037136470Y0109680610D01*
X0037220519Y0109655098D01*
X0037297251Y0109621083D01*
X0037366666Y0109578564D01*
X0037428764Y0109527542D01*
X0037483544Y0109468015D01*
X0037507885Y0109434709D01*
X0037507885Y0109434709D01*
X0037531123Y0109400520D01*
X0037572653Y0109326458D01*
X0037608250Y0109245573D01*
X0037637915Y0109157865D01*
X0037661646Y0109063334D01*
X0037679445Y0108961981D01*
X0037691311Y0108853805D01*
X0037697243Y0108738805D01*
X0037697738Y0108678463D01*
X0037697738Y0108678463D01*
X0037697392Y0108632994D01*
X0037693239Y0108542221D01*
X0037684933Y0108451645D01*
X0037672474Y0108361268D01*
X0037655862Y0108271088D01*
X0037635097Y0108181105D01*
X0037610178Y0108091321D01*
X0037581107Y0108001734D01*
X0037564841Y0107957023D01*
X0037564841Y0107957023D01*
X0037530661Y0107869085D01*
X0037452743Y0107699800D01*
X0037363354Y0107538425D01*
X0037262495Y0107384961D01*
X0037207286Y0107311525D01*
X0037207286Y0107311525D01*
X0037150627Y0107239935D01*
X0037032365Y0107108621D01*
X0036908169Y0106991545D01*
X0036810944Y0106913527D01*
X0036744397Y0106865669D01*
X0036710506Y0106843223D01*
X0036710506Y0106843223D01*
X0036676466Y0106821922D01*
X0036608139Y0106783853D01*
X0036539515Y0106751222D01*
X0036470594Y0106724029D01*
X0036401377Y0106702275D01*
X0036331864Y0106685960D01*
X0036262053Y0106675083D01*
X0036191946Y0106669644D01*
X0036156769Y0106669191D01*
X0036156766Y0106669191D01*
G36*
G01*
X0040701143Y0109655098D02*
X0040777875Y0109621083D01*
X0040847290Y0109578564D01*
X0040909388Y0109527542D01*
X0040964168Y0109468015D01*
X0040988509Y0109434709D01*
X0041011746Y0109400520D01*
X0041053277Y0109326458D01*
X0041088874Y0109245573D01*
X0041118539Y0109157865D01*
X0041142270Y0109063334D01*
X0041160069Y0108961981D01*
X0041171934Y0108853805D01*
X0041177867Y0108738805D01*
X0041178362Y0108678463D01*
X0041178016Y0108632994D01*
X0041173863Y0108542221D01*
X0041165557Y0108451645D01*
X0041153098Y0108361268D01*
X0041136486Y0108271088D01*
X0041115720Y0108181105D01*
X0041090802Y0108091321D01*
X0041061731Y0108001734D01*
X0041045465Y0107957023D01*
X0041011285Y0107869085D01*
X0040933367Y0107699800D01*
X0040843978Y0107538425D01*
X0040743118Y0107384961D01*
X0040687909Y0107311525D01*
X0040631250Y0107239935D01*
X0040512988Y0107108621D01*
X0040388793Y0106991545D01*
X0040291568Y0106913527D01*
X0040225021Y0106865669D01*
X0040191129Y0106843223D01*
X0040157089Y0106821922D01*
X0040088762Y0106783853D01*
X0040020138Y0106751222D01*
X0039951218Y0106724029D01*
X0039882001Y0106702275D01*
X0039812487Y0106685960D01*
X0039742677Y0106675083D01*
X0039672570Y0106669644D01*
X0039637393Y0106669191D01*
X0039637389Y0106669191D01*
X0039609603Y0106669537D01*
X0039556999Y0106673690D01*
X0039507953Y0106681996D01*
X0039462468Y0106694455D01*
X0039420542Y0106711068D01*
X0039382176Y0106731833D01*
X0039347370Y0106756751D01*
X0039316123Y0106785822D01*
X0039301983Y0106802088D01*
X0039275087Y0106836894D01*
X0039229206Y0106914417D01*
X0039192818Y0107001433D01*
X0039165922Y0107097941D01*
X0039156430Y0107150151D01*
X0039148091Y0107203349D01*
X0039135040Y0107311723D01*
X0039126338Y0107422470D01*
X0039121988Y0107535590D01*
X0039121625Y0107593139D01*
X0039122021Y0107646371D01*
X0039126767Y0107755141D01*
X0039131076Y0107805760D01*
X0038428855Y0105163031D01*
X0038960246Y0105163031D01*
X0038960246Y0105150373D01*
X0037444590Y0105150373D01*
X0037444590Y0105163031D01*
X0037922618Y0105163031D01*
X0039121620Y0109630890D01*
X0038665974Y0109630890D01*
X0038665974Y0109643548D01*
X0039545624Y0109643548D01*
X0039293223Y0108564533D01*
X0039295988Y0108572989D01*
X0039337914Y0108688483D01*
X0039383795Y0108800812D01*
X0039433631Y0108909977D01*
X0039460197Y0108963242D01*
X0039488180Y0109016539D01*
X0039547114Y0109118189D01*
X0039609607Y0109213906D01*
X0039675660Y0109303690D01*
X0039710170Y0109346110D01*
X0039745273Y0109387278D01*
X0039818445Y0109462032D01*
X0039895177Y0109527690D01*
X0039975469Y0109584250D01*
X0040017098Y0109608740D01*
X0040059254Y0109632241D01*
X0040106564Y0109652331D01*
X0040243383Y0109649530D01*
X0040196514Y0109645377D01*
X0040150237Y0109637071D01*
X0040104554Y0109624612D01*
X0040059464Y0109608000D01*
X0040014967Y0109587234D01*
X0039971064Y0109562316D01*
X0039927754Y0109533245D01*
X0039906346Y0109516979D01*
X0039863926Y0109483590D01*
X0039782052Y0109407253D01*
X0039703738Y0109319447D01*
X0039628984Y0109220170D01*
X0039593090Y0109165752D01*
X0039558646Y0109110609D01*
X0039493384Y0108994720D01*
X0039432473Y0108872107D01*
X0039375913Y0108742770D01*
X0039349446Y0108675300D01*
X0039324594Y0108607929D01*
X0039279504Y0108471868D01*
X0039239951Y0108334225D01*
X0039205936Y0108195000D01*
X0039191235Y0108124728D01*
X0039177589Y0108054654D01*
X0039156229Y0107917802D01*
X0039141990Y0107784905D01*
X0039134870Y0107655964D01*
X0039134276Y0107593141D01*
X0039135199Y0107501709D01*
X0039146274Y0107330050D01*
X0039168423Y0107171840D01*
X0039201647Y0107027077D01*
X0039222874Y0106960299D01*
X0039234781Y0106928542D01*
X0039262962Y0106871784D01*
X0039296384Y0106823135D01*
X0039335047Y0106782593D01*
X0039378950Y0106750160D01*
X0039428094Y0106725836D01*
X0039482479Y0106709619D01*
X0039542105Y0106701511D01*
X0039574101Y0106700835D01*
X0039574102Y0106700835D01*
X0039594661Y0106701214D01*
X0039635697Y0106705762D01*
X0039676634Y0106714860D01*
X0039717472Y0106728505D01*
X0039758211Y0106746700D01*
X0039798851Y0106769442D01*
X0039859639Y0106811516D01*
X0039900015Y0106846388D01*
X0039940161Y0106884557D01*
X0040018475Y0106970781D01*
X0040094416Y0107068872D01*
X0040167984Y0107178828D01*
X0040203779Y0107238750D01*
X0040239047Y0107300188D01*
X0040306286Y0107428339D01*
X0040369570Y0107562818D01*
X0040428899Y0107703625D01*
X0040456915Y0107776665D01*
X0040484108Y0107851057D01*
X0040533548Y0108000170D01*
X0040577056Y0108149679D01*
X0040614631Y0108299583D01*
X0040630946Y0108374700D01*
X0040646109Y0108449389D01*
X0040669842Y0108594151D01*
X0040685664Y0108733376D01*
X0040693575Y0108867064D01*
X0040694234Y0108931601D01*
X0040693080Y0109014694D01*
X0040683563Y0109128878D01*
X0040673180Y0109199578D01*
X0040659337Y0109265631D01*
X0040642033Y0109327036D01*
X0040621268Y0109383794D01*
X0040597042Y0109435905D01*
X0040583487Y0109460024D01*
X0040569396Y0109483261D01*
X0040538743Y0109524791D01*
X0040505123Y0109560388D01*
X0040468537Y0109590053D01*
X0040428984Y0109613784D01*
X0040386465Y0109631583D01*
X0040340979Y0109643449D01*
X0040292527Y0109649382D01*
X0040268082Y0109649856D01*
X0040641428Y0109673224D01*
G37*
G36*
G01*
X0040427044Y0109706121D02*
X0040525728Y0109697617D01*
X0040617094Y0109680610D01*
X0040641428Y0109673224D01*
X0040268082Y0109649856D01*
X0040267065Y0109649876D01*
X0040243383Y0109649530D01*
X0040106564Y0109652331D01*
X0040145874Y0109669024D01*
X0040235263Y0109693547D01*
X0040327421Y0109705808D01*
X0040374653Y0109706830D01*
G37*
X0037919221Y0105150373D02*
X0039121620Y0109630890D01*
X0038665974Y0109630890D01*
X0038665974Y0109643548D01*
X0039545624Y0109643548D01*
X0039292487Y0108561389D01*
X0039172247Y0108080430D01*
X0039134275Y0107817801D01*
X0038425492Y0105150374D01*
X0037919221Y0105150373D01*
X0037444590Y0105150373D02*
X0037444590Y0105163031D01*
X0038960246Y0105163031D01*
X0038960246Y0105150373D01*
X0037444590Y0105150373D01*
X0039574102Y0106700835D02*
X0039574102Y0106700835D01*
X0039594661Y0106701214D01*
X0039635697Y0106705762D01*
X0039676634Y0106714860D01*
X0039717472Y0106728505D01*
X0039758211Y0106746700D01*
X0039798851Y0106769442D01*
X0039859639Y0106811516D01*
X0039900015Y0106846388D01*
X0039900015Y0106846388D01*
X0039940161Y0106884557D01*
X0040018475Y0106970781D01*
X0040094416Y0107068872D01*
X0040167984Y0107178828D01*
X0040203779Y0107238750D01*
X0040203779Y0107238750D01*
X0040239047Y0107300188D01*
X0040306286Y0107428339D01*
X0040369570Y0107562818D01*
X0040428899Y0107703625D01*
X0040456915Y0107776665D01*
X0040456915Y0107776665D01*
X0040484108Y0107851057D01*
X0040533548Y0108000170D01*
X0040577056Y0108149679D01*
X0040614631Y0108299583D01*
X0040630946Y0108374700D01*
X0040630946Y0108374700D01*
X0040646109Y0108449389D01*
X0040669842Y0108594151D01*
X0040685664Y0108733376D01*
X0040693575Y0108867064D01*
X0040694234Y0108931601D01*
X0040694234Y0108931601D01*
X0040693080Y0109014694D01*
X0040683563Y0109128878D01*
X0040673180Y0109199578D01*
X0040659337Y0109265631D01*
X0040642033Y0109327036D01*
X0040621268Y0109383794D01*
X0040597042Y0109435905D01*
X0040583487Y0109460024D01*
X0040583487Y0109460024D01*
X0040569396Y0109483261D01*
X0040538743Y0109524791D01*
X0040505123Y0109560388D01*
X0040468537Y0109590053D01*
X0040428984Y0109613784D01*
X0040386465Y0109631583D01*
X0040340979Y0109643449D01*
X0040292527Y0109649382D01*
X0040267065Y0109649876D01*
X0040267065Y0109649876D01*
X0040243383Y0109649530D01*
X0040196514Y0109645377D01*
X0040150237Y0109637071D01*
X0040104554Y0109624612D01*
X0040059464Y0109608000D01*
X0040014967Y0109587234D01*
X0039971064Y0109562316D01*
X0039927754Y0109533245D01*
X0039906346Y0109516979D01*
X0039906346Y0109516979D01*
X0039863926Y0109483590D01*
X0039782052Y0109407253D01*
X0039703738Y0109319447D01*
X0039628984Y0109220170D01*
X0039593090Y0109165752D01*
X0039593090Y0109165752D01*
X0039558646Y0109110609D01*
X0039493384Y0108994720D01*
X0039432473Y0108872107D01*
X0039375913Y0108742770D01*
X0039349446Y0108675300D01*
X0039349446Y0108675300D01*
X0039324594Y0108607929D01*
X0039279504Y0108471868D01*
X0039239951Y0108334225D01*
X0039205936Y0108195000D01*
X0039191235Y0108124728D01*
X0039191235Y0108124728D01*
X0039177589Y0108054654D01*
X0039156229Y0107917802D01*
X0039141990Y0107784905D01*
X0039134870Y0107655964D01*
X0039134276Y0107593141D01*
X0039134276Y0107593141D01*
X0039135199Y0107501709D01*
X0039146274Y0107330050D01*
X0039168423Y0107171840D01*
X0039201647Y0107027077D01*
X0039222874Y0106960299D01*
X0039222874Y0106960299D01*
X0039234781Y0106928542D01*
X0039262962Y0106871784D01*
X0039296384Y0106823135D01*
X0039335047Y0106782593D01*
X0039378950Y0106750160D01*
X0039428094Y0106725836D01*
X0039482479Y0106709619D01*
X0039542105Y0106701511D01*
X0039574101Y0106700835D01*
X0039574102Y0106700835D01*
X0039637389Y0106669191D02*
X0039637389Y0106669191D01*
X0039609603Y0106669537D01*
X0039556999Y0106673690D01*
X0039507953Y0106681996D01*
X0039462468Y0106694455D01*
X0039420542Y0106711068D01*
X0039382176Y0106731833D01*
X0039347370Y0106756751D01*
X0039316123Y0106785822D01*
X0039301983Y0106802088D01*
X0039301983Y0106802088D01*
X0039275087Y0106836894D01*
X0039229206Y0106914417D01*
X0039192818Y0107001433D01*
X0039165922Y0107097941D01*
X0039156430Y0107150151D01*
X0039156430Y0107150151D01*
X0039148091Y0107203349D01*
X0039135040Y0107311723D01*
X0039126338Y0107422470D01*
X0039121988Y0107535590D01*
X0039121625Y0107593139D01*
X0039121625Y0107593139D01*
X0039122021Y0107646371D01*
X0039126767Y0107755141D01*
X0039136260Y0107866679D01*
X0039150500Y0107980986D01*
X0039159598Y0108039293D01*
X0039159598Y0108039293D01*
X0039170244Y0108098622D01*
X0039195161Y0108217280D01*
X0039224430Y0108335937D01*
X0039258050Y0108454595D01*
X0039276673Y0108513924D01*
X0039276673Y0108513924D01*
X0039295988Y0108572989D01*
X0039337914Y0108688483D01*
X0039383795Y0108800812D01*
X0039433631Y0108909977D01*
X0039460197Y0108963242D01*
X0039460197Y0108963242D01*
X0039488180Y0109016539D01*
X0039547114Y0109118189D01*
X0039609607Y0109213906D01*
X0039675660Y0109303690D01*
X0039710170Y0109346110D01*
X0039710170Y0109346110D01*
X0039745273Y0109387278D01*
X0039818445Y0109462032D01*
X0039895177Y0109527690D01*
X0039975469Y0109584250D01*
X0040017098Y0109608740D01*
X0040017098Y0109608740D01*
X0040059254Y0109632241D01*
X0040145874Y0109669024D01*
X0040235263Y0109693547D01*
X0040327421Y0109705808D01*
X0040374653Y0109706830D01*
X0040374653Y0109706830D01*
X0040427044Y0109706121D01*
X0040525728Y0109697617D01*
X0040617094Y0109680610D01*
X0040701143Y0109655098D01*
X0040777875Y0109621083D01*
X0040847290Y0109578564D01*
X0040909388Y0109527542D01*
X0040964168Y0109468015D01*
X0040988509Y0109434709D01*
X0040988509Y0109434709D01*
X0041011746Y0109400520D01*
X0041053277Y0109326458D01*
X0041088874Y0109245573D01*
X0041118539Y0109157865D01*
X0041142270Y0109063334D01*
X0041160069Y0108961981D01*
X0041171934Y0108853805D01*
X0041177867Y0108738805D01*
X0041178362Y0108678463D01*
X0041178362Y0108678463D01*
X0041178016Y0108632994D01*
X0041173863Y0108542221D01*
X0041165557Y0108451645D01*
X0041153098Y0108361268D01*
X0041136486Y0108271088D01*
X0041115720Y0108181105D01*
X0041090802Y0108091321D01*
X0041061731Y0108001734D01*
X0041045465Y0107957023D01*
X0041045465Y0107957023D01*
X0041011285Y0107869085D01*
X0040933367Y0107699800D01*
X0040843978Y0107538425D01*
X0040743118Y0107384961D01*
X0040687909Y0107311525D01*
X0040687909Y0107311525D01*
X0040631250Y0107239935D01*
X0040512988Y0107108621D01*
X0040388793Y0106991545D01*
X0040291568Y0106913527D01*
X0040225021Y0106865669D01*
X0040191129Y0106843223D01*
X0040191129Y0106843223D01*
X0040157089Y0106821922D01*
X0040088762Y0106783853D01*
X0040020138Y0106751222D01*
X0039951218Y0106724029D01*
X0039882001Y0106702275D01*
X0039812487Y0106685960D01*
X0039742677Y0106675083D01*
X0039672570Y0106669644D01*
X0039637393Y0106669191D01*
X0039637389Y0106669191D01*
G36*
G01*
X0043414811Y0109693052D02*
X0043326609Y0109679604D01*
X0043240385Y0109652708D01*
X0043156138Y0109612364D01*
X0043114838Y0109586589D01*
X0043074692Y0109558870D01*
X0042996378Y0109495190D01*
X0042920437Y0109421622D01*
X0042846870Y0109338166D01*
X0042811075Y0109292318D01*
X0042776532Y0109245877D01*
X0042710083Y0109147391D01*
X0042646799Y0109042181D01*
X0042586679Y0108930247D01*
X0042557937Y0108871478D01*
X0042529789Y0108812677D01*
X0042476789Y0108692437D01*
X0042427744Y0108569033D01*
X0042382654Y0108442465D01*
X0042361757Y0108377862D01*
X0042342343Y0108313029D01*
X0042307141Y0108183692D01*
X0042276290Y0108054750D01*
X0042272813Y0108037884D01*
X0042275044Y0108038043D01*
X0042413083Y0108051491D01*
X0042545188Y0108068893D01*
X0042671361Y0108090250D01*
X0042731975Y0108102576D01*
X0042792293Y0108116419D01*
X0042906995Y0108148061D01*
X0043014578Y0108184450D01*
X0043115042Y0108225585D01*
X0043162307Y0108248130D01*
X0043209144Y0108271532D01*
X0043296555Y0108322950D01*
X0043376452Y0108379906D01*
X0043448833Y0108442399D01*
X0043481893Y0108475953D01*
X0043514458Y0108511319D01*
X0043572995Y0108587656D01*
X0043623623Y0108670716D01*
X0043666340Y0108760501D01*
X0043684402Y0108808194D01*
X0043701079Y0108857075D01*
X0043727183Y0108961098D01*
X0043744585Y0109072637D01*
X0043753286Y0109191690D01*
X0043754011Y0109254348D01*
X0043753352Y0109294461D01*
X0043745441Y0109372379D01*
X0043729619Y0109447529D01*
X0043705886Y0109519911D01*
X0043690724Y0109554948D01*
X0043682920Y0109571988D01*
X0043664430Y0109602444D01*
X0043642478Y0109628548D01*
X0043617065Y0109650302D01*
X0043588192Y0109667705D01*
X0043555858Y0109680757D01*
X0043534596Y0109685926D01*
X0043698788Y0109690917D01*
X0043702687Y0109690367D01*
X0043773585Y0109674349D01*
X0043839638Y0109652990D01*
X0043900845Y0109626292D01*
X0043957208Y0109594255D01*
X0044008725Y0109556878D01*
X0044032465Y0109535964D01*
X0044055702Y0109514787D01*
X0044097232Y0109470290D01*
X0044132829Y0109423223D01*
X0044162494Y0109373584D01*
X0044186225Y0109321375D01*
X0044204024Y0109266594D01*
X0044215890Y0109209243D01*
X0044221823Y0109149321D01*
X0044222317Y0109118289D01*
X0044221856Y0109086020D01*
X0044216318Y0109023132D01*
X0044205244Y0108962221D01*
X0044188631Y0108903288D01*
X0044166482Y0108846332D01*
X0044138795Y0108791354D01*
X0044105571Y0108738353D01*
X0044066809Y0108687331D01*
X0044045121Y0108662643D01*
X0044022659Y0108638277D01*
X0043974602Y0108591111D01*
X0043922788Y0108545823D01*
X0043867217Y0108502414D01*
X0043777284Y0108440588D01*
X0043643597Y0108365043D01*
X0043570490Y0108330402D01*
X0043496263Y0108297771D01*
X0043341217Y0108238442D01*
X0043178261Y0108186232D01*
X0043007393Y0108141142D01*
X0042918664Y0108121564D01*
X0042830000Y0108103106D01*
X0042652013Y0108071464D01*
X0042473236Y0108046150D01*
X0042293667Y0108027165D01*
X0042270236Y0108025383D01*
X0042249790Y0107926205D01*
X0042238353Y0107862096D01*
X0042228498Y0107798351D01*
X0042213073Y0107674156D01*
X0042202790Y0107553916D01*
X0042197648Y0107437631D01*
X0042197219Y0107381137D01*
X0042197598Y0107331960D01*
X0042202147Y0107240198D01*
X0042211244Y0107156347D01*
X0042224890Y0107080406D01*
X0042243084Y0107012375D01*
X0042265827Y0106952255D01*
X0042293118Y0106900046D01*
X0042324958Y0106855747D01*
X0042342773Y0106836893D01*
X0042361552Y0106819078D01*
X0042401006Y0106787238D01*
X0042442734Y0106759947D01*
X0042486736Y0106737204D01*
X0042533013Y0106719010D01*
X0042581563Y0106705364D01*
X0042632389Y0106696267D01*
X0042685488Y0106691719D01*
X0042712985Y0106691340D01*
X0042782895Y0106692559D01*
X0042884421Y0106702621D01*
X0042950375Y0106713596D01*
X0043014846Y0106728231D01*
X0043077833Y0106746524D01*
X0043139338Y0106768476D01*
X0043199359Y0106794086D01*
X0043228751Y0106808416D01*
X0043287520Y0106838476D01*
X0043399453Y0106906506D01*
X0043504663Y0106984029D01*
X0043603149Y0107071045D01*
X0043649590Y0107118508D01*
X0043695603Y0107167982D01*
X0043781037Y0107271214D01*
X0043858560Y0107379588D01*
X0043928172Y0107493104D01*
X0043959683Y0107552004D01*
X0043969172Y0107548843D01*
X0043937629Y0107489152D01*
X0043867621Y0107374053D01*
X0043789307Y0107264097D01*
X0043702687Y0107159283D01*
X0043655916Y0107109018D01*
X0043608584Y0107060006D01*
X0043507330Y0106970221D01*
X0043398164Y0106890325D01*
X0043281089Y0106820317D01*
X0043219255Y0106789433D01*
X0043188247Y0106774716D01*
X0043124666Y0106748414D01*
X0043059207Y0106725869D01*
X0042991869Y0106707081D01*
X0042922652Y0106692051D01*
X0042851556Y0106680779D01*
X0042778581Y0106673264D01*
X0042703728Y0106669507D01*
X0042665518Y0106669193D01*
X0042665527Y0106669193D01*
X0042627804Y0106669522D01*
X0042554829Y0106673477D01*
X0042484821Y0106681388D01*
X0042417779Y0106693254D01*
X0042353704Y0106709075D01*
X0042292595Y0106728851D01*
X0042234453Y0106752583D01*
X0042179277Y0106780270D01*
X0042152925Y0106795761D01*
X0042127084Y0106812233D01*
X0042078039Y0106847732D01*
X0042032158Y0106886295D01*
X0041989441Y0106927924D01*
X0041949889Y0106972619D01*
X0041913501Y0107020378D01*
X0041880276Y0107071204D01*
X0041850216Y0107125094D01*
X0041836505Y0107153316D01*
X0041823337Y0107181984D01*
X0041799803Y0107241214D01*
X0041779631Y0107302718D01*
X0041762822Y0107366497D01*
X0041743490Y0107466144D01*
X0041730042Y0107607347D01*
X0041728922Y0107681739D01*
X0041729268Y0107727208D01*
X0041733421Y0107817981D01*
X0041741727Y0107908557D01*
X0041754186Y0107998934D01*
X0041770798Y0108089114D01*
X0041791563Y0108179096D01*
X0041816481Y0108268881D01*
X0041845552Y0108358467D01*
X0041861818Y0108403178D01*
X0041878711Y0108448095D01*
X0041915297Y0108536198D01*
X0041955245Y0108622225D01*
X0041998555Y0108706176D01*
X0042045227Y0108788049D01*
X0042095261Y0108867847D01*
X0042148657Y0108945568D01*
X0042205415Y0109021212D01*
X0042235195Y0109058169D01*
X0042265469Y0109094648D01*
X0042328160Y0109164558D01*
X0042393421Y0109230808D01*
X0042461254Y0109293400D01*
X0042531658Y0109352333D01*
X0042604633Y0109407608D01*
X0042680178Y0109459224D01*
X0042758295Y0109507182D01*
X0042798424Y0109529636D01*
X0042839303Y0109551324D01*
X0042922462Y0109590086D01*
X0043007303Y0109623310D01*
X0043093824Y0109650996D01*
X0043182026Y0109673146D01*
X0043271909Y0109689758D01*
X0043306465Y0109693937D01*
G37*
G36*
G01*
X0043546355Y0109706386D02*
X0043626943Y0109701047D01*
X0043698788Y0109690917D01*
X0043534596Y0109685926D01*
X0043520062Y0109689459D01*
X0043480807Y0109693810D01*
X0043459736Y0109694172D01*
X0043414811Y0109693052D01*
X0043306465Y0109693937D01*
X0043363474Y0109700832D01*
X0043456719Y0109706370D01*
X0043504042Y0109706831D01*
G37*
X0042665527Y0106669193D02*
X0042665527Y0106669193D01*
X0042627804Y0106669522D01*
X0042554829Y0106673477D01*
X0042484821Y0106681388D01*
X0042417779Y0106693254D01*
X0042353704Y0106709075D01*
X0042292595Y0106728851D01*
X0042234453Y0106752583D01*
X0042179277Y0106780270D01*
X0042152925Y0106795761D01*
X0042152925Y0106795761D01*
X0042127084Y0106812233D01*
X0042078039Y0106847732D01*
X0042032158Y0106886295D01*
X0041989441Y0106927924D01*
X0041949889Y0106972619D01*
X0041913501Y0107020378D01*
X0041880276Y0107071204D01*
X0041850216Y0107125094D01*
X0041836505Y0107153316D01*
X0041836505Y0107153316D01*
X0041823337Y0107181984D01*
X0041799803Y0107241214D01*
X0041779631Y0107302718D01*
X0041762822Y0107366497D01*
X0041743490Y0107466144D01*
X0041730042Y0107607347D01*
X0041728922Y0107681739D01*
X0041728922Y0107681739D01*
X0041729268Y0107727208D01*
X0041733421Y0107817981D01*
X0041741727Y0107908557D01*
X0041754186Y0107998934D01*
X0041770798Y0108089114D01*
X0041791563Y0108179096D01*
X0041816481Y0108268881D01*
X0041845552Y0108358467D01*
X0041861818Y0108403178D01*
X0041861818Y0108403178D01*
X0041878711Y0108448095D01*
X0041915297Y0108536198D01*
X0041955245Y0108622225D01*
X0041998555Y0108706176D01*
X0042045227Y0108788049D01*
X0042095261Y0108867847D01*
X0042148657Y0108945568D01*
X0042205415Y0109021212D01*
X0042235195Y0109058169D01*
X0042235195Y0109058169D01*
X0042265469Y0109094648D01*
X0042328160Y0109164558D01*
X0042393421Y0109230808D01*
X0042461254Y0109293400D01*
X0042531658Y0109352333D01*
X0042604633Y0109407608D01*
X0042680178Y0109459224D01*
X0042758295Y0109507182D01*
X0042798424Y0109529636D01*
X0042798424Y0109529636D01*
X0042839303Y0109551324D01*
X0042922462Y0109590086D01*
X0043007303Y0109623310D01*
X0043093824Y0109650996D01*
X0043182026Y0109673146D01*
X0043271909Y0109689758D01*
X0043363474Y0109700832D01*
X0043456719Y0109706370D01*
X0043504042Y0109706831D01*
X0043504042Y0109706831D01*
X0043546355Y0109706386D01*
X0043626943Y0109701047D01*
X0043702687Y0109690367D01*
X0043773585Y0109674349D01*
X0043839638Y0109652990D01*
X0043900845Y0109626292D01*
X0043957208Y0109594255D01*
X0044008725Y0109556878D01*
X0044032465Y0109535964D01*
X0044032465Y0109535964D01*
X0044055702Y0109514787D01*
X0044097232Y0109470290D01*
X0044132829Y0109423223D01*
X0044162494Y0109373584D01*
X0044186225Y0109321375D01*
X0044204024Y0109266594D01*
X0044215890Y0109209243D01*
X0044221823Y0109149321D01*
X0044222317Y0109118289D01*
X0044222317Y0109118289D01*
X0044221856Y0109086020D01*
X0044216318Y0109023132D01*
X0044205244Y0108962221D01*
X0044188631Y0108903288D01*
X0044166482Y0108846332D01*
X0044138795Y0108791354D01*
X0044105571Y0108738353D01*
X0044066809Y0108687331D01*
X0044045121Y0108662643D01*
X0044045121Y0108662643D01*
X0044022659Y0108638277D01*
X0043974602Y0108591111D01*
X0043922788Y0108545823D01*
X0043867217Y0108502414D01*
X0043777284Y0108440588D01*
X0043643597Y0108365043D01*
X0043570490Y0108330402D01*
X0043570490Y0108330402D01*
X0043496263Y0108297771D01*
X0043341217Y0108238442D01*
X0043178261Y0108186232D01*
X0043007393Y0108141142D01*
X0042918664Y0108121564D01*
X0042918664Y0108121564D01*
X0042830000Y0108103106D01*
X0042652013Y0108071464D01*
X0042473236Y0108046150D01*
X0042293667Y0108027165D01*
X0042203553Y0108020309D01*
X0042203553Y0108032967D01*
X0042203553Y0108032967D01*
X0042275044Y0108038043D01*
X0042413083Y0108051491D01*
X0042545188Y0108068893D01*
X0042671361Y0108090250D01*
X0042731975Y0108102576D01*
X0042731975Y0108102576D01*
X0042792293Y0108116419D01*
X0042906995Y0108148061D01*
X0043014578Y0108184450D01*
X0043115042Y0108225585D01*
X0043162307Y0108248130D01*
X0043162307Y0108248130D01*
X0043209144Y0108271532D01*
X0043296555Y0108322950D01*
X0043376452Y0108379906D01*
X0043448833Y0108442399D01*
X0043481893Y0108475953D01*
X0043481893Y0108475953D01*
X0043514458Y0108511319D01*
X0043572995Y0108587656D01*
X0043623623Y0108670716D01*
X0043666340Y0108760501D01*
X0043684402Y0108808194D01*
X0043684402Y0108808194D01*
X0043701079Y0108857075D01*
X0043727183Y0108961098D01*
X0043744585Y0109072637D01*
X0043753286Y0109191690D01*
X0043754011Y0109254348D01*
X0043754011Y0109254348D01*
X0043753352Y0109294461D01*
X0043745441Y0109372379D01*
X0043729619Y0109447529D01*
X0043705886Y0109519911D01*
X0043690724Y0109554948D01*
X0043690724Y0109554948D01*
X0043682920Y0109571988D01*
X0043664430Y0109602444D01*
X0043642478Y0109628548D01*
X0043617065Y0109650302D01*
X0043588192Y0109667705D01*
X0043555858Y0109680757D01*
X0043520062Y0109689459D01*
X0043480807Y0109693810D01*
X0043459736Y0109694172D01*
X0043459736Y0109694172D01*
X0043414811Y0109693052D01*
X0043326609Y0109679604D01*
X0043240385Y0109652708D01*
X0043156138Y0109612364D01*
X0043114838Y0109586589D01*
X0043114838Y0109586589D01*
X0043074692Y0109558870D01*
X0042996378Y0109495190D01*
X0042920437Y0109421622D01*
X0042846870Y0109338166D01*
X0042811075Y0109292318D01*
X0042811075Y0109292318D01*
X0042776532Y0109245877D01*
X0042710083Y0109147391D01*
X0042646799Y0109042181D01*
X0042586679Y0108930247D01*
X0042557937Y0108871478D01*
X0042557937Y0108871478D01*
X0042529789Y0108812677D01*
X0042476789Y0108692437D01*
X0042427744Y0108569033D01*
X0042382654Y0108442465D01*
X0042361757Y0108377862D01*
X0042361757Y0108377862D01*
X0042342343Y0108313029D01*
X0042307141Y0108183692D01*
X0042276290Y0108054750D01*
X0042249790Y0107926205D01*
X0042238353Y0107862096D01*
X0042238353Y0107862096D01*
X0042228498Y0107798351D01*
X0042213073Y0107674156D01*
X0042202790Y0107553916D01*
X0042197648Y0107437631D01*
X0042197219Y0107381137D01*
X0042197219Y0107381137D01*
X0042197598Y0107331960D01*
X0042202147Y0107240198D01*
X0042211244Y0107156347D01*
X0042224890Y0107080406D01*
X0042243084Y0107012375D01*
X0042265827Y0106952255D01*
X0042293118Y0106900046D01*
X0042324958Y0106855747D01*
X0042342773Y0106836893D01*
X0042342773Y0106836893D01*
X0042361552Y0106819078D01*
X0042401006Y0106787238D01*
X0042442734Y0106759947D01*
X0042486736Y0106737204D01*
X0042533013Y0106719010D01*
X0042581563Y0106705364D01*
X0042632389Y0106696267D01*
X0042685488Y0106691719D01*
X0042712985Y0106691340D01*
X0042712985Y0106691340D01*
X0042782895Y0106692559D01*
X0042884421Y0106702621D01*
X0042950375Y0106713596D01*
X0043014846Y0106728231D01*
X0043077833Y0106746524D01*
X0043139338Y0106768476D01*
X0043199359Y0106794086D01*
X0043228751Y0106808416D01*
X0043228751Y0106808416D01*
X0043287520Y0106838476D01*
X0043399453Y0106906506D01*
X0043504663Y0106984029D01*
X0043603149Y0107071045D01*
X0043649590Y0107118508D01*
X0043649590Y0107118508D01*
X0043695603Y0107167982D01*
X0043781037Y0107271214D01*
X0043858560Y0107379588D01*
X0043928172Y0107493104D01*
X0043959683Y0107552004D01*
X0043969172Y0107548843D01*
X0043969172Y0107548843D01*
X0043937629Y0107489152D01*
X0043867621Y0107374053D01*
X0043789307Y0107264097D01*
X0043702687Y0107159283D01*
X0043655916Y0107109018D01*
X0043655916Y0107109018D01*
X0043608584Y0107060006D01*
X0043507330Y0106970221D01*
X0043398164Y0106890325D01*
X0043281089Y0106820317D01*
X0043219255Y0106789433D01*
X0043219255Y0106789433D01*
X0043188247Y0106774716D01*
X0043124666Y0106748414D01*
X0043059207Y0106725869D01*
X0042991869Y0106707081D01*
X0042922652Y0106692051D01*
X0042851556Y0106680779D01*
X0042778581Y0106673264D01*
X0042703728Y0106669507D01*
X0042665518Y0106669193D01*
X0042665527Y0106669193D01*
G36*
G01*
X0046511368Y0109703354D02*
X0046562193Y0109699597D01*
X0046610052Y0109692082D01*
X0046654944Y0109680809D01*
X0046696870Y0109665780D01*
X0046735829Y0109646992D01*
X0046771822Y0109624447D01*
X0046804848Y0109598144D01*
X0046820125Y0109583428D01*
X0046835230Y0109568678D01*
X0046862224Y0109538024D01*
X0046885363Y0109505987D01*
X0046904644Y0109472565D01*
X0046920070Y0109437758D01*
X0046931639Y0109401568D01*
X0046939352Y0109363993D01*
X0046943208Y0109325033D01*
X0046943530Y0109304977D01*
X0046942640Y0109267435D01*
X0046931960Y0109196636D01*
X0046910602Y0109130979D01*
X0046878564Y0109070463D01*
X0046858096Y0109042348D01*
X0046847614Y0109029180D01*
X0046824674Y0109005647D01*
X0046799360Y0108985475D01*
X0046771673Y0108968665D01*
X0046741613Y0108955217D01*
X0046709180Y0108945131D01*
X0046656378Y0108935886D01*
X0046617616Y0108934765D01*
X0046579481Y0108935820D01*
X0046509473Y0108948477D01*
X0046446980Y0108973790D01*
X0046392002Y0109011761D01*
X0046367644Y0109036019D01*
X0046344901Y0109061828D01*
X0046309304Y0109118388D01*
X0046285572Y0109180881D01*
X0046273707Y0109249307D01*
X0046272718Y0109285992D01*
X0046273641Y0109317931D01*
X0046284715Y0109376864D01*
X0046306865Y0109429865D01*
X0046340089Y0109476932D01*
X0046361315Y0109497994D01*
X0046384256Y0109518462D01*
X0046438047Y0109550500D01*
X0046501331Y0109571858D01*
X0046574108Y0109582538D01*
X0046614452Y0109583428D01*
X0046646522Y0109582604D01*
X0046707038Y0109572716D01*
X0046763203Y0109552939D01*
X0046815017Y0109523274D01*
X0046839111Y0109504322D01*
X0046862612Y0109484117D01*
X0046899395Y0109439423D01*
X0046919209Y0109399157D01*
X0046908623Y0109432823D01*
X0046893988Y0109466442D01*
X0046875695Y0109498776D01*
X0046841852Y0109545028D01*
X0046813803Y0109573935D01*
X0046799300Y0109588264D01*
X0046767658Y0109613875D01*
X0046732852Y0109635826D01*
X0046694882Y0109654120D01*
X0046653747Y0109668754D01*
X0046609448Y0109679730D01*
X0046561985Y0109687047D01*
X0046511358Y0109690706D01*
X0046484726Y0109691011D01*
X0046461077Y0109690698D01*
X0046414602Y0109686940D01*
X0046369117Y0109679425D01*
X0046324620Y0109668152D01*
X0046281112Y0109653122D01*
X0046238593Y0109634335D01*
X0046176545Y0109599578D01*
X0046136663Y0109570770D01*
X0046098198Y0109539886D01*
X0046024235Y0109469878D01*
X0045953831Y0109389982D01*
X0045886987Y0109300198D01*
X0045855049Y0109251185D01*
X0045824461Y0109200855D01*
X0045765924Y0109095249D01*
X0045710550Y0108983711D01*
X0045658340Y0108866240D01*
X0045633554Y0108805032D01*
X0045585432Y0108682683D01*
X0045498416Y0108432710D01*
X0045459523Y0108305087D01*
X0045422475Y0108179706D01*
X0045371511Y0107992007D01*
X0045070319Y0106732477D01*
X0044570374Y0106732477D01*
X0045291813Y0109630890D01*
X0044798197Y0109630890D01*
X0044798197Y0109643548D01*
X0045766444Y0109643548D01*
X0045451668Y0108327212D01*
X0045485753Y0108439171D01*
X0045572769Y0108690726D01*
X0045620891Y0108814525D01*
X0045646468Y0108875733D01*
X0045700260Y0108993204D01*
X0045757215Y0109104742D01*
X0045817335Y0109210347D01*
X0045848714Y0109260678D01*
X0045880686Y0109310448D01*
X0045947925Y0109401419D01*
X0046019120Y0109482107D01*
X0046094270Y0109552511D01*
X0046133493Y0109583428D01*
X0046173408Y0109612235D01*
X0046235728Y0109646992D01*
X0046278543Y0109665780D01*
X0046322447Y0109680809D01*
X0046367438Y0109692082D01*
X0046413517Y0109699597D01*
X0046460683Y0109703354D01*
X0046484720Y0109703668D01*
G37*
X0044570374Y0106732477D02*
X0045291813Y0109630890D01*
X0044798197Y0109630890D01*
X0044798197Y0109643548D01*
X0045766444Y0109643548D01*
X0045070319Y0106732477D01*
X0044570374Y0106732477D01*
X0045317127Y0107827293D02*
X0045317127Y0107827293D01*
X0045344946Y0107942391D01*
X0045409812Y0108184452D01*
X0045446860Y0108311416D01*
X0045446860Y0108311416D01*
X0045485753Y0108439171D01*
X0045572769Y0108690726D01*
X0045620891Y0108814525D01*
X0045620891Y0108814525D01*
X0045646468Y0108875733D01*
X0045700260Y0108993204D01*
X0045757215Y0109104742D01*
X0045817335Y0109210347D01*
X0045848714Y0109260678D01*
X0045848714Y0109260678D01*
X0045880686Y0109310448D01*
X0045947925Y0109401419D01*
X0046019120Y0109482107D01*
X0046094270Y0109552511D01*
X0046133493Y0109583428D01*
X0046133493Y0109583428D01*
X0046173408Y0109612235D01*
X0046235728Y0109646992D01*
X0046278543Y0109665780D01*
X0046322447Y0109680809D01*
X0046367438Y0109692082D01*
X0046413517Y0109699597D01*
X0046460683Y0109703354D01*
X0046484720Y0109703668D01*
X0046484720Y0109703668D01*
X0046511368Y0109703354D01*
X0046562193Y0109699597D01*
X0046610052Y0109692082D01*
X0046654944Y0109680809D01*
X0046696870Y0109665780D01*
X0046735829Y0109646992D01*
X0046771822Y0109624447D01*
X0046804848Y0109598144D01*
X0046820125Y0109583428D01*
X0046820125Y0109583428D01*
X0046835230Y0109568678D01*
X0046862224Y0109538024D01*
X0046885363Y0109505987D01*
X0046904644Y0109472565D01*
X0046920070Y0109437758D01*
X0046931639Y0109401568D01*
X0046939352Y0109363993D01*
X0046943208Y0109325033D01*
X0046943530Y0109304977D01*
X0046943530Y0109304977D01*
X0046942640Y0109267435D01*
X0046931960Y0109196636D01*
X0046910602Y0109130979D01*
X0046878564Y0109070463D01*
X0046858096Y0109042348D01*
X0046858096Y0109042348D01*
X0046847614Y0109029180D01*
X0046824674Y0109005647D01*
X0046799360Y0108985475D01*
X0046771673Y0108968665D01*
X0046741613Y0108955217D01*
X0046709180Y0108945131D01*
X0046656378Y0108935886D01*
X0046617616Y0108934765D01*
X0046617616Y0108934765D01*
X0046579481Y0108935820D01*
X0046509473Y0108948477D01*
X0046446980Y0108973790D01*
X0046392002Y0109011761D01*
X0046367644Y0109036019D01*
X0046367644Y0109036019D01*
X0046344901Y0109061828D01*
X0046309304Y0109118388D01*
X0046285572Y0109180881D01*
X0046273707Y0109249307D01*
X0046272718Y0109285992D01*
X0046272718Y0109285992D01*
X0046273641Y0109317931D01*
X0046284715Y0109376864D01*
X0046306865Y0109429865D01*
X0046340089Y0109476932D01*
X0046361315Y0109497994D01*
X0046361315Y0109497994D01*
X0046384256Y0109518462D01*
X0046438047Y0109550500D01*
X0046501331Y0109571858D01*
X0046574108Y0109582538D01*
X0046614452Y0109583428D01*
X0046614452Y0109583428D01*
X0046646522Y0109582604D01*
X0046707038Y0109572716D01*
X0046763203Y0109552939D01*
X0046815017Y0109523274D01*
X0046839111Y0109504322D01*
X0046839111Y0109504322D01*
X0046862612Y0109484117D01*
X0046899395Y0109439423D01*
X0046923918Y0109389587D01*
X0046936179Y0109334608D01*
X0046937201Y0109304977D01*
X0046930879Y0109304977D01*
X0046930879Y0109304977D01*
X0046930574Y0109324251D01*
X0046926916Y0109361727D01*
X0046919598Y0109397918D01*
X0046908623Y0109432823D01*
X0046893988Y0109466442D01*
X0046875695Y0109498776D01*
X0046841852Y0109545028D01*
X0046813803Y0109573935D01*
X0046813803Y0109573935D01*
X0046799300Y0109588264D01*
X0046767658Y0109613875D01*
X0046732852Y0109635826D01*
X0046694882Y0109654120D01*
X0046653747Y0109668754D01*
X0046609448Y0109679730D01*
X0046561985Y0109687047D01*
X0046511358Y0109690706D01*
X0046484726Y0109691011D01*
X0046484726Y0109691011D01*
X0046461077Y0109690698D01*
X0046414602Y0109686940D01*
X0046369117Y0109679425D01*
X0046324620Y0109668152D01*
X0046281112Y0109653122D01*
X0046238593Y0109634335D01*
X0046176545Y0109599578D01*
X0046136663Y0109570770D01*
X0046136663Y0109570770D01*
X0046098198Y0109539886D01*
X0046024235Y0109469878D01*
X0045953831Y0109389982D01*
X0045886987Y0109300198D01*
X0045855049Y0109251185D01*
X0045855049Y0109251185D01*
X0045824461Y0109200855D01*
X0045765924Y0109095249D01*
X0045710550Y0108983711D01*
X0045658340Y0108866240D01*
X0045633554Y0108805032D01*
X0045633554Y0108805032D01*
X0045585432Y0108682683D01*
X0045498416Y0108432710D01*
X0045459523Y0108305087D01*
X0045459523Y0108305087D01*
X0045422475Y0108179706D01*
X0045357609Y0107940808D01*
X0045329790Y0107827293D01*
X0045317127Y0107827293D01*
M02*