G04 Gerber file generated by Gerbonara*
%MOMM*%
%FSLAX46Y46*%
%IPPOS*%
G75
%LPD*%
%AMGNC*
1,1,$1,0,0,-57.29578X$4*
1,0,$2,0,0,0*
21,0,$2,$3,0,0,-57.29578X$4*
%
%AMGNR*
21,1,$1,$2,0,0,$5X-57.29578*
1,0,$3,0,0,0*
21,0,$3,$4,0,0,$5X-57.29578*
%
%AMGNO*
21,1,$1,$2,0,0,$5X-57.29578*
1,1,$2,$1/2,0,$5X-57.29578*
1,1,$2,(0-$1)/2,0,$5X-57.29578*
1,0,$3,0,0,0*
21,0,$3,$4,0,0,$5X-57.29578*
%
%AMGNP*
5,1,$2,0,0,$1,$3X-57.29578*
1,0,$4,0,0,0*
%
%ADD10C,0.05*%
%ADD11C,0.1*%
G36*
G01*
X0009972947Y0153156253D02*
X0009960290Y0153156253D01*
X0009982143Y0153255859D01*
X0010014971Y0153446503D01*
X0010034747Y0153626862D01*
X0010041471Y0153796938D01*
X0010039395Y0153877692D01*
X0010037409Y0153917285D01*
X0010029399Y0153992930D01*
X0010016545Y0154064322D01*
X0009998845Y0154131462D01*
X0009976300Y0154194351D01*
X0009948910Y0154252988D01*
X0009916675Y0154307373D01*
X0009879595Y0154357506D01*
X0009859036Y0154380801D01*
X0009837545Y0154403651D01*
X0009789291Y0154444489D01*
X0009734708Y0154479493D01*
X0009673797Y0154508663D01*
X0009606558Y0154531999D01*
X0009532990Y0154549501D01*
X0009453094Y0154561169D01*
X0009366869Y0154567003D01*
X0009321120Y0154567489D01*
X0008716985Y0154567489D01*
X0007621714Y0149846492D01*
X0008314903Y0149846492D01*
X0008314903Y0149833835D01*
X0006321452Y0149833835D01*
X0006321452Y0149846492D01*
X0007020515Y0149846492D01*
X0008115786Y0154567489D01*
X0007454238Y0154567489D01*
X0007385416Y0154566368D01*
X0007255684Y0154552920D01*
X0007164911Y0154533589D01*
X0007107164Y0154516779D01*
X0007051790Y0154496607D01*
X0006998790Y0154473074D01*
X0006973278Y0154459906D01*
X0006923277Y0154432120D01*
X0006829538Y0154367649D01*
X0006743313Y0154292499D01*
X0006664604Y0154206670D01*
X0006628380Y0154159306D01*
X0006593244Y0154111151D01*
X0006527587Y0154007918D01*
X0006467467Y0153896380D01*
X0006412884Y0153776536D01*
X0006387900Y0153713153D01*
X0006363674Y0153648616D01*
X0006318189Y0153514928D01*
X0006276263Y0153375703D01*
X0006237897Y0153230941D01*
X0006220197Y0153156253D01*
X0006207541Y0153156253D01*
X0006536618Y0154580146D01*
X0010302025Y0154580146D01*
G37*
D11*
X0007017578Y0149833835D02*
X0008118722Y0154580146D01*
X0008719921Y0154580146D01*
X0007618777Y0149833835D01*
X0007017578Y0149833835D01*
X0006321452Y0149833835D02*
X0006321452Y0149846492D01*
X0008314903Y0149846492D01*
X0008314903Y0149833835D01*
X0006321452Y0149833835D01*
X0006207541Y0153156253D02*
X0006536618Y0154580146D01*
X0010302025Y0154580146D01*
X0009972947Y0153156253D01*
X0009960290Y0153156253D01*
X0009960290Y0153156253D01*
X0009982143Y0153255859D01*
X0010014971Y0153446503D01*
X0010034747Y0153626862D01*
X0010041471Y0153796938D01*
X0010039395Y0153877692D01*
X0010039395Y0153877692D01*
X0010037409Y0153917285D01*
X0010029399Y0153992930D01*
X0010016545Y0154064322D01*
X0009998845Y0154131462D01*
X0009976300Y0154194351D01*
X0009948910Y0154252988D01*
X0009916675Y0154307373D01*
X0009879595Y0154357506D01*
X0009859036Y0154380801D01*
X0009859036Y0154380801D01*
X0009837545Y0154403651D01*
X0009789291Y0154444489D01*
X0009734708Y0154479493D01*
X0009673797Y0154508663D01*
X0009606558Y0154531999D01*
X0009532990Y0154549501D01*
X0009453094Y0154561169D01*
X0009366869Y0154567003D01*
X0009321120Y0154567489D01*
X0007454238Y0154567489D01*
X0007454238Y0154567489D01*
X0007385416Y0154566368D01*
X0007255684Y0154552920D01*
X0007164911Y0154533589D01*
X0007107164Y0154516779D01*
X0007051790Y0154496607D01*
X0006998790Y0154473074D01*
X0006973278Y0154459906D01*
X0006973278Y0154459906D01*
X0006923277Y0154432120D01*
X0006829538Y0154367649D01*
X0006743313Y0154292499D01*
X0006664604Y0154206670D01*
X0006628380Y0154159306D01*
X0006628380Y0154159306D01*
X0006593244Y0154111151D01*
X0006527587Y0154007918D01*
X0006467467Y0153896380D01*
X0006412884Y0153776536D01*
X0006387900Y0153713153D01*
X0006387900Y0153713153D01*
X0006363674Y0153648616D01*
X0006318189Y0153514928D01*
X0006276263Y0153375703D01*
X0006237897Y0153230941D01*
X0006220197Y0153156253D01*
X0006207541Y0153156253D01*
G36*
G01*
X0011593823Y0152792056D02*
X0011551206Y0152788299D01*
X0011487452Y0152776087D01*
X0011402809Y0152746027D01*
X0011318562Y0152700937D01*
X0011276603Y0152672129D01*
X0011234842Y0152641970D01*
X0011152969Y0152572753D01*
X0011073072Y0152492857D01*
X0010995154Y0152402282D01*
X0010957019Y0152352544D01*
X0010919312Y0152301357D01*
X0010846535Y0152193378D01*
X0010776922Y0152078675D01*
X0010710474Y0151957249D01*
X0010678569Y0151893734D01*
X0010647256Y0151829395D01*
X0010587927Y0151698081D01*
X0010532553Y0151563602D01*
X0010481135Y0151425959D01*
X0010457074Y0151355819D01*
X0010434529Y0151285481D01*
X0010393394Y0151145465D01*
X0010357006Y0151006240D01*
X0010325364Y0150867806D01*
X0010311520Y0150798919D01*
X0010299390Y0150731251D01*
X0010280404Y0150599541D01*
X0010267747Y0150472181D01*
X0010261418Y0150349173D01*
X0010260890Y0150289481D01*
X0010262077Y0150232690D01*
X0010271866Y0150153956D01*
X0010282545Y0150104812D01*
X0010296784Y0150058536D01*
X0010314583Y0150015127D01*
X0010335941Y0149974585D01*
X0010360859Y0149936911D01*
X0010374801Y0149919269D01*
X0010389757Y0149902616D01*
X0010422883Y0149872853D01*
X0010459864Y0149847341D01*
X0010500703Y0149826082D01*
X0010545397Y0149809074D01*
X0010593948Y0149796318D01*
X0010646355Y0149787814D01*
X0010702619Y0149783562D01*
X0010732357Y0149783208D01*
X0010732361Y0149783208D01*
X0010775770Y0149784428D01*
X0010861599Y0149799062D01*
X0010946241Y0149828331D01*
X0011029697Y0149872234D01*
X0011070931Y0149900284D01*
X0011112692Y0149931201D01*
X0011194566Y0150001604D01*
X0011274462Y0150082291D01*
X0011352380Y0150173262D01*
X0011390516Y0150223033D01*
X0011428223Y0150274220D01*
X0011500999Y0150382199D01*
X0011570612Y0150496901D01*
X0011637060Y0150618328D01*
X0011668966Y0150681843D01*
X0011700245Y0150746182D01*
X0011759179Y0150877496D01*
X0011813761Y0151011975D01*
X0011863993Y0151149618D01*
X0011887296Y0151219758D01*
X0011910566Y0151290096D01*
X0011952492Y0151430112D01*
X0011988880Y0151569337D01*
X0012019731Y0151707771D01*
X0012032850Y0151776659D01*
X0012045737Y0151845052D01*
X0012065909Y0151977553D01*
X0012079356Y0152104912D01*
X0012086080Y0152227130D01*
X0012086640Y0152286096D01*
X0012085454Y0152343612D01*
X0012075665Y0152422989D01*
X0012064985Y0152472331D01*
X0012050747Y0152518608D01*
X0012032948Y0152561819D01*
X0012011590Y0152601965D01*
X0011986672Y0152639045D01*
X0011972729Y0152656308D01*
X0011958152Y0152672962D01*
X0011925620Y0152702725D01*
X0011889034Y0152728237D01*
X0011848394Y0152749496D01*
X0011803699Y0152766504D01*
X0011754951Y0152779259D01*
X0011702148Y0152787763D01*
X0011663287Y0152790669D01*
X0011755510Y0152792620D01*
X0011828096Y0152779835D01*
X0011924604Y0152752247D01*
X0012013202Y0152715463D01*
X0012093889Y0152669483D01*
X0012166666Y0152614307D01*
X0012231532Y0152549936D01*
X0012260669Y0152513918D01*
X0012288941Y0152477175D01*
X0012339469Y0152400147D01*
X0012382779Y0152318866D01*
X0012418871Y0152233334D01*
X0012447745Y0152143550D01*
X0012469400Y0152049513D01*
X0012483836Y0151951225D01*
X0012491055Y0151848685D01*
X0012491656Y0151795644D01*
X0012491294Y0151743953D01*
X0012486943Y0151641809D01*
X0012478241Y0151541147D01*
X0012465189Y0151441969D01*
X0012447786Y0151344274D01*
X0012426032Y0151248062D01*
X0012399927Y0151153334D01*
X0012369472Y0151060089D01*
X0012352432Y0151014084D01*
X0012335160Y0150968426D01*
X0012297981Y0150879334D01*
X0012257637Y0150792911D01*
X0012214129Y0150709158D01*
X0012167457Y0150628076D01*
X0012117621Y0150549663D01*
X0012064620Y0150473919D01*
X0012008455Y0150400846D01*
X0011979055Y0150365422D01*
X0011949209Y0150330929D01*
X0011887705Y0150265073D01*
X0011824025Y0150202976D01*
X0011758170Y0150144636D01*
X0011690140Y0150090053D01*
X0011619934Y0150039228D01*
X0011547553Y0149992160D01*
X0011472996Y0149948850D01*
X0011434811Y0149928761D01*
X0011396758Y0149909397D01*
X0011319829Y0149874788D01*
X0011241910Y0149845124D01*
X0011163002Y0149820403D01*
X0011083106Y0149800627D01*
X0011002221Y0149785795D01*
X0010920347Y0149775907D01*
X0010837485Y0149770963D01*
X0010795641Y0149770551D01*
X0010736560Y0149771309D01*
X0010624824Y0149780406D01*
X0010520800Y0149798600D01*
X0010424490Y0149825891D01*
X0010335892Y0149862280D01*
X0010255007Y0149907765D01*
X0010181835Y0149962348D01*
X0010116375Y0150026027D01*
X0010086859Y0150061657D01*
X0010058587Y0150098400D01*
X0010008059Y0150175429D01*
X0009964749Y0150256710D01*
X0009928657Y0150342242D01*
X0009899783Y0150432027D01*
X0009878128Y0150526063D01*
X0009863692Y0150624351D01*
X0009856473Y0150726891D01*
X0009855872Y0150779933D01*
X0009856226Y0150831623D01*
X0009860478Y0150933768D01*
X0009868982Y0151034429D01*
X0009881738Y0151133607D01*
X0009898745Y0151231302D01*
X0009920005Y0151327514D01*
X0009945516Y0151422242D01*
X0009975280Y0151515487D01*
X0009991933Y0151561492D01*
X0010009591Y0151607142D01*
X0010047463Y0151696136D01*
X0010088400Y0151782360D01*
X0010132402Y0151865816D01*
X0010179470Y0151946503D01*
X0010229603Y0152024422D01*
X0010282801Y0152099572D01*
X0010339064Y0152171953D01*
X0010368473Y0152206990D01*
X0010398311Y0152241871D01*
X0010459716Y0152308418D01*
X0010523198Y0152371109D01*
X0010588757Y0152429943D01*
X0010656391Y0152484921D01*
X0010726103Y0152536043D01*
X0010797891Y0152583308D01*
X0010871755Y0152626717D01*
X0010909553Y0152646815D01*
X0010947993Y0152666566D01*
X0011025615Y0152701867D01*
X0011104127Y0152732125D01*
X0011183529Y0152757339D01*
X0011263820Y0152777511D01*
X0011345002Y0152792640D01*
X0011358060Y0152794245D01*
G37*
G36*
G01*
X0011611347Y0152807423D02*
X0011723677Y0152798227D01*
X0011755510Y0152792620D01*
X0011663287Y0152790669D01*
X0011645291Y0152792015D01*
X0011615174Y0152792369D01*
X0011593823Y0152792056D01*
X0011358060Y0152794245D01*
X0011427074Y0152802726D01*
X0011510035Y0152807769D01*
X0011551887Y0152808189D01*
G37*
X0010795641Y0149770551D02*
X0010795641Y0149770551D01*
X0010736560Y0149771309D01*
X0010624824Y0149780406D01*
X0010520800Y0149798600D01*
X0010424490Y0149825891D01*
X0010335892Y0149862280D01*
X0010255007Y0149907765D01*
X0010181835Y0149962348D01*
X0010116375Y0150026027D01*
X0010086859Y0150061657D01*
X0010086859Y0150061657D01*
X0010058587Y0150098400D01*
X0010008059Y0150175429D01*
X0009964749Y0150256710D01*
X0009928657Y0150342242D01*
X0009899783Y0150432027D01*
X0009878128Y0150526063D01*
X0009863692Y0150624351D01*
X0009856473Y0150726891D01*
X0009855872Y0150779933D01*
X0009855872Y0150779933D01*
X0009856226Y0150831623D01*
X0009860478Y0150933768D01*
X0009868982Y0151034429D01*
X0009881738Y0151133607D01*
X0009898745Y0151231302D01*
X0009920005Y0151327514D01*
X0009945516Y0151422242D01*
X0009975280Y0151515487D01*
X0009991933Y0151561492D01*
X0009991933Y0151561492D01*
X0010009591Y0151607142D01*
X0010047463Y0151696136D01*
X0010088400Y0151782360D01*
X0010132402Y0151865816D01*
X0010179470Y0151946503D01*
X0010229603Y0152024422D01*
X0010282801Y0152099572D01*
X0010339064Y0152171953D01*
X0010368473Y0152206990D01*
X0010368473Y0152206990D01*
X0010398311Y0152241871D01*
X0010459716Y0152308418D01*
X0010523198Y0152371109D01*
X0010588757Y0152429943D01*
X0010656391Y0152484921D01*
X0010726103Y0152536043D01*
X0010797891Y0152583308D01*
X0010871755Y0152626717D01*
X0010909553Y0152646815D01*
X0010909553Y0152646815D01*
X0010947993Y0152666566D01*
X0011025615Y0152701867D01*
X0011104127Y0152732125D01*
X0011183529Y0152757339D01*
X0011263820Y0152777511D01*
X0011345002Y0152792640D01*
X0011427074Y0152802726D01*
X0011510035Y0152807769D01*
X0011551887Y0152808189D01*
X0011551887Y0152808189D01*
X0011611347Y0152807423D01*
X0011723677Y0152798227D01*
X0011828096Y0152779835D01*
X0011924604Y0152752247D01*
X0012013202Y0152715463D01*
X0012093889Y0152669483D01*
X0012166666Y0152614307D01*
X0012231532Y0152549936D01*
X0012260669Y0152513918D01*
X0012260669Y0152513918D01*
X0012288941Y0152477175D01*
X0012339469Y0152400147D01*
X0012382779Y0152318866D01*
X0012418871Y0152233334D01*
X0012447745Y0152143550D01*
X0012469400Y0152049513D01*
X0012483836Y0151951225D01*
X0012491055Y0151848685D01*
X0012491656Y0151795644D01*
X0012491656Y0151795644D01*
X0012491294Y0151743953D01*
X0012486943Y0151641809D01*
X0012478241Y0151541147D01*
X0012465189Y0151441969D01*
X0012447786Y0151344274D01*
X0012426032Y0151248062D01*
X0012399927Y0151153334D01*
X0012369472Y0151060089D01*
X0012352432Y0151014084D01*
X0012352432Y0151014084D01*
X0012335160Y0150968426D01*
X0012297981Y0150879334D01*
X0012257637Y0150792911D01*
X0012214129Y0150709158D01*
X0012167457Y0150628076D01*
X0012117621Y0150549663D01*
X0012064620Y0150473919D01*
X0012008455Y0150400846D01*
X0011979055Y0150365422D01*
X0011979055Y0150365422D01*
X0011949209Y0150330929D01*
X0011887705Y0150265073D01*
X0011824025Y0150202976D01*
X0011758170Y0150144636D01*
X0011690140Y0150090053D01*
X0011619934Y0150039228D01*
X0011547553Y0149992160D01*
X0011472996Y0149948850D01*
X0011434811Y0149928761D01*
X0011434811Y0149928761D01*
X0011396758Y0149909397D01*
X0011319829Y0149874788D01*
X0011241910Y0149845124D01*
X0011163002Y0149820403D01*
X0011083106Y0149800627D01*
X0011002221Y0149785795D01*
X0010920347Y0149775907D01*
X0010837485Y0149770963D01*
X0010795641Y0149770551D01*
X0010795641Y0149770551D01*
X0010732361Y0149783208D02*
X0010732361Y0149783208D01*
X0010775770Y0149784428D01*
X0010861599Y0149799062D01*
X0010946241Y0149828331D01*
X0011029697Y0149872234D01*
X0011070931Y0149900284D01*
X0011070931Y0149900284D01*
X0011112692Y0149931201D01*
X0011194566Y0150001604D01*
X0011274462Y0150082291D01*
X0011352380Y0150173262D01*
X0011390516Y0150223033D01*
X0011390516Y0150223033D01*
X0011428223Y0150274220D01*
X0011500999Y0150382199D01*
X0011570612Y0150496901D01*
X0011637060Y0150618328D01*
X0011668966Y0150681843D01*
X0011668966Y0150681843D01*
X0011700245Y0150746182D01*
X0011759179Y0150877496D01*
X0011813761Y0151011975D01*
X0011863993Y0151149618D01*
X0011887296Y0151219758D01*
X0011887296Y0151219758D01*
X0011910566Y0151290096D01*
X0011952492Y0151430112D01*
X0011988880Y0151569337D01*
X0012019731Y0151707771D01*
X0012032850Y0151776659D01*
X0012032850Y0151776659D01*
X0012045737Y0151845052D01*
X0012065909Y0151977553D01*
X0012079356Y0152104912D01*
X0012086080Y0152227130D01*
X0012086640Y0152286096D01*
X0012086640Y0152286096D01*
X0012085454Y0152343612D01*
X0012075665Y0152422989D01*
X0012064985Y0152472331D01*
X0012050747Y0152518608D01*
X0012032948Y0152561819D01*
X0012011590Y0152601965D01*
X0011986672Y0152639045D01*
X0011972729Y0152656308D01*
X0011972729Y0152656308D01*
X0011958152Y0152672962D01*
X0011925620Y0152702725D01*
X0011889034Y0152728237D01*
X0011848394Y0152749496D01*
X0011803699Y0152766504D01*
X0011754951Y0152779259D01*
X0011702148Y0152787763D01*
X0011645291Y0152792015D01*
X0011615174Y0152792369D01*
X0011615174Y0152792369D01*
X0011593823Y0152792056D01*
X0011551206Y0152788299D01*
X0011487452Y0152776087D01*
X0011402809Y0152746027D01*
X0011318562Y0152700937D01*
X0011276603Y0152672129D01*
X0011276603Y0152672129D01*
X0011234842Y0152641970D01*
X0011152969Y0152572753D01*
X0011073072Y0152492857D01*
X0010995154Y0152402282D01*
X0010957019Y0152352544D01*
X0010957019Y0152352544D01*
X0010919312Y0152301357D01*
X0010846535Y0152193378D01*
X0010776922Y0152078675D01*
X0010710474Y0151957249D01*
X0010678569Y0151893734D01*
X0010678569Y0151893734D01*
X0010647256Y0151829395D01*
X0010587927Y0151698081D01*
X0010532553Y0151563602D01*
X0010481135Y0151425959D01*
X0010457074Y0151355819D01*
X0010457074Y0151355819D01*
X0010434529Y0151285481D01*
X0010393394Y0151145465D01*
X0010357006Y0151006240D01*
X0010325364Y0150867806D01*
X0010311520Y0150798919D01*
X0010311520Y0150798919D01*
X0010299390Y0150731251D01*
X0010280404Y0150599541D01*
X0010267747Y0150472181D01*
X0010261418Y0150349173D01*
X0010260890Y0150289481D01*
X0010260890Y0150289481D01*
X0010262077Y0150232690D01*
X0010271866Y0150153956D01*
X0010282545Y0150104812D01*
X0010296784Y0150058536D01*
X0010314583Y0150015127D01*
X0010335941Y0149974585D01*
X0010360859Y0149936911D01*
X0010374801Y0149919269D01*
X0010374801Y0149919269D01*
X0010389757Y0149902616D01*
X0010422883Y0149872853D01*
X0010459864Y0149847341D01*
X0010500703Y0149826082D01*
X0010545397Y0149809074D01*
X0010593948Y0149796318D01*
X0010646355Y0149787814D01*
X0010702619Y0149783562D01*
X0010732357Y0149783208D01*
X0010732361Y0149783208D01*
G36*
G01*
X0015340030Y0152756456D02*
X0015416762Y0152722441D01*
X0015486177Y0152679922D01*
X0015548275Y0152628900D01*
X0015603055Y0152569373D01*
X0015627397Y0152536067D01*
X0015650634Y0152501878D01*
X0015692164Y0152427816D01*
X0015727761Y0152346931D01*
X0015757426Y0152259223D01*
X0015781157Y0152164692D01*
X0015798956Y0152063339D01*
X0015810822Y0151955163D01*
X0015816755Y0151840163D01*
X0015817249Y0151779821D01*
X0015816903Y0151734352D01*
X0015812750Y0151643579D01*
X0015804444Y0151553003D01*
X0015791985Y0151462626D01*
X0015775373Y0151372446D01*
X0015754608Y0151282463D01*
X0015729690Y0151192679D01*
X0015700618Y0151103092D01*
X0015684352Y0151058381D01*
X0015650172Y0150970443D01*
X0015572254Y0150801158D01*
X0015482865Y0150639783D01*
X0015382006Y0150486319D01*
X0015326797Y0150412883D01*
X0015270138Y0150341293D01*
X0015151875Y0150209979D01*
X0015027680Y0150092903D01*
X0014930455Y0150014885D01*
X0014863908Y0149967027D01*
X0014830016Y0149944581D01*
X0014795976Y0149923280D01*
X0014727649Y0149885211D01*
X0014659025Y0149852580D01*
X0014590105Y0149825387D01*
X0014520888Y0149803633D01*
X0014451374Y0149787318D01*
X0014381564Y0149776441D01*
X0014311457Y0149771002D01*
X0014276280Y0149770549D01*
X0014276276Y0149770549D01*
X0014248491Y0149770895D01*
X0014195886Y0149775048D01*
X0014146841Y0149783354D01*
X0014101355Y0149795813D01*
X0014059429Y0149812426D01*
X0014021063Y0149833191D01*
X0013986257Y0149858109D01*
X0013955011Y0149887180D01*
X0013940870Y0149903446D01*
X0013913975Y0149938252D01*
X0013868094Y0150015775D01*
X0013831705Y0150102791D01*
X0013804810Y0150199299D01*
X0013795317Y0150251509D01*
X0013786978Y0150304707D01*
X0013773927Y0150413081D01*
X0013765226Y0150523828D01*
X0013760875Y0150636948D01*
X0013760512Y0150694497D01*
X0013760908Y0150747729D01*
X0013765655Y0150856499D01*
X0013769963Y0150907118D01*
X0013067743Y0148264389D01*
X0013599133Y0148264389D01*
X0013599133Y0148251731D01*
X0012083477Y0148251731D01*
X0012083477Y0148264389D01*
X0012561505Y0148264389D01*
X0013760508Y0152732248D01*
X0013304861Y0152732248D01*
X0013304861Y0152744906D01*
X0014184511Y0152744906D01*
X0013932110Y0151665891D01*
X0013934875Y0151674347D01*
X0013976801Y0151789841D01*
X0014022682Y0151902170D01*
X0014072518Y0152011335D01*
X0014099084Y0152064600D01*
X0014127068Y0152117897D01*
X0014186001Y0152219547D01*
X0014248494Y0152315264D01*
X0014314547Y0152405048D01*
X0014349057Y0152447468D01*
X0014384160Y0152488636D01*
X0014457332Y0152563391D01*
X0014534064Y0152629048D01*
X0014614356Y0152685608D01*
X0014655985Y0152710098D01*
X0014698141Y0152733599D01*
X0014745451Y0152753689D01*
X0014882271Y0152750888D01*
X0014835401Y0152746735D01*
X0014789124Y0152738429D01*
X0014743441Y0152725970D01*
X0014698351Y0152709358D01*
X0014653855Y0152688592D01*
X0014609951Y0152663674D01*
X0014566641Y0152634603D01*
X0014545233Y0152618337D01*
X0014502813Y0152584948D01*
X0014420939Y0152508611D01*
X0014342625Y0152420805D01*
X0014267871Y0152321528D01*
X0014231977Y0152267110D01*
X0014197533Y0152211967D01*
X0014132272Y0152096078D01*
X0014071361Y0151973465D01*
X0014014800Y0151844128D01*
X0013988333Y0151776658D01*
X0013963481Y0151709287D01*
X0013918391Y0151573226D01*
X0013878838Y0151435583D01*
X0013844823Y0151296358D01*
X0013830122Y0151226086D01*
X0013816478Y0151156012D01*
X0013795121Y0151019160D01*
X0013780883Y0150886263D01*
X0013773764Y0150757322D01*
X0013773171Y0150694499D01*
X0013774094Y0150603067D01*
X0013785168Y0150431408D01*
X0013807318Y0150273198D01*
X0013840542Y0150128436D01*
X0013861768Y0150061657D01*
X0013873675Y0150029900D01*
X0013901856Y0149973142D01*
X0013935278Y0149924493D01*
X0013973941Y0149883951D01*
X0014017844Y0149851518D01*
X0014066988Y0149827194D01*
X0014121373Y0149810977D01*
X0014180999Y0149802869D01*
X0014212992Y0149802193D01*
X0014233548Y0149802572D01*
X0014274584Y0149807121D01*
X0014315521Y0149816218D01*
X0014356359Y0149829863D01*
X0014397098Y0149848058D01*
X0014437738Y0149870800D01*
X0014498526Y0149912874D01*
X0014538902Y0149947746D01*
X0014579048Y0149985915D01*
X0014657362Y0150072139D01*
X0014733303Y0150170230D01*
X0014806871Y0150280186D01*
X0014842666Y0150340108D01*
X0014877934Y0150401547D01*
X0014945173Y0150529697D01*
X0015008457Y0150664176D01*
X0015067786Y0150804983D01*
X0015095802Y0150878023D01*
X0015122995Y0150952415D01*
X0015172436Y0151101528D01*
X0015215943Y0151251037D01*
X0015253518Y0151400941D01*
X0015269834Y0151476058D01*
X0015284996Y0151550747D01*
X0015308729Y0151695509D01*
X0015324551Y0151834734D01*
X0015332462Y0151968422D01*
X0015333121Y0152032959D01*
X0015331968Y0152116052D01*
X0015322450Y0152230236D01*
X0015312068Y0152300936D01*
X0015298224Y0152366989D01*
X0015280920Y0152428394D01*
X0015260155Y0152485152D01*
X0015235929Y0152537263D01*
X0015222374Y0152561382D01*
X0015208283Y0152584619D01*
X0015177630Y0152626149D01*
X0015144010Y0152661746D01*
X0015107424Y0152691411D01*
X0015067871Y0152715142D01*
X0015025352Y0152732941D01*
X0014979867Y0152744807D01*
X0014931415Y0152750740D01*
X0014906969Y0152751214D01*
X0015280315Y0152774582D01*
G37*
G36*
G01*
X0015065931Y0152807479D02*
X0015164614Y0152798975D01*
X0015255981Y0152781968D01*
X0015280315Y0152774582D01*
X0014906969Y0152751214D01*
X0014905953Y0152751234D01*
X0014882271Y0152750888D01*
X0014745451Y0152753689D01*
X0014784762Y0152770382D01*
X0014874150Y0152794905D01*
X0014966308Y0152807166D01*
X0015013540Y0152808188D01*
G37*
X0012558109Y0148251731D02*
X0013760508Y0152732248D01*
X0013304861Y0152732248D01*
X0013304861Y0152744906D01*
X0014184511Y0152744906D01*
X0013931375Y0151662747D01*
X0013811135Y0151181788D01*
X0013773162Y0150919159D01*
X0013064379Y0148251732D01*
X0012558109Y0148251731D01*
X0012083477Y0148251731D02*
X0012083477Y0148264389D01*
X0013599133Y0148264389D01*
X0013599133Y0148251731D01*
X0012083477Y0148251731D01*
X0014212989Y0149802193D02*
X0014212989Y0149802193D01*
X0014233548Y0149802572D01*
X0014274584Y0149807121D01*
X0014315521Y0149816218D01*
X0014356359Y0149829863D01*
X0014397098Y0149848058D01*
X0014437738Y0149870800D01*
X0014498526Y0149912874D01*
X0014538902Y0149947746D01*
X0014538902Y0149947746D01*
X0014579048Y0149985915D01*
X0014657362Y0150072139D01*
X0014733303Y0150170230D01*
X0014806871Y0150280186D01*
X0014842666Y0150340108D01*
X0014842666Y0150340108D01*
X0014877934Y0150401547D01*
X0014945173Y0150529697D01*
X0015008457Y0150664176D01*
X0015067786Y0150804983D01*
X0015095802Y0150878023D01*
X0015095802Y0150878023D01*
X0015122995Y0150952415D01*
X0015172436Y0151101528D01*
X0015215943Y0151251037D01*
X0015253518Y0151400941D01*
X0015269834Y0151476058D01*
X0015269834Y0151476058D01*
X0015284996Y0151550747D01*
X0015308729Y0151695509D01*
X0015324551Y0151834734D01*
X0015332462Y0151968422D01*
X0015333121Y0152032959D01*
X0015333121Y0152032959D01*
X0015331968Y0152116052D01*
X0015322450Y0152230236D01*
X0015312068Y0152300936D01*
X0015298224Y0152366989D01*
X0015280920Y0152428394D01*
X0015260155Y0152485152D01*
X0015235929Y0152537263D01*
X0015222374Y0152561382D01*
X0015222374Y0152561382D01*
X0015208283Y0152584619D01*
X0015177630Y0152626149D01*
X0015144010Y0152661746D01*
X0015107424Y0152691411D01*
X0015067871Y0152715142D01*
X0015025352Y0152732941D01*
X0014979867Y0152744807D01*
X0014931415Y0152750740D01*
X0014905953Y0152751234D01*
X0014905953Y0152751234D01*
X0014882271Y0152750888D01*
X0014835401Y0152746735D01*
X0014789124Y0152738429D01*
X0014743441Y0152725970D01*
X0014698351Y0152709358D01*
X0014653855Y0152688592D01*
X0014609951Y0152663674D01*
X0014566641Y0152634603D01*
X0014545233Y0152618337D01*
X0014545233Y0152618337D01*
X0014502813Y0152584948D01*
X0014420939Y0152508611D01*
X0014342625Y0152420805D01*
X0014267871Y0152321528D01*
X0014231977Y0152267110D01*
X0014231977Y0152267110D01*
X0014197533Y0152211967D01*
X0014132272Y0152096078D01*
X0014071361Y0151973465D01*
X0014014800Y0151844128D01*
X0013988333Y0151776658D01*
X0013988333Y0151776658D01*
X0013963481Y0151709287D01*
X0013918391Y0151573226D01*
X0013878838Y0151435583D01*
X0013844823Y0151296358D01*
X0013830122Y0151226086D01*
X0013830122Y0151226086D01*
X0013816478Y0151156012D01*
X0013795121Y0151019160D01*
X0013780883Y0150886263D01*
X0013773764Y0150757322D01*
X0013773171Y0150694499D01*
X0013773171Y0150694499D01*
X0013774094Y0150603067D01*
X0013785168Y0150431408D01*
X0013807318Y0150273198D01*
X0013840542Y0150128436D01*
X0013861768Y0150061657D01*
X0013861768Y0150061657D01*
X0013873675Y0150029900D01*
X0013901856Y0149973142D01*
X0013935278Y0149924493D01*
X0013973941Y0149883951D01*
X0014017844Y0149851518D01*
X0014066988Y0149827194D01*
X0014121373Y0149810977D01*
X0014180999Y0149802869D01*
X0014212995Y0149802193D01*
X0014212989Y0149802193D01*
X0014276276Y0149770549D02*
X0014276276Y0149770549D01*
X0014248491Y0149770895D01*
X0014195886Y0149775048D01*
X0014146841Y0149783354D01*
X0014101355Y0149795813D01*
X0014059429Y0149812426D01*
X0014021063Y0149833191D01*
X0013986257Y0149858109D01*
X0013955011Y0149887180D01*
X0013940870Y0149903446D01*
X0013940870Y0149903446D01*
X0013913975Y0149938252D01*
X0013868094Y0150015775D01*
X0013831705Y0150102791D01*
X0013804810Y0150199299D01*
X0013795317Y0150251509D01*
X0013795317Y0150251509D01*
X0013786978Y0150304707D01*
X0013773927Y0150413081D01*
X0013765226Y0150523828D01*
X0013760875Y0150636948D01*
X0013760512Y0150694497D01*
X0013760512Y0150694497D01*
X0013760908Y0150747729D01*
X0013765655Y0150856499D01*
X0013775148Y0150968037D01*
X0013789387Y0151082344D01*
X0013798485Y0151140651D01*
X0013798485Y0151140651D01*
X0013809131Y0151199980D01*
X0013834049Y0151318638D01*
X0013863317Y0151437295D01*
X0013896937Y0151555953D01*
X0013915560Y0151615282D01*
X0013915560Y0151615282D01*
X0013934875Y0151674347D01*
X0013976801Y0151789841D01*
X0014022682Y0151902170D01*
X0014072518Y0152011335D01*
X0014099084Y0152064600D01*
X0014099084Y0152064600D01*
X0014127068Y0152117897D01*
X0014186001Y0152219547D01*
X0014248494Y0152315264D01*
X0014314547Y0152405048D01*
X0014349057Y0152447468D01*
X0014349057Y0152447468D01*
X0014384160Y0152488636D01*
X0014457332Y0152563391D01*
X0014534064Y0152629048D01*
X0014614356Y0152685608D01*
X0014655985Y0152710098D01*
X0014655985Y0152710098D01*
X0014698141Y0152733599D01*
X0014784762Y0152770382D01*
X0014874150Y0152794905D01*
X0014966308Y0152807166D01*
X0015013540Y0152808188D01*
X0015013540Y0152808188D01*
X0015065931Y0152807479D01*
X0015164614Y0152798975D01*
X0015255981Y0152781968D01*
X0015340030Y0152756456D01*
X0015416762Y0152722441D01*
X0015486177Y0152679922D01*
X0015548275Y0152628900D01*
X0015603055Y0152569373D01*
X0015627397Y0152536067D01*
X0015627397Y0152536067D01*
X0015650634Y0152501878D01*
X0015692164Y0152427816D01*
X0015727761Y0152346931D01*
X0015757426Y0152259223D01*
X0015781157Y0152164692D01*
X0015798956Y0152063339D01*
X0015810822Y0151955163D01*
X0015816755Y0151840163D01*
X0015817249Y0151779821D01*
X0015817249Y0151779821D01*
X0015816903Y0151734352D01*
X0015812750Y0151643579D01*
X0015804444Y0151553003D01*
X0015791985Y0151462626D01*
X0015775373Y0151372446D01*
X0015754608Y0151282463D01*
X0015729690Y0151192679D01*
X0015700618Y0151103092D01*
X0015684352Y0151058381D01*
X0015684352Y0151058381D01*
X0015650172Y0150970443D01*
X0015572254Y0150801158D01*
X0015482865Y0150639783D01*
X0015382006Y0150486319D01*
X0015326797Y0150412883D01*
X0015326797Y0150412883D01*
X0015270138Y0150341293D01*
X0015151875Y0150209979D01*
X0015027680Y0150092903D01*
X0014930455Y0150014885D01*
X0014863908Y0149967027D01*
X0014830016Y0149944581D01*
X0014830016Y0149944581D01*
X0014795976Y0149923280D01*
X0014727649Y0149885211D01*
X0014659025Y0149852580D01*
X0014590105Y0149825387D01*
X0014520888Y0149803633D01*
X0014451374Y0149787318D01*
X0014381564Y0149776441D01*
X0014311457Y0149771002D01*
X0014276280Y0149770549D01*
X0014276276Y0149770549D01*
G36*
G01*
X0019734525Y0154567490D02*
X0019133766Y0151991825D01*
X0019737686Y0151991825D01*
X0019777849Y0151992204D01*
X0019856361Y0151996752D01*
X0019932697Y0152005849D01*
X0020006858Y0152019495D01*
X0020078844Y0152037689D01*
X0020148654Y0152060432D01*
X0020216289Y0152087723D01*
X0020281749Y0152119563D01*
X0020313572Y0152137378D01*
X0020376033Y0152175448D01*
X0020492713Y0152260486D01*
X0020599505Y0152356203D01*
X0020696408Y0152462600D01*
X0020740740Y0152520248D01*
X0020783391Y0152579972D01*
X0020860123Y0152703376D01*
X0020926571Y0152831526D01*
X0020982736Y0152964423D01*
X0021006533Y0153032849D01*
X0021028518Y0153101506D01*
X0021062929Y0153237171D01*
X0021085869Y0153370859D01*
X0021097339Y0153502569D01*
X0021098295Y0153567600D01*
X0021097109Y0153638531D01*
X0021082871Y0153793577D01*
X0021070150Y0153875564D01*
X0021471807Y0154266302D01*
X0021482782Y0154257464D01*
X0021537364Y0154206045D01*
X0021587596Y0154150672D01*
X0021610899Y0154121337D01*
X0021633362Y0154091302D01*
X0021673508Y0154027523D01*
X0021707918Y0153959295D01*
X0021736594Y0153886617D01*
X0021759535Y0153809489D01*
X0021776740Y0153727912D01*
X0021788210Y0153641885D01*
X0021793946Y0153551409D01*
X0021794423Y0153504317D01*
X0021793772Y0153445334D01*
X0021785961Y0153330829D01*
X0021770338Y0153220477D01*
X0021746903Y0153114279D01*
X0021715656Y0153012233D01*
X0021676598Y0152914340D01*
X0021629728Y0152820600D01*
X0021575046Y0152731014D01*
X0021544451Y0152687951D01*
X0021513039Y0152645646D01*
X0021444614Y0152565157D01*
X0021369464Y0152489611D01*
X0021287590Y0152419010D01*
X0021198992Y0152353353D01*
X0021103670Y0152292639D01*
X0021001625Y0152236870D01*
X0020892855Y0152186045D01*
X0020835669Y0152162692D01*
X0020777469Y0152140230D01*
X0020656536Y0152100084D01*
X0020530166Y0152065673D01*
X0020398357Y0152036998D01*
X0020261109Y0152014057D01*
X0020118423Y0151996852D01*
X0019970299Y0151985382D01*
X0019816736Y0151979647D01*
X0019737688Y0151979169D01*
X0019130814Y0151979168D01*
X0018633380Y0149846492D01*
X0019263058Y0149846492D01*
X0019263058Y0149833835D01*
X0017522744Y0149833835D01*
X0017522744Y0149846492D01*
X0018032181Y0149846492D01*
X0019133325Y0154567490D01*
X0018566932Y0154567490D01*
X0018566932Y0154574171D01*
G37*
G36*
G01*
X0020473169Y0154578993D02*
X0020620453Y0154569476D01*
X0020715181Y0154559093D01*
X0020806944Y0154545250D01*
X0020895739Y0154527946D01*
X0020981568Y0154507181D01*
X0021064431Y0154482955D01*
X0021104626Y0154469400D01*
X0021144607Y0154455227D01*
X0021220944Y0154423584D01*
X0021292929Y0154387987D01*
X0021360564Y0154348435D01*
X0021423848Y0154304927D01*
X0021471807Y0154266302D01*
X0021070150Y0153875564D01*
X0021069819Y0153877692D01*
X0021062173Y0153921002D01*
X0021041606Y0154005645D01*
X0021014711Y0154087914D01*
X0020981486Y0154167811D01*
X0020962236Y0154206770D01*
X0020941801Y0154245729D01*
X0020894338Y0154317715D01*
X0020838964Y0154382581D01*
X0020775680Y0154440328D01*
X0020740742Y0154466235D01*
X0020722721Y0154478628D01*
X0020684454Y0154500777D01*
X0020643517Y0154519763D01*
X0020599911Y0154535584D01*
X0020529828Y0154553778D01*
X0020426596Y0154566435D01*
X0020370530Y0154567490D01*
X0019734525Y0154567490D01*
X0018566932Y0154574171D01*
X0018566932Y0154580147D01*
X0020370530Y0154580147D01*
G37*
X0018873861Y0151979167D02*
X0018877022Y0151991825D01*
X0019737686Y0151991825D01*
X0019737686Y0151991825D01*
X0019777849Y0151992204D01*
X0019856361Y0151996752D01*
X0019932697Y0152005849D01*
X0020006858Y0152019495D01*
X0020078844Y0152037689D01*
X0020148654Y0152060432D01*
X0020216289Y0152087723D01*
X0020281749Y0152119563D01*
X0020313572Y0152137378D01*
X0020313572Y0152137378D01*
X0020376033Y0152175448D01*
X0020492713Y0152260486D01*
X0020599505Y0152356203D01*
X0020696408Y0152462600D01*
X0020740740Y0152520248D01*
X0020740740Y0152520248D01*
X0020783391Y0152579972D01*
X0020860123Y0152703376D01*
X0020926571Y0152831526D01*
X0020982736Y0152964423D01*
X0021006533Y0153032849D01*
X0021006533Y0153032849D01*
X0021028518Y0153101506D01*
X0021062929Y0153237171D01*
X0021085869Y0153370859D01*
X0021097339Y0153502569D01*
X0021098295Y0153567600D01*
X0021098295Y0153567600D01*
X0021097109Y0153638531D01*
X0021082871Y0153793577D01*
X0021069819Y0153877692D01*
X0021069819Y0153877692D01*
X0021062173Y0153921002D01*
X0021041606Y0154005645D01*
X0021014711Y0154087914D01*
X0020981486Y0154167811D01*
X0020962236Y0154206770D01*
X0020962236Y0154206770D01*
X0020941801Y0154245729D01*
X0020894338Y0154317715D01*
X0020838964Y0154382581D01*
X0020775680Y0154440328D01*
X0020740742Y0154466235D01*
X0020740742Y0154466235D01*
X0020722721Y0154478628D01*
X0020684454Y0154500777D01*
X0020643517Y0154519763D01*
X0020599911Y0154535584D01*
X0020529828Y0154553778D01*
X0020426596Y0154566435D01*
X0020370530Y0154567490D01*
X0019734525Y0154567490D01*
X0018633380Y0149846492D01*
X0019263058Y0149846492D01*
X0019263058Y0149833835D01*
X0017522744Y0149833835D01*
X0017522744Y0149846492D01*
X0018032181Y0149846492D01*
X0019133325Y0154567490D01*
X0018566932Y0154567490D01*
X0018566932Y0154580147D01*
X0020370530Y0154580147D01*
X0020370530Y0154580147D01*
X0020473169Y0154578993D01*
X0020620453Y0154569476D01*
X0020715181Y0154559093D01*
X0020806944Y0154545250D01*
X0020895739Y0154527946D01*
X0020981568Y0154507181D01*
X0021064431Y0154482955D01*
X0021104626Y0154469400D01*
X0021104626Y0154469400D01*
X0021144607Y0154455227D01*
X0021220944Y0154423584D01*
X0021292929Y0154387987D01*
X0021360564Y0154348435D01*
X0021423848Y0154304927D01*
X0021482782Y0154257464D01*
X0021537364Y0154206045D01*
X0021587596Y0154150672D01*
X0021610899Y0154121337D01*
X0021610899Y0154121337D01*
X0021633362Y0154091302D01*
X0021673508Y0154027523D01*
X0021707918Y0153959295D01*
X0021736594Y0153886617D01*
X0021759535Y0153809489D01*
X0021776740Y0153727912D01*
X0021788210Y0153641885D01*
X0021793946Y0153551409D01*
X0021794423Y0153504317D01*
X0021794423Y0153504317D01*
X0021793772Y0153445334D01*
X0021785961Y0153330829D01*
X0021770338Y0153220477D01*
X0021746903Y0153114279D01*
X0021715656Y0153012233D01*
X0021676598Y0152914340D01*
X0021629728Y0152820600D01*
X0021575046Y0152731014D01*
X0021544451Y0152687951D01*
X0021544451Y0152687951D01*
X0021513039Y0152645646D01*
X0021444614Y0152565157D01*
X0021369464Y0152489611D01*
X0021287590Y0152419010D01*
X0021198992Y0152353353D01*
X0021103670Y0152292639D01*
X0021001625Y0152236870D01*
X0020892855Y0152186045D01*
X0020835669Y0152162692D01*
X0020835669Y0152162692D01*
X0020777469Y0152140230D01*
X0020656536Y0152100084D01*
X0020530166Y0152065673D01*
X0020398357Y0152036998D01*
X0020261109Y0152014057D01*
X0020118423Y0151996852D01*
X0019970299Y0151985382D01*
X0019816736Y0151979647D01*
X0019737688Y0151979169D01*
X0018873861Y0151979167D01*
G36*
G01*
X0023371791Y0152776163D02*
X0023330755Y0152771516D01*
X0023289818Y0152762221D01*
X0023248980Y0152748279D01*
X0023208241Y0152729689D01*
X0023167600Y0152706452D01*
X0023106813Y0152663463D01*
X0023066436Y0152627833D01*
X0023026291Y0152590423D01*
X0022947976Y0152505385D01*
X0022872035Y0152408085D01*
X0022798467Y0152298524D01*
X0022762672Y0152238635D01*
X0022727405Y0152177955D01*
X0022660165Y0152050991D01*
X0022596881Y0151917303D01*
X0022537552Y0151776891D01*
X0022509536Y0151703884D01*
X0022482343Y0151631074D01*
X0022432903Y0151485125D01*
X0022389395Y0151338781D01*
X0022351820Y0151192041D01*
X0022335504Y0151118506D01*
X0022320343Y0151045432D01*
X0022296613Y0150904230D01*
X0022280793Y0150768960D01*
X0022272883Y0150639623D01*
X0022272224Y0150577426D01*
X0022272529Y0150529700D01*
X0022276188Y0150439520D01*
X0022283505Y0150355668D01*
X0022294481Y0150278145D01*
X0022309115Y0150206950D01*
X0022327408Y0150142084D01*
X0022349360Y0150083546D01*
X0022374970Y0150031337D01*
X0022389299Y0150007869D01*
X0022404519Y0149985794D01*
X0022436853Y0149946340D01*
X0022471462Y0149912523D01*
X0022508345Y0149884341D01*
X0022547502Y0149861796D01*
X0022588933Y0149844888D01*
X0022632639Y0149833615D01*
X0022678619Y0149827979D01*
X0022702554Y0149827509D01*
X0022726225Y0149827847D01*
X0022772996Y0149831901D01*
X0022819075Y0149840010D01*
X0022864461Y0149852172D01*
X0022909156Y0149868389D01*
X0022953158Y0149888659D01*
X0022996468Y0149912984D01*
X0023039086Y0149941363D01*
X0023060106Y0149957242D01*
X0023102527Y0149991356D01*
X0023184401Y0150068483D01*
X0023262715Y0150156290D01*
X0023337469Y0150254776D01*
X0023373363Y0150308469D01*
X0023408532Y0150364337D01*
X0023474585Y0150481017D01*
X0023535496Y0150603630D01*
X0023591265Y0150732176D01*
X0023617007Y0150798921D01*
X0023642617Y0150867050D01*
X0023688894Y0151004298D01*
X0023729237Y0151142731D01*
X0023763648Y0151282352D01*
X0023778382Y0151352657D01*
X0023792028Y0151422731D01*
X0023813387Y0151559583D01*
X0023827627Y0151692480D01*
X0023834747Y0151821421D01*
X0023835340Y0151884244D01*
X0023834945Y0151945485D01*
X0023830198Y0152063351D01*
X0023820705Y0152175681D01*
X0023806465Y0152282473D01*
X0023797368Y0152333561D01*
X0023788007Y0152383332D01*
X0023762694Y0152474303D01*
X0023729470Y0152554990D01*
X0023688335Y0152625394D01*
X0023664471Y0152656311D01*
X0023652391Y0152671027D01*
X0023626089Y0152697330D01*
X0023597215Y0152719875D01*
X0023565771Y0152738662D01*
X0023531756Y0152753692D01*
X0023495170Y0152764965D01*
X0023456013Y0152772480D01*
X0023438904Y0152774020D01*
X0023525016Y0152776015D01*
X0023551638Y0152765316D01*
X0023590301Y0152744056D01*
X0023625305Y0152718545D01*
X0023656650Y0152688782D01*
X0023670799Y0152672128D01*
X0023697661Y0152638080D01*
X0023743147Y0152561744D01*
X0023778744Y0152475519D01*
X0023804453Y0152379406D01*
X0023813188Y0152327230D01*
X0023821526Y0152274032D01*
X0023834578Y0152165658D01*
X0023843279Y0152054910D01*
X0023847630Y0151941790D01*
X0023847992Y0151884241D01*
X0023847564Y0151831735D01*
X0023842422Y0151723756D01*
X0023840328Y0151701040D01*
X0023847988Y0151748180D01*
X0024088468Y0152744905D01*
X0024623218Y0152744905D01*
X0023898615Y0150023687D01*
X0023892814Y0149999692D01*
X0023886485Y0149949065D01*
X0023885958Y0149922433D01*
X0023886254Y0149909183D01*
X0023889814Y0149884660D01*
X0023896933Y0149862511D01*
X0023907611Y0149842734D01*
X0023914433Y0149833835D01*
X0023922740Y0149824737D01*
X0023943308Y0149810497D01*
X0023968621Y0149801004D01*
X0023998681Y0149796258D01*
X0024015688Y0149795862D01*
X0024061206Y0149796917D01*
X0024148618Y0149809574D01*
X0024231678Y0149834888D01*
X0024310388Y0149872858D01*
X0024347930Y0149897117D01*
X0024385735Y0149924441D01*
X0024459699Y0149991285D01*
X0024531684Y0150072763D01*
X0024601692Y0150168876D01*
X0024635872Y0150223030D01*
X0024669855Y0150280579D01*
X0024737490Y0150409521D01*
X0024804729Y0150555074D01*
X0024871573Y0150717240D01*
X0024904830Y0150805244D01*
X0024914320Y0150802083D01*
X0024880271Y0150712530D01*
X0024811845Y0150547595D01*
X0024743024Y0150399669D01*
X0024673807Y0150268750D01*
X0024639033Y0150210377D01*
X0024604754Y0150154673D01*
X0024533560Y0150055792D01*
X0024459201Y0149971941D01*
X0024381678Y0149903119D01*
X0024341598Y0149874971D01*
X0024300727Y0149849954D01*
X0024213711Y0149810797D01*
X0024120367Y0149784692D01*
X0024020694Y0149771640D01*
X0023968221Y0149770552D01*
X0023968234Y0149770551D01*
X0023940852Y0149770864D01*
X0023889137Y0149774621D01*
X0023841081Y0149782136D01*
X0023796683Y0149793409D01*
X0023755944Y0149808439D01*
X0023718863Y0149827226D01*
X0023685441Y0149849771D01*
X0023655678Y0149876074D01*
X0023642321Y0149890791D01*
X0023629540Y0149906002D01*
X0023606699Y0149938237D01*
X0023587120Y0149972648D01*
X0023570805Y0150009234D01*
X0023552042Y0150067920D01*
X0023538990Y0150154145D01*
X0023537902Y0150200883D01*
X0023538429Y0150252564D01*
X0023541063Y0150295809D01*
X0023544752Y0150338000D01*
X0023550552Y0150371750D01*
X0023621908Y0150765759D01*
X0023584606Y0150675349D01*
X0023533583Y0150564997D01*
X0023506259Y0150510975D01*
X0023479001Y0150458436D01*
X0023420858Y0150357973D01*
X0023358365Y0150263046D01*
X0023291522Y0150173657D01*
X0023256287Y0150131270D01*
X0023221184Y0150090070D01*
X0023148011Y0150014920D01*
X0023071279Y0149948472D01*
X0022990987Y0149890725D01*
X0022949358Y0149865477D01*
X0022907927Y0149842734D01*
X0022822098Y0149807137D01*
X0022732709Y0149783405D01*
X0022639761Y0149771539D01*
X0022591803Y0149770551D01*
X0022539413Y0149771251D01*
X0022440729Y0149779656D01*
X0022349363Y0149796466D01*
X0022265314Y0149821681D01*
X0022188582Y0149855300D01*
X0022119167Y0149897325D01*
X0022057069Y0149947755D01*
X0022002289Y0150006589D01*
X0021977948Y0150039508D01*
X0021955098Y0150074084D01*
X0021914260Y0150148838D01*
X0021879256Y0150230317D01*
X0021850086Y0150318519D01*
X0021826749Y0150413445D01*
X0021809247Y0150515095D01*
X0021797579Y0150623470D01*
X0021791745Y0150738568D01*
X0021791259Y0150798918D01*
X0021791605Y0150844379D01*
X0021795758Y0150935053D01*
X0021804064Y0151025431D01*
X0021816523Y0151115512D01*
X0021833136Y0151205296D01*
X0021853901Y0151294784D01*
X0021878819Y0151383975D01*
X0021907890Y0151472869D01*
X0021924156Y0151517193D01*
X0021958336Y0151605890D01*
X0022036255Y0151776361D01*
X0022125644Y0151938527D01*
X0022226503Y0152092387D01*
X0022281712Y0152165855D01*
X0022338371Y0152237413D01*
X0022456633Y0152368332D01*
X0022580828Y0152484616D01*
X0022678053Y0152561769D01*
X0022744600Y0152608935D01*
X0022778492Y0152630994D01*
X0022812911Y0152652682D01*
X0022881831Y0152691444D01*
X0022950851Y0152724668D01*
X0023019969Y0152752354D01*
X0023089186Y0152774504D01*
X0023117602Y0152781314D01*
G37*
G36*
G01*
X0023360401Y0152807835D02*
X0023413698Y0152803583D01*
X0023463337Y0152795079D01*
X0023509317Y0152782323D01*
X0023525016Y0152776015D01*
X0023438904Y0152774020D01*
X0023414285Y0152776237D01*
X0023392350Y0152776550D01*
X0023371791Y0152776163D01*
X0023117602Y0152781314D01*
X0023158502Y0152791116D01*
X0023227917Y0152802190D01*
X0023297430Y0152807728D01*
X0023332228Y0152808189D01*
G37*
X0022591804Y0149770551D02*
X0022591804Y0149770551D01*
X0022539413Y0149771251D01*
X0022440729Y0149779656D01*
X0022349363Y0149796466D01*
X0022265314Y0149821681D01*
X0022188582Y0149855300D01*
X0022119167Y0149897325D01*
X0022057069Y0149947755D01*
X0022002289Y0150006589D01*
X0021977948Y0150039508D01*
X0021977948Y0150039508D01*
X0021955098Y0150074084D01*
X0021914260Y0150148838D01*
X0021879256Y0150230317D01*
X0021850086Y0150318519D01*
X0021826749Y0150413445D01*
X0021809247Y0150515095D01*
X0021797579Y0150623470D01*
X0021791745Y0150738568D01*
X0021791259Y0150798918D01*
X0021791259Y0150798918D01*
X0021791605Y0150844379D01*
X0021795758Y0150935053D01*
X0021804064Y0151025431D01*
X0021816523Y0151115512D01*
X0021833136Y0151205296D01*
X0021853901Y0151294784D01*
X0021878819Y0151383975D01*
X0021907890Y0151472869D01*
X0021924156Y0151517193D01*
X0021924156Y0151517193D01*
X0021958336Y0151605890D01*
X0022036255Y0151776361D01*
X0022125644Y0151938527D01*
X0022226503Y0152092387D01*
X0022281712Y0152165855D01*
X0022281712Y0152165855D01*
X0022338371Y0152237413D01*
X0022456633Y0152368332D01*
X0022580828Y0152484616D01*
X0022678053Y0152561769D01*
X0022744600Y0152608935D01*
X0022778492Y0152630994D01*
X0022778492Y0152630994D01*
X0022812911Y0152652682D01*
X0022881831Y0152691444D01*
X0022950851Y0152724668D01*
X0023019969Y0152752354D01*
X0023089186Y0152774504D01*
X0023158502Y0152791116D01*
X0023227917Y0152802190D01*
X0023297430Y0152807728D01*
X0023332228Y0152808189D01*
X0023332228Y0152808189D01*
X0023360401Y0152807835D01*
X0023413698Y0152803583D01*
X0023463337Y0152795079D01*
X0023509317Y0152782323D01*
X0023551638Y0152765316D01*
X0023590301Y0152744056D01*
X0023625305Y0152718545D01*
X0023656650Y0152688782D01*
X0023670799Y0152672128D01*
X0023670799Y0152672128D01*
X0023697661Y0152638080D01*
X0023743147Y0152561744D01*
X0023778744Y0152475519D01*
X0023804453Y0152379406D01*
X0023813188Y0152327230D01*
X0023813188Y0152327230D01*
X0023821526Y0152274032D01*
X0023834578Y0152165658D01*
X0023843279Y0152054910D01*
X0023847630Y0151941790D01*
X0023847992Y0151884241D01*
X0023847992Y0151884241D01*
X0023847564Y0151831735D01*
X0023842422Y0151723756D01*
X0023832139Y0151612218D01*
X0023816714Y0151497120D01*
X0023806859Y0151438088D01*
X0023806859Y0151438088D01*
X0023796970Y0151378759D01*
X0023773238Y0151260101D01*
X0023744760Y0151141443D01*
X0023711536Y0151022785D01*
X0023692947Y0150963456D01*
X0023692947Y0150963456D01*
X0023673599Y0150904358D01*
X0023631278Y0150788469D01*
X0023584606Y0150675349D01*
X0023533583Y0150564997D01*
X0023506259Y0150510975D01*
X0023506259Y0150510975D01*
X0023479001Y0150458436D01*
X0023420858Y0150357973D01*
X0023358365Y0150263046D01*
X0023291522Y0150173657D01*
X0023256287Y0150131270D01*
X0023256287Y0150131270D01*
X0023221184Y0150090070D01*
X0023148011Y0150014920D01*
X0023071279Y0149948472D01*
X0022990987Y0149890725D01*
X0022949358Y0149865477D01*
X0022949358Y0149865477D01*
X0022907927Y0149842734D01*
X0022822098Y0149807137D01*
X0022732709Y0149783405D01*
X0022639761Y0149771539D01*
X0022591803Y0149770551D01*
X0022591804Y0149770551D01*
X0022702551Y0149827509D02*
X0022702551Y0149827509D01*
X0022726225Y0149827847D01*
X0022772996Y0149831901D01*
X0022819075Y0149840010D01*
X0022864461Y0149852172D01*
X0022909156Y0149868389D01*
X0022953158Y0149888659D01*
X0022996468Y0149912984D01*
X0023039086Y0149941363D01*
X0023060106Y0149957242D01*
X0023060106Y0149957242D01*
X0023102527Y0149991356D01*
X0023184401Y0150068483D01*
X0023262715Y0150156290D01*
X0023337469Y0150254776D01*
X0023373363Y0150308469D01*
X0023373363Y0150308469D01*
X0023408532Y0150364337D01*
X0023474585Y0150481017D01*
X0023535496Y0150603630D01*
X0023591265Y0150732176D01*
X0023617007Y0150798921D01*
X0023617007Y0150798921D01*
X0023642617Y0150867050D01*
X0023688894Y0151004298D01*
X0023729237Y0151142731D01*
X0023763648Y0151282352D01*
X0023778382Y0151352657D01*
X0023778382Y0151352657D01*
X0023792028Y0151422731D01*
X0023813387Y0151559583D01*
X0023827627Y0151692480D01*
X0023834747Y0151821421D01*
X0023835340Y0151884244D01*
X0023835340Y0151884244D01*
X0023834945Y0151945485D01*
X0023830198Y0152063351D01*
X0023820705Y0152175681D01*
X0023806465Y0152282473D01*
X0023797368Y0152333561D01*
X0023797368Y0152333561D01*
X0023788007Y0152383332D01*
X0023762694Y0152474303D01*
X0023729470Y0152554990D01*
X0023688335Y0152625394D01*
X0023664471Y0152656311D01*
X0023664471Y0152656311D01*
X0023652391Y0152671027D01*
X0023626089Y0152697330D01*
X0023597215Y0152719875D01*
X0023565771Y0152738662D01*
X0023531756Y0152753692D01*
X0023495170Y0152764965D01*
X0023456013Y0152772480D01*
X0023414285Y0152776237D01*
X0023392350Y0152776550D01*
X0023392350Y0152776550D01*
X0023371791Y0152776163D01*
X0023330755Y0152771516D01*
X0023289818Y0152762221D01*
X0023248980Y0152748279D01*
X0023208241Y0152729689D01*
X0023167600Y0152706452D01*
X0023106813Y0152663463D01*
X0023066436Y0152627833D01*
X0023066436Y0152627833D01*
X0023026291Y0152590423D01*
X0022947976Y0152505385D01*
X0022872035Y0152408085D01*
X0022798467Y0152298524D01*
X0022762672Y0152238635D01*
X0022762672Y0152238635D01*
X0022727405Y0152177955D01*
X0022660165Y0152050991D01*
X0022596881Y0151917303D01*
X0022537552Y0151776891D01*
X0022509536Y0151703884D01*
X0022509536Y0151703884D01*
X0022482343Y0151631074D01*
X0022432903Y0151485125D01*
X0022389395Y0151338781D01*
X0022351820Y0151192041D01*
X0022335504Y0151118506D01*
X0022335504Y0151118506D01*
X0022320343Y0151045432D01*
X0022296613Y0150904230D01*
X0022280793Y0150768960D01*
X0022272883Y0150639623D01*
X0022272224Y0150577426D01*
X0022272224Y0150577426D01*
X0022272529Y0150529700D01*
X0022276188Y0150439520D01*
X0022283505Y0150355668D01*
X0022294481Y0150278145D01*
X0022309115Y0150206950D01*
X0022327408Y0150142084D01*
X0022349360Y0150083546D01*
X0022374970Y0150031337D01*
X0022389299Y0150007869D01*
X0022389299Y0150007869D01*
X0022404519Y0149985794D01*
X0022436853Y0149946340D01*
X0022471462Y0149912523D01*
X0022508345Y0149884341D01*
X0022547502Y0149861796D01*
X0022588933Y0149844888D01*
X0022632639Y0149833615D01*
X0022678619Y0149827979D01*
X0022702556Y0149827509D01*
X0022702551Y0149827509D01*
X0023968234Y0149770551D02*
X0023968234Y0149770551D01*
X0023940852Y0149770864D01*
X0023889137Y0149774621D01*
X0023841081Y0149782136D01*
X0023796683Y0149793409D01*
X0023755944Y0149808439D01*
X0023718863Y0149827226D01*
X0023685441Y0149849771D01*
X0023655678Y0149876074D01*
X0023642321Y0149890791D01*
X0023642321Y0149890791D01*
X0023629540Y0149906002D01*
X0023606699Y0149938237D01*
X0023587120Y0149972648D01*
X0023570805Y0150009234D01*
X0023552042Y0150067920D01*
X0023538990Y0150154145D01*
X0023537902Y0150200883D01*
X0023537902Y0150200883D01*
X0023538429Y0150252564D01*
X0023541063Y0150295809D01*
X0023541063Y0150295809D01*
X0023544752Y0150338000D01*
X0023550552Y0150371750D01*
X0023623329Y0150773604D01*
X0023765718Y0151241907D01*
X0023847988Y0151748180D01*
X0024088468Y0152744905D01*
X0024623218Y0152744905D01*
X0023898615Y0150023687D01*
X0023898615Y0150023687D01*
X0023892814Y0149999692D01*
X0023886485Y0149949065D01*
X0023885958Y0149922433D01*
X0023885958Y0149922433D01*
X0023886254Y0149909183D01*
X0023889814Y0149884660D01*
X0023896933Y0149862511D01*
X0023907611Y0149842734D01*
X0023914433Y0149833835D01*
X0023914433Y0149833835D01*
X0023922740Y0149824737D01*
X0023943308Y0149810497D01*
X0023968621Y0149801004D01*
X0023998681Y0149796258D01*
X0024015688Y0149795862D01*
X0024015688Y0149795862D01*
X0024061206Y0149796917D01*
X0024148618Y0149809574D01*
X0024231678Y0149834888D01*
X0024310388Y0149872858D01*
X0024347930Y0149897117D01*
X0024347930Y0149897117D01*
X0024385735Y0149924441D01*
X0024459699Y0149991285D01*
X0024531684Y0150072763D01*
X0024601692Y0150168876D01*
X0024635872Y0150223030D01*
X0024635872Y0150223030D01*
X0024669855Y0150280579D01*
X0024737490Y0150409521D01*
X0024804729Y0150555074D01*
X0024871573Y0150717240D01*
X0024904830Y0150805244D01*
X0024914320Y0150802083D01*
X0024914320Y0150802083D01*
X0024880271Y0150712530D01*
X0024811845Y0150547595D01*
X0024743024Y0150399669D01*
X0024673807Y0150268750D01*
X0024639033Y0150210377D01*
X0024639033Y0150210377D01*
X0024604754Y0150154673D01*
X0024533560Y0150055792D01*
X0024459201Y0149971941D01*
X0024381678Y0149903119D01*
X0024341598Y0149874971D01*
X0024341598Y0149874971D01*
X0024300727Y0149849954D01*
X0024213711Y0149810797D01*
X0024120367Y0149784692D01*
X0024020694Y0149771640D01*
X0023968221Y0149770552D01*
X0023968234Y0149770551D01*
G36*
G01*
X0026653756Y0152800972D02*
X0026782302Y0152790293D01*
X0026900168Y0152768934D01*
X0027007356Y0152736897D01*
X0027056500Y0152716428D01*
X0027104556Y0152694608D01*
X0027190781Y0152646354D01*
X0027265140Y0152592563D01*
X0027327633Y0152533234D01*
X0027353935Y0152501262D01*
X0027378952Y0152468796D01*
X0027418110Y0152403534D01*
X0027444214Y0152337877D01*
X0027457267Y0152271824D01*
X0027458355Y0152238633D01*
X0027457432Y0152196872D01*
X0027446357Y0152122909D01*
X0027424207Y0152060415D01*
X0027399981Y0152021431D01*
X0027380600Y0151998787D01*
X0027369756Y0151988660D01*
X0027348134Y0151970466D01*
X0027302254Y0151941988D01*
X0027253208Y0151923003D01*
X0027200999Y0151913511D01*
X0027173576Y0151912720D01*
X0027144571Y0151913478D01*
X0027089197Y0151922575D01*
X0027036987Y0151940769D01*
X0026987942Y0151968060D01*
X0026964738Y0151985496D01*
X0026943511Y0152005305D01*
X0026910287Y0152053164D01*
X0026888138Y0152110911D01*
X0026877063Y0152178546D01*
X0026876140Y0152216483D01*
X0026876997Y0152246939D01*
X0026887281Y0152303895D01*
X0026907848Y0152356104D01*
X0026938699Y0152403567D01*
X0026958410Y0152425321D01*
X0026980230Y0152446548D01*
X0027028484Y0152479772D01*
X0027082275Y0152501921D01*
X0027141604Y0152512996D01*
X0027173576Y0152513919D01*
X0027206174Y0152513095D01*
X0027265107Y0152503207D01*
X0027316525Y0152483430D01*
X0027360428Y0152453766D01*
X0027379249Y0152434814D01*
X0027396685Y0152415367D01*
X0027406832Y0152399190D01*
X0027406679Y0152399579D01*
X0027368708Y0152463259D01*
X0027344449Y0152494934D01*
X0027318938Y0152526114D01*
X0027258027Y0152583861D01*
X0027185250Y0152636070D01*
X0027100608Y0152682742D01*
X0027053342Y0152703771D01*
X0027004956Y0152724240D01*
X0026898955Y0152756277D01*
X0026781880Y0152777636D01*
X0026653729Y0152788315D01*
X0026585039Y0152789205D01*
X0026544531Y0152788711D01*
X0026461866Y0152782778D01*
X0026377223Y0152770912D01*
X0026290604Y0152753114D01*
X0026246470Y0152741743D01*
X0026203489Y0152729251D01*
X0026122802Y0152698005D01*
X0026048443Y0152659244D01*
X0025980412Y0152612967D01*
X0025949034Y0152586697D01*
X0025934317Y0152573043D01*
X0025908015Y0152543676D01*
X0025885470Y0152511836D01*
X0025866682Y0152477524D01*
X0025851652Y0152440740D01*
X0025840380Y0152401484D01*
X0025832865Y0152359756D01*
X0025829107Y0152315556D01*
X0025828794Y0152292426D01*
X0025829882Y0152253269D01*
X0025842934Y0152178910D01*
X0025869039Y0152109297D01*
X0025908196Y0152044431D01*
X0025933213Y0152013975D01*
X0025960735Y0151984080D01*
X0026022041Y0151925938D01*
X0026090863Y0151869773D01*
X0026167199Y0151815586D01*
X0026208499Y0151789317D01*
X0026379366Y0151687535D01*
X0026562890Y0151583643D01*
X0026610122Y0151557308D01*
X0026702280Y0151502330D01*
X0026791669Y0151444583D01*
X0026878289Y0151384067D01*
X0026920446Y0151352656D01*
X0026961712Y0151320619D01*
X0027037653Y0151252588D01*
X0027105683Y0151179811D01*
X0027165803Y0151102288D01*
X0027192567Y0151061549D01*
X0027205735Y0151040817D01*
X0027229269Y0150997705D01*
X0027249440Y0150952615D01*
X0027266250Y0150905547D01*
X0027285581Y0150831485D01*
X0027299029Y0150725484D01*
X0027300150Y0150669187D01*
X0027299722Y0150634192D01*
X0027294580Y0150566260D01*
X0027284296Y0150500801D01*
X0027268871Y0150437813D01*
X0027248303Y0150377298D01*
X0027222594Y0150319254D01*
X0027191743Y0150263683D01*
X0027155751Y0150210583D01*
X0027135612Y0150185064D01*
X0027114805Y0150160385D01*
X0027070803Y0150113416D01*
X0027023933Y0150069315D01*
X0026974196Y0150028081D01*
X0026921591Y0149989715D01*
X0026866118Y0149954217D01*
X0026807778Y0149921586D01*
X0026746571Y0149891823D01*
X0026714772Y0149878136D01*
X0026650499Y0149852361D01*
X0026519976Y0149812017D01*
X0026387079Y0149785121D01*
X0026251809Y0149771673D01*
X0026183185Y0149770553D01*
X0026183184Y0149770551D01*
X0026116999Y0149771408D01*
X0025987267Y0149781691D01*
X0025860698Y0149802259D01*
X0025737294Y0149833110D01*
X0025676911Y0149852820D01*
X0025618472Y0149874970D01*
X0025510493Y0149927179D01*
X0025413194Y0149988881D01*
X0025326574Y0150060075D01*
X0025287713Y0150099628D01*
X0025269124Y0150120377D01*
X0025235899Y0150163687D01*
X0025207421Y0150209172D01*
X0025183690Y0150256833D01*
X0025164705Y0150306669D01*
X0025150466Y0150358681D01*
X0025140973Y0150412868D01*
X0025136227Y0150469231D01*
X0025135831Y0150498318D01*
X0025136688Y0150532729D01*
X0025146972Y0150597595D01*
X0025167539Y0150657715D01*
X0025198390Y0150713089D01*
X0025218101Y0150738798D01*
X0025240118Y0150763815D01*
X0025277594Y0150793998D01*
X0025304886Y0150810314D01*
X0025349284Y0150829077D01*
X0025415732Y0150842129D01*
X0025452252Y0150843217D01*
X0025484191Y0150842261D01*
X0025543124Y0150830791D01*
X0025596125Y0150807850D01*
X0025643192Y0150773439D01*
X0025664254Y0150751455D01*
X0025683964Y0150728778D01*
X0025714815Y0150678151D01*
X0025735383Y0150621195D01*
X0025745666Y0150557911D01*
X0025746523Y0150523632D01*
X0025745568Y0150487969D01*
X0025734097Y0150423894D01*
X0025711157Y0150368520D01*
X0025676746Y0150321848D01*
X0025654762Y0150302137D01*
X0025631524Y0150283943D01*
X0025582083Y0150255465D01*
X0025529083Y0150236480D01*
X0025472522Y0150226987D01*
X0025442759Y0150226196D01*
X0025402152Y0150227383D01*
X0025344801Y0150237171D01*
X0025308413Y0150247850D01*
X0025290878Y0150254672D01*
X0025274529Y0150262121D01*
X0025244469Y0150280314D01*
X0025217574Y0150302464D01*
X0025193842Y0150328569D01*
X0025183295Y0150343270D01*
X0025173440Y0150358662D01*
X0025158015Y0150393073D01*
X0025154964Y0150404572D01*
X0025162813Y0150358984D01*
X0025176755Y0150307269D01*
X0025195345Y0150257828D01*
X0025218582Y0150210662D01*
X0025246466Y0150165769D01*
X0025278998Y0150123151D01*
X0025297201Y0150102790D01*
X0025335303Y0150064029D01*
X0025420737Y0149994416D01*
X0025517245Y0149934296D01*
X0025624828Y0149883669D01*
X0025683234Y0149862310D01*
X0025742794Y0149843358D01*
X0025864220Y0149813694D01*
X0025988415Y0149793918D01*
X0026115379Y0149784029D01*
X0026180015Y0149783205D01*
X0026224479Y0149783799D01*
X0026315054Y0149790919D01*
X0026407607Y0149805158D01*
X0026502137Y0149826518D01*
X0026550227Y0149840164D01*
X0026598646Y0149855129D01*
X0026689221Y0149892309D01*
X0026772281Y0149938190D01*
X0026847827Y0149992772D01*
X0026882468Y0150023688D01*
X0026899509Y0150039723D01*
X0026929965Y0150073936D01*
X0026956069Y0150110720D01*
X0026977823Y0150150075D01*
X0026995226Y0150192001D01*
X0027008279Y0150236497D01*
X0027016980Y0150283565D01*
X0027021331Y0150333203D01*
X0027021694Y0150359094D01*
X0027020573Y0150402964D01*
X0027007125Y0150486420D01*
X0026980229Y0150564734D01*
X0026939886Y0150637907D01*
X0026914111Y0150672350D01*
X0026886556Y0150706135D01*
X0026824854Y0150771397D01*
X0026755241Y0150833890D01*
X0026677718Y0150893614D01*
X0026635661Y0150922322D01*
X0026549304Y0150979015D01*
X0026367362Y0151089762D01*
X0026271777Y0151143817D01*
X0026176191Y0151199587D01*
X0025994249Y0151315080D01*
X0025907893Y0151374804D01*
X0025865835Y0151405919D01*
X0025788312Y0151470785D01*
X0025718699Y0151538816D01*
X0025656997Y0151610011D01*
X0025629442Y0151646926D01*
X0025603667Y0151685391D01*
X0025563324Y0151767265D01*
X0025536428Y0151855072D01*
X0025522980Y0151948811D01*
X0025521859Y0151998153D01*
X0025522214Y0152027282D01*
X0025526466Y0152084139D01*
X0025534969Y0152139315D01*
X0025547725Y0152192810D01*
X0025564733Y0152244624D01*
X0025585992Y0152294756D01*
X0025611504Y0152343208D01*
X0025641267Y0152389979D01*
X0025657920Y0152412664D01*
X0025675200Y0152435391D01*
X0025712478Y0152478701D01*
X0025753020Y0152519440D01*
X0025796824Y0152557608D01*
X0025843892Y0152593205D01*
X0025894222Y0152626232D01*
X0025975429Y0152671272D01*
X0026034461Y0152697443D01*
X0026064702Y0152710224D01*
X0026126997Y0152733065D01*
X0026224247Y0152761617D01*
X0026361890Y0152787722D01*
X0026508235Y0152800774D01*
X0026585033Y0152801862D01*
G37*
X0026183184Y0149770551D02*
X0026183184Y0149770551D01*
X0026116999Y0149771408D01*
X0025987267Y0149781691D01*
X0025860698Y0149802259D01*
X0025737294Y0149833110D01*
X0025676911Y0149852820D01*
X0025676911Y0149852820D01*
X0025618472Y0149874970D01*
X0025510493Y0149927179D01*
X0025413194Y0149988881D01*
X0025326574Y0150060075D01*
X0025287713Y0150099628D01*
X0025287713Y0150099628D01*
X0025269124Y0150120377D01*
X0025235899Y0150163687D01*
X0025207421Y0150209172D01*
X0025183690Y0150256833D01*
X0025164705Y0150306669D01*
X0025150466Y0150358681D01*
X0025140973Y0150412868D01*
X0025136227Y0150469231D01*
X0025135831Y0150498318D01*
X0025135831Y0150498318D01*
X0025136688Y0150532729D01*
X0025146972Y0150597595D01*
X0025167539Y0150657715D01*
X0025198390Y0150713089D01*
X0025218101Y0150738798D01*
X0025218101Y0150738798D01*
X0025240118Y0150763815D01*
X0025277594Y0150793998D01*
X0025304886Y0150810314D01*
X0025349284Y0150829077D01*
X0025415732Y0150842129D01*
X0025452252Y0150843217D01*
X0025452252Y0150843217D01*
X0025484191Y0150842261D01*
X0025543124Y0150830791D01*
X0025596125Y0150807850D01*
X0025643192Y0150773439D01*
X0025664254Y0150751455D01*
X0025664254Y0150751455D01*
X0025683964Y0150728778D01*
X0025714815Y0150678151D01*
X0025735383Y0150621195D01*
X0025745666Y0150557911D01*
X0025746523Y0150523632D01*
X0025746523Y0150523632D01*
X0025745568Y0150487969D01*
X0025734097Y0150423894D01*
X0025711157Y0150368520D01*
X0025676746Y0150321848D01*
X0025654762Y0150302137D01*
X0025654762Y0150302137D01*
X0025631524Y0150283943D01*
X0025582083Y0150255465D01*
X0025529083Y0150236480D01*
X0025472522Y0150226987D01*
X0025442759Y0150226196D01*
X0025442759Y0150226196D01*
X0025402152Y0150227383D01*
X0025344801Y0150237171D01*
X0025308413Y0150247850D01*
X0025290878Y0150254672D01*
X0025290878Y0150254672D01*
X0025274529Y0150262121D01*
X0025244469Y0150280314D01*
X0025217574Y0150302464D01*
X0025193842Y0150328569D01*
X0025183295Y0150343270D01*
X0025183295Y0150343270D01*
X0025173440Y0150358662D01*
X0025158015Y0150393073D01*
X0025147731Y0150431835D01*
X0025142590Y0150474947D01*
X0025142161Y0150498316D01*
X0025148483Y0150498316D01*
X0025148483Y0150498316D01*
X0025148870Y0150469237D01*
X0025153518Y0150412973D01*
X0025162813Y0150358984D01*
X0025176755Y0150307269D01*
X0025195345Y0150257828D01*
X0025218582Y0150210662D01*
X0025246466Y0150165769D01*
X0025278998Y0150123151D01*
X0025297201Y0150102790D01*
X0025297201Y0150102790D01*
X0025335303Y0150064029D01*
X0025420737Y0149994416D01*
X0025517245Y0149934296D01*
X0025624828Y0149883669D01*
X0025683234Y0149862310D01*
X0025683234Y0149862310D01*
X0025742794Y0149843358D01*
X0025864220Y0149813694D01*
X0025988415Y0149793918D01*
X0026115379Y0149784029D01*
X0026180015Y0149783205D01*
X0026180015Y0149783205D01*
X0026224479Y0149783799D01*
X0026315054Y0149790919D01*
X0026407607Y0149805158D01*
X0026502137Y0149826518D01*
X0026550227Y0149840164D01*
X0026550227Y0149840164D01*
X0026598646Y0149855129D01*
X0026689221Y0149892309D01*
X0026772281Y0149938190D01*
X0026847827Y0149992772D01*
X0026882468Y0150023688D01*
X0026882468Y0150023688D01*
X0026899509Y0150039723D01*
X0026929965Y0150073936D01*
X0026956069Y0150110720D01*
X0026977823Y0150150075D01*
X0026995226Y0150192001D01*
X0027008279Y0150236497D01*
X0027016980Y0150283565D01*
X0027021331Y0150333203D01*
X0027021694Y0150359094D01*
X0027021694Y0150359094D01*
X0027020573Y0150402964D01*
X0027007125Y0150486420D01*
X0026980229Y0150564734D01*
X0026939886Y0150637907D01*
X0026914111Y0150672350D01*
X0026914111Y0150672350D01*
X0026886556Y0150706135D01*
X0026824854Y0150771397D01*
X0026755241Y0150833890D01*
X0026677718Y0150893614D01*
X0026635661Y0150922322D01*
X0026635661Y0150922322D01*
X0026549304Y0150979015D01*
X0026367362Y0151089762D01*
X0026271777Y0151143817D01*
X0026271777Y0151143817D01*
X0026176191Y0151199587D01*
X0025994249Y0151315080D01*
X0025907893Y0151374804D01*
X0025907893Y0151374804D01*
X0025865835Y0151405919D01*
X0025788312Y0151470785D01*
X0025718699Y0151538816D01*
X0025656997Y0151610011D01*
X0025629442Y0151646926D01*
X0025629442Y0151646926D01*
X0025603667Y0151685391D01*
X0025563324Y0151767265D01*
X0025536428Y0151855072D01*
X0025522980Y0151948811D01*
X0025521859Y0151998153D01*
X0025521859Y0151998153D01*
X0025522214Y0152027282D01*
X0025526466Y0152084139D01*
X0025534969Y0152139315D01*
X0025547725Y0152192810D01*
X0025564733Y0152244624D01*
X0025585992Y0152294756D01*
X0025611504Y0152343208D01*
X0025641267Y0152389979D01*
X0025657920Y0152412664D01*
X0025657920Y0152412664D01*
X0025675200Y0152435391D01*
X0025712478Y0152478701D01*
X0025753020Y0152519440D01*
X0025796824Y0152557608D01*
X0025843892Y0152593205D01*
X0025894222Y0152626232D01*
X0025975429Y0152671272D01*
X0026034461Y0152697443D01*
X0026034461Y0152697443D01*
X0026064702Y0152710224D01*
X0026126997Y0152733065D01*
X0026224247Y0152761617D01*
X0026361890Y0152787722D01*
X0026508235Y0152800774D01*
X0026585033Y0152801862D01*
X0026585033Y0152801862D01*
X0026653756Y0152800972D01*
X0026782302Y0152790293D01*
X0026900168Y0152768934D01*
X0027007356Y0152736897D01*
X0027056500Y0152716428D01*
X0027056500Y0152716428D01*
X0027104556Y0152694608D01*
X0027190781Y0152646354D01*
X0027265140Y0152592563D01*
X0027327633Y0152533234D01*
X0027353935Y0152501262D01*
X0027353935Y0152501262D01*
X0027378952Y0152468796D01*
X0027418110Y0152403534D01*
X0027444214Y0152337877D01*
X0027457267Y0152271824D01*
X0027458355Y0152238633D01*
X0027458355Y0152238633D01*
X0027457432Y0152196872D01*
X0027446357Y0152122909D01*
X0027424207Y0152060415D01*
X0027399981Y0152021431D01*
X0027380600Y0151998787D01*
X0027369756Y0151988660D01*
X0027369756Y0151988660D01*
X0027348134Y0151970466D01*
X0027302254Y0151941988D01*
X0027253208Y0151923003D01*
X0027200999Y0151913511D01*
X0027173576Y0151912720D01*
X0027173576Y0151912720D01*
X0027144571Y0151913478D01*
X0027089197Y0151922575D01*
X0027036987Y0151940769D01*
X0026987942Y0151968060D01*
X0026964738Y0151985496D01*
X0026964738Y0151985496D01*
X0026943511Y0152005305D01*
X0026910287Y0152053164D01*
X0026888138Y0152110911D01*
X0026877063Y0152178546D01*
X0026876140Y0152216483D01*
X0026876140Y0152216483D01*
X0026876997Y0152246939D01*
X0026887281Y0152303895D01*
X0026907848Y0152356104D01*
X0026938699Y0152403567D01*
X0026958410Y0152425321D01*
X0026958410Y0152425321D01*
X0026980230Y0152446548D01*
X0027028484Y0152479772D01*
X0027082275Y0152501921D01*
X0027141604Y0152512996D01*
X0027173576Y0152513919D01*
X0027173576Y0152513919D01*
X0027206174Y0152513095D01*
X0027265107Y0152503207D01*
X0027316525Y0152483430D01*
X0027360428Y0152453766D01*
X0027379249Y0152434814D01*
X0027379249Y0152434814D01*
X0027396685Y0152415367D01*
X0027423976Y0152371859D01*
X0027442171Y0152322814D01*
X0027451268Y0152268232D01*
X0027452026Y0152238633D01*
X0027445704Y0152238633D01*
X0027445704Y0152238633D01*
X0027444649Y0152271033D01*
X0027431993Y0152335504D01*
X0027406679Y0152399579D01*
X0027368708Y0152463259D01*
X0027344449Y0152494934D01*
X0027344449Y0152494934D01*
X0027318938Y0152526114D01*
X0027258027Y0152583861D01*
X0027185250Y0152636070D01*
X0027100608Y0152682742D01*
X0027053342Y0152703771D01*
X0027053342Y0152703771D01*
X0027004956Y0152724240D01*
X0026898955Y0152756277D01*
X0026781880Y0152777636D01*
X0026653729Y0152788315D01*
X0026585039Y0152789205D01*
X0026585039Y0152789205D01*
X0026544531Y0152788711D01*
X0026461866Y0152782778D01*
X0026377223Y0152770912D01*
X0026290604Y0152753114D01*
X0026246470Y0152741743D01*
X0026246470Y0152741743D01*
X0026203489Y0152729251D01*
X0026122802Y0152698005D01*
X0026048443Y0152659244D01*
X0025980412Y0152612967D01*
X0025949034Y0152586697D01*
X0025949034Y0152586697D01*
X0025934317Y0152573043D01*
X0025908015Y0152543676D01*
X0025885470Y0152511836D01*
X0025866682Y0152477524D01*
X0025851652Y0152440740D01*
X0025840380Y0152401484D01*
X0025832865Y0152359756D01*
X0025829107Y0152315556D01*
X0025828794Y0152292426D01*
X0025828794Y0152292426D01*
X0025829882Y0152253269D01*
X0025842934Y0152178910D01*
X0025869039Y0152109297D01*
X0025908196Y0152044431D01*
X0025933213Y0152013975D01*
X0025933213Y0152013975D01*
X0025960735Y0151984080D01*
X0026022041Y0151925938D01*
X0026090863Y0151869773D01*
X0026167199Y0151815586D01*
X0026208499Y0151789317D01*
X0026208499Y0151789317D01*
X0026379366Y0151687535D01*
X0026562890Y0151583643D01*
X0026562890Y0151583643D01*
X0026610122Y0151557308D01*
X0026702280Y0151502330D01*
X0026791669Y0151444583D01*
X0026878289Y0151384067D01*
X0026920446Y0151352656D01*
X0026920446Y0151352656D01*
X0026961712Y0151320619D01*
X0027037653Y0151252588D01*
X0027105683Y0151179811D01*
X0027165803Y0151102288D01*
X0027192567Y0151061549D01*
X0027192567Y0151061549D01*
X0027205735Y0151040817D01*
X0027229269Y0150997705D01*
X0027249440Y0150952615D01*
X0027266250Y0150905547D01*
X0027285581Y0150831485D01*
X0027299029Y0150725484D01*
X0027300150Y0150669187D01*
X0027300150Y0150669187D01*
X0027299722Y0150634192D01*
X0027294580Y0150566260D01*
X0027284296Y0150500801D01*
X0027268871Y0150437813D01*
X0027248303Y0150377298D01*
X0027222594Y0150319254D01*
X0027191743Y0150263683D01*
X0027155751Y0150210583D01*
X0027135612Y0150185064D01*
X0027135612Y0150185064D01*
X0027114805Y0150160385D01*
X0027070803Y0150113416D01*
X0027023933Y0150069315D01*
X0026974196Y0150028081D01*
X0026921591Y0149989715D01*
X0026866118Y0149954217D01*
X0026807778Y0149921586D01*
X0026746571Y0149891823D01*
X0026714772Y0149878136D01*
X0026714772Y0149878136D01*
X0026650499Y0149852361D01*
X0026519976Y0149812017D01*
X0026387079Y0149785121D01*
X0026251809Y0149771673D01*
X0026183185Y0149770553D01*
X0026183184Y0149770551D01*
G36*
G01*
X0029078380Y0152744906D02*
X0029647988Y0152744906D01*
X0029647988Y0152732248D01*
X0029074898Y0152732248D01*
X0028341164Y0150064818D01*
X0028331673Y0150031066D01*
X0028322178Y0149988878D01*
X0028317828Y0149968179D01*
X0028313083Y0149925462D01*
X0028312688Y0149903444D01*
X0028313199Y0149889502D01*
X0028319330Y0149864583D01*
X0028331591Y0149843225D01*
X0028349983Y0149825427D01*
X0028374506Y0149811188D01*
X0028405159Y0149800509D01*
X0028441943Y0149793389D01*
X0028484857Y0149789829D01*
X0028508869Y0149789533D01*
X0028551388Y0149790258D01*
X0028634449Y0149798959D01*
X0028715136Y0149816361D01*
X0028793450Y0149842465D01*
X0028831618Y0149859142D01*
X0028870149Y0149877995D01*
X0028944903Y0149922294D01*
X0029016889Y0149974504D01*
X0029086106Y0150034624D01*
X0029119561Y0150067980D01*
X0029153378Y0150103413D01*
X0029219036Y0150180540D01*
X0029282320Y0150265183D01*
X0029343231Y0150357340D01*
X0029372698Y0150406550D01*
X0029402560Y0150457771D01*
X0029460307Y0150566145D01*
X0029515680Y0150681638D01*
X0029568681Y0150804251D01*
X0029594192Y0150868524D01*
X0029603682Y0150865363D01*
X0029569337Y0150779402D01*
X0029497351Y0150618027D01*
X0029421410Y0150469309D01*
X0029341514Y0150333249D01*
X0029299918Y0150270492D01*
X0029258355Y0150210768D01*
X0029170943Y0150103185D01*
X0029078390Y0150009840D01*
X0028980695Y0149930735D01*
X0028929705Y0149897116D01*
X0028904268Y0149881624D01*
X0028852158Y0149853937D01*
X0028798564Y0149830206D01*
X0028743487Y0149810429D01*
X0028686927Y0149794608D01*
X0028628883Y0149782743D01*
X0028569357Y0149774832D01*
X0028508347Y0149770877D01*
X0028477224Y0149770547D01*
X0028477232Y0149770551D01*
X0028428945Y0149771210D01*
X0028339952Y0149779120D01*
X0028260055Y0149794940D01*
X0028189256Y0149818670D01*
X0028157647Y0149833831D01*
X0028127455Y0149849257D01*
X0028073664Y0149884063D01*
X0028027783Y0149923615D01*
X0027989812Y0149967914D01*
X0027974123Y0149992041D01*
X0027960476Y0150017421D01*
X0027939117Y0150068839D01*
X0027924877Y0150121049D01*
X0027917757Y0150174049D01*
X0027917164Y0150200879D01*
X0027917823Y0150227908D01*
X0027925732Y0150299103D01*
X0027932982Y0150343268D01*
X0027941287Y0150389281D01*
X0027961854Y0150482626D01*
X0027974116Y0150529957D01*
X0028571182Y0152732248D01*
X0027939317Y0152732248D01*
X0027939317Y0152744906D01*
X0028574613Y0152744906D01*
X0028746182Y0153377743D01*
X0029252455Y0153377743D01*
G37*
X0028477232Y0149770551D02*
X0028477232Y0149770551D01*
X0028428945Y0149771210D01*
X0028339952Y0149779120D01*
X0028260055Y0149794940D01*
X0028189256Y0149818670D01*
X0028157647Y0149833831D01*
X0028157647Y0149833831D01*
X0028127455Y0149849257D01*
X0028073664Y0149884063D01*
X0028027783Y0149923615D01*
X0027989812Y0149967914D01*
X0027974123Y0149992041D01*
X0027974123Y0149992041D01*
X0027960476Y0150017421D01*
X0027939117Y0150068839D01*
X0027924877Y0150121049D01*
X0027917757Y0150174049D01*
X0027917164Y0150200879D01*
X0027917164Y0150200879D01*
X0027917823Y0150227908D01*
X0027925732Y0150299103D01*
X0027932982Y0150343268D01*
X0027932982Y0150343268D01*
X0027941287Y0150389281D01*
X0027961854Y0150482626D01*
X0027974116Y0150529957D01*
X0028746182Y0153377743D01*
X0029252455Y0153377743D01*
X0028341164Y0150064818D01*
X0028341164Y0150064818D01*
X0028331673Y0150031066D01*
X0028322178Y0149988878D01*
X0028322178Y0149988878D01*
X0028317828Y0149968179D01*
X0028313083Y0149925462D01*
X0028312688Y0149903444D01*
X0028312688Y0149903444D01*
X0028313199Y0149889502D01*
X0028319330Y0149864583D01*
X0028331591Y0149843225D01*
X0028349983Y0149825427D01*
X0028374506Y0149811188D01*
X0028405159Y0149800509D01*
X0028441943Y0149793389D01*
X0028484857Y0149789829D01*
X0028508869Y0149789533D01*
X0028508869Y0149789533D01*
X0028551388Y0149790258D01*
X0028634449Y0149798959D01*
X0028715136Y0149816361D01*
X0028793450Y0149842465D01*
X0028831618Y0149859142D01*
X0028831618Y0149859142D01*
X0028870149Y0149877995D01*
X0028944903Y0149922294D01*
X0029016889Y0149974504D01*
X0029086106Y0150034624D01*
X0029119561Y0150067980D01*
X0029119561Y0150067980D01*
X0029153378Y0150103413D01*
X0029219036Y0150180540D01*
X0029282320Y0150265183D01*
X0029343231Y0150357340D01*
X0029372698Y0150406550D01*
X0029372698Y0150406550D01*
X0029402560Y0150457771D01*
X0029460307Y0150566145D01*
X0029515680Y0150681638D01*
X0029568681Y0150804251D01*
X0029594192Y0150868524D01*
X0029603682Y0150865363D01*
X0029603682Y0150865363D01*
X0029569337Y0150779402D01*
X0029497351Y0150618027D01*
X0029421410Y0150469309D01*
X0029341514Y0150333249D01*
X0029299918Y0150270492D01*
X0029299918Y0150270492D01*
X0029258355Y0150210768D01*
X0029170943Y0150103185D01*
X0029078390Y0150009840D01*
X0028980695Y0149930735D01*
X0028929705Y0149897116D01*
X0028929705Y0149897116D01*
X0028904268Y0149881624D01*
X0028852158Y0149853937D01*
X0028798564Y0149830206D01*
X0028743487Y0149810429D01*
X0028686927Y0149794608D01*
X0028628883Y0149782743D01*
X0028569357Y0149774832D01*
X0028508347Y0149770877D01*
X0028477224Y0149770547D01*
X0028477232Y0149770551D01*
X0027939317Y0152732248D02*
X0027939317Y0152744906D01*
X0029647988Y0152744906D01*
X0029647988Y0152732248D01*
X0027939317Y0152732248D01*
G36*
G01*
X0031507911Y0152794410D02*
X0031419709Y0152780962D01*
X0031333485Y0152754066D01*
X0031249238Y0152713722D01*
X0031207938Y0152687947D01*
X0031167792Y0152660228D01*
X0031089478Y0152596548D01*
X0031013537Y0152522980D01*
X0030939969Y0152439524D01*
X0030904174Y0152393676D01*
X0030869631Y0152347235D01*
X0030803183Y0152248749D01*
X0030739899Y0152143539D01*
X0030679779Y0152031605D01*
X0030651038Y0151972836D01*
X0030622889Y0151914035D01*
X0030569889Y0151793795D01*
X0030520844Y0151670391D01*
X0030475754Y0151543823D01*
X0030454857Y0151479220D01*
X0030435443Y0151414387D01*
X0030400241Y0151285050D01*
X0030369390Y0151156108D01*
X0030365914Y0151139243D01*
X0030368137Y0151139401D01*
X0030506175Y0151152849D01*
X0030638281Y0151170251D01*
X0030764454Y0151191608D01*
X0030825068Y0151203934D01*
X0030885386Y0151217777D01*
X0031000088Y0151249419D01*
X0031107671Y0151285808D01*
X0031208135Y0151326943D01*
X0031255400Y0151349488D01*
X0031302237Y0151372890D01*
X0031389648Y0151424308D01*
X0031469545Y0151481264D01*
X0031541926Y0151543757D01*
X0031574986Y0151577311D01*
X0031607551Y0151612677D01*
X0031666088Y0151689014D01*
X0031716716Y0151772074D01*
X0031759433Y0151861859D01*
X0031777495Y0151909552D01*
X0031794172Y0151958433D01*
X0031820276Y0152062456D01*
X0031837678Y0152173995D01*
X0031846379Y0152293048D01*
X0031847104Y0152355706D01*
X0031846445Y0152395819D01*
X0031838535Y0152473737D01*
X0031822715Y0152548887D01*
X0031798985Y0152621269D01*
X0031783824Y0152656306D01*
X0031776020Y0152673346D01*
X0031757530Y0152703802D01*
X0031735578Y0152729906D01*
X0031710165Y0152751660D01*
X0031681292Y0152769063D01*
X0031648958Y0152782115D01*
X0031627696Y0152787284D01*
X0031791882Y0152792275D01*
X0031795780Y0152791725D01*
X0031866678Y0152775707D01*
X0031932731Y0152754348D01*
X0031993938Y0152727650D01*
X0032050301Y0152695613D01*
X0032101818Y0152658236D01*
X0032125558Y0152637322D01*
X0032148795Y0152616145D01*
X0032190325Y0152571648D01*
X0032225922Y0152524581D01*
X0032255587Y0152474942D01*
X0032279318Y0152422733D01*
X0032297117Y0152367952D01*
X0032308983Y0152310601D01*
X0032314916Y0152250679D01*
X0032315410Y0152219647D01*
X0032314949Y0152187379D01*
X0032309411Y0152124490D01*
X0032298336Y0152063579D01*
X0032281725Y0152004646D01*
X0032259575Y0151947690D01*
X0032231888Y0151892712D01*
X0032198664Y0151839711D01*
X0032159902Y0151788689D01*
X0032138214Y0151764001D01*
X0032115752Y0151739635D01*
X0032067695Y0151692469D01*
X0032015882Y0151647181D01*
X0031960310Y0151603772D01*
X0031870377Y0151541946D01*
X0031736690Y0151466401D01*
X0031663583Y0151431760D01*
X0031589356Y0151399129D01*
X0031434310Y0151339800D01*
X0031271353Y0151287590D01*
X0031100486Y0151242500D01*
X0031011756Y0151222922D01*
X0030923093Y0151204464D01*
X0030745106Y0151172822D01*
X0030566328Y0151147508D01*
X0030386759Y0151128523D01*
X0030363336Y0151126741D01*
X0030342890Y0151027563D01*
X0030331453Y0150963454D01*
X0030321598Y0150899709D01*
X0030306173Y0150775514D01*
X0030295890Y0150655274D01*
X0030290748Y0150538989D01*
X0030290319Y0150482495D01*
X0030290698Y0150433318D01*
X0030295247Y0150341556D01*
X0030304344Y0150257705D01*
X0030317990Y0150181764D01*
X0030336184Y0150113733D01*
X0030358927Y0150053613D01*
X0030386218Y0150001404D01*
X0030418058Y0149957105D01*
X0030435873Y0149938251D01*
X0030454652Y0149920436D01*
X0030494106Y0149888596D01*
X0030535834Y0149861305D01*
X0030579836Y0149838562D01*
X0030626113Y0149820368D01*
X0030674664Y0149806722D01*
X0030725489Y0149797625D01*
X0030778588Y0149793077D01*
X0030806085Y0149792698D01*
X0030875995Y0149793917D01*
X0030977521Y0149803979D01*
X0031043475Y0149814954D01*
X0031107946Y0149829589D01*
X0031170933Y0149847882D01*
X0031232437Y0149869834D01*
X0031292458Y0149895444D01*
X0031321851Y0149909774D01*
X0031380619Y0149939834D01*
X0031492553Y0150007864D01*
X0031597763Y0150085387D01*
X0031696249Y0150172403D01*
X0031742690Y0150219866D01*
X0031788703Y0150269340D01*
X0031874137Y0150372572D01*
X0031951660Y0150480946D01*
X0032021272Y0150594462D01*
X0032052783Y0150653362D01*
X0032062272Y0150650201D01*
X0032030729Y0150590510D01*
X0031960721Y0150475411D01*
X0031882407Y0150365455D01*
X0031795787Y0150260641D01*
X0031749016Y0150210376D01*
X0031701685Y0150161364D01*
X0031600430Y0150071579D01*
X0031491265Y0149991683D01*
X0031374189Y0149921675D01*
X0031312355Y0149890791D01*
X0031281348Y0149876074D01*
X0031217767Y0149849772D01*
X0031152307Y0149827227D01*
X0031084969Y0149808439D01*
X0031015752Y0149793409D01*
X0030944656Y0149782137D01*
X0030871682Y0149774622D01*
X0030796829Y0149770865D01*
X0030758619Y0149770551D01*
X0030758620Y0149770551D01*
X0030720897Y0149770880D01*
X0030647922Y0149774836D01*
X0030577914Y0149782746D01*
X0030510872Y0149794612D01*
X0030446797Y0149810433D01*
X0030385689Y0149830209D01*
X0030327546Y0149853941D01*
X0030272370Y0149881628D01*
X0030246018Y0149897119D01*
X0030220177Y0149913591D01*
X0030171132Y0149949090D01*
X0030125251Y0149987653D01*
X0030082534Y0150029282D01*
X0030042982Y0150073977D01*
X0030006594Y0150121737D01*
X0029973369Y0150172562D01*
X0029943309Y0150226452D01*
X0029929598Y0150254674D01*
X0029916430Y0150283342D01*
X0029892896Y0150342572D01*
X0029872725Y0150404076D01*
X0029855915Y0150467855D01*
X0029836583Y0150567502D01*
X0029823135Y0150708705D01*
X0029822015Y0150783097D01*
X0029822361Y0150828566D01*
X0029826514Y0150919339D01*
X0029834820Y0151009915D01*
X0029847279Y0151100292D01*
X0029863891Y0151190472D01*
X0029884656Y0151280454D01*
X0029909574Y0151370239D01*
X0029938645Y0151459825D01*
X0029954911Y0151504536D01*
X0029971804Y0151549453D01*
X0030008390Y0151637556D01*
X0030048338Y0151723583D01*
X0030091648Y0151807534D01*
X0030138320Y0151889407D01*
X0030188354Y0151969205D01*
X0030241750Y0152046926D01*
X0030298508Y0152122570D01*
X0030328288Y0152159527D01*
X0030358562Y0152196006D01*
X0030421253Y0152265916D01*
X0030486514Y0152332166D01*
X0030554347Y0152394758D01*
X0030624751Y0152453691D01*
X0030697725Y0152508966D01*
X0030773271Y0152560582D01*
X0030851387Y0152608540D01*
X0030891516Y0152630994D01*
X0030932396Y0152652682D01*
X0031015555Y0152691444D01*
X0031100395Y0152724668D01*
X0031186917Y0152752354D01*
X0031275119Y0152774504D01*
X0031365002Y0152791116D01*
X0031399558Y0152795295D01*
G37*
G36*
G01*
X0031639448Y0152807744D02*
X0031720036Y0152802405D01*
X0031791882Y0152792275D01*
X0031627696Y0152787284D01*
X0031613163Y0152790817D01*
X0031573907Y0152795168D01*
X0031552837Y0152795530D01*
X0031507911Y0152794410D01*
X0031399558Y0152795295D01*
X0031456567Y0152802190D01*
X0031549812Y0152807728D01*
X0031597135Y0152808189D01*
G37*
X0030758620Y0149770551D02*
X0030758620Y0149770551D01*
X0030720897Y0149770880D01*
X0030647922Y0149774836D01*
X0030577914Y0149782746D01*
X0030510872Y0149794612D01*
X0030446797Y0149810433D01*
X0030385689Y0149830209D01*
X0030327546Y0149853941D01*
X0030272370Y0149881628D01*
X0030246018Y0149897119D01*
X0030246018Y0149897119D01*
X0030220177Y0149913591D01*
X0030171132Y0149949090D01*
X0030125251Y0149987653D01*
X0030082534Y0150029282D01*
X0030042982Y0150073977D01*
X0030006594Y0150121737D01*
X0029973369Y0150172562D01*
X0029943309Y0150226452D01*
X0029929598Y0150254674D01*
X0029929598Y0150254674D01*
X0029916430Y0150283342D01*
X0029892896Y0150342572D01*
X0029872725Y0150404076D01*
X0029855915Y0150467855D01*
X0029836583Y0150567502D01*
X0029823135Y0150708705D01*
X0029822015Y0150783097D01*
X0029822015Y0150783097D01*
X0029822361Y0150828566D01*
X0029826514Y0150919339D01*
X0029834820Y0151009915D01*
X0029847279Y0151100292D01*
X0029863891Y0151190472D01*
X0029884656Y0151280454D01*
X0029909574Y0151370239D01*
X0029938645Y0151459825D01*
X0029954911Y0151504536D01*
X0029954911Y0151504536D01*
X0029971804Y0151549453D01*
X0030008390Y0151637556D01*
X0030048338Y0151723583D01*
X0030091648Y0151807534D01*
X0030138320Y0151889407D01*
X0030188354Y0151969205D01*
X0030241750Y0152046926D01*
X0030298508Y0152122570D01*
X0030328288Y0152159527D01*
X0030328288Y0152159527D01*
X0030358562Y0152196006D01*
X0030421253Y0152265916D01*
X0030486514Y0152332166D01*
X0030554347Y0152394758D01*
X0030624751Y0152453691D01*
X0030697725Y0152508966D01*
X0030773271Y0152560582D01*
X0030851387Y0152608540D01*
X0030891516Y0152630994D01*
X0030891516Y0152630994D01*
X0030932396Y0152652682D01*
X0031015555Y0152691444D01*
X0031100395Y0152724668D01*
X0031186917Y0152752354D01*
X0031275119Y0152774504D01*
X0031365002Y0152791116D01*
X0031456567Y0152802190D01*
X0031549812Y0152807728D01*
X0031597135Y0152808189D01*
X0031597135Y0152808189D01*
X0031639448Y0152807744D01*
X0031720036Y0152802405D01*
X0031795780Y0152791725D01*
X0031866678Y0152775707D01*
X0031932731Y0152754348D01*
X0031993938Y0152727650D01*
X0032050301Y0152695613D01*
X0032101818Y0152658236D01*
X0032125558Y0152637322D01*
X0032125558Y0152637322D01*
X0032148795Y0152616145D01*
X0032190325Y0152571648D01*
X0032225922Y0152524581D01*
X0032255587Y0152474942D01*
X0032279318Y0152422733D01*
X0032297117Y0152367952D01*
X0032308983Y0152310601D01*
X0032314916Y0152250679D01*
X0032315410Y0152219647D01*
X0032315410Y0152219647D01*
X0032314949Y0152187379D01*
X0032309411Y0152124490D01*
X0032298336Y0152063579D01*
X0032281725Y0152004646D01*
X0032259575Y0151947690D01*
X0032231888Y0151892712D01*
X0032198664Y0151839711D01*
X0032159902Y0151788689D01*
X0032138214Y0151764001D01*
X0032138214Y0151764001D01*
X0032115752Y0151739635D01*
X0032067695Y0151692469D01*
X0032015882Y0151647181D01*
X0031960310Y0151603772D01*
X0031870377Y0151541946D01*
X0031736690Y0151466401D01*
X0031663583Y0151431760D01*
X0031663583Y0151431760D01*
X0031589356Y0151399129D01*
X0031434310Y0151339800D01*
X0031271353Y0151287590D01*
X0031100486Y0151242500D01*
X0031011756Y0151222922D01*
X0031011756Y0151222922D01*
X0030923093Y0151204464D01*
X0030745106Y0151172822D01*
X0030566328Y0151147508D01*
X0030386759Y0151128523D01*
X0030296645Y0151121667D01*
X0030296645Y0151134325D01*
X0030296645Y0151134325D01*
X0030368137Y0151139401D01*
X0030506175Y0151152849D01*
X0030638281Y0151170251D01*
X0030764454Y0151191608D01*
X0030825068Y0151203934D01*
X0030825068Y0151203934D01*
X0030885386Y0151217777D01*
X0031000088Y0151249419D01*
X0031107671Y0151285808D01*
X0031208135Y0151326943D01*
X0031255400Y0151349488D01*
X0031255400Y0151349488D01*
X0031302237Y0151372890D01*
X0031389648Y0151424308D01*
X0031469545Y0151481264D01*
X0031541926Y0151543757D01*
X0031574986Y0151577311D01*
X0031574986Y0151577311D01*
X0031607551Y0151612677D01*
X0031666088Y0151689014D01*
X0031716716Y0151772074D01*
X0031759433Y0151861859D01*
X0031777495Y0151909552D01*
X0031777495Y0151909552D01*
X0031794172Y0151958433D01*
X0031820276Y0152062456D01*
X0031837678Y0152173995D01*
X0031846379Y0152293048D01*
X0031847104Y0152355706D01*
X0031847104Y0152355706D01*
X0031846445Y0152395819D01*
X0031838535Y0152473737D01*
X0031822715Y0152548887D01*
X0031798985Y0152621269D01*
X0031783824Y0152656306D01*
X0031783824Y0152656306D01*
X0031776020Y0152673346D01*
X0031757530Y0152703802D01*
X0031735578Y0152729906D01*
X0031710165Y0152751660D01*
X0031681292Y0152769063D01*
X0031648958Y0152782115D01*
X0031613163Y0152790817D01*
X0031573907Y0152795168D01*
X0031552837Y0152795530D01*
X0031552837Y0152795530D01*
X0031507911Y0152794410D01*
X0031419709Y0152780962D01*
X0031333485Y0152754066D01*
X0031249238Y0152713722D01*
X0031207938Y0152687947D01*
X0031207938Y0152687947D01*
X0031167792Y0152660228D01*
X0031089478Y0152596548D01*
X0031013537Y0152522980D01*
X0030939969Y0152439524D01*
X0030904174Y0152393676D01*
X0030904174Y0152393676D01*
X0030869631Y0152347235D01*
X0030803183Y0152248749D01*
X0030739899Y0152143539D01*
X0030679779Y0152031605D01*
X0030651038Y0151972836D01*
X0030651038Y0151972836D01*
X0030622889Y0151914035D01*
X0030569889Y0151793795D01*
X0030520844Y0151670391D01*
X0030475754Y0151543823D01*
X0030454857Y0151479220D01*
X0030454857Y0151479220D01*
X0030435443Y0151414387D01*
X0030400241Y0151285050D01*
X0030369390Y0151156108D01*
X0030342890Y0151027563D01*
X0030331453Y0150963454D01*
X0030331453Y0150963454D01*
X0030321598Y0150899709D01*
X0030306173Y0150775514D01*
X0030295890Y0150655274D01*
X0030290748Y0150538989D01*
X0030290319Y0150482495D01*
X0030290319Y0150482495D01*
X0030290698Y0150433318D01*
X0030295247Y0150341556D01*
X0030304344Y0150257705D01*
X0030317990Y0150181764D01*
X0030336184Y0150113733D01*
X0030358927Y0150053613D01*
X0030386218Y0150001404D01*
X0030418058Y0149957105D01*
X0030435873Y0149938251D01*
X0030435873Y0149938251D01*
X0030454652Y0149920436D01*
X0030494106Y0149888596D01*
X0030535834Y0149861305D01*
X0030579836Y0149838562D01*
X0030626113Y0149820368D01*
X0030674664Y0149806722D01*
X0030725489Y0149797625D01*
X0030778588Y0149793077D01*
X0030806085Y0149792698D01*
X0030806085Y0149792698D01*
X0030875995Y0149793917D01*
X0030977521Y0149803979D01*
X0031043475Y0149814954D01*
X0031107946Y0149829589D01*
X0031170933Y0149847882D01*
X0031232437Y0149869834D01*
X0031292458Y0149895444D01*
X0031321851Y0149909774D01*
X0031321851Y0149909774D01*
X0031380619Y0149939834D01*
X0031492553Y0150007864D01*
X0031597763Y0150085387D01*
X0031696249Y0150172403D01*
X0031742690Y0150219866D01*
X0031742690Y0150219866D01*
X0031788703Y0150269340D01*
X0031874137Y0150372572D01*
X0031951660Y0150480946D01*
X0032021272Y0150594462D01*
X0032052783Y0150653362D01*
X0032062272Y0150650201D01*
X0032062272Y0150650201D01*
X0032030729Y0150590510D01*
X0031960721Y0150475411D01*
X0031882407Y0150365455D01*
X0031795787Y0150260641D01*
X0031749016Y0150210376D01*
X0031749016Y0150210376D01*
X0031701685Y0150161364D01*
X0031600430Y0150071579D01*
X0031491265Y0149991683D01*
X0031374189Y0149921675D01*
X0031312355Y0149890791D01*
X0031312355Y0149890791D01*
X0031281348Y0149876074D01*
X0031217767Y0149849772D01*
X0031152307Y0149827227D01*
X0031084969Y0149808439D01*
X0031015752Y0149793409D01*
X0030944656Y0149782137D01*
X0030871682Y0149774622D01*
X0030796829Y0149770865D01*
X0030758619Y0149770551D01*
X0030758620Y0149770551D01*
M02*