; XNC file generated by gerbonara
M48
METRIC
T01C0000.50000
%
T01
G05
X0006.40777Y0046.75991
X0006.40777Y0046.00921
X0006.40777Y0045.25852
X0006.40777Y0044.50783
X0006.40777Y0043.75713
X0006.40777Y0043.00644
X0006.40777Y0042.25575
X0007.15847Y0046.00921
X0007.90916Y0045.25852
X0007.90916Y0044.50783
X0007.90916Y0043.75713
X0008.65985Y0043.00644
X0009.41055Y0046.75991
X0009.41055Y0046.00921
X0009.41055Y0045.25852
X0009.41055Y0044.50783
X0009.41055Y0043.75713
X0009.41055Y0043.00644
X0009.41055Y0042.25575
X0011.65588Y0046.00921
X0011.65588Y0045.25852
X0011.65588Y0044.50783
X0011.65588Y0043.75713
X0011.65588Y0043.00644
X0012.40657Y0046.75991
X0012.40657Y0042.25575
X0013.15726Y0046.75991
X0013.15726Y0042.25575
X0013.90796Y0046.75991
X0013.90796Y0042.25575
X0014.65865Y0046.00921
X0014.65865Y0045.25852
X0014.65865Y0044.50783
X0014.65865Y0043.75713
X0014.65865Y0043.00644
X0016.91003Y0046.75991
X0016.91003Y0046.00921
X0016.91003Y0045.25852
X0016.91003Y0044.50783
X0016.91003Y0043.75713
X0016.91003Y0043.00644
X0016.91003Y0042.25575
X0017.66073Y0046.00921
X0018.41142Y0045.25852
X0018.41142Y0044.50783
X0018.41142Y0043.75713
X0019.16211Y0043.00644
X0019.91281Y0046.75991
X0019.91281Y0046.00921
X0019.91281Y0045.25852
X0019.91281Y0044.50783
X0019.91281Y0043.75713
X0019.91281Y0043.00644
X0019.91281Y0042.25575
X0022.37703Y0046.75991
X0022.37703Y0046.00921
X0022.37703Y0045.25852
X0022.37703Y0044.50783
X0022.37703Y0043.75713
X0022.37703Y0043.00644
X0022.37703Y0042.25575
X0023.12773Y0046.75991
X0023.12772Y0044.50783
X0023.87842Y0046.75991
X0023.87842Y0044.50783
X0024.62911Y0046.75991
X0024.62911Y0044.50783
X0025.37981Y0046.00921
X0025.37981Y0045.25852
X0027.62514Y0046.75991
X0027.62514Y0046.00921
X0027.62514Y0045.25852
X0027.62514Y0044.50783
X0027.62514Y0043.75713
X0027.62514Y0043.00644
X0027.62514Y0042.25575
X0028.37583Y0042.25575
X0029.12652Y0042.25575
X0029.87721Y0042.25575
X0030.62791Y0042.25575
X0032.87324Y0046.00921
X0032.87324Y0045.25852
X0032.87324Y0044.50783
X0032.87324Y0043.75713
X0032.87324Y0043.00644
X0032.87324Y0042.25575
X0033.62393Y0046.75991
X0033.62393Y0043.75713
X0034.37463Y0046.75991
X0034.37463Y0043.75713
X0035.12532Y0046.75991
X0035.12532Y0043.75713
X0035.87601Y0046.00921
X0035.87601Y0045.25852
X0035.87601Y0044.50783
X0035.87601Y0043.75713
X0035.87601Y0043.00644
X0035.87601Y0042.25575
X0038.12134Y0046.75991
X0038.87204Y0046.75991
X0039.62273Y0046.75991
X0039.62273Y0046.00921
X0039.62273Y0045.25852
X0039.62273Y0044.50783
X0039.62273Y0043.75713
X0039.62273Y0043.00644
X0039.62273Y0042.25575
X0040.37342Y0046.75991
X0041.12412Y0046.75991
X0043.36945Y0046.75991
X0043.36945Y0046.00921
X0043.36945Y0045.25852
X0043.36945Y0044.50783
X0043.36945Y0043.75713
X0043.36945Y0043.00644
X0043.36945Y0042.25575
X0044.12014Y0046.75991
X0044.12014Y0044.50783
X0044.12014Y0042.25575
X0044.87083Y0046.75991
X0044.87083Y0044.50783
X0044.87083Y0042.25575
X0045.62153Y0046.75991
X0045.62153Y0044.50783
X0045.62153Y0042.25575
X0046.37222Y0046.75991
X0046.37222Y0044.50783
X0046.37222Y0042.25575
X0048.61755Y0046.75991
X0048.61755Y0046.00921
X0048.61755Y0045.25852
X0048.61755Y0044.50783
X0048.61755Y0043.75713
X0048.61755Y0043.00644
X0048.61755Y0042.25575
X0049.36825Y0046.75991
X0049.36825Y0042.25575
X0050.11894Y0046.75991
X0050.11894Y0042.25575
X0050.86963Y0046.75991
X0050.86963Y0042.25575
X0051.62033Y0046.00921
X0051.62033Y0045.25852
X0051.62033Y0044.50783
X0051.62033Y0043.75713
X0051.62033Y0043.00644
M30