G04 Layer_Color=8421504*
%FSLAX25Y25*%
%MOIN*%
G70*
G01*
G75*
G04:AMPARAMS|DCode=10|XSize=25.59mil|YSize=64.96mil|CornerRadius=1.92mil|HoleSize=0mil|Usage=FLASHONLY|Rotation=0.000|XOffset=0mil|YOffset=0mil|HoleType=Round|Shape=RoundedRectangle|*
%AMROUNDEDRECTD10*
21,1,0.02559,0.06112,0,0,0.0*
21,1,0.02175,0.06496,0,0,0.0*
1,1,0.00384,0.01088,-0.03056*
1,1,0.00384,-0.01088,-0.03056*
1,1,0.00384,-0.01088,0.03056*
1,1,0.00384,0.01088,0.03056*
%
%ADD10ROUNDEDRECTD10*%
%ADD11R,0.03543X0.02756*%
%ADD12R,0.07480X0.04331*%
%ADD13R,0.02756X0.03543*%
%ADD14O,0.05512X0.01772*%
%ADD15R,0.05512X0.05906*%
%ADD16O,0.02756X0.09843*%
%ADD17O,0.01378X0.05906*%
%ADD18R,0.03937X0.03937*%
%ADD19R,0.12992X0.10630*%
%ADD20R,0.03937X0.10630*%
%ADD21R,0.05906X0.05512*%
D10*
X73051Y110925D02*
D03*
X78051D02*
D03*
X83051D02*
D03*
X88051D02*
D03*
X93051D02*
D03*
X98051D02*
D03*
X103051D02*
D03*
X108051D02*
D03*
X73051Y133169D02*
D03*
X78051D02*
D03*
X83051D02*
D03*
X88051D02*
D03*
X93051D02*
D03*
X98051D02*
D03*
X103051D02*
D03*
X108051D02*
D03*
X206909Y106988D02*
D03*
X211910D02*
D03*
X216910D02*
D03*
X221909D02*
D03*
X226909D02*
D03*
X231909D02*
D03*
X236910D02*
D03*
X241910D02*
D03*
X206909Y129232D02*
D03*
X211910D02*
D03*
X216910D02*
D03*
X221909D02*
D03*
X226909D02*
D03*
X231909D02*
D03*
X236910D02*
D03*
X241910D02*
D03*
Y85925D02*
D03*
X236910D02*
D03*
X231909D02*
D03*
X226909D02*
D03*
X221909D02*
D03*
X216910D02*
D03*
X211910D02*
D03*
X206909D02*
D03*
X241910Y63681D02*
D03*
X236910D02*
D03*
X231909D02*
D03*
X226909D02*
D03*
X221909D02*
D03*
X216910D02*
D03*
X211910D02*
D03*
X206909D02*
D03*
X108051Y85925D02*
D03*
X103051D02*
D03*
X98051D02*
D03*
X93051D02*
D03*
X88051D02*
D03*
X83051D02*
D03*
X78051D02*
D03*
X73051D02*
D03*
X108051Y63681D02*
D03*
X103051D02*
D03*
X98051D02*
D03*
X93051D02*
D03*
X88051D02*
D03*
X83051D02*
D03*
X78051D02*
D03*
X73051D02*
D03*
D11*
X116142Y132087D02*
D03*
Y126181D02*
D03*
X118110Y113189D02*
D03*
Y119095D02*
D03*
X270079Y129331D02*
D03*
Y135236D02*
D03*
X251575Y117913D02*
D03*
Y112008D02*
D03*
X264567Y130118D02*
D03*
Y124213D02*
D03*
X270079Y123819D02*
D03*
Y117913D02*
D03*
Y112402D02*
D03*
Y106496D02*
D03*
X264567Y112402D02*
D03*
Y106496D02*
D03*
X302362Y111221D02*
D03*
Y117126D02*
D03*
X198031Y72638D02*
D03*
Y78543D02*
D03*
X175591Y97441D02*
D03*
Y103347D02*
D03*
X182677Y97441D02*
D03*
Y91535D02*
D03*
X114567Y108071D02*
D03*
Y102165D02*
D03*
X107087Y102953D02*
D03*
Y97047D02*
D03*
X101575Y102953D02*
D03*
Y97047D02*
D03*
X63386Y76968D02*
D03*
Y82874D02*
D03*
X7874Y57087D02*
D03*
Y62992D02*
D03*
X11811Y132480D02*
D03*
Y138386D02*
D03*
D12*
X140748Y113189D02*
D03*
X126181D02*
D03*
Y122244D02*
D03*
X140748D02*
D03*
D13*
X130512Y129528D02*
D03*
X136417D02*
D03*
X288779Y88976D02*
D03*
X282874D02*
D03*
X288386Y106299D02*
D03*
X282480D02*
D03*
X128937Y72047D02*
D03*
X134843D02*
D03*
X14764Y51181D02*
D03*
X8858D02*
D03*
D14*
X293504Y112303D02*
D03*
Y114862D02*
D03*
Y117421D02*
D03*
Y119980D02*
D03*
X277362Y112303D02*
D03*
Y114862D02*
D03*
Y117421D02*
D03*
Y119980D02*
D03*
D15*
X281890Y98425D02*
D03*
X289764D02*
D03*
X15748Y70866D02*
D03*
X23622D02*
D03*
X15748Y60236D02*
D03*
X23622D02*
D03*
D16*
X166949Y110039D02*
D03*
X161949D02*
D03*
X156949D02*
D03*
X151949D02*
D03*
X166949Y90748D02*
D03*
X161949D02*
D03*
X156949D02*
D03*
X151949D02*
D03*
D17*
X120374Y79921D02*
D03*
X122933D02*
D03*
X125492D02*
D03*
X128051D02*
D03*
X130610D02*
D03*
X133169D02*
D03*
X135728D02*
D03*
X138287D02*
D03*
X140847D02*
D03*
X143405D02*
D03*
X120374Y101969D02*
D03*
X122933D02*
D03*
X125492D02*
D03*
X128051D02*
D03*
X130610D02*
D03*
X133169D02*
D03*
X135728D02*
D03*
X138287D02*
D03*
X140847D02*
D03*
X143405D02*
D03*
D18*
X7874Y42717D02*
D03*
Y36024D02*
D03*
X15748Y42717D02*
D03*
Y36024D02*
D03*
D19*
X19685Y110039D02*
D03*
D20*
X28740Y86811D02*
D03*
X19685D02*
D03*
X10630D02*
D03*
D21*
X43307Y94882D02*
D03*
Y102756D02*
D03*
M02*
