G04 Gerber file generated by Gerbonara*
%MOMM*%
%FSLAX46Y46*%
%IPPOS*%
G75
%LPD*%
%AMGNC*
1,1,$1,0,0,-57.29578X$4*
1,0,$2,0,0,0*
21,0,$2,$3,0,0,-57.29578X$4*
%
%AMGNR*
21,1,$1,$2,0,0,$5X-57.29578*
1,0,$3,0,0,0*
21,0,$3,$4,0,0,$5X-57.29578*
%
%AMGNO*
21,1,$1,$2,0,0,$5X-57.29578*
1,1,$2,$1/2,0,$5X-57.29578*
1,1,$2,(0-$1)/2,0,$5X-57.29578*
1,0,$3,0,0,0*
21,0,$3,$4,0,0,$5X-57.29578*
%
%AMGNP*
5,1,$2,0,0,$1,$3X-57.29578*
1,0,$4,0,0,0*
%
%ADD10C,0.05*%
%ADD11C,0.12*%
G36*
G01*
X0009972947Y0131605574D02*
X0009960290Y0131605574D01*
X0009982143Y0131705180D01*
X0010014971Y0131895824D01*
X0010034747Y0132076183D01*
X0010041471Y0132246259D01*
X0010039395Y0132327013D01*
X0010037409Y0132366606D01*
X0010029399Y0132442251D01*
X0010016545Y0132513643D01*
X0009998845Y0132580784D01*
X0009976300Y0132643672D01*
X0009948910Y0132702309D01*
X0009916675Y0132756694D01*
X0009879595Y0132806827D01*
X0009859036Y0132830122D01*
X0009837545Y0132852972D01*
X0009789291Y0132893810D01*
X0009734708Y0132928814D01*
X0009673797Y0132957984D01*
X0009606558Y0132981320D01*
X0009532990Y0132998822D01*
X0009453094Y0133010490D01*
X0009366869Y0133016324D01*
X0009321120Y0133016810D01*
X0008716985Y0133016810D01*
X0007621714Y0128295813D01*
X0008314903Y0128295813D01*
X0008314903Y0128283156D01*
X0006321452Y0128283156D01*
X0006321452Y0128295813D01*
X0007020515Y0128295813D01*
X0008115786Y0133016810D01*
X0007454238Y0133016810D01*
X0007385416Y0133015689D01*
X0007255684Y0133002241D01*
X0007164911Y0132982910D01*
X0007107164Y0132966100D01*
X0007051790Y0132945928D01*
X0006998790Y0132922395D01*
X0006973278Y0132909227D01*
X0006923277Y0132881441D01*
X0006829538Y0132816970D01*
X0006743313Y0132741820D01*
X0006664604Y0132655991D01*
X0006628380Y0132608627D01*
X0006593244Y0132560472D01*
X0006527587Y0132457239D01*
X0006467467Y0132345701D01*
X0006412884Y0132225857D01*
X0006387900Y0132162474D01*
X0006363674Y0132097937D01*
X0006318189Y0131964249D01*
X0006276263Y0131825024D01*
X0006237897Y0131680262D01*
X0006220197Y0131605574D01*
X0006207541Y0131605574D01*
X0006536618Y0133029467D01*
X0010302025Y0133029467D01*
G37*
D11*
X0007017578Y0128283156D02*
X0008118722Y0133029467D01*
X0008719921Y0133029467D01*
X0007618777Y0128283156D01*
X0007017578Y0128283156D01*
X0006321452Y0128283156D02*
X0006321452Y0128295813D01*
X0008314903Y0128295813D01*
X0008314903Y0128283156D01*
X0006321452Y0128283156D01*
X0006207541Y0131605574D02*
X0006536618Y0133029467D01*
X0010302025Y0133029467D01*
X0009972947Y0131605574D01*
X0009960290Y0131605574D01*
X0009960290Y0131605574D01*
X0009982143Y0131705180D01*
X0010014971Y0131895824D01*
X0010034747Y0132076183D01*
X0010041471Y0132246259D01*
X0010039395Y0132327013D01*
X0010039395Y0132327013D01*
X0010037409Y0132366606D01*
X0010029399Y0132442251D01*
X0010016545Y0132513643D01*
X0009998845Y0132580784D01*
X0009976300Y0132643672D01*
X0009948910Y0132702309D01*
X0009916675Y0132756694D01*
X0009879595Y0132806827D01*
X0009859036Y0132830122D01*
X0009859036Y0132830122D01*
X0009837545Y0132852972D01*
X0009789291Y0132893810D01*
X0009734708Y0132928814D01*
X0009673797Y0132957984D01*
X0009606558Y0132981320D01*
X0009532990Y0132998822D01*
X0009453094Y0133010490D01*
X0009366869Y0133016324D01*
X0009321120Y0133016810D01*
X0007454238Y0133016810D01*
X0007454238Y0133016810D01*
X0007385416Y0133015689D01*
X0007255684Y0133002241D01*
X0007164911Y0132982910D01*
X0007107164Y0132966100D01*
X0007051790Y0132945928D01*
X0006998790Y0132922395D01*
X0006973278Y0132909227D01*
X0006973278Y0132909227D01*
X0006923277Y0132881441D01*
X0006829538Y0132816970D01*
X0006743313Y0132741820D01*
X0006664604Y0132655991D01*
X0006628380Y0132608627D01*
X0006628380Y0132608627D01*
X0006593244Y0132560472D01*
X0006527587Y0132457239D01*
X0006467467Y0132345701D01*
X0006412884Y0132225857D01*
X0006387900Y0132162474D01*
X0006387900Y0132162474D01*
X0006363674Y0132097937D01*
X0006318189Y0131964249D01*
X0006276263Y0131825024D01*
X0006237897Y0131680262D01*
X0006220197Y0131605574D01*
X0006207541Y0131605574D01*
G36*
G01*
X0011593823Y0131241377D02*
X0011551206Y0131237620D01*
X0011487452Y0131225408D01*
X0011402809Y0131195348D01*
X0011318562Y0131150258D01*
X0011276603Y0131121450D01*
X0011234842Y0131091291D01*
X0011152969Y0131022074D01*
X0011073072Y0130942178D01*
X0010995154Y0130851603D01*
X0010957019Y0130801865D01*
X0010919312Y0130750678D01*
X0010846535Y0130642699D01*
X0010776922Y0130527997D01*
X0010710474Y0130406570D01*
X0010678569Y0130343055D01*
X0010647256Y0130278716D01*
X0010587927Y0130147402D01*
X0010532553Y0130012923D01*
X0010481135Y0129875280D01*
X0010457074Y0129805140D01*
X0010434529Y0129734802D01*
X0010393394Y0129594786D01*
X0010357006Y0129455561D01*
X0010325364Y0129317127D01*
X0010311520Y0129248240D01*
X0010299390Y0129180572D01*
X0010280404Y0129048862D01*
X0010267747Y0128921502D01*
X0010261418Y0128798494D01*
X0010260890Y0128738802D01*
X0010262077Y0128682011D01*
X0010271866Y0128603277D01*
X0010282545Y0128554133D01*
X0010296784Y0128507857D01*
X0010314583Y0128464448D01*
X0010335941Y0128423906D01*
X0010360859Y0128386232D01*
X0010374801Y0128368590D01*
X0010389757Y0128351937D01*
X0010422883Y0128322174D01*
X0010459864Y0128296662D01*
X0010500703Y0128275403D01*
X0010545397Y0128258395D01*
X0010593948Y0128245639D01*
X0010646355Y0128237136D01*
X0010702619Y0128232884D01*
X0010732357Y0128232529D01*
X0010732361Y0128232529D01*
X0010775770Y0128233749D01*
X0010861599Y0128248383D01*
X0010946241Y0128277652D01*
X0011029697Y0128321555D01*
X0011070931Y0128349605D01*
X0011112692Y0128380522D01*
X0011194566Y0128450925D01*
X0011274462Y0128531613D01*
X0011352380Y0128622583D01*
X0011390516Y0128672354D01*
X0011428223Y0128723542D01*
X0011500999Y0128831520D01*
X0011570612Y0128946223D01*
X0011637060Y0129067649D01*
X0011668966Y0129131164D01*
X0011700245Y0129195503D01*
X0011759179Y0129326817D01*
X0011813761Y0129461296D01*
X0011863993Y0129598939D01*
X0011887296Y0129669079D01*
X0011910566Y0129739417D01*
X0011952492Y0129879433D01*
X0011988880Y0130018658D01*
X0012019731Y0130157092D01*
X0012032850Y0130225980D01*
X0012045737Y0130294373D01*
X0012065909Y0130426874D01*
X0012079356Y0130554233D01*
X0012086080Y0130676451D01*
X0012086640Y0130735417D01*
X0012085454Y0130792933D01*
X0012075665Y0130872310D01*
X0012064985Y0130921652D01*
X0012050747Y0130967929D01*
X0012032948Y0131011140D01*
X0012011590Y0131051286D01*
X0011986672Y0131088367D01*
X0011972729Y0131105629D01*
X0011958152Y0131122283D01*
X0011925620Y0131152046D01*
X0011889034Y0131177558D01*
X0011848394Y0131198817D01*
X0011803699Y0131215825D01*
X0011754951Y0131228580D01*
X0011702148Y0131237084D01*
X0011663287Y0131239990D01*
X0011755510Y0131241941D01*
X0011828096Y0131229156D01*
X0011924604Y0131201568D01*
X0012013202Y0131164784D01*
X0012093889Y0131118804D01*
X0012166666Y0131063629D01*
X0012231532Y0130999257D01*
X0012260669Y0130963239D01*
X0012288941Y0130926496D01*
X0012339469Y0130849468D01*
X0012382779Y0130768187D01*
X0012418871Y0130682655D01*
X0012447745Y0130592871D01*
X0012469400Y0130498834D01*
X0012483836Y0130400546D01*
X0012491055Y0130298006D01*
X0012491656Y0130244965D01*
X0012491294Y0130193274D01*
X0012486943Y0130091130D01*
X0012478241Y0129990468D01*
X0012465189Y0129891290D01*
X0012447786Y0129793595D01*
X0012426032Y0129697383D01*
X0012399927Y0129602655D01*
X0012369472Y0129509410D01*
X0012352432Y0129463405D01*
X0012335160Y0129417747D01*
X0012297981Y0129328655D01*
X0012257637Y0129242232D01*
X0012214129Y0129158480D01*
X0012167457Y0129077397D01*
X0012117621Y0128998984D01*
X0012064620Y0128923240D01*
X0012008455Y0128850167D01*
X0011979055Y0128814743D01*
X0011949209Y0128780250D01*
X0011887705Y0128714394D01*
X0011824025Y0128652297D01*
X0011758170Y0128593957D01*
X0011690140Y0128539374D01*
X0011619934Y0128488549D01*
X0011547553Y0128441481D01*
X0011472996Y0128398171D01*
X0011434811Y0128378082D01*
X0011396758Y0128358718D01*
X0011319829Y0128324109D01*
X0011241910Y0128294445D01*
X0011163002Y0128269724D01*
X0011083106Y0128249948D01*
X0011002221Y0128235116D01*
X0010920347Y0128225228D01*
X0010837485Y0128220284D01*
X0010795641Y0128219872D01*
X0010736560Y0128220630D01*
X0010624824Y0128229727D01*
X0010520800Y0128247921D01*
X0010424490Y0128275212D01*
X0010335892Y0128311601D01*
X0010255007Y0128357086D01*
X0010181835Y0128411669D01*
X0010116375Y0128475348D01*
X0010086859Y0128510979D01*
X0010058587Y0128547721D01*
X0010008059Y0128624750D01*
X0009964749Y0128706031D01*
X0009928657Y0128791563D01*
X0009899783Y0128881348D01*
X0009878128Y0128975384D01*
X0009863692Y0129073672D01*
X0009856473Y0129176212D01*
X0009855872Y0129229254D01*
X0009856226Y0129280944D01*
X0009860478Y0129383089D01*
X0009868982Y0129483750D01*
X0009881738Y0129582928D01*
X0009898745Y0129680623D01*
X0009920005Y0129776835D01*
X0009945516Y0129871563D01*
X0009975280Y0129964808D01*
X0009991933Y0130010813D01*
X0010009591Y0130056463D01*
X0010047463Y0130145457D01*
X0010088400Y0130231681D01*
X0010132402Y0130315137D01*
X0010179470Y0130395825D01*
X0010229603Y0130473743D01*
X0010282801Y0130548893D01*
X0010339064Y0130621274D01*
X0010368473Y0130656311D01*
X0010398311Y0130691192D01*
X0010459716Y0130757739D01*
X0010523198Y0130820430D01*
X0010588757Y0130879264D01*
X0010656391Y0130934242D01*
X0010726103Y0130985364D01*
X0010797891Y0131032629D01*
X0010871755Y0131076038D01*
X0010909553Y0131096136D01*
X0010947993Y0131115887D01*
X0011025615Y0131151188D01*
X0011104127Y0131181446D01*
X0011183529Y0131206661D01*
X0011263820Y0131226832D01*
X0011345002Y0131241961D01*
X0011358060Y0131243566D01*
G37*
G36*
G01*
X0011611347Y0131256744D02*
X0011723677Y0131247548D01*
X0011755510Y0131241941D01*
X0011663287Y0131239990D01*
X0011645291Y0131241336D01*
X0011615174Y0131241691D01*
X0011593823Y0131241377D01*
X0011358060Y0131243566D01*
X0011427074Y0131252047D01*
X0011510035Y0131257090D01*
X0011551887Y0131257510D01*
G37*
X0010795641Y0128219872D02*
X0010795641Y0128219872D01*
X0010736560Y0128220630D01*
X0010624824Y0128229727D01*
X0010520800Y0128247921D01*
X0010424490Y0128275212D01*
X0010335892Y0128311601D01*
X0010255007Y0128357086D01*
X0010181835Y0128411669D01*
X0010116375Y0128475348D01*
X0010086859Y0128510979D01*
X0010086859Y0128510979D01*
X0010058587Y0128547721D01*
X0010008059Y0128624750D01*
X0009964749Y0128706031D01*
X0009928657Y0128791563D01*
X0009899783Y0128881348D01*
X0009878128Y0128975384D01*
X0009863692Y0129073672D01*
X0009856473Y0129176212D01*
X0009855872Y0129229254D01*
X0009855872Y0129229254D01*
X0009856226Y0129280944D01*
X0009860478Y0129383089D01*
X0009868982Y0129483750D01*
X0009881738Y0129582928D01*
X0009898745Y0129680623D01*
X0009920005Y0129776835D01*
X0009945516Y0129871563D01*
X0009975280Y0129964808D01*
X0009991933Y0130010813D01*
X0009991933Y0130010813D01*
X0010009591Y0130056463D01*
X0010047463Y0130145457D01*
X0010088400Y0130231681D01*
X0010132402Y0130315137D01*
X0010179470Y0130395825D01*
X0010229603Y0130473743D01*
X0010282801Y0130548893D01*
X0010339064Y0130621274D01*
X0010368473Y0130656311D01*
X0010368473Y0130656311D01*
X0010398311Y0130691192D01*
X0010459716Y0130757739D01*
X0010523198Y0130820430D01*
X0010588757Y0130879264D01*
X0010656391Y0130934242D01*
X0010726103Y0130985364D01*
X0010797891Y0131032629D01*
X0010871755Y0131076038D01*
X0010909553Y0131096136D01*
X0010909553Y0131096136D01*
X0010947993Y0131115887D01*
X0011025615Y0131151188D01*
X0011104127Y0131181446D01*
X0011183529Y0131206661D01*
X0011263820Y0131226832D01*
X0011345002Y0131241961D01*
X0011427074Y0131252047D01*
X0011510035Y0131257090D01*
X0011551887Y0131257510D01*
X0011551887Y0131257510D01*
X0011611347Y0131256744D01*
X0011723677Y0131247548D01*
X0011828096Y0131229156D01*
X0011924604Y0131201568D01*
X0012013202Y0131164784D01*
X0012093889Y0131118804D01*
X0012166666Y0131063629D01*
X0012231532Y0130999257D01*
X0012260669Y0130963239D01*
X0012260669Y0130963239D01*
X0012288941Y0130926496D01*
X0012339469Y0130849468D01*
X0012382779Y0130768187D01*
X0012418871Y0130682655D01*
X0012447745Y0130592871D01*
X0012469400Y0130498834D01*
X0012483836Y0130400546D01*
X0012491055Y0130298006D01*
X0012491656Y0130244965D01*
X0012491656Y0130244965D01*
X0012491294Y0130193274D01*
X0012486943Y0130091130D01*
X0012478241Y0129990468D01*
X0012465189Y0129891290D01*
X0012447786Y0129793595D01*
X0012426032Y0129697383D01*
X0012399927Y0129602655D01*
X0012369472Y0129509410D01*
X0012352432Y0129463405D01*
X0012352432Y0129463405D01*
X0012335160Y0129417747D01*
X0012297981Y0129328655D01*
X0012257637Y0129242232D01*
X0012214129Y0129158480D01*
X0012167457Y0129077397D01*
X0012117621Y0128998984D01*
X0012064620Y0128923240D01*
X0012008455Y0128850167D01*
X0011979055Y0128814743D01*
X0011979055Y0128814743D01*
X0011949209Y0128780250D01*
X0011887705Y0128714394D01*
X0011824025Y0128652297D01*
X0011758170Y0128593957D01*
X0011690140Y0128539374D01*
X0011619934Y0128488549D01*
X0011547553Y0128441481D01*
X0011472996Y0128398171D01*
X0011434811Y0128378082D01*
X0011434811Y0128378082D01*
X0011396758Y0128358718D01*
X0011319829Y0128324109D01*
X0011241910Y0128294445D01*
X0011163002Y0128269724D01*
X0011083106Y0128249948D01*
X0011002221Y0128235116D01*
X0010920347Y0128225228D01*
X0010837485Y0128220284D01*
X0010795641Y0128219872D01*
X0010795641Y0128219872D01*
X0010732361Y0128232529D02*
X0010732361Y0128232529D01*
X0010775770Y0128233749D01*
X0010861599Y0128248383D01*
X0010946241Y0128277652D01*
X0011029697Y0128321555D01*
X0011070931Y0128349605D01*
X0011070931Y0128349605D01*
X0011112692Y0128380522D01*
X0011194566Y0128450925D01*
X0011274462Y0128531613D01*
X0011352380Y0128622583D01*
X0011390516Y0128672354D01*
X0011390516Y0128672354D01*
X0011428223Y0128723542D01*
X0011500999Y0128831520D01*
X0011570612Y0128946223D01*
X0011637060Y0129067649D01*
X0011668966Y0129131164D01*
X0011668966Y0129131164D01*
X0011700245Y0129195503D01*
X0011759179Y0129326817D01*
X0011813761Y0129461296D01*
X0011863993Y0129598939D01*
X0011887296Y0129669079D01*
X0011887296Y0129669079D01*
X0011910566Y0129739417D01*
X0011952492Y0129879433D01*
X0011988880Y0130018658D01*
X0012019731Y0130157092D01*
X0012032850Y0130225980D01*
X0012032850Y0130225980D01*
X0012045737Y0130294373D01*
X0012065909Y0130426874D01*
X0012079356Y0130554233D01*
X0012086080Y0130676451D01*
X0012086640Y0130735417D01*
X0012086640Y0130735417D01*
X0012085454Y0130792933D01*
X0012075665Y0130872310D01*
X0012064985Y0130921652D01*
X0012050747Y0130967929D01*
X0012032948Y0131011140D01*
X0012011590Y0131051286D01*
X0011986672Y0131088367D01*
X0011972729Y0131105629D01*
X0011972729Y0131105629D01*
X0011958152Y0131122283D01*
X0011925620Y0131152046D01*
X0011889034Y0131177558D01*
X0011848394Y0131198817D01*
X0011803699Y0131215825D01*
X0011754951Y0131228580D01*
X0011702148Y0131237084D01*
X0011645291Y0131241336D01*
X0011615174Y0131241691D01*
X0011615174Y0131241691D01*
X0011593823Y0131241377D01*
X0011551206Y0131237620D01*
X0011487452Y0131225408D01*
X0011402809Y0131195348D01*
X0011318562Y0131150258D01*
X0011276603Y0131121450D01*
X0011276603Y0131121450D01*
X0011234842Y0131091291D01*
X0011152969Y0131022074D01*
X0011073072Y0130942178D01*
X0010995154Y0130851603D01*
X0010957019Y0130801865D01*
X0010957019Y0130801865D01*
X0010919312Y0130750678D01*
X0010846535Y0130642699D01*
X0010776922Y0130527997D01*
X0010710474Y0130406570D01*
X0010678569Y0130343055D01*
X0010678569Y0130343055D01*
X0010647256Y0130278716D01*
X0010587927Y0130147402D01*
X0010532553Y0130012923D01*
X0010481135Y0129875280D01*
X0010457074Y0129805140D01*
X0010457074Y0129805140D01*
X0010434529Y0129734802D01*
X0010393394Y0129594786D01*
X0010357006Y0129455561D01*
X0010325364Y0129317127D01*
X0010311520Y0129248240D01*
X0010311520Y0129248240D01*
X0010299390Y0129180572D01*
X0010280404Y0129048862D01*
X0010267747Y0128921502D01*
X0010261418Y0128798494D01*
X0010260890Y0128738802D01*
X0010260890Y0128738802D01*
X0010262077Y0128682011D01*
X0010271866Y0128603277D01*
X0010282545Y0128554133D01*
X0010296784Y0128507857D01*
X0010314583Y0128464448D01*
X0010335941Y0128423906D01*
X0010360859Y0128386232D01*
X0010374801Y0128368590D01*
X0010374801Y0128368590D01*
X0010389757Y0128351937D01*
X0010422883Y0128322174D01*
X0010459864Y0128296662D01*
X0010500703Y0128275403D01*
X0010545397Y0128258395D01*
X0010593948Y0128245639D01*
X0010646355Y0128237136D01*
X0010702619Y0128232884D01*
X0010732357Y0128232529D01*
X0010732361Y0128232529D01*
G36*
G01*
X0015340030Y0131205778D02*
X0015416762Y0131171762D01*
X0015486177Y0131129243D01*
X0015548275Y0131078221D01*
X0015603055Y0131018694D01*
X0015627397Y0130985388D01*
X0015650634Y0130951199D01*
X0015692164Y0130877137D01*
X0015727761Y0130796252D01*
X0015757426Y0130708544D01*
X0015781157Y0130614014D01*
X0015798956Y0130512660D01*
X0015810822Y0130404484D01*
X0015816755Y0130289484D01*
X0015817249Y0130229142D01*
X0015816903Y0130183673D01*
X0015812750Y0130092900D01*
X0015804444Y0130002324D01*
X0015791985Y0129911947D01*
X0015775373Y0129821767D01*
X0015754608Y0129731785D01*
X0015729690Y0129642000D01*
X0015700618Y0129552413D01*
X0015684352Y0129507702D01*
X0015650172Y0129419764D01*
X0015572254Y0129250479D01*
X0015482865Y0129089104D01*
X0015382006Y0128935640D01*
X0015326797Y0128862204D01*
X0015270138Y0128790614D01*
X0015151875Y0128659300D01*
X0015027680Y0128542224D01*
X0014930455Y0128464206D01*
X0014863908Y0128416348D01*
X0014830016Y0128393902D01*
X0014795976Y0128372601D01*
X0014727649Y0128334532D01*
X0014659025Y0128301901D01*
X0014590105Y0128274708D01*
X0014520888Y0128252954D01*
X0014451374Y0128236639D01*
X0014381564Y0128225762D01*
X0014311457Y0128220324D01*
X0014276280Y0128219870D01*
X0014276276Y0128219870D01*
X0014248491Y0128220216D01*
X0014195886Y0128224369D01*
X0014146841Y0128232676D01*
X0014101355Y0128245135D01*
X0014059429Y0128261747D01*
X0014021063Y0128282512D01*
X0013986257Y0128307430D01*
X0013955011Y0128336501D01*
X0013940870Y0128352767D01*
X0013913975Y0128387573D01*
X0013868094Y0128465096D01*
X0013831705Y0128552112D01*
X0013804810Y0128648620D01*
X0013795317Y0128700830D01*
X0013786978Y0128754028D01*
X0013773927Y0128862402D01*
X0013765226Y0128973149D01*
X0013760875Y0129086270D01*
X0013760512Y0129143819D01*
X0013760908Y0129197050D01*
X0013765655Y0129305820D01*
X0013769963Y0129356439D01*
X0013067743Y0126713710D01*
X0013599133Y0126713710D01*
X0013599133Y0126701053D01*
X0012083477Y0126701053D01*
X0012083477Y0126713710D01*
X0012561505Y0126713710D01*
X0013760508Y0131181570D01*
X0013304861Y0131181570D01*
X0013304861Y0131194227D01*
X0014184511Y0131194227D01*
X0013932110Y0130115212D01*
X0013934875Y0130123668D01*
X0013976801Y0130239162D01*
X0014022682Y0130351491D01*
X0014072518Y0130460657D01*
X0014099084Y0130513921D01*
X0014127068Y0130567218D01*
X0014186001Y0130668868D01*
X0014248494Y0130764585D01*
X0014314547Y0130854369D01*
X0014349057Y0130896789D01*
X0014384160Y0130937957D01*
X0014457332Y0131012712D01*
X0014534064Y0131078369D01*
X0014614356Y0131134929D01*
X0014655985Y0131159419D01*
X0014698141Y0131182920D01*
X0014745451Y0131203010D01*
X0014882271Y0131200209D01*
X0014835401Y0131196056D01*
X0014789124Y0131187750D01*
X0014743441Y0131175291D01*
X0014698351Y0131158679D01*
X0014653855Y0131137913D01*
X0014609951Y0131112995D01*
X0014566641Y0131083924D01*
X0014545233Y0131067658D01*
X0014502813Y0131034269D01*
X0014420939Y0130957933D01*
X0014342625Y0130870126D01*
X0014267871Y0130770849D01*
X0014231977Y0130716431D01*
X0014197533Y0130661289D01*
X0014132272Y0130545399D01*
X0014071361Y0130422786D01*
X0014014800Y0130293449D01*
X0013988333Y0130225979D01*
X0013963481Y0130158608D01*
X0013918391Y0130022547D01*
X0013878838Y0129884904D01*
X0013844823Y0129745679D01*
X0013830122Y0129675407D01*
X0013816478Y0129605333D01*
X0013795121Y0129468481D01*
X0013780883Y0129335584D01*
X0013773764Y0129206643D01*
X0013773171Y0129143820D01*
X0013774094Y0129052388D01*
X0013785168Y0128880730D01*
X0013807318Y0128722519D01*
X0013840542Y0128577757D01*
X0013861768Y0128510979D01*
X0013873675Y0128479221D01*
X0013901856Y0128422463D01*
X0013935278Y0128373814D01*
X0013973941Y0128333272D01*
X0014017844Y0128300839D01*
X0014066988Y0128276515D01*
X0014121373Y0128260298D01*
X0014180999Y0128252190D01*
X0014212992Y0128251514D01*
X0014233548Y0128251893D01*
X0014274584Y0128256442D01*
X0014315521Y0128265539D01*
X0014356359Y0128279184D01*
X0014397098Y0128297379D01*
X0014437738Y0128320121D01*
X0014498526Y0128362195D01*
X0014538902Y0128397067D01*
X0014579048Y0128435236D01*
X0014657362Y0128521460D01*
X0014733303Y0128619551D01*
X0014806871Y0128729507D01*
X0014842666Y0128789429D01*
X0014877934Y0128850868D01*
X0014945173Y0128979018D01*
X0015008457Y0129113497D01*
X0015067786Y0129254304D01*
X0015095802Y0129327344D01*
X0015122995Y0129401736D01*
X0015172436Y0129550850D01*
X0015215943Y0129700358D01*
X0015253518Y0129850262D01*
X0015269834Y0129925379D01*
X0015284996Y0130000068D01*
X0015308729Y0130144830D01*
X0015324551Y0130284055D01*
X0015332462Y0130417743D01*
X0015333121Y0130482280D01*
X0015331968Y0130565373D01*
X0015322450Y0130679557D01*
X0015312068Y0130750257D01*
X0015298224Y0130816310D01*
X0015280920Y0130877715D01*
X0015260155Y0130934473D01*
X0015235929Y0130986584D01*
X0015222374Y0131010703D01*
X0015208283Y0131033940D01*
X0015177630Y0131075470D01*
X0015144010Y0131111067D01*
X0015107424Y0131140732D01*
X0015067871Y0131164463D01*
X0015025352Y0131182262D01*
X0014979867Y0131194128D01*
X0014931415Y0131200061D01*
X0014906969Y0131200535D01*
X0015280315Y0131223903D01*
G37*
G36*
G01*
X0015065931Y0131256800D02*
X0015164614Y0131248296D01*
X0015255981Y0131231289D01*
X0015280315Y0131223903D01*
X0014906969Y0131200535D01*
X0014905953Y0131200555D01*
X0014882271Y0131200209D01*
X0014745451Y0131203010D01*
X0014784762Y0131219703D01*
X0014874150Y0131244226D01*
X0014966308Y0131256487D01*
X0015013540Y0131257509D01*
G37*
X0012558109Y0126701053D02*
X0013760508Y0131181570D01*
X0013304861Y0131181570D01*
X0013304861Y0131194227D01*
X0014184511Y0131194227D01*
X0013931375Y0130112068D01*
X0013811135Y0129631109D01*
X0013773162Y0129368480D01*
X0013064379Y0126701053D01*
X0012558109Y0126701053D01*
X0012083477Y0126701053D02*
X0012083477Y0126713710D01*
X0013599133Y0126713710D01*
X0013599133Y0126701053D01*
X0012083477Y0126701053D01*
X0014212989Y0128251514D02*
X0014212989Y0128251514D01*
X0014233548Y0128251893D01*
X0014274584Y0128256442D01*
X0014315521Y0128265539D01*
X0014356359Y0128279184D01*
X0014397098Y0128297379D01*
X0014437738Y0128320121D01*
X0014498526Y0128362195D01*
X0014538902Y0128397067D01*
X0014538902Y0128397067D01*
X0014579048Y0128435236D01*
X0014657362Y0128521460D01*
X0014733303Y0128619551D01*
X0014806871Y0128729507D01*
X0014842666Y0128789429D01*
X0014842666Y0128789429D01*
X0014877934Y0128850868D01*
X0014945173Y0128979018D01*
X0015008457Y0129113497D01*
X0015067786Y0129254304D01*
X0015095802Y0129327344D01*
X0015095802Y0129327344D01*
X0015122995Y0129401736D01*
X0015172436Y0129550850D01*
X0015215943Y0129700358D01*
X0015253518Y0129850262D01*
X0015269834Y0129925379D01*
X0015269834Y0129925379D01*
X0015284996Y0130000068D01*
X0015308729Y0130144830D01*
X0015324551Y0130284055D01*
X0015332462Y0130417743D01*
X0015333121Y0130482280D01*
X0015333121Y0130482280D01*
X0015331968Y0130565373D01*
X0015322450Y0130679557D01*
X0015312068Y0130750257D01*
X0015298224Y0130816310D01*
X0015280920Y0130877715D01*
X0015260155Y0130934473D01*
X0015235929Y0130986584D01*
X0015222374Y0131010703D01*
X0015222374Y0131010703D01*
X0015208283Y0131033940D01*
X0015177630Y0131075470D01*
X0015144010Y0131111067D01*
X0015107424Y0131140732D01*
X0015067871Y0131164463D01*
X0015025352Y0131182262D01*
X0014979867Y0131194128D01*
X0014931415Y0131200061D01*
X0014905953Y0131200555D01*
X0014905953Y0131200555D01*
X0014882271Y0131200209D01*
X0014835401Y0131196056D01*
X0014789124Y0131187750D01*
X0014743441Y0131175291D01*
X0014698351Y0131158679D01*
X0014653855Y0131137913D01*
X0014609951Y0131112995D01*
X0014566641Y0131083924D01*
X0014545233Y0131067658D01*
X0014545233Y0131067658D01*
X0014502813Y0131034269D01*
X0014420939Y0130957933D01*
X0014342625Y0130870126D01*
X0014267871Y0130770849D01*
X0014231977Y0130716431D01*
X0014231977Y0130716431D01*
X0014197533Y0130661289D01*
X0014132272Y0130545399D01*
X0014071361Y0130422786D01*
X0014014800Y0130293449D01*
X0013988333Y0130225979D01*
X0013988333Y0130225979D01*
X0013963481Y0130158608D01*
X0013918391Y0130022547D01*
X0013878838Y0129884904D01*
X0013844823Y0129745679D01*
X0013830122Y0129675407D01*
X0013830122Y0129675407D01*
X0013816478Y0129605333D01*
X0013795121Y0129468481D01*
X0013780883Y0129335584D01*
X0013773764Y0129206643D01*
X0013773171Y0129143820D01*
X0013773171Y0129143820D01*
X0013774094Y0129052388D01*
X0013785168Y0128880730D01*
X0013807318Y0128722519D01*
X0013840542Y0128577757D01*
X0013861768Y0128510979D01*
X0013861768Y0128510979D01*
X0013873675Y0128479221D01*
X0013901856Y0128422463D01*
X0013935278Y0128373814D01*
X0013973941Y0128333272D01*
X0014017844Y0128300839D01*
X0014066988Y0128276515D01*
X0014121373Y0128260298D01*
X0014180999Y0128252190D01*
X0014212995Y0128251514D01*
X0014212989Y0128251514D01*
X0014276276Y0128219870D02*
X0014276276Y0128219870D01*
X0014248491Y0128220216D01*
X0014195886Y0128224369D01*
X0014146841Y0128232676D01*
X0014101355Y0128245135D01*
X0014059429Y0128261747D01*
X0014021063Y0128282512D01*
X0013986257Y0128307430D01*
X0013955011Y0128336501D01*
X0013940870Y0128352767D01*
X0013940870Y0128352767D01*
X0013913975Y0128387573D01*
X0013868094Y0128465096D01*
X0013831705Y0128552112D01*
X0013804810Y0128648620D01*
X0013795317Y0128700830D01*
X0013795317Y0128700830D01*
X0013786978Y0128754028D01*
X0013773927Y0128862402D01*
X0013765226Y0128973149D01*
X0013760875Y0129086270D01*
X0013760512Y0129143819D01*
X0013760512Y0129143819D01*
X0013760908Y0129197050D01*
X0013765655Y0129305820D01*
X0013775148Y0129417358D01*
X0013789387Y0129531665D01*
X0013798485Y0129589972D01*
X0013798485Y0129589972D01*
X0013809131Y0129649301D01*
X0013834049Y0129767959D01*
X0013863317Y0129886617D01*
X0013896937Y0130005274D01*
X0013915560Y0130064603D01*
X0013915560Y0130064603D01*
X0013934875Y0130123668D01*
X0013976801Y0130239162D01*
X0014022682Y0130351491D01*
X0014072518Y0130460657D01*
X0014099084Y0130513921D01*
X0014099084Y0130513921D01*
X0014127068Y0130567218D01*
X0014186001Y0130668868D01*
X0014248494Y0130764585D01*
X0014314547Y0130854369D01*
X0014349057Y0130896789D01*
X0014349057Y0130896789D01*
X0014384160Y0130937957D01*
X0014457332Y0131012712D01*
X0014534064Y0131078369D01*
X0014614356Y0131134929D01*
X0014655985Y0131159419D01*
X0014655985Y0131159419D01*
X0014698141Y0131182920D01*
X0014784762Y0131219703D01*
X0014874150Y0131244226D01*
X0014966308Y0131256487D01*
X0015013540Y0131257509D01*
X0015013540Y0131257509D01*
X0015065931Y0131256800D01*
X0015164614Y0131248296D01*
X0015255981Y0131231289D01*
X0015340030Y0131205778D01*
X0015416762Y0131171762D01*
X0015486177Y0131129243D01*
X0015548275Y0131078221D01*
X0015603055Y0131018694D01*
X0015627397Y0130985388D01*
X0015627397Y0130985388D01*
X0015650634Y0130951199D01*
X0015692164Y0130877137D01*
X0015727761Y0130796252D01*
X0015757426Y0130708544D01*
X0015781157Y0130614014D01*
X0015798956Y0130512660D01*
X0015810822Y0130404484D01*
X0015816755Y0130289484D01*
X0015817249Y0130229142D01*
X0015817249Y0130229142D01*
X0015816903Y0130183673D01*
X0015812750Y0130092900D01*
X0015804444Y0130002324D01*
X0015791985Y0129911947D01*
X0015775373Y0129821767D01*
X0015754608Y0129731785D01*
X0015729690Y0129642000D01*
X0015700618Y0129552413D01*
X0015684352Y0129507702D01*
X0015684352Y0129507702D01*
X0015650172Y0129419764D01*
X0015572254Y0129250479D01*
X0015482865Y0129089104D01*
X0015382006Y0128935640D01*
X0015326797Y0128862204D01*
X0015326797Y0128862204D01*
X0015270138Y0128790614D01*
X0015151875Y0128659300D01*
X0015027680Y0128542224D01*
X0014930455Y0128464206D01*
X0014863908Y0128416348D01*
X0014830016Y0128393902D01*
X0014830016Y0128393902D01*
X0014795976Y0128372601D01*
X0014727649Y0128334532D01*
X0014659025Y0128301901D01*
X0014590105Y0128274708D01*
X0014520888Y0128252954D01*
X0014451374Y0128236639D01*
X0014381564Y0128225762D01*
X0014311457Y0128220324D01*
X0014276280Y0128219870D01*
X0014276276Y0128219870D01*
G36*
G01*
X0020307247Y0129105850D02*
X0022515863Y0133029467D01*
X0022528521Y0133029467D01*
X0022528519Y0133029463D01*
X0023503096Y0133029463D01*
X0023503096Y0133016806D01*
X0023098077Y0133016806D01*
X0022113484Y0128295810D01*
X0022617118Y0128295810D01*
X0022617118Y0128283152D01*
X0022110845Y0128283152D01*
X0022110845Y0128283152D01*
X0021509645Y0128283152D01*
X0021066657Y0128283152D01*
X0021066657Y0128295810D01*
X0021512346Y0128295810D01*
X0022518334Y0133011378D01*
X0019819959Y0128219872D01*
X0019807302Y0128219872D01*
X0019065939Y0132994751D01*
X0018082295Y0128295810D01*
X0018579589Y0128295810D01*
X0018579589Y0128283152D01*
X0017617671Y0128283152D01*
X0017617671Y0128295810D01*
X0018069627Y0128295810D01*
X0019054220Y0133016806D01*
X0018566932Y0133016806D01*
X0018566932Y0133029464D01*
X0019060550Y0133029464D01*
X0019060549Y0133029467D01*
X0019668077Y0133029467D01*
G37*
X0019807302Y0128219872D02*
X0019060549Y0133029467D01*
X0019668077Y0133029467D01*
X0020307247Y0129105850D01*
X0022515863Y0133029467D01*
X0022528521Y0133029467D01*
X0019819959Y0128219872D01*
X0019807302Y0128219872D01*
X0017617671Y0128283152D02*
X0017617671Y0128295810D01*
X0018579589Y0128295810D01*
X0018579589Y0128283152D01*
X0017617671Y0128283152D01*
X0018066988Y0128283152D02*
X0019054220Y0133016806D01*
X0018566932Y0133016806D01*
X0018566932Y0133029464D01*
X0019073206Y0133029464D01*
X0018079645Y0128283153D01*
X0018066988Y0128283152D01*
X0021066657Y0128283152D02*
X0021066657Y0128295810D01*
X0022617118Y0128295810D01*
X0022617118Y0128283152D01*
X0021066657Y0128283152D01*
X0021509645Y0128283152D02*
X0022522192Y0133029463D01*
X0023503096Y0133029463D01*
X0023503096Y0133016806D01*
X0023098077Y0133016806D01*
X0022110845Y0128283152D01*
X0021509645Y0128283152D01*
G36*
G01*
X0024827322Y0131225484D02*
X0024786286Y0131220837D01*
X0024745349Y0131211542D01*
X0024704511Y0131197600D01*
X0024663772Y0131179010D01*
X0024623132Y0131155773D01*
X0024562344Y0131112784D01*
X0024521968Y0131077154D01*
X0024481822Y0131039744D01*
X0024403508Y0130954706D01*
X0024327567Y0130857406D01*
X0024253999Y0130747846D01*
X0024218204Y0130687956D01*
X0024182936Y0130627276D01*
X0024115697Y0130500312D01*
X0024052413Y0130366624D01*
X0023993084Y0130226212D01*
X0023965068Y0130153205D01*
X0023937875Y0130080395D01*
X0023888434Y0129934446D01*
X0023844926Y0129788102D01*
X0023807351Y0129641362D01*
X0023791036Y0129567827D01*
X0023775875Y0129494754D01*
X0023752144Y0129353551D01*
X0023736324Y0129218281D01*
X0023728414Y0129088944D01*
X0023727755Y0129026747D01*
X0023728060Y0128979021D01*
X0023731719Y0128888841D01*
X0023739036Y0128804989D01*
X0023750012Y0128727466D01*
X0023764646Y0128656272D01*
X0023782939Y0128591405D01*
X0023804891Y0128532867D01*
X0023830501Y0128480658D01*
X0023844831Y0128457190D01*
X0023860050Y0128435115D01*
X0023892385Y0128395661D01*
X0023926993Y0128361844D01*
X0023963876Y0128333662D01*
X0024003033Y0128311118D01*
X0024044464Y0128294209D01*
X0024088170Y0128282936D01*
X0024134150Y0128277300D01*
X0024158085Y0128276830D01*
X0024181757Y0128277168D01*
X0024228528Y0128281222D01*
X0024274607Y0128289331D01*
X0024319993Y0128301493D01*
X0024364688Y0128317710D01*
X0024408690Y0128337980D01*
X0024452000Y0128362305D01*
X0024494618Y0128390684D01*
X0024515639Y0128406563D01*
X0024558059Y0128440677D01*
X0024639933Y0128517804D01*
X0024718247Y0128605611D01*
X0024793001Y0128704097D01*
X0024828895Y0128757790D01*
X0024864064Y0128813658D01*
X0024930117Y0128930338D01*
X0024991028Y0129052951D01*
X0025046797Y0129181497D01*
X0025072539Y0129248242D01*
X0025098149Y0129316371D01*
X0025144426Y0129453619D01*
X0025184770Y0129592053D01*
X0025219180Y0129731673D01*
X0025233913Y0129801978D01*
X0025247560Y0129872052D01*
X0025268919Y0130008904D01*
X0025283159Y0130141801D01*
X0025290279Y0130270742D01*
X0025290872Y0130333565D01*
X0025290477Y0130394806D01*
X0025285730Y0130512672D01*
X0025276237Y0130625002D01*
X0025261997Y0130731794D01*
X0025252900Y0130782883D01*
X0025243539Y0130832653D01*
X0025218226Y0130923624D01*
X0025185002Y0131004311D01*
X0025143867Y0131074715D01*
X0025120003Y0131105632D01*
X0025107923Y0131120349D01*
X0025081620Y0131146651D01*
X0025052747Y0131169196D01*
X0025021303Y0131187983D01*
X0024987288Y0131203013D01*
X0024950701Y0131214286D01*
X0024911544Y0131221801D01*
X0024894435Y0131223341D01*
X0024980548Y0131225336D01*
X0025007170Y0131214637D01*
X0025045833Y0131193377D01*
X0025080837Y0131167866D01*
X0025112182Y0131138103D01*
X0025126330Y0131121449D01*
X0025153193Y0131087401D01*
X0025198679Y0131011065D01*
X0025234276Y0130924840D01*
X0025259985Y0130828727D01*
X0025268720Y0130776551D01*
X0025277059Y0130723353D01*
X0025290110Y0130614979D01*
X0025298812Y0130504232D01*
X0025303162Y0130391111D01*
X0025303525Y0130333562D01*
X0025303096Y0130281056D01*
X0025297955Y0130173077D01*
X0025295861Y0130150371D01*
X0025303520Y0130197501D01*
X0025543999Y0131194226D01*
X0026078751Y0131194226D01*
X0025354147Y0128473008D01*
X0025348345Y0128449013D01*
X0025342017Y0128398386D01*
X0025341489Y0128371754D01*
X0025341786Y0128358504D01*
X0025345345Y0128333982D01*
X0025352464Y0128311832D01*
X0025363143Y0128292055D01*
X0025369965Y0128283156D01*
X0025378272Y0128274058D01*
X0025398839Y0128259818D01*
X0025424153Y0128250325D01*
X0025454213Y0128245579D01*
X0025471220Y0128245183D01*
X0025516739Y0128246238D01*
X0025604150Y0128258895D01*
X0025687210Y0128284209D01*
X0025765920Y0128322179D01*
X0025803462Y0128346438D01*
X0025841267Y0128373762D01*
X0025915231Y0128440606D01*
X0025987217Y0128522084D01*
X0026057225Y0128618197D01*
X0026091405Y0128672351D01*
X0026125387Y0128729900D01*
X0026193022Y0128858842D01*
X0026260261Y0129004395D01*
X0026327105Y0129166561D01*
X0026360362Y0129254565D01*
X0026369852Y0129251404D01*
X0026335804Y0129161851D01*
X0026267378Y0128996917D01*
X0026198556Y0128848990D01*
X0026129339Y0128718071D01*
X0026094566Y0128659698D01*
X0026060287Y0128603995D01*
X0025989092Y0128505113D01*
X0025914734Y0128421262D01*
X0025837210Y0128352440D01*
X0025797130Y0128324292D01*
X0025756259Y0128299275D01*
X0025669244Y0128260118D01*
X0025575899Y0128234013D01*
X0025476227Y0128220961D01*
X0025423754Y0128219873D01*
X0025423766Y0128219872D01*
X0025396384Y0128220185D01*
X0025344669Y0128223942D01*
X0025296613Y0128231457D01*
X0025252215Y0128242730D01*
X0025211476Y0128257760D01*
X0025174395Y0128276547D01*
X0025140973Y0128299092D01*
X0025111210Y0128325395D01*
X0025097852Y0128340112D01*
X0025085072Y0128355323D01*
X0025062230Y0128387558D01*
X0025042652Y0128421969D01*
X0025026336Y0128458555D01*
X0025007574Y0128517241D01*
X0024994521Y0128603466D01*
X0024993434Y0128650204D01*
X0024993961Y0128701886D01*
X0024996595Y0128745130D01*
X0025000283Y0128787321D01*
X0025006084Y0128821071D01*
X0025077440Y0129215078D01*
X0025040139Y0129124670D01*
X0024989116Y0129014319D01*
X0024961792Y0128960296D01*
X0024934534Y0128907757D01*
X0024876391Y0128807294D01*
X0024813898Y0128712367D01*
X0024747054Y0128622978D01*
X0024711819Y0128580591D01*
X0024676716Y0128539391D01*
X0024603544Y0128464241D01*
X0024526812Y0128397793D01*
X0024446520Y0128340046D01*
X0024404891Y0128314798D01*
X0024363460Y0128292055D01*
X0024277631Y0128256458D01*
X0024188242Y0128232726D01*
X0024095293Y0128220861D01*
X0024047336Y0128219872D01*
X0023994945Y0128220572D01*
X0023896261Y0128228977D01*
X0023804895Y0128245787D01*
X0023720846Y0128271002D01*
X0023644114Y0128304621D01*
X0023574699Y0128346646D01*
X0023512601Y0128397076D01*
X0023457821Y0128455910D01*
X0023433480Y0128488829D01*
X0023410630Y0128523405D01*
X0023369792Y0128598159D01*
X0023334788Y0128679638D01*
X0023305618Y0128767840D01*
X0023282282Y0128862766D01*
X0023264780Y0128964416D01*
X0023253112Y0129072791D01*
X0023247278Y0129187889D01*
X0023246792Y0129248239D01*
X0023247138Y0129293700D01*
X0023251291Y0129384374D01*
X0023259597Y0129474752D01*
X0023272056Y0129564833D01*
X0023288668Y0129654617D01*
X0023309433Y0129744105D01*
X0023334351Y0129833296D01*
X0023363422Y0129922190D01*
X0023379688Y0129966514D01*
X0023413868Y0130055211D01*
X0023491787Y0130225682D01*
X0023581176Y0130387848D01*
X0023682035Y0130541708D01*
X0023737243Y0130615176D01*
X0023793903Y0130686734D01*
X0023912165Y0130817653D01*
X0024036360Y0130933937D01*
X0024133586Y0131011090D01*
X0024200133Y0131058256D01*
X0024234024Y0131080315D01*
X0024268443Y0131102003D01*
X0024337364Y0131140765D01*
X0024406383Y0131173989D01*
X0024475501Y0131201675D01*
X0024544718Y0131223825D01*
X0024573133Y0131230635D01*
G37*
G36*
G01*
X0024815933Y0131257156D02*
X0024869230Y0131252904D01*
X0024918869Y0131244400D01*
X0024964849Y0131231645D01*
X0024980548Y0131225336D01*
X0024894435Y0131223341D01*
X0024869816Y0131225558D01*
X0024847881Y0131225872D01*
X0024827322Y0131225484D01*
X0024573133Y0131230635D01*
X0024614034Y0131240437D01*
X0024683448Y0131251511D01*
X0024752962Y0131257049D01*
X0024787760Y0131257510D01*
G37*
X0024047336Y0128219872D02*
X0024047336Y0128219872D01*
X0023994945Y0128220572D01*
X0023896261Y0128228977D01*
X0023804895Y0128245787D01*
X0023720846Y0128271002D01*
X0023644114Y0128304621D01*
X0023574699Y0128346646D01*
X0023512601Y0128397076D01*
X0023457821Y0128455910D01*
X0023433480Y0128488829D01*
X0023433480Y0128488829D01*
X0023410630Y0128523405D01*
X0023369792Y0128598159D01*
X0023334788Y0128679638D01*
X0023305618Y0128767840D01*
X0023282282Y0128862766D01*
X0023264780Y0128964416D01*
X0023253112Y0129072791D01*
X0023247278Y0129187889D01*
X0023246792Y0129248239D01*
X0023246792Y0129248239D01*
X0023247138Y0129293700D01*
X0023251291Y0129384374D01*
X0023259597Y0129474752D01*
X0023272056Y0129564833D01*
X0023288668Y0129654617D01*
X0023309433Y0129744105D01*
X0023334351Y0129833296D01*
X0023363422Y0129922190D01*
X0023379688Y0129966514D01*
X0023379688Y0129966514D01*
X0023413868Y0130055211D01*
X0023491787Y0130225682D01*
X0023581176Y0130387848D01*
X0023682035Y0130541708D01*
X0023737243Y0130615176D01*
X0023737243Y0130615176D01*
X0023793903Y0130686734D01*
X0023912165Y0130817653D01*
X0024036360Y0130933937D01*
X0024133586Y0131011090D01*
X0024200133Y0131058256D01*
X0024234024Y0131080315D01*
X0024234024Y0131080315D01*
X0024268443Y0131102003D01*
X0024337364Y0131140765D01*
X0024406383Y0131173989D01*
X0024475501Y0131201675D01*
X0024544718Y0131223825D01*
X0024614034Y0131240437D01*
X0024683448Y0131251511D01*
X0024752962Y0131257049D01*
X0024787760Y0131257510D01*
X0024787760Y0131257510D01*
X0024815933Y0131257156D01*
X0024869230Y0131252904D01*
X0024918869Y0131244400D01*
X0024964849Y0131231645D01*
X0025007170Y0131214637D01*
X0025045833Y0131193377D01*
X0025080837Y0131167866D01*
X0025112182Y0131138103D01*
X0025126330Y0131121449D01*
X0025126330Y0131121449D01*
X0025153193Y0131087401D01*
X0025198679Y0131011065D01*
X0025234276Y0130924840D01*
X0025259985Y0130828727D01*
X0025268720Y0130776551D01*
X0025268720Y0130776551D01*
X0025277059Y0130723353D01*
X0025290110Y0130614979D01*
X0025298812Y0130504232D01*
X0025303162Y0130391111D01*
X0025303525Y0130333562D01*
X0025303525Y0130333562D01*
X0025303096Y0130281056D01*
X0025297955Y0130173077D01*
X0025287671Y0130061539D01*
X0025272246Y0129946441D01*
X0025262391Y0129887409D01*
X0025262391Y0129887409D01*
X0025252503Y0129828080D01*
X0025228771Y0129709422D01*
X0025200293Y0129590764D01*
X0025167069Y0129472107D01*
X0025148480Y0129412778D01*
X0025148480Y0129412778D01*
X0025129132Y0129353679D01*
X0025086811Y0129237790D01*
X0025040139Y0129124670D01*
X0024989116Y0129014319D01*
X0024961792Y0128960296D01*
X0024961792Y0128960296D01*
X0024934534Y0128907757D01*
X0024876391Y0128807294D01*
X0024813898Y0128712367D01*
X0024747054Y0128622978D01*
X0024711819Y0128580591D01*
X0024711819Y0128580591D01*
X0024676716Y0128539391D01*
X0024603544Y0128464241D01*
X0024526812Y0128397793D01*
X0024446520Y0128340046D01*
X0024404891Y0128314798D01*
X0024404891Y0128314798D01*
X0024363460Y0128292055D01*
X0024277631Y0128256458D01*
X0024188242Y0128232726D01*
X0024095293Y0128220861D01*
X0024047336Y0128219872D01*
X0024047336Y0128219872D01*
X0024158083Y0128276830D02*
X0024158083Y0128276830D01*
X0024181757Y0128277168D01*
X0024228528Y0128281222D01*
X0024274607Y0128289331D01*
X0024319993Y0128301493D01*
X0024364688Y0128317710D01*
X0024408690Y0128337980D01*
X0024452000Y0128362305D01*
X0024494618Y0128390684D01*
X0024515639Y0128406563D01*
X0024515639Y0128406563D01*
X0024558059Y0128440677D01*
X0024639933Y0128517804D01*
X0024718247Y0128605611D01*
X0024793001Y0128704097D01*
X0024828895Y0128757790D01*
X0024828895Y0128757790D01*
X0024864064Y0128813658D01*
X0024930117Y0128930338D01*
X0024991028Y0129052951D01*
X0025046797Y0129181497D01*
X0025072539Y0129248242D01*
X0025072539Y0129248242D01*
X0025098149Y0129316371D01*
X0025144426Y0129453619D01*
X0025184770Y0129592053D01*
X0025219180Y0129731673D01*
X0025233913Y0129801978D01*
X0025233913Y0129801978D01*
X0025247560Y0129872052D01*
X0025268919Y0130008904D01*
X0025283159Y0130141801D01*
X0025290279Y0130270742D01*
X0025290872Y0130333565D01*
X0025290872Y0130333565D01*
X0025290477Y0130394806D01*
X0025285730Y0130512672D01*
X0025276237Y0130625002D01*
X0025261997Y0130731794D01*
X0025252900Y0130782883D01*
X0025252900Y0130782883D01*
X0025243539Y0130832653D01*
X0025218226Y0130923624D01*
X0025185002Y0131004311D01*
X0025143867Y0131074715D01*
X0025120003Y0131105632D01*
X0025120003Y0131105632D01*
X0025107923Y0131120349D01*
X0025081620Y0131146651D01*
X0025052747Y0131169196D01*
X0025021303Y0131187983D01*
X0024987288Y0131203013D01*
X0024950701Y0131214286D01*
X0024911544Y0131221801D01*
X0024869816Y0131225558D01*
X0024847881Y0131225872D01*
X0024847881Y0131225872D01*
X0024827322Y0131225484D01*
X0024786286Y0131220837D01*
X0024745349Y0131211542D01*
X0024704511Y0131197600D01*
X0024663772Y0131179010D01*
X0024623132Y0131155773D01*
X0024562344Y0131112784D01*
X0024521968Y0131077154D01*
X0024521968Y0131077154D01*
X0024481822Y0131039744D01*
X0024403508Y0130954706D01*
X0024327567Y0130857406D01*
X0024253999Y0130747846D01*
X0024218204Y0130687956D01*
X0024218204Y0130687956D01*
X0024182936Y0130627276D01*
X0024115697Y0130500312D01*
X0024052413Y0130366624D01*
X0023993084Y0130226212D01*
X0023965068Y0130153205D01*
X0023965068Y0130153205D01*
X0023937875Y0130080395D01*
X0023888434Y0129934446D01*
X0023844926Y0129788102D01*
X0023807351Y0129641362D01*
X0023791036Y0129567827D01*
X0023791036Y0129567827D01*
X0023775875Y0129494754D01*
X0023752144Y0129353551D01*
X0023736324Y0129218281D01*
X0023728414Y0129088944D01*
X0023727755Y0129026747D01*
X0023727755Y0129026747D01*
X0023728060Y0128979021D01*
X0023731719Y0128888841D01*
X0023739036Y0128804989D01*
X0023750012Y0128727466D01*
X0023764646Y0128656272D01*
X0023782939Y0128591405D01*
X0023804891Y0128532867D01*
X0023830501Y0128480658D01*
X0023844831Y0128457190D01*
X0023844831Y0128457190D01*
X0023860050Y0128435115D01*
X0023892385Y0128395661D01*
X0023926993Y0128361844D01*
X0023963876Y0128333662D01*
X0024003033Y0128311118D01*
X0024044464Y0128294209D01*
X0024088170Y0128282936D01*
X0024134150Y0128277300D01*
X0024158087Y0128276830D01*
X0024158083Y0128276830D01*
X0025423766Y0128219872D02*
X0025423766Y0128219872D01*
X0025396384Y0128220185D01*
X0025344669Y0128223942D01*
X0025296613Y0128231457D01*
X0025252215Y0128242730D01*
X0025211476Y0128257760D01*
X0025174395Y0128276547D01*
X0025140973Y0128299092D01*
X0025111210Y0128325395D01*
X0025097852Y0128340112D01*
X0025097852Y0128340112D01*
X0025085072Y0128355323D01*
X0025062230Y0128387558D01*
X0025042652Y0128421969D01*
X0025026336Y0128458555D01*
X0025007574Y0128517241D01*
X0024994521Y0128603466D01*
X0024993434Y0128650204D01*
X0024993434Y0128650204D01*
X0024993961Y0128701886D01*
X0024996595Y0128745130D01*
X0024996595Y0128745130D01*
X0025000283Y0128787321D01*
X0025006084Y0128821071D01*
X0025078861Y0129222925D01*
X0025221250Y0129691228D01*
X0025303520Y0130197501D01*
X0025543999Y0131194226D01*
X0026078751Y0131194226D01*
X0025354147Y0128473008D01*
X0025354147Y0128473008D01*
X0025348345Y0128449013D01*
X0025342017Y0128398386D01*
X0025341489Y0128371754D01*
X0025341489Y0128371754D01*
X0025341786Y0128358504D01*
X0025345345Y0128333982D01*
X0025352464Y0128311832D01*
X0025363143Y0128292055D01*
X0025369965Y0128283156D01*
X0025369965Y0128283156D01*
X0025378272Y0128274058D01*
X0025398839Y0128259818D01*
X0025424153Y0128250325D01*
X0025454213Y0128245579D01*
X0025471220Y0128245183D01*
X0025471220Y0128245183D01*
X0025516739Y0128246238D01*
X0025604150Y0128258895D01*
X0025687210Y0128284209D01*
X0025765920Y0128322179D01*
X0025803462Y0128346438D01*
X0025803462Y0128346438D01*
X0025841267Y0128373762D01*
X0025915231Y0128440606D01*
X0025987217Y0128522084D01*
X0026057225Y0128618197D01*
X0026091405Y0128672351D01*
X0026091405Y0128672351D01*
X0026125387Y0128729900D01*
X0026193022Y0128858842D01*
X0026260261Y0129004395D01*
X0026327105Y0129166561D01*
X0026360362Y0129254565D01*
X0026369852Y0129251404D01*
X0026369852Y0129251404D01*
X0026335804Y0129161851D01*
X0026267378Y0128996917D01*
X0026198556Y0128848990D01*
X0026129339Y0128718071D01*
X0026094566Y0128659698D01*
X0026094566Y0128659698D01*
X0026060287Y0128603995D01*
X0025989092Y0128505113D01*
X0025914734Y0128421262D01*
X0025837210Y0128352440D01*
X0025797130Y0128324292D01*
X0025797130Y0128324292D01*
X0025756259Y0128299275D01*
X0025669244Y0128260118D01*
X0025575899Y0128234013D01*
X0025476227Y0128220961D01*
X0025423754Y0128219873D01*
X0025423766Y0128219872D01*
G36*
G01*
X0028109287Y0131250293D02*
X0028237833Y0131239614D01*
X0028355700Y0131218255D01*
X0028462887Y0131186218D01*
X0028512032Y0131165749D01*
X0028560088Y0131143929D01*
X0028646312Y0131095675D01*
X0028720671Y0131041884D01*
X0028783164Y0130982555D01*
X0028809467Y0130950583D01*
X0028834484Y0130918117D01*
X0028873641Y0130852855D01*
X0028899746Y0130787198D01*
X0028912798Y0130721145D01*
X0028913886Y0130687954D01*
X0028912963Y0130646193D01*
X0028901888Y0130572230D01*
X0028879739Y0130509736D01*
X0028855513Y0130470752D01*
X0028836132Y0130448108D01*
X0028825288Y0130437981D01*
X0028803666Y0130419787D01*
X0028757785Y0130391310D01*
X0028708740Y0130372324D01*
X0028656530Y0130362832D01*
X0028629107Y0130362041D01*
X0028600102Y0130362799D01*
X0028544728Y0130371896D01*
X0028492519Y0130390090D01*
X0028443474Y0130417381D01*
X0028420270Y0130434817D01*
X0028399043Y0130454626D01*
X0028365819Y0130502485D01*
X0028343669Y0130560232D01*
X0028332594Y0130627867D01*
X0028331671Y0130665804D01*
X0028332528Y0130696260D01*
X0028342812Y0130753216D01*
X0028363379Y0130805425D01*
X0028394230Y0130852888D01*
X0028413941Y0130874642D01*
X0028435761Y0130895869D01*
X0028484015Y0130929093D01*
X0028537807Y0130951242D01*
X0028597135Y0130962317D01*
X0028629107Y0130963240D01*
X0028661705Y0130962416D01*
X0028720638Y0130952528D01*
X0028772057Y0130932751D01*
X0028815960Y0130903087D01*
X0028834781Y0130884135D01*
X0028852217Y0130864688D01*
X0028862363Y0130848513D01*
X0028862210Y0130848900D01*
X0028824239Y0130912580D01*
X0028799980Y0130944255D01*
X0028774469Y0130975436D01*
X0028713558Y0131033182D01*
X0028640781Y0131085392D01*
X0028556139Y0131132064D01*
X0028508873Y0131153092D01*
X0028460487Y0131173561D01*
X0028354487Y0131205599D01*
X0028237411Y0131226957D01*
X0028109261Y0131237636D01*
X0028040571Y0131238526D01*
X0028000063Y0131238032D01*
X0027917398Y0131232099D01*
X0027832755Y0131220234D01*
X0027746135Y0131202435D01*
X0027702001Y0131191064D01*
X0027659020Y0131178572D01*
X0027578333Y0131147326D01*
X0027503974Y0131108565D01*
X0027435944Y0131062288D01*
X0027404565Y0131036018D01*
X0027389848Y0131022364D01*
X0027363546Y0130992997D01*
X0027341001Y0130961157D01*
X0027322213Y0130926845D01*
X0027307183Y0130890061D01*
X0027295911Y0130850805D01*
X0027288396Y0130809077D01*
X0027284639Y0130764877D01*
X0027284325Y0130741747D01*
X0027285413Y0130702590D01*
X0027298465Y0130628231D01*
X0027324570Y0130558618D01*
X0027363727Y0130493752D01*
X0027388744Y0130463296D01*
X0027416266Y0130433401D01*
X0027477573Y0130375259D01*
X0027546394Y0130319094D01*
X0027622731Y0130264907D01*
X0027664030Y0130238638D01*
X0027834897Y0130136856D01*
X0028018422Y0130032964D01*
X0028065654Y0130006629D01*
X0028157811Y0129951651D01*
X0028247200Y0129893904D01*
X0028333820Y0129833389D01*
X0028375977Y0129801977D01*
X0028417244Y0129769940D01*
X0028493185Y0129701909D01*
X0028561215Y0129629133D01*
X0028621335Y0129551610D01*
X0028648099Y0129510870D01*
X0028661267Y0129490138D01*
X0028684800Y0129447026D01*
X0028704972Y0129401936D01*
X0028721782Y0129354868D01*
X0028741113Y0129280806D01*
X0028754561Y0129174805D01*
X0028755682Y0129118508D01*
X0028755253Y0129083513D01*
X0028750112Y0129015581D01*
X0028739828Y0128950122D01*
X0028724402Y0128887134D01*
X0028703835Y0128826619D01*
X0028678126Y0128768575D01*
X0028647275Y0128713004D01*
X0028611282Y0128659905D01*
X0028591143Y0128634385D01*
X0028570337Y0128609706D01*
X0028526334Y0128562737D01*
X0028479464Y0128518636D01*
X0028429727Y0128477402D01*
X0028377122Y0128439036D01*
X0028321650Y0128403538D01*
X0028263309Y0128370907D01*
X0028202102Y0128341144D01*
X0028170303Y0128327457D01*
X0028106030Y0128301682D01*
X0027975507Y0128261338D01*
X0027842610Y0128234442D01*
X0027707340Y0128220994D01*
X0027638717Y0128219874D01*
X0027638716Y0128219872D01*
X0027572531Y0128220729D01*
X0027442799Y0128231012D01*
X0027316230Y0128251580D01*
X0027192826Y0128282431D01*
X0027132443Y0128302141D01*
X0027074004Y0128324291D01*
X0026966025Y0128376500D01*
X0026868726Y0128438202D01*
X0026782106Y0128509396D01*
X0026743245Y0128548949D01*
X0026724655Y0128569698D01*
X0026691431Y0128613008D01*
X0026662953Y0128658493D01*
X0026639222Y0128706154D01*
X0026620236Y0128755990D01*
X0026605997Y0128808002D01*
X0026596505Y0128862189D01*
X0026591759Y0128918552D01*
X0026591363Y0128947639D01*
X0026592220Y0128982050D01*
X0026602504Y0129046917D01*
X0026623071Y0129107036D01*
X0026653922Y0129162410D01*
X0026673632Y0129188119D01*
X0026695650Y0129213136D01*
X0026733126Y0129243319D01*
X0026760418Y0129259635D01*
X0026804815Y0129278398D01*
X0026871264Y0129291450D01*
X0026907784Y0129292538D01*
X0026939723Y0129291582D01*
X0026998656Y0129280112D01*
X0027051656Y0129257171D01*
X0027098724Y0129222761D01*
X0027119786Y0129200776D01*
X0027139496Y0129178099D01*
X0027170347Y0129127472D01*
X0027190915Y0129070516D01*
X0027201198Y0129007232D01*
X0027202055Y0128972953D01*
X0027201099Y0128937290D01*
X0027189629Y0128873215D01*
X0027166689Y0128817841D01*
X0027132278Y0128771169D01*
X0027110293Y0128751458D01*
X0027087056Y0128733264D01*
X0027037616Y0128704786D01*
X0026984615Y0128685801D01*
X0026928055Y0128676309D01*
X0026898292Y0128675518D01*
X0026857684Y0128676704D01*
X0026800333Y0128686492D01*
X0026763944Y0128697171D01*
X0026746409Y0128703993D01*
X0026730061Y0128711442D01*
X0026700001Y0128729636D01*
X0026673105Y0128751785D01*
X0026649374Y0128777890D01*
X0026638826Y0128792591D01*
X0026628972Y0128807983D01*
X0026613547Y0128842394D01*
X0026610496Y0128853893D01*
X0026618344Y0128808305D01*
X0026632287Y0128756590D01*
X0026650876Y0128707149D01*
X0026674113Y0128659983D01*
X0026701998Y0128615091D01*
X0026734530Y0128572473D01*
X0026752732Y0128552111D01*
X0026790834Y0128513350D01*
X0026876268Y0128443737D01*
X0026972776Y0128383617D01*
X0027080360Y0128332990D01*
X0027138766Y0128311632D01*
X0027198325Y0128292679D01*
X0027319752Y0128263015D01*
X0027443947Y0128243239D01*
X0027570911Y0128233350D01*
X0027635546Y0128232526D01*
X0027680010Y0128233120D01*
X0027770585Y0128240240D01*
X0027863138Y0128254479D01*
X0027957669Y0128275839D01*
X0028005758Y0128289485D01*
X0028054177Y0128304450D01*
X0028144753Y0128341630D01*
X0028227813Y0128387511D01*
X0028303359Y0128442093D01*
X0028338000Y0128473009D01*
X0028355041Y0128489044D01*
X0028385496Y0128523257D01*
X0028411601Y0128560041D01*
X0028433355Y0128599396D01*
X0028450758Y0128641322D01*
X0028463810Y0128685818D01*
X0028472511Y0128732886D01*
X0028476862Y0128782524D01*
X0028477225Y0128808415D01*
X0028476104Y0128852285D01*
X0028462656Y0128935741D01*
X0028435761Y0129014055D01*
X0028395417Y0129087228D01*
X0028369642Y0129121671D01*
X0028342087Y0129155456D01*
X0028280385Y0129220718D01*
X0028210772Y0129283211D01*
X0028133249Y0129342935D01*
X0028091192Y0129371644D01*
X0028004835Y0129428336D01*
X0027822893Y0129539083D01*
X0027727308Y0129593138D01*
X0027631722Y0129648908D01*
X0027449781Y0129764401D01*
X0027363424Y0129824126D01*
X0027321367Y0129855240D01*
X0027243844Y0129920107D01*
X0027174231Y0129988137D01*
X0027112529Y0130059332D01*
X0027084974Y0130096248D01*
X0027059199Y0130134712D01*
X0027018855Y0130216586D01*
X0026991960Y0130304393D01*
X0026978512Y0130398133D01*
X0026977391Y0130447475D01*
X0026977745Y0130476603D01*
X0026981997Y0130533460D01*
X0026990501Y0130588636D01*
X0027003257Y0130642131D01*
X0027020265Y0130693945D01*
X0027041524Y0130744078D01*
X0027067035Y0130792529D01*
X0027096799Y0130839301D01*
X0027113452Y0130861986D01*
X0027130732Y0130884712D01*
X0027168010Y0130928022D01*
X0027208551Y0130968761D01*
X0027252356Y0131006929D01*
X0027299423Y0131042527D01*
X0027349754Y0131075553D01*
X0027430960Y0131120593D01*
X0027489993Y0131146764D01*
X0027520234Y0131159545D01*
X0027582529Y0131182386D01*
X0027679779Y0131210938D01*
X0027817422Y0131237043D01*
X0027963767Y0131250095D01*
X0028040565Y0131251183D01*
G37*
X0027638716Y0128219872D02*
X0027638716Y0128219872D01*
X0027572531Y0128220729D01*
X0027442799Y0128231012D01*
X0027316230Y0128251580D01*
X0027192826Y0128282431D01*
X0027132443Y0128302141D01*
X0027132443Y0128302141D01*
X0027074004Y0128324291D01*
X0026966025Y0128376500D01*
X0026868726Y0128438202D01*
X0026782106Y0128509396D01*
X0026743245Y0128548949D01*
X0026743245Y0128548949D01*
X0026724655Y0128569698D01*
X0026691431Y0128613008D01*
X0026662953Y0128658493D01*
X0026639222Y0128706154D01*
X0026620236Y0128755990D01*
X0026605997Y0128808002D01*
X0026596505Y0128862189D01*
X0026591759Y0128918552D01*
X0026591363Y0128947639D01*
X0026591363Y0128947639D01*
X0026592220Y0128982050D01*
X0026602504Y0129046917D01*
X0026623071Y0129107036D01*
X0026653922Y0129162410D01*
X0026673632Y0129188119D01*
X0026673632Y0129188119D01*
X0026695650Y0129213136D01*
X0026733126Y0129243319D01*
X0026760418Y0129259635D01*
X0026804815Y0129278398D01*
X0026871264Y0129291450D01*
X0026907784Y0129292538D01*
X0026907784Y0129292538D01*
X0026939723Y0129291582D01*
X0026998656Y0129280112D01*
X0027051656Y0129257171D01*
X0027098724Y0129222761D01*
X0027119786Y0129200776D01*
X0027119786Y0129200776D01*
X0027139496Y0129178099D01*
X0027170347Y0129127472D01*
X0027190915Y0129070516D01*
X0027201198Y0129007232D01*
X0027202055Y0128972953D01*
X0027202055Y0128972953D01*
X0027201099Y0128937290D01*
X0027189629Y0128873215D01*
X0027166689Y0128817841D01*
X0027132278Y0128771169D01*
X0027110293Y0128751458D01*
X0027110293Y0128751458D01*
X0027087056Y0128733264D01*
X0027037616Y0128704786D01*
X0026984615Y0128685801D01*
X0026928055Y0128676309D01*
X0026898292Y0128675518D01*
X0026898292Y0128675518D01*
X0026857684Y0128676704D01*
X0026800333Y0128686492D01*
X0026763944Y0128697171D01*
X0026746409Y0128703993D01*
X0026746409Y0128703993D01*
X0026730061Y0128711442D01*
X0026700001Y0128729636D01*
X0026673105Y0128751785D01*
X0026649374Y0128777890D01*
X0026638826Y0128792591D01*
X0026638826Y0128792591D01*
X0026628972Y0128807983D01*
X0026613547Y0128842394D01*
X0026603263Y0128881156D01*
X0026598122Y0128924268D01*
X0026597693Y0128947637D01*
X0026604015Y0128947637D01*
X0026604015Y0128947637D01*
X0026604402Y0128918558D01*
X0026609050Y0128862294D01*
X0026618344Y0128808305D01*
X0026632287Y0128756590D01*
X0026650876Y0128707149D01*
X0026674113Y0128659983D01*
X0026701998Y0128615091D01*
X0026734530Y0128572473D01*
X0026752732Y0128552111D01*
X0026752732Y0128552111D01*
X0026790834Y0128513350D01*
X0026876268Y0128443737D01*
X0026972776Y0128383617D01*
X0027080360Y0128332990D01*
X0027138766Y0128311632D01*
X0027138766Y0128311632D01*
X0027198325Y0128292679D01*
X0027319752Y0128263015D01*
X0027443947Y0128243239D01*
X0027570911Y0128233350D01*
X0027635546Y0128232526D01*
X0027635546Y0128232526D01*
X0027680010Y0128233120D01*
X0027770585Y0128240240D01*
X0027863138Y0128254479D01*
X0027957669Y0128275839D01*
X0028005758Y0128289485D01*
X0028005758Y0128289485D01*
X0028054177Y0128304450D01*
X0028144753Y0128341630D01*
X0028227813Y0128387511D01*
X0028303359Y0128442093D01*
X0028338000Y0128473009D01*
X0028338000Y0128473009D01*
X0028355041Y0128489044D01*
X0028385496Y0128523257D01*
X0028411601Y0128560041D01*
X0028433355Y0128599396D01*
X0028450758Y0128641322D01*
X0028463810Y0128685818D01*
X0028472511Y0128732886D01*
X0028476862Y0128782524D01*
X0028477225Y0128808415D01*
X0028477225Y0128808415D01*
X0028476104Y0128852285D01*
X0028462656Y0128935741D01*
X0028435761Y0129014055D01*
X0028395417Y0129087228D01*
X0028369642Y0129121671D01*
X0028369642Y0129121671D01*
X0028342087Y0129155456D01*
X0028280385Y0129220718D01*
X0028210772Y0129283211D01*
X0028133249Y0129342935D01*
X0028091192Y0129371644D01*
X0028091192Y0129371644D01*
X0028004835Y0129428336D01*
X0027822893Y0129539083D01*
X0027727308Y0129593138D01*
X0027727308Y0129593138D01*
X0027631722Y0129648908D01*
X0027449781Y0129764401D01*
X0027363424Y0129824126D01*
X0027363424Y0129824126D01*
X0027321367Y0129855240D01*
X0027243844Y0129920107D01*
X0027174231Y0129988137D01*
X0027112529Y0130059332D01*
X0027084974Y0130096248D01*
X0027084974Y0130096248D01*
X0027059199Y0130134712D01*
X0027018855Y0130216586D01*
X0026991960Y0130304393D01*
X0026978512Y0130398133D01*
X0026977391Y0130447475D01*
X0026977391Y0130447475D01*
X0026977745Y0130476603D01*
X0026981997Y0130533460D01*
X0026990501Y0130588636D01*
X0027003257Y0130642131D01*
X0027020265Y0130693945D01*
X0027041524Y0130744078D01*
X0027067035Y0130792529D01*
X0027096799Y0130839301D01*
X0027113452Y0130861986D01*
X0027113452Y0130861986D01*
X0027130732Y0130884712D01*
X0027168010Y0130928022D01*
X0027208551Y0130968761D01*
X0027252356Y0131006929D01*
X0027299423Y0131042527D01*
X0027349754Y0131075553D01*
X0027430960Y0131120593D01*
X0027489993Y0131146764D01*
X0027489993Y0131146764D01*
X0027520234Y0131159545D01*
X0027582529Y0131182386D01*
X0027679779Y0131210938D01*
X0027817422Y0131237043D01*
X0027963767Y0131250095D01*
X0028040565Y0131251183D01*
X0028040565Y0131251183D01*
X0028109287Y0131250293D01*
X0028237833Y0131239614D01*
X0028355700Y0131218255D01*
X0028462887Y0131186218D01*
X0028512032Y0131165749D01*
X0028512032Y0131165749D01*
X0028560088Y0131143929D01*
X0028646312Y0131095675D01*
X0028720671Y0131041884D01*
X0028783164Y0130982555D01*
X0028809467Y0130950583D01*
X0028809467Y0130950583D01*
X0028834484Y0130918117D01*
X0028873641Y0130852855D01*
X0028899746Y0130787198D01*
X0028912798Y0130721145D01*
X0028913886Y0130687954D01*
X0028913886Y0130687954D01*
X0028912963Y0130646193D01*
X0028901888Y0130572230D01*
X0028879739Y0130509736D01*
X0028855513Y0130470752D01*
X0028836132Y0130448108D01*
X0028825288Y0130437981D01*
X0028825288Y0130437981D01*
X0028803666Y0130419787D01*
X0028757785Y0130391310D01*
X0028708740Y0130372324D01*
X0028656530Y0130362832D01*
X0028629107Y0130362041D01*
X0028629107Y0130362041D01*
X0028600102Y0130362799D01*
X0028544728Y0130371896D01*
X0028492519Y0130390090D01*
X0028443474Y0130417381D01*
X0028420270Y0130434817D01*
X0028420270Y0130434817D01*
X0028399043Y0130454626D01*
X0028365819Y0130502485D01*
X0028343669Y0130560232D01*
X0028332594Y0130627867D01*
X0028331671Y0130665804D01*
X0028331671Y0130665804D01*
X0028332528Y0130696260D01*
X0028342812Y0130753216D01*
X0028363379Y0130805425D01*
X0028394230Y0130852888D01*
X0028413941Y0130874642D01*
X0028413941Y0130874642D01*
X0028435761Y0130895869D01*
X0028484015Y0130929093D01*
X0028537807Y0130951242D01*
X0028597135Y0130962317D01*
X0028629107Y0130963240D01*
X0028629107Y0130963240D01*
X0028661705Y0130962416D01*
X0028720638Y0130952528D01*
X0028772057Y0130932751D01*
X0028815960Y0130903087D01*
X0028834781Y0130884135D01*
X0028834781Y0130884135D01*
X0028852217Y0130864688D01*
X0028879508Y0130821180D01*
X0028897702Y0130772135D01*
X0028906799Y0130717553D01*
X0028907557Y0130687954D01*
X0028901235Y0130687954D01*
X0028901235Y0130687954D01*
X0028900180Y0130720354D01*
X0028887524Y0130784825D01*
X0028862210Y0130848900D01*
X0028824239Y0130912580D01*
X0028799980Y0130944255D01*
X0028799980Y0130944255D01*
X0028774469Y0130975436D01*
X0028713558Y0131033182D01*
X0028640781Y0131085392D01*
X0028556139Y0131132064D01*
X0028508873Y0131153092D01*
X0028508873Y0131153092D01*
X0028460487Y0131173561D01*
X0028354487Y0131205599D01*
X0028237411Y0131226957D01*
X0028109261Y0131237636D01*
X0028040571Y0131238526D01*
X0028040571Y0131238526D01*
X0028000063Y0131238032D01*
X0027917398Y0131232099D01*
X0027832755Y0131220234D01*
X0027746135Y0131202435D01*
X0027702001Y0131191064D01*
X0027702001Y0131191064D01*
X0027659020Y0131178572D01*
X0027578333Y0131147326D01*
X0027503974Y0131108565D01*
X0027435944Y0131062288D01*
X0027404565Y0131036018D01*
X0027404565Y0131036018D01*
X0027389848Y0131022364D01*
X0027363546Y0130992997D01*
X0027341001Y0130961157D01*
X0027322213Y0130926845D01*
X0027307183Y0130890061D01*
X0027295911Y0130850805D01*
X0027288396Y0130809077D01*
X0027284639Y0130764877D01*
X0027284325Y0130741747D01*
X0027284325Y0130741747D01*
X0027285413Y0130702590D01*
X0027298465Y0130628231D01*
X0027324570Y0130558618D01*
X0027363727Y0130493752D01*
X0027388744Y0130463296D01*
X0027388744Y0130463296D01*
X0027416266Y0130433401D01*
X0027477573Y0130375259D01*
X0027546394Y0130319094D01*
X0027622731Y0130264907D01*
X0027664030Y0130238638D01*
X0027664030Y0130238638D01*
X0027834897Y0130136856D01*
X0028018422Y0130032964D01*
X0028018422Y0130032964D01*
X0028065654Y0130006629D01*
X0028157811Y0129951651D01*
X0028247200Y0129893904D01*
X0028333820Y0129833389D01*
X0028375977Y0129801977D01*
X0028375977Y0129801977D01*
X0028417244Y0129769940D01*
X0028493185Y0129701909D01*
X0028561215Y0129629133D01*
X0028621335Y0129551610D01*
X0028648099Y0129510870D01*
X0028648099Y0129510870D01*
X0028661267Y0129490138D01*
X0028684800Y0129447026D01*
X0028704972Y0129401936D01*
X0028721782Y0129354868D01*
X0028741113Y0129280806D01*
X0028754561Y0129174805D01*
X0028755682Y0129118508D01*
X0028755682Y0129118508D01*
X0028755253Y0129083513D01*
X0028750112Y0129015581D01*
X0028739828Y0128950122D01*
X0028724402Y0128887134D01*
X0028703835Y0128826619D01*
X0028678126Y0128768575D01*
X0028647275Y0128713004D01*
X0028611282Y0128659905D01*
X0028591143Y0128634385D01*
X0028591143Y0128634385D01*
X0028570337Y0128609706D01*
X0028526334Y0128562737D01*
X0028479464Y0128518636D01*
X0028429727Y0128477402D01*
X0028377122Y0128439036D01*
X0028321650Y0128403538D01*
X0028263309Y0128370907D01*
X0028202102Y0128341144D01*
X0028170303Y0128327457D01*
X0028170303Y0128327457D01*
X0028106030Y0128301682D01*
X0027975507Y0128261338D01*
X0027842610Y0128234442D01*
X0027707340Y0128220994D01*
X0027638717Y0128219874D01*
X0027638716Y0128219872D01*
G36*
G01*
X0030358416Y0130064517D02*
X0030318567Y0130047213D01*
X0030281981Y0130026448D01*
X0030248658Y0130002222D01*
X0030233356Y0129988667D01*
X0030204746Y0129961376D01*
X0030154119Y0129902838D01*
X0030136414Y0129876609D01*
X0030146998Y0129870274D01*
X0030189715Y0129851288D01*
X0030214370Y0129843112D01*
X0030241004Y0129835862D01*
X0030307452Y0129827953D01*
X0030347267Y0129827293D01*
X0030386984Y0129828315D01*
X0030460157Y0129840576D01*
X0030525814Y0129865099D01*
X0030583956Y0129901883D01*
X0030609896Y0129925383D01*
X0030634946Y0129951356D01*
X0030682409Y0130009894D01*
X0030726300Y0130075731D01*
X0030695298Y0130086988D01*
X0030621334Y0130098458D01*
X0030578255Y0130099414D01*
X0030523178Y0130098260D01*
X0030519803Y0130105556D01*
X0030532735Y0130107356D01*
X0030594833Y0130111707D01*
X0030625717Y0130112069D01*
X0030666423Y0130111542D01*
X0030742717Y0130105282D01*
X0030767843Y0130150702D01*
X0030787091Y0130191177D01*
X0030864614Y0130364681D01*
X0030948466Y0130561389D01*
X0030982811Y0130641384D01*
X0031054797Y0130786542D01*
X0031130738Y0130913902D01*
X0031210634Y0131023462D01*
X0031252230Y0131070826D01*
X0031273391Y0131093676D01*
X0031317690Y0131134514D01*
X0031364362Y0131169518D01*
X0031413407Y0131198688D01*
X0031464825Y0131222024D01*
X0031518617Y0131239526D01*
X0031574781Y0131251194D01*
X0031633319Y0131257028D01*
X0031663577Y0131257515D01*
X0031698746Y0131256789D01*
X0031764798Y0131248088D01*
X0031825709Y0131230686D01*
X0031881479Y0131204583D01*
X0031907221Y0131187905D01*
X0031932040Y0131170700D01*
X0031976734Y0131130356D01*
X0032015496Y0131082893D01*
X0032048324Y0131028311D01*
X0032062267Y0130998053D01*
X0032075913Y0130966773D01*
X0032097273Y0130899929D01*
X0032111512Y0130827944D01*
X0032118632Y0130750816D01*
X0032119225Y0130710110D01*
X0032118138Y0130671975D01*
X0032105085Y0130601967D01*
X0032086323Y0130554627D01*
X0032070007Y0130525259D01*
X0032039824Y0130484496D01*
X0032014807Y0130460138D01*
X0031989295Y0130437395D01*
X0031936295Y0130401798D01*
X0031880921Y0130378066D01*
X0031823174Y0130366200D01*
X0031793312Y0130365211D01*
X0031764241Y0130366035D01*
X0031708076Y0130375924D01*
X0031654285Y0130395700D01*
X0031602866Y0130425364D01*
X0031578146Y0130444317D01*
X0031566140Y0130454790D01*
X0031544683Y0130477631D01*
X0031526291Y0130502747D01*
X0031510965Y0130530137D01*
X0031493339Y0130575202D01*
X0031481078Y0130643628D01*
X0031480056Y0130681632D01*
X0031481012Y0130715054D01*
X0031492482Y0130775965D01*
X0031515423Y0130829756D01*
X0031549833Y0130876428D01*
X0031571818Y0130896798D01*
X0031595220Y0130916508D01*
X0031646638Y0130947359D01*
X0031703594Y0130967927D01*
X0031766087Y0130978210D01*
X0031799641Y0130979067D01*
X0031820076Y0130978705D01*
X0031859629Y0130974354D01*
X0031897599Y0130965653D01*
X0031933988Y0130952601D01*
X0031951523Y0130944263D01*
X0031969420Y0130935298D01*
X0032002249Y0130914731D01*
X0032031518Y0130890999D01*
X0032057227Y0130864103D01*
X0032068598Y0130849337D01*
X0032079212Y0130834109D01*
X0032095825Y0130801676D01*
X0032103443Y0130777733D01*
X0032099294Y0130823627D01*
X0032085846Y0130893239D01*
X0032065674Y0130958106D01*
X0032052787Y0130988561D01*
X0032038878Y0131018061D01*
X0032006445Y0131071457D01*
X0031968474Y0131118129D01*
X0031924966Y0131158077D01*
X0031900905Y0131175249D01*
X0031875954Y0131191928D01*
X0031821767Y0131218034D01*
X0031762438Y0131235438D01*
X0031697967Y0131244140D01*
X0031663590Y0131244865D01*
X0031633711Y0131244363D01*
X0031575766Y0131238331D01*
X0031519997Y0131226268D01*
X0031466403Y0131208172D01*
X0031414985Y0131184045D01*
X0031365742Y0131153887D01*
X0031318675Y0131117696D01*
X0031273783Y0131075474D01*
X0031252243Y0131051849D01*
X0031210779Y0131003167D01*
X0031132464Y0130893606D01*
X0031059687Y0130769411D01*
X0030992448Y0130630581D01*
X0030961135Y0130555069D01*
X0030918551Y0130449463D01*
X0030834699Y0130258028D01*
X0030793433Y0130172200D01*
X0030772635Y0130131032D01*
X0030756169Y0130102995D01*
X0030815537Y0130092556D01*
X0030882381Y0130073569D01*
X0030913660Y0130061439D01*
X0030944775Y0130048057D01*
X0031001730Y0130014041D01*
X0031052358Y0129971324D01*
X0031096657Y0129919907D01*
X0031116169Y0129890572D01*
X0031135352Y0129860381D01*
X0031167785Y0129790768D01*
X0031193099Y0129710081D01*
X0031211293Y0129618319D01*
X0031217424Y0129567823D01*
X0031222301Y0129515284D01*
X0031225465Y0129399000D01*
X0031220718Y0129269267D01*
X0031208062Y0129126086D01*
X0031198437Y0129048893D01*
X0031087690Y0128435037D01*
X0031084529Y0128423965D01*
X0031081368Y0128406561D01*
X0031081368Y0128381246D01*
X0031081698Y0128366530D01*
X0031085653Y0128340227D01*
X0031093564Y0128317682D01*
X0031105429Y0128298894D01*
X0031121250Y0128283865D01*
X0031141027Y0128272592D01*
X0031164758Y0128265077D01*
X0031192445Y0128261320D01*
X0031207937Y0128261007D01*
X0031252236Y0128262226D01*
X0031340834Y0128276860D01*
X0031429431Y0128306129D01*
X0031518029Y0128350033D01*
X0031562328Y0128378082D01*
X0031606495Y0128409328D01*
X0031693511Y0128483687D01*
X0031778944Y0128572285D01*
X0031862796Y0128675122D01*
X0031904062Y0128732473D01*
X0031944900Y0128792231D01*
X0032023610Y0128923941D01*
X0032098760Y0129070285D01*
X0032170350Y0129231264D01*
X0032204662Y0129317851D01*
X0032214152Y0129311530D01*
X0032188632Y0129246886D01*
X0032135533Y0129123778D01*
X0032079961Y0129008087D01*
X0032021918Y0128899812D01*
X0031961402Y0128798953D01*
X0031898415Y0128705510D01*
X0031832955Y0128619483D01*
X0031765024Y0128540872D01*
X0031730028Y0128504657D01*
X0031694620Y0128469801D01*
X0031621745Y0128407506D01*
X0031546397Y0128354110D01*
X0031468577Y0128309613D01*
X0031388286Y0128274016D01*
X0031305522Y0128247318D01*
X0031220286Y0128229519D01*
X0031132578Y0128220620D01*
X0031087694Y0128219878D01*
X0031087698Y0128219875D01*
X0031033544Y0128221029D01*
X0030960545Y0128230546D01*
X0030916147Y0128240929D01*
X0030875408Y0128254772D01*
X0030838327Y0128272077D01*
X0030804905Y0128292842D01*
X0030775142Y0128317068D01*
X0030761785Y0128330623D01*
X0030749005Y0128345183D01*
X0030726163Y0128377517D01*
X0030706584Y0128413708D01*
X0030690269Y0128453755D01*
X0030677217Y0128497658D01*
X0030667427Y0128545418D01*
X0030658454Y0128623806D01*
X0030657366Y0128681850D01*
X0030657893Y0128709801D01*
X0030660527Y0128748298D01*
X0030664216Y0128789962D01*
X0030670017Y0128821074D01*
X0030742793Y0129165973D01*
X0030757559Y0129236377D01*
X0030792367Y0129385095D01*
X0030812409Y0129463409D01*
X0030823122Y0129503588D01*
X0030840921Y0129582297D01*
X0030854369Y0129659029D01*
X0030863465Y0129733784D01*
X0030866200Y0129770337D01*
X0030867849Y0129806165D01*
X0030863894Y0129872218D01*
X0030851237Y0129931547D01*
X0030829877Y0129984151D01*
X0030815570Y0130007652D01*
X0030807750Y0130018883D01*
X0030789062Y0130038956D01*
X0030766715Y0130056162D01*
X0030740709Y0130070499D01*
X0030737721Y0130071584D01*
X0030728731Y0130056277D01*
X0030682059Y0129990620D01*
X0030632619Y0129934060D01*
X0030606745Y0129909570D01*
X0030580838Y0129886827D01*
X0030523091Y0129851230D01*
X0030458224Y0129827499D01*
X0030386239Y0129815633D01*
X0030347280Y0129814644D01*
X0030347274Y0129814636D01*
X0030311413Y0129815295D01*
X0030244964Y0129823204D01*
X0030214377Y0129830454D01*
X0030185504Y0129838627D01*
X0030139623Y0129857614D01*
X0030128406Y0129864745D01*
X0030111402Y0129839554D01*
X0030076596Y0129771523D01*
X0030062489Y0129735530D01*
X0030015024Y0129598942D01*
X0029991514Y0129522352D01*
X0029651148Y0128283156D01*
X0029167024Y0128283156D01*
X0029972564Y0131288363D01*
X0030288825Y0130604794D01*
X0030055771Y0129756297D01*
X0030069214Y0129788465D01*
X0030118258Y0129874689D01*
X0030144758Y0129909562D01*
X0030171818Y0129941764D01*
X0030227587Y0129995951D01*
X0030285334Y0130037877D01*
X0030345059Y0130067542D01*
X0030375745Y0130077265D01*
X0030407354Y0130085603D01*
X0030451524Y0130094770D01*
X0030447904Y0130088743D01*
X0030401529Y0130078361D01*
G37*
G36*
G01*
X0030523178Y0130098260D02*
X0030447904Y0130088743D01*
X0030451524Y0130094770D01*
X0030470242Y0130098655D01*
X0030519803Y0130105556D01*
G37*
G36*
G01*
X0030288825Y0130604794D02*
X0029972564Y0131288363D01*
X0030435871Y0133016810D01*
X0029872643Y0133016810D01*
X0029872643Y0133029467D01*
X0030954802Y0133029467D01*
G37*
X0029167024Y0128283156D02*
X0030435871Y0133016810D01*
X0029872643Y0133016810D01*
X0029872643Y0133029467D01*
X0030954802Y0133029467D01*
X0029651148Y0128283156D01*
X0029167024Y0128283156D01*
X0031087698Y0128219875D02*
X0031087698Y0128219875D01*
X0031033544Y0128221029D01*
X0030960545Y0128230546D01*
X0030916147Y0128240929D01*
X0030875408Y0128254772D01*
X0030838327Y0128272077D01*
X0030804905Y0128292842D01*
X0030775142Y0128317068D01*
X0030761785Y0128330623D01*
X0030761785Y0128330623D01*
X0030749005Y0128345183D01*
X0030726163Y0128377517D01*
X0030706584Y0128413708D01*
X0030690269Y0128453755D01*
X0030677217Y0128497658D01*
X0030667427Y0128545418D01*
X0030658454Y0128623806D01*
X0030657366Y0128681850D01*
X0030657366Y0128681850D01*
X0030657893Y0128709801D01*
X0030660527Y0128748298D01*
X0030660527Y0128748298D01*
X0030664216Y0128789962D01*
X0030670017Y0128821074D01*
X0030742793Y0129165973D01*
X0030742793Y0129165973D01*
X0030757559Y0129236377D01*
X0030792367Y0129385095D01*
X0030812409Y0129463409D01*
X0030812409Y0129463409D01*
X0030823122Y0129503588D01*
X0030840921Y0129582297D01*
X0030854369Y0129659029D01*
X0030863465Y0129733784D01*
X0030866200Y0129770337D01*
X0030866200Y0129770337D01*
X0030867849Y0129806165D01*
X0030863894Y0129872218D01*
X0030851237Y0129931547D01*
X0030829877Y0129984151D01*
X0030815570Y0130007652D01*
X0030815570Y0130007652D01*
X0030807750Y0130018883D01*
X0030789062Y0130038956D01*
X0030766715Y0130056162D01*
X0030740709Y0130070499D01*
X0030695298Y0130086988D01*
X0030621334Y0130098458D01*
X0030578255Y0130099414D01*
X0030578255Y0130099414D01*
X0030523178Y0130098260D01*
X0030447904Y0130088743D01*
X0030401529Y0130078361D01*
X0030358416Y0130064517D01*
X0030318567Y0130047213D01*
X0030281981Y0130026448D01*
X0030248658Y0130002222D01*
X0030233356Y0129988667D01*
X0030233356Y0129988667D01*
X0030204746Y0129961376D01*
X0030154119Y0129902838D01*
X0030111402Y0129839554D01*
X0030076596Y0129771523D01*
X0030062489Y0129735530D01*
X0030062489Y0129735530D01*
X0030015024Y0129598942D01*
X0029980219Y0129485558D01*
X0029967562Y0129485558D01*
X0029967562Y0129485558D01*
X0029985361Y0129556687D01*
X0030024915Y0129682464D01*
X0030069214Y0129788465D01*
X0030118258Y0129874689D01*
X0030144758Y0129909562D01*
X0030144758Y0129909562D01*
X0030171818Y0129941764D01*
X0030227587Y0129995951D01*
X0030285334Y0130037877D01*
X0030345059Y0130067542D01*
X0030375745Y0130077265D01*
X0030375745Y0130077265D01*
X0030407354Y0130085603D01*
X0030470242Y0130098655D01*
X0030532735Y0130107356D01*
X0030594833Y0130111707D01*
X0030625717Y0130112069D01*
X0030625717Y0130112069D01*
X0030666423Y0130111542D01*
X0030743551Y0130105213D01*
X0030815537Y0130092556D01*
X0030882381Y0130073569D01*
X0030913660Y0130061439D01*
X0030913660Y0130061439D01*
X0030944775Y0130048057D01*
X0031001730Y0130014041D01*
X0031052358Y0129971324D01*
X0031096657Y0129919907D01*
X0031116169Y0129890572D01*
X0031116169Y0129890572D01*
X0031135352Y0129860381D01*
X0031167785Y0129790768D01*
X0031193099Y0129710081D01*
X0031211293Y0129618319D01*
X0031217424Y0129567823D01*
X0031217424Y0129567823D01*
X0031222301Y0129515284D01*
X0031225465Y0129399000D01*
X0031220718Y0129269267D01*
X0031208062Y0129126086D01*
X0031198437Y0129048893D01*
X0031087690Y0128435037D01*
X0031087690Y0128435037D01*
X0031084529Y0128423965D01*
X0031081368Y0128406561D01*
X0031081368Y0128406561D01*
X0031081368Y0128381246D01*
X0031081368Y0128381246D01*
X0031081698Y0128366530D01*
X0031085653Y0128340227D01*
X0031093564Y0128317682D01*
X0031105429Y0128298894D01*
X0031121250Y0128283865D01*
X0031141027Y0128272592D01*
X0031164758Y0128265077D01*
X0031192445Y0128261320D01*
X0031207937Y0128261007D01*
X0031207937Y0128261007D01*
X0031252236Y0128262226D01*
X0031340834Y0128276860D01*
X0031429431Y0128306129D01*
X0031518029Y0128350033D01*
X0031562328Y0128378082D01*
X0031562328Y0128378082D01*
X0031606495Y0128409328D01*
X0031693511Y0128483687D01*
X0031778944Y0128572285D01*
X0031862796Y0128675122D01*
X0031904062Y0128732473D01*
X0031904062Y0128732473D01*
X0031944900Y0128792231D01*
X0032023610Y0128923941D01*
X0032098760Y0129070285D01*
X0032170350Y0129231264D01*
X0032204662Y0129317851D01*
X0032214152Y0129311530D01*
X0032214152Y0129311530D01*
X0032188632Y0129246886D01*
X0032135533Y0129123778D01*
X0032079961Y0129008087D01*
X0032021918Y0128899812D01*
X0031961402Y0128798953D01*
X0031898415Y0128705510D01*
X0031832955Y0128619483D01*
X0031765024Y0128540872D01*
X0031730028Y0128504657D01*
X0031730028Y0128504657D01*
X0031694620Y0128469801D01*
X0031621745Y0128407506D01*
X0031546397Y0128354110D01*
X0031468577Y0128309613D01*
X0031388286Y0128274016D01*
X0031305522Y0128247318D01*
X0031220286Y0128229519D01*
X0031132578Y0128220620D01*
X0031087694Y0128219878D01*
X0031087698Y0128219875D01*
X0030347274Y0129814636D02*
X0030347274Y0129814636D01*
X0030311413Y0129815295D01*
X0030244964Y0129823204D01*
X0030214377Y0129830454D01*
X0030214377Y0129830454D01*
X0030185504Y0129838627D01*
X0030139623Y0129857614D01*
X0030122615Y0129868427D01*
X0030128936Y0129881084D01*
X0030128936Y0129881084D01*
X0030146998Y0129870274D01*
X0030189715Y0129851288D01*
X0030214370Y0129843112D01*
X0030214370Y0129843112D01*
X0030241004Y0129835862D01*
X0030307452Y0129827953D01*
X0030347267Y0129827293D01*
X0030347267Y0129827293D01*
X0030386984Y0129828315D01*
X0030460157Y0129840576D01*
X0030525814Y0129865099D01*
X0030583956Y0129901883D01*
X0030609896Y0129925383D01*
X0030609896Y0129925383D01*
X0030634946Y0129951356D01*
X0030682409Y0130009894D01*
X0030726708Y0130076343D01*
X0030767843Y0130150702D01*
X0030787091Y0130191177D01*
X0030787091Y0130191177D01*
X0030864614Y0130364681D01*
X0030948466Y0130561389D01*
X0030948466Y0130561389D01*
X0030982811Y0130641384D01*
X0031054797Y0130786542D01*
X0031130738Y0130913902D01*
X0031210634Y0131023462D01*
X0031252230Y0131070826D01*
X0031252230Y0131070826D01*
X0031273391Y0131093676D01*
X0031317690Y0131134514D01*
X0031364362Y0131169518D01*
X0031413407Y0131198688D01*
X0031464825Y0131222024D01*
X0031518617Y0131239526D01*
X0031574781Y0131251194D01*
X0031633319Y0131257028D01*
X0031663577Y0131257515D01*
X0031663577Y0131257515D01*
X0031698746Y0131256789D01*
X0031764798Y0131248088D01*
X0031825709Y0131230686D01*
X0031881479Y0131204583D01*
X0031907221Y0131187905D01*
X0031907221Y0131187905D01*
X0031932040Y0131170700D01*
X0031976734Y0131130356D01*
X0032015496Y0131082893D01*
X0032048324Y0131028311D01*
X0032062267Y0130998053D01*
X0032062267Y0130998053D01*
X0032075913Y0130966773D01*
X0032097273Y0130899929D01*
X0032111512Y0130827944D01*
X0032118632Y0130750816D01*
X0032119225Y0130710110D01*
X0032119225Y0130710110D01*
X0032118138Y0130671975D01*
X0032105085Y0130601967D01*
X0032086323Y0130554627D01*
X0032070007Y0130525259D01*
X0032039824Y0130484496D01*
X0032014807Y0130460138D01*
X0032014807Y0130460138D01*
X0031989295Y0130437395D01*
X0031936295Y0130401798D01*
X0031880921Y0130378066D01*
X0031823174Y0130366200D01*
X0031793312Y0130365211D01*
X0031793312Y0130365211D01*
X0031764241Y0130366035D01*
X0031708076Y0130375924D01*
X0031654285Y0130395700D01*
X0031602866Y0130425364D01*
X0031578146Y0130444317D01*
X0031578146Y0130444317D01*
X0031566140Y0130454790D01*
X0031544683Y0130477631D01*
X0031526291Y0130502747D01*
X0031510965Y0130530137D01*
X0031493339Y0130575202D01*
X0031481078Y0130643628D01*
X0031480056Y0130681632D01*
X0031480056Y0130681632D01*
X0031481012Y0130715054D01*
X0031492482Y0130775965D01*
X0031515423Y0130829756D01*
X0031549833Y0130876428D01*
X0031571818Y0130896798D01*
X0031571818Y0130896798D01*
X0031595220Y0130916508D01*
X0031646638Y0130947359D01*
X0031703594Y0130967927D01*
X0031766087Y0130978210D01*
X0031799641Y0130979067D01*
X0031799641Y0130979067D01*
X0031820076Y0130978705D01*
X0031859629Y0130974354D01*
X0031897599Y0130965653D01*
X0031933988Y0130952601D01*
X0031951523Y0130944263D01*
X0031951523Y0130944263D01*
X0031969420Y0130935298D01*
X0032002249Y0130914731D01*
X0032031518Y0130890999D01*
X0032057227Y0130864103D01*
X0032068598Y0130849337D01*
X0032068598Y0130849337D01*
X0032079212Y0130834109D01*
X0032095825Y0130801676D01*
X0032106900Y0130766869D01*
X0032112438Y0130729690D01*
X0032112899Y0130710111D01*
X0032106578Y0130710111D01*
X0032106578Y0130710111D01*
X0032106017Y0130749268D01*
X0032099294Y0130823627D01*
X0032085846Y0130893239D01*
X0032065674Y0130958106D01*
X0032052787Y0130988561D01*
X0032052787Y0130988561D01*
X0032038878Y0131018061D01*
X0032006445Y0131071457D01*
X0031968474Y0131118129D01*
X0031924966Y0131158077D01*
X0031900905Y0131175249D01*
X0031900905Y0131175249D01*
X0031875954Y0131191928D01*
X0031821767Y0131218034D01*
X0031762438Y0131235438D01*
X0031697967Y0131244140D01*
X0031663590Y0131244865D01*
X0031663590Y0131244865D01*
X0031633711Y0131244363D01*
X0031575766Y0131238331D01*
X0031519997Y0131226268D01*
X0031466403Y0131208172D01*
X0031414985Y0131184045D01*
X0031365742Y0131153887D01*
X0031318675Y0131117696D01*
X0031273783Y0131075474D01*
X0031252243Y0131051849D01*
X0031252243Y0131051849D01*
X0031210779Y0131003167D01*
X0031132464Y0130893606D01*
X0031059687Y0130769411D01*
X0030992448Y0130630581D01*
X0030961135Y0130555069D01*
X0030961135Y0130555069D01*
X0030918551Y0130449463D01*
X0030834699Y0130258028D01*
X0030793433Y0130172200D01*
X0030793433Y0130172200D01*
X0030772635Y0130131032D01*
X0030728731Y0130056277D01*
X0030682059Y0129990620D01*
X0030632619Y0129934060D01*
X0030606745Y0129909570D01*
X0030606745Y0129909570D01*
X0030580838Y0129886827D01*
X0030523091Y0129851230D01*
X0030458224Y0129827499D01*
X0030386239Y0129815633D01*
X0030347280Y0129814644D01*
X0030347274Y0129814636D01*
M02*