; XNC file generated by gerbonara
M48
METRIC
T01C0000.70000
%
T01
G05
X0006.50749Y0058.18246
X0007.85409Y0058.18246
X0007.85409Y0057.13262
X0007.85409Y0056.08279
X0007.85409Y0055.03295
X0007.85409Y0053.98311
X0007.85409Y0052.93327
X0007.85409Y0051.88343
X0008.90393Y0058.18246
X0008.90393Y0057.13262
X0008.90393Y0056.08279
X0008.90393Y0055.03295
X0008.90393Y0053.98311
X0008.90393Y0052.93327
X0008.90393Y0051.88343
X0009.95377Y0058.18246
X0009.95377Y0057.13262
X0009.95377Y0056.08279
X0009.95377Y0055.03295
X0009.95377Y0053.98311
X0009.95377Y0052.93327
X0009.95377Y0051.88343
X0011.00360Y0058.18246
X0011.00360Y0057.13262
X0011.00360Y0056.08279
X0011.00360Y0055.03295
X0011.00360Y0053.98311
X0011.00360Y0052.93327
X0011.00360Y0051.88343
X0012.05344Y0058.18246
X0012.05344Y0057.13262
X0012.05344Y0056.08279
X0012.05344Y0055.03295
X0012.05344Y0053.98311
X0012.05344Y0052.93327
X0012.05344Y0051.88343
X0014.85905Y0058.18246
X0014.85905Y0057.13262
X0014.85905Y0056.08279
X0014.85905Y0055.03295
X0014.85905Y0053.98311
X0014.85905Y0052.93327
X0014.85905Y0051.88343
X0015.90889Y0058.18246
X0015.90889Y0055.03295
X0016.95873Y0058.18246
X0016.95873Y0055.03295
X0018.00857Y0058.18246
X0018.00857Y0055.03295
X0019.05841Y0057.13262
X0019.05841Y0056.08279
X0022.19849Y0058.18246
X0022.19849Y0057.13262
X0022.19849Y0056.08279
X0022.19849Y0055.03295
X0022.19849Y0053.98311
X0022.19849Y0052.93327
X0022.19849Y0051.88343
X0023.24833Y0051.88343
X0024.29816Y0051.88343
X0025.34800Y0051.88343
X0026.39784Y0051.88343
X0029.53792Y0057.13262
X0029.53792Y0056.08279
X0029.53792Y0055.03295
X0029.53792Y0053.98311
X0029.53792Y0052.93327
X0029.53792Y0051.88343
X0030.58776Y0058.18246
X0030.58776Y0053.98311
X0031.63760Y0058.18246
X0031.63760Y0053.98311
X0032.68744Y0058.18246
X0032.68744Y0053.98311
X0033.73728Y0057.13262
X0033.73728Y0056.08279
X0033.73728Y0055.03295
X0033.73728Y0053.98311
X0033.73728Y0052.93327
X0033.73728Y0051.88343
X0036.87735Y0058.18246
X0037.92719Y0058.18246
X0038.97703Y0058.18246
X0038.97703Y0057.13262
X0038.97703Y0056.08279
X0038.97703Y0055.03295
X0038.97703Y0053.98311
X0038.97703Y0052.93327
X0038.97703Y0051.88343
X0040.02687Y0058.18246
X0041.07671Y0058.18246
X0044.21679Y0058.18246
X0044.21679Y0057.13262
X0044.21679Y0056.08279
X0044.21679Y0055.03295
X0044.21679Y0053.98311
X0044.21679Y0052.93327
X0044.21679Y0051.88343
X0045.26663Y0058.18246
X0045.26663Y0055.03295
X0045.26663Y0051.88343
X0046.31647Y0058.18246
X0046.31647Y0055.03295
X0046.31647Y0051.88343
X0047.36631Y0058.18246
X0047.36631Y0055.03295
X0047.36631Y0051.88343
X0048.41615Y0058.18246
X0048.41615Y0055.03295
X0048.41615Y0051.88343
X0051.55622Y0058.18246
X0051.55622Y0057.13262
X0051.55622Y0056.08279
X0051.55622Y0055.03295
X0051.55622Y0053.98311
X0051.55622Y0052.93327
X0051.55622Y0051.88343
X0052.60606Y0058.18246
X0052.60606Y0051.88343
X0053.65590Y0058.18246
X0053.65590Y0051.88343
X0054.70574Y0058.18246
X0054.70574Y0051.88343
X0055.75558Y0057.13262
X0055.75558Y0056.08279
X0055.75558Y0055.03295
X0055.75558Y0053.98311
X0055.75558Y0052.93327
M30