G04 Gerber file generated by Gerbonara*
%MOMM*%
%FSLAX46Y46*%
%IPPOS*%
G75
%LPD*%
%AMGNC*
1,1,$1,0,0,-57.29578X$4*
1,0,$2,0,0,0*
21,0,$2,$3,0,0,-57.29578X$4*
%
%AMGNR*
21,1,$1,$2,0,0,$5X-57.29578*
1,0,$3,0,0,0*
21,0,$3,$4,0,0,$5X-57.29578*
%
%AMGNO*
21,1,$1,$2,0,0,$5X-57.29578*
1,1,$2,$1/2,0,$5X-57.29578*
1,1,$2,(0-$1)/2,0,$5X-57.29578*
1,0,$3,0,0,0*
21,0,$3,$4,0,0,$5X-57.29578*
%
%AMGNP*
5,1,$2,0,0,$1,$3X-57.29578*
1,0,$4,0,0,0*
%
%ADD10C,0.05*%
%ADD11C,0.13*%
G36*
G01*
X0009972947Y0120830235D02*
X0009960290Y0120830235D01*
X0009982143Y0120929841D01*
X0010014971Y0121120485D01*
X0010034748Y0121300844D01*
X0010041471Y0121470920D01*
X0010039395Y0121551674D01*
X0010037409Y0121591267D01*
X0010029399Y0121666912D01*
X0010016545Y0121738304D01*
X0009998845Y0121805444D01*
X0009976300Y0121868333D01*
X0009948910Y0121926970D01*
X0009916675Y0121981355D01*
X0009879595Y0122031488D01*
X0009859036Y0122054783D01*
X0009837545Y0122077633D01*
X0009789291Y0122118471D01*
X0009734709Y0122153475D01*
X0009673797Y0122182645D01*
X0009606558Y0122205981D01*
X0009532990Y0122223483D01*
X0009453094Y0122235151D01*
X0009366870Y0122240985D01*
X0009321120Y0122241471D01*
X0008716985Y0122241471D01*
X0007621714Y0117520474D01*
X0008314903Y0117520474D01*
X0008314903Y0117507817D01*
X0006321452Y0117507817D01*
X0006321452Y0117520474D01*
X0007020515Y0117520474D01*
X0008115786Y0122241471D01*
X0007454238Y0122241471D01*
X0007385416Y0122240350D01*
X0007255684Y0122226902D01*
X0007164911Y0122207571D01*
X0007107164Y0122190761D01*
X0007051790Y0122170589D01*
X0006998790Y0122147056D01*
X0006973279Y0122133888D01*
X0006923277Y0122106102D01*
X0006829538Y0122041631D01*
X0006743313Y0121966481D01*
X0006664604Y0121880652D01*
X0006628380Y0121833288D01*
X0006593244Y0121785133D01*
X0006527587Y0121681900D01*
X0006467467Y0121570362D01*
X0006412884Y0121450518D01*
X0006387900Y0121387135D01*
X0006363674Y0121322598D01*
X0006318189Y0121188910D01*
X0006276263Y0121049685D01*
X0006237897Y0120904923D01*
X0006220197Y0120830235D01*
X0006207541Y0120830235D01*
X0006536618Y0122254128D01*
X0010302025Y0122254128D01*
G37*
D11*
X0007017578Y0117507817D02*
X0008118722Y0122254128D01*
X0008719921Y0122254128D01*
X0007618777Y0117507817D01*
X0007017578Y0117507817D01*
X0006321452Y0117507817D02*
X0006321452Y0117520474D01*
X0008314903Y0117520474D01*
X0008314903Y0117507817D01*
X0006321452Y0117507817D01*
X0006207541Y0120830235D02*
X0006536618Y0122254128D01*
X0010302025Y0122254128D01*
X0009972947Y0120830235D01*
X0009960290Y0120830235D01*
X0009960290Y0120830235D01*
X0009982143Y0120929841D01*
X0010014971Y0121120485D01*
X0010034748Y0121300844D01*
X0010041471Y0121470920D01*
X0010039395Y0121551674D01*
X0010039395Y0121551674D01*
X0010037409Y0121591267D01*
X0010029399Y0121666912D01*
X0010016545Y0121738304D01*
X0009998845Y0121805444D01*
X0009976300Y0121868333D01*
X0009948910Y0121926970D01*
X0009916675Y0121981355D01*
X0009879595Y0122031488D01*
X0009859036Y0122054783D01*
X0009859036Y0122054783D01*
X0009837545Y0122077633D01*
X0009789291Y0122118471D01*
X0009734709Y0122153475D01*
X0009673797Y0122182645D01*
X0009606558Y0122205981D01*
X0009532990Y0122223483D01*
X0009453094Y0122235151D01*
X0009366870Y0122240985D01*
X0009321120Y0122241471D01*
X0007454238Y0122241471D01*
X0007454238Y0122241471D01*
X0007385416Y0122240350D01*
X0007255684Y0122226902D01*
X0007164911Y0122207571D01*
X0007107164Y0122190761D01*
X0007051790Y0122170589D01*
X0006998790Y0122147056D01*
X0006973279Y0122133888D01*
X0006973279Y0122133888D01*
X0006923277Y0122106102D01*
X0006829538Y0122041631D01*
X0006743313Y0121966481D01*
X0006664604Y0121880652D01*
X0006628380Y0121833288D01*
X0006628380Y0121833288D01*
X0006593244Y0121785133D01*
X0006527587Y0121681900D01*
X0006467467Y0121570362D01*
X0006412884Y0121450518D01*
X0006387900Y0121387135D01*
X0006387900Y0121387135D01*
X0006363674Y0121322598D01*
X0006318189Y0121188910D01*
X0006276263Y0121049685D01*
X0006237897Y0120904923D01*
X0006220197Y0120830235D01*
X0006207541Y0120830235D01*
G36*
G01*
X0011593824Y0120466038D02*
X0011551206Y0120462281D01*
X0011487452Y0120450069D01*
X0011402809Y0120420009D01*
X0011318562Y0120374919D01*
X0011276603Y0120346111D01*
X0011234843Y0120315952D01*
X0011152969Y0120246735D01*
X0011073073Y0120166839D01*
X0010995154Y0120076264D01*
X0010957019Y0120026526D01*
X0010919312Y0119975338D01*
X0010846535Y0119867360D01*
X0010776923Y0119752657D01*
X0010710474Y0119631231D01*
X0010678569Y0119567716D01*
X0010647256Y0119503377D01*
X0010587927Y0119372063D01*
X0010532553Y0119237584D01*
X0010481135Y0119099941D01*
X0010457074Y0119029801D01*
X0010434529Y0118959463D01*
X0010393394Y0118819447D01*
X0010357006Y0118680222D01*
X0010325364Y0118541788D01*
X0010311520Y0118472901D01*
X0010299390Y0118405233D01*
X0010280404Y0118273523D01*
X0010267747Y0118146163D01*
X0010261418Y0118023155D01*
X0010260890Y0117963463D01*
X0010262077Y0117906672D01*
X0010271866Y0117827938D01*
X0010282545Y0117778794D01*
X0010296784Y0117732518D01*
X0010314583Y0117689109D01*
X0010335941Y0117648567D01*
X0010360859Y0117610893D01*
X0010374802Y0117593251D01*
X0010389757Y0117576598D01*
X0010422883Y0117546835D01*
X0010459865Y0117521323D01*
X0010500703Y0117500064D01*
X0010545397Y0117483056D01*
X0010593948Y0117470300D01*
X0010646355Y0117461796D01*
X0010702619Y0117457544D01*
X0010732357Y0117457190D01*
X0010732361Y0117457190D01*
X0010775770Y0117458410D01*
X0010861599Y0117473044D01*
X0010946242Y0117502313D01*
X0011029697Y0117546216D01*
X0011070931Y0117574266D01*
X0011112692Y0117605183D01*
X0011194566Y0117675586D01*
X0011274462Y0117756273D01*
X0011352381Y0117847244D01*
X0011390516Y0117897015D01*
X0011428223Y0117948202D01*
X0011501000Y0118056181D01*
X0011570612Y0118170883D01*
X0011637060Y0118292310D01*
X0011668966Y0118355825D01*
X0011700245Y0118420164D01*
X0011759179Y0118551478D01*
X0011813761Y0118685957D01*
X0011863993Y0118823600D01*
X0011887296Y0118893740D01*
X0011910566Y0118964078D01*
X0011952492Y0119104094D01*
X0011988881Y0119243319D01*
X0012019731Y0119381753D01*
X0012032850Y0119450641D01*
X0012045737Y0119519034D01*
X0012065909Y0119651535D01*
X0012079356Y0119778894D01*
X0012086080Y0119901112D01*
X0012086641Y0119960078D01*
X0012085454Y0120017594D01*
X0012075665Y0120096971D01*
X0012064986Y0120146313D01*
X0012050747Y0120192590D01*
X0012032948Y0120235801D01*
X0012011590Y0120275947D01*
X0011986672Y0120313027D01*
X0011972729Y0120330290D01*
X0011958153Y0120346944D01*
X0011925621Y0120376707D01*
X0011889034Y0120402219D01*
X0011848394Y0120423478D01*
X0011803699Y0120440486D01*
X0011754951Y0120453241D01*
X0011702148Y0120461745D01*
X0011663287Y0120464651D01*
X0011755510Y0120466602D01*
X0011828096Y0120453817D01*
X0011924604Y0120426229D01*
X0012013202Y0120389445D01*
X0012093889Y0120343465D01*
X0012166666Y0120288289D01*
X0012231532Y0120223918D01*
X0012260669Y0120187900D01*
X0012288941Y0120151157D01*
X0012339469Y0120074129D01*
X0012382779Y0119992848D01*
X0012418871Y0119907316D01*
X0012447745Y0119817532D01*
X0012469400Y0119723495D01*
X0012483836Y0119625207D01*
X0012491055Y0119522667D01*
X0012491656Y0119469626D01*
X0012491294Y0119417935D01*
X0012486943Y0119315790D01*
X0012478241Y0119215129D01*
X0012465189Y0119115951D01*
X0012447786Y0119018256D01*
X0012426032Y0118922044D01*
X0012399928Y0118827316D01*
X0012369472Y0118734071D01*
X0012352432Y0118688066D01*
X0012335160Y0118642408D01*
X0012297981Y0118553316D01*
X0012257637Y0118466893D01*
X0012214129Y0118383140D01*
X0012167457Y0118302058D01*
X0012117621Y0118223645D01*
X0012064620Y0118147901D01*
X0012008456Y0118074828D01*
X0011979055Y0118039404D01*
X0011949209Y0118004911D01*
X0011887705Y0117939055D01*
X0011824025Y0117876958D01*
X0011758170Y0117818618D01*
X0011690140Y0117764035D01*
X0011619934Y0117713210D01*
X0011547553Y0117666142D01*
X0011472996Y0117622832D01*
X0011434811Y0117602743D01*
X0011396758Y0117583379D01*
X0011319829Y0117548770D01*
X0011241910Y0117519106D01*
X0011163002Y0117494385D01*
X0011083106Y0117474609D01*
X0011002221Y0117459777D01*
X0010920347Y0117449889D01*
X0010837485Y0117444945D01*
X0010795641Y0117444533D01*
X0010736560Y0117445291D01*
X0010624824Y0117454388D01*
X0010520800Y0117472582D01*
X0010424490Y0117499873D01*
X0010335892Y0117536262D01*
X0010255007Y0117581747D01*
X0010181835Y0117636330D01*
X0010116375Y0117700009D01*
X0010086859Y0117735639D01*
X0010058587Y0117772382D01*
X0010008059Y0117849411D01*
X0009964749Y0117930692D01*
X0009928657Y0118016224D01*
X0009899784Y0118106009D01*
X0009878129Y0118200045D01*
X0009863692Y0118298333D01*
X0009856473Y0118400873D01*
X0009855872Y0118453915D01*
X0009856226Y0118505605D01*
X0009860478Y0118607750D01*
X0009868982Y0118708411D01*
X0009881738Y0118807589D01*
X0009898745Y0118905284D01*
X0009920005Y0119001496D01*
X0009945516Y0119096224D01*
X0009975280Y0119189469D01*
X0009991933Y0119235474D01*
X0010009592Y0119281124D01*
X0010047463Y0119370117D01*
X0010088400Y0119456342D01*
X0010132402Y0119539798D01*
X0010179470Y0119620485D01*
X0010229603Y0119698404D01*
X0010282801Y0119773554D01*
X0010339065Y0119845935D01*
X0010368474Y0119880972D01*
X0010398311Y0119915853D01*
X0010459716Y0119982400D01*
X0010523198Y0120045091D01*
X0010588757Y0120103925D01*
X0010656392Y0120158903D01*
X0010726103Y0120210025D01*
X0010797891Y0120257290D01*
X0010871756Y0120300699D01*
X0010909553Y0120320797D01*
X0010947993Y0120340548D01*
X0011025615Y0120375849D01*
X0011104127Y0120406107D01*
X0011183529Y0120431321D01*
X0011263821Y0120451493D01*
X0011345002Y0120466622D01*
X0011358060Y0120468227D01*
G37*
G36*
G01*
X0011611348Y0120481405D02*
X0011723677Y0120472209D01*
X0011755510Y0120466602D01*
X0011663287Y0120464651D01*
X0011645291Y0120465997D01*
X0011615174Y0120466351D01*
X0011593824Y0120466038D01*
X0011358060Y0120468227D01*
X0011427074Y0120476708D01*
X0011510035Y0120481751D01*
X0011551887Y0120482171D01*
G37*
X0010795641Y0117444533D02*
X0010795641Y0117444533D01*
X0010736560Y0117445291D01*
X0010624824Y0117454388D01*
X0010520800Y0117472582D01*
X0010424490Y0117499873D01*
X0010335892Y0117536262D01*
X0010255007Y0117581747D01*
X0010181835Y0117636330D01*
X0010116375Y0117700009D01*
X0010086859Y0117735639D01*
X0010086859Y0117735639D01*
X0010058587Y0117772382D01*
X0010008059Y0117849411D01*
X0009964749Y0117930692D01*
X0009928657Y0118016224D01*
X0009899784Y0118106009D01*
X0009878129Y0118200045D01*
X0009863692Y0118298333D01*
X0009856473Y0118400873D01*
X0009855872Y0118453915D01*
X0009855872Y0118453915D01*
X0009856226Y0118505605D01*
X0009860478Y0118607750D01*
X0009868982Y0118708411D01*
X0009881738Y0118807589D01*
X0009898745Y0118905284D01*
X0009920005Y0119001496D01*
X0009945516Y0119096224D01*
X0009975280Y0119189469D01*
X0009991933Y0119235474D01*
X0009991933Y0119235474D01*
X0010009592Y0119281124D01*
X0010047463Y0119370117D01*
X0010088400Y0119456342D01*
X0010132402Y0119539798D01*
X0010179470Y0119620485D01*
X0010229603Y0119698404D01*
X0010282801Y0119773554D01*
X0010339065Y0119845935D01*
X0010368474Y0119880972D01*
X0010368474Y0119880972D01*
X0010398311Y0119915853D01*
X0010459716Y0119982400D01*
X0010523198Y0120045091D01*
X0010588757Y0120103925D01*
X0010656392Y0120158903D01*
X0010726103Y0120210025D01*
X0010797891Y0120257290D01*
X0010871756Y0120300699D01*
X0010909553Y0120320797D01*
X0010909553Y0120320797D01*
X0010947993Y0120340548D01*
X0011025615Y0120375849D01*
X0011104127Y0120406107D01*
X0011183529Y0120431321D01*
X0011263821Y0120451493D01*
X0011345002Y0120466622D01*
X0011427074Y0120476708D01*
X0011510035Y0120481751D01*
X0011551887Y0120482171D01*
X0011551887Y0120482171D01*
X0011611348Y0120481405D01*
X0011723677Y0120472209D01*
X0011828096Y0120453817D01*
X0011924604Y0120426229D01*
X0012013202Y0120389445D01*
X0012093889Y0120343465D01*
X0012166666Y0120288289D01*
X0012231532Y0120223918D01*
X0012260669Y0120187900D01*
X0012260669Y0120187900D01*
X0012288941Y0120151157D01*
X0012339469Y0120074129D01*
X0012382779Y0119992848D01*
X0012418871Y0119907316D01*
X0012447745Y0119817532D01*
X0012469400Y0119723495D01*
X0012483836Y0119625207D01*
X0012491055Y0119522667D01*
X0012491656Y0119469626D01*
X0012491656Y0119469626D01*
X0012491294Y0119417935D01*
X0012486943Y0119315790D01*
X0012478241Y0119215129D01*
X0012465189Y0119115951D01*
X0012447786Y0119018256D01*
X0012426032Y0118922044D01*
X0012399928Y0118827316D01*
X0012369472Y0118734071D01*
X0012352432Y0118688066D01*
X0012352432Y0118688066D01*
X0012335160Y0118642408D01*
X0012297981Y0118553316D01*
X0012257637Y0118466893D01*
X0012214129Y0118383140D01*
X0012167457Y0118302058D01*
X0012117621Y0118223645D01*
X0012064620Y0118147901D01*
X0012008456Y0118074828D01*
X0011979055Y0118039404D01*
X0011979055Y0118039404D01*
X0011949209Y0118004911D01*
X0011887705Y0117939055D01*
X0011824025Y0117876958D01*
X0011758170Y0117818618D01*
X0011690140Y0117764035D01*
X0011619934Y0117713210D01*
X0011547553Y0117666142D01*
X0011472996Y0117622832D01*
X0011434811Y0117602743D01*
X0011434811Y0117602743D01*
X0011396758Y0117583379D01*
X0011319829Y0117548770D01*
X0011241910Y0117519106D01*
X0011163002Y0117494385D01*
X0011083106Y0117474609D01*
X0011002221Y0117459777D01*
X0010920347Y0117449889D01*
X0010837485Y0117444945D01*
X0010795641Y0117444533D01*
X0010795641Y0117444533D01*
X0010732361Y0117457190D02*
X0010732361Y0117457190D01*
X0010775770Y0117458410D01*
X0010861599Y0117473044D01*
X0010946242Y0117502313D01*
X0011029697Y0117546216D01*
X0011070931Y0117574266D01*
X0011070931Y0117574266D01*
X0011112692Y0117605183D01*
X0011194566Y0117675586D01*
X0011274462Y0117756273D01*
X0011352381Y0117847244D01*
X0011390516Y0117897015D01*
X0011390516Y0117897015D01*
X0011428223Y0117948202D01*
X0011501000Y0118056181D01*
X0011570612Y0118170883D01*
X0011637060Y0118292310D01*
X0011668966Y0118355825D01*
X0011668966Y0118355825D01*
X0011700245Y0118420164D01*
X0011759179Y0118551478D01*
X0011813761Y0118685957D01*
X0011863993Y0118823600D01*
X0011887296Y0118893740D01*
X0011887296Y0118893740D01*
X0011910566Y0118964078D01*
X0011952492Y0119104094D01*
X0011988881Y0119243319D01*
X0012019731Y0119381753D01*
X0012032850Y0119450641D01*
X0012032850Y0119450641D01*
X0012045737Y0119519034D01*
X0012065909Y0119651535D01*
X0012079356Y0119778894D01*
X0012086080Y0119901112D01*
X0012086641Y0119960078D01*
X0012086641Y0119960078D01*
X0012085454Y0120017594D01*
X0012075665Y0120096971D01*
X0012064986Y0120146313D01*
X0012050747Y0120192590D01*
X0012032948Y0120235801D01*
X0012011590Y0120275947D01*
X0011986672Y0120313027D01*
X0011972729Y0120330290D01*
X0011972729Y0120330290D01*
X0011958153Y0120346944D01*
X0011925621Y0120376707D01*
X0011889034Y0120402219D01*
X0011848394Y0120423478D01*
X0011803699Y0120440486D01*
X0011754951Y0120453241D01*
X0011702148Y0120461745D01*
X0011645291Y0120465997D01*
X0011615174Y0120466351D01*
X0011615174Y0120466351D01*
X0011593824Y0120466038D01*
X0011551206Y0120462281D01*
X0011487452Y0120450069D01*
X0011402809Y0120420009D01*
X0011318562Y0120374919D01*
X0011276603Y0120346111D01*
X0011276603Y0120346111D01*
X0011234843Y0120315952D01*
X0011152969Y0120246735D01*
X0011073073Y0120166839D01*
X0010995154Y0120076264D01*
X0010957019Y0120026526D01*
X0010957019Y0120026526D01*
X0010919312Y0119975338D01*
X0010846535Y0119867360D01*
X0010776923Y0119752657D01*
X0010710474Y0119631231D01*
X0010678569Y0119567716D01*
X0010678569Y0119567716D01*
X0010647256Y0119503377D01*
X0010587927Y0119372063D01*
X0010532553Y0119237584D01*
X0010481135Y0119099941D01*
X0010457074Y0119029801D01*
X0010457074Y0119029801D01*
X0010434529Y0118959463D01*
X0010393394Y0118819447D01*
X0010357006Y0118680222D01*
X0010325364Y0118541788D01*
X0010311520Y0118472901D01*
X0010311520Y0118472901D01*
X0010299390Y0118405233D01*
X0010280404Y0118273523D01*
X0010267747Y0118146163D01*
X0010261418Y0118023155D01*
X0010260890Y0117963463D01*
X0010260890Y0117963463D01*
X0010262077Y0117906672D01*
X0010271866Y0117827938D01*
X0010282545Y0117778794D01*
X0010296784Y0117732518D01*
X0010314583Y0117689109D01*
X0010335941Y0117648567D01*
X0010360859Y0117610893D01*
X0010374802Y0117593251D01*
X0010374802Y0117593251D01*
X0010389757Y0117576598D01*
X0010422883Y0117546835D01*
X0010459865Y0117521323D01*
X0010500703Y0117500064D01*
X0010545397Y0117483056D01*
X0010593948Y0117470300D01*
X0010646355Y0117461796D01*
X0010702619Y0117457544D01*
X0010732357Y0117457190D01*
X0010732361Y0117457190D01*
G36*
G01*
X0015340030Y0120430438D02*
X0015416763Y0120396423D01*
X0015486177Y0120353904D01*
X0015548275Y0120302882D01*
X0015603055Y0120243355D01*
X0015627397Y0120210049D01*
X0015650634Y0120175860D01*
X0015692164Y0120101798D01*
X0015727761Y0120020913D01*
X0015757426Y0119933205D01*
X0015781157Y0119838674D01*
X0015798956Y0119737321D01*
X0015810822Y0119629145D01*
X0015816755Y0119514145D01*
X0015817249Y0119453803D01*
X0015816903Y0119408334D01*
X0015812750Y0119317561D01*
X0015804444Y0119226985D01*
X0015791985Y0119136608D01*
X0015775373Y0119046428D01*
X0015754608Y0118956445D01*
X0015729690Y0118866661D01*
X0015700619Y0118777074D01*
X0015684353Y0118732363D01*
X0015650173Y0118644425D01*
X0015572254Y0118475140D01*
X0015482865Y0118313765D01*
X0015382006Y0118160301D01*
X0015326797Y0118086865D01*
X0015270138Y0118015275D01*
X0015151875Y0117883961D01*
X0015027680Y0117766885D01*
X0014930455Y0117688867D01*
X0014863908Y0117641009D01*
X0014830016Y0117618563D01*
X0014795976Y0117597262D01*
X0014727649Y0117559193D01*
X0014659025Y0117526562D01*
X0014590105Y0117499369D01*
X0014520888Y0117477615D01*
X0014451374Y0117461300D01*
X0014381564Y0117450423D01*
X0014311457Y0117444984D01*
X0014276280Y0117444531D01*
X0014276276Y0117444531D01*
X0014248491Y0117444877D01*
X0014195886Y0117449030D01*
X0014146841Y0117457336D01*
X0014101355Y0117469795D01*
X0014059430Y0117486408D01*
X0014021063Y0117507173D01*
X0013986257Y0117532091D01*
X0013955011Y0117561162D01*
X0013940871Y0117577428D01*
X0013913975Y0117612234D01*
X0013868094Y0117689757D01*
X0013831705Y0117776773D01*
X0013804810Y0117873281D01*
X0013795317Y0117925491D01*
X0013786979Y0117978689D01*
X0013773927Y0118087063D01*
X0013765226Y0118197810D01*
X0013760875Y0118310930D01*
X0013760513Y0118368479D01*
X0013760908Y0118421711D01*
X0013765655Y0118530481D01*
X0013769963Y0118581100D01*
X0013067743Y0115938371D01*
X0013599133Y0115938371D01*
X0013599133Y0115925713D01*
X0012083478Y0115925713D01*
X0012083478Y0115938371D01*
X0012561506Y0115938371D01*
X0013760508Y0120406230D01*
X0013304861Y0120406230D01*
X0013304861Y0120418888D01*
X0014184511Y0120418888D01*
X0013932110Y0119339873D01*
X0013934875Y0119348329D01*
X0013976801Y0119463823D01*
X0014022682Y0119576152D01*
X0014072518Y0119685317D01*
X0014099084Y0119738582D01*
X0014127068Y0119791879D01*
X0014186001Y0119893529D01*
X0014248494Y0119989246D01*
X0014314547Y0120079030D01*
X0014349057Y0120121450D01*
X0014384160Y0120162618D01*
X0014457332Y0120237372D01*
X0014534064Y0120303030D01*
X0014614356Y0120359590D01*
X0014655985Y0120384080D01*
X0014698141Y0120407581D01*
X0014745451Y0120427671D01*
X0014882271Y0120424870D01*
X0014835401Y0120420717D01*
X0014789125Y0120412411D01*
X0014743441Y0120399952D01*
X0014698352Y0120383340D01*
X0014653855Y0120362574D01*
X0014609951Y0120337656D01*
X0014566641Y0120308585D01*
X0014545233Y0120292319D01*
X0014502813Y0120258930D01*
X0014420940Y0120182593D01*
X0014342625Y0120094787D01*
X0014267871Y0119995510D01*
X0014231977Y0119941092D01*
X0014197534Y0119885949D01*
X0014132272Y0119770060D01*
X0014071361Y0119647447D01*
X0014014801Y0119518110D01*
X0013988333Y0119450640D01*
X0013963481Y0119383269D01*
X0013918391Y0119247208D01*
X0013878838Y0119109565D01*
X0013844823Y0118970340D01*
X0013830122Y0118900068D01*
X0013816478Y0118829994D01*
X0013795121Y0118693142D01*
X0013780883Y0118560245D01*
X0013773764Y0118431304D01*
X0013773171Y0118368481D01*
X0013774094Y0118277049D01*
X0013785168Y0118105390D01*
X0013807318Y0117947180D01*
X0013840542Y0117802417D01*
X0013861768Y0117735639D01*
X0013873675Y0117703882D01*
X0013901856Y0117647124D01*
X0013935278Y0117598475D01*
X0013973941Y0117557933D01*
X0014017844Y0117525500D01*
X0014066989Y0117501176D01*
X0014121373Y0117484959D01*
X0014180999Y0117476851D01*
X0014212992Y0117476175D01*
X0014233548Y0117476554D01*
X0014274584Y0117481102D01*
X0014315521Y0117490200D01*
X0014356359Y0117503845D01*
X0014397098Y0117522040D01*
X0014437738Y0117544782D01*
X0014498526Y0117586856D01*
X0014538902Y0117621728D01*
X0014579048Y0117659897D01*
X0014657362Y0117746121D01*
X0014733303Y0117844212D01*
X0014806871Y0117954168D01*
X0014842666Y0118014090D01*
X0014877934Y0118075528D01*
X0014945173Y0118203679D01*
X0015008457Y0118338158D01*
X0015067786Y0118478965D01*
X0015095802Y0118552005D01*
X0015122995Y0118626397D01*
X0015172436Y0118775510D01*
X0015215944Y0118925019D01*
X0015253518Y0119074923D01*
X0015269834Y0119150040D01*
X0015284996Y0119224729D01*
X0015308729Y0119369491D01*
X0015324551Y0119508716D01*
X0015332462Y0119642404D01*
X0015333121Y0119706941D01*
X0015331968Y0119790034D01*
X0015322450Y0119904218D01*
X0015312068Y0119974918D01*
X0015298224Y0120040971D01*
X0015280920Y0120102376D01*
X0015260155Y0120159134D01*
X0015235929Y0120211245D01*
X0015222374Y0120235364D01*
X0015208283Y0120258601D01*
X0015177630Y0120300131D01*
X0015144010Y0120335728D01*
X0015107424Y0120365393D01*
X0015067871Y0120389124D01*
X0015025352Y0120406923D01*
X0014979867Y0120418789D01*
X0014931415Y0120424722D01*
X0014906969Y0120425196D01*
X0015280315Y0120448564D01*
G37*
G36*
G01*
X0015065931Y0120481461D02*
X0015164615Y0120472957D01*
X0015255981Y0120455950D01*
X0015280315Y0120448564D01*
X0014906969Y0120425196D01*
X0014905953Y0120425216D01*
X0014882271Y0120424870D01*
X0014745451Y0120427671D01*
X0014784762Y0120444364D01*
X0014874150Y0120468887D01*
X0014966308Y0120481148D01*
X0015013540Y0120482170D01*
G37*
X0012558109Y0115925713D02*
X0013760508Y0120406230D01*
X0013304861Y0120406230D01*
X0013304861Y0120418888D01*
X0014184511Y0120418888D01*
X0013931375Y0119336729D01*
X0013811135Y0118855770D01*
X0013773162Y0118593141D01*
X0013064380Y0115925714D01*
X0012558109Y0115925713D01*
X0012083478Y0115925713D02*
X0012083478Y0115938371D01*
X0013599133Y0115938371D01*
X0013599133Y0115925713D01*
X0012083478Y0115925713D01*
X0014212989Y0117476175D02*
X0014212989Y0117476175D01*
X0014233548Y0117476554D01*
X0014274584Y0117481102D01*
X0014315521Y0117490200D01*
X0014356359Y0117503845D01*
X0014397098Y0117522040D01*
X0014437738Y0117544782D01*
X0014498526Y0117586856D01*
X0014538902Y0117621728D01*
X0014538902Y0117621728D01*
X0014579048Y0117659897D01*
X0014657362Y0117746121D01*
X0014733303Y0117844212D01*
X0014806871Y0117954168D01*
X0014842666Y0118014090D01*
X0014842666Y0118014090D01*
X0014877934Y0118075528D01*
X0014945173Y0118203679D01*
X0015008457Y0118338158D01*
X0015067786Y0118478965D01*
X0015095802Y0118552005D01*
X0015095802Y0118552005D01*
X0015122995Y0118626397D01*
X0015172436Y0118775510D01*
X0015215944Y0118925019D01*
X0015253518Y0119074923D01*
X0015269834Y0119150040D01*
X0015269834Y0119150040D01*
X0015284996Y0119224729D01*
X0015308729Y0119369491D01*
X0015324551Y0119508716D01*
X0015332462Y0119642404D01*
X0015333121Y0119706941D01*
X0015333121Y0119706941D01*
X0015331968Y0119790034D01*
X0015322450Y0119904218D01*
X0015312068Y0119974918D01*
X0015298224Y0120040971D01*
X0015280920Y0120102376D01*
X0015260155Y0120159134D01*
X0015235929Y0120211245D01*
X0015222374Y0120235364D01*
X0015222374Y0120235364D01*
X0015208283Y0120258601D01*
X0015177630Y0120300131D01*
X0015144010Y0120335728D01*
X0015107424Y0120365393D01*
X0015067871Y0120389124D01*
X0015025352Y0120406923D01*
X0014979867Y0120418789D01*
X0014931415Y0120424722D01*
X0014905953Y0120425216D01*
X0014905953Y0120425216D01*
X0014882271Y0120424870D01*
X0014835401Y0120420717D01*
X0014789125Y0120412411D01*
X0014743441Y0120399952D01*
X0014698352Y0120383340D01*
X0014653855Y0120362574D01*
X0014609951Y0120337656D01*
X0014566641Y0120308585D01*
X0014545233Y0120292319D01*
X0014545233Y0120292319D01*
X0014502813Y0120258930D01*
X0014420940Y0120182593D01*
X0014342625Y0120094787D01*
X0014267871Y0119995510D01*
X0014231977Y0119941092D01*
X0014231977Y0119941092D01*
X0014197534Y0119885949D01*
X0014132272Y0119770060D01*
X0014071361Y0119647447D01*
X0014014801Y0119518110D01*
X0013988333Y0119450640D01*
X0013988333Y0119450640D01*
X0013963481Y0119383269D01*
X0013918391Y0119247208D01*
X0013878838Y0119109565D01*
X0013844823Y0118970340D01*
X0013830122Y0118900068D01*
X0013830122Y0118900068D01*
X0013816478Y0118829994D01*
X0013795121Y0118693142D01*
X0013780883Y0118560245D01*
X0013773764Y0118431304D01*
X0013773171Y0118368481D01*
X0013773171Y0118368481D01*
X0013774094Y0118277049D01*
X0013785168Y0118105390D01*
X0013807318Y0117947180D01*
X0013840542Y0117802417D01*
X0013861768Y0117735639D01*
X0013861768Y0117735639D01*
X0013873675Y0117703882D01*
X0013901856Y0117647124D01*
X0013935278Y0117598475D01*
X0013973941Y0117557933D01*
X0014017844Y0117525500D01*
X0014066989Y0117501176D01*
X0014121373Y0117484959D01*
X0014180999Y0117476851D01*
X0014212995Y0117476175D01*
X0014212989Y0117476175D01*
X0014276276Y0117444531D02*
X0014276276Y0117444531D01*
X0014248491Y0117444877D01*
X0014195886Y0117449030D01*
X0014146841Y0117457336D01*
X0014101355Y0117469795D01*
X0014059430Y0117486408D01*
X0014021063Y0117507173D01*
X0013986257Y0117532091D01*
X0013955011Y0117561162D01*
X0013940871Y0117577428D01*
X0013940871Y0117577428D01*
X0013913975Y0117612234D01*
X0013868094Y0117689757D01*
X0013831705Y0117776773D01*
X0013804810Y0117873281D01*
X0013795317Y0117925491D01*
X0013795317Y0117925491D01*
X0013786979Y0117978689D01*
X0013773927Y0118087063D01*
X0013765226Y0118197810D01*
X0013760875Y0118310930D01*
X0013760513Y0118368479D01*
X0013760513Y0118368479D01*
X0013760908Y0118421711D01*
X0013765655Y0118530481D01*
X0013775148Y0118642019D01*
X0013789387Y0118756326D01*
X0013798485Y0118814633D01*
X0013798485Y0118814633D01*
X0013809131Y0118873962D01*
X0013834049Y0118992620D01*
X0013863318Y0119111277D01*
X0013896938Y0119229935D01*
X0013915560Y0119289264D01*
X0013915560Y0119289264D01*
X0013934875Y0119348329D01*
X0013976801Y0119463823D01*
X0014022682Y0119576152D01*
X0014072518Y0119685317D01*
X0014099084Y0119738582D01*
X0014099084Y0119738582D01*
X0014127068Y0119791879D01*
X0014186001Y0119893529D01*
X0014248494Y0119989246D01*
X0014314547Y0120079030D01*
X0014349057Y0120121450D01*
X0014349057Y0120121450D01*
X0014384160Y0120162618D01*
X0014457332Y0120237372D01*
X0014534064Y0120303030D01*
X0014614356Y0120359590D01*
X0014655985Y0120384080D01*
X0014655985Y0120384080D01*
X0014698141Y0120407581D01*
X0014784762Y0120444364D01*
X0014874150Y0120468887D01*
X0014966308Y0120481148D01*
X0015013540Y0120482170D01*
X0015013540Y0120482170D01*
X0015065931Y0120481461D01*
X0015164615Y0120472957D01*
X0015255981Y0120455950D01*
X0015340030Y0120430438D01*
X0015416763Y0120396423D01*
X0015486177Y0120353904D01*
X0015548275Y0120302882D01*
X0015603055Y0120243355D01*
X0015627397Y0120210049D01*
X0015627397Y0120210049D01*
X0015650634Y0120175860D01*
X0015692164Y0120101798D01*
X0015727761Y0120020913D01*
X0015757426Y0119933205D01*
X0015781157Y0119838674D01*
X0015798956Y0119737321D01*
X0015810822Y0119629145D01*
X0015816755Y0119514145D01*
X0015817249Y0119453803D01*
X0015817249Y0119453803D01*
X0015816903Y0119408334D01*
X0015812750Y0119317561D01*
X0015804444Y0119226985D01*
X0015791985Y0119136608D01*
X0015775373Y0119046428D01*
X0015754608Y0118956445D01*
X0015729690Y0118866661D01*
X0015700619Y0118777074D01*
X0015684353Y0118732363D01*
X0015684353Y0118732363D01*
X0015650173Y0118644425D01*
X0015572254Y0118475140D01*
X0015482865Y0118313765D01*
X0015382006Y0118160301D01*
X0015326797Y0118086865D01*
X0015326797Y0118086865D01*
X0015270138Y0118015275D01*
X0015151875Y0117883961D01*
X0015027680Y0117766885D01*
X0014930455Y0117688867D01*
X0014863908Y0117641009D01*
X0014830016Y0117618563D01*
X0014830016Y0117618563D01*
X0014795976Y0117597262D01*
X0014727649Y0117559193D01*
X0014659025Y0117526562D01*
X0014590105Y0117499369D01*
X0014520888Y0117477615D01*
X0014451374Y0117461300D01*
X0014381564Y0117450423D01*
X0014311457Y0117444984D01*
X0014276280Y0117444531D01*
X0014276276Y0117444531D01*
G36*
G01*
X0020923262Y0122317016D02*
X0021014035Y0122312270D01*
X0021102237Y0122302777D01*
X0021187869Y0122288538D01*
X0021270929Y0122269553D01*
X0021351418Y0122245821D01*
X0021429337Y0122217343D01*
X0021504685Y0122184119D01*
X0021541287Y0122165529D01*
X0021577692Y0122146149D01*
X0021646711Y0122103432D01*
X0021711182Y0122055969D01*
X0021771105Y0122003760D01*
X0021826478Y0121946804D01*
X0021877303Y0121885102D01*
X0021923580Y0121818653D01*
X0021925426Y0121815504D01*
X0022370313Y0122254124D01*
X0022382970Y0122254124D01*
X0022079207Y0120956799D01*
X0022066546Y0120956799D01*
X0022066546Y0120956802D01*
X0022066546Y0120956802D01*
X0022076401Y0121037457D01*
X0022083917Y0121190525D01*
X0022079493Y0121298529D01*
X0022072274Y0121367647D01*
X0022061397Y0121434293D01*
X0022046862Y0121498467D01*
X0022038070Y0121529524D01*
X0022019743Y0121591160D01*
X0021973861Y0121705863D01*
X0021916905Y0121810282D01*
X0021866575Y0121881526D01*
X0021829792Y0121926023D01*
X0021810247Y0121947200D01*
X0021770760Y0121989026D01*
X0021684535Y0122063781D01*
X0021589609Y0122127856D01*
X0021485981Y0122181252D01*
X0021430542Y0122203500D01*
X0021373949Y0122224727D01*
X0021256477Y0122257951D01*
X0021133864Y0122280100D01*
X0021006109Y0122291175D01*
X0020940089Y0122292098D01*
X0020897900Y0122291686D01*
X0020814840Y0122286742D01*
X0020733361Y0122276854D01*
X0020653465Y0122262022D01*
X0020575151Y0122242245D01*
X0020498419Y0122217525D01*
X0020423269Y0122187861D01*
X0020349701Y0122153252D01*
X0020313577Y0122133888D01*
X0020277716Y0122113798D01*
X0020207312Y0122070488D01*
X0020138491Y0122023420D01*
X0020071251Y0121972595D01*
X0020005594Y0121918013D01*
X0019941519Y0121859673D01*
X0019848175Y0121765587D01*
X0019788318Y0121697227D01*
X0019730308Y0121627581D01*
X0019619561Y0121480050D01*
X0019515142Y0121322631D01*
X0019417051Y0121155324D01*
X0019370643Y0121067550D01*
X0019326146Y0120978490D01*
X0019243086Y0120795758D01*
X0019167145Y0120607487D01*
X0019098323Y0120413680D01*
X0019066879Y0120314469D01*
X0019037412Y0120214730D01*
X0018984412Y0120014594D01*
X0018938531Y0119813667D01*
X0018899769Y0119611948D01*
X0018883355Y0119510760D01*
X0018868194Y0119410659D01*
X0018844464Y0119214082D01*
X0018828644Y0119021857D01*
X0018820734Y0118833982D01*
X0018820075Y0118741858D01*
X0018821195Y0118661500D01*
X0018834643Y0118504081D01*
X0018861539Y0118350617D01*
X0018901883Y0118201108D01*
X0018927658Y0118128001D01*
X0018941394Y0118091893D01*
X0018971751Y0118022478D01*
X0019005568Y0117956426D01*
X0019042846Y0117893735D01*
X0019083585Y0117834406D01*
X0019127785Y0117778439D01*
X0019175446Y0117725834D01*
X0019226568Y0117676591D01*
X0019253570Y0117653370D01*
X0019281150Y0117630907D01*
X0019339194Y0117590762D01*
X0019400698Y0117556351D01*
X0019465663Y0117527675D01*
X0019534089Y0117504735D01*
X0019605976Y0117487530D01*
X0019681324Y0117476059D01*
X0019760132Y0117470324D01*
X0019800979Y0117469846D01*
X0019853831Y0117470308D01*
X0019958052Y0117475845D01*
X0020060493Y0117486920D01*
X0020161154Y0117503532D01*
X0020260036Y0117525681D01*
X0020357137Y0117553368D01*
X0020452459Y0117586592D01*
X0020546001Y0117625354D01*
X0020592030Y0117647042D01*
X0020637656Y0117669513D01*
X0020726353Y0117717668D01*
X0020811984Y0117769680D01*
X0020894550Y0117825548D01*
X0020974051Y0117885272D01*
X0021050486Y0117948853D01*
X0021123856Y0118016290D01*
X0021194161Y0118087583D01*
X0021228036Y0118124837D01*
X0021261285Y0118162997D01*
X0021324075Y0118241212D01*
X0021382415Y0118321702D01*
X0021436305Y0118404466D01*
X0021485746Y0118489504D01*
X0021530737Y0118576816D01*
X0021571278Y0118666403D01*
X0021602747Y0118746498D01*
X0021623554Y0118805138D01*
X0021623560Y0118805138D01*
X0021623562Y0118805142D01*
X0021636219Y0118805142D01*
X0021636185Y0118805039D01*
X0021288149Y0117507813D01*
X0021275494Y0117507813D01*
X0021070183Y0117943322D01*
X0021051640Y0117926522D01*
X0020972436Y0117861953D01*
X0020889771Y0117801437D01*
X0020803646Y0117744976D01*
X0020714059Y0117692569D01*
X0020621011Y0117644216D01*
X0020573045Y0117621728D01*
X0020525006Y0117600040D01*
X0020427113Y0117561279D01*
X0020327045Y0117528055D01*
X0020224802Y0117500368D01*
X0020120383Y0117478218D01*
X0020013789Y0117461606D01*
X0019905019Y0117450532D01*
X0019794074Y0117444994D01*
X0019737695Y0117444533D01*
X0019737689Y0117444533D01*
X0019677487Y0117445060D01*
X0019560213Y0117451388D01*
X0019446697Y0117464045D01*
X0019336939Y0117483031D01*
X0019230938Y0117508344D01*
X0019128695Y0117539986D01*
X0019030209Y0117577957D01*
X0018935480Y0117622256D01*
X0018889682Y0117647042D01*
X0018845004Y0117673196D01*
X0018759768Y0117729954D01*
X0018679476Y0117792052D01*
X0018604129Y0117859489D01*
X0018533725Y0117932266D01*
X0018468265Y0118010382D01*
X0018407750Y0118093838D01*
X0018352179Y0118182634D01*
X0018326453Y0118229256D01*
X0018301667Y0118276686D01*
X0018257368Y0118375172D01*
X0018219397Y0118478009D01*
X0018187755Y0118585196D01*
X0018162442Y0118696735D01*
X0018143456Y0118812624D01*
X0018130799Y0118932863D01*
X0018124471Y0119057454D01*
X0018123944Y0119121562D01*
X0018124512Y0119202455D01*
X0018131335Y0119362347D01*
X0018144981Y0119519964D01*
X0018165449Y0119675307D01*
X0018192740Y0119828375D01*
X0018226855Y0119979169D01*
X0018267792Y0120127689D01*
X0018315551Y0120273935D01*
X0018342274Y0120346110D01*
X0018370381Y0120418137D01*
X0018430798Y0120558648D01*
X0018496257Y0120694906D01*
X0018566760Y0120826913D01*
X0018642305Y0120954668D01*
X0018722894Y0121078171D01*
X0018808525Y0121197422D01*
X0018899199Y0121312422D01*
X0018946638Y0121368150D01*
X0018994793Y0121423029D01*
X0019094070Y0121527843D01*
X0019196907Y0121626725D01*
X0019303303Y0121719673D01*
X0019413259Y0121806689D01*
X0019526775Y0121887772D01*
X0019643851Y0121962922D01*
X0019764486Y0122032139D01*
X0019826287Y0122064275D01*
X0019888533Y0122095258D01*
X0020014508Y0122150632D01*
X0020142263Y0122198095D01*
X0020271798Y0122237647D01*
X0020403112Y0122269289D01*
X0020536207Y0122293021D01*
X0020671081Y0122308842D01*
X0020807735Y0122316752D01*
X0020876804Y0122317411D01*
G37*
X0019737689Y0117444533D02*
X0019737689Y0117444533D01*
X0019677487Y0117445060D01*
X0019560213Y0117451388D01*
X0019446697Y0117464045D01*
X0019336939Y0117483031D01*
X0019230938Y0117508344D01*
X0019128695Y0117539986D01*
X0019030209Y0117577957D01*
X0018935480Y0117622256D01*
X0018889682Y0117647042D01*
X0018889682Y0117647042D01*
X0018845004Y0117673196D01*
X0018759768Y0117729954D01*
X0018679476Y0117792052D01*
X0018604129Y0117859489D01*
X0018533725Y0117932266D01*
X0018468265Y0118010382D01*
X0018407750Y0118093838D01*
X0018352179Y0118182634D01*
X0018326453Y0118229256D01*
X0018326453Y0118229256D01*
X0018301667Y0118276686D01*
X0018257368Y0118375172D01*
X0018219397Y0118478009D01*
X0018187755Y0118585196D01*
X0018162442Y0118696735D01*
X0018143456Y0118812624D01*
X0018130799Y0118932863D01*
X0018124471Y0119057454D01*
X0018123944Y0119121562D01*
X0018123944Y0119121562D01*
X0018124512Y0119202455D01*
X0018131335Y0119362347D01*
X0018144981Y0119519964D01*
X0018165449Y0119675307D01*
X0018192740Y0119828375D01*
X0018226855Y0119979169D01*
X0018267792Y0120127689D01*
X0018315551Y0120273935D01*
X0018342274Y0120346110D01*
X0018342274Y0120346110D01*
X0018370381Y0120418137D01*
X0018430798Y0120558648D01*
X0018496257Y0120694906D01*
X0018566760Y0120826913D01*
X0018642305Y0120954668D01*
X0018722894Y0121078171D01*
X0018808525Y0121197422D01*
X0018899199Y0121312422D01*
X0018946638Y0121368150D01*
X0018946638Y0121368150D01*
X0018994793Y0121423029D01*
X0019094070Y0121527843D01*
X0019196907Y0121626725D01*
X0019303303Y0121719673D01*
X0019413259Y0121806689D01*
X0019526775Y0121887772D01*
X0019643851Y0121962922D01*
X0019764486Y0122032139D01*
X0019826287Y0122064275D01*
X0019826287Y0122064275D01*
X0019888533Y0122095258D01*
X0020014508Y0122150632D01*
X0020142263Y0122198095D01*
X0020271798Y0122237647D01*
X0020403112Y0122269289D01*
X0020536207Y0122293021D01*
X0020671081Y0122308842D01*
X0020807735Y0122316752D01*
X0020876804Y0122317411D01*
X0020876804Y0122317411D01*
X0020923262Y0122317016D01*
X0021014035Y0122312270D01*
X0021102237Y0122302777D01*
X0021187869Y0122288538D01*
X0021270929Y0122269553D01*
X0021351418Y0122245821D01*
X0021429337Y0122217343D01*
X0021504685Y0122184119D01*
X0021541287Y0122165529D01*
X0021541287Y0122165529D01*
X0021577692Y0122146149D01*
X0021646711Y0122103432D01*
X0021711182Y0122055969D01*
X0021771105Y0122003760D01*
X0021826478Y0121946804D01*
X0021877303Y0121885102D01*
X0021923580Y0121818653D01*
X0021965308Y0121747459D01*
X0021984277Y0121709884D01*
X0021984277Y0121709884D01*
X0022002718Y0121671913D01*
X0022034162Y0121592017D01*
X0022059080Y0121507375D01*
X0022077472Y0121417986D01*
X0022089338Y0121323851D01*
X0022094678Y0121224969D01*
X0022093491Y0121121341D01*
X0022085779Y0121012967D01*
X0022079203Y0120956802D01*
X0022066546Y0120956802D01*
X0022066546Y0120956802D01*
X0022076401Y0121037457D01*
X0022083917Y0121190525D01*
X0022079493Y0121298529D01*
X0022072274Y0121367647D01*
X0022061397Y0121434293D01*
X0022046862Y0121498467D01*
X0022038070Y0121529524D01*
X0022038070Y0121529524D01*
X0022019743Y0121591160D01*
X0021973861Y0121705863D01*
X0021916905Y0121810282D01*
X0021866575Y0121881526D01*
X0021829792Y0121926023D01*
X0021810247Y0121947200D01*
X0021810247Y0121947200D01*
X0021770760Y0121989026D01*
X0021684535Y0122063781D01*
X0021589609Y0122127856D01*
X0021485981Y0122181252D01*
X0021430542Y0122203500D01*
X0021430542Y0122203500D01*
X0021373949Y0122224727D01*
X0021256477Y0122257951D01*
X0021133864Y0122280100D01*
X0021006109Y0122291175D01*
X0020940089Y0122292098D01*
X0020940089Y0122292098D01*
X0020897900Y0122291686D01*
X0020814840Y0122286742D01*
X0020733361Y0122276854D01*
X0020653465Y0122262022D01*
X0020575151Y0122242245D01*
X0020498419Y0122217525D01*
X0020423269Y0122187861D01*
X0020349701Y0122153252D01*
X0020313577Y0122133888D01*
X0020313577Y0122133888D01*
X0020277716Y0122113798D01*
X0020207312Y0122070488D01*
X0020138491Y0122023420D01*
X0020071251Y0121972595D01*
X0020005594Y0121918013D01*
X0019941519Y0121859673D01*
X0019848175Y0121765587D01*
X0019788318Y0121697227D01*
X0019788318Y0121697227D01*
X0019730308Y0121627581D01*
X0019619561Y0121480050D01*
X0019515142Y0121322631D01*
X0019417051Y0121155324D01*
X0019370643Y0121067550D01*
X0019370643Y0121067550D01*
X0019326146Y0120978490D01*
X0019243086Y0120795758D01*
X0019167145Y0120607487D01*
X0019098323Y0120413680D01*
X0019066879Y0120314469D01*
X0019066879Y0120314469D01*
X0019037412Y0120214730D01*
X0018984412Y0120014594D01*
X0018938531Y0119813667D01*
X0018899769Y0119611948D01*
X0018883355Y0119510760D01*
X0018883355Y0119510760D01*
X0018868194Y0119410659D01*
X0018844464Y0119214082D01*
X0018828644Y0119021857D01*
X0018820734Y0118833982D01*
X0018820075Y0118741858D01*
X0018820075Y0118741858D01*
X0018821195Y0118661500D01*
X0018834643Y0118504081D01*
X0018861539Y0118350617D01*
X0018901883Y0118201108D01*
X0018927658Y0118128001D01*
X0018927658Y0118128001D01*
X0018941394Y0118091893D01*
X0018971751Y0118022478D01*
X0019005568Y0117956426D01*
X0019042846Y0117893735D01*
X0019083585Y0117834406D01*
X0019127785Y0117778439D01*
X0019175446Y0117725834D01*
X0019226568Y0117676591D01*
X0019253570Y0117653370D01*
X0019253570Y0117653370D01*
X0019281150Y0117630907D01*
X0019339194Y0117590762D01*
X0019400698Y0117556351D01*
X0019465663Y0117527675D01*
X0019534089Y0117504735D01*
X0019605976Y0117487530D01*
X0019681324Y0117476059D01*
X0019760132Y0117470324D01*
X0019800979Y0117469846D01*
X0019800979Y0117469846D01*
X0019853831Y0117470308D01*
X0019958052Y0117475845D01*
X0020060493Y0117486920D01*
X0020161154Y0117503532D01*
X0020260036Y0117525681D01*
X0020357137Y0117553368D01*
X0020452459Y0117586592D01*
X0020546001Y0117625354D01*
X0020592030Y0117647042D01*
X0020592030Y0117647042D01*
X0020637656Y0117669513D01*
X0020726353Y0117717668D01*
X0020811984Y0117769680D01*
X0020894550Y0117825548D01*
X0020974051Y0117885272D01*
X0021050486Y0117948853D01*
X0021123856Y0118016290D01*
X0021194161Y0118087583D01*
X0021228036Y0118124837D01*
X0021228036Y0118124837D01*
X0021261285Y0118162997D01*
X0021324075Y0118241212D01*
X0021382415Y0118321702D01*
X0021436305Y0118404466D01*
X0021485746Y0118489504D01*
X0021530737Y0118576816D01*
X0021571278Y0118666403D01*
X0021607370Y0118758264D01*
X0021623562Y0118805142D01*
X0021636219Y0118805142D01*
X0021636219Y0118805142D01*
X0021620011Y0118756698D01*
X0021583721Y0118661871D01*
X0021542784Y0118569516D01*
X0021497200Y0118479632D01*
X0021446968Y0118392221D01*
X0021392089Y0118307282D01*
X0021332562Y0118224815D01*
X0021268388Y0118144820D01*
X0021234365Y0118105852D01*
X0021234365Y0118105852D01*
X0021199666Y0118067824D01*
X0021127383Y0117995146D01*
X0021051640Y0117926522D01*
X0020972436Y0117861953D01*
X0020889771Y0117801437D01*
X0020803646Y0117744976D01*
X0020714059Y0117692569D01*
X0020621011Y0117644216D01*
X0020573045Y0117621728D01*
X0020573045Y0117621728D01*
X0020525006Y0117600040D01*
X0020427113Y0117561279D01*
X0020327045Y0117528055D01*
X0020224802Y0117500368D01*
X0020120383Y0117478218D01*
X0020013789Y0117461606D01*
X0019905019Y0117450532D01*
X0019794074Y0117444994D01*
X0019737695Y0117444533D01*
X0019737689Y0117444533D01*
X0021275494Y0117507813D02*
X0021066657Y0117950802D01*
X0021066657Y0117950802D01*
X0021128227Y0118013032D01*
X0021250049Y0118142764D01*
X0021310301Y0118210267D01*
X0021310301Y0118210267D01*
X0021340394Y0118246326D01*
X0021400909Y0118330969D01*
X0021461820Y0118430641D01*
X0021523127Y0118545343D01*
X0021553945Y0118608957D01*
X0021623554Y0118805138D01*
X0021636211Y0118805138D01*
X0021288149Y0117507813D01*
X0021275494Y0117507813D01*
X0022066546Y0120956799D02*
X0022085532Y0121083368D01*
X0022085532Y0121083368D01*
X0022087410Y0121137588D01*
X0022086223Y0121242402D01*
X0022079104Y0121342865D01*
X0022066053Y0121438978D01*
X0022057056Y0121485222D01*
X0022057056Y0121485222D01*
X0022047663Y0121530674D01*
X0022021954Y0121617294D01*
X0021987939Y0121698773D01*
X0021945617Y0121775109D01*
X0021920995Y0121811135D01*
X0022370313Y0122254124D01*
X0022382970Y0122254124D01*
X0022079207Y0120956799D01*
X0022066546Y0120956799D01*
G36*
G01*
X0023896262Y0120466038D02*
X0023853644Y0120462281D01*
X0023789890Y0120450069D01*
X0023705248Y0120420009D01*
X0023621000Y0120374919D01*
X0023579042Y0120346111D01*
X0023537281Y0120315952D01*
X0023455407Y0120246735D01*
X0023375511Y0120166839D01*
X0023297592Y0120076264D01*
X0023259457Y0120026526D01*
X0023221750Y0119975338D01*
X0023148973Y0119867360D01*
X0023079361Y0119752657D01*
X0023012913Y0119631231D01*
X0022981007Y0119567716D01*
X0022949694Y0119503377D01*
X0022890365Y0119372063D01*
X0022834992Y0119237584D01*
X0022783573Y0119099941D01*
X0022759512Y0119029801D01*
X0022736967Y0118959463D01*
X0022695833Y0118819447D01*
X0022659444Y0118680222D01*
X0022627802Y0118541788D01*
X0022613959Y0118472901D01*
X0022601829Y0118405233D01*
X0022582842Y0118273523D01*
X0022570185Y0118146163D01*
X0022563856Y0118023155D01*
X0022563329Y0117963463D01*
X0022564515Y0117906672D01*
X0022574305Y0117827938D01*
X0022584984Y0117778794D01*
X0022599223Y0117732518D01*
X0022617021Y0117689109D01*
X0022638380Y0117648567D01*
X0022663298Y0117610893D01*
X0022677240Y0117593251D01*
X0022692196Y0117576598D01*
X0022725321Y0117546835D01*
X0022762303Y0117521323D01*
X0022803141Y0117500064D01*
X0022847835Y0117483056D01*
X0022896386Y0117470300D01*
X0022948793Y0117461796D01*
X0023005057Y0117457544D01*
X0023034796Y0117457190D01*
X0023034799Y0117457190D01*
X0023078208Y0117458410D01*
X0023164037Y0117473044D01*
X0023248680Y0117502313D01*
X0023332136Y0117546216D01*
X0023373369Y0117574266D01*
X0023415130Y0117605183D01*
X0023497004Y0117675586D01*
X0023576900Y0117756273D01*
X0023654819Y0117847244D01*
X0023692954Y0117897015D01*
X0023730661Y0117948202D01*
X0023803438Y0118056181D01*
X0023873050Y0118170883D01*
X0023939498Y0118292310D01*
X0023971404Y0118355825D01*
X0024002684Y0118420164D01*
X0024061617Y0118551478D01*
X0024116200Y0118685957D01*
X0024166432Y0118823600D01*
X0024189735Y0118893740D01*
X0024213005Y0118964078D01*
X0024254930Y0119104094D01*
X0024291319Y0119243319D01*
X0024322170Y0119381753D01*
X0024335288Y0119450641D01*
X0024348175Y0119519034D01*
X0024368347Y0119651535D01*
X0024381795Y0119778894D01*
X0024388518Y0119901112D01*
X0024389079Y0119960078D01*
X0024387892Y0120017594D01*
X0024378103Y0120096971D01*
X0024367424Y0120146313D01*
X0024353185Y0120192590D01*
X0024335386Y0120235801D01*
X0024314028Y0120275947D01*
X0024289110Y0120313027D01*
X0024275168Y0120330290D01*
X0024260591Y0120346944D01*
X0024228059Y0120376707D01*
X0024191473Y0120402219D01*
X0024150832Y0120423478D01*
X0024106138Y0120440486D01*
X0024057389Y0120453241D01*
X0024004586Y0120461745D01*
X0023965726Y0120464651D01*
X0024057948Y0120466602D01*
X0024130534Y0120453817D01*
X0024227042Y0120426229D01*
X0024315640Y0120389445D01*
X0024396327Y0120343465D01*
X0024469104Y0120288289D01*
X0024533970Y0120223918D01*
X0024563107Y0120187900D01*
X0024591379Y0120151157D01*
X0024641908Y0120074129D01*
X0024685218Y0119992848D01*
X0024721309Y0119907316D01*
X0024750183Y0119817532D01*
X0024771838Y0119723495D01*
X0024786275Y0119625207D01*
X0024793493Y0119522667D01*
X0024794095Y0119469626D01*
X0024793732Y0119417935D01*
X0024789381Y0119315790D01*
X0024780680Y0119215129D01*
X0024767627Y0119115951D01*
X0024750224Y0119018256D01*
X0024728470Y0118922044D01*
X0024702365Y0118827316D01*
X0024671910Y0118734071D01*
X0024654869Y0118688066D01*
X0024637598Y0118642408D01*
X0024600418Y0118553316D01*
X0024560075Y0118466893D01*
X0024516567Y0118383140D01*
X0024469895Y0118302058D01*
X0024420059Y0118223645D01*
X0024367058Y0118147901D01*
X0024310894Y0118074828D01*
X0024281493Y0118039404D01*
X0024251647Y0118004911D01*
X0024190143Y0117939055D01*
X0024126463Y0117876958D01*
X0024060608Y0117818618D01*
X0023992578Y0117764035D01*
X0023922372Y0117713210D01*
X0023849991Y0117666142D01*
X0023775434Y0117622832D01*
X0023737250Y0117602743D01*
X0023699197Y0117583379D01*
X0023622267Y0117548770D01*
X0023544348Y0117519106D01*
X0023465441Y0117494385D01*
X0023385545Y0117474609D01*
X0023304659Y0117459777D01*
X0023222786Y0117449889D01*
X0023139923Y0117444945D01*
X0023098080Y0117444533D01*
X0023038998Y0117445291D01*
X0022927262Y0117454388D01*
X0022823238Y0117472582D01*
X0022726928Y0117499873D01*
X0022638330Y0117536262D01*
X0022557445Y0117581747D01*
X0022484273Y0117636330D01*
X0022418813Y0117700009D01*
X0022389297Y0117735639D01*
X0022361026Y0117772382D01*
X0022310497Y0117849411D01*
X0022267187Y0117930692D01*
X0022231095Y0118016224D01*
X0022202222Y0118106009D01*
X0022180567Y0118200045D01*
X0022166130Y0118298333D01*
X0022158912Y0118400873D01*
X0022158310Y0118453915D01*
X0022158665Y0118505605D01*
X0022162916Y0118607750D01*
X0022171420Y0118708411D01*
X0022184176Y0118807589D01*
X0022201184Y0118905284D01*
X0022222443Y0119001496D01*
X0022247955Y0119096224D01*
X0022277718Y0119189469D01*
X0022294371Y0119235474D01*
X0022312030Y0119281124D01*
X0022349901Y0119370117D01*
X0022390838Y0119456342D01*
X0022434840Y0119539798D01*
X0022481908Y0119620485D01*
X0022532041Y0119698404D01*
X0022585239Y0119773554D01*
X0022641503Y0119845935D01*
X0022670912Y0119880972D01*
X0022700749Y0119915853D01*
X0022762155Y0119982400D01*
X0022825636Y0120045091D01*
X0022891195Y0120103925D01*
X0022958830Y0120158903D01*
X0023028541Y0120210025D01*
X0023100329Y0120257290D01*
X0023174194Y0120300699D01*
X0023211991Y0120320797D01*
X0023250431Y0120340548D01*
X0023328053Y0120375849D01*
X0023406565Y0120406107D01*
X0023485967Y0120431321D01*
X0023566259Y0120451493D01*
X0023647440Y0120466622D01*
X0023660499Y0120468227D01*
G37*
G36*
G01*
X0023913786Y0120481405D02*
X0024026115Y0120472209D01*
X0024057948Y0120466602D01*
X0023965726Y0120464651D01*
X0023947730Y0120465997D01*
X0023917612Y0120466351D01*
X0023896262Y0120466038D01*
X0023660499Y0120468227D01*
X0023729512Y0120476708D01*
X0023812474Y0120481751D01*
X0023854325Y0120482171D01*
G37*
X0023098080Y0117444533D02*
X0023098080Y0117444533D01*
X0023038998Y0117445291D01*
X0022927262Y0117454388D01*
X0022823238Y0117472582D01*
X0022726928Y0117499873D01*
X0022638330Y0117536262D01*
X0022557445Y0117581747D01*
X0022484273Y0117636330D01*
X0022418813Y0117700009D01*
X0022389297Y0117735639D01*
X0022389297Y0117735639D01*
X0022361026Y0117772382D01*
X0022310497Y0117849411D01*
X0022267187Y0117930692D01*
X0022231095Y0118016224D01*
X0022202222Y0118106009D01*
X0022180567Y0118200045D01*
X0022166130Y0118298333D01*
X0022158912Y0118400873D01*
X0022158310Y0118453915D01*
X0022158310Y0118453915D01*
X0022158665Y0118505605D01*
X0022162916Y0118607750D01*
X0022171420Y0118708411D01*
X0022184176Y0118807589D01*
X0022201184Y0118905284D01*
X0022222443Y0119001496D01*
X0022247955Y0119096224D01*
X0022277718Y0119189469D01*
X0022294371Y0119235474D01*
X0022294371Y0119235474D01*
X0022312030Y0119281124D01*
X0022349901Y0119370117D01*
X0022390838Y0119456342D01*
X0022434840Y0119539798D01*
X0022481908Y0119620485D01*
X0022532041Y0119698404D01*
X0022585239Y0119773554D01*
X0022641503Y0119845935D01*
X0022670912Y0119880972D01*
X0022670912Y0119880972D01*
X0022700749Y0119915853D01*
X0022762155Y0119982400D01*
X0022825636Y0120045091D01*
X0022891195Y0120103925D01*
X0022958830Y0120158903D01*
X0023028541Y0120210025D01*
X0023100329Y0120257290D01*
X0023174194Y0120300699D01*
X0023211991Y0120320797D01*
X0023211991Y0120320797D01*
X0023250431Y0120340548D01*
X0023328053Y0120375849D01*
X0023406565Y0120406107D01*
X0023485967Y0120431321D01*
X0023566259Y0120451493D01*
X0023647440Y0120466622D01*
X0023729512Y0120476708D01*
X0023812474Y0120481751D01*
X0023854325Y0120482171D01*
X0023854325Y0120482171D01*
X0023913786Y0120481405D01*
X0024026115Y0120472209D01*
X0024130534Y0120453817D01*
X0024227042Y0120426229D01*
X0024315640Y0120389445D01*
X0024396327Y0120343465D01*
X0024469104Y0120288289D01*
X0024533970Y0120223918D01*
X0024563107Y0120187900D01*
X0024563107Y0120187900D01*
X0024591379Y0120151157D01*
X0024641908Y0120074129D01*
X0024685218Y0119992848D01*
X0024721309Y0119907316D01*
X0024750183Y0119817532D01*
X0024771838Y0119723495D01*
X0024786275Y0119625207D01*
X0024793493Y0119522667D01*
X0024794095Y0119469626D01*
X0024794095Y0119469626D01*
X0024793732Y0119417935D01*
X0024789381Y0119315790D01*
X0024780680Y0119215129D01*
X0024767627Y0119115951D01*
X0024750224Y0119018256D01*
X0024728470Y0118922044D01*
X0024702365Y0118827316D01*
X0024671910Y0118734071D01*
X0024654869Y0118688066D01*
X0024654869Y0118688066D01*
X0024637598Y0118642408D01*
X0024600418Y0118553316D01*
X0024560075Y0118466893D01*
X0024516567Y0118383140D01*
X0024469895Y0118302058D01*
X0024420059Y0118223645D01*
X0024367058Y0118147901D01*
X0024310894Y0118074828D01*
X0024281493Y0118039404D01*
X0024281493Y0118039404D01*
X0024251647Y0118004911D01*
X0024190143Y0117939055D01*
X0024126463Y0117876958D01*
X0024060608Y0117818618D01*
X0023992578Y0117764035D01*
X0023922372Y0117713210D01*
X0023849991Y0117666142D01*
X0023775434Y0117622832D01*
X0023737250Y0117602743D01*
X0023737250Y0117602743D01*
X0023699197Y0117583379D01*
X0023622267Y0117548770D01*
X0023544348Y0117519106D01*
X0023465441Y0117494385D01*
X0023385545Y0117474609D01*
X0023304659Y0117459777D01*
X0023222786Y0117449889D01*
X0023139923Y0117444945D01*
X0023098080Y0117444533D01*
X0023098080Y0117444533D01*
X0023034799Y0117457190D02*
X0023034799Y0117457190D01*
X0023078208Y0117458410D01*
X0023164037Y0117473044D01*
X0023248680Y0117502313D01*
X0023332136Y0117546216D01*
X0023373369Y0117574266D01*
X0023373369Y0117574266D01*
X0023415130Y0117605183D01*
X0023497004Y0117675586D01*
X0023576900Y0117756273D01*
X0023654819Y0117847244D01*
X0023692954Y0117897015D01*
X0023692954Y0117897015D01*
X0023730661Y0117948202D01*
X0023803438Y0118056181D01*
X0023873050Y0118170883D01*
X0023939498Y0118292310D01*
X0023971404Y0118355825D01*
X0023971404Y0118355825D01*
X0024002684Y0118420164D01*
X0024061617Y0118551478D01*
X0024116200Y0118685957D01*
X0024166432Y0118823600D01*
X0024189735Y0118893740D01*
X0024189735Y0118893740D01*
X0024213005Y0118964078D01*
X0024254930Y0119104094D01*
X0024291319Y0119243319D01*
X0024322170Y0119381753D01*
X0024335288Y0119450641D01*
X0024335288Y0119450641D01*
X0024348175Y0119519034D01*
X0024368347Y0119651535D01*
X0024381795Y0119778894D01*
X0024388518Y0119901112D01*
X0024389079Y0119960078D01*
X0024389079Y0119960078D01*
X0024387892Y0120017594D01*
X0024378103Y0120096971D01*
X0024367424Y0120146313D01*
X0024353185Y0120192590D01*
X0024335386Y0120235801D01*
X0024314028Y0120275947D01*
X0024289110Y0120313027D01*
X0024275168Y0120330290D01*
X0024275168Y0120330290D01*
X0024260591Y0120346944D01*
X0024228059Y0120376707D01*
X0024191473Y0120402219D01*
X0024150832Y0120423478D01*
X0024106138Y0120440486D01*
X0024057389Y0120453241D01*
X0024004586Y0120461745D01*
X0023947730Y0120465997D01*
X0023917612Y0120466351D01*
X0023917612Y0120466351D01*
X0023896262Y0120466038D01*
X0023853644Y0120462281D01*
X0023789890Y0120450069D01*
X0023705248Y0120420009D01*
X0023621000Y0120374919D01*
X0023579042Y0120346111D01*
X0023579042Y0120346111D01*
X0023537281Y0120315952D01*
X0023455407Y0120246735D01*
X0023375511Y0120166839D01*
X0023297592Y0120076264D01*
X0023259457Y0120026526D01*
X0023259457Y0120026526D01*
X0023221750Y0119975338D01*
X0023148973Y0119867360D01*
X0023079361Y0119752657D01*
X0023012913Y0119631231D01*
X0022981007Y0119567716D01*
X0022981007Y0119567716D01*
X0022949694Y0119503377D01*
X0022890365Y0119372063D01*
X0022834992Y0119237584D01*
X0022783573Y0119099941D01*
X0022759512Y0119029801D01*
X0022759512Y0119029801D01*
X0022736967Y0118959463D01*
X0022695833Y0118819447D01*
X0022659444Y0118680222D01*
X0022627802Y0118541788D01*
X0022613959Y0118472901D01*
X0022613959Y0118472901D01*
X0022601829Y0118405233D01*
X0022582842Y0118273523D01*
X0022570185Y0118146163D01*
X0022563856Y0118023155D01*
X0022563329Y0117963463D01*
X0022563329Y0117963463D01*
X0022564515Y0117906672D01*
X0022574305Y0117827938D01*
X0022584984Y0117778794D01*
X0022599223Y0117732518D01*
X0022617021Y0117689109D01*
X0022638380Y0117648567D01*
X0022663298Y0117610893D01*
X0022677240Y0117593251D01*
X0022677240Y0117593251D01*
X0022692196Y0117576598D01*
X0022725321Y0117546835D01*
X0022762303Y0117521323D01*
X0022803141Y0117500064D01*
X0022847835Y0117483056D01*
X0022896386Y0117470300D01*
X0022948793Y0117461796D01*
X0023005057Y0117457544D01*
X0023034796Y0117457190D01*
X0023034799Y0117457190D01*
G36*
G01*
X0027642462Y0120430438D02*
X0027719194Y0120396423D01*
X0027788609Y0120353904D01*
X0027850706Y0120302882D01*
X0027905487Y0120243355D01*
X0027929828Y0120210049D01*
X0027953065Y0120175860D01*
X0027994595Y0120101798D01*
X0028030193Y0120020913D01*
X0028059857Y0119933205D01*
X0028083589Y0119838674D01*
X0028101387Y0119737321D01*
X0028113253Y0119629145D01*
X0028119186Y0119514145D01*
X0028119680Y0119453803D01*
X0028119334Y0119408334D01*
X0028115181Y0119317561D01*
X0028106875Y0119226985D01*
X0028094416Y0119136608D01*
X0028077804Y0119046428D01*
X0028057039Y0118956445D01*
X0028032121Y0118866661D01*
X0028003050Y0118777074D01*
X0027986784Y0118732363D01*
X0027952604Y0118644425D01*
X0027874685Y0118475140D01*
X0027785296Y0118313765D01*
X0027684437Y0118160301D01*
X0027629228Y0118086865D01*
X0027572569Y0118015275D01*
X0027454307Y0117883961D01*
X0027330112Y0117766885D01*
X0027232886Y0117688867D01*
X0027166339Y0117641009D01*
X0027132448Y0117618563D01*
X0027098408Y0117597262D01*
X0027030081Y0117559193D01*
X0026961457Y0117526562D01*
X0026892537Y0117499369D01*
X0026823320Y0117477615D01*
X0026753806Y0117461300D01*
X0026683995Y0117450423D01*
X0026613888Y0117444984D01*
X0026578711Y0117444531D01*
X0026578708Y0117444531D01*
X0026550922Y0117444877D01*
X0026498317Y0117449030D01*
X0026449272Y0117457336D01*
X0026403786Y0117469795D01*
X0026361861Y0117486408D01*
X0026323495Y0117507173D01*
X0026288688Y0117532091D01*
X0026257442Y0117561162D01*
X0026243302Y0117577428D01*
X0026216406Y0117612234D01*
X0026170525Y0117689757D01*
X0026134137Y0117776773D01*
X0026107241Y0117873281D01*
X0026097748Y0117925491D01*
X0026089410Y0117978689D01*
X0026076358Y0118087063D01*
X0026067657Y0118197810D01*
X0026063306Y0118310930D01*
X0026062944Y0118368479D01*
X0026063339Y0118421711D01*
X0026068086Y0118530481D01*
X0026072391Y0118581061D01*
X0025370181Y0115938371D01*
X0025901571Y0115938371D01*
X0025901571Y0115925713D01*
X0024385916Y0115925713D01*
X0024385916Y0115938371D01*
X0024863944Y0115938371D01*
X0026062946Y0120406230D01*
X0025607300Y0120406230D01*
X0025607300Y0120418888D01*
X0026486949Y0120418888D01*
X0026234566Y0119339947D01*
X0026237307Y0119348329D01*
X0026279233Y0119463823D01*
X0026325114Y0119576152D01*
X0026374950Y0119685317D01*
X0026401516Y0119738582D01*
X0026429500Y0119791879D01*
X0026488433Y0119893529D01*
X0026550926Y0119989246D01*
X0026616979Y0120079030D01*
X0026651488Y0120121450D01*
X0026686591Y0120162618D01*
X0026759764Y0120237372D01*
X0026836496Y0120303030D01*
X0026916787Y0120359590D01*
X0026958416Y0120384080D01*
X0027000573Y0120407581D01*
X0027047883Y0120427671D01*
X0027184703Y0120424870D01*
X0027137834Y0120420717D01*
X0027091557Y0120412411D01*
X0027045874Y0120399952D01*
X0027000784Y0120383340D01*
X0026956287Y0120362574D01*
X0026912384Y0120337656D01*
X0026869074Y0120308585D01*
X0026847666Y0120292319D01*
X0026805246Y0120258930D01*
X0026723372Y0120182593D01*
X0026645058Y0120094787D01*
X0026570303Y0119995510D01*
X0026534409Y0119941092D01*
X0026499966Y0119885949D01*
X0026434704Y0119770060D01*
X0026373793Y0119647447D01*
X0026317233Y0119518110D01*
X0026290765Y0119450640D01*
X0026265913Y0119383269D01*
X0026220823Y0119247208D01*
X0026181270Y0119109565D01*
X0026147255Y0118970340D01*
X0026132555Y0118900068D01*
X0026118909Y0118829994D01*
X0026097549Y0118693142D01*
X0026083310Y0118560245D01*
X0026076190Y0118431304D01*
X0026075596Y0118368481D01*
X0026076519Y0118277049D01*
X0026087594Y0118105390D01*
X0026109743Y0117947180D01*
X0026142967Y0117802417D01*
X0026164194Y0117735639D01*
X0026176101Y0117703882D01*
X0026204282Y0117647124D01*
X0026237704Y0117598475D01*
X0026276367Y0117557933D01*
X0026320270Y0117525500D01*
X0026369414Y0117501176D01*
X0026423799Y0117484959D01*
X0026483425Y0117476851D01*
X0026515421Y0117476175D01*
X0026515427Y0117476175D01*
X0026535986Y0117476554D01*
X0026577022Y0117481102D01*
X0026617959Y0117490200D01*
X0026658797Y0117503845D01*
X0026699537Y0117522040D01*
X0026740177Y0117544782D01*
X0026800964Y0117586856D01*
X0026841341Y0117621728D01*
X0026881487Y0117659897D01*
X0026959801Y0117746121D01*
X0027035742Y0117844212D01*
X0027109309Y0117954168D01*
X0027145104Y0118014090D01*
X0027180372Y0118075528D01*
X0027247612Y0118203679D01*
X0027310896Y0118338158D01*
X0027370225Y0118478965D01*
X0027398241Y0118552005D01*
X0027425434Y0118626397D01*
X0027474874Y0118775510D01*
X0027518382Y0118925019D01*
X0027555957Y0119074923D01*
X0027572273Y0119150040D01*
X0027587434Y0119224729D01*
X0027611164Y0119369491D01*
X0027626984Y0119508716D01*
X0027634894Y0119642404D01*
X0027635553Y0119706941D01*
X0027634400Y0119790034D01*
X0027624882Y0119904218D01*
X0027614500Y0119974918D01*
X0027600656Y0120040971D01*
X0027583352Y0120102376D01*
X0027562587Y0120159134D01*
X0027538361Y0120211245D01*
X0027524806Y0120235364D01*
X0027510715Y0120258601D01*
X0027480062Y0120300131D01*
X0027446442Y0120335728D01*
X0027409856Y0120365393D01*
X0027370304Y0120389124D01*
X0027327785Y0120406923D01*
X0027282299Y0120418789D01*
X0027233847Y0120424722D01*
X0027209401Y0120425196D01*
X0027582747Y0120448564D01*
G37*
G36*
G01*
X0027368363Y0120481461D02*
X0027467046Y0120472957D01*
X0027558413Y0120455950D01*
X0027582747Y0120448564D01*
X0027209401Y0120425196D01*
X0027208385Y0120425216D01*
X0027184703Y0120424870D01*
X0027047883Y0120427671D01*
X0027087193Y0120444364D01*
X0027176582Y0120468887D01*
X0027268740Y0120481148D01*
X0027315972Y0120482170D01*
G37*
X0024860547Y0115925713D02*
X0026062946Y0120406230D01*
X0025607300Y0120406230D01*
X0025607300Y0120418888D01*
X0026486949Y0120418888D01*
X0026233813Y0119336729D01*
X0026113573Y0118855770D01*
X0026075601Y0118593141D01*
X0025366818Y0115925714D01*
X0024860547Y0115925713D01*
X0024385916Y0115925713D02*
X0024385916Y0115938371D01*
X0025901571Y0115938371D01*
X0025901571Y0115925713D01*
X0024385916Y0115925713D01*
X0026515427Y0117476175D02*
X0026515427Y0117476175D01*
X0026535986Y0117476554D01*
X0026577022Y0117481102D01*
X0026617959Y0117490200D01*
X0026658797Y0117503845D01*
X0026699537Y0117522040D01*
X0026740177Y0117544782D01*
X0026800964Y0117586856D01*
X0026841341Y0117621728D01*
X0026841341Y0117621728D01*
X0026881487Y0117659897D01*
X0026959801Y0117746121D01*
X0027035742Y0117844212D01*
X0027109309Y0117954168D01*
X0027145104Y0118014090D01*
X0027145104Y0118014090D01*
X0027180372Y0118075528D01*
X0027247612Y0118203679D01*
X0027310896Y0118338158D01*
X0027370225Y0118478965D01*
X0027398241Y0118552005D01*
X0027398241Y0118552005D01*
X0027425434Y0118626397D01*
X0027474874Y0118775510D01*
X0027518382Y0118925019D01*
X0027555957Y0119074923D01*
X0027572273Y0119150040D01*
X0027572273Y0119150040D01*
X0027587434Y0119224729D01*
X0027611164Y0119369491D01*
X0027626984Y0119508716D01*
X0027634894Y0119642404D01*
X0027635553Y0119706941D01*
X0027635553Y0119706941D01*
X0027634400Y0119790034D01*
X0027624882Y0119904218D01*
X0027614500Y0119974918D01*
X0027600656Y0120040971D01*
X0027583352Y0120102376D01*
X0027562587Y0120159134D01*
X0027538361Y0120211245D01*
X0027524806Y0120235364D01*
X0027524806Y0120235364D01*
X0027510715Y0120258601D01*
X0027480062Y0120300131D01*
X0027446442Y0120335728D01*
X0027409856Y0120365393D01*
X0027370304Y0120389124D01*
X0027327785Y0120406923D01*
X0027282299Y0120418789D01*
X0027233847Y0120424722D01*
X0027208385Y0120425216D01*
X0027208385Y0120425216D01*
X0027184703Y0120424870D01*
X0027137834Y0120420717D01*
X0027091557Y0120412411D01*
X0027045874Y0120399952D01*
X0027000784Y0120383340D01*
X0026956287Y0120362574D01*
X0026912384Y0120337656D01*
X0026869074Y0120308585D01*
X0026847666Y0120292319D01*
X0026847666Y0120292319D01*
X0026805246Y0120258930D01*
X0026723372Y0120182593D01*
X0026645058Y0120094787D01*
X0026570303Y0119995510D01*
X0026534409Y0119941092D01*
X0026534409Y0119941092D01*
X0026499966Y0119885949D01*
X0026434704Y0119770060D01*
X0026373793Y0119647447D01*
X0026317233Y0119518110D01*
X0026290765Y0119450640D01*
X0026290765Y0119450640D01*
X0026265913Y0119383269D01*
X0026220823Y0119247208D01*
X0026181270Y0119109565D01*
X0026147255Y0118970340D01*
X0026132555Y0118900068D01*
X0026132555Y0118900068D01*
X0026118909Y0118829994D01*
X0026097549Y0118693142D01*
X0026083310Y0118560245D01*
X0026076190Y0118431304D01*
X0026075596Y0118368481D01*
X0026075596Y0118368481D01*
X0026076519Y0118277049D01*
X0026087594Y0118105390D01*
X0026109743Y0117947180D01*
X0026142967Y0117802417D01*
X0026164194Y0117735639D01*
X0026164194Y0117735639D01*
X0026176101Y0117703882D01*
X0026204282Y0117647124D01*
X0026237704Y0117598475D01*
X0026276367Y0117557933D01*
X0026320270Y0117525500D01*
X0026369414Y0117501176D01*
X0026423799Y0117484959D01*
X0026483425Y0117476851D01*
X0026515421Y0117476175D01*
X0026515427Y0117476175D01*
X0026578708Y0117444531D02*
X0026578708Y0117444531D01*
X0026550922Y0117444877D01*
X0026498317Y0117449030D01*
X0026449272Y0117457336D01*
X0026403786Y0117469795D01*
X0026361861Y0117486408D01*
X0026323495Y0117507173D01*
X0026288688Y0117532091D01*
X0026257442Y0117561162D01*
X0026243302Y0117577428D01*
X0026243302Y0117577428D01*
X0026216406Y0117612234D01*
X0026170525Y0117689757D01*
X0026134137Y0117776773D01*
X0026107241Y0117873281D01*
X0026097748Y0117925491D01*
X0026097748Y0117925491D01*
X0026089410Y0117978689D01*
X0026076358Y0118087063D01*
X0026067657Y0118197810D01*
X0026063306Y0118310930D01*
X0026062944Y0118368479D01*
X0026062944Y0118368479D01*
X0026063339Y0118421711D01*
X0026068086Y0118530481D01*
X0026077579Y0118642019D01*
X0026091819Y0118756326D01*
X0026100916Y0118814633D01*
X0026100916Y0118814633D01*
X0026111562Y0118873962D01*
X0026136480Y0118992620D01*
X0026165749Y0119111277D01*
X0026199369Y0119229935D01*
X0026217992Y0119289264D01*
X0026217992Y0119289264D01*
X0026237307Y0119348329D01*
X0026279233Y0119463823D01*
X0026325114Y0119576152D01*
X0026374950Y0119685317D01*
X0026401516Y0119738582D01*
X0026401516Y0119738582D01*
X0026429500Y0119791879D01*
X0026488433Y0119893529D01*
X0026550926Y0119989246D01*
X0026616979Y0120079030D01*
X0026651488Y0120121450D01*
X0026651488Y0120121450D01*
X0026686591Y0120162618D01*
X0026759764Y0120237372D01*
X0026836496Y0120303030D01*
X0026916787Y0120359590D01*
X0026958416Y0120384080D01*
X0026958416Y0120384080D01*
X0027000573Y0120407581D01*
X0027087193Y0120444364D01*
X0027176582Y0120468887D01*
X0027268740Y0120481148D01*
X0027315972Y0120482170D01*
X0027315972Y0120482170D01*
X0027368363Y0120481461D01*
X0027467046Y0120472957D01*
X0027558413Y0120455950D01*
X0027642462Y0120430438D01*
X0027719194Y0120396423D01*
X0027788609Y0120353904D01*
X0027850706Y0120302882D01*
X0027905487Y0120243355D01*
X0027929828Y0120210049D01*
X0027929828Y0120210049D01*
X0027953065Y0120175860D01*
X0027994595Y0120101798D01*
X0028030193Y0120020913D01*
X0028059857Y0119933205D01*
X0028083589Y0119838674D01*
X0028101387Y0119737321D01*
X0028113253Y0119629145D01*
X0028119186Y0119514145D01*
X0028119680Y0119453803D01*
X0028119680Y0119453803D01*
X0028119334Y0119408334D01*
X0028115181Y0119317561D01*
X0028106875Y0119226985D01*
X0028094416Y0119136608D01*
X0028077804Y0119046428D01*
X0028057039Y0118956445D01*
X0028032121Y0118866661D01*
X0028003050Y0118777074D01*
X0027986784Y0118732363D01*
X0027986784Y0118732363D01*
X0027952604Y0118644425D01*
X0027874685Y0118475140D01*
X0027785296Y0118313765D01*
X0027684437Y0118160301D01*
X0027629228Y0118086865D01*
X0027629228Y0118086865D01*
X0027572569Y0118015275D01*
X0027454307Y0117883961D01*
X0027330112Y0117766885D01*
X0027232886Y0117688867D01*
X0027166339Y0117641009D01*
X0027132448Y0117618563D01*
X0027132448Y0117618563D01*
X0027098408Y0117597262D01*
X0027030081Y0117559193D01*
X0026961457Y0117526562D01*
X0026892537Y0117499369D01*
X0026823320Y0117477615D01*
X0026753806Y0117461300D01*
X0026683995Y0117450423D01*
X0026613888Y0117444984D01*
X0026578711Y0117444531D01*
X0026578708Y0117444531D01*
G36*
G01*
X0031123093Y0120430438D02*
X0031199825Y0120396423D01*
X0031269240Y0120353904D01*
X0031331337Y0120302882D01*
X0031386117Y0120243355D01*
X0031410459Y0120210049D01*
X0031433696Y0120175860D01*
X0031475226Y0120101798D01*
X0031510824Y0120020913D01*
X0031540488Y0119933205D01*
X0031564220Y0119838674D01*
X0031582018Y0119737321D01*
X0031593884Y0119629145D01*
X0031599817Y0119514145D01*
X0031600311Y0119453803D01*
X0031599965Y0119408334D01*
X0031595812Y0119317561D01*
X0031587506Y0119226985D01*
X0031575047Y0119136608D01*
X0031558435Y0119046428D01*
X0031537670Y0118956445D01*
X0031512751Y0118866661D01*
X0031483680Y0118777074D01*
X0031467414Y0118732363D01*
X0031433234Y0118644425D01*
X0031355315Y0118475140D01*
X0031265927Y0118313765D01*
X0031165068Y0118160301D01*
X0031109859Y0118086865D01*
X0031053200Y0118015275D01*
X0030934938Y0117883961D01*
X0030810743Y0117766885D01*
X0030713517Y0117688867D01*
X0030646970Y0117641009D01*
X0030613078Y0117618563D01*
X0030579039Y0117597262D01*
X0030510711Y0117559193D01*
X0030442088Y0117526562D01*
X0030373167Y0117499369D01*
X0030303950Y0117477615D01*
X0030234437Y0117461300D01*
X0030164626Y0117450423D01*
X0030094519Y0117444984D01*
X0030059342Y0117444531D01*
X0030059338Y0117444531D01*
X0030031552Y0117444877D01*
X0029978947Y0117449030D01*
X0029929902Y0117457336D01*
X0029884417Y0117469795D01*
X0029842491Y0117486408D01*
X0029804125Y0117507173D01*
X0029769319Y0117532091D01*
X0029738072Y0117561162D01*
X0029723932Y0117577428D01*
X0029697036Y0117612234D01*
X0029651155Y0117689757D01*
X0029614767Y0117776773D01*
X0029587871Y0117873281D01*
X0029578379Y0117925491D01*
X0029570040Y0117978689D01*
X0029556988Y0118087063D01*
X0029548287Y0118197810D01*
X0029543937Y0118310930D01*
X0029543574Y0118368479D01*
X0029543970Y0118421711D01*
X0029548716Y0118530481D01*
X0029553024Y0118581100D01*
X0028850805Y0115938371D01*
X0029382194Y0115938371D01*
X0029382194Y0115925713D01*
X0027866539Y0115925713D01*
X0027866539Y0115938371D01*
X0028344567Y0115938371D01*
X0029543568Y0120406230D01*
X0029087923Y0120406230D01*
X0029087923Y0120418888D01*
X0029967573Y0120418888D01*
X0029715170Y0119339866D01*
X0029717938Y0119348329D01*
X0029759863Y0119463823D01*
X0029805744Y0119576152D01*
X0029855580Y0119685317D01*
X0029882146Y0119738582D01*
X0029910130Y0119791879D01*
X0029969063Y0119893529D01*
X0030031557Y0119989246D01*
X0030097610Y0120079030D01*
X0030132119Y0120121450D01*
X0030167222Y0120162618D01*
X0030240394Y0120237372D01*
X0030317126Y0120303030D01*
X0030397418Y0120359590D01*
X0030439047Y0120384080D01*
X0030481204Y0120407581D01*
X0030528513Y0120427671D01*
X0030665332Y0120424870D01*
X0030618462Y0120420717D01*
X0030572186Y0120412411D01*
X0030526503Y0120399952D01*
X0030481413Y0120383340D01*
X0030436916Y0120362574D01*
X0030393013Y0120337656D01*
X0030349703Y0120308585D01*
X0030328295Y0120292319D01*
X0030285875Y0120258930D01*
X0030204001Y0120182593D01*
X0030125687Y0120094787D01*
X0030050932Y0119995510D01*
X0030015038Y0119941092D01*
X0029980595Y0119885949D01*
X0029915333Y0119770060D01*
X0029854422Y0119647447D01*
X0029797862Y0119518110D01*
X0029771394Y0119450640D01*
X0029746542Y0119383269D01*
X0029701452Y0119247208D01*
X0029661900Y0119109565D01*
X0029627884Y0118970340D01*
X0029613184Y0118900068D01*
X0029599538Y0118829994D01*
X0029578178Y0118693142D01*
X0029563938Y0118560245D01*
X0029556819Y0118431304D01*
X0029556225Y0118368481D01*
X0029557148Y0118277049D01*
X0029568223Y0118105390D01*
X0029590372Y0117947180D01*
X0029623597Y0117802417D01*
X0029644823Y0117735639D01*
X0029656730Y0117703882D01*
X0029684912Y0117647124D01*
X0029718334Y0117598475D01*
X0029756996Y0117557933D01*
X0029800900Y0117525500D01*
X0029850044Y0117501176D01*
X0029904429Y0117484959D01*
X0029964054Y0117476851D01*
X0029996051Y0117476175D01*
X0030016610Y0117476554D01*
X0030057645Y0117481102D01*
X0030098582Y0117490200D01*
X0030139421Y0117503845D01*
X0030180160Y0117522040D01*
X0030220800Y0117544782D01*
X0030281587Y0117586856D01*
X0030321964Y0117621728D01*
X0030362110Y0117659897D01*
X0030440424Y0117746121D01*
X0030516365Y0117844212D01*
X0030589932Y0117954168D01*
X0030625728Y0118014090D01*
X0030660995Y0118075528D01*
X0030728235Y0118203679D01*
X0030791519Y0118338158D01*
X0030850848Y0118478965D01*
X0030878864Y0118552005D01*
X0030906056Y0118626397D01*
X0030955497Y0118775510D01*
X0030999005Y0118925019D01*
X0031036580Y0119074923D01*
X0031052895Y0119150040D01*
X0031068058Y0119224729D01*
X0031091791Y0119369491D01*
X0031107613Y0119508716D01*
X0031115524Y0119642404D01*
X0031116183Y0119706941D01*
X0031115029Y0119790034D01*
X0031105512Y0119904218D01*
X0031095129Y0119974918D01*
X0031081286Y0120040971D01*
X0031063982Y0120102376D01*
X0031043216Y0120159134D01*
X0031018990Y0120211245D01*
X0031005435Y0120235364D01*
X0030991345Y0120258601D01*
X0030960691Y0120300131D01*
X0030927072Y0120335728D01*
X0030890485Y0120365393D01*
X0030850933Y0120389124D01*
X0030808414Y0120406923D01*
X0030762928Y0120418789D01*
X0030714476Y0120424722D01*
X0030690030Y0120425196D01*
X0031063377Y0120448564D01*
G37*
G36*
G01*
X0030848993Y0120481461D02*
X0030947677Y0120472957D01*
X0031039043Y0120455950D01*
X0031063377Y0120448564D01*
X0030690030Y0120425196D01*
X0030689014Y0120425216D01*
X0030665332Y0120424870D01*
X0030528513Y0120427671D01*
X0030567824Y0120444364D01*
X0030657212Y0120468887D01*
X0030749370Y0120481148D01*
X0030796602Y0120482170D01*
G37*
X0028341170Y0115925713D02*
X0029543568Y0120406230D01*
X0029087923Y0120406230D01*
X0029087923Y0120418888D01*
X0029967573Y0120418888D01*
X0029714436Y0119336729D01*
X0029594196Y0118855770D01*
X0029556224Y0118593141D01*
X0028847442Y0115925714D01*
X0028341170Y0115925713D01*
X0027866539Y0115925713D02*
X0027866539Y0115938371D01*
X0029382194Y0115938371D01*
X0029382194Y0115925713D01*
X0027866539Y0115925713D01*
X0029996051Y0117476175D02*
X0029996051Y0117476175D01*
X0030016610Y0117476554D01*
X0030057645Y0117481102D01*
X0030098582Y0117490200D01*
X0030139421Y0117503845D01*
X0030180160Y0117522040D01*
X0030220800Y0117544782D01*
X0030281587Y0117586856D01*
X0030321964Y0117621728D01*
X0030321964Y0117621728D01*
X0030362110Y0117659897D01*
X0030440424Y0117746121D01*
X0030516365Y0117844212D01*
X0030589932Y0117954168D01*
X0030625728Y0118014090D01*
X0030625728Y0118014090D01*
X0030660995Y0118075528D01*
X0030728235Y0118203679D01*
X0030791519Y0118338158D01*
X0030850848Y0118478965D01*
X0030878864Y0118552005D01*
X0030878864Y0118552005D01*
X0030906056Y0118626397D01*
X0030955497Y0118775510D01*
X0030999005Y0118925019D01*
X0031036580Y0119074923D01*
X0031052895Y0119150040D01*
X0031052895Y0119150040D01*
X0031068058Y0119224729D01*
X0031091791Y0119369491D01*
X0031107613Y0119508716D01*
X0031115524Y0119642404D01*
X0031116183Y0119706941D01*
X0031116183Y0119706941D01*
X0031115029Y0119790034D01*
X0031105512Y0119904218D01*
X0031095129Y0119974918D01*
X0031081286Y0120040971D01*
X0031063982Y0120102376D01*
X0031043216Y0120159134D01*
X0031018990Y0120211245D01*
X0031005435Y0120235364D01*
X0031005435Y0120235364D01*
X0030991345Y0120258601D01*
X0030960691Y0120300131D01*
X0030927072Y0120335728D01*
X0030890485Y0120365393D01*
X0030850933Y0120389124D01*
X0030808414Y0120406923D01*
X0030762928Y0120418789D01*
X0030714476Y0120424722D01*
X0030689014Y0120425216D01*
X0030689014Y0120425216D01*
X0030665332Y0120424870D01*
X0030618462Y0120420717D01*
X0030572186Y0120412411D01*
X0030526503Y0120399952D01*
X0030481413Y0120383340D01*
X0030436916Y0120362574D01*
X0030393013Y0120337656D01*
X0030349703Y0120308585D01*
X0030328295Y0120292319D01*
X0030328295Y0120292319D01*
X0030285875Y0120258930D01*
X0030204001Y0120182593D01*
X0030125687Y0120094787D01*
X0030050932Y0119995510D01*
X0030015038Y0119941092D01*
X0030015038Y0119941092D01*
X0029980595Y0119885949D01*
X0029915333Y0119770060D01*
X0029854422Y0119647447D01*
X0029797862Y0119518110D01*
X0029771394Y0119450640D01*
X0029771394Y0119450640D01*
X0029746542Y0119383269D01*
X0029701452Y0119247208D01*
X0029661900Y0119109565D01*
X0029627884Y0118970340D01*
X0029613184Y0118900068D01*
X0029613184Y0118900068D01*
X0029599538Y0118829994D01*
X0029578178Y0118693142D01*
X0029563938Y0118560245D01*
X0029556819Y0118431304D01*
X0029556225Y0118368481D01*
X0029556225Y0118368481D01*
X0029557148Y0118277049D01*
X0029568223Y0118105390D01*
X0029590372Y0117947180D01*
X0029623597Y0117802417D01*
X0029644823Y0117735639D01*
X0029644823Y0117735639D01*
X0029656730Y0117703882D01*
X0029684912Y0117647124D01*
X0029718334Y0117598475D01*
X0029756996Y0117557933D01*
X0029800900Y0117525500D01*
X0029850044Y0117501176D01*
X0029904429Y0117484959D01*
X0029964054Y0117476851D01*
X0029996051Y0117476175D01*
X0029996051Y0117476175D01*
X0030059338Y0117444531D02*
X0030059338Y0117444531D01*
X0030031552Y0117444877D01*
X0029978947Y0117449030D01*
X0029929902Y0117457336D01*
X0029884417Y0117469795D01*
X0029842491Y0117486408D01*
X0029804125Y0117507173D01*
X0029769319Y0117532091D01*
X0029738072Y0117561162D01*
X0029723932Y0117577428D01*
X0029723932Y0117577428D01*
X0029697036Y0117612234D01*
X0029651155Y0117689757D01*
X0029614767Y0117776773D01*
X0029587871Y0117873281D01*
X0029578379Y0117925491D01*
X0029578379Y0117925491D01*
X0029570040Y0117978689D01*
X0029556988Y0118087063D01*
X0029548287Y0118197810D01*
X0029543937Y0118310930D01*
X0029543574Y0118368479D01*
X0029543574Y0118368479D01*
X0029543970Y0118421711D01*
X0029548716Y0118530481D01*
X0029558209Y0118642019D01*
X0029572449Y0118756326D01*
X0029581547Y0118814633D01*
X0029581547Y0118814633D01*
X0029592192Y0118873962D01*
X0029617110Y0118992620D01*
X0029646379Y0119111277D01*
X0029680000Y0119229935D01*
X0029698623Y0119289264D01*
X0029698623Y0119289264D01*
X0029717938Y0119348329D01*
X0029759863Y0119463823D01*
X0029805744Y0119576152D01*
X0029855580Y0119685317D01*
X0029882146Y0119738582D01*
X0029882146Y0119738582D01*
X0029910130Y0119791879D01*
X0029969063Y0119893529D01*
X0030031557Y0119989246D01*
X0030097610Y0120079030D01*
X0030132119Y0120121450D01*
X0030132119Y0120121450D01*
X0030167222Y0120162618D01*
X0030240394Y0120237372D01*
X0030317126Y0120303030D01*
X0030397418Y0120359590D01*
X0030439047Y0120384080D01*
X0030439047Y0120384080D01*
X0030481204Y0120407581D01*
X0030567824Y0120444364D01*
X0030657212Y0120468887D01*
X0030749370Y0120481148D01*
X0030796602Y0120482170D01*
X0030796602Y0120482170D01*
X0030848993Y0120481461D01*
X0030947677Y0120472957D01*
X0031039043Y0120455950D01*
X0031123093Y0120430438D01*
X0031199825Y0120396423D01*
X0031269240Y0120353904D01*
X0031331337Y0120302882D01*
X0031386117Y0120243355D01*
X0031410459Y0120210049D01*
X0031410459Y0120210049D01*
X0031433696Y0120175860D01*
X0031475226Y0120101798D01*
X0031510824Y0120020913D01*
X0031540488Y0119933205D01*
X0031564220Y0119838674D01*
X0031582018Y0119737321D01*
X0031593884Y0119629145D01*
X0031599817Y0119514145D01*
X0031600311Y0119453803D01*
X0031600311Y0119453803D01*
X0031599965Y0119408334D01*
X0031595812Y0119317561D01*
X0031587506Y0119226985D01*
X0031575047Y0119136608D01*
X0031558435Y0119046428D01*
X0031537670Y0118956445D01*
X0031512751Y0118866661D01*
X0031483680Y0118777074D01*
X0031467414Y0118732363D01*
X0031467414Y0118732363D01*
X0031433234Y0118644425D01*
X0031355315Y0118475140D01*
X0031265927Y0118313765D01*
X0031165068Y0118160301D01*
X0031109859Y0118086865D01*
X0031109859Y0118086865D01*
X0031053200Y0118015275D01*
X0030934938Y0117883961D01*
X0030810743Y0117766885D01*
X0030713517Y0117688867D01*
X0030646970Y0117641009D01*
X0030613078Y0117618563D01*
X0030613078Y0117618563D01*
X0030579039Y0117597262D01*
X0030510711Y0117559193D01*
X0030442088Y0117526562D01*
X0030373167Y0117499369D01*
X0030303950Y0117477615D01*
X0030234437Y0117461300D01*
X0030164626Y0117450423D01*
X0030094519Y0117444984D01*
X0030059342Y0117444531D01*
X0030059338Y0117444531D01*
G36*
G01*
X0033836767Y0120468392D02*
X0033748564Y0120454944D01*
X0033662340Y0120428048D01*
X0033578093Y0120387704D01*
X0033536793Y0120361929D01*
X0033496647Y0120334210D01*
X0033418333Y0120270530D01*
X0033342392Y0120196962D01*
X0033268824Y0120113506D01*
X0033233029Y0120067658D01*
X0033198486Y0120021217D01*
X0033132038Y0119922731D01*
X0033068754Y0119817521D01*
X0033008634Y0119705587D01*
X0032979893Y0119646818D01*
X0032951744Y0119588017D01*
X0032898744Y0119467777D01*
X0032849699Y0119344373D01*
X0032804609Y0119217805D01*
X0032783712Y0119153202D01*
X0032764298Y0119088369D01*
X0032729096Y0118959032D01*
X0032698245Y0118830090D01*
X0032694769Y0118813225D01*
X0032696993Y0118813383D01*
X0032835031Y0118826831D01*
X0032967137Y0118844233D01*
X0033093309Y0118865590D01*
X0033153924Y0118877916D01*
X0033214242Y0118891759D01*
X0033328944Y0118923401D01*
X0033436527Y0118959790D01*
X0033536991Y0119000925D01*
X0033584256Y0119023470D01*
X0033631093Y0119046872D01*
X0033718504Y0119098290D01*
X0033798401Y0119155246D01*
X0033870782Y0119217739D01*
X0033903841Y0119251293D01*
X0033936406Y0119286659D01*
X0033994944Y0119362996D01*
X0034045571Y0119446056D01*
X0034088288Y0119535841D01*
X0034106350Y0119583534D01*
X0034123027Y0119632415D01*
X0034149131Y0119736438D01*
X0034166533Y0119847977D01*
X0034175234Y0119967030D01*
X0034175959Y0120029688D01*
X0034175300Y0120069801D01*
X0034167390Y0120147719D01*
X0034151570Y0120222869D01*
X0034127840Y0120295251D01*
X0034112679Y0120330288D01*
X0034104875Y0120347328D01*
X0034086385Y0120377784D01*
X0034064433Y0120403888D01*
X0034039021Y0120425642D01*
X0034010147Y0120443045D01*
X0033977813Y0120456097D01*
X0033956551Y0120461266D01*
X0034120737Y0120466257D01*
X0034124635Y0120465707D01*
X0034195534Y0120449689D01*
X0034261586Y0120428330D01*
X0034322794Y0120401632D01*
X0034379156Y0120369595D01*
X0034430674Y0120332218D01*
X0034454413Y0120311304D01*
X0034477651Y0120290127D01*
X0034519181Y0120245630D01*
X0034554778Y0120198563D01*
X0034584443Y0120148924D01*
X0034608174Y0120096715D01*
X0034625973Y0120041934D01*
X0034637839Y0119984583D01*
X0034643772Y0119924661D01*
X0034644266Y0119893629D01*
X0034643805Y0119861361D01*
X0034638267Y0119798472D01*
X0034627192Y0119737561D01*
X0034610580Y0119678628D01*
X0034588431Y0119621672D01*
X0034560744Y0119566694D01*
X0034527520Y0119513693D01*
X0034488758Y0119462671D01*
X0034467070Y0119437983D01*
X0034444608Y0119413617D01*
X0034396551Y0119366451D01*
X0034344737Y0119321163D01*
X0034289166Y0119277754D01*
X0034199233Y0119215928D01*
X0034065545Y0119140383D01*
X0033992439Y0119105742D01*
X0033918212Y0119073111D01*
X0033763166Y0119013782D01*
X0033600209Y0118961572D01*
X0033429342Y0118916482D01*
X0033340612Y0118896904D01*
X0033251948Y0118878446D01*
X0033073962Y0118846804D01*
X0032895184Y0118821490D01*
X0032715615Y0118802505D01*
X0032692191Y0118800723D01*
X0032671745Y0118701545D01*
X0032660308Y0118637436D01*
X0032650453Y0118573691D01*
X0032635028Y0118449496D01*
X0032624745Y0118329256D01*
X0032619603Y0118212971D01*
X0032619175Y0118156477D01*
X0032619554Y0118107300D01*
X0032624102Y0118015538D01*
X0032633199Y0117931687D01*
X0032646845Y0117855746D01*
X0032665039Y0117787715D01*
X0032687782Y0117727595D01*
X0032715073Y0117675386D01*
X0032746913Y0117631087D01*
X0032764728Y0117612233D01*
X0032783507Y0117594418D01*
X0032822961Y0117562578D01*
X0032864689Y0117535287D01*
X0032908691Y0117512544D01*
X0032954968Y0117494350D01*
X0033003519Y0117480704D01*
X0033054344Y0117471607D01*
X0033107443Y0117467059D01*
X0033134940Y0117466680D01*
X0033204850Y0117467899D01*
X0033306376Y0117477961D01*
X0033372330Y0117488936D01*
X0033436801Y0117503571D01*
X0033499788Y0117521864D01*
X0033561292Y0117543816D01*
X0033621313Y0117569426D01*
X0033650706Y0117583756D01*
X0033709474Y0117613816D01*
X0033821408Y0117681846D01*
X0033926618Y0117759369D01*
X0034025104Y0117846385D01*
X0034071545Y0117893848D01*
X0034117558Y0117943322D01*
X0034202992Y0118046554D01*
X0034280515Y0118154928D01*
X0034350128Y0118268444D01*
X0034381638Y0118327344D01*
X0034391127Y0118324183D01*
X0034359584Y0118264492D01*
X0034289576Y0118149393D01*
X0034211263Y0118039437D01*
X0034124642Y0117934623D01*
X0034077871Y0117884358D01*
X0034030540Y0117835346D01*
X0033929285Y0117745561D01*
X0033820120Y0117665665D01*
X0033703044Y0117595657D01*
X0033641211Y0117564773D01*
X0033610203Y0117550056D01*
X0033546622Y0117523754D01*
X0033481162Y0117501209D01*
X0033413824Y0117482421D01*
X0033344607Y0117467391D01*
X0033273511Y0117456119D01*
X0033200537Y0117448604D01*
X0033125684Y0117444847D01*
X0033087474Y0117444533D01*
X0033087476Y0117444533D01*
X0033049752Y0117444862D01*
X0032976778Y0117448817D01*
X0032906770Y0117456728D01*
X0032839728Y0117468594D01*
X0032775653Y0117484415D01*
X0032714544Y0117504191D01*
X0032656402Y0117527923D01*
X0032601226Y0117555610D01*
X0032574874Y0117571101D01*
X0032549033Y0117587573D01*
X0032499988Y0117623072D01*
X0032454107Y0117661635D01*
X0032411390Y0117703264D01*
X0032371838Y0117747959D01*
X0032335449Y0117795718D01*
X0032302225Y0117846544D01*
X0032272165Y0117900434D01*
X0032258454Y0117928656D01*
X0032245286Y0117957324D01*
X0032221752Y0118016554D01*
X0032201580Y0118078058D01*
X0032184771Y0118141837D01*
X0032165439Y0118241484D01*
X0032151991Y0118382687D01*
X0032150871Y0118457079D01*
X0032151217Y0118502548D01*
X0032155370Y0118593321D01*
X0032163676Y0118683897D01*
X0032176135Y0118774274D01*
X0032192747Y0118864454D01*
X0032213512Y0118954436D01*
X0032238430Y0119044221D01*
X0032267501Y0119133807D01*
X0032283767Y0119178518D01*
X0032300660Y0119223435D01*
X0032337246Y0119311538D01*
X0032377194Y0119397565D01*
X0032420504Y0119481516D01*
X0032467176Y0119563389D01*
X0032517210Y0119643187D01*
X0032570606Y0119720908D01*
X0032627364Y0119796552D01*
X0032657143Y0119833509D01*
X0032687418Y0119869988D01*
X0032750109Y0119939898D01*
X0032815370Y0120006148D01*
X0032883203Y0120068740D01*
X0032953607Y0120127673D01*
X0033026581Y0120182948D01*
X0033102126Y0120234564D01*
X0033180243Y0120282522D01*
X0033220372Y0120304976D01*
X0033261251Y0120326664D01*
X0033344411Y0120365426D01*
X0033429251Y0120398650D01*
X0033515772Y0120426336D01*
X0033603975Y0120448486D01*
X0033693858Y0120465098D01*
X0033728414Y0120469277D01*
G37*
G36*
G01*
X0033968304Y0120481726D02*
X0034048892Y0120476387D01*
X0034120737Y0120466257D01*
X0033956551Y0120461266D01*
X0033942018Y0120464799D01*
X0033902762Y0120469150D01*
X0033881692Y0120469512D01*
X0033836767Y0120468392D01*
X0033728414Y0120469277D01*
X0033785422Y0120476172D01*
X0033878668Y0120481710D01*
X0033925991Y0120482171D01*
G37*
X0033087476Y0117444533D02*
X0033087476Y0117444533D01*
X0033049752Y0117444862D01*
X0032976778Y0117448817D01*
X0032906770Y0117456728D01*
X0032839728Y0117468594D01*
X0032775653Y0117484415D01*
X0032714544Y0117504191D01*
X0032656402Y0117527923D01*
X0032601226Y0117555610D01*
X0032574874Y0117571101D01*
X0032574874Y0117571101D01*
X0032549033Y0117587573D01*
X0032499988Y0117623072D01*
X0032454107Y0117661635D01*
X0032411390Y0117703264D01*
X0032371838Y0117747959D01*
X0032335449Y0117795718D01*
X0032302225Y0117846544D01*
X0032272165Y0117900434D01*
X0032258454Y0117928656D01*
X0032258454Y0117928656D01*
X0032245286Y0117957324D01*
X0032221752Y0118016554D01*
X0032201580Y0118078058D01*
X0032184771Y0118141837D01*
X0032165439Y0118241484D01*
X0032151991Y0118382687D01*
X0032150871Y0118457079D01*
X0032150871Y0118457079D01*
X0032151217Y0118502548D01*
X0032155370Y0118593321D01*
X0032163676Y0118683897D01*
X0032176135Y0118774274D01*
X0032192747Y0118864454D01*
X0032213512Y0118954436D01*
X0032238430Y0119044221D01*
X0032267501Y0119133807D01*
X0032283767Y0119178518D01*
X0032283767Y0119178518D01*
X0032300660Y0119223435D01*
X0032337246Y0119311538D01*
X0032377194Y0119397565D01*
X0032420504Y0119481516D01*
X0032467176Y0119563389D01*
X0032517210Y0119643187D01*
X0032570606Y0119720908D01*
X0032627364Y0119796552D01*
X0032657143Y0119833509D01*
X0032657143Y0119833509D01*
X0032687418Y0119869988D01*
X0032750109Y0119939898D01*
X0032815370Y0120006148D01*
X0032883203Y0120068740D01*
X0032953607Y0120127673D01*
X0033026581Y0120182948D01*
X0033102126Y0120234564D01*
X0033180243Y0120282522D01*
X0033220372Y0120304976D01*
X0033220372Y0120304976D01*
X0033261251Y0120326664D01*
X0033344411Y0120365426D01*
X0033429251Y0120398650D01*
X0033515772Y0120426336D01*
X0033603975Y0120448486D01*
X0033693858Y0120465098D01*
X0033785422Y0120476172D01*
X0033878668Y0120481710D01*
X0033925991Y0120482171D01*
X0033925991Y0120482171D01*
X0033968304Y0120481726D01*
X0034048892Y0120476387D01*
X0034124635Y0120465707D01*
X0034195534Y0120449689D01*
X0034261586Y0120428330D01*
X0034322794Y0120401632D01*
X0034379156Y0120369595D01*
X0034430674Y0120332218D01*
X0034454413Y0120311304D01*
X0034454413Y0120311304D01*
X0034477651Y0120290127D01*
X0034519181Y0120245630D01*
X0034554778Y0120198563D01*
X0034584443Y0120148924D01*
X0034608174Y0120096715D01*
X0034625973Y0120041934D01*
X0034637839Y0119984583D01*
X0034643772Y0119924661D01*
X0034644266Y0119893629D01*
X0034644266Y0119893629D01*
X0034643805Y0119861361D01*
X0034638267Y0119798472D01*
X0034627192Y0119737561D01*
X0034610580Y0119678628D01*
X0034588431Y0119621672D01*
X0034560744Y0119566694D01*
X0034527520Y0119513693D01*
X0034488758Y0119462671D01*
X0034467070Y0119437983D01*
X0034467070Y0119437983D01*
X0034444608Y0119413617D01*
X0034396551Y0119366451D01*
X0034344737Y0119321163D01*
X0034289166Y0119277754D01*
X0034199233Y0119215928D01*
X0034065545Y0119140383D01*
X0033992439Y0119105742D01*
X0033992439Y0119105742D01*
X0033918212Y0119073111D01*
X0033763166Y0119013782D01*
X0033600209Y0118961572D01*
X0033429342Y0118916482D01*
X0033340612Y0118896904D01*
X0033340612Y0118896904D01*
X0033251948Y0118878446D01*
X0033073962Y0118846804D01*
X0032895184Y0118821490D01*
X0032715615Y0118802505D01*
X0032625501Y0118795649D01*
X0032625501Y0118808307D01*
X0032625501Y0118808307D01*
X0032696993Y0118813383D01*
X0032835031Y0118826831D01*
X0032967137Y0118844233D01*
X0033093309Y0118865590D01*
X0033153924Y0118877916D01*
X0033153924Y0118877916D01*
X0033214242Y0118891759D01*
X0033328944Y0118923401D01*
X0033436527Y0118959790D01*
X0033536991Y0119000925D01*
X0033584256Y0119023470D01*
X0033584256Y0119023470D01*
X0033631093Y0119046872D01*
X0033718504Y0119098290D01*
X0033798401Y0119155246D01*
X0033870782Y0119217739D01*
X0033903841Y0119251293D01*
X0033903841Y0119251293D01*
X0033936406Y0119286659D01*
X0033994944Y0119362996D01*
X0034045571Y0119446056D01*
X0034088288Y0119535841D01*
X0034106350Y0119583534D01*
X0034106350Y0119583534D01*
X0034123027Y0119632415D01*
X0034149131Y0119736438D01*
X0034166533Y0119847977D01*
X0034175234Y0119967030D01*
X0034175959Y0120029688D01*
X0034175959Y0120029688D01*
X0034175300Y0120069801D01*
X0034167390Y0120147719D01*
X0034151570Y0120222869D01*
X0034127840Y0120295251D01*
X0034112679Y0120330288D01*
X0034112679Y0120330288D01*
X0034104875Y0120347328D01*
X0034086385Y0120377784D01*
X0034064433Y0120403888D01*
X0034039021Y0120425642D01*
X0034010147Y0120443045D01*
X0033977813Y0120456097D01*
X0033942018Y0120464799D01*
X0033902762Y0120469150D01*
X0033881692Y0120469512D01*
X0033881692Y0120469512D01*
X0033836767Y0120468392D01*
X0033748564Y0120454944D01*
X0033662340Y0120428048D01*
X0033578093Y0120387704D01*
X0033536793Y0120361929D01*
X0033536793Y0120361929D01*
X0033496647Y0120334210D01*
X0033418333Y0120270530D01*
X0033342392Y0120196962D01*
X0033268824Y0120113506D01*
X0033233029Y0120067658D01*
X0033233029Y0120067658D01*
X0033198486Y0120021217D01*
X0033132038Y0119922731D01*
X0033068754Y0119817521D01*
X0033008634Y0119705587D01*
X0032979893Y0119646818D01*
X0032979893Y0119646818D01*
X0032951744Y0119588017D01*
X0032898744Y0119467777D01*
X0032849699Y0119344373D01*
X0032804609Y0119217805D01*
X0032783712Y0119153202D01*
X0032783712Y0119153202D01*
X0032764298Y0119088369D01*
X0032729096Y0118959032D01*
X0032698245Y0118830090D01*
X0032671745Y0118701545D01*
X0032660308Y0118637436D01*
X0032660308Y0118637436D01*
X0032650453Y0118573691D01*
X0032635028Y0118449496D01*
X0032624745Y0118329256D01*
X0032619603Y0118212971D01*
X0032619175Y0118156477D01*
X0032619175Y0118156477D01*
X0032619554Y0118107300D01*
X0032624102Y0118015538D01*
X0032633199Y0117931687D01*
X0032646845Y0117855746D01*
X0032665039Y0117787715D01*
X0032687782Y0117727595D01*
X0032715073Y0117675386D01*
X0032746913Y0117631087D01*
X0032764728Y0117612233D01*
X0032764728Y0117612233D01*
X0032783507Y0117594418D01*
X0032822961Y0117562578D01*
X0032864689Y0117535287D01*
X0032908691Y0117512544D01*
X0032954968Y0117494350D01*
X0033003519Y0117480704D01*
X0033054344Y0117471607D01*
X0033107443Y0117467059D01*
X0033134940Y0117466680D01*
X0033134940Y0117466680D01*
X0033204850Y0117467899D01*
X0033306376Y0117477961D01*
X0033372330Y0117488936D01*
X0033436801Y0117503571D01*
X0033499788Y0117521864D01*
X0033561292Y0117543816D01*
X0033621313Y0117569426D01*
X0033650706Y0117583756D01*
X0033650706Y0117583756D01*
X0033709474Y0117613816D01*
X0033821408Y0117681846D01*
X0033926618Y0117759369D01*
X0034025104Y0117846385D01*
X0034071545Y0117893848D01*
X0034071545Y0117893848D01*
X0034117558Y0117943322D01*
X0034202992Y0118046554D01*
X0034280515Y0118154928D01*
X0034350128Y0118268444D01*
X0034381638Y0118327344D01*
X0034391127Y0118324183D01*
X0034391127Y0118324183D01*
X0034359584Y0118264492D01*
X0034289576Y0118149393D01*
X0034211263Y0118039437D01*
X0034124642Y0117934623D01*
X0034077871Y0117884358D01*
X0034077871Y0117884358D01*
X0034030540Y0117835346D01*
X0033929285Y0117745561D01*
X0033820120Y0117665665D01*
X0033703044Y0117595657D01*
X0033641211Y0117564773D01*
X0033641211Y0117564773D01*
X0033610203Y0117550056D01*
X0033546622Y0117523754D01*
X0033481162Y0117501209D01*
X0033413824Y0117482421D01*
X0033344607Y0117467391D01*
X0033273511Y0117456119D01*
X0033200537Y0117448604D01*
X0033125684Y0117444847D01*
X0033087474Y0117444533D01*
X0033087476Y0117444533D01*
G36*
G01*
X0036933317Y0120478694D02*
X0036984142Y0120474937D01*
X0037032001Y0120467422D01*
X0037076893Y0120456149D01*
X0037118819Y0120441120D01*
X0037157778Y0120422332D01*
X0037193771Y0120399787D01*
X0037226797Y0120373485D01*
X0037242074Y0120358768D01*
X0037257178Y0120344018D01*
X0037284173Y0120313364D01*
X0037307311Y0120281327D01*
X0037326593Y0120247905D01*
X0037342019Y0120213098D01*
X0037353588Y0120176908D01*
X0037361301Y0120139333D01*
X0037365157Y0120100373D01*
X0037365478Y0120080317D01*
X0037364589Y0120042775D01*
X0037353909Y0119971976D01*
X0037332551Y0119906319D01*
X0037300513Y0119845803D01*
X0037280045Y0119817688D01*
X0037269563Y0119804520D01*
X0037246623Y0119780987D01*
X0037221309Y0119760815D01*
X0037193622Y0119744005D01*
X0037163562Y0119730557D01*
X0037131129Y0119720471D01*
X0037078326Y0119711226D01*
X0037039565Y0119710105D01*
X0037001430Y0119711160D01*
X0036931421Y0119723817D01*
X0036868928Y0119749130D01*
X0036813950Y0119787101D01*
X0036789592Y0119811359D01*
X0036766849Y0119837167D01*
X0036731252Y0119893728D01*
X0036707521Y0119956221D01*
X0036695655Y0120024647D01*
X0036694666Y0120061332D01*
X0036695589Y0120093271D01*
X0036706664Y0120152204D01*
X0036728813Y0120205205D01*
X0036762038Y0120252272D01*
X0036783264Y0120273334D01*
X0036806205Y0120293802D01*
X0036859996Y0120325840D01*
X0036923280Y0120347198D01*
X0036996057Y0120357878D01*
X0037036401Y0120358768D01*
X0037068471Y0120357944D01*
X0037128986Y0120348056D01*
X0037185151Y0120328279D01*
X0037236965Y0120298614D01*
X0037261059Y0120279662D01*
X0037284560Y0120259457D01*
X0037321344Y0120214763D01*
X0037341158Y0120174496D01*
X0037330571Y0120208163D01*
X0037315937Y0120241782D01*
X0037297644Y0120274116D01*
X0037263802Y0120320368D01*
X0037235753Y0120349275D01*
X0037221250Y0120363604D01*
X0037189608Y0120389215D01*
X0037154802Y0120411166D01*
X0037116831Y0120429460D01*
X0037075697Y0120444094D01*
X0037031398Y0120455070D01*
X0036983935Y0120462387D01*
X0036933307Y0120466046D01*
X0036906675Y0120466351D01*
X0036883026Y0120466038D01*
X0036836552Y0120462280D01*
X0036791066Y0120454765D01*
X0036746570Y0120443492D01*
X0036703062Y0120428462D01*
X0036660543Y0120409675D01*
X0036598494Y0120374918D01*
X0036558612Y0120346110D01*
X0036520147Y0120315226D01*
X0036446184Y0120245218D01*
X0036375780Y0120165322D01*
X0036308936Y0120075538D01*
X0036276998Y0120026525D01*
X0036246410Y0119976195D01*
X0036187873Y0119870589D01*
X0036132499Y0119759051D01*
X0036080290Y0119641580D01*
X0036055504Y0119580372D01*
X0036007381Y0119458023D01*
X0035920365Y0119208050D01*
X0035881472Y0119080427D01*
X0035844424Y0118955046D01*
X0035793459Y0118767345D01*
X0035492268Y0117507817D01*
X0034992323Y0117507817D01*
X0035713762Y0120406230D01*
X0035220146Y0120406230D01*
X0035220146Y0120418888D01*
X0036188393Y0120418888D01*
X0035873617Y0119102552D01*
X0035907702Y0119214511D01*
X0035994717Y0119466066D01*
X0036042840Y0119589865D01*
X0036068417Y0119651073D01*
X0036122208Y0119768544D01*
X0036179164Y0119880082D01*
X0036239284Y0119985687D01*
X0036270663Y0120036018D01*
X0036302634Y0120085788D01*
X0036369874Y0120176759D01*
X0036441068Y0120257447D01*
X0036516218Y0120327851D01*
X0036555441Y0120358768D01*
X0036595356Y0120387575D01*
X0036657676Y0120422332D01*
X0036700492Y0120441120D01*
X0036744396Y0120456149D01*
X0036789387Y0120467422D01*
X0036835465Y0120474937D01*
X0036882632Y0120478694D01*
X0036906668Y0120479008D01*
G37*
X0034992323Y0117507817D02*
X0035713762Y0120406230D01*
X0035220146Y0120406230D01*
X0035220146Y0120418888D01*
X0036188393Y0120418888D01*
X0035492268Y0117507817D01*
X0034992323Y0117507817D01*
X0035739075Y0118602633D02*
X0035739075Y0118602633D01*
X0035766894Y0118717731D01*
X0035831760Y0118959792D01*
X0035868808Y0119086756D01*
X0035868808Y0119086756D01*
X0035907702Y0119214511D01*
X0035994717Y0119466066D01*
X0036042840Y0119589865D01*
X0036042840Y0119589865D01*
X0036068417Y0119651073D01*
X0036122208Y0119768544D01*
X0036179164Y0119880082D01*
X0036239284Y0119985687D01*
X0036270663Y0120036018D01*
X0036270663Y0120036018D01*
X0036302634Y0120085788D01*
X0036369874Y0120176759D01*
X0036441068Y0120257447D01*
X0036516218Y0120327851D01*
X0036555441Y0120358768D01*
X0036555441Y0120358768D01*
X0036595356Y0120387575D01*
X0036657676Y0120422332D01*
X0036700492Y0120441120D01*
X0036744396Y0120456149D01*
X0036789387Y0120467422D01*
X0036835465Y0120474937D01*
X0036882632Y0120478694D01*
X0036906668Y0120479008D01*
X0036906668Y0120479008D01*
X0036933317Y0120478694D01*
X0036984142Y0120474937D01*
X0037032001Y0120467422D01*
X0037076893Y0120456149D01*
X0037118819Y0120441120D01*
X0037157778Y0120422332D01*
X0037193771Y0120399787D01*
X0037226797Y0120373485D01*
X0037242074Y0120358768D01*
X0037242074Y0120358768D01*
X0037257178Y0120344018D01*
X0037284173Y0120313364D01*
X0037307311Y0120281327D01*
X0037326593Y0120247905D01*
X0037342019Y0120213098D01*
X0037353588Y0120176908D01*
X0037361301Y0120139333D01*
X0037365157Y0120100373D01*
X0037365478Y0120080317D01*
X0037365478Y0120080317D01*
X0037364589Y0120042775D01*
X0037353909Y0119971976D01*
X0037332551Y0119906319D01*
X0037300513Y0119845803D01*
X0037280045Y0119817688D01*
X0037280045Y0119817688D01*
X0037269563Y0119804520D01*
X0037246623Y0119780987D01*
X0037221309Y0119760815D01*
X0037193622Y0119744005D01*
X0037163562Y0119730557D01*
X0037131129Y0119720471D01*
X0037078326Y0119711226D01*
X0037039565Y0119710105D01*
X0037039565Y0119710105D01*
X0037001430Y0119711160D01*
X0036931421Y0119723817D01*
X0036868928Y0119749130D01*
X0036813950Y0119787101D01*
X0036789592Y0119811359D01*
X0036789592Y0119811359D01*
X0036766849Y0119837167D01*
X0036731252Y0119893728D01*
X0036707521Y0119956221D01*
X0036695655Y0120024647D01*
X0036694666Y0120061332D01*
X0036694666Y0120061332D01*
X0036695589Y0120093271D01*
X0036706664Y0120152204D01*
X0036728813Y0120205205D01*
X0036762038Y0120252272D01*
X0036783264Y0120273334D01*
X0036783264Y0120273334D01*
X0036806205Y0120293802D01*
X0036859996Y0120325840D01*
X0036923280Y0120347198D01*
X0036996057Y0120357878D01*
X0037036401Y0120358768D01*
X0037036401Y0120358768D01*
X0037068471Y0120357944D01*
X0037128986Y0120348056D01*
X0037185151Y0120328279D01*
X0037236965Y0120298614D01*
X0037261059Y0120279662D01*
X0037261059Y0120279662D01*
X0037284560Y0120259457D01*
X0037321344Y0120214763D01*
X0037345867Y0120164927D01*
X0037358128Y0120109948D01*
X0037359150Y0120080317D01*
X0037352828Y0120080317D01*
X0037352828Y0120080317D01*
X0037352523Y0120099591D01*
X0037348864Y0120137067D01*
X0037341547Y0120173258D01*
X0037330571Y0120208163D01*
X0037315937Y0120241782D01*
X0037297644Y0120274116D01*
X0037263802Y0120320368D01*
X0037235753Y0120349275D01*
X0037235753Y0120349275D01*
X0037221250Y0120363604D01*
X0037189608Y0120389215D01*
X0037154802Y0120411166D01*
X0037116831Y0120429460D01*
X0037075697Y0120444094D01*
X0037031398Y0120455070D01*
X0036983935Y0120462387D01*
X0036933307Y0120466046D01*
X0036906675Y0120466351D01*
X0036906675Y0120466351D01*
X0036883026Y0120466038D01*
X0036836552Y0120462280D01*
X0036791066Y0120454765D01*
X0036746570Y0120443492D01*
X0036703062Y0120428462D01*
X0036660543Y0120409675D01*
X0036598494Y0120374918D01*
X0036558612Y0120346110D01*
X0036558612Y0120346110D01*
X0036520147Y0120315226D01*
X0036446184Y0120245218D01*
X0036375780Y0120165322D01*
X0036308936Y0120075538D01*
X0036276998Y0120026525D01*
X0036276998Y0120026525D01*
X0036246410Y0119976195D01*
X0036187873Y0119870589D01*
X0036132499Y0119759051D01*
X0036080290Y0119641580D01*
X0036055504Y0119580372D01*
X0036055504Y0119580372D01*
X0036007381Y0119458023D01*
X0035920365Y0119208050D01*
X0035881472Y0119080427D01*
X0035881472Y0119080427D01*
X0035844424Y0118955046D01*
X0035779558Y0118716148D01*
X0035751739Y0118602633D01*
X0035739075Y0118602633D01*
M02*