G04 Gerber file generated by Gerbonara*
%MOMM*%
%FSLAX46Y46*%
%IPPOS*%
G75
%LPD*%
%AMGNC*
1,1,$1,0,0,-57.29578X$4*
1,0,$2,0,0,0*
21,0,$2,$3,0,0,-57.29578X$4*
%
%AMGNR*
21,1,$1,$2,0,0,$5X-57.29578*
1,0,$3,0,0,0*
21,0,$3,$4,0,0,$5X-57.29578*
%
%AMGNO*
21,1,$1,$2,0,0,$5X-57.29578*
1,1,$2,$1/2,0,$5X-57.29578*
1,1,$2,(0-$1)/2,0,$5X-57.29578*
1,0,$3,0,0,0*
21,0,$3,$4,0,0,$5X-57.29578*
%
%AMGNP*
5,1,$2,0,0,$1,$3X-57.29578*
1,0,$4,0,0,0*
%
%ADD10C,0.05*%
%ADD11C,0.11*%
G36*
G01*
X0009972947Y0142380913D02*
X0009960290Y0142380913D01*
X0009982143Y0142480520D01*
X0010014971Y0142671163D01*
X0010034747Y0142851523D01*
X0010041471Y0143021599D01*
X0010039395Y0143102352D01*
X0010037409Y0143141946D01*
X0010029399Y0143217590D01*
X0010016545Y0143288982D01*
X0009998845Y0143356123D01*
X0009976300Y0143419012D01*
X0009948910Y0143477648D01*
X0009916675Y0143532033D01*
X0009879595Y0143582166D01*
X0009859036Y0143605461D01*
X0009837545Y0143628311D01*
X0009789291Y0143669149D01*
X0009734708Y0143704153D01*
X0009673797Y0143733323D01*
X0009606558Y0143756659D01*
X0009532990Y0143774161D01*
X0009453094Y0143785829D01*
X0009366869Y0143791663D01*
X0009321120Y0143792149D01*
X0008716985Y0143792149D01*
X0007621714Y0139071153D01*
X0008314903Y0139071153D01*
X0008314903Y0139058495D01*
X0006321452Y0139058495D01*
X0006321452Y0139071153D01*
X0007020515Y0139071153D01*
X0008115786Y0143792149D01*
X0007454238Y0143792149D01*
X0007385416Y0143791029D01*
X0007255684Y0143777581D01*
X0007164911Y0143758249D01*
X0007107164Y0143741440D01*
X0007051790Y0143721268D01*
X0006998790Y0143697734D01*
X0006973278Y0143684566D01*
X0006923277Y0143656781D01*
X0006829538Y0143592310D01*
X0006743313Y0143517160D01*
X0006664604Y0143431331D01*
X0006628380Y0143383966D01*
X0006593244Y0143335811D01*
X0006527587Y0143232579D01*
X0006467467Y0143121040D01*
X0006412884Y0143001196D01*
X0006387900Y0142937813D01*
X0006363674Y0142873276D01*
X0006318189Y0142739589D01*
X0006276263Y0142600364D01*
X0006237897Y0142455601D01*
X0006220197Y0142380913D01*
X0006207541Y0142380913D01*
X0006536618Y0143804806D01*
X0010302025Y0143804806D01*
G37*
D11*
X0007017578Y0139058495D02*
X0008118722Y0143804806D01*
X0008719921Y0143804806D01*
X0007618777Y0139058495D01*
X0007017578Y0139058495D01*
X0006321452Y0139058495D02*
X0006321452Y0139071153D01*
X0008314903Y0139071153D01*
X0008314903Y0139058495D01*
X0006321452Y0139058495D01*
X0006207541Y0142380913D02*
X0006536618Y0143804806D01*
X0010302025Y0143804806D01*
X0009972947Y0142380913D01*
X0009960290Y0142380913D01*
X0009960290Y0142380913D01*
X0009982143Y0142480520D01*
X0010014971Y0142671163D01*
X0010034747Y0142851523D01*
X0010041471Y0143021599D01*
X0010039395Y0143102352D01*
X0010039395Y0143102352D01*
X0010037409Y0143141946D01*
X0010029399Y0143217590D01*
X0010016545Y0143288982D01*
X0009998845Y0143356123D01*
X0009976300Y0143419012D01*
X0009948910Y0143477648D01*
X0009916675Y0143532033D01*
X0009879595Y0143582166D01*
X0009859036Y0143605461D01*
X0009859036Y0143605461D01*
X0009837545Y0143628311D01*
X0009789291Y0143669149D01*
X0009734708Y0143704153D01*
X0009673797Y0143733323D01*
X0009606558Y0143756659D01*
X0009532990Y0143774161D01*
X0009453094Y0143785829D01*
X0009366869Y0143791663D01*
X0009321120Y0143792149D01*
X0007454238Y0143792149D01*
X0007454238Y0143792149D01*
X0007385416Y0143791029D01*
X0007255684Y0143777581D01*
X0007164911Y0143758249D01*
X0007107164Y0143741440D01*
X0007051790Y0143721268D01*
X0006998790Y0143697734D01*
X0006973278Y0143684566D01*
X0006973278Y0143684566D01*
X0006923277Y0143656781D01*
X0006829538Y0143592310D01*
X0006743313Y0143517160D01*
X0006664604Y0143431331D01*
X0006628380Y0143383966D01*
X0006628380Y0143383966D01*
X0006593244Y0143335811D01*
X0006527587Y0143232579D01*
X0006467467Y0143121040D01*
X0006412884Y0143001196D01*
X0006387900Y0142937813D01*
X0006387900Y0142937813D01*
X0006363674Y0142873276D01*
X0006318189Y0142739589D01*
X0006276263Y0142600364D01*
X0006237897Y0142455601D01*
X0006220197Y0142380913D01*
X0006207541Y0142380913D01*
G36*
G01*
X0011593823Y0142016717D02*
X0011551206Y0142012959D01*
X0011487452Y0142000747D01*
X0011402809Y0141970687D01*
X0011318562Y0141925597D01*
X0011276603Y0141896789D01*
X0011234842Y0141866631D01*
X0011152969Y0141797414D01*
X0011073072Y0141717518D01*
X0010995154Y0141626942D01*
X0010957019Y0141577205D01*
X0010919312Y0141526017D01*
X0010846535Y0141418038D01*
X0010776922Y0141303336D01*
X0010710474Y0141181910D01*
X0010678569Y0141118395D01*
X0010647256Y0141054056D01*
X0010587927Y0140922741D01*
X0010532553Y0140788262D01*
X0010481135Y0140650619D01*
X0010457074Y0140580479D01*
X0010434529Y0140510142D01*
X0010393394Y0140370126D01*
X0010357006Y0140230901D01*
X0010325364Y0140092467D01*
X0010311520Y0140023579D01*
X0010299390Y0139955912D01*
X0010280404Y0139824201D01*
X0010267747Y0139696842D01*
X0010261418Y0139573833D01*
X0010260890Y0139514142D01*
X0010262077Y0139457351D01*
X0010271866Y0139378617D01*
X0010282545Y0139329473D01*
X0010296784Y0139283196D01*
X0010314583Y0139239787D01*
X0010335941Y0139199246D01*
X0010360859Y0139161572D01*
X0010374801Y0139143930D01*
X0010389757Y0139127276D01*
X0010422883Y0139097513D01*
X0010459864Y0139072002D01*
X0010500703Y0139050742D01*
X0010545397Y0139033734D01*
X0010593948Y0139020979D01*
X0010646355Y0139012475D01*
X0010702619Y0139008223D01*
X0010732357Y0139007869D01*
X0010732361Y0139007869D01*
X0010775770Y0139009088D01*
X0010861599Y0139023723D01*
X0010946241Y0139052992D01*
X0011029697Y0139096895D01*
X0011070931Y0139124944D01*
X0011112692Y0139155861D01*
X0011194566Y0139226265D01*
X0011274462Y0139306952D01*
X0011352380Y0139397923D01*
X0011390516Y0139447693D01*
X0011428223Y0139498881D01*
X0011500999Y0139606859D01*
X0011570612Y0139721562D01*
X0011637060Y0139842988D01*
X0011668966Y0139906503D01*
X0011700245Y0139970842D01*
X0011759179Y0140102157D01*
X0011813761Y0140236636D01*
X0011863993Y0140374279D01*
X0011887296Y0140444418D01*
X0011910566Y0140514756D01*
X0011952492Y0140654772D01*
X0011988880Y0140793998D01*
X0012019731Y0140932432D01*
X0012032850Y0141001319D01*
X0012045737Y0141069712D01*
X0012065909Y0141202213D01*
X0012079356Y0141329573D01*
X0012086080Y0141451790D01*
X0012086640Y0141510756D01*
X0012085454Y0141568273D01*
X0012075665Y0141647650D01*
X0012064985Y0141696992D01*
X0012050747Y0141743268D01*
X0012032948Y0141786479D01*
X0012011590Y0141826625D01*
X0011986672Y0141863706D01*
X0011972729Y0141880969D01*
X0011958152Y0141897622D01*
X0011925620Y0141927386D01*
X0011889034Y0141952897D01*
X0011848394Y0141974157D01*
X0011803699Y0141991164D01*
X0011754951Y0142003920D01*
X0011702148Y0142012424D01*
X0011663287Y0142015330D01*
X0011755510Y0142017280D01*
X0011828096Y0142004495D01*
X0011924604Y0141976908D01*
X0012013202Y0141940124D01*
X0012093889Y0141894144D01*
X0012166666Y0141838968D01*
X0012231532Y0141774596D01*
X0012260669Y0141738579D01*
X0012288941Y0141701836D01*
X0012339469Y0141624807D01*
X0012382779Y0141543527D01*
X0012418871Y0141457994D01*
X0012447745Y0141368210D01*
X0012469400Y0141274174D01*
X0012483836Y0141175886D01*
X0012491055Y0141073346D01*
X0012491656Y0141020304D01*
X0012491294Y0140968614D01*
X0012486943Y0140866469D01*
X0012478241Y0140765808D01*
X0012465189Y0140666629D01*
X0012447786Y0140568935D01*
X0012426032Y0140472723D01*
X0012399927Y0140377994D01*
X0012369472Y0140284749D01*
X0012352432Y0140238745D01*
X0012335160Y0140193086D01*
X0012297981Y0140103994D01*
X0012257637Y0140017572D01*
X0012214129Y0139933819D01*
X0012167457Y0139852736D01*
X0012117621Y0139774323D01*
X0012064620Y0139698580D01*
X0012008455Y0139625507D01*
X0011979055Y0139590082D01*
X0011949209Y0139555589D01*
X0011887705Y0139489734D01*
X0011824025Y0139427636D01*
X0011758170Y0139369296D01*
X0011690140Y0139314714D01*
X0011619934Y0139263888D01*
X0011547553Y0139216821D01*
X0011472996Y0139173511D01*
X0011434811Y0139153421D01*
X0011396758Y0139134057D01*
X0011319829Y0139099449D01*
X0011241910Y0139069784D01*
X0011163002Y0139045064D01*
X0011083106Y0139025288D01*
X0011002221Y0139010455D01*
X0010920347Y0139000567D01*
X0010837485Y0138995623D01*
X0010795641Y0138995211D01*
X0010736560Y0138995969D01*
X0010624824Y0139005066D01*
X0010520800Y0139023261D01*
X0010424490Y0139050552D01*
X0010335892Y0139086940D01*
X0010255007Y0139132426D01*
X0010181835Y0139187008D01*
X0010116375Y0139250688D01*
X0010086859Y0139286318D01*
X0010058587Y0139323061D01*
X0010008059Y0139400089D01*
X0009964749Y0139481370D01*
X0009928657Y0139566903D01*
X0009899783Y0139656687D01*
X0009878128Y0139750723D01*
X0009863692Y0139849012D01*
X0009856473Y0139951552D01*
X0009855872Y0140004593D01*
X0009856226Y0140056283D01*
X0009860478Y0140158428D01*
X0009868982Y0140259089D01*
X0009881738Y0140358267D01*
X0009898745Y0140455962D01*
X0009920005Y0140552174D01*
X0009945516Y0140646903D01*
X0009975280Y0140740148D01*
X0009991933Y0140786152D01*
X0010009591Y0140831803D01*
X0010047463Y0140920796D01*
X0010088400Y0141007021D01*
X0010132402Y0141090477D01*
X0010179470Y0141171164D01*
X0010229603Y0141249083D01*
X0010282801Y0141324232D01*
X0010339064Y0141396614D01*
X0010368473Y0141431651D01*
X0010398311Y0141466531D01*
X0010459716Y0141533078D01*
X0010523198Y0141595769D01*
X0010588757Y0141654604D01*
X0010656391Y0141709582D01*
X0010726103Y0141760703D01*
X0010797891Y0141807969D01*
X0010871755Y0141851378D01*
X0010909553Y0141871475D01*
X0010947993Y0141891227D01*
X0011025615Y0141926527D01*
X0011104127Y0141956785D01*
X0011183529Y0141982000D01*
X0011263820Y0142002172D01*
X0011345002Y0142017301D01*
X0011358060Y0142018905D01*
G37*
G36*
G01*
X0011611347Y0142032083D02*
X0011723677Y0142022887D01*
X0011755510Y0142017280D01*
X0011663287Y0142015330D01*
X0011645291Y0142016676D01*
X0011615174Y0142017030D01*
X0011593823Y0142016717D01*
X0011358060Y0142018905D01*
X0011427074Y0142027386D01*
X0011510035Y0142032429D01*
X0011551887Y0142032850D01*
G37*
X0010795641Y0138995211D02*
X0010795641Y0138995211D01*
X0010736560Y0138995969D01*
X0010624824Y0139005066D01*
X0010520800Y0139023261D01*
X0010424490Y0139050552D01*
X0010335892Y0139086940D01*
X0010255007Y0139132426D01*
X0010181835Y0139187008D01*
X0010116375Y0139250688D01*
X0010086859Y0139286318D01*
X0010086859Y0139286318D01*
X0010058587Y0139323061D01*
X0010008059Y0139400089D01*
X0009964749Y0139481370D01*
X0009928657Y0139566903D01*
X0009899783Y0139656687D01*
X0009878128Y0139750723D01*
X0009863692Y0139849012D01*
X0009856473Y0139951552D01*
X0009855872Y0140004593D01*
X0009855872Y0140004593D01*
X0009856226Y0140056283D01*
X0009860478Y0140158428D01*
X0009868982Y0140259089D01*
X0009881738Y0140358267D01*
X0009898745Y0140455962D01*
X0009920005Y0140552174D01*
X0009945516Y0140646903D01*
X0009975280Y0140740148D01*
X0009991933Y0140786152D01*
X0009991933Y0140786152D01*
X0010009591Y0140831803D01*
X0010047463Y0140920796D01*
X0010088400Y0141007021D01*
X0010132402Y0141090477D01*
X0010179470Y0141171164D01*
X0010229603Y0141249083D01*
X0010282801Y0141324232D01*
X0010339064Y0141396614D01*
X0010368473Y0141431651D01*
X0010368473Y0141431651D01*
X0010398311Y0141466531D01*
X0010459716Y0141533078D01*
X0010523198Y0141595769D01*
X0010588757Y0141654604D01*
X0010656391Y0141709582D01*
X0010726103Y0141760703D01*
X0010797891Y0141807969D01*
X0010871755Y0141851378D01*
X0010909553Y0141871475D01*
X0010909553Y0141871475D01*
X0010947993Y0141891227D01*
X0011025615Y0141926527D01*
X0011104127Y0141956785D01*
X0011183529Y0141982000D01*
X0011263820Y0142002172D01*
X0011345002Y0142017301D01*
X0011427074Y0142027386D01*
X0011510035Y0142032429D01*
X0011551887Y0142032850D01*
X0011551887Y0142032850D01*
X0011611347Y0142032083D01*
X0011723677Y0142022887D01*
X0011828096Y0142004495D01*
X0011924604Y0141976908D01*
X0012013202Y0141940124D01*
X0012093889Y0141894144D01*
X0012166666Y0141838968D01*
X0012231532Y0141774596D01*
X0012260669Y0141738579D01*
X0012260669Y0141738579D01*
X0012288941Y0141701836D01*
X0012339469Y0141624807D01*
X0012382779Y0141543527D01*
X0012418871Y0141457994D01*
X0012447745Y0141368210D01*
X0012469400Y0141274174D01*
X0012483836Y0141175886D01*
X0012491055Y0141073346D01*
X0012491656Y0141020304D01*
X0012491656Y0141020304D01*
X0012491294Y0140968614D01*
X0012486943Y0140866469D01*
X0012478241Y0140765808D01*
X0012465189Y0140666629D01*
X0012447786Y0140568935D01*
X0012426032Y0140472723D01*
X0012399927Y0140377994D01*
X0012369472Y0140284749D01*
X0012352432Y0140238745D01*
X0012352432Y0140238745D01*
X0012335160Y0140193086D01*
X0012297981Y0140103994D01*
X0012257637Y0140017572D01*
X0012214129Y0139933819D01*
X0012167457Y0139852736D01*
X0012117621Y0139774323D01*
X0012064620Y0139698580D01*
X0012008455Y0139625507D01*
X0011979055Y0139590082D01*
X0011979055Y0139590082D01*
X0011949209Y0139555589D01*
X0011887705Y0139489734D01*
X0011824025Y0139427636D01*
X0011758170Y0139369296D01*
X0011690140Y0139314714D01*
X0011619934Y0139263888D01*
X0011547553Y0139216821D01*
X0011472996Y0139173511D01*
X0011434811Y0139153421D01*
X0011434811Y0139153421D01*
X0011396758Y0139134057D01*
X0011319829Y0139099449D01*
X0011241910Y0139069784D01*
X0011163002Y0139045064D01*
X0011083106Y0139025288D01*
X0011002221Y0139010455D01*
X0010920347Y0139000567D01*
X0010837485Y0138995623D01*
X0010795641Y0138995211D01*
X0010795641Y0138995211D01*
X0010732361Y0139007869D02*
X0010732361Y0139007869D01*
X0010775770Y0139009088D01*
X0010861599Y0139023723D01*
X0010946241Y0139052992D01*
X0011029697Y0139096895D01*
X0011070931Y0139124944D01*
X0011070931Y0139124944D01*
X0011112692Y0139155861D01*
X0011194566Y0139226265D01*
X0011274462Y0139306952D01*
X0011352380Y0139397923D01*
X0011390516Y0139447693D01*
X0011390516Y0139447693D01*
X0011428223Y0139498881D01*
X0011500999Y0139606859D01*
X0011570612Y0139721562D01*
X0011637060Y0139842988D01*
X0011668966Y0139906503D01*
X0011668966Y0139906503D01*
X0011700245Y0139970842D01*
X0011759179Y0140102157D01*
X0011813761Y0140236636D01*
X0011863993Y0140374279D01*
X0011887296Y0140444418D01*
X0011887296Y0140444418D01*
X0011910566Y0140514756D01*
X0011952492Y0140654772D01*
X0011988880Y0140793998D01*
X0012019731Y0140932432D01*
X0012032850Y0141001319D01*
X0012032850Y0141001319D01*
X0012045737Y0141069712D01*
X0012065909Y0141202213D01*
X0012079356Y0141329573D01*
X0012086080Y0141451790D01*
X0012086640Y0141510756D01*
X0012086640Y0141510756D01*
X0012085454Y0141568273D01*
X0012075665Y0141647650D01*
X0012064985Y0141696992D01*
X0012050747Y0141743268D01*
X0012032948Y0141786479D01*
X0012011590Y0141826625D01*
X0011986672Y0141863706D01*
X0011972729Y0141880969D01*
X0011972729Y0141880969D01*
X0011958152Y0141897622D01*
X0011925620Y0141927386D01*
X0011889034Y0141952897D01*
X0011848394Y0141974157D01*
X0011803699Y0141991164D01*
X0011754951Y0142003920D01*
X0011702148Y0142012424D01*
X0011645291Y0142016676D01*
X0011615174Y0142017030D01*
X0011615174Y0142017030D01*
X0011593823Y0142016717D01*
X0011551206Y0142012959D01*
X0011487452Y0142000747D01*
X0011402809Y0141970687D01*
X0011318562Y0141925597D01*
X0011276603Y0141896789D01*
X0011276603Y0141896789D01*
X0011234842Y0141866631D01*
X0011152969Y0141797414D01*
X0011073072Y0141717518D01*
X0010995154Y0141626942D01*
X0010957019Y0141577205D01*
X0010957019Y0141577205D01*
X0010919312Y0141526017D01*
X0010846535Y0141418038D01*
X0010776922Y0141303336D01*
X0010710474Y0141181910D01*
X0010678569Y0141118395D01*
X0010678569Y0141118395D01*
X0010647256Y0141054056D01*
X0010587927Y0140922741D01*
X0010532553Y0140788262D01*
X0010481135Y0140650619D01*
X0010457074Y0140580479D01*
X0010457074Y0140580479D01*
X0010434529Y0140510142D01*
X0010393394Y0140370126D01*
X0010357006Y0140230901D01*
X0010325364Y0140092467D01*
X0010311520Y0140023579D01*
X0010311520Y0140023579D01*
X0010299390Y0139955912D01*
X0010280404Y0139824201D01*
X0010267747Y0139696842D01*
X0010261418Y0139573833D01*
X0010260890Y0139514142D01*
X0010260890Y0139514142D01*
X0010262077Y0139457351D01*
X0010271866Y0139378617D01*
X0010282545Y0139329473D01*
X0010296784Y0139283196D01*
X0010314583Y0139239787D01*
X0010335941Y0139199246D01*
X0010360859Y0139161572D01*
X0010374801Y0139143930D01*
X0010374801Y0139143930D01*
X0010389757Y0139127276D01*
X0010422883Y0139097513D01*
X0010459864Y0139072002D01*
X0010500703Y0139050742D01*
X0010545397Y0139033734D01*
X0010593948Y0139020979D01*
X0010646355Y0139012475D01*
X0010702619Y0139008223D01*
X0010732357Y0139007869D01*
X0010732361Y0139007869D01*
G36*
G01*
X0015340030Y0141981117D02*
X0015416762Y0141947102D01*
X0015486177Y0141904583D01*
X0015548275Y0141853560D01*
X0015603055Y0141794034D01*
X0015627397Y0141760727D01*
X0015650634Y0141726539D01*
X0015692164Y0141652477D01*
X0015727761Y0141571592D01*
X0015757426Y0141483884D01*
X0015781157Y0141389353D01*
X0015798956Y0141287999D01*
X0015810822Y0141179823D01*
X0015816755Y0141064824D01*
X0015817249Y0141004481D01*
X0015816903Y0140959012D01*
X0015812750Y0140868239D01*
X0015804444Y0140777664D01*
X0015791985Y0140687286D01*
X0015775373Y0140597106D01*
X0015754608Y0140507124D01*
X0015729690Y0140417339D01*
X0015700618Y0140327753D01*
X0015684352Y0140283042D01*
X0015650172Y0140195103D01*
X0015572254Y0140025818D01*
X0015482865Y0139864444D01*
X0015382006Y0139710980D01*
X0015326797Y0139637544D01*
X0015270138Y0139565954D01*
X0015151875Y0139434639D01*
X0015027680Y0139317563D01*
X0014930455Y0139239546D01*
X0014863908Y0139191687D01*
X0014830016Y0139169241D01*
X0014795976Y0139147940D01*
X0014727649Y0139109871D01*
X0014659025Y0139077240D01*
X0014590105Y0139050048D01*
X0014520888Y0139028294D01*
X0014451374Y0139011978D01*
X0014381564Y0139001102D01*
X0014311457Y0138995663D01*
X0014276280Y0138995210D01*
X0014276276Y0138995210D01*
X0014248491Y0138995556D01*
X0014195886Y0138999709D01*
X0014146841Y0139008015D01*
X0014101355Y0139020474D01*
X0014059429Y0139037086D01*
X0014021063Y0139057851D01*
X0013986257Y0139082769D01*
X0013955011Y0139111840D01*
X0013940870Y0139128106D01*
X0013913975Y0139162913D01*
X0013868094Y0139240436D01*
X0013831705Y0139327451D01*
X0013804810Y0139423960D01*
X0013795317Y0139476169D01*
X0013786978Y0139529367D01*
X0013773927Y0139637741D01*
X0013765226Y0139748489D01*
X0013760875Y0139861609D01*
X0013760512Y0139919158D01*
X0013760908Y0139972389D01*
X0013765655Y0140081159D01*
X0013769963Y0140131779D01*
X0013067743Y0137489049D01*
X0013599133Y0137489049D01*
X0013599133Y0137476392D01*
X0012083477Y0137476392D01*
X0012083477Y0137489049D01*
X0012561505Y0137489049D01*
X0013760508Y0141956909D01*
X0013304861Y0141956909D01*
X0013304861Y0141969566D01*
X0014184511Y0141969566D01*
X0013932110Y0140890552D01*
X0013934875Y0140899008D01*
X0013976801Y0141014501D01*
X0014022682Y0141126831D01*
X0014072518Y0141235996D01*
X0014099084Y0141289260D01*
X0014127068Y0141342557D01*
X0014186001Y0141444207D01*
X0014248494Y0141539925D01*
X0014314547Y0141629709D01*
X0014349057Y0141672129D01*
X0014384160Y0141713297D01*
X0014457332Y0141788051D01*
X0014534064Y0141853708D01*
X0014614356Y0141910269D01*
X0014655985Y0141934758D01*
X0014698141Y0141958259D01*
X0014745451Y0141978350D01*
X0014882271Y0141975548D01*
X0014835401Y0141971395D01*
X0014789124Y0141963089D01*
X0014743441Y0141950630D01*
X0014698351Y0141934018D01*
X0014653855Y0141913253D01*
X0014609951Y0141888334D01*
X0014566641Y0141859263D01*
X0014545233Y0141842997D01*
X0014502813Y0141809608D01*
X0014420939Y0141733272D01*
X0014342625Y0141645465D01*
X0014267871Y0141546189D01*
X0014231977Y0141491771D01*
X0014197533Y0141436628D01*
X0014132272Y0141320739D01*
X0014071361Y0141198126D01*
X0014014800Y0141068789D01*
X0013988333Y0141001318D01*
X0013963481Y0140933947D01*
X0013918391Y0140797886D01*
X0013878838Y0140660243D01*
X0013844823Y0140521018D01*
X0013830122Y0140450747D01*
X0013816478Y0140380673D01*
X0013795121Y0140243821D01*
X0013780883Y0140110924D01*
X0013773764Y0139981982D01*
X0013773171Y0139919159D01*
X0013774094Y0139827727D01*
X0013785168Y0139656069D01*
X0013807318Y0139497859D01*
X0013840542Y0139353096D01*
X0013861768Y0139286318D01*
X0013873675Y0139254561D01*
X0013901856Y0139197803D01*
X0013935278Y0139149153D01*
X0013973941Y0139108612D01*
X0014017844Y0139076179D01*
X0014066988Y0139051854D01*
X0014121373Y0139035637D01*
X0014180999Y0139027529D01*
X0014212992Y0139026854D01*
X0014233548Y0139027233D01*
X0014274584Y0139031781D01*
X0014315521Y0139040878D01*
X0014356359Y0139054524D01*
X0014397098Y0139072718D01*
X0014437738Y0139095461D01*
X0014498526Y0139137535D01*
X0014538902Y0139172407D01*
X0014579048Y0139210575D01*
X0014657362Y0139296800D01*
X0014733303Y0139394890D01*
X0014806871Y0139504847D01*
X0014842666Y0139564769D01*
X0014877934Y0139626207D01*
X0014945173Y0139754357D01*
X0015008457Y0139888836D01*
X0015067786Y0140029643D01*
X0015095802Y0140102684D01*
X0015122995Y0140177076D01*
X0015172436Y0140326189D01*
X0015215943Y0140475698D01*
X0015253518Y0140625602D01*
X0015269834Y0140700719D01*
X0015284996Y0140775407D01*
X0015308729Y0140920170D01*
X0015324551Y0141059395D01*
X0015332462Y0141193083D01*
X0015333121Y0141257619D01*
X0015331968Y0141340713D01*
X0015322450Y0141454896D01*
X0015312068Y0141525596D01*
X0015298224Y0141591649D01*
X0015280920Y0141653055D01*
X0015260155Y0141709813D01*
X0015235929Y0141761923D01*
X0015222374Y0141786042D01*
X0015208283Y0141809279D01*
X0015177630Y0141850809D01*
X0015144010Y0141886407D01*
X0015107424Y0141916071D01*
X0015067871Y0141939803D01*
X0015025352Y0141957601D01*
X0014979867Y0141969467D01*
X0014931415Y0141975400D01*
X0014906969Y0141975875D01*
X0015280315Y0141999242D01*
G37*
G36*
G01*
X0015065931Y0142032140D02*
X0015164614Y0142023636D01*
X0015255981Y0142006628D01*
X0015280315Y0141999242D01*
X0014906969Y0141975875D01*
X0014905953Y0141975895D01*
X0014882271Y0141975548D01*
X0014745451Y0141978350D01*
X0014784762Y0141995043D01*
X0014874150Y0142019565D01*
X0014966308Y0142031827D01*
X0015013540Y0142032848D01*
G37*
X0012558109Y0137476392D02*
X0013760508Y0141956909D01*
X0013304861Y0141956909D01*
X0013304861Y0141969566D01*
X0014184511Y0141969566D01*
X0013931375Y0140887407D01*
X0013811135Y0140406448D01*
X0013773162Y0140143819D01*
X0013064379Y0137476393D01*
X0012558109Y0137476392D01*
X0012083477Y0137476392D02*
X0012083477Y0137489049D01*
X0013599133Y0137489049D01*
X0013599133Y0137476392D01*
X0012083477Y0137476392D01*
X0014212989Y0139026854D02*
X0014212989Y0139026854D01*
X0014233548Y0139027233D01*
X0014274584Y0139031781D01*
X0014315521Y0139040878D01*
X0014356359Y0139054524D01*
X0014397098Y0139072718D01*
X0014437738Y0139095461D01*
X0014498526Y0139137535D01*
X0014538902Y0139172407D01*
X0014538902Y0139172407D01*
X0014579048Y0139210575D01*
X0014657362Y0139296800D01*
X0014733303Y0139394890D01*
X0014806871Y0139504847D01*
X0014842666Y0139564769D01*
X0014842666Y0139564769D01*
X0014877934Y0139626207D01*
X0014945173Y0139754357D01*
X0015008457Y0139888836D01*
X0015067786Y0140029643D01*
X0015095802Y0140102684D01*
X0015095802Y0140102684D01*
X0015122995Y0140177076D01*
X0015172436Y0140326189D01*
X0015215943Y0140475698D01*
X0015253518Y0140625602D01*
X0015269834Y0140700719D01*
X0015269834Y0140700719D01*
X0015284996Y0140775407D01*
X0015308729Y0140920170D01*
X0015324551Y0141059395D01*
X0015332462Y0141193083D01*
X0015333121Y0141257619D01*
X0015333121Y0141257619D01*
X0015331968Y0141340713D01*
X0015322450Y0141454896D01*
X0015312068Y0141525596D01*
X0015298224Y0141591649D01*
X0015280920Y0141653055D01*
X0015260155Y0141709813D01*
X0015235929Y0141761923D01*
X0015222374Y0141786042D01*
X0015222374Y0141786042D01*
X0015208283Y0141809279D01*
X0015177630Y0141850809D01*
X0015144010Y0141886407D01*
X0015107424Y0141916071D01*
X0015067871Y0141939803D01*
X0015025352Y0141957601D01*
X0014979867Y0141969467D01*
X0014931415Y0141975400D01*
X0014905953Y0141975895D01*
X0014905953Y0141975895D01*
X0014882271Y0141975548D01*
X0014835401Y0141971395D01*
X0014789124Y0141963089D01*
X0014743441Y0141950630D01*
X0014698351Y0141934018D01*
X0014653855Y0141913253D01*
X0014609951Y0141888334D01*
X0014566641Y0141859263D01*
X0014545233Y0141842997D01*
X0014545233Y0141842997D01*
X0014502813Y0141809608D01*
X0014420939Y0141733272D01*
X0014342625Y0141645465D01*
X0014267871Y0141546189D01*
X0014231977Y0141491771D01*
X0014231977Y0141491771D01*
X0014197533Y0141436628D01*
X0014132272Y0141320739D01*
X0014071361Y0141198126D01*
X0014014800Y0141068789D01*
X0013988333Y0141001318D01*
X0013988333Y0141001318D01*
X0013963481Y0140933947D01*
X0013918391Y0140797886D01*
X0013878838Y0140660243D01*
X0013844823Y0140521018D01*
X0013830122Y0140450747D01*
X0013830122Y0140450747D01*
X0013816478Y0140380673D01*
X0013795121Y0140243821D01*
X0013780883Y0140110924D01*
X0013773764Y0139981982D01*
X0013773171Y0139919159D01*
X0013773171Y0139919159D01*
X0013774094Y0139827727D01*
X0013785168Y0139656069D01*
X0013807318Y0139497859D01*
X0013840542Y0139353096D01*
X0013861768Y0139286318D01*
X0013861768Y0139286318D01*
X0013873675Y0139254561D01*
X0013901856Y0139197803D01*
X0013935278Y0139149153D01*
X0013973941Y0139108612D01*
X0014017844Y0139076179D01*
X0014066988Y0139051854D01*
X0014121373Y0139035637D01*
X0014180999Y0139027529D01*
X0014212995Y0139026854D01*
X0014212989Y0139026854D01*
X0014276276Y0138995210D02*
X0014276276Y0138995210D01*
X0014248491Y0138995556D01*
X0014195886Y0138999709D01*
X0014146841Y0139008015D01*
X0014101355Y0139020474D01*
X0014059429Y0139037086D01*
X0014021063Y0139057851D01*
X0013986257Y0139082769D01*
X0013955011Y0139111840D01*
X0013940870Y0139128106D01*
X0013940870Y0139128106D01*
X0013913975Y0139162913D01*
X0013868094Y0139240436D01*
X0013831705Y0139327451D01*
X0013804810Y0139423960D01*
X0013795317Y0139476169D01*
X0013795317Y0139476169D01*
X0013786978Y0139529367D01*
X0013773927Y0139637741D01*
X0013765226Y0139748489D01*
X0013760875Y0139861609D01*
X0013760512Y0139919158D01*
X0013760512Y0139919158D01*
X0013760908Y0139972389D01*
X0013765655Y0140081159D01*
X0013775148Y0140192697D01*
X0013789387Y0140307004D01*
X0013798485Y0140365311D01*
X0013798485Y0140365311D01*
X0013809131Y0140424640D01*
X0013834049Y0140543298D01*
X0013863317Y0140661956D01*
X0013896937Y0140780614D01*
X0013915560Y0140839943D01*
X0013915560Y0140839943D01*
X0013934875Y0140899008D01*
X0013976801Y0141014501D01*
X0014022682Y0141126831D01*
X0014072518Y0141235996D01*
X0014099084Y0141289260D01*
X0014099084Y0141289260D01*
X0014127068Y0141342557D01*
X0014186001Y0141444207D01*
X0014248494Y0141539925D01*
X0014314547Y0141629709D01*
X0014349057Y0141672129D01*
X0014349057Y0141672129D01*
X0014384160Y0141713297D01*
X0014457332Y0141788051D01*
X0014534064Y0141853708D01*
X0014614356Y0141910269D01*
X0014655985Y0141934758D01*
X0014655985Y0141934758D01*
X0014698141Y0141958259D01*
X0014784762Y0141995043D01*
X0014874150Y0142019565D01*
X0014966308Y0142031827D01*
X0015013540Y0142032848D01*
X0015013540Y0142032848D01*
X0015065931Y0142032140D01*
X0015164614Y0142023636D01*
X0015255981Y0142006628D01*
X0015340030Y0141981117D01*
X0015416762Y0141947102D01*
X0015486177Y0141904583D01*
X0015548275Y0141853560D01*
X0015603055Y0141794034D01*
X0015627397Y0141760727D01*
X0015627397Y0141760727D01*
X0015650634Y0141726539D01*
X0015692164Y0141652477D01*
X0015727761Y0141571592D01*
X0015757426Y0141483884D01*
X0015781157Y0141389353D01*
X0015798956Y0141287999D01*
X0015810822Y0141179823D01*
X0015816755Y0141064824D01*
X0015817249Y0141004481D01*
X0015817249Y0141004481D01*
X0015816903Y0140959012D01*
X0015812750Y0140868239D01*
X0015804444Y0140777664D01*
X0015791985Y0140687286D01*
X0015775373Y0140597106D01*
X0015754608Y0140507124D01*
X0015729690Y0140417339D01*
X0015700618Y0140327753D01*
X0015684352Y0140283042D01*
X0015684352Y0140283042D01*
X0015650172Y0140195103D01*
X0015572254Y0140025818D01*
X0015482865Y0139864444D01*
X0015382006Y0139710980D01*
X0015326797Y0139637544D01*
X0015326797Y0139637544D01*
X0015270138Y0139565954D01*
X0015151875Y0139434639D01*
X0015027680Y0139317563D01*
X0014930455Y0139239546D01*
X0014863908Y0139191687D01*
X0014830016Y0139169241D01*
X0014830016Y0139169241D01*
X0014795976Y0139147940D01*
X0014727649Y0139109871D01*
X0014659025Y0139077240D01*
X0014590105Y0139050048D01*
X0014520888Y0139028294D01*
X0014451374Y0139011978D01*
X0014381564Y0139001102D01*
X0014311457Y0138995663D01*
X0014276280Y0138995210D01*
X0014276276Y0138995210D01*
G36*
G01*
X0021231196Y0142570765D02*
X0021218539Y0142570765D01*
X0021218539Y0142570766D01*
X0021218538Y0142570766D01*
X0021218539Y0142570781D01*
X0021218193Y0142621466D01*
X0021214040Y0142719656D01*
X0021205734Y0142813989D01*
X0021193274Y0142904465D01*
X0021176662Y0142991086D01*
X0021155897Y0143073849D01*
X0021130979Y0143152757D01*
X0021101908Y0143227808D01*
X0021085642Y0143263727D01*
X0021069071Y0143299365D01*
X0021032386Y0143367099D01*
X0020991449Y0143430581D01*
X0020946261Y0143489811D01*
X0020896820Y0143544789D01*
X0020843127Y0143595515D01*
X0020785183Y0143641989D01*
X0020722986Y0143684212D01*
X0020690117Y0143703551D01*
X0020656538Y0143722141D01*
X0020585838Y0143755365D01*
X0020510885Y0143783843D01*
X0020431681Y0143807575D01*
X0020348225Y0143826560D01*
X0020260517Y0143840799D01*
X0020168558Y0143850291D01*
X0020072346Y0143855038D01*
X0020022468Y0143855433D01*
X0019962480Y0143854280D01*
X0019843823Y0143840436D01*
X0019726747Y0143812749D01*
X0019611254Y0143771219D01*
X0019554166Y0143744686D01*
X0019498034Y0143716043D01*
X0019419399Y0143666627D01*
X0019369859Y0143630338D01*
X0019322792Y0143591181D01*
X0019278196Y0143549156D01*
X0019215629Y0143481101D01*
X0019177625Y0143431430D01*
X0019159423Y0143405918D01*
X0019126891Y0143352918D01*
X0019099006Y0143297544D01*
X0019075769Y0143239797D01*
X0019057179Y0143179677D01*
X0019043237Y0143117184D01*
X0019033942Y0143052318D01*
X0019029295Y0142985078D01*
X0019028908Y0142950470D01*
X0019029995Y0142884977D01*
X0019043048Y0142763551D01*
X0019061810Y0142680367D01*
X0019078126Y0142628257D01*
X0019097704Y0142579014D01*
X0019120546Y0142532638D01*
X0019133326Y0142510645D01*
X0019160123Y0142467665D01*
X0019220639Y0142386978D01*
X0019289460Y0142312619D01*
X0019366588Y0142244588D01*
X0019408613Y0142213210D01*
X0019452450Y0142182557D01*
X0019543421Y0142123228D01*
X0019638347Y0142066272D01*
X0019737229Y0142011689D01*
X0019788318Y0141985387D01*
X0019891154Y0141932650D01*
X0020096827Y0141821903D01*
X0020199664Y0141763892D01*
X0020250720Y0141734096D01*
X0020349206Y0141669230D01*
X0020443341Y0141598035D01*
X0020533126Y0141520512D01*
X0020576205Y0141479113D01*
X0020618988Y0141436364D01*
X0020697302Y0141342624D01*
X0020766914Y0141238996D01*
X0020827825Y0141125481D01*
X0020854655Y0141064602D01*
X0020867435Y0141033438D01*
X0020890277Y0140967979D01*
X0020909856Y0140898762D01*
X0020926171Y0140825787D01*
X0020944934Y0140709750D01*
X0020957986Y0140541256D01*
X0020959074Y0140450747D01*
X0020958712Y0140409365D01*
X0020954361Y0140328084D01*
X0020945659Y0140248583D01*
X0020932607Y0140170863D01*
X0020915204Y0140094922D01*
X0020893450Y0140020761D01*
X0020867345Y0139948379D01*
X0020836889Y0139877778D01*
X0020819849Y0139843219D01*
X0020802182Y0139809401D01*
X0020764211Y0139743744D01*
X0020723077Y0139680460D01*
X0020678778Y0139619549D01*
X0020631315Y0139561011D01*
X0020580687Y0139504846D01*
X0020526896Y0139451055D01*
X0020469940Y0139399637D01*
X0020440144Y0139374916D01*
X0020379332Y0139326794D01*
X0020250786Y0139239778D01*
X0020113934Y0139163837D01*
X0019968776Y0139098971D01*
X0019892736Y0139071152D01*
X0019815708Y0139045377D01*
X0019658684Y0139005033D01*
X0019498100Y0138978137D01*
X0019333957Y0138964690D01*
X0019250402Y0138963569D01*
X0019250402Y0138963569D01*
X0019159134Y0138964591D01*
X0018989453Y0138976852D01*
X0018872798Y0138994478D01*
X0018799527Y0139009804D01*
X0018730112Y0139028196D01*
X0018664553Y0139049654D01*
X0018633381Y0139061660D01*
X0018572734Y0139087797D01*
X0018488882Y0139132566D01*
X0018436673Y0139165295D01*
X0018387628Y0139200497D01*
X0018341747Y0139238171D01*
X0018299030Y0139278317D01*
X0018259478Y0139320935D01*
X0018241020Y0139343274D01*
X0018205455Y0139388990D01*
X0018144374Y0139483877D01*
X0017661975Y0138995213D01*
X0017649312Y0138995213D01*
X0017953077Y0140292538D01*
X0017965734Y0140292538D01*
X0017969593Y0140211497D01*
X0017980565Y0140084951D01*
X0017999550Y0139953637D01*
X0018025655Y0139827859D01*
X0018041675Y0139767278D01*
X0018059078Y0139707817D01*
X0018101795Y0139595488D01*
X0018154004Y0139491069D01*
X0018215706Y0139394561D01*
X0018250513Y0139349603D01*
X0018268962Y0139327659D01*
X0018308416Y0139285832D01*
X0018350935Y0139246477D01*
X0018396519Y0139209595D01*
X0018470260Y0139158596D01*
X0018579821Y0139099663D01*
X0018639710Y0139074316D01*
X0018670866Y0139062310D01*
X0018736227Y0139040853D01*
X0018805246Y0139022461D01*
X0018877924Y0139007134D01*
X0018993344Y0138989509D01*
X0019160651Y0138977247D01*
X0019250402Y0138976226D01*
X0019292163Y0138976580D01*
X0019374037Y0138980832D01*
X0019453933Y0138989336D01*
X0019531852Y0139002091D01*
X0019607793Y0139019099D01*
X0019681756Y0139040359D01*
X0019753742Y0139065870D01*
X0019823750Y0139095633D01*
X0019857930Y0139112287D01*
X0019891656Y0139129558D01*
X0019956226Y0139166737D01*
X0020017335Y0139207081D01*
X0020074983Y0139250589D01*
X0020129170Y0139297261D01*
X0020179896Y0139347097D01*
X0020227161Y0139400098D01*
X0020270966Y0139456263D01*
X0020291426Y0139485664D01*
X0020311178Y0139515913D01*
X0020346478Y0139578307D01*
X0020376736Y0139642976D01*
X0020401951Y0139709918D01*
X0020422123Y0139779135D01*
X0020437252Y0139850627D01*
X0020447337Y0139924392D01*
X0020452380Y0140000432D01*
X0020452801Y0140039399D01*
X0020451713Y0140111220D01*
X0020438661Y0140245304D01*
X0020419898Y0140337980D01*
X0020403582Y0140396419D01*
X0020384004Y0140451991D01*
X0020361162Y0140504695D01*
X0020348382Y0140529852D01*
X0020321552Y0140579062D01*
X0020260641Y0140671219D01*
X0020191029Y0140755862D01*
X0020112715Y0140832989D01*
X0020069932Y0140868422D01*
X0020026852Y0140902931D01*
X0019937068Y0140968984D01*
X0019842933Y0141031477D01*
X0019744447Y0141090410D01*
X0019693391Y0141118394D01*
X0019282044Y0141339889D01*
X0019230955Y0141368663D01*
X0019132074Y0141429179D01*
X0019037148Y0141493254D01*
X0018946177Y0141560889D01*
X0018902339Y0141596190D01*
X0018860315Y0141632413D01*
X0018783187Y0141711123D01*
X0018714366Y0141797347D01*
X0018653850Y0141891087D01*
X0018627053Y0141941088D01*
X0018614273Y0141967036D01*
X0018591431Y0142021322D01*
X0018571853Y0142078476D01*
X0018555538Y0142138497D01*
X0018536775Y0142233546D01*
X0018523722Y0142370794D01*
X0018522635Y0142444197D01*
X0018523022Y0142488652D01*
X0018527669Y0142575174D01*
X0018536964Y0142658827D01*
X0018550907Y0142739614D01*
X0018569496Y0142817532D01*
X0018592734Y0142892583D01*
X0018620618Y0142964767D01*
X0018653150Y0143034083D01*
X0018671353Y0143067546D01*
X0018710180Y0143133071D01*
X0018796404Y0143254893D01*
X0018868143Y0143338646D01*
X0018918968Y0143391251D01*
X0018972364Y0143441087D01*
X0019028331Y0143488155D01*
X0019057386Y0143510535D01*
X0019116154Y0143554669D01*
X0019235999Y0143633378D01*
X0019358612Y0143700618D01*
X0019483994Y0143756387D01*
X0019547838Y0143779493D01*
X0019612243Y0143800719D01*
X0019736438Y0143833943D01*
X0019855095Y0143856092D01*
X0019968216Y0143867167D01*
X0020022468Y0143868090D01*
X0020072741Y0143867695D01*
X0020169744Y0143862948D01*
X0020262495Y0143853456D01*
X0020350994Y0143839217D01*
X0020435241Y0143820231D01*
X0020515236Y0143796500D01*
X0020590979Y0143768022D01*
X0020662471Y0143734798D01*
X0020696445Y0143716208D01*
X0020729710Y0143696860D01*
X0020792698Y0143654539D01*
X0020851433Y0143607867D01*
X0020905917Y0143556844D01*
X0020956149Y0143501471D01*
X0021002128Y0143441746D01*
X0021024183Y0143407880D01*
X0021503317Y0143868090D01*
X0021515974Y0143868090D01*
G37*
X0019250402Y0138963569D02*
X0019250402Y0138963569D01*
X0019159134Y0138964591D01*
X0018989453Y0138976852D01*
X0018872798Y0138994478D01*
X0018799527Y0139009804D01*
X0018730112Y0139028196D01*
X0018664553Y0139049654D01*
X0018633381Y0139061660D01*
X0018633381Y0139061660D01*
X0018572734Y0139087797D01*
X0018488882Y0139132566D01*
X0018436673Y0139165295D01*
X0018387628Y0139200497D01*
X0018341747Y0139238171D01*
X0018299030Y0139278317D01*
X0018259478Y0139320935D01*
X0018241020Y0139343274D01*
X0018241020Y0139343274D01*
X0018205455Y0139388990D01*
X0018142566Y0139486685D01*
X0018089566Y0139591895D01*
X0018046453Y0139704620D01*
X0018029017Y0139764114D01*
X0018029017Y0139764114D01*
X0018012998Y0139825453D01*
X0017986894Y0139952417D01*
X0017967909Y0140084523D01*
X0017956043Y0140221770D01*
X0017953077Y0140292536D01*
X0017965734Y0140292536D01*
X0017965734Y0140292536D01*
X0017968700Y0140221803D01*
X0017980565Y0140084951D01*
X0017999550Y0139953637D01*
X0018025655Y0139827859D01*
X0018041675Y0139767278D01*
X0018041675Y0139767278D01*
X0018059078Y0139707817D01*
X0018101795Y0139595488D01*
X0018154004Y0139491069D01*
X0018215706Y0139394561D01*
X0018250513Y0139349603D01*
X0018250513Y0139349603D01*
X0018268962Y0139327659D01*
X0018308416Y0139285832D01*
X0018350935Y0139246477D01*
X0018396519Y0139209595D01*
X0018470260Y0139158596D01*
X0018579821Y0139099663D01*
X0018639710Y0139074316D01*
X0018639710Y0139074316D01*
X0018670866Y0139062310D01*
X0018736227Y0139040853D01*
X0018805246Y0139022461D01*
X0018877924Y0139007134D01*
X0018993344Y0138989509D01*
X0019160651Y0138977247D01*
X0019250402Y0138976226D01*
X0019250402Y0138976226D01*
X0019292163Y0138976580D01*
X0019374037Y0138980832D01*
X0019453933Y0138989336D01*
X0019531852Y0139002091D01*
X0019607793Y0139019099D01*
X0019681756Y0139040359D01*
X0019753742Y0139065870D01*
X0019823750Y0139095633D01*
X0019857930Y0139112287D01*
X0019857930Y0139112287D01*
X0019891656Y0139129558D01*
X0019956226Y0139166737D01*
X0020017335Y0139207081D01*
X0020074983Y0139250589D01*
X0020129170Y0139297261D01*
X0020179896Y0139347097D01*
X0020227161Y0139400098D01*
X0020270966Y0139456263D01*
X0020291426Y0139485664D01*
X0020291426Y0139485664D01*
X0020311178Y0139515913D01*
X0020346478Y0139578307D01*
X0020376736Y0139642976D01*
X0020401951Y0139709918D01*
X0020422123Y0139779135D01*
X0020437252Y0139850627D01*
X0020447337Y0139924392D01*
X0020452380Y0140000432D01*
X0020452801Y0140039399D01*
X0020452801Y0140039399D01*
X0020451713Y0140111220D01*
X0020438661Y0140245304D01*
X0020419898Y0140337980D01*
X0020403582Y0140396419D01*
X0020384004Y0140451991D01*
X0020361162Y0140504695D01*
X0020348382Y0140529852D01*
X0020348382Y0140529852D01*
X0020321552Y0140579062D01*
X0020260641Y0140671219D01*
X0020191029Y0140755862D01*
X0020112715Y0140832989D01*
X0020069932Y0140868422D01*
X0020069932Y0140868422D01*
X0020026852Y0140902931D01*
X0019937068Y0140968984D01*
X0019842933Y0141031477D01*
X0019744447Y0141090410D01*
X0019693391Y0141118394D01*
X0019693391Y0141118394D01*
X0019487718Y0141229141D01*
X0019282044Y0141339889D01*
X0019282044Y0141339889D01*
X0019230955Y0141368663D01*
X0019132074Y0141429179D01*
X0019037148Y0141493254D01*
X0018946177Y0141560889D01*
X0018902339Y0141596190D01*
X0018902339Y0141596190D01*
X0018860315Y0141632413D01*
X0018783187Y0141711123D01*
X0018714366Y0141797347D01*
X0018653850Y0141891087D01*
X0018627053Y0141941088D01*
X0018627053Y0141941088D01*
X0018614273Y0141967036D01*
X0018591431Y0142021322D01*
X0018571853Y0142078476D01*
X0018555538Y0142138497D01*
X0018536775Y0142233546D01*
X0018523722Y0142370794D01*
X0018522635Y0142444197D01*
X0018522635Y0142444197D01*
X0018523022Y0142488652D01*
X0018527669Y0142575174D01*
X0018536964Y0142658827D01*
X0018550907Y0142739614D01*
X0018569496Y0142817532D01*
X0018592734Y0142892583D01*
X0018620618Y0142964767D01*
X0018653150Y0143034083D01*
X0018671353Y0143067546D01*
X0018671353Y0143067546D01*
X0018710180Y0143133071D01*
X0018796404Y0143254893D01*
X0018868143Y0143338646D01*
X0018918968Y0143391251D01*
X0018972364Y0143441087D01*
X0019028331Y0143488155D01*
X0019057386Y0143510535D01*
X0019057386Y0143510535D01*
X0019116154Y0143554669D01*
X0019235999Y0143633378D01*
X0019358612Y0143700618D01*
X0019483994Y0143756387D01*
X0019547838Y0143779493D01*
X0019547838Y0143779493D01*
X0019612243Y0143800719D01*
X0019736438Y0143833943D01*
X0019855095Y0143856092D01*
X0019968216Y0143867167D01*
X0020022468Y0143868090D01*
X0020022468Y0143868090D01*
X0020072741Y0143867695D01*
X0020169744Y0143862948D01*
X0020262495Y0143853456D01*
X0020350994Y0143839217D01*
X0020435241Y0143820231D01*
X0020515236Y0143796500D01*
X0020590979Y0143768022D01*
X0020662471Y0143734798D01*
X0020696445Y0143716208D01*
X0020696445Y0143716208D01*
X0020729710Y0143696860D01*
X0020792698Y0143654539D01*
X0020851433Y0143607867D01*
X0020905917Y0143556844D01*
X0020956149Y0143501471D01*
X0021002128Y0143441746D01*
X0021043856Y0143377671D01*
X0021081332Y0143309245D01*
X0021098299Y0143273219D01*
X0021098299Y0143273219D01*
X0021114565Y0143236897D01*
X0021143636Y0143160956D01*
X0021168554Y0143081059D01*
X0021189320Y0142997208D01*
X0021205932Y0142909401D01*
X0021218391Y0142817639D01*
X0021226697Y0142721922D01*
X0021230850Y0142622249D01*
X0021231196Y0142570765D01*
X0021218539Y0142570765D01*
X0021218539Y0142570765D01*
X0021218193Y0142621466D01*
X0021214040Y0142719656D01*
X0021205734Y0142813989D01*
X0021193274Y0142904465D01*
X0021176662Y0142991086D01*
X0021155897Y0143073849D01*
X0021130979Y0143152757D01*
X0021101908Y0143227808D01*
X0021085642Y0143263727D01*
X0021085642Y0143263727D01*
X0021069071Y0143299365D01*
X0021032386Y0143367099D01*
X0020991449Y0143430581D01*
X0020946261Y0143489811D01*
X0020896820Y0143544789D01*
X0020843127Y0143595515D01*
X0020785183Y0143641989D01*
X0020722986Y0143684212D01*
X0020690117Y0143703551D01*
X0020690117Y0143703551D01*
X0020656538Y0143722141D01*
X0020585838Y0143755365D01*
X0020510885Y0143783843D01*
X0020431681Y0143807575D01*
X0020348225Y0143826560D01*
X0020260517Y0143840799D01*
X0020168558Y0143850291D01*
X0020072346Y0143855038D01*
X0020022468Y0143855433D01*
X0020022468Y0143855433D01*
X0019962480Y0143854280D01*
X0019843823Y0143840436D01*
X0019726747Y0143812749D01*
X0019611254Y0143771219D01*
X0019554166Y0143744686D01*
X0019554166Y0143744686D01*
X0019498034Y0143716043D01*
X0019419399Y0143666627D01*
X0019369859Y0143630338D01*
X0019322792Y0143591181D01*
X0019278196Y0143549156D01*
X0019215629Y0143481101D01*
X0019177625Y0143431430D01*
X0019177625Y0143431430D01*
X0019159423Y0143405918D01*
X0019126891Y0143352918D01*
X0019099006Y0143297544D01*
X0019075769Y0143239797D01*
X0019057179Y0143179677D01*
X0019043237Y0143117184D01*
X0019033942Y0143052318D01*
X0019029295Y0142985078D01*
X0019028908Y0142950470D01*
X0019028908Y0142950470D01*
X0019029995Y0142884977D01*
X0019043048Y0142763551D01*
X0019061810Y0142680367D01*
X0019078126Y0142628257D01*
X0019097704Y0142579014D01*
X0019120546Y0142532638D01*
X0019133326Y0142510645D01*
X0019133326Y0142510645D01*
X0019160123Y0142467665D01*
X0019220639Y0142386978D01*
X0019289460Y0142312619D01*
X0019366588Y0142244588D01*
X0019408613Y0142213210D01*
X0019408613Y0142213210D01*
X0019452450Y0142182557D01*
X0019543421Y0142123228D01*
X0019638347Y0142066272D01*
X0019737229Y0142011689D01*
X0019788318Y0141985387D01*
X0019788318Y0141985387D01*
X0019891154Y0141932650D01*
X0020096827Y0141821903D01*
X0020199664Y0141763892D01*
X0020199664Y0141763892D01*
X0020250720Y0141734096D01*
X0020349206Y0141669230D01*
X0020443341Y0141598035D01*
X0020533126Y0141520512D01*
X0020576205Y0141479113D01*
X0020576205Y0141479113D01*
X0020618988Y0141436364D01*
X0020697302Y0141342624D01*
X0020766914Y0141238996D01*
X0020827825Y0141125481D01*
X0020854655Y0141064602D01*
X0020854655Y0141064602D01*
X0020867435Y0141033438D01*
X0020890277Y0140967979D01*
X0020909856Y0140898762D01*
X0020926171Y0140825787D01*
X0020944934Y0140709750D01*
X0020957986Y0140541256D01*
X0020959074Y0140450747D01*
X0020959074Y0140450747D01*
X0020958712Y0140409365D01*
X0020954361Y0140328084D01*
X0020945659Y0140248583D01*
X0020932607Y0140170863D01*
X0020915204Y0140094922D01*
X0020893450Y0140020761D01*
X0020867345Y0139948379D01*
X0020836889Y0139877778D01*
X0020819849Y0139843219D01*
X0020819849Y0139843219D01*
X0020802182Y0139809401D01*
X0020764211Y0139743744D01*
X0020723077Y0139680460D01*
X0020678778Y0139619549D01*
X0020631315Y0139561011D01*
X0020580687Y0139504846D01*
X0020526896Y0139451055D01*
X0020469940Y0139399637D01*
X0020440144Y0139374916D01*
X0020440144Y0139374916D01*
X0020379332Y0139326794D01*
X0020250786Y0139239778D01*
X0020113934Y0139163837D01*
X0019968776Y0139098971D01*
X0019892736Y0139071152D01*
X0019892736Y0139071152D01*
X0019815708Y0139045377D01*
X0019658684Y0139005033D01*
X0019498100Y0138978137D01*
X0019333957Y0138964690D01*
X0019250402Y0138963569D01*
X0019250402Y0138963569D01*
X0017649312Y0138995213D02*
X0017953077Y0140292538D01*
X0017965734Y0140292538D01*
X0017978392Y0140026744D01*
X0017978392Y0140026744D01*
X0017993157Y0139942892D01*
X0018027965Y0139791011D01*
X0018048008Y0139722980D01*
X0018048008Y0139722980D01*
X0018069366Y0139659169D01*
X0018119993Y0139542093D01*
X0018149262Y0139488829D01*
X0017661975Y0138995213D01*
X0017649312Y0138995213D01*
X0021218538Y0142570766D02*
X0021224860Y0142722648D01*
X0021224860Y0142722648D01*
X0021214575Y0142803599D01*
X0021186096Y0142968138D01*
X0021167901Y0143051726D01*
X0021167901Y0143051726D01*
X0021158409Y0143094575D01*
X0021131513Y0143181590D01*
X0021095125Y0143270188D01*
X0021049244Y0143360368D01*
X0021022348Y0143406117D01*
X0021503317Y0143868090D01*
X0021515974Y0143868090D01*
X0021231196Y0142570765D01*
X0021218538Y0142570766D01*
G36*
G01*
X0021943134Y0139254677D02*
X0021937337Y0139228835D01*
X0021933644Y0139200886D01*
X0021931010Y0139176099D01*
X0021930483Y0139153424D01*
X0021931538Y0139127056D01*
X0021944195Y0139079593D01*
X0021955798Y0139058498D01*
X0021963346Y0139049400D01*
X0021982726Y0139035161D01*
X0022007248Y0139025668D01*
X0022036913Y0139020921D01*
X0022053889Y0139020525D01*
X0022100923Y0139021580D01*
X0022190707Y0139034237D01*
X0022275350Y0139059551D01*
X0022354850Y0139097521D01*
X0022392458Y0139121780D01*
X0022430231Y0139148347D01*
X0022503799Y0139214004D01*
X0022574994Y0139294691D01*
X0022643815Y0139390408D01*
X0022677237Y0139444530D01*
X0022711252Y0139502112D01*
X0022779283Y0139631448D01*
X0022847313Y0139777793D01*
X0022915344Y0139941145D01*
X0022949359Y0140029908D01*
X0022958849Y0140026747D01*
X0022924833Y0139937193D01*
X0022856803Y0139772259D01*
X0022788773Y0139624332D01*
X0022720742Y0139493413D01*
X0022686727Y0139435040D01*
X0022652415Y0139379337D01*
X0022580825Y0139280455D01*
X0022505675Y0139196604D01*
X0022426965Y0139127782D01*
X0022386127Y0139099634D01*
X0022365395Y0139086854D01*
X0022322283Y0139064012D01*
X0022254153Y0139035460D01*
X0022156063Y0139009355D01*
X0022050062Y0138996303D01*
X0021993766Y0138995215D01*
X0021993770Y0138995211D01*
X0021933386Y0138996332D01*
X0021851710Y0139005577D01*
X0021801874Y0139015663D01*
X0021755993Y0139029111D01*
X0021714067Y0139045921D01*
X0021676096Y0139066093D01*
X0021642081Y0139089627D01*
X0021626722Y0139102794D01*
X0021612005Y0139116819D01*
X0021585702Y0139146681D01*
X0021563157Y0139178719D01*
X0021544370Y0139212932D01*
X0021529340Y0139249320D01*
X0021518067Y0139287884D01*
X0021510552Y0139328623D01*
X0021506795Y0139371537D01*
X0021506482Y0139393901D01*
X0021507535Y0139441891D01*
X0021512803Y0139491992D01*
X0021522821Y0139545255D01*
X0021534951Y0139596410D01*
X0022212091Y0141956909D01*
X0021718474Y0141956909D01*
X0021718474Y0141969566D01*
X0022708872Y0141969566D01*
G37*
G36*
G01*
X0022794907Y0143835926D02*
X0022844744Y0143829597D01*
X0022892207Y0143816940D01*
X0022937297Y0143797953D01*
X0022958853Y0143785823D01*
X0022980607Y0143772770D01*
X0023020159Y0143742710D01*
X0023054966Y0143707904D01*
X0023085026Y0143668352D01*
X0023098078Y0143646599D01*
X0023110965Y0143625043D01*
X0023131137Y0143579952D01*
X0023144585Y0143532489D01*
X0023151309Y0143482653D01*
X0023151869Y0143456746D01*
X0023151309Y0143430806D01*
X0023144585Y0143380574D01*
X0023131137Y0143332320D01*
X0023110965Y0143286044D01*
X0023098078Y0143263729D01*
X0023085025Y0143242701D01*
X0023054964Y0143203939D01*
X0023020158Y0143169133D01*
X0022980606Y0143138282D01*
X0022958853Y0143124504D01*
X0022937297Y0143112374D01*
X0022892207Y0143093388D01*
X0022844744Y0143080730D01*
X0022794907Y0143074401D01*
X0022769000Y0143073874D01*
X0022743093Y0143074401D01*
X0022693257Y0143080730D01*
X0022645794Y0143093388D01*
X0022600705Y0143112374D01*
X0022579148Y0143124504D01*
X0022558153Y0143138281D01*
X0022519786Y0143169132D01*
X0022485771Y0143203939D01*
X0022456107Y0143242700D01*
X0022443087Y0143263729D01*
X0022430957Y0143286044D01*
X0022411971Y0143332320D01*
X0022399314Y0143380574D01*
X0022392985Y0143430806D01*
X0022392458Y0143456746D01*
X0022392985Y0143482653D01*
X0022399314Y0143532489D01*
X0022411971Y0143579952D01*
X0022430957Y0143625043D01*
X0022443087Y0143646599D01*
X0022456107Y0143668353D01*
X0022485773Y0143707905D01*
X0022519788Y0143742711D01*
X0022558153Y0143772771D01*
X0022579148Y0143785823D01*
X0022600705Y0143797953D01*
X0022645794Y0143816940D01*
X0022693257Y0143829597D01*
X0022743093Y0143835926D01*
X0022769000Y0143836453D01*
G37*
X0021993770Y0138995211D02*
X0021993770Y0138995211D01*
X0021933386Y0138996332D01*
X0021851710Y0139005577D01*
X0021801874Y0139015663D01*
X0021755993Y0139029111D01*
X0021714067Y0139045921D01*
X0021676096Y0139066093D01*
X0021642081Y0139089627D01*
X0021626722Y0139102794D01*
X0021626722Y0139102794D01*
X0021612005Y0139116819D01*
X0021585702Y0139146681D01*
X0021563157Y0139178719D01*
X0021544370Y0139212932D01*
X0021529340Y0139249320D01*
X0021518067Y0139287884D01*
X0021510552Y0139328623D01*
X0021506795Y0139371537D01*
X0021506482Y0139393901D01*
X0021506482Y0139393901D01*
X0021507535Y0139441891D01*
X0021512803Y0139491992D01*
X0021512803Y0139491992D01*
X0021522821Y0139545255D01*
X0021534951Y0139596410D01*
X0022212091Y0141956909D01*
X0021718474Y0141956909D01*
X0021718474Y0141969566D01*
X0022708872Y0141969566D01*
X0021943134Y0139254677D01*
X0021943134Y0139254677D01*
X0021937337Y0139228835D01*
X0021933644Y0139200886D01*
X0021933644Y0139200886D01*
X0021931010Y0139176099D01*
X0021930483Y0139153424D01*
X0021930483Y0139153424D01*
X0021931538Y0139127056D01*
X0021944195Y0139079593D01*
X0021955798Y0139058498D01*
X0021955798Y0139058498D01*
X0021963346Y0139049400D01*
X0021982726Y0139035161D01*
X0022007248Y0139025668D01*
X0022036913Y0139020921D01*
X0022053889Y0139020525D01*
X0022053889Y0139020525D01*
X0022100923Y0139021580D01*
X0022190707Y0139034237D01*
X0022275350Y0139059551D01*
X0022354850Y0139097521D01*
X0022392458Y0139121780D01*
X0022392458Y0139121780D01*
X0022430231Y0139148347D01*
X0022503799Y0139214004D01*
X0022574994Y0139294691D01*
X0022643815Y0139390408D01*
X0022677237Y0139444530D01*
X0022677237Y0139444530D01*
X0022711252Y0139502112D01*
X0022779283Y0139631448D01*
X0022847313Y0139777793D01*
X0022915344Y0139941145D01*
X0022949359Y0140029908D01*
X0022958849Y0140026747D01*
X0022958849Y0140026747D01*
X0022924833Y0139937193D01*
X0022856803Y0139772259D01*
X0022788773Y0139624332D01*
X0022720742Y0139493413D01*
X0022686727Y0139435040D01*
X0022686727Y0139435040D01*
X0022652415Y0139379337D01*
X0022580825Y0139280455D01*
X0022505675Y0139196604D01*
X0022426965Y0139127782D01*
X0022386127Y0139099634D01*
X0022386127Y0139099634D01*
X0022365395Y0139086854D01*
X0022322283Y0139064012D01*
X0022254153Y0139035460D01*
X0022156063Y0139009355D01*
X0022050062Y0138996303D01*
X0021993766Y0138995215D01*
X0021993770Y0138995211D01*
X0022769000Y0143073874D02*
X0022769000Y0143073874D01*
X0022743093Y0143074401D01*
X0022693257Y0143080730D01*
X0022645794Y0143093388D01*
X0022600705Y0143112374D01*
X0022579148Y0143124504D01*
X0022579148Y0143124504D01*
X0022558153Y0143138281D01*
X0022519786Y0143169132D01*
X0022485771Y0143203939D01*
X0022456107Y0143242700D01*
X0022443087Y0143263729D01*
X0022443087Y0143263729D01*
X0022430957Y0143286044D01*
X0022411971Y0143332320D01*
X0022399314Y0143380574D01*
X0022392985Y0143430806D01*
X0022392458Y0143456746D01*
X0022392458Y0143456746D01*
X0022392985Y0143482653D01*
X0022399314Y0143532489D01*
X0022411971Y0143579952D01*
X0022430957Y0143625043D01*
X0022443087Y0143646599D01*
X0022443087Y0143646599D01*
X0022456107Y0143668353D01*
X0022485773Y0143707905D01*
X0022519788Y0143742711D01*
X0022558153Y0143772771D01*
X0022579148Y0143785823D01*
X0022579148Y0143785823D01*
X0022600705Y0143797953D01*
X0022645794Y0143816940D01*
X0022693257Y0143829597D01*
X0022743093Y0143835926D01*
X0022769000Y0143836453D01*
X0022769000Y0143836453D01*
X0022794907Y0143835926D01*
X0022844744Y0143829597D01*
X0022892207Y0143816940D01*
X0022937297Y0143797953D01*
X0022958853Y0143785823D01*
X0022958853Y0143785823D01*
X0022980607Y0143772770D01*
X0023020159Y0143742710D01*
X0023054966Y0143707904D01*
X0023085026Y0143668352D01*
X0023098078Y0143646599D01*
X0023098078Y0143646599D01*
X0023110965Y0143625043D01*
X0023131137Y0143579952D01*
X0023144585Y0143532489D01*
X0023151309Y0143482653D01*
X0023151869Y0143456746D01*
X0023151869Y0143456746D01*
X0023151309Y0143430806D01*
X0023144585Y0143380574D01*
X0023131137Y0143332320D01*
X0023110965Y0143286044D01*
X0023098078Y0143263729D01*
X0023098078Y0143263729D01*
X0023085025Y0143242701D01*
X0023054964Y0143203939D01*
X0023020158Y0143169133D01*
X0022980606Y0143138282D01*
X0022958853Y0143124504D01*
X0022958853Y0143124504D01*
X0022937297Y0143112374D01*
X0022892207Y0143093388D01*
X0022844744Y0143080730D01*
X0022794907Y0143074401D01*
X0022769000Y0143073874D01*
X0022769000Y0143073874D01*
G36*
G01*
X0023683451Y0139248348D02*
X0023677655Y0139222507D01*
X0023673961Y0139194558D01*
X0023671327Y0139167663D01*
X0023670801Y0139147095D01*
X0023671138Y0139131604D01*
X0023675193Y0139103917D01*
X0023683301Y0139080186D01*
X0023695463Y0139060409D01*
X0023711680Y0139044588D01*
X0023731950Y0139032722D01*
X0023756275Y0139024812D01*
X0023784654Y0139020856D01*
X0023800533Y0139020527D01*
X0023846051Y0139021582D01*
X0023933462Y0139034238D01*
X0024016523Y0139059552D01*
X0024095232Y0139097523D01*
X0024132774Y0139121782D01*
X0024170580Y0139149106D01*
X0024244544Y0139215950D01*
X0024316529Y0139297428D01*
X0024386537Y0139393541D01*
X0024420717Y0139447695D01*
X0024454700Y0139505244D01*
X0024522335Y0139634185D01*
X0024589574Y0139779739D01*
X0024656418Y0139941904D01*
X0024689675Y0140029909D01*
X0024699165Y0140026748D01*
X0024665116Y0139937194D01*
X0024596691Y0139772260D01*
X0024527869Y0139624333D01*
X0024458652Y0139493414D01*
X0024423879Y0139435041D01*
X0024389600Y0139379338D01*
X0024318405Y0139280457D01*
X0024244047Y0139196605D01*
X0024166524Y0139127784D01*
X0024126444Y0139099635D01*
X0024085572Y0139074619D01*
X0023998557Y0139035462D01*
X0023905213Y0139009357D01*
X0023805540Y0138996305D01*
X0023753067Y0138995217D01*
X0023753072Y0138995211D01*
X0023692557Y0138996365D01*
X0023609793Y0139005882D01*
X0023558770Y0139016265D01*
X0023511307Y0139030108D01*
X0023467404Y0139047412D01*
X0023427061Y0139068178D01*
X0023390277Y0139092404D01*
X0023373368Y0139105959D01*
X0023357489Y0139119975D01*
X0023329110Y0139149738D01*
X0023304785Y0139181578D01*
X0023284514Y0139215494D01*
X0023268298Y0139251487D01*
X0023256135Y0139289556D01*
X0023248027Y0139329702D01*
X0023243973Y0139371925D01*
X0023243635Y0139393901D01*
X0023244689Y0139454551D01*
X0023249957Y0139504648D01*
X0023259974Y0139553695D01*
X0023272104Y0139596410D01*
X0024404890Y0143792149D01*
X0023778377Y0143792149D01*
X0023778377Y0143804807D01*
X0024907999Y0143804807D01*
G37*
X0023753072Y0138995211D02*
X0023753072Y0138995211D01*
X0023692557Y0138996365D01*
X0023609793Y0139005882D01*
X0023558770Y0139016265D01*
X0023511307Y0139030108D01*
X0023467404Y0139047412D01*
X0023427061Y0139068178D01*
X0023390277Y0139092404D01*
X0023373368Y0139105959D01*
X0023373368Y0139105959D01*
X0023357489Y0139119975D01*
X0023329110Y0139149738D01*
X0023304785Y0139181578D01*
X0023284514Y0139215494D01*
X0023268298Y0139251487D01*
X0023256135Y0139289556D01*
X0023248027Y0139329702D01*
X0023243973Y0139371925D01*
X0023243635Y0139393901D01*
X0023243635Y0139393901D01*
X0023244689Y0139454551D01*
X0023249957Y0139504648D01*
X0023249957Y0139504648D01*
X0023259974Y0139553695D01*
X0023272104Y0139596410D01*
X0024404890Y0143792149D01*
X0023778377Y0143792149D01*
X0023778377Y0143804807D01*
X0024907999Y0143804807D01*
X0023683451Y0139248348D01*
X0023683451Y0139248348D01*
X0023677655Y0139222507D01*
X0023673961Y0139194558D01*
X0023673961Y0139194558D01*
X0023671327Y0139167663D01*
X0023670801Y0139147095D01*
X0023670801Y0139147095D01*
X0023671138Y0139131604D01*
X0023675193Y0139103917D01*
X0023683301Y0139080186D01*
X0023695463Y0139060409D01*
X0023711680Y0139044588D01*
X0023731950Y0139032722D01*
X0023756275Y0139024812D01*
X0023784654Y0139020856D01*
X0023800533Y0139020527D01*
X0023800533Y0139020527D01*
X0023846051Y0139021582D01*
X0023933462Y0139034238D01*
X0024016523Y0139059552D01*
X0024095232Y0139097523D01*
X0024132774Y0139121782D01*
X0024132774Y0139121782D01*
X0024170580Y0139149106D01*
X0024244544Y0139215950D01*
X0024316529Y0139297428D01*
X0024386537Y0139393541D01*
X0024420717Y0139447695D01*
X0024420717Y0139447695D01*
X0024454700Y0139505244D01*
X0024522335Y0139634185D01*
X0024589574Y0139779739D01*
X0024656418Y0139941904D01*
X0024689675Y0140029909D01*
X0024699165Y0140026748D01*
X0024699165Y0140026748D01*
X0024665116Y0139937194D01*
X0024596691Y0139772260D01*
X0024527869Y0139624333D01*
X0024458652Y0139493414D01*
X0024423879Y0139435041D01*
X0024423879Y0139435041D01*
X0024389600Y0139379338D01*
X0024318405Y0139280457D01*
X0024244047Y0139196605D01*
X0024166524Y0139127784D01*
X0024126444Y0139099635D01*
X0024126444Y0139099635D01*
X0024085572Y0139074619D01*
X0023998557Y0139035462D01*
X0023905213Y0139009357D01*
X0023805540Y0138996305D01*
X0023753067Y0138995217D01*
X0023753072Y0138995211D01*
G36*
G01*
X0026191172Y0140839857D02*
X0026151323Y0140822553D01*
X0026114737Y0140801788D01*
X0026081414Y0140777562D01*
X0026066112Y0140764007D01*
X0026037502Y0140736715D01*
X0025986875Y0140678178D01*
X0025969168Y0140651945D01*
X0025979747Y0140645614D01*
X0026022463Y0140626627D01*
X0026047118Y0140618451D01*
X0026073752Y0140611201D01*
X0026140200Y0140603292D01*
X0026180016Y0140602633D01*
X0026219733Y0140603655D01*
X0026292905Y0140615916D01*
X0026358563Y0140640438D01*
X0026416705Y0140677222D01*
X0026442645Y0140700723D01*
X0026467695Y0140726696D01*
X0026515158Y0140785234D01*
X0026559050Y0140851073D01*
X0026528053Y0140862327D01*
X0026454090Y0140873798D01*
X0026411010Y0140874753D01*
X0026355933Y0140873600D01*
X0026352558Y0140880895D01*
X0026365491Y0140882696D01*
X0026427589Y0140887046D01*
X0026458473Y0140887409D01*
X0026499179Y0140886881D01*
X0026575466Y0140880622D01*
X0026600591Y0140926041D01*
X0026619840Y0140966517D01*
X0026697363Y0141140020D01*
X0026781215Y0141336729D01*
X0026815560Y0141416724D01*
X0026887545Y0141561882D01*
X0026963486Y0141689241D01*
X0027043382Y0141798802D01*
X0027084978Y0141846166D01*
X0027106139Y0141869016D01*
X0027150438Y0141909854D01*
X0027197110Y0141944858D01*
X0027246155Y0141974028D01*
X0027297574Y0141997364D01*
X0027351365Y0142014866D01*
X0027407530Y0142026534D01*
X0027466068Y0142032368D01*
X0027496326Y0142032854D01*
X0027531494Y0142032129D01*
X0027597547Y0142023428D01*
X0027658458Y0142006025D01*
X0027714227Y0141979922D01*
X0027739970Y0141963245D01*
X0027764789Y0141946039D01*
X0027809483Y0141905696D01*
X0027848245Y0141858233D01*
X0027881073Y0141803650D01*
X0027895015Y0141773392D01*
X0027908662Y0141742113D01*
X0027930021Y0141675269D01*
X0027944261Y0141603283D01*
X0027951381Y0141526155D01*
X0027951974Y0141485449D01*
X0027950886Y0141447314D01*
X0027937834Y0141377306D01*
X0027919071Y0141329967D01*
X0027902756Y0141300599D01*
X0027872572Y0141259835D01*
X0027847556Y0141235477D01*
X0027822044Y0141212734D01*
X0027769043Y0141177137D01*
X0027713670Y0141153405D01*
X0027655923Y0141141540D01*
X0027626061Y0141140551D01*
X0027596990Y0141141375D01*
X0027540825Y0141151263D01*
X0027487033Y0141171039D01*
X0027435615Y0141200704D01*
X0027410895Y0141219656D01*
X0027398889Y0141230129D01*
X0027377432Y0141252971D01*
X0027359040Y0141278087D01*
X0027343713Y0141305477D01*
X0027326088Y0141350542D01*
X0027313827Y0141418968D01*
X0027312805Y0141456971D01*
X0027313761Y0141490393D01*
X0027325231Y0141551304D01*
X0027348171Y0141605096D01*
X0027382582Y0141651768D01*
X0027404567Y0141672137D01*
X0027427968Y0141691848D01*
X0027479387Y0141722699D01*
X0027536343Y0141743266D01*
X0027598836Y0141753550D01*
X0027632389Y0141754407D01*
X0027652825Y0141754044D01*
X0027692378Y0141749694D01*
X0027730348Y0141740992D01*
X0027766736Y0141727941D01*
X0027784271Y0141719602D01*
X0027802169Y0141710637D01*
X0027834997Y0141690070D01*
X0027864266Y0141666339D01*
X0027889976Y0141639443D01*
X0027901347Y0141624676D01*
X0027911961Y0141609448D01*
X0027928574Y0141577015D01*
X0027936192Y0141553073D01*
X0027932042Y0141598966D01*
X0027918595Y0141668579D01*
X0027898423Y0141733445D01*
X0027885536Y0141763901D01*
X0027871627Y0141793400D01*
X0027839194Y0141846796D01*
X0027801223Y0141893468D01*
X0027757715Y0141933416D01*
X0027733654Y0141950589D01*
X0027708703Y0141967268D01*
X0027654516Y0141993374D01*
X0027595187Y0142010778D01*
X0027530716Y0142019480D01*
X0027496338Y0142020205D01*
X0027466460Y0142019702D01*
X0027408515Y0142013670D01*
X0027352746Y0142001607D01*
X0027299152Y0141983512D01*
X0027247734Y0141959385D01*
X0027198491Y0141929226D01*
X0027151423Y0141893035D01*
X0027106531Y0141850813D01*
X0027084991Y0141827189D01*
X0027043527Y0141778506D01*
X0026965213Y0141668945D01*
X0026892436Y0141544750D01*
X0026825197Y0141405921D01*
X0026793884Y0141330408D01*
X0026751299Y0141224803D01*
X0026667447Y0141033368D01*
X0026626181Y0140947539D01*
X0026605383Y0140906371D01*
X0026588918Y0140878335D01*
X0026648292Y0140867895D01*
X0026715136Y0140848909D01*
X0026746416Y0140836779D01*
X0026777530Y0140823396D01*
X0026834486Y0140789380D01*
X0026885113Y0140746664D01*
X0026929412Y0140695246D01*
X0026948925Y0140665912D01*
X0026968108Y0140635720D01*
X0027000541Y0140566108D01*
X0027025855Y0140485420D01*
X0027044049Y0140393658D01*
X0027050179Y0140343163D01*
X0027055057Y0140290624D01*
X0027058220Y0140174339D01*
X0027053474Y0140044606D01*
X0027040817Y0139901426D01*
X0027031193Y0139824232D01*
X0026920446Y0139210377D01*
X0026917286Y0139199304D01*
X0026914125Y0139181901D01*
X0026914125Y0139156586D01*
X0026914454Y0139141869D01*
X0026918410Y0139115566D01*
X0026926320Y0139093021D01*
X0026938186Y0139074234D01*
X0026954007Y0139059204D01*
X0026973783Y0139047932D01*
X0026997515Y0139040417D01*
X0027025202Y0139036659D01*
X0027040693Y0139036346D01*
X0027084992Y0139037565D01*
X0027173590Y0139052200D01*
X0027262188Y0139081469D01*
X0027350785Y0139125372D01*
X0027395084Y0139153421D01*
X0027439251Y0139184668D01*
X0027526267Y0139259027D01*
X0027611700Y0139347625D01*
X0027695552Y0139450461D01*
X0027736819Y0139507813D01*
X0027777657Y0139567570D01*
X0027856366Y0139699280D01*
X0027931516Y0139845625D01*
X0028003107Y0140006604D01*
X0028037419Y0140093191D01*
X0028046908Y0140086869D01*
X0028021388Y0140022225D01*
X0027968289Y0139899118D01*
X0027912718Y0139783427D01*
X0027854674Y0139675151D01*
X0027794159Y0139574292D01*
X0027731171Y0139480849D01*
X0027665712Y0139394822D01*
X0027597780Y0139316212D01*
X0027562784Y0139279996D01*
X0027527377Y0139245141D01*
X0027454501Y0139182845D01*
X0027379153Y0139129449D01*
X0027301334Y0139084953D01*
X0027221042Y0139049355D01*
X0027138278Y0139022657D01*
X0027053042Y0139004859D01*
X0026965335Y0138995959D01*
X0026920451Y0138995218D01*
X0026920447Y0138995215D01*
X0026866293Y0138996368D01*
X0026793294Y0139005886D01*
X0026748896Y0139016268D01*
X0026708157Y0139030112D01*
X0026671076Y0139047416D01*
X0026637654Y0139068181D01*
X0026607891Y0139092407D01*
X0026594534Y0139105962D01*
X0026581753Y0139120522D01*
X0026558912Y0139152856D01*
X0026539333Y0139189047D01*
X0026523018Y0139229094D01*
X0026509965Y0139272997D01*
X0026500176Y0139320757D01*
X0026491203Y0139399146D01*
X0026490115Y0139457189D01*
X0026490642Y0139485141D01*
X0026493276Y0139523637D01*
X0026496966Y0139565301D01*
X0026502773Y0139596414D01*
X0026575549Y0139941313D01*
X0026590314Y0140011716D01*
X0026625123Y0140160434D01*
X0026645165Y0140238748D01*
X0026655878Y0140278927D01*
X0026673677Y0140357637D01*
X0026687125Y0140434369D01*
X0026696221Y0140509123D01*
X0026698956Y0140545676D01*
X0026700603Y0140581504D01*
X0026696647Y0140647557D01*
X0026683989Y0140706886D01*
X0026662631Y0140759491D01*
X0026648326Y0140782992D01*
X0026640506Y0140794223D01*
X0026621818Y0140814296D01*
X0026599470Y0140831501D01*
X0026573465Y0140845839D01*
X0026570471Y0140846926D01*
X0026561480Y0140831617D01*
X0026514808Y0140765959D01*
X0026465367Y0140709399D01*
X0026439493Y0140684909D01*
X0026413586Y0140662167D01*
X0026355839Y0140626570D01*
X0026290973Y0140602838D01*
X0026218988Y0140590973D01*
X0026180028Y0140589984D01*
X0026180023Y0140589975D01*
X0026144162Y0140590634D01*
X0026077713Y0140598544D01*
X0026047125Y0140605794D01*
X0026018252Y0140613967D01*
X0025972371Y0140632953D01*
X0025961160Y0140640081D01*
X0025944158Y0140614893D01*
X0025909352Y0140546863D01*
X0025895245Y0140510870D01*
X0025847780Y0140374282D01*
X0025824203Y0140297474D01*
X0025483897Y0139058496D01*
X0024999773Y0139058495D01*
X0025805315Y0142063707D01*
X0026121575Y0141380141D01*
X0025888506Y0140531588D01*
X0025901970Y0140563804D01*
X0025951014Y0140650029D01*
X0025977513Y0140684901D01*
X0026004574Y0140717103D01*
X0026060343Y0140771291D01*
X0026118090Y0140813217D01*
X0026177814Y0140842881D01*
X0026208501Y0140852604D01*
X0026240110Y0140860943D01*
X0026284280Y0140870110D01*
X0026280660Y0140864083D01*
X0026234284Y0140853700D01*
G37*
G36*
G01*
X0026355933Y0140873600D02*
X0026280660Y0140864083D01*
X0026284280Y0140870110D01*
X0026302998Y0140873995D01*
X0026352558Y0140880895D01*
G37*
G36*
G01*
X0026121575Y0141380141D02*
X0025805315Y0142063707D01*
X0026268620Y0143792149D01*
X0025705391Y0143792149D01*
X0025705391Y0143804807D01*
X0026787551Y0143804807D01*
G37*
X0024999773Y0139058495D02*
X0026268620Y0143792149D01*
X0025705391Y0143792149D01*
X0025705391Y0143804807D01*
X0026787551Y0143804807D01*
X0025483897Y0139058496D01*
X0024999773Y0139058495D01*
X0026920447Y0138995215D02*
X0026920447Y0138995215D01*
X0026866293Y0138996368D01*
X0026793294Y0139005886D01*
X0026748896Y0139016268D01*
X0026708157Y0139030112D01*
X0026671076Y0139047416D01*
X0026637654Y0139068181D01*
X0026607891Y0139092407D01*
X0026594534Y0139105962D01*
X0026594534Y0139105962D01*
X0026581753Y0139120522D01*
X0026558912Y0139152856D01*
X0026539333Y0139189047D01*
X0026523018Y0139229094D01*
X0026509965Y0139272997D01*
X0026500176Y0139320757D01*
X0026491203Y0139399146D01*
X0026490115Y0139457189D01*
X0026490115Y0139457189D01*
X0026490642Y0139485141D01*
X0026493276Y0139523637D01*
X0026493276Y0139523637D01*
X0026496966Y0139565301D01*
X0026502773Y0139596414D01*
X0026575549Y0139941313D01*
X0026575549Y0139941313D01*
X0026590314Y0140011716D01*
X0026625123Y0140160434D01*
X0026645165Y0140238748D01*
X0026645165Y0140238748D01*
X0026655878Y0140278927D01*
X0026673677Y0140357637D01*
X0026687125Y0140434369D01*
X0026696221Y0140509123D01*
X0026698956Y0140545676D01*
X0026698956Y0140545676D01*
X0026700603Y0140581504D01*
X0026696647Y0140647557D01*
X0026683989Y0140706886D01*
X0026662631Y0140759491D01*
X0026648326Y0140782992D01*
X0026648326Y0140782992D01*
X0026640506Y0140794223D01*
X0026621818Y0140814296D01*
X0026599470Y0140831501D01*
X0026573465Y0140845839D01*
X0026528053Y0140862327D01*
X0026454090Y0140873798D01*
X0026411010Y0140874753D01*
X0026411010Y0140874753D01*
X0026355933Y0140873600D01*
X0026280660Y0140864083D01*
X0026234284Y0140853700D01*
X0026191172Y0140839857D01*
X0026151323Y0140822553D01*
X0026114737Y0140801788D01*
X0026081414Y0140777562D01*
X0026066112Y0140764007D01*
X0026066112Y0140764007D01*
X0026037502Y0140736715D01*
X0025986875Y0140678178D01*
X0025944158Y0140614893D01*
X0025909352Y0140546863D01*
X0025895245Y0140510870D01*
X0025895245Y0140510870D01*
X0025847780Y0140374282D01*
X0025812975Y0140260898D01*
X0025800318Y0140260898D01*
X0025800318Y0140260898D01*
X0025818117Y0140332026D01*
X0025857671Y0140457803D01*
X0025901970Y0140563804D01*
X0025951014Y0140650029D01*
X0025977513Y0140684901D01*
X0025977513Y0140684901D01*
X0026004574Y0140717103D01*
X0026060343Y0140771291D01*
X0026118090Y0140813217D01*
X0026177814Y0140842881D01*
X0026208501Y0140852604D01*
X0026208501Y0140852604D01*
X0026240110Y0140860943D01*
X0026302998Y0140873995D01*
X0026365491Y0140882696D01*
X0026427589Y0140887046D01*
X0026458473Y0140887409D01*
X0026458473Y0140887409D01*
X0026499179Y0140886881D01*
X0026576307Y0140880553D01*
X0026648292Y0140867895D01*
X0026715136Y0140848909D01*
X0026746416Y0140836779D01*
X0026746416Y0140836779D01*
X0026777530Y0140823396D01*
X0026834486Y0140789380D01*
X0026885113Y0140746664D01*
X0026929412Y0140695246D01*
X0026948925Y0140665912D01*
X0026948925Y0140665912D01*
X0026968108Y0140635720D01*
X0027000541Y0140566108D01*
X0027025855Y0140485420D01*
X0027044049Y0140393658D01*
X0027050179Y0140343163D01*
X0027050179Y0140343163D01*
X0027055057Y0140290624D01*
X0027058220Y0140174339D01*
X0027053474Y0140044606D01*
X0027040817Y0139901426D01*
X0027031193Y0139824232D01*
X0026920446Y0139210377D01*
X0026920446Y0139210377D01*
X0026917286Y0139199304D01*
X0026914125Y0139181901D01*
X0026914125Y0139181901D01*
X0026914125Y0139156586D01*
X0026914125Y0139156586D01*
X0026914454Y0139141869D01*
X0026918410Y0139115566D01*
X0026926320Y0139093021D01*
X0026938186Y0139074234D01*
X0026954007Y0139059204D01*
X0026973783Y0139047932D01*
X0026997515Y0139040417D01*
X0027025202Y0139036659D01*
X0027040693Y0139036346D01*
X0027040693Y0139036346D01*
X0027084992Y0139037565D01*
X0027173590Y0139052200D01*
X0027262188Y0139081469D01*
X0027350785Y0139125372D01*
X0027395084Y0139153421D01*
X0027395084Y0139153421D01*
X0027439251Y0139184668D01*
X0027526267Y0139259027D01*
X0027611700Y0139347625D01*
X0027695552Y0139450461D01*
X0027736819Y0139507813D01*
X0027736819Y0139507813D01*
X0027777657Y0139567570D01*
X0027856366Y0139699280D01*
X0027931516Y0139845625D01*
X0028003107Y0140006604D01*
X0028037419Y0140093191D01*
X0028046908Y0140086869D01*
X0028046908Y0140086869D01*
X0028021388Y0140022225D01*
X0027968289Y0139899118D01*
X0027912718Y0139783427D01*
X0027854674Y0139675151D01*
X0027794159Y0139574292D01*
X0027731171Y0139480849D01*
X0027665712Y0139394822D01*
X0027597780Y0139316212D01*
X0027562784Y0139279996D01*
X0027562784Y0139279996D01*
X0027527377Y0139245141D01*
X0027454501Y0139182845D01*
X0027379153Y0139129449D01*
X0027301334Y0139084953D01*
X0027221042Y0139049355D01*
X0027138278Y0139022657D01*
X0027053042Y0139004859D01*
X0026965335Y0138995959D01*
X0026920451Y0138995218D01*
X0026920447Y0138995215D01*
X0026180023Y0140589975D02*
X0026180023Y0140589975D01*
X0026144162Y0140590634D01*
X0026077713Y0140598544D01*
X0026047125Y0140605794D01*
X0026047125Y0140605794D01*
X0026018252Y0140613967D01*
X0025972371Y0140632953D01*
X0025955364Y0140643766D01*
X0025961685Y0140656424D01*
X0025961685Y0140656424D01*
X0025979747Y0140645614D01*
X0026022463Y0140626627D01*
X0026047118Y0140618451D01*
X0026047118Y0140618451D01*
X0026073752Y0140611201D01*
X0026140200Y0140603292D01*
X0026180016Y0140602633D01*
X0026180016Y0140602633D01*
X0026219733Y0140603655D01*
X0026292905Y0140615916D01*
X0026358563Y0140640438D01*
X0026416705Y0140677222D01*
X0026442645Y0140700723D01*
X0026442645Y0140700723D01*
X0026467695Y0140726696D01*
X0026515158Y0140785234D01*
X0026559457Y0140851682D01*
X0026600591Y0140926041D01*
X0026619840Y0140966517D01*
X0026619840Y0140966517D01*
X0026697363Y0141140020D01*
X0026781215Y0141336729D01*
X0026781215Y0141336729D01*
X0026815560Y0141416724D01*
X0026887545Y0141561882D01*
X0026963486Y0141689241D01*
X0027043382Y0141798802D01*
X0027084978Y0141846166D01*
X0027084978Y0141846166D01*
X0027106139Y0141869016D01*
X0027150438Y0141909854D01*
X0027197110Y0141944858D01*
X0027246155Y0141974028D01*
X0027297574Y0141997364D01*
X0027351365Y0142014866D01*
X0027407530Y0142026534D01*
X0027466068Y0142032368D01*
X0027496326Y0142032854D01*
X0027496326Y0142032854D01*
X0027531494Y0142032129D01*
X0027597547Y0142023428D01*
X0027658458Y0142006025D01*
X0027714227Y0141979922D01*
X0027739970Y0141963245D01*
X0027739970Y0141963245D01*
X0027764789Y0141946039D01*
X0027809483Y0141905696D01*
X0027848245Y0141858233D01*
X0027881073Y0141803650D01*
X0027895015Y0141773392D01*
X0027895015Y0141773392D01*
X0027908662Y0141742113D01*
X0027930021Y0141675269D01*
X0027944261Y0141603283D01*
X0027951381Y0141526155D01*
X0027951974Y0141485449D01*
X0027951974Y0141485449D01*
X0027950886Y0141447314D01*
X0027937834Y0141377306D01*
X0027919071Y0141329967D01*
X0027902756Y0141300599D01*
X0027872572Y0141259835D01*
X0027847556Y0141235477D01*
X0027847556Y0141235477D01*
X0027822044Y0141212734D01*
X0027769043Y0141177137D01*
X0027713670Y0141153405D01*
X0027655923Y0141141540D01*
X0027626061Y0141140551D01*
X0027626061Y0141140551D01*
X0027596990Y0141141375D01*
X0027540825Y0141151263D01*
X0027487033Y0141171039D01*
X0027435615Y0141200704D01*
X0027410895Y0141219656D01*
X0027410895Y0141219656D01*
X0027398889Y0141230129D01*
X0027377432Y0141252971D01*
X0027359040Y0141278087D01*
X0027343713Y0141305477D01*
X0027326088Y0141350542D01*
X0027313827Y0141418968D01*
X0027312805Y0141456971D01*
X0027312805Y0141456971D01*
X0027313761Y0141490393D01*
X0027325231Y0141551304D01*
X0027348171Y0141605096D01*
X0027382582Y0141651768D01*
X0027404567Y0141672137D01*
X0027404567Y0141672137D01*
X0027427968Y0141691848D01*
X0027479387Y0141722699D01*
X0027536343Y0141743266D01*
X0027598836Y0141753550D01*
X0027632389Y0141754407D01*
X0027632389Y0141754407D01*
X0027652825Y0141754044D01*
X0027692378Y0141749694D01*
X0027730348Y0141740992D01*
X0027766736Y0141727941D01*
X0027784271Y0141719602D01*
X0027784271Y0141719602D01*
X0027802169Y0141710637D01*
X0027834997Y0141690070D01*
X0027864266Y0141666339D01*
X0027889976Y0141639443D01*
X0027901347Y0141624676D01*
X0027901347Y0141624676D01*
X0027911961Y0141609448D01*
X0027928574Y0141577015D01*
X0027939649Y0141542209D01*
X0027945187Y0141505029D01*
X0027945648Y0141485451D01*
X0027939327Y0141485451D01*
X0027939327Y0141485451D01*
X0027938766Y0141524608D01*
X0027932042Y0141598966D01*
X0027918595Y0141668579D01*
X0027898423Y0141733445D01*
X0027885536Y0141763901D01*
X0027885536Y0141763901D01*
X0027871627Y0141793400D01*
X0027839194Y0141846796D01*
X0027801223Y0141893468D01*
X0027757715Y0141933416D01*
X0027733654Y0141950589D01*
X0027733654Y0141950589D01*
X0027708703Y0141967268D01*
X0027654516Y0141993374D01*
X0027595187Y0142010778D01*
X0027530716Y0142019480D01*
X0027496338Y0142020205D01*
X0027496338Y0142020205D01*
X0027466460Y0142019702D01*
X0027408515Y0142013670D01*
X0027352746Y0142001607D01*
X0027299152Y0141983512D01*
X0027247734Y0141959385D01*
X0027198491Y0141929226D01*
X0027151423Y0141893035D01*
X0027106531Y0141850813D01*
X0027084991Y0141827189D01*
X0027084991Y0141827189D01*
X0027043527Y0141778506D01*
X0026965213Y0141668945D01*
X0026892436Y0141544750D01*
X0026825197Y0141405921D01*
X0026793884Y0141330408D01*
X0026793884Y0141330408D01*
X0026751299Y0141224803D01*
X0026667447Y0141033368D01*
X0026626181Y0140947539D01*
X0026626181Y0140947539D01*
X0026605383Y0140906371D01*
X0026561480Y0140831617D01*
X0026514808Y0140765959D01*
X0026465367Y0140709399D01*
X0026439493Y0140684909D01*
X0026439493Y0140684909D01*
X0026413586Y0140662167D01*
X0026355839Y0140626570D01*
X0026290973Y0140602838D01*
X0026218988Y0140590973D01*
X0026180028Y0140589984D01*
X0026180023Y0140589975D01*
M02*