G04 Gerber file generated by Gerbonara*
%MOMM*%
%FSLAX46Y46*%
%IPPOS*%
G75
%LPD*%
%AMGNC*
1,1,$1,0,0,-57.29578X$4*
1,0,$2,0,0,0*
21,0,$2,$3,0,0,-57.29578X$4*
%
%AMGNR*
21,1,$1,$2,0,0,$5X-57.29578*
1,0,$3,0,0,0*
21,0,$3,$4,0,0,$5X-57.29578*
%
%AMGNO*
21,1,$1,$2,0,0,$5X-57.29578*
1,1,$2,$1/2,0,$5X-57.29578*
1,1,$2,(0-$1)/2,0,$5X-57.29578*
1,0,$3,0,0,0*
21,0,$3,$4,0,0,$5X-57.29578*
%
%AMGNP*
5,1,$2,0,0,$1,$3X-57.29578*
1,0,$4,0,0,0*
%
%ADD10C,0.05*%
%ADD11C,0.09*%
D11*
X0006207541Y0063631119D02*
X0006207541Y0063643776D01*
X0006780263Y0063643776D01*
X0007881407Y0068364774D01*
X0007315013Y0068364774D01*
X0007315013Y0068377431D01*
X0009086969Y0068377431D01*
X0009086969Y0068377431D01*
X0009181508Y0068376854D01*
X0009358803Y0068369932D01*
X0009521957Y0068356089D01*
X0009670972Y0068335324D01*
X0009805846Y0068307637D01*
X0009926580Y0068273028D01*
X0010033174Y0068231498D01*
X0010125629Y0068183046D01*
X0010165964Y0068155936D01*
X0010165964Y0068155936D01*
X0010204305Y0068127590D01*
X0010272830Y0068064306D01*
X0010331566Y0067993112D01*
X0010380512Y0067914006D01*
X0010419669Y0067826991D01*
X0010449037Y0067732065D01*
X0010468616Y0067629228D01*
X0010478405Y0067518481D01*
X0010479221Y0067459811D01*
X0010479221Y0067459811D01*
X0010478891Y0067427048D01*
X0010474936Y0067362182D01*
X0010467025Y0067298107D01*
X0010455159Y0067234822D01*
X0010439338Y0067172329D01*
X0010419562Y0067110627D01*
X0010395830Y0067049716D01*
X0010368143Y0066989596D01*
X0010352652Y0066959866D01*
X0010352652Y0066959866D01*
X0010319988Y0066901032D01*
X0010244443Y0066788307D01*
X0010156636Y0066681515D01*
X0010056568Y0066580656D01*
X0010001426Y0066532698D01*
X0010001426Y0066532698D01*
X0009944503Y0066486718D01*
X0009823076Y0066401680D01*
X0009692552Y0066324948D01*
X0009552932Y0066256522D01*
X0009479331Y0066225770D01*
X0009479331Y0066225770D01*
X0009404511Y0066196600D01*
X0009250256Y0066147159D01*
X0009090463Y0066108397D01*
X0008925134Y0066080315D01*
X0008840161Y0066070724D01*
X0008840161Y0066070724D01*
X0008940955Y0066066604D01*
X0009130016Y0066048805D01*
X0009304047Y0066019536D01*
X0009424238Y0065989699D01*
X0009499981Y0065966462D01*
X0009536287Y0065953648D01*
X0009536287Y0065953648D01*
X0009572313Y0065940349D01*
X0009640738Y0065911278D01*
X0009704814Y0065879240D01*
X0009764538Y0065844236D01*
X0009819912Y0065806265D01*
X0009870935Y0065765328D01*
X0009917607Y0065721425D01*
X0009959928Y0065674555D01*
X0009979276Y0065649884D01*
X0009979276Y0065649884D01*
X0009997865Y0065624702D01*
X0010031090Y0065571702D01*
X0010059568Y0065515537D01*
X0010083299Y0065456208D01*
X0010102284Y0065393715D01*
X0010116523Y0065328058D01*
X0010126016Y0065259236D01*
X0010130762Y0065187251D01*
X0010131158Y0065149939D01*
X0010131158Y0065149939D01*
X0010130762Y0065105830D01*
X0010126016Y0065019507D01*
X0010116523Y0064935457D01*
X0010102284Y0064853682D01*
X0010083299Y0064774182D01*
X0010059568Y0064696956D01*
X0010031090Y0064622003D01*
X0009997865Y0064549325D01*
X0009979276Y0064513934D01*
X0009979276Y0064513934D01*
X0009959977Y0064478947D01*
X0009918249Y0064411114D01*
X0009872764Y0064345852D01*
X0009823521Y0064283161D01*
X0009770520Y0064223041D01*
X0009713763Y0064165492D01*
X0009653247Y0064110514D01*
X0009588974Y0064058107D01*
X0009555272Y0064032974D01*
X0009555272Y0064032974D01*
X0009521422Y0064008691D01*
X0009451414Y0063962513D01*
X0009378637Y0063919203D01*
X0009303092Y0063878761D01*
X0009184928Y0063823115D01*
X0009017225Y0063759435D01*
X0008928759Y0063732375D01*
X0008928759Y0063732375D01*
X0008839634Y0063708116D01*
X0008656110Y0063670145D01*
X0008466258Y0063644832D01*
X0008270077Y0063632175D01*
X0008169350Y0063631120D01*
X0006207541Y0063631119D01*
X0007381462Y0063643776D02*
X0008169350Y0063643776D01*
X0008169350Y0063643776D01*
X0008205194Y0063644130D01*
X0008275400Y0063648382D01*
X0008343826Y0063656886D01*
X0008410472Y0063669642D01*
X0008475338Y0063686650D01*
X0008538424Y0063707909D01*
X0008599731Y0063733420D01*
X0008659258Y0063763184D01*
X0008688279Y0063779837D01*
X0008688279Y0063779837D01*
X0008746092Y0063815632D01*
X0008854466Y0063897111D01*
X0008954139Y0063990455D01*
X0009045109Y0064095664D01*
X0009086969Y0064153213D01*
X0009086969Y0064153213D01*
X0009128071Y0064212345D01*
X0009202034Y0064336540D01*
X0009266110Y0064467854D01*
X0009320297Y0064606288D01*
X0009343270Y0064678472D01*
X0009343270Y0064678472D01*
X0009365255Y0064751413D01*
X0009399666Y0064898945D01*
X0009422606Y0065048453D01*
X0009434077Y0065199940D01*
X0009435033Y0065276507D01*
X0009435033Y0065276507D01*
X0009434011Y0065345757D01*
X0009421749Y0065472721D01*
X0009404124Y0065558426D01*
X0009388797Y0065611526D01*
X0009370405Y0065661164D01*
X0009348948Y0065707342D01*
X0009336942Y0065728988D01*
X0009336942Y0065728988D01*
X0009324862Y0065750495D01*
X0009298559Y0065791037D01*
X0009269686Y0065828612D01*
X0009238242Y0065863221D01*
X0009204226Y0065894863D01*
X0009167640Y0065923538D01*
X0009128483Y0065949248D01*
X0009086755Y0065971990D01*
X0009064820Y0065982126D01*
X0009064820Y0065982126D01*
X0009020620Y0066001078D01*
X0008925298Y0066030742D01*
X0008821671Y0066050518D01*
X0008709737Y0066060407D01*
X0008650309Y0066061231D01*
X0007751674Y0066061231D01*
X0007754835Y0066073888D01*
X0008612336Y0066073888D01*
X0008612336Y0066073888D01*
X0008657755Y0066074844D01*
X0008751890Y0066086314D01*
X0008849981Y0066109255D01*
X0008952027Y0066143665D01*
X0009004698Y0066165650D01*
X0009004698Y0066165650D01*
X0009057500Y0066190304D01*
X0009161128Y0066248842D01*
X0009262382Y0066318455D01*
X0009361264Y0066399142D01*
X0009409715Y0066444100D01*
X0009409715Y0066444100D01*
X0009457212Y0066490871D01*
X0009544623Y0066593312D01*
X0009622937Y0066706433D01*
X0009692154Y0066830233D01*
X0009722972Y0066896582D01*
X0009722972Y0066896582D01*
X0009738076Y0066930812D01*
X0009765071Y0067001413D01*
X0009788209Y0067074585D01*
X0009807491Y0067150328D01*
X0009822917Y0067228643D01*
X0009834486Y0067309528D01*
X0009842199Y0067392983D01*
X0009846055Y0067479010D01*
X0009846376Y0067523095D01*
X0009846376Y0067523095D01*
X0009845585Y0067577414D01*
X0009836093Y0067683415D01*
X0009817108Y0067786252D01*
X0009788630Y0067885924D01*
X0009770436Y0067934442D01*
X0009770436Y0067934442D01*
X0009750494Y0067981905D01*
X0009701054Y0068068921D01*
X0009640143Y0068146444D01*
X0009567761Y0068214474D01*
X0009526792Y0068244534D01*
X0009526792Y0068244534D01*
X0009505557Y0068259251D01*
X0009460368Y0068285554D01*
X0009411916Y0068308099D01*
X0009360201Y0068326886D01*
X0009305223Y0068341916D01*
X0009246981Y0068353189D01*
X0009185477Y0068360704D01*
X0009120710Y0068364461D01*
X0009086966Y0068364774D01*
X0008482603Y0068364774D01*
X0007381462Y0063643776D01*
X0011577200Y0063567835D02*
X0011577200Y0063567835D01*
X0011518118Y0063568593D01*
X0011406382Y0063577690D01*
X0011302359Y0063595884D01*
X0011206049Y0063623175D01*
X0011117451Y0063659564D01*
X0011036566Y0063705049D01*
X0010963394Y0063759632D01*
X0010897934Y0063823311D01*
X0010868418Y0063858941D01*
X0010868418Y0063858941D01*
X0010840146Y0063895684D01*
X0010789618Y0063972713D01*
X0010746308Y0064053994D01*
X0010710216Y0064139526D01*
X0010681342Y0064229311D01*
X0010659687Y0064323347D01*
X0010645251Y0064421635D01*
X0010638032Y0064524175D01*
X0010637431Y0064577217D01*
X0010637431Y0064577217D01*
X0010637785Y0064628907D01*
X0010642037Y0064731052D01*
X0010650541Y0064831713D01*
X0010663296Y0064930891D01*
X0010680304Y0065028586D01*
X0010701564Y0065124798D01*
X0010727075Y0065219526D01*
X0010756838Y0065312771D01*
X0010773492Y0065358776D01*
X0010773492Y0065358776D01*
X0010791150Y0065404426D01*
X0010829022Y0065493420D01*
X0010869959Y0065579644D01*
X0010913961Y0065663100D01*
X0010961029Y0065743787D01*
X0011011162Y0065821706D01*
X0011064360Y0065896856D01*
X0011120623Y0065969237D01*
X0011150032Y0066004274D01*
X0011150032Y0066004274D01*
X0011179870Y0066039154D01*
X0011241275Y0066105702D01*
X0011304757Y0066168392D01*
X0011370316Y0066227227D01*
X0011437951Y0066282205D01*
X0011507662Y0066333327D01*
X0011579450Y0066380592D01*
X0011653314Y0066424001D01*
X0011691112Y0066444099D01*
X0011691112Y0066444099D01*
X0011729552Y0066463850D01*
X0011807174Y0066499151D01*
X0011885686Y0066529409D01*
X0011965088Y0066554623D01*
X0012045379Y0066574795D01*
X0012126561Y0066589924D01*
X0012208633Y0066600010D01*
X0012291594Y0066605053D01*
X0012333446Y0066605473D01*
X0012333446Y0066605473D01*
X0012392906Y0066604707D01*
X0012505236Y0066595511D01*
X0012609655Y0066577119D01*
X0012706163Y0066549531D01*
X0012794761Y0066512747D01*
X0012875448Y0066466767D01*
X0012948225Y0066411591D01*
X0013013091Y0066347220D01*
X0013042229Y0066311202D01*
X0013042229Y0066311202D01*
X0013070500Y0066274459D01*
X0013121029Y0066197431D01*
X0013164339Y0066116150D01*
X0013200430Y0066030618D01*
X0013229304Y0065940834D01*
X0013250959Y0065846797D01*
X0013265395Y0065748509D01*
X0013272614Y0065645969D01*
X0013273215Y0065592928D01*
X0013273215Y0065592928D01*
X0013272852Y0065541237D01*
X0013268502Y0065439093D01*
X0013259800Y0065338431D01*
X0013246748Y0065239253D01*
X0013229345Y0065141558D01*
X0013207591Y0065045346D01*
X0013181486Y0064950618D01*
X0013151031Y0064857373D01*
X0013133990Y0064811368D01*
X0013133990Y0064811368D01*
X0013116719Y0064765710D01*
X0013079540Y0064676618D01*
X0013039196Y0064590195D01*
X0012995688Y0064506442D01*
X0012949016Y0064425360D01*
X0012899180Y0064346947D01*
X0012846179Y0064271203D01*
X0012790015Y0064198130D01*
X0012760614Y0064162706D01*
X0012760614Y0064162706D01*
X0012730768Y0064128213D01*
X0012669264Y0064062357D01*
X0012605584Y0064000260D01*
X0012539729Y0063941920D01*
X0012471699Y0063887337D01*
X0012401493Y0063836512D01*
X0012329112Y0063789444D01*
X0012254555Y0063746134D01*
X0012216370Y0063726045D01*
X0012216370Y0063726045D01*
X0012178317Y0063706681D01*
X0012101388Y0063672072D01*
X0012023469Y0063642408D01*
X0011944562Y0063617687D01*
X0011864665Y0063597911D01*
X0011783780Y0063583079D01*
X0011701906Y0063573191D01*
X0011619043Y0063568247D01*
X0011577200Y0063567835D01*
X0011577200Y0063567835D01*
X0011513920Y0063580492D02*
X0011513920Y0063580492D01*
X0011557329Y0063581712D01*
X0011643158Y0063596346D01*
X0011727800Y0063625615D01*
X0011811256Y0063669518D01*
X0011852490Y0063697568D01*
X0011852490Y0063697568D01*
X0011894251Y0063728484D01*
X0011976125Y0063798888D01*
X0012056021Y0063879575D01*
X0012133940Y0063970546D01*
X0012172075Y0064020317D01*
X0012172075Y0064020317D01*
X0012209782Y0064071504D01*
X0012282558Y0064179483D01*
X0012352171Y0064294185D01*
X0012418620Y0064415612D01*
X0012450525Y0064479127D01*
X0012450525Y0064479127D01*
X0012481805Y0064543466D01*
X0012540738Y0064674780D01*
X0012595320Y0064809259D01*
X0012645552Y0064946902D01*
X0012668855Y0065017042D01*
X0012668855Y0065017042D01*
X0012692125Y0065087380D01*
X0012734051Y0065227396D01*
X0012770440Y0065366621D01*
X0012801291Y0065505055D01*
X0012814409Y0065573943D01*
X0012814409Y0065573943D01*
X0012827297Y0065642336D01*
X0012847468Y0065774837D01*
X0012860916Y0065902196D01*
X0012867640Y0066024414D01*
X0012868200Y0066083380D01*
X0012868200Y0066083380D01*
X0012867013Y0066140896D01*
X0012857224Y0066220273D01*
X0012846545Y0066269615D01*
X0012832306Y0066315892D01*
X0012814507Y0066359103D01*
X0012793149Y0066399249D01*
X0012768231Y0066436329D01*
X0012754288Y0066453592D01*
X0012754288Y0066453592D01*
X0012739711Y0066470246D01*
X0012707179Y0066500009D01*
X0012670593Y0066525521D01*
X0012629953Y0066546780D01*
X0012585258Y0066563788D01*
X0012536510Y0066576543D01*
X0012483707Y0066585047D01*
X0012426851Y0066589299D01*
X0012396733Y0066589653D01*
X0012396733Y0066589653D01*
X0012375383Y0066589340D01*
X0012332765Y0066585583D01*
X0012269011Y0066573371D01*
X0012184368Y0066543311D01*
X0012100121Y0066498221D01*
X0012058163Y0066469413D01*
X0012058163Y0066469413D01*
X0012016402Y0066439254D01*
X0011934528Y0066370037D01*
X0011854632Y0066290141D01*
X0011776713Y0066199566D01*
X0011738577Y0066149828D01*
X0011738577Y0066149828D01*
X0011700871Y0066098641D01*
X0011628094Y0065990662D01*
X0011558482Y0065875959D01*
X0011492033Y0065754533D01*
X0011460127Y0065691018D01*
X0011460127Y0065691018D01*
X0011428815Y0065626679D01*
X0011369486Y0065495365D01*
X0011314113Y0065360886D01*
X0011262695Y0065223243D01*
X0011238633Y0065153103D01*
X0011238633Y0065153103D01*
X0011216088Y0065082765D01*
X0011174953Y0064942749D01*
X0011138565Y0064803524D01*
X0011106923Y0064665090D01*
X0011093079Y0064596203D01*
X0011093079Y0064596203D01*
X0011080949Y0064528535D01*
X0011061963Y0064396825D01*
X0011049305Y0064269465D01*
X0011042977Y0064146457D01*
X0011042449Y0064086765D01*
X0011042449Y0064086765D01*
X0011043636Y0064029974D01*
X0011053425Y0063951240D01*
X0011064104Y0063902096D01*
X0011078343Y0063855819D01*
X0011096142Y0063812411D01*
X0011117501Y0063771869D01*
X0011142419Y0063734195D01*
X0011156361Y0063716553D01*
X0011156361Y0063716553D01*
X0011171317Y0063699900D01*
X0011204442Y0063670137D01*
X0011241424Y0063644625D01*
X0011282262Y0063623366D01*
X0011326956Y0063606358D01*
X0011375507Y0063593602D01*
X0011427914Y0063585098D01*
X0011484178Y0063580846D01*
X0011513916Y0063580492D01*
X0011513920Y0063580492D01*
X0014485111Y0063567835D02*
X0014485111Y0063567835D01*
X0014432720Y0063568535D01*
X0014334036Y0063576940D01*
X0014242670Y0063593750D01*
X0014158620Y0063618965D01*
X0014081888Y0063652584D01*
X0014012474Y0063694609D01*
X0013950376Y0063745039D01*
X0013895596Y0063803873D01*
X0013871255Y0063836792D01*
X0013871255Y0063836792D01*
X0013848405Y0063871368D01*
X0013807567Y0063946122D01*
X0013772562Y0064027601D01*
X0013743392Y0064115803D01*
X0013720056Y0064210729D01*
X0013702554Y0064312379D01*
X0013690886Y0064420754D01*
X0013685052Y0064535852D01*
X0013684566Y0064596202D01*
X0013684566Y0064596202D01*
X0013684912Y0064641663D01*
X0013689065Y0064732337D01*
X0013697371Y0064822715D01*
X0013709830Y0064912796D01*
X0013726442Y0065002580D01*
X0013747208Y0065092068D01*
X0013772126Y0065181259D01*
X0013801197Y0065270153D01*
X0013817463Y0065314477D01*
X0013817463Y0065314477D01*
X0013851643Y0065403173D01*
X0013929562Y0065573645D01*
X0014018951Y0065735811D01*
X0014119809Y0065889670D01*
X0014175018Y0065963139D01*
X0014175018Y0065963139D01*
X0014231677Y0066034696D01*
X0014349939Y0066165616D01*
X0014474135Y0066281900D01*
X0014571360Y0066359053D01*
X0014637907Y0066406219D01*
X0014671799Y0066428278D01*
X0014671799Y0066428278D01*
X0014706218Y0066449966D01*
X0014775138Y0066488727D01*
X0014844158Y0066521952D01*
X0014913276Y0066549638D01*
X0014982493Y0066571788D01*
X0015051809Y0066588400D01*
X0015121223Y0066599474D01*
X0015190737Y0066605012D01*
X0015225535Y0066605473D01*
X0015225535Y0066605473D01*
X0015253708Y0066605119D01*
X0015307005Y0066600867D01*
X0015356644Y0066592363D01*
X0015402623Y0066579607D01*
X0015444945Y0066562600D01*
X0015483607Y0066541340D01*
X0015518612Y0066515829D01*
X0015549957Y0066486065D01*
X0015564105Y0066469412D01*
X0015564105Y0066469412D01*
X0015590968Y0066435364D01*
X0015636454Y0066359028D01*
X0015672051Y0066272803D01*
X0015697760Y0066176690D01*
X0015706494Y0066124514D01*
X0015706494Y0066124514D01*
X0015714833Y0066071316D01*
X0015727885Y0065962942D01*
X0015736586Y0065852194D01*
X0015740936Y0065739074D01*
X0015741299Y0065681525D01*
X0015741299Y0065681525D01*
X0015740870Y0065629019D01*
X0015735729Y0065521040D01*
X0015725445Y0065409502D01*
X0015710020Y0065294404D01*
X0015700166Y0065235372D01*
X0015700166Y0065235372D01*
X0015690277Y0065176043D01*
X0015666545Y0065057385D01*
X0015638067Y0064938727D01*
X0015604843Y0064820069D01*
X0015586254Y0064760740D01*
X0015586254Y0064760740D01*
X0015566906Y0064701642D01*
X0015524585Y0064585753D01*
X0015477913Y0064472633D01*
X0015426890Y0064362281D01*
X0015399566Y0064308259D01*
X0015399566Y0064308259D01*
X0015372307Y0064255720D01*
X0015314165Y0064155256D01*
X0015251672Y0064060330D01*
X0015184828Y0063970941D01*
X0015149594Y0063928554D01*
X0015149594Y0063928554D01*
X0015114491Y0063887354D01*
X0015041318Y0063812204D01*
X0014964586Y0063745756D01*
X0014884294Y0063688009D01*
X0014842665Y0063662761D01*
X0014842665Y0063662761D01*
X0014801234Y0063640018D01*
X0014715405Y0063604421D01*
X0014626016Y0063580689D01*
X0014533067Y0063568823D01*
X0014485110Y0063567835D01*
X0014485111Y0063567835D01*
X0014595858Y0063624793D02*
X0014595858Y0063624793D01*
X0014619532Y0063625131D01*
X0014666303Y0063629185D01*
X0014712382Y0063637294D01*
X0014757768Y0063649456D01*
X0014802463Y0063665673D01*
X0014846465Y0063685943D01*
X0014889775Y0063710268D01*
X0014932393Y0063738647D01*
X0014953413Y0063754526D01*
X0014953413Y0063754526D01*
X0014995833Y0063788640D01*
X0015077707Y0063865767D01*
X0015156022Y0063953574D01*
X0015230776Y0064052060D01*
X0015266670Y0064105753D01*
X0015266670Y0064105753D01*
X0015301839Y0064161621D01*
X0015367891Y0064278301D01*
X0015428802Y0064400914D01*
X0015484572Y0064529460D01*
X0015510314Y0064596205D01*
X0015510314Y0064596205D01*
X0015535924Y0064664334D01*
X0015582201Y0064801582D01*
X0015622544Y0064940015D01*
X0015656955Y0065079636D01*
X0015671688Y0065149941D01*
X0015671688Y0065149941D01*
X0015685335Y0065220015D01*
X0015706694Y0065356867D01*
X0015720934Y0065489764D01*
X0015728054Y0065618705D01*
X0015728647Y0065681528D01*
X0015728647Y0065681528D01*
X0015728251Y0065742769D01*
X0015723505Y0065860635D01*
X0015714012Y0065972965D01*
X0015699772Y0066079757D01*
X0015690675Y0066130845D01*
X0015690675Y0066130845D01*
X0015681314Y0066180616D01*
X0015656001Y0066271587D01*
X0015622777Y0066352274D01*
X0015581642Y0066422678D01*
X0015557778Y0066453594D01*
X0015557778Y0066453594D01*
X0015545698Y0066468311D01*
X0015519395Y0066494614D01*
X0015490522Y0066517159D01*
X0015459078Y0066535946D01*
X0015425063Y0066550976D01*
X0015388477Y0066562249D01*
X0015349320Y0066569764D01*
X0015307592Y0066573521D01*
X0015285657Y0066573834D01*
X0015285657Y0066573834D01*
X0015265098Y0066573447D01*
X0015224062Y0066568800D01*
X0015183125Y0066559505D01*
X0015142287Y0066545563D01*
X0015101547Y0066526973D01*
X0015060907Y0066503736D01*
X0015000120Y0066460747D01*
X0014959743Y0066425117D01*
X0014959743Y0066425117D01*
X0014919597Y0066387706D01*
X0014841283Y0066302668D01*
X0014765342Y0066205369D01*
X0014691774Y0066095808D01*
X0014655979Y0066035919D01*
X0014655979Y0066035919D01*
X0014620711Y0065975239D01*
X0014553472Y0065848275D01*
X0014490188Y0065714587D01*
X0014430859Y0065574175D01*
X0014402843Y0065501168D01*
X0014402843Y0065501168D01*
X0014375650Y0065428358D01*
X0014326209Y0065282409D01*
X0014282701Y0065136065D01*
X0014245127Y0064989325D01*
X0014228811Y0064915790D01*
X0014228811Y0064915790D01*
X0014213649Y0064842716D01*
X0014189916Y0064701514D01*
X0014174094Y0064566244D01*
X0014166183Y0064436907D01*
X0014165524Y0064374710D01*
X0014165524Y0064374710D01*
X0014165829Y0064326984D01*
X0014169487Y0064236804D01*
X0014176804Y0064152952D01*
X0014187780Y0064075429D01*
X0014202415Y0064004234D01*
X0014220708Y0063939368D01*
X0014242659Y0063880830D01*
X0014268270Y0063828621D01*
X0014282599Y0063805153D01*
X0014282599Y0063805153D01*
X0014297819Y0063783078D01*
X0014330153Y0063743624D01*
X0014364761Y0063709807D01*
X0014401644Y0063681625D01*
X0014440801Y0063659080D01*
X0014482233Y0063642172D01*
X0014525938Y0063630899D01*
X0014571918Y0063625263D01*
X0014595856Y0063624793D01*
X0014595858Y0063624793D01*
X0015861541Y0063567835D02*
X0015861541Y0063567835D01*
X0015834159Y0063568148D01*
X0015782444Y0063571905D01*
X0015734387Y0063579420D01*
X0015689989Y0063590693D01*
X0015649250Y0063605723D01*
X0015612170Y0063624510D01*
X0015578748Y0063647055D01*
X0015548985Y0063673358D01*
X0015535627Y0063688075D01*
X0015535627Y0063688075D01*
X0015522847Y0063703286D01*
X0015500005Y0063735521D01*
X0015480427Y0063769932D01*
X0015464111Y0063806518D01*
X0015445349Y0063865204D01*
X0015432296Y0063951429D01*
X0015431209Y0063998167D01*
X0015431209Y0063998167D01*
X0015431735Y0064049848D01*
X0015434370Y0064093093D01*
X0015434370Y0064093093D01*
X0015438058Y0064135284D01*
X0015443859Y0064169034D01*
X0015516635Y0064570888D01*
X0015659025Y0065039191D01*
X0015741295Y0065545464D01*
X0015981774Y0066542189D01*
X0016516525Y0066542189D01*
X0015791922Y0063820971D01*
X0015791922Y0063820971D01*
X0015786120Y0063796976D01*
X0015779792Y0063746349D01*
X0015779264Y0063719717D01*
X0015779264Y0063719717D01*
X0015779561Y0063706467D01*
X0015783120Y0063681944D01*
X0015790239Y0063659795D01*
X0015800918Y0063640018D01*
X0015807740Y0063631119D01*
X0015807740Y0063631119D01*
X0015816047Y0063622021D01*
X0015836614Y0063607781D01*
X0015861928Y0063598288D01*
X0015891987Y0063593542D01*
X0015908994Y0063593146D01*
X0015908994Y0063593146D01*
X0015954513Y0063594201D01*
X0016041924Y0063606858D01*
X0016124985Y0063632172D01*
X0016203695Y0063670142D01*
X0016241237Y0063694401D01*
X0016241237Y0063694401D01*
X0016279042Y0063721725D01*
X0016353005Y0063788569D01*
X0016424991Y0063870047D01*
X0016494999Y0063966160D01*
X0016529179Y0064020314D01*
X0016529179Y0064020314D01*
X0016563161Y0064077863D01*
X0016630796Y0064206805D01*
X0016698036Y0064352358D01*
X0016764880Y0064514524D01*
X0016798137Y0064602528D01*
X0016807633Y0064599367D01*
X0016807633Y0064599367D01*
X0016773585Y0064509814D01*
X0016705159Y0064344879D01*
X0016636337Y0064196953D01*
X0016567120Y0064066034D01*
X0016532347Y0064007661D01*
X0016532347Y0064007661D01*
X0016498068Y0063951957D01*
X0016426873Y0063853076D01*
X0016352514Y0063769225D01*
X0016274991Y0063700403D01*
X0016234911Y0063672255D01*
X0016234911Y0063672255D01*
X0016194040Y0063647238D01*
X0016107025Y0063608081D01*
X0016013681Y0063581976D01*
X0015914008Y0063568924D01*
X0015861535Y0063567836D01*
X0015861541Y0063567835D01*
X0017060781Y0063631119D02*
X0017782220Y0066529532D01*
X0017288604Y0066529532D01*
X0017288604Y0066542190D01*
X0018256851Y0066542190D01*
X0017560726Y0063631119D01*
X0017060781Y0063631119D01*
X0017807533Y0064725934D02*
X0017807533Y0064725934D01*
X0017835352Y0064841033D01*
X0017900218Y0065083094D01*
X0017937266Y0065210058D01*
X0017937266Y0065210058D01*
X0017976160Y0065337813D01*
X0018063175Y0065589368D01*
X0018111298Y0065713167D01*
X0018111298Y0065713167D01*
X0018136875Y0065774375D01*
X0018190666Y0065891846D01*
X0018247622Y0066003384D01*
X0018307742Y0066108989D01*
X0018339121Y0066159320D01*
X0018339121Y0066159320D01*
X0018371092Y0066209090D01*
X0018438331Y0066300061D01*
X0018509526Y0066380749D01*
X0018584676Y0066451153D01*
X0018623899Y0066482070D01*
X0018623899Y0066482070D01*
X0018663814Y0066510877D01*
X0018726134Y0066545634D01*
X0018768950Y0066564421D01*
X0018812853Y0066579451D01*
X0018857844Y0066590724D01*
X0018903923Y0066598239D01*
X0018951089Y0066601996D01*
X0018975126Y0066602310D01*
X0018975126Y0066602310D01*
X0019001774Y0066601996D01*
X0019052600Y0066598239D01*
X0019100458Y0066590724D01*
X0019145351Y0066579451D01*
X0019187276Y0066564421D01*
X0019226236Y0066545634D01*
X0019262229Y0066523089D01*
X0019295255Y0066496787D01*
X0019310532Y0066482070D01*
X0019310532Y0066482070D01*
X0019325636Y0066467320D01*
X0019352631Y0066436666D01*
X0019375769Y0066404629D01*
X0019395051Y0066371207D01*
X0019410476Y0066336400D01*
X0019422045Y0066300210D01*
X0019429758Y0066262635D01*
X0019433614Y0066223675D01*
X0019433936Y0066203619D01*
X0019433936Y0066203619D01*
X0019433046Y0066166077D01*
X0019422367Y0066095278D01*
X0019401008Y0066029621D01*
X0019368971Y0065969105D01*
X0019348503Y0065940990D01*
X0019348503Y0065940990D01*
X0019338021Y0065927822D01*
X0019315081Y0065904289D01*
X0019289767Y0065884117D01*
X0019262080Y0065867307D01*
X0019232020Y0065853859D01*
X0019199587Y0065843773D01*
X0019146784Y0065834528D01*
X0019108023Y0065833407D01*
X0019108023Y0065833407D01*
X0019069888Y0065834462D01*
X0018999879Y0065847119D01*
X0018937386Y0065872432D01*
X0018882408Y0065910403D01*
X0018858050Y0065934661D01*
X0018858050Y0065934661D01*
X0018835307Y0065960470D01*
X0018799710Y0066017030D01*
X0018775979Y0066079523D01*
X0018764113Y0066147949D01*
X0018763124Y0066184634D01*
X0018763124Y0066184634D01*
X0018764047Y0066216573D01*
X0018775122Y0066275506D01*
X0018797271Y0066328507D01*
X0018830496Y0066375574D01*
X0018851722Y0066396636D01*
X0018851722Y0066396636D01*
X0018874663Y0066417104D01*
X0018928454Y0066449142D01*
X0018991738Y0066470501D01*
X0019064515Y0066481180D01*
X0019104859Y0066482070D01*
X0019104859Y0066482070D01*
X0019136929Y0066481246D01*
X0019197444Y0066471358D01*
X0019253609Y0066451581D01*
X0019305423Y0066421916D01*
X0019329517Y0066402964D01*
X0019329517Y0066402964D01*
X0019353018Y0066382759D01*
X0019389802Y0066338065D01*
X0019414325Y0066288229D01*
X0019426586Y0066233250D01*
X0019427608Y0066203619D01*
X0019421286Y0066203619D01*
X0019421286Y0066203619D01*
X0019420981Y0066222893D01*
X0019417322Y0066260369D01*
X0019410005Y0066296560D01*
X0019399029Y0066331465D01*
X0019384395Y0066365084D01*
X0019366102Y0066397419D01*
X0019332260Y0066443670D01*
X0019304211Y0066472577D01*
X0019304211Y0066472577D01*
X0019289708Y0066486906D01*
X0019258066Y0066512517D01*
X0019223260Y0066534468D01*
X0019185289Y0066552762D01*
X0019144154Y0066567396D01*
X0019099856Y0066578372D01*
X0019052392Y0066585689D01*
X0019001765Y0066589348D01*
X0018975133Y0066589653D01*
X0018975133Y0066589653D01*
X0018951484Y0066589340D01*
X0018905009Y0066585582D01*
X0018859524Y0066578067D01*
X0018815027Y0066566795D01*
X0018771520Y0066551764D01*
X0018729001Y0066532977D01*
X0018666952Y0066498220D01*
X0018627070Y0066469412D01*
X0018627070Y0066469412D01*
X0018588605Y0066438528D01*
X0018514642Y0066368520D01*
X0018444238Y0066288624D01*
X0018377394Y0066198840D01*
X0018345456Y0066149828D01*
X0018345456Y0066149828D01*
X0018314868Y0066099497D01*
X0018256330Y0065993891D01*
X0018200957Y0065882353D01*
X0018148748Y0065764882D01*
X0018123962Y0065703674D01*
X0018123962Y0065703674D01*
X0018075839Y0065581325D01*
X0017988823Y0065331352D01*
X0017949930Y0065203729D01*
X0017949930Y0065203729D01*
X0017912882Y0065078348D01*
X0017848016Y0064839450D01*
X0017820197Y0064725934D01*
X0017807533Y0064725934D01*
X0022114019Y0063567835D02*
X0022114019Y0063567835D01*
X0022086637Y0063568148D01*
X0022034922Y0063571905D01*
X0021986866Y0063579420D01*
X0021942468Y0063590693D01*
X0021901729Y0063605723D01*
X0021864648Y0063624510D01*
X0021831226Y0063647055D01*
X0021801463Y0063673358D01*
X0021788106Y0063688075D01*
X0021788106Y0063688075D01*
X0021775325Y0063703286D01*
X0021752484Y0063735521D01*
X0021732905Y0063769932D01*
X0021716590Y0063806518D01*
X0021697827Y0063865204D01*
X0021684775Y0063951429D01*
X0021683687Y0063998167D01*
X0021683687Y0063998167D01*
X0021683687Y0064070944D01*
X0021683687Y0064070944D01*
X0021687904Y0064118934D01*
X0021696345Y0064169034D01*
X0021769122Y0064570888D01*
X0021927332Y0065102475D01*
X0021974794Y0065479016D01*
X0022750024Y0068364773D01*
X0022196288Y0068364773D01*
X0022196288Y0068377430D01*
X0023259461Y0068377430D01*
X0022044406Y0063824136D01*
X0022044406Y0063824136D01*
X0022038604Y0063800141D01*
X0022032276Y0063749514D01*
X0022031748Y0063722881D01*
X0022031748Y0063722881D01*
X0022032935Y0063697962D01*
X0022047173Y0063652081D01*
X0022060224Y0063631119D01*
X0022060224Y0063631119D01*
X0022067805Y0063621264D01*
X0022087580Y0063605839D01*
X0022112894Y0063595556D01*
X0022143746Y0063590414D01*
X0022161479Y0063589986D01*
X0022161479Y0063589986D01*
X0022206997Y0063591041D01*
X0022294409Y0063603698D01*
X0022377469Y0063629011D01*
X0022456179Y0063666982D01*
X0022493721Y0063691241D01*
X0022493721Y0063691241D01*
X0022531526Y0063718598D01*
X0022605490Y0063785837D01*
X0022677476Y0063868107D01*
X0022747484Y0063965406D01*
X0022781664Y0064020318D01*
X0022781664Y0064020318D01*
X0022815646Y0064077867D01*
X0022883281Y0064206809D01*
X0022950520Y0064352362D01*
X0023017364Y0064514528D01*
X0023050621Y0064602532D01*
X0023060111Y0064599372D01*
X0023060111Y0064599372D01*
X0023026096Y0064509818D01*
X0022958065Y0064344884D01*
X0022890035Y0064196957D01*
X0022822004Y0064066038D01*
X0022787989Y0064007665D01*
X0022787989Y0064007665D01*
X0022753677Y0063951962D01*
X0022682087Y0063853080D01*
X0022606937Y0063769229D01*
X0022528228Y0063700407D01*
X0022487390Y0063672259D01*
X0022487390Y0063672259D01*
X0022446519Y0063647242D01*
X0022359503Y0063608085D01*
X0022266158Y0063581980D01*
X0022166486Y0063568928D01*
X0022114013Y0063567840D01*
X0022114019Y0063567835D01*
X0020740753Y0063567835D02*
X0020740753Y0063567835D01*
X0020688363Y0063568535D01*
X0020589679Y0063576940D01*
X0020498313Y0063593750D01*
X0020414263Y0063618965D01*
X0020337531Y0063652584D01*
X0020268117Y0063694609D01*
X0020206019Y0063745039D01*
X0020151239Y0063803873D01*
X0020126897Y0063836792D01*
X0020126897Y0063836792D01*
X0020103660Y0063871368D01*
X0020062130Y0063946122D01*
X0020026533Y0064027601D01*
X0019996868Y0064115803D01*
X0019973137Y0064210729D01*
X0019955338Y0064312379D01*
X0019943472Y0064420754D01*
X0019937539Y0064535852D01*
X0019937045Y0064596202D01*
X0019937045Y0064596202D01*
X0019937391Y0064641663D01*
X0019941544Y0064732337D01*
X0019949850Y0064822715D01*
X0019962309Y0064912796D01*
X0019978921Y0065002580D01*
X0019999686Y0065092068D01*
X0020024604Y0065181259D01*
X0020053676Y0065270153D01*
X0020069942Y0065314477D01*
X0020069942Y0065314477D01*
X0020104122Y0065403173D01*
X0020182040Y0065573645D01*
X0020271429Y0065735811D01*
X0020372288Y0065889670D01*
X0020427497Y0065963139D01*
X0020427497Y0065963139D01*
X0020484156Y0066034696D01*
X0020602418Y0066165616D01*
X0020726614Y0066281900D01*
X0020823839Y0066359053D01*
X0020890386Y0066406219D01*
X0020924278Y0066428278D01*
X0020924278Y0066428278D01*
X0020958697Y0066449966D01*
X0021027617Y0066488727D01*
X0021096636Y0066521952D01*
X0021165754Y0066549638D01*
X0021234971Y0066571788D01*
X0021304287Y0066588400D01*
X0021373702Y0066599474D01*
X0021443215Y0066605012D01*
X0021478013Y0066605473D01*
X0021478013Y0066605473D01*
X0021505412Y0066605135D01*
X0021557325Y0066601081D01*
X0021605777Y0066592973D01*
X0021650768Y0066580811D01*
X0021692298Y0066564594D01*
X0021730368Y0066544323D01*
X0021764976Y0066519999D01*
X0021796124Y0066491620D01*
X0021810256Y0066475741D01*
X0021810256Y0066475741D01*
X0021837151Y0066442451D01*
X0021883032Y0066367301D01*
X0021919421Y0066281867D01*
X0021946316Y0066186150D01*
X0021955809Y0066134006D01*
X0021955809Y0066134006D01*
X0021964907Y0066081434D01*
X0021979146Y0065972665D01*
X0021988639Y0065859545D01*
X0021993386Y0065742073D01*
X0021993781Y0065681525D01*
X0021993781Y0065681525D01*
X0021993353Y0065629019D01*
X0021988211Y0065521040D01*
X0021977928Y0065409502D01*
X0021962503Y0065294404D01*
X0021952648Y0065235372D01*
X0021952648Y0065235372D01*
X0021942760Y0065176043D01*
X0021919028Y0065057385D01*
X0021890550Y0064938727D01*
X0021857326Y0064820069D01*
X0021838737Y0064760740D01*
X0021838737Y0064760740D01*
X0021819389Y0064701642D01*
X0021777068Y0064585753D01*
X0021730396Y0064472633D01*
X0021679373Y0064362281D01*
X0021652049Y0064308259D01*
X0021652049Y0064308259D01*
X0021624824Y0064255720D01*
X0021567077Y0064155256D01*
X0021505375Y0064060330D01*
X0021439717Y0063970941D01*
X0021405241Y0063928554D01*
X0021405241Y0063928554D01*
X0021370138Y0063887354D01*
X0021296965Y0063812204D01*
X0021220233Y0063745756D01*
X0021139942Y0063688009D01*
X0021098313Y0063662761D01*
X0021098313Y0063662761D01*
X0021056881Y0063640018D01*
X0020971052Y0063604421D01*
X0020881663Y0063580689D01*
X0020788714Y0063568823D01*
X0020740757Y0063567835D01*
X0020740753Y0063567835D01*
X0020848336Y0063624793D02*
X0020848336Y0063624793D01*
X0020872018Y0063625131D01*
X0020918888Y0063629185D01*
X0020965165Y0063637294D01*
X0021010848Y0063649456D01*
X0021055938Y0063665673D01*
X0021100435Y0063685943D01*
X0021166141Y0063723444D01*
X0021209056Y0063754526D01*
X0021209056Y0063754526D01*
X0021251443Y0063788640D01*
X0021332922Y0063865767D01*
X0021410445Y0063953574D01*
X0021484012Y0064052060D01*
X0021519148Y0064105753D01*
X0021519148Y0064105753D01*
X0021554317Y0064161621D01*
X0021620370Y0064278301D01*
X0021681281Y0064400914D01*
X0021737050Y0064529460D01*
X0021762792Y0064596205D01*
X0021762792Y0064596205D01*
X0021788403Y0064664334D01*
X0021834679Y0064801582D01*
X0021875023Y0064940015D01*
X0021909433Y0065079636D01*
X0021924167Y0065149941D01*
X0021924167Y0065149941D01*
X0021937813Y0065220015D01*
X0021959173Y0065356867D01*
X0021973412Y0065489764D01*
X0021980532Y0065618705D01*
X0021981125Y0065681528D01*
X0021981125Y0065681528D01*
X0021980730Y0065742769D01*
X0021975983Y0065860635D01*
X0021966490Y0065972965D01*
X0021952250Y0066079757D01*
X0021943153Y0066130845D01*
X0021943153Y0066130845D01*
X0021933793Y0066180616D01*
X0021908479Y0066271587D01*
X0021875255Y0066352274D01*
X0021834120Y0066422678D01*
X0021810256Y0066453594D01*
X0021810256Y0066453594D01*
X0021798176Y0066468311D01*
X0021771874Y0066494614D01*
X0021743000Y0066517159D01*
X0021711556Y0066535946D01*
X0021677541Y0066550976D01*
X0021640955Y0066562249D01*
X0021601798Y0066569764D01*
X0021560070Y0066573521D01*
X0021538134Y0066573834D01*
X0021538134Y0066573834D01*
X0021517575Y0066573447D01*
X0021476539Y0066568800D01*
X0021435602Y0066559505D01*
X0021394764Y0066545563D01*
X0021354025Y0066526973D01*
X0021313385Y0066503736D01*
X0021252597Y0066460747D01*
X0021212221Y0066425117D01*
X0021212221Y0066425117D01*
X0021172075Y0066387706D01*
X0021093761Y0066302668D01*
X0021017820Y0066205369D01*
X0020944252Y0066095808D01*
X0020908457Y0066035919D01*
X0020908457Y0066035919D01*
X0020873189Y0065974481D01*
X0020805950Y0065846330D01*
X0020742666Y0065711852D01*
X0020683337Y0065571045D01*
X0020655321Y0065498004D01*
X0020655321Y0065498004D01*
X0020628128Y0065425194D01*
X0020578688Y0065279245D01*
X0020535180Y0065132900D01*
X0020497604Y0064986160D01*
X0020481289Y0064912625D01*
X0020481289Y0064912625D01*
X0020466128Y0064839585D01*
X0020442398Y0064698778D01*
X0020426578Y0064564299D01*
X0020418668Y0064436149D01*
X0020418008Y0064374710D01*
X0020418008Y0064374710D01*
X0020418313Y0064327371D01*
X0020421972Y0064237883D01*
X0020429289Y0064154625D01*
X0020440265Y0064077596D01*
X0020454899Y0064006797D01*
X0020473192Y0063942227D01*
X0020495144Y0063883887D01*
X0020520754Y0063831777D01*
X0020535084Y0063808317D01*
X0020535084Y0063808317D01*
X0020549924Y0063785855D01*
X0020581665Y0063745709D01*
X0020615878Y0063711298D01*
X0020652564Y0063682622D01*
X0020691721Y0063659682D01*
X0020733350Y0063642477D01*
X0020777451Y0063631006D01*
X0020824024Y0063625271D01*
X0020848341Y0063624793D01*
X0020848336Y0063624793D01*
X0026667320Y0063567835D02*
X0026667320Y0063567835D01*
X0026577552Y0063569013D01*
X0026448351Y0063578734D01*
X0026365043Y0063589339D01*
X0026284158Y0063603479D01*
X0026205696Y0063621154D01*
X0026129656Y0063642364D01*
X0026056038Y0063667109D01*
X0025984844Y0063695390D01*
X0025916072Y0063727205D01*
X0025849722Y0063762555D01*
X0025785795Y0063801440D01*
X0025724291Y0063843860D01*
X0025665209Y0063889815D01*
X0025608550Y0063939305D01*
X0025554313Y0063992330D01*
X0025528205Y0064020316D01*
X0025528205Y0064020316D01*
X0025502763Y0064048804D01*
X0025454559Y0064107861D01*
X0025409568Y0064169415D01*
X0025367790Y0064233465D01*
X0025329226Y0064300013D01*
X0025293876Y0064369057D01*
X0025261740Y0064440597D01*
X0025232817Y0064514635D01*
X0025207108Y0064591169D01*
X0025184612Y0064670200D01*
X0025156493Y0064793116D01*
X0025130784Y0064966159D01*
X0025117929Y0065149188D01*
X0025116858Y0065244864D01*
X0025116858Y0065244864D01*
X0025117229Y0065309615D01*
X0025121678Y0065437963D01*
X0025130578Y0065564927D01*
X0025143927Y0065690507D01*
X0025161725Y0065814702D01*
X0025183974Y0065937513D01*
X0025210672Y0066058939D01*
X0025241819Y0066178981D01*
X0025259247Y0066238426D01*
X0025259247Y0066238426D01*
X0025277326Y0066297565D01*
X0025316285Y0066413948D01*
X0025358607Y0066528058D01*
X0025404290Y0066639892D01*
X0025453335Y0066749453D01*
X0025505742Y0066856740D01*
X0025561511Y0066961752D01*
X0025620642Y0067064490D01*
X0025651609Y0067114911D01*
X0025651609Y0067114911D01*
X0025683457Y0067164871D01*
X0025749213Y0067262071D01*
X0025817441Y0067356009D01*
X0025888142Y0067446683D01*
X0025961314Y0067534094D01*
X0026036958Y0067618242D01*
X0026115075Y0067699128D01*
X0026195663Y0067776750D01*
X0026236987Y0067814201D01*
X0026236987Y0067814201D01*
X0026278649Y0067851034D01*
X0026363292Y0067921240D01*
X0026449517Y0067987293D01*
X0026537323Y0068049193D01*
X0026626712Y0068106939D01*
X0026717683Y0068160533D01*
X0026810236Y0068209974D01*
X0026904372Y0068255261D01*
X0026952098Y0068276175D01*
X0026952098Y0068276175D01*
X0027000402Y0068296314D01*
X0027097503Y0068332306D01*
X0027195198Y0068363157D01*
X0027293486Y0068388867D01*
X0027392368Y0068409434D01*
X0027491843Y0068424859D01*
X0027591911Y0068435143D01*
X0027692572Y0068440285D01*
X0027743150Y0068440714D01*
X0027743150Y0068440714D01*
X0027799438Y0068440178D01*
X0027909295Y0068433751D01*
X0028015890Y0068420896D01*
X0028119221Y0068401614D01*
X0028219289Y0068375905D01*
X0028316094Y0068343768D01*
X0028409635Y0068305205D01*
X0028499914Y0068260213D01*
X0028543694Y0068235040D01*
X0028543694Y0068235040D01*
X0028587202Y0068209273D01*
X0028670262Y0068153207D01*
X0028748576Y0068091703D01*
X0028822144Y0068024760D01*
X0028890966Y0067952379D01*
X0028955041Y0067874559D01*
X0029014370Y0067791301D01*
X0029068953Y0067702604D01*
X0029094267Y0067655990D01*
X0029094267Y0067655990D01*
X0029118666Y0067608560D01*
X0029162272Y0067510074D01*
X0029199649Y0067407237D01*
X0029230797Y0067300050D01*
X0029255715Y0067188511D01*
X0029274404Y0067072622D01*
X0029286863Y0066952383D01*
X0029293092Y0066827792D01*
X0029293611Y0066763684D01*
X0029293611Y0066763684D01*
X0029293068Y0066682783D01*
X0029286541Y0066522792D01*
X0029273489Y0066364977D01*
X0029253911Y0066209338D01*
X0029227806Y0066055874D01*
X0029195175Y0065904585D01*
X0029156018Y0065755472D01*
X0029110334Y0065608534D01*
X0029084773Y0065535972D01*
X0029084773Y0065535972D01*
X0029058257Y0065464332D01*
X0029001103Y0065324513D01*
X0028939006Y0065188848D01*
X0028871964Y0065057336D01*
X0028799979Y0064929976D01*
X0028723049Y0064806770D01*
X0028641175Y0064687717D01*
X0028554357Y0064572816D01*
X0028508888Y0064517096D01*
X0028508888Y0064517096D01*
X0028463114Y0064462217D01*
X0028368682Y0064357403D01*
X0028270790Y0064258521D01*
X0028169436Y0064165573D01*
X0028064622Y0064078557D01*
X0027956346Y0063997474D01*
X0027844610Y0063922325D01*
X0027729413Y0063853107D01*
X0027670373Y0063820971D01*
X0027670373Y0063820971D01*
X0027610904Y0063789988D01*
X0027490565Y0063734615D01*
X0027368546Y0063687152D01*
X0027244845Y0063647599D01*
X0027119463Y0063615957D01*
X0026992401Y0063592225D01*
X0026863657Y0063576404D01*
X0026733232Y0063568494D01*
X0026667320Y0063567835D01*
X0026667320Y0063567835D01*
X0026667320Y0063580492D02*
X0026667320Y0063580492D01*
X0026705570Y0063580904D01*
X0026780918Y0063585848D01*
X0026854881Y0063595736D01*
X0026927460Y0063610569D01*
X0026998655Y0063630345D01*
X0027068465Y0063655065D01*
X0027136891Y0063684730D01*
X0027203932Y0063719338D01*
X0027236876Y0063738702D01*
X0027236876Y0063738702D01*
X0027269573Y0063759171D01*
X0027333648Y0063803074D01*
X0027426993Y0063875159D01*
X0027545650Y0063984324D01*
X0027657980Y0064107728D01*
X0027711508Y0064175363D01*
X0027711508Y0064175363D01*
X0027764772Y0064245800D01*
X0027866026Y0064394913D01*
X0027960953Y0064553914D01*
X0028049550Y0064722804D01*
X0028091213Y0064811369D01*
X0028091213Y0064811369D01*
X0028132545Y0064901186D01*
X0028209277Y0065085106D01*
X0028278890Y0065274167D01*
X0028341383Y0065468370D01*
X0028369663Y0065567614D01*
X0028369663Y0065567614D01*
X0028397547Y0065668078D01*
X0028447384Y0065869005D01*
X0028490101Y0066069932D01*
X0028525698Y0066270859D01*
X0028540530Y0066371323D01*
X0028540530Y0066371323D01*
X0028554177Y0066472182D01*
X0028575536Y0066669945D01*
X0028589776Y0066862962D01*
X0028596896Y0067051232D01*
X0028597489Y0067143389D01*
X0028597489Y0067143389D01*
X0028597060Y0067192698D01*
X0028591919Y0067293953D01*
X0028581635Y0067398372D01*
X0028566210Y0067505955D01*
X0028556356Y0067561064D01*
X0028556356Y0067561064D01*
X0028545479Y0067616174D01*
X0028517793Y0067723758D01*
X0028482986Y0067828176D01*
X0028441061Y0067929431D01*
X0028417131Y0067978740D01*
X0028417131Y0067978740D01*
X0028391916Y0068027785D01*
X0028334565Y0068117965D01*
X0028268907Y0068198652D01*
X0028194944Y0068269847D01*
X0028154501Y0068301489D01*
X0028154501Y0068301489D01*
X0028133720Y0068316980D01*
X0028090014Y0068344667D01*
X0028043738Y0068368399D01*
X0027994891Y0068388175D01*
X0027943472Y0068403996D01*
X0027889483Y0068415862D01*
X0027832923Y0068423773D01*
X0027773792Y0068427728D01*
X0027743155Y0068428057D01*
X0027743155Y0068428057D01*
X0027706857Y0068427637D01*
X0027635168Y0068422594D01*
X0027564567Y0068412508D01*
X0027495053Y0068397379D01*
X0027426627Y0068377208D01*
X0027359289Y0068351993D01*
X0027293038Y0068321735D01*
X0027227875Y0068286434D01*
X0027195747Y0068266683D01*
X0027195747Y0068266683D01*
X0027163817Y0068246594D01*
X0027101027Y0068203283D01*
X0027009092Y0068131743D01*
X0026891225Y0068022577D01*
X0026778500Y0067898382D01*
X0026724280Y0067830022D01*
X0026724280Y0067830022D01*
X0026670983Y0067760344D01*
X0026569333Y0067612417D01*
X0026473615Y0067454207D01*
X0026383831Y0067285713D01*
X0026341411Y0067197181D01*
X0026341411Y0067197181D01*
X0026299980Y0067107330D01*
X0026222061Y0066923015D01*
X0026150075Y0066733163D01*
X0026084022Y0066537773D01*
X0026053468Y0066437771D01*
X0026053468Y0066437771D01*
X0026024759Y0066338033D01*
X0025972946Y0066137897D01*
X0025927856Y0065936969D01*
X0025889490Y0065735251D01*
X0025873109Y0065634062D01*
X0025873109Y0065634062D01*
X0025858705Y0065533961D01*
X0025836160Y0065337385D01*
X0025821130Y0065145160D01*
X0025813615Y0064957285D01*
X0025812989Y0064865161D01*
X0025812989Y0064865161D01*
X0025813780Y0064784770D01*
X0025823273Y0064626955D01*
X0025842258Y0064472700D01*
X0025870736Y0064322004D01*
X0025888930Y0064248139D01*
X0025888930Y0064248139D01*
X0025898711Y0064211636D01*
X0025921157Y0064141430D01*
X0025947064Y0064074586D01*
X0025976432Y0064011104D01*
X0026009261Y0063950984D01*
X0026045550Y0063894226D01*
X0026085300Y0063840830D01*
X0026128512Y0063790797D01*
X0026151559Y0063767180D01*
X0026151559Y0063767180D01*
X0026175266Y0063744330D01*
X0026226388Y0063703492D01*
X0026281959Y0063668488D01*
X0026341980Y0063639318D01*
X0026406451Y0063615982D01*
X0026475371Y0063598480D01*
X0026548741Y0063586812D01*
X0026626561Y0063580978D01*
X0026667325Y0063580492D01*
X0026667320Y0063580492D01*
X0030075172Y0063567835D02*
X0030075172Y0063567835D01*
X0030037638Y0063568173D01*
X0029966938Y0063572227D01*
X0029901478Y0063580335D01*
X0029841259Y0063592497D01*
X0029786281Y0063608714D01*
X0029736544Y0063628985D01*
X0029692047Y0063653309D01*
X0029652791Y0063681688D01*
X0029635347Y0063697567D01*
X0029635347Y0063697567D01*
X0029618661Y0063714393D01*
X0029588502Y0063750188D01*
X0029562199Y0063788554D01*
X0029539753Y0063829491D01*
X0029521163Y0063872999D01*
X0029506430Y0063919078D01*
X0029495553Y0063967727D01*
X0029488533Y0064018948D01*
X0029486629Y0064045630D01*
X0029486629Y0064045630D01*
X0029484190Y0064100641D01*
X0029486563Y0064214948D01*
X0029497638Y0064334397D01*
X0029517416Y0064458987D01*
X0029530930Y0064523425D01*
X0029983412Y0066529532D01*
X0029540423Y0066529532D01*
X0029540423Y0066542190D01*
X0030524491Y0066542190D01*
X0030068845Y0064596203D01*
X0030068845Y0064596203D01*
X0030041157Y0064472535D01*
X0029993694Y0064238383D01*
X0029973919Y0064127900D01*
X0029973919Y0064127900D01*
X0029966042Y0064074174D01*
X0029958527Y0063975293D01*
X0029960899Y0063886695D01*
X0029973159Y0063808381D01*
X0029983409Y0063773509D01*
X0029983409Y0063773509D01*
X0029989712Y0063756856D01*
X0030006028Y0063727092D01*
X0030026793Y0063701581D01*
X0030052007Y0063680321D01*
X0030081672Y0063663314D01*
X0030115786Y0063650558D01*
X0030154350Y0063642054D01*
X0030197364Y0063637802D01*
X0030220725Y0063637448D01*
X0030220725Y0063637448D01*
X0030240995Y0063637918D01*
X0030282526Y0063643554D01*
X0030325242Y0063654826D01*
X0030369146Y0063671735D01*
X0030414236Y0063694280D01*
X0030460512Y0063722461D01*
X0030532004Y0063774596D01*
X0030581444Y0063817807D01*
X0030581444Y0063817807D01*
X0030631248Y0063864908D01*
X0030730525Y0063971305D01*
X0030829406Y0064092336D01*
X0030927892Y0064228001D01*
X0030976970Y0064301931D01*
X0030976970Y0064301931D01*
X0031026444Y0064378498D01*
X0031121766Y0064537895D01*
X0031212737Y0064704808D01*
X0031299357Y0064879234D01*
X0031340854Y0064969579D01*
X0031340854Y0064969579D01*
X0031381198Y0065061308D01*
X0031453974Y0065244437D01*
X0031517258Y0065427170D01*
X0031571050Y0065609507D01*
X0031593991Y0065700511D01*
X0031606648Y0065700511D01*
X0031606648Y0065700511D01*
X0031592607Y0065641446D01*
X0031558592Y0065518042D01*
X0031517457Y0065388309D01*
X0031469203Y0065252248D01*
X0031442109Y0065181581D01*
X0031442109Y0065181581D01*
X0031413994Y0065110386D01*
X0031353478Y0064967997D01*
X0031287821Y0064825608D01*
X0031217022Y0064683218D01*
X0031179480Y0064612023D01*
X0031179480Y0064612023D01*
X0031141971Y0064541323D01*
X0031063657Y0064404867D01*
X0030981388Y0064274344D01*
X0030895163Y0064149753D01*
X0030850403Y0064089929D01*
X0030850403Y0064089929D01*
X0030805115Y0064032315D01*
X0030712562Y0063926314D01*
X0030617635Y0063831387D01*
X0030520336Y0063747536D01*
X0030470698Y0063710224D01*
X0030470698Y0063710224D01*
X0030446167Y0063692797D01*
X0030397023Y0063661649D01*
X0030347780Y0063634951D01*
X0030298438Y0063612703D01*
X0030248997Y0063594904D01*
X0030199458Y0063581555D01*
X0030149819Y0063572656D01*
X0030100082Y0063568206D01*
X0030075172Y0063567835D01*
X0030075172Y0063567835D01*
X0031695246Y0063567835D02*
X0031695246Y0063567835D01*
X0031664708Y0063568164D01*
X0031606763Y0063572120D01*
X0031552576Y0063580030D01*
X0031502147Y0063591896D01*
X0031455475Y0063607717D01*
X0031412560Y0063627493D01*
X0031373403Y0063651225D01*
X0031338004Y0063678912D01*
X0031321869Y0063694403D01*
X0031321869Y0063694403D01*
X0031291546Y0063726210D01*
X0031244082Y0063791472D01*
X0031219362Y0063841778D01*
X0031207496Y0063875892D01*
X0031199586Y0063910500D01*
X0031195630Y0063945603D01*
X0031195301Y0063963361D01*
X0031195301Y0063963361D01*
X0031196354Y0064004497D01*
X0031201623Y0064058287D01*
X0031201623Y0064058287D01*
X0031211640Y0064116825D01*
X0031223770Y0064169034D01*
X0031796491Y0066542189D01*
X0032331242Y0066542189D01*
X0031609803Y0063827300D01*
X0031609803Y0063827300D01*
X0031604007Y0063798296D01*
X0031600314Y0063767180D01*
X0031600314Y0063767180D01*
X0031597680Y0063739231D01*
X0031597153Y0063713390D01*
X0031597153Y0063713390D01*
X0031597458Y0063698673D01*
X0031601116Y0063672370D01*
X0031608434Y0063649825D01*
X0031619409Y0063631038D01*
X0031634044Y0063616008D01*
X0031652337Y0063604735D01*
X0031674289Y0063597220D01*
X0031699899Y0063593463D01*
X0031714228Y0063593150D01*
X0031714228Y0063593150D01*
X0031760538Y0063594204D01*
X0031849531Y0063606861D01*
X0031934174Y0063632175D01*
X0032014466Y0063670146D01*
X0032052799Y0063694405D01*
X0032052799Y0063694405D01*
X0032091362Y0063721729D01*
X0032166512Y0063788573D01*
X0032239289Y0063870051D01*
X0032309692Y0063966163D01*
X0032343905Y0064020317D01*
X0032343905Y0064020317D01*
X0032377888Y0064077867D01*
X0032445523Y0064206808D01*
X0032512762Y0064352362D01*
X0032579606Y0064514527D01*
X0032612863Y0064602532D01*
X0032622352Y0064599371D01*
X0032622352Y0064599371D01*
X0032588305Y0064509817D01*
X0032519879Y0064344883D01*
X0032451057Y0064196956D01*
X0032381840Y0064066037D01*
X0032347067Y0064007664D01*
X0032347067Y0064007664D01*
X0032312063Y0063951961D01*
X0032240077Y0063853079D01*
X0032165718Y0063769228D01*
X0032088986Y0063700407D01*
X0032049631Y0063672258D01*
X0032049631Y0063672258D01*
X0032009683Y0063647241D01*
X0031925832Y0063608084D01*
X0031837234Y0063581980D01*
X0031743890Y0063568927D01*
X0031695240Y0063567840D01*
X0031695246Y0063567835D01*
X0033729834Y0063567835D02*
X0033729834Y0063567835D01*
X0033681547Y0063568494D01*
X0033592554Y0063576404D01*
X0033512658Y0063592224D01*
X0033441859Y0063615954D01*
X0033410250Y0063631115D01*
X0033410250Y0063631115D01*
X0033380058Y0063646541D01*
X0033326266Y0063681347D01*
X0033280385Y0063720899D01*
X0033242415Y0063765198D01*
X0033226726Y0063789325D01*
X0033226726Y0063789325D01*
X0033213080Y0063814705D01*
X0033191720Y0063866123D01*
X0033177480Y0063918333D01*
X0033170361Y0063971333D01*
X0033169767Y0063998163D01*
X0033169767Y0063998163D01*
X0033170426Y0064025192D01*
X0033178335Y0064096386D01*
X0033185586Y0064140552D01*
X0033185586Y0064140552D01*
X0033193890Y0064186565D01*
X0033214457Y0064279910D01*
X0033226719Y0064327241D01*
X0033998785Y0067175027D01*
X0034505058Y0067175027D01*
X0033593767Y0063862102D01*
X0033593767Y0063862102D01*
X0033584272Y0063828350D01*
X0033574781Y0063786162D01*
X0033574781Y0063786162D01*
X0033570431Y0063765463D01*
X0033565687Y0063722746D01*
X0033565291Y0063700728D01*
X0033565291Y0063700728D01*
X0033565802Y0063686786D01*
X0033571933Y0063661867D01*
X0033584194Y0063640509D01*
X0033602586Y0063622711D01*
X0033627109Y0063608472D01*
X0033657762Y0063597793D01*
X0033694546Y0063590673D01*
X0033737460Y0063587113D01*
X0033761472Y0063586817D01*
X0033761472Y0063586817D01*
X0033803991Y0063587542D01*
X0033887051Y0063596243D01*
X0033967738Y0063613645D01*
X0034046053Y0063639749D01*
X0034084221Y0063656426D01*
X0034084221Y0063656426D01*
X0034122752Y0063675279D01*
X0034197506Y0063719578D01*
X0034269492Y0063771788D01*
X0034338709Y0063831908D01*
X0034372164Y0063865264D01*
X0034372164Y0063865264D01*
X0034405981Y0063900696D01*
X0034471639Y0063977824D01*
X0034534923Y0064062467D01*
X0034595834Y0064154624D01*
X0034625300Y0064203834D01*
X0034625300Y0064203834D01*
X0034655163Y0064255055D01*
X0034712909Y0064363429D01*
X0034768283Y0064478922D01*
X0034821283Y0064601535D01*
X0034846795Y0064665808D01*
X0034856291Y0064662647D01*
X0034856291Y0064662647D01*
X0034821946Y0064576686D01*
X0034749961Y0064415311D01*
X0034674019Y0064266593D01*
X0034594123Y0064130533D01*
X0034552527Y0064067776D01*
X0034552527Y0064067776D01*
X0034510964Y0064008051D01*
X0034423553Y0063900469D01*
X0034331000Y0063807124D01*
X0034233305Y0063728019D01*
X0034182315Y0063694400D01*
X0034182315Y0063694400D01*
X0034156878Y0063678908D01*
X0034104767Y0063651221D01*
X0034051173Y0063627490D01*
X0033996096Y0063607713D01*
X0033939536Y0063591892D01*
X0033881493Y0063580027D01*
X0033821966Y0063572116D01*
X0033760956Y0063568161D01*
X0033729833Y0063567831D01*
X0033729834Y0063567835D01*
X0033191919Y0066529532D02*
X0033191919Y0066542190D01*
X0034900591Y0066542190D01*
X0034900591Y0066529532D01*
X0033191919Y0066529532D01*
X0035568233Y0063567835D02*
X0035568233Y0063567835D01*
X0035507718Y0063568988D01*
X0035424954Y0063578506D01*
X0035373932Y0063588888D01*
X0035326469Y0063602732D01*
X0035282565Y0063620036D01*
X0035242222Y0063640801D01*
X0035205438Y0063665027D01*
X0035188529Y0063678582D01*
X0035188529Y0063678582D01*
X0035172650Y0063692598D01*
X0035144271Y0063722362D01*
X0035119946Y0063754201D01*
X0035099676Y0063788118D01*
X0035083459Y0063824110D01*
X0035071296Y0063862180D01*
X0035063188Y0063902326D01*
X0035059134Y0063944548D01*
X0035058796Y0063966525D01*
X0035058796Y0063966525D01*
X0035059850Y0064027174D01*
X0035065118Y0064077272D01*
X0035065118Y0064077272D01*
X0035075136Y0064126319D01*
X0035087265Y0064169034D01*
X0036220051Y0068364773D01*
X0035593548Y0068364773D01*
X0035593548Y0068377430D01*
X0036723170Y0068377430D01*
X0035498621Y0063820971D01*
X0035498621Y0063820971D01*
X0035492825Y0063795129D01*
X0035489132Y0063767180D01*
X0035489132Y0063767180D01*
X0035486498Y0063740286D01*
X0035485971Y0063719718D01*
X0035485971Y0063719718D01*
X0035486309Y0063704227D01*
X0035490363Y0063676540D01*
X0035498471Y0063652808D01*
X0035510634Y0063633032D01*
X0035526850Y0063617211D01*
X0035547121Y0063605345D01*
X0035571446Y0063597435D01*
X0035599825Y0063593479D01*
X0035615703Y0063593150D01*
X0035615703Y0063593150D01*
X0035661222Y0063594204D01*
X0035748633Y0063606861D01*
X0035831693Y0063632175D01*
X0035910403Y0063670146D01*
X0035947945Y0063694405D01*
X0035947945Y0063694405D01*
X0035985750Y0063721729D01*
X0036059714Y0063788573D01*
X0036131700Y0063870051D01*
X0036201708Y0063966163D01*
X0036235888Y0064020317D01*
X0036235888Y0064020317D01*
X0036269870Y0064077867D01*
X0036337505Y0064206808D01*
X0036404745Y0064352362D01*
X0036471588Y0064514527D01*
X0036504845Y0064602532D01*
X0036514335Y0064599371D01*
X0036514335Y0064599371D01*
X0036480287Y0064509817D01*
X0036411861Y0064344883D01*
X0036343039Y0064196956D01*
X0036273823Y0064066037D01*
X0036239049Y0064007664D01*
X0036239049Y0064007664D01*
X0036204771Y0063951961D01*
X0036133576Y0063853079D01*
X0036059217Y0063769228D01*
X0035981694Y0063700407D01*
X0035941614Y0063672258D01*
X0035941614Y0063672258D01*
X0035900743Y0063647241D01*
X0035813727Y0063608084D01*
X0035720383Y0063581980D01*
X0035620710Y0063568927D01*
X0035568237Y0063567840D01*
X0035568233Y0063567835D01*
X0037422459Y0063567835D02*
X0037422459Y0063567835D01*
X0037362076Y0063568955D01*
X0037280400Y0063578201D01*
X0037230564Y0063588287D01*
X0037184683Y0063601735D01*
X0037142757Y0063618544D01*
X0037104787Y0063638716D01*
X0037070771Y0063662250D01*
X0037055412Y0063675418D01*
X0037055412Y0063675418D01*
X0037040695Y0063689442D01*
X0037014392Y0063719305D01*
X0036991847Y0063751342D01*
X0036973060Y0063785555D01*
X0036958030Y0063821944D01*
X0036946758Y0063860507D01*
X0036939243Y0063901246D01*
X0036935485Y0063944161D01*
X0036935172Y0063966525D01*
X0036935172Y0063966525D01*
X0036936226Y0064014514D01*
X0036941494Y0064064615D01*
X0036941494Y0064064615D01*
X0036951511Y0064117879D01*
X0036963641Y0064169034D01*
X0037640781Y0066529532D01*
X0037147165Y0066529532D01*
X0037147165Y0066542190D01*
X0038137562Y0066542190D01*
X0037371824Y0063827301D01*
X0037371824Y0063827301D01*
X0037366028Y0063801459D01*
X0037362334Y0063773510D01*
X0037362334Y0063773510D01*
X0037359700Y0063748723D01*
X0037359173Y0063726048D01*
X0037359173Y0063726048D01*
X0037360228Y0063699680D01*
X0037372886Y0063652216D01*
X0037384488Y0063631121D01*
X0037384488Y0063631121D01*
X0037392036Y0063622024D01*
X0037411416Y0063607784D01*
X0037435939Y0063598291D01*
X0037465604Y0063593544D01*
X0037482579Y0063593149D01*
X0037482579Y0063593149D01*
X0037529613Y0063594204D01*
X0037619398Y0063606860D01*
X0037704040Y0063632174D01*
X0037783541Y0063670145D01*
X0037821149Y0063694404D01*
X0037821149Y0063694404D01*
X0037858922Y0063720970D01*
X0037932489Y0063786627D01*
X0038003684Y0063867315D01*
X0038072506Y0063963032D01*
X0038105928Y0064017153D01*
X0038105928Y0064017153D01*
X0038139943Y0064074735D01*
X0038207973Y0064204072D01*
X0038276003Y0064350416D01*
X0038344034Y0064513768D01*
X0038378049Y0064602531D01*
X0038387539Y0064599370D01*
X0038387539Y0064599370D01*
X0038353523Y0064509817D01*
X0038285493Y0064344882D01*
X0038217462Y0064196956D01*
X0038149432Y0064066036D01*
X0038115417Y0064007663D01*
X0038115417Y0064007663D01*
X0038081105Y0063951960D01*
X0038009515Y0063853079D01*
X0037934365Y0063769227D01*
X0037855655Y0063700406D01*
X0037814817Y0063672258D01*
X0037814817Y0063672258D01*
X0037794085Y0063659477D01*
X0037750972Y0063636636D01*
X0037682843Y0063608084D01*
X0037584753Y0063581979D01*
X0037478752Y0063568927D01*
X0037422455Y0063567839D01*
X0037422459Y0063567835D01*
X0038197690Y0067646498D02*
X0038197690Y0067646498D01*
X0038171784Y0067647025D01*
X0038121947Y0067653354D01*
X0038074484Y0067666011D01*
X0038029394Y0067684997D01*
X0038007838Y0067697128D01*
X0038007838Y0067697128D01*
X0037986842Y0067710905D01*
X0037948476Y0067741756D01*
X0037914461Y0067776562D01*
X0037884796Y0067815324D01*
X0037871777Y0067836353D01*
X0037871777Y0067836353D01*
X0037859647Y0067858667D01*
X0037840661Y0067904944D01*
X0037828003Y0067953198D01*
X0037821674Y0068003430D01*
X0037821147Y0068029370D01*
X0037821147Y0068029370D01*
X0037821674Y0068055277D01*
X0037828003Y0068105113D01*
X0037840661Y0068152576D01*
X0037859647Y0068197666D01*
X0037871777Y0068219222D01*
X0037871777Y0068219222D01*
X0037884797Y0068240976D01*
X0037914462Y0068280529D01*
X0037948477Y0068315335D01*
X0037986843Y0068345395D01*
X0038007838Y0068358447D01*
X0038007838Y0068358447D01*
X0038029394Y0068370577D01*
X0038074484Y0068389563D01*
X0038121947Y0068402221D01*
X0038171784Y0068408549D01*
X0038197690Y0068409077D01*
X0038197690Y0068409077D01*
X0038223597Y0068408549D01*
X0038273434Y0068402221D01*
X0038320897Y0068389563D01*
X0038365987Y0068370577D01*
X0038387543Y0068358447D01*
X0038387543Y0068358447D01*
X0038409297Y0068345394D01*
X0038448849Y0068315333D01*
X0038483655Y0068280527D01*
X0038513715Y0068240975D01*
X0038526768Y0068219222D01*
X0038526768Y0068219222D01*
X0038539655Y0068197666D01*
X0038559826Y0068152576D01*
X0038573274Y0068105113D01*
X0038579998Y0068055277D01*
X0038580558Y0068029370D01*
X0038580558Y0068029370D01*
X0038579998Y0068003430D01*
X0038573274Y0067953198D01*
X0038559826Y0067904944D01*
X0038539655Y0067858667D01*
X0038526768Y0067836353D01*
X0038526768Y0067836353D01*
X0038513715Y0067815324D01*
X0038483654Y0067776562D01*
X0038448848Y0067741756D01*
X0038409296Y0067710905D01*
X0038387543Y0067697128D01*
X0038387543Y0067697128D01*
X0038365987Y0067684997D01*
X0038320897Y0067666011D01*
X0038273434Y0067653354D01*
X0038223597Y0067647025D01*
X0038197690Y0067646498D01*
X0038197690Y0067646498D01*
X0040928404Y0063567835D02*
X0040928404Y0063567835D01*
X0040867955Y0063568856D01*
X0040759581Y0063581118D01*
X0040688633Y0063598743D01*
X0040645719Y0063614070D01*
X0040606562Y0063632462D01*
X0040571162Y0063653919D01*
X0040555028Y0063665925D01*
X0040555028Y0063665925D01*
X0040539924Y0063678458D01*
X0040512929Y0063706244D01*
X0040489791Y0063737293D01*
X0040470509Y0063771604D01*
X0040455084Y0063809179D01*
X0040443515Y0063850017D01*
X0040435802Y0063894119D01*
X0040431945Y0063941483D01*
X0040431624Y0063966525D01*
X0040431624Y0063966525D01*
X0040432151Y0064000541D01*
X0040438480Y0064060661D01*
X0040444282Y0064086764D01*
X0040444282Y0064086764D01*
X0040456939Y0064138446D01*
X0040469597Y0064181691D01*
X0040884107Y0065580270D01*
X0040884107Y0065580270D01*
X0040919046Y0065702356D01*
X0040974419Y0065933343D01*
X0040994855Y0066042244D01*
X0040994855Y0066042244D01*
X0041003458Y0066095970D01*
X0041011765Y0066194852D01*
X0041009393Y0066283449D01*
X0040996341Y0066361764D01*
X0040985365Y0066396636D01*
X0040985365Y0066396636D01*
X0040979078Y0066413289D01*
X0040962961Y0066443052D01*
X0040942591Y0066468564D01*
X0040917970Y0066489823D01*
X0040889096Y0066506831D01*
X0040855971Y0066519587D01*
X0040818594Y0066528091D01*
X0040776964Y0066532343D01*
X0040754378Y0066532697D01*
X0040754378Y0066532697D01*
X0040733720Y0066532219D01*
X0040691498Y0066526484D01*
X0040648188Y0066515013D01*
X0040603790Y0066497808D01*
X0040558304Y0066474868D01*
X0040511731Y0066446192D01*
X0040439968Y0066393142D01*
X0040390494Y0066349172D01*
X0040390494Y0066349172D01*
X0040340658Y0066302797D01*
X0040240986Y0066197192D01*
X0040141313Y0066076161D01*
X0040041641Y0065939704D01*
X0039991804Y0065865049D01*
X0039991804Y0065865049D01*
X0039943089Y0065789240D01*
X0039848953Y0065631030D01*
X0039758773Y0065464909D01*
X0039672549Y0065290877D01*
X0039631084Y0065200566D01*
X0039631084Y0065200566D01*
X0039591466Y0065109595D01*
X0039519480Y0064927653D01*
X0039456196Y0064745711D01*
X0039401613Y0064563769D01*
X0039377948Y0064472798D01*
X0039371626Y0064472798D01*
X0039371626Y0064472798D01*
X0039385634Y0064531830D01*
X0039419254Y0064654839D01*
X0039459597Y0064783780D01*
X0039506665Y0064918654D01*
X0039533001Y0064988563D01*
X0039533001Y0064988563D01*
X0039560325Y0065059725D01*
X0039619258Y0065201719D01*
X0039683333Y0065343317D01*
X0039752550Y0065484520D01*
X0039789301Y0065554956D01*
X0039789301Y0065554956D01*
X0039827568Y0065625657D01*
X0039907069Y0065762113D01*
X0039990129Y0065892637D01*
X0040076750Y0066017228D01*
X0040121543Y0066077051D01*
X0040121543Y0066077051D01*
X0040166798Y0066135391D01*
X0040258955Y0066242183D01*
X0040353091Y0066337109D01*
X0040449203Y0066420169D01*
X0040498084Y0066456755D01*
X0040498084Y0066456755D01*
X0040522623Y0066474571D01*
X0040571866Y0066506411D01*
X0040621306Y0066533702D01*
X0040670945Y0066556445D01*
X0040720781Y0066574639D01*
X0040770815Y0066588285D01*
X0040821047Y0066597382D01*
X0040871476Y0066601930D01*
X0040896773Y0066602310D01*
X0040896773Y0066602310D01*
X0040930822Y0066601963D01*
X0040995292Y0066597810D01*
X0041055412Y0066589504D01*
X0041111182Y0066577045D01*
X0041162600Y0066560433D01*
X0041209668Y0066539668D01*
X0041252384Y0066514749D01*
X0041290751Y0066485678D01*
X0041308121Y0066469412D01*
X0041308121Y0066469412D01*
X0041325219Y0066452973D01*
X0041356367Y0066417870D01*
X0041383856Y0066380098D01*
X0041407686Y0066339655D01*
X0041427858Y0066296543D01*
X0041444371Y0066250761D01*
X0041457226Y0066202309D01*
X0041466422Y0066151187D01*
X0041469495Y0066124514D01*
X0041469495Y0066124514D01*
X0041474043Y0066070294D01*
X0041473251Y0065957569D01*
X0041460594Y0065839702D01*
X0041436071Y0065716694D01*
X0041418865Y0065653047D01*
X0040899935Y0063830463D01*
X0040899935Y0063830463D01*
X0040890972Y0063801460D01*
X0040884117Y0063770344D01*
X0040884117Y0063770344D01*
X0040881483Y0063742395D01*
X0040880956Y0063716553D01*
X0040880956Y0063716553D01*
X0040882011Y0063691898D01*
X0040894668Y0063649181D01*
X0040906271Y0063631119D01*
X0040906271Y0063631119D01*
X0040913061Y0063622781D01*
X0040931255Y0063609729D01*
X0040954987Y0063601028D01*
X0040984256Y0063596677D01*
X0041001197Y0063596315D01*
X0041001197Y0063596315D01*
X0041036588Y0063596925D01*
X0041105311Y0063604242D01*
X0041171562Y0063618876D01*
X0041235340Y0063640828D01*
X0041296647Y0063670097D01*
X0041355481Y0063706683D01*
X0041411843Y0063750586D01*
X0041465734Y0063801807D01*
X0041491649Y0063830466D01*
X0041491649Y0063830466D01*
X0041517737Y0063860526D01*
X0041569749Y0063928556D01*
X0041621563Y0064006079D01*
X0041673179Y0064093095D01*
X0041724597Y0064189603D01*
X0041775818Y0064295604D01*
X0041826841Y0064411098D01*
X0041877666Y0064536084D01*
X0041902996Y0064602532D01*
X0041912486Y0064599372D01*
X0041912486Y0064599372D01*
X0041878437Y0064509818D01*
X0041810011Y0064344884D01*
X0041741190Y0064196957D01*
X0041671973Y0064066038D01*
X0041637199Y0064007665D01*
X0041637199Y0064007665D01*
X0041602822Y0063951962D01*
X0041530441Y0063853080D01*
X0041453709Y0063769229D01*
X0041372626Y0063700407D01*
X0041330271Y0063672259D01*
X0041330271Y0063672259D01*
X0041309135Y0063659479D01*
X0041265133Y0063636637D01*
X0041219055Y0063617058D01*
X0041170899Y0063600743D01*
X0041095033Y0063581980D01*
X0040986263Y0063568928D01*
X0040928417Y0063567840D01*
X0040928404Y0063567835D01*
X0038656504Y0063631115D02*
X0039349465Y0066529529D01*
X0038893819Y0066529529D01*
X0038893819Y0066542186D01*
X0039874723Y0066542186D01*
X0039178598Y0063631116D01*
X0038656504Y0063631115D01*
X0043260420Y0063567835D02*
X0043260420Y0063567835D01*
X0043222697Y0063568164D01*
X0043149723Y0063572120D01*
X0043079715Y0063580030D01*
X0043012673Y0063591896D01*
X0042948598Y0063607717D01*
X0042887489Y0063627493D01*
X0042829347Y0063651225D01*
X0042774171Y0063678912D01*
X0042747819Y0063694403D01*
X0042747819Y0063694403D01*
X0042721978Y0063710875D01*
X0042672933Y0063746374D01*
X0042627052Y0063784937D01*
X0042584335Y0063826566D01*
X0042544782Y0063871261D01*
X0042508394Y0063919021D01*
X0042475170Y0063969846D01*
X0042445110Y0064023736D01*
X0042431398Y0064051958D01*
X0042431398Y0064051958D01*
X0042418231Y0064080626D01*
X0042394697Y0064139856D01*
X0042374525Y0064201360D01*
X0042357715Y0064265139D01*
X0042338384Y0064364786D01*
X0042324936Y0064505989D01*
X0042323815Y0064580381D01*
X0042323815Y0064580381D01*
X0042324161Y0064625850D01*
X0042328314Y0064716623D01*
X0042336620Y0064807199D01*
X0042349080Y0064897576D01*
X0042365692Y0064987756D01*
X0042386457Y0065077738D01*
X0042411375Y0065167523D01*
X0042440446Y0065257109D01*
X0042456712Y0065301820D01*
X0042456712Y0065301820D01*
X0042473604Y0065346737D01*
X0042510190Y0065434840D01*
X0042550138Y0065520867D01*
X0042593448Y0065604818D01*
X0042640120Y0065686691D01*
X0042690154Y0065766489D01*
X0042743550Y0065844210D01*
X0042800308Y0065919854D01*
X0042830088Y0065956811D01*
X0042830088Y0065956811D01*
X0042860362Y0065993290D01*
X0042923053Y0066063199D01*
X0042988315Y0066129450D01*
X0043056148Y0066192042D01*
X0043126551Y0066250975D01*
X0043199526Y0066306250D01*
X0043275071Y0066357866D01*
X0043353188Y0066405824D01*
X0043393317Y0066428278D01*
X0043393317Y0066428278D01*
X0043434196Y0066449966D01*
X0043517356Y0066488727D01*
X0043602196Y0066521952D01*
X0043688717Y0066549638D01*
X0043776920Y0066571788D01*
X0043866803Y0066588400D01*
X0043958367Y0066599474D01*
X0044051612Y0066605012D01*
X0044098935Y0066605473D01*
X0044098935Y0066605473D01*
X0044141248Y0066605028D01*
X0044221837Y0066599689D01*
X0044297580Y0066589009D01*
X0044368478Y0066572991D01*
X0044434531Y0066551632D01*
X0044495738Y0066524934D01*
X0044552101Y0066492897D01*
X0044603618Y0066455520D01*
X0044627358Y0066434606D01*
X0044627358Y0066434606D01*
X0044650595Y0066413429D01*
X0044692125Y0066368932D01*
X0044727722Y0066321865D01*
X0044757387Y0066272226D01*
X0044781118Y0066220017D01*
X0044798917Y0066165236D01*
X0044810783Y0066107885D01*
X0044816716Y0066047963D01*
X0044817210Y0066016931D01*
X0044817210Y0066016931D01*
X0044816749Y0065984663D01*
X0044811211Y0065921774D01*
X0044800136Y0065860863D01*
X0044783524Y0065801930D01*
X0044761375Y0065744974D01*
X0044733688Y0065689996D01*
X0044700464Y0065636995D01*
X0044661703Y0065585973D01*
X0044640015Y0065561285D01*
X0044640015Y0065561285D01*
X0044617552Y0065536919D01*
X0044569496Y0065489752D01*
X0044517682Y0065444465D01*
X0044462111Y0065401056D01*
X0044372178Y0065339230D01*
X0044238490Y0065263685D01*
X0044165384Y0065229044D01*
X0044165384Y0065229044D01*
X0044091157Y0065196413D01*
X0043936111Y0065137084D01*
X0043773154Y0065084874D01*
X0043602286Y0065039784D01*
X0043513557Y0065020206D01*
X0043513557Y0065020206D01*
X0043424893Y0065001748D01*
X0043246907Y0064970106D01*
X0043068129Y0064944792D01*
X0042888560Y0064925807D01*
X0042798446Y0064918951D01*
X0042798446Y0064931609D01*
X0042798446Y0064931609D01*
X0042869937Y0064936685D01*
X0043007976Y0064950133D01*
X0043140082Y0064967535D01*
X0043266254Y0064988892D01*
X0043326869Y0065001218D01*
X0043326869Y0065001218D01*
X0043387186Y0065015061D01*
X0043501889Y0065046703D01*
X0043609472Y0065083092D01*
X0043709935Y0065124227D01*
X0043757201Y0065146772D01*
X0043757201Y0065146772D01*
X0043804038Y0065170174D01*
X0043891449Y0065221592D01*
X0043971345Y0065278548D01*
X0044043726Y0065341041D01*
X0044076785Y0065374595D01*
X0044076785Y0065374595D01*
X0044109351Y0065409961D01*
X0044167889Y0065486298D01*
X0044218516Y0065569358D01*
X0044261233Y0065659143D01*
X0044279295Y0065706836D01*
X0044279295Y0065706836D01*
X0044295972Y0065755717D01*
X0044322075Y0065859740D01*
X0044339478Y0065971279D01*
X0044348179Y0066090332D01*
X0044348904Y0066152990D01*
X0044348904Y0066152990D01*
X0044348245Y0066193103D01*
X0044340335Y0066271021D01*
X0044324515Y0066346171D01*
X0044300784Y0066418553D01*
X0044285624Y0066453590D01*
X0044285624Y0066453590D01*
X0044277820Y0066470630D01*
X0044259329Y0066501086D01*
X0044237378Y0066527190D01*
X0044211965Y0066548944D01*
X0044183092Y0066566347D01*
X0044150758Y0066579399D01*
X0044114962Y0066588101D01*
X0044075706Y0066592452D01*
X0044054636Y0066592814D01*
X0044054636Y0066592814D01*
X0044009711Y0066591694D01*
X0043921509Y0066578246D01*
X0043835284Y0066551350D01*
X0043751037Y0066511006D01*
X0043709738Y0066485231D01*
X0043709738Y0066485231D01*
X0043669592Y0066457511D01*
X0043591278Y0066393832D01*
X0043515337Y0066320264D01*
X0043441769Y0066236808D01*
X0043405974Y0066190960D01*
X0043405974Y0066190960D01*
X0043371431Y0066144519D01*
X0043304983Y0066046033D01*
X0043241699Y0065940823D01*
X0043181579Y0065828889D01*
X0043152837Y0065770120D01*
X0043152837Y0065770120D01*
X0043124689Y0065711319D01*
X0043071688Y0065591079D01*
X0043022643Y0065467675D01*
X0042977554Y0065341107D01*
X0042956657Y0065276504D01*
X0042956657Y0065276504D01*
X0042937243Y0065211671D01*
X0042902041Y0065082334D01*
X0042871190Y0064953392D01*
X0042844690Y0064824847D01*
X0042833253Y0064760738D01*
X0042833253Y0064760738D01*
X0042823398Y0064696993D01*
X0042807973Y0064572798D01*
X0042797689Y0064452558D01*
X0042792548Y0064336273D01*
X0042792119Y0064279779D01*
X0042792119Y0064279779D01*
X0042792498Y0064230602D01*
X0042797047Y0064138840D01*
X0042806144Y0064054989D01*
X0042819790Y0063979048D01*
X0042837984Y0063911017D01*
X0042860726Y0063850897D01*
X0042888018Y0063798688D01*
X0042919858Y0063754389D01*
X0042937673Y0063735535D01*
X0042937673Y0063735535D01*
X0042956452Y0063717720D01*
X0042995906Y0063685880D01*
X0043037634Y0063658589D01*
X0043081636Y0063635846D01*
X0043127912Y0063617652D01*
X0043176463Y0063604006D01*
X0043227288Y0063594909D01*
X0043280388Y0063590361D01*
X0043307885Y0063589982D01*
X0043307885Y0063589982D01*
X0043377794Y0063591201D01*
X0043479321Y0063601263D01*
X0043545275Y0063612238D01*
X0043609745Y0063626873D01*
X0043672733Y0063645166D01*
X0043734237Y0063667118D01*
X0043794258Y0063692728D01*
X0043823650Y0063707058D01*
X0043823650Y0063707058D01*
X0043882419Y0063737118D01*
X0043994353Y0063805148D01*
X0044099563Y0063882671D01*
X0044198049Y0063969687D01*
X0044244490Y0064017150D01*
X0044244490Y0064017150D01*
X0044290503Y0064066624D01*
X0044375937Y0064169856D01*
X0044453460Y0064278230D01*
X0044523072Y0064391746D01*
X0044554582Y0064450646D01*
X0044564072Y0064447485D01*
X0044564072Y0064447485D01*
X0044532529Y0064387794D01*
X0044462521Y0064272695D01*
X0044384207Y0064162739D01*
X0044297586Y0064057925D01*
X0044250815Y0064007660D01*
X0044250815Y0064007660D01*
X0044203484Y0063958648D01*
X0044102230Y0063868863D01*
X0043993065Y0063788967D01*
X0043875989Y0063718959D01*
X0043814155Y0063688075D01*
X0043814155Y0063688075D01*
X0043783148Y0063673358D01*
X0043719567Y0063647056D01*
X0043654107Y0063624511D01*
X0043586769Y0063605723D01*
X0043517552Y0063590693D01*
X0043446456Y0063579421D01*
X0043373482Y0063571906D01*
X0043298628Y0063568149D01*
X0043260419Y0063567835D01*
X0043260420Y0063567835D01*
X0003944336Y0159950000D02*
X0076055666Y0159950000D01*
X0076055666Y0159950000D01*
X0076156285Y0159949149D01*
X0076355413Y0159939055D01*
X0076551787Y0159919112D01*
X0076745163Y0159889565D01*
X0076935297Y0159850658D01*
X0077121944Y0159802636D01*
X0077304859Y0159745743D01*
X0077483797Y0159680225D01*
X0077658514Y0159606326D01*
X0077828765Y0159524291D01*
X0077994305Y0159434364D01*
X0078154890Y0159336790D01*
X0078310275Y0159231814D01*
X0078460216Y0159119680D01*
X0078604467Y0159000634D01*
X0078742783Y0158874919D01*
X0078874921Y0158742781D01*
X0079000636Y0158604465D01*
X0079119682Y0158460214D01*
X0079231816Y0158310273D01*
X0079336792Y0158154888D01*
X0079434366Y0157994303D01*
X0079524293Y0157828763D01*
X0079606328Y0157658512D01*
X0079680227Y0157483795D01*
X0079745745Y0157304857D01*
X0079802638Y0157121942D01*
X0079850660Y0156935295D01*
X0079889567Y0156745161D01*
X0079919114Y0156551785D01*
X0079939057Y0156355411D01*
X0079949151Y0156156283D01*
X0079950002Y0156055664D01*
X0079950002Y0003944346D01*
X0079950002Y0003944346D01*
X0079949151Y0003843727D01*
X0079939057Y0003644599D01*
X0079919114Y0003448225D01*
X0079889567Y0003254849D01*
X0079850660Y0003064715D01*
X0079802638Y0002878068D01*
X0079745745Y0002695153D01*
X0079680227Y0002516215D01*
X0079606328Y0002341498D01*
X0079524293Y0002171247D01*
X0079434366Y0002005707D01*
X0079336792Y0001845122D01*
X0079231816Y0001689737D01*
X0079119682Y0001539796D01*
X0079000636Y0001395545D01*
X0078874921Y0001257229D01*
X0078742783Y0001125091D01*
X0078604467Y0000999376D01*
X0078460216Y0000880330D01*
X0078310275Y0000768196D01*
X0078154890Y0000663220D01*
X0077994305Y0000565646D01*
X0077828765Y0000475719D01*
X0077658514Y0000393684D01*
X0077483797Y0000319785D01*
X0077304859Y0000254267D01*
X0077121944Y0000197374D01*
X0076935297Y0000149352D01*
X0076745163Y0000110445D01*
X0076551787Y0000080898D01*
X0076355413Y0000060955D01*
X0076156285Y0000050861D01*
X0076055666Y0000050010D01*
X0003944336Y0000050010D01*
X0003944336Y0000050010D01*
X0003843717Y0000050861D01*
X0003644590Y0000060955D01*
X0003448215Y0000080898D01*
X0003254839Y0000110445D01*
X0003064705Y0000149352D01*
X0002878058Y0000197374D01*
X0002695143Y0000254267D01*
X0002516205Y0000319785D01*
X0002341488Y0000393684D01*
X0002171237Y0000475719D01*
X0002005697Y0000565646D01*
X0001845112Y0000663220D01*
X0001689727Y0000768196D01*
X0001539786Y0000880330D01*
X0001395536Y0000999376D01*
X0001257219Y0001125091D01*
X0001125081Y0001257229D01*
X0000999366Y0001395545D01*
X0000880320Y0001539796D01*
X0000768186Y0001689737D01*
X0000663210Y0001845122D01*
X0000565636Y0002005707D01*
X0000475709Y0002171247D01*
X0000393674Y0002341498D01*
X0000319775Y0002516215D01*
X0000254257Y0002695153D01*
X0000197364Y0002878068D01*
X0000149342Y0003064715D01*
X0000110435Y0003254849D01*
X0000080888Y0003448225D01*
X0000060945Y0003644599D01*
X0000050851Y0003843727D01*
X0000050000Y0003944346D01*
X0000050000Y0156055664D01*
X0000050000Y0156055664D01*
X0000050851Y0156156283D01*
X0000060945Y0156355411D01*
X0000080888Y0156551785D01*
X0000110435Y0156745161D01*
X0000149342Y0156935295D01*
X0000197364Y0157121942D01*
X0000254257Y0157304857D01*
X0000319775Y0157483795D01*
X0000393674Y0157658512D01*
X0000475709Y0157828763D01*
X0000565636Y0157994303D01*
X0000663210Y0158154888D01*
X0000768186Y0158310273D01*
X0000880320Y0158460214D01*
X0000999366Y0158604465D01*
X0001125081Y0158742781D01*
X0001257219Y0158874919D01*
X0001395536Y0159000634D01*
X0001539786Y0159119680D01*
X0001689727Y0159231814D01*
X0001845112Y0159336790D01*
X0002005697Y0159434364D01*
X0002171237Y0159524291D01*
X0002341488Y0159606326D01*
X0002516205Y0159680225D01*
X0002695143Y0159745743D01*
X0002878058Y0159802636D01*
X0003064705Y0159850658D01*
X0003254839Y0159889565D01*
X0003448215Y0159919112D01*
X0003644590Y0159939055D01*
X0003843717Y0159949149D01*
X0003944336Y0159950000D01*
X0003944336Y0159950000D01*
M02*