G04 Layer_Color=65535*
%FSLAX25Y25*%
%MOIN*%
G70*
G01*
G75*
%ADD26C,0.01000*%
%ADD45C,0.02362*%
%ADD46C,0.00984*%
%ADD47C,0.01575*%
%ADD48C,0.00800*%
%ADD49C,0.00787*%
%ADD50C,0.00591*%
%ADD51R,0.00650X0.02300*%
%ADD52R,0.06700X0.01800*%
%ADD53R,0.00730X0.02560*%
G36*
X295421Y19457D02*
X295524Y19433D01*
X295663Y19399D01*
X295813Y19353D01*
X295963Y19284D01*
X296124Y19191D01*
X296147Y19180D01*
X296193Y19145D01*
X296262Y19076D01*
X296355Y18984D01*
X296458Y18880D01*
X296562Y18742D01*
X296666Y18580D01*
X296758Y18396D01*
X296770Y18373D01*
X296793Y18304D01*
X296827Y18200D01*
X296862Y18061D01*
X296908Y17888D01*
X296943Y17693D01*
X296966Y17473D01*
X296977Y17243D01*
Y17231D01*
Y17197D01*
Y17139D01*
X296966Y17070D01*
Y16978D01*
X296954Y16874D01*
X296920Y16632D01*
X296873Y16367D01*
X296793Y16101D01*
X296689Y15836D01*
X296620Y15721D01*
X296539Y15606D01*
Y15594D01*
X296516Y15583D01*
X296458Y15513D01*
X296355Y15421D01*
X296205Y15306D01*
X296020Y15191D01*
X295790Y15075D01*
X295524Y14971D01*
X295213Y14902D01*
X295063Y15825D01*
X295086D01*
X295156Y15836D01*
X295259Y15871D01*
X295386Y15905D01*
X295524Y15963D01*
X295663Y16032D01*
X295801Y16136D01*
X295928Y16251D01*
X295939Y16263D01*
X295974Y16320D01*
X296020Y16401D01*
X296066Y16505D01*
X296124Y16655D01*
X296170Y16816D01*
X296205Y17024D01*
X296216Y17243D01*
Y17254D01*
Y17266D01*
Y17300D01*
Y17347D01*
X296205Y17462D01*
X296182Y17600D01*
X296159Y17762D01*
X296112Y17923D01*
X296043Y18073D01*
X295963Y18200D01*
X295951Y18211D01*
X295917Y18246D01*
X295859Y18304D01*
X295790Y18361D01*
X295697Y18407D01*
X295582Y18465D01*
X295467Y18500D01*
X295340Y18511D01*
X295282D01*
X295236Y18500D01*
X295156Y18477D01*
X295086Y18442D01*
X294994Y18396D01*
X294913Y18327D01*
X294844Y18234D01*
X294833Y18223D01*
X294821Y18188D01*
X294798Y18131D01*
X294752Y18038D01*
X294717Y17912D01*
X294660Y17750D01*
X294625Y17646D01*
X294602Y17543D01*
X294567Y17416D01*
X294533Y17277D01*
Y17266D01*
X294521Y17231D01*
X294510Y17185D01*
X294487Y17116D01*
X294464Y17024D01*
X294441Y16931D01*
X294371Y16713D01*
X294302Y16482D01*
X294233Y16240D01*
X294152Y16021D01*
X294118Y15928D01*
X294083Y15848D01*
X294072Y15836D01*
X294049Y15778D01*
X294003Y15709D01*
X293945Y15629D01*
X293876Y15525D01*
X293783Y15433D01*
X293680Y15329D01*
X293564Y15248D01*
X293553Y15237D01*
X293507Y15214D01*
X293438Y15191D01*
X293345Y15156D01*
X293242Y15110D01*
X293115Y15087D01*
X292976Y15064D01*
X292826Y15052D01*
X292769D01*
X292688Y15064D01*
X292607Y15075D01*
X292504Y15087D01*
X292388Y15121D01*
X292262Y15156D01*
X292146Y15214D01*
X292135Y15225D01*
X292089Y15248D01*
X292031Y15283D01*
X291962Y15340D01*
X291881Y15398D01*
X291800Y15479D01*
X291708Y15571D01*
X291627Y15675D01*
X291616Y15686D01*
X291604Y15721D01*
X291570Y15767D01*
X291535Y15836D01*
X291489Y15917D01*
X291443Y16021D01*
X291397Y16136D01*
X291351Y16263D01*
Y16286D01*
X291328Y16332D01*
X291316Y16401D01*
X291293Y16505D01*
X291270Y16632D01*
X291258Y16759D01*
X291235Y16908D01*
Y17070D01*
Y17081D01*
Y17105D01*
Y17128D01*
Y17174D01*
X291247Y17300D01*
X291258Y17450D01*
X291281Y17635D01*
X291316Y17819D01*
X291362Y18015D01*
X291431Y18200D01*
Y18211D01*
X291443Y18223D01*
X291466Y18281D01*
X291512Y18373D01*
X291558Y18477D01*
X291639Y18592D01*
X291720Y18719D01*
X291823Y18834D01*
X291939Y18926D01*
X291950Y18938D01*
X291996Y18961D01*
X292065Y19007D01*
X292158Y19065D01*
X292273Y19111D01*
X292423Y19168D01*
X292584Y19215D01*
X292769Y19261D01*
X292896Y18350D01*
X292873D01*
X292826Y18338D01*
X292746Y18315D01*
X292653Y18281D01*
X292550Y18234D01*
X292446Y18165D01*
X292331Y18085D01*
X292238Y17981D01*
X292227Y17969D01*
X292204Y17923D01*
X292158Y17854D01*
X292112Y17762D01*
X292077Y17646D01*
X292031Y17496D01*
X292008Y17335D01*
X291996Y17139D01*
Y17128D01*
Y17116D01*
Y17081D01*
Y17035D01*
X292008Y16920D01*
X292019Y16782D01*
X292054Y16632D01*
X292089Y16482D01*
X292146Y16332D01*
X292215Y16217D01*
X292227Y16205D01*
X292250Y16171D01*
X292296Y16136D01*
X292354Y16090D01*
X292423Y16032D01*
X292515Y15998D01*
X292607Y15963D01*
X292711Y15951D01*
X292746D01*
X292780Y15963D01*
X292826D01*
X292930Y15998D01*
X293045Y16055D01*
X293057Y16067D01*
X293069Y16078D01*
X293126Y16148D01*
X293172Y16194D01*
X293207Y16251D01*
X293253Y16332D01*
X293288Y16413D01*
Y16424D01*
X293299Y16447D01*
X293311Y16493D01*
X293334Y16574D01*
X293368Y16678D01*
X293414Y16828D01*
X293461Y17012D01*
X293495Y17116D01*
X293530Y17243D01*
Y17254D01*
X293541Y17289D01*
X293553Y17335D01*
X293576Y17404D01*
X293599Y17485D01*
X293622Y17577D01*
X293680Y17785D01*
X293749Y18015D01*
X293829Y18246D01*
X293899Y18453D01*
X293933Y18546D01*
X293968Y18626D01*
X293979Y18650D01*
X294003Y18696D01*
X294037Y18765D01*
X294083Y18846D01*
X294152Y18949D01*
X294245Y19053D01*
X294337Y19145D01*
X294452Y19238D01*
X294464Y19249D01*
X294510Y19272D01*
X294579Y19307D01*
X294671Y19353D01*
X294787Y19399D01*
X294925Y19433D01*
X295075Y19457D01*
X295248Y19468D01*
X295328D01*
X295421Y19457D01*
D02*
G37*
G36*
X303292Y32266D02*
X303418D01*
X303568Y32255D01*
X303730Y32243D01*
X304076Y32209D01*
X304433Y32163D01*
X304790Y32094D01*
X304952Y32047D01*
X305113Y32001D01*
X305125D01*
X305148Y31990D01*
X305194Y31978D01*
X305252Y31955D01*
X305321Y31920D01*
X305390Y31886D01*
X305574Y31794D01*
X305782Y31678D01*
X305990Y31540D01*
X306197Y31379D01*
X306382Y31183D01*
Y31171D01*
X306405Y31160D01*
X306416Y31125D01*
X306451Y31090D01*
X306520Y30964D01*
X306601Y30814D01*
X306681Y30606D01*
X306751Y30375D01*
X306797Y30110D01*
X306820Y29811D01*
Y29799D01*
Y29764D01*
Y29707D01*
X306808Y29626D01*
X306797Y29534D01*
X306774Y29430D01*
X306751Y29315D01*
X306728Y29188D01*
X306635Y28911D01*
X306566Y28761D01*
X306497Y28623D01*
X306405Y28473D01*
X306301Y28335D01*
X306186Y28208D01*
X306047Y28081D01*
X306036Y28069D01*
X306001Y28047D01*
X305943Y28012D01*
X305863Y27966D01*
X305759Y27908D01*
X305632Y27850D01*
X305482Y27781D01*
X305298Y27712D01*
X305102Y27643D01*
X304871Y27574D01*
X304618Y27516D01*
X304341Y27458D01*
X304029Y27412D01*
X303707Y27378D01*
X303338Y27355D01*
X302957Y27343D01*
X302738D01*
X302623Y27355D01*
X302496D01*
X302346Y27366D01*
X302185Y27378D01*
X301839Y27412D01*
X301481Y27458D01*
X301124Y27516D01*
X300962Y27562D01*
X300801Y27608D01*
X300790D01*
X300766Y27620D01*
X300720Y27643D01*
X300663Y27666D01*
X300593Y27689D01*
X300513Y27724D01*
X300328Y27816D01*
X300121Y27931D01*
X299913Y28069D01*
X299717Y28231D01*
X299533Y28427D01*
Y28438D01*
X299510Y28450D01*
X299487Y28485D01*
X299464Y28531D01*
X299394Y28646D01*
X299302Y28808D01*
X299221Y29004D01*
X299152Y29246D01*
X299106Y29511D01*
X299083Y29811D01*
Y29822D01*
Y29834D01*
Y29868D01*
Y29914D01*
X299095Y30030D01*
X299118Y30168D01*
X299141Y30329D01*
X299187Y30514D01*
X299256Y30698D01*
X299337Y30871D01*
X299348Y30894D01*
X299383Y30952D01*
X299441Y31033D01*
X299510Y31148D01*
X299613Y31263D01*
X299740Y31390D01*
X299879Y31517D01*
X300040Y31632D01*
X300063Y31644D01*
X300121Y31678D01*
X300225Y31736D01*
X300351Y31805D01*
X300513Y31874D01*
X300709Y31955D01*
X300928Y32036D01*
X301170Y32105D01*
X301182D01*
X301205Y32117D01*
X301239D01*
X301297Y32128D01*
X301355Y32151D01*
X301435Y32163D01*
X301539Y32174D01*
X301643Y32197D01*
X301770Y32209D01*
X301896Y32220D01*
X302046Y32243D01*
X302208Y32255D01*
X302381Y32266D01*
X302554D01*
X302957Y32278D01*
X303176D01*
X303292Y32266D01*
D02*
G37*
G36*
X304421Y23723D02*
X303488D01*
Y26571D01*
X304421D01*
Y23723D01*
D02*
G37*
G36*
X295017Y163192D02*
X295063Y163181D01*
X295121Y163169D01*
X295202Y163146D01*
X295294Y163123D01*
X295513Y163054D01*
X295743Y162950D01*
X295997Y162812D01*
X296228Y162639D01*
X296447Y162431D01*
Y162420D01*
X296470Y162408D01*
X296493Y162374D01*
X296528Y162328D01*
X296574Y162258D01*
X296620Y162189D01*
X296712Y162016D01*
X296804Y161797D01*
X296897Y161532D01*
X296954Y161244D01*
X296966Y161082D01*
X296977Y160921D01*
Y160909D01*
Y160875D01*
Y160817D01*
X296966Y160736D01*
X296954Y160644D01*
X296943Y160529D01*
X296920Y160414D01*
X296885Y160275D01*
X296804Y159987D01*
X296735Y159837D01*
X296666Y159687D01*
X296585Y159537D01*
X296493Y159399D01*
X296378Y159260D01*
X296251Y159122D01*
X296239Y159111D01*
X296216Y159088D01*
X296170Y159064D01*
X296112Y159018D01*
X296032Y158961D01*
X295939Y158903D01*
X295836Y158845D01*
X295709Y158788D01*
X295571Y158719D01*
X295409Y158661D01*
X295236Y158603D01*
X295040Y158546D01*
X294844Y158500D01*
X294614Y158476D01*
X294383Y158453D01*
X294129Y158442D01*
X293979D01*
X293899Y158453D01*
X293818D01*
X293599Y158476D01*
X293357Y158511D01*
X293103Y158569D01*
X292826Y158638D01*
X292573Y158730D01*
X292561D01*
X292538Y158742D01*
X292504Y158765D01*
X292458Y158788D01*
X292342Y158857D01*
X292192Y158949D01*
X292031Y159076D01*
X291869Y159226D01*
X291708Y159410D01*
X291570Y159618D01*
Y159629D01*
X291558Y159641D01*
X291535Y159676D01*
X291512Y159722D01*
X291466Y159848D01*
X291397Y160010D01*
X291339Y160194D01*
X291281Y160425D01*
X291247Y160667D01*
X291235Y160921D01*
Y160932D01*
Y160955D01*
Y161013D01*
X291247Y161071D01*
Y161151D01*
X291258Y161232D01*
X291293Y161440D01*
X291351Y161670D01*
X291431Y161924D01*
X291547Y162166D01*
X291697Y162385D01*
Y162397D01*
X291720Y162408D01*
X291777Y162477D01*
X291881Y162570D01*
X292019Y162685D01*
X292204Y162812D01*
X292423Y162927D01*
X292688Y163031D01*
X292976Y163111D01*
X293115Y162212D01*
X293103D01*
X293092Y162201D01*
X293022Y162189D01*
X292930Y162154D01*
X292803Y162108D01*
X292665Y162039D01*
X292527Y161959D01*
X292400Y161866D01*
X292284Y161751D01*
X292273Y161740D01*
X292238Y161693D01*
X292192Y161624D01*
X292135Y161532D01*
X292089Y161417D01*
X292042Y161290D01*
X292008Y161128D01*
X291996Y160967D01*
Y160955D01*
Y160932D01*
Y160898D01*
X292008Y160852D01*
X292019Y160725D01*
X292054Y160563D01*
X292123Y160379D01*
X292215Y160194D01*
X292331Y159998D01*
X292411Y159906D01*
X292504Y159826D01*
X292527Y159802D01*
X292561Y159791D01*
X292596Y159756D01*
X292653Y159722D01*
X292723Y159687D01*
X292803Y159652D01*
X292896Y159618D01*
X292999Y159572D01*
X293115Y159537D01*
X293253Y159503D01*
X293391Y159468D01*
X293553Y159433D01*
X293726Y159422D01*
X293910Y159399D01*
X294210D01*
X294291Y159410D01*
X294383D01*
X294487Y159422D01*
X294717Y159457D01*
X294983Y159503D01*
X295259Y159572D01*
X295501Y159676D01*
X295617Y159745D01*
X295720Y159814D01*
X295743Y159837D01*
X295801Y159895D01*
X295882Y159987D01*
X295963Y160114D01*
X296055Y160264D01*
X296135Y160460D01*
X296193Y160667D01*
X296205Y160783D01*
X296216Y160909D01*
Y160921D01*
Y160932D01*
Y161002D01*
X296193Y161105D01*
X296170Y161232D01*
X296135Y161371D01*
X296078Y161532D01*
X295997Y161682D01*
X295882Y161820D01*
X295870Y161832D01*
X295813Y161878D01*
X295743Y161947D01*
X295628Y162016D01*
X295478Y162097D01*
X295305Y162178D01*
X295086Y162247D01*
X294844Y162293D01*
X294971Y163204D01*
X294983D01*
X295017Y163192D01*
D02*
G37*
G36*
Y157900D02*
X295063Y157888D01*
X295121Y157877D01*
X295202Y157854D01*
X295294Y157831D01*
X295513Y157762D01*
X295743Y157658D01*
X295997Y157519D01*
X296228Y157346D01*
X296447Y157139D01*
Y157127D01*
X296470Y157116D01*
X296493Y157081D01*
X296528Y157035D01*
X296574Y156966D01*
X296620Y156897D01*
X296712Y156724D01*
X296804Y156505D01*
X296897Y156240D01*
X296954Y155951D01*
X296966Y155790D01*
X296977Y155629D01*
Y155617D01*
Y155582D01*
Y155525D01*
X296966Y155444D01*
X296954Y155352D01*
X296943Y155236D01*
X296920Y155121D01*
X296885Y154983D01*
X296804Y154695D01*
X296735Y154545D01*
X296666Y154395D01*
X296585Y154245D01*
X296493Y154107D01*
X296378Y153968D01*
X296251Y153830D01*
X296239Y153818D01*
X296216Y153795D01*
X296170Y153772D01*
X296112Y153726D01*
X296032Y153668D01*
X295939Y153611D01*
X295836Y153553D01*
X295709Y153496D01*
X295571Y153426D01*
X295409Y153369D01*
X295236Y153311D01*
X295040Y153253D01*
X294844Y153207D01*
X294614Y153184D01*
X294383Y153161D01*
X294129Y153150D01*
X293979D01*
X293899Y153161D01*
X293818D01*
X293599Y153184D01*
X293357Y153219D01*
X293103Y153276D01*
X292826Y153346D01*
X292573Y153438D01*
X292561D01*
X292538Y153449D01*
X292504Y153472D01*
X292458Y153496D01*
X292342Y153565D01*
X292192Y153657D01*
X292031Y153784D01*
X291869Y153934D01*
X291708Y154118D01*
X291570Y154326D01*
Y154337D01*
X291558Y154349D01*
X291535Y154383D01*
X291512Y154429D01*
X291466Y154556D01*
X291397Y154718D01*
X291339Y154902D01*
X291281Y155133D01*
X291247Y155375D01*
X291235Y155629D01*
Y155640D01*
Y155663D01*
Y155721D01*
X291247Y155778D01*
Y155859D01*
X291258Y155940D01*
X291293Y156147D01*
X291351Y156378D01*
X291431Y156632D01*
X291547Y156874D01*
X291697Y157093D01*
Y157104D01*
X291720Y157116D01*
X291777Y157185D01*
X291881Y157277D01*
X292019Y157393D01*
X292204Y157519D01*
X292423Y157635D01*
X292688Y157739D01*
X292976Y157819D01*
X293115Y156920D01*
X293103D01*
X293092Y156908D01*
X293022Y156897D01*
X292930Y156862D01*
X292803Y156816D01*
X292665Y156747D01*
X292527Y156666D01*
X292400Y156574D01*
X292284Y156459D01*
X292273Y156447D01*
X292238Y156401D01*
X292192Y156332D01*
X292135Y156240D01*
X292089Y156124D01*
X292042Y155998D01*
X292008Y155836D01*
X291996Y155675D01*
Y155663D01*
Y155640D01*
Y155605D01*
X292008Y155559D01*
X292019Y155432D01*
X292054Y155271D01*
X292123Y155087D01*
X292215Y154902D01*
X292331Y154706D01*
X292411Y154614D01*
X292504Y154533D01*
X292527Y154510D01*
X292561Y154499D01*
X292596Y154464D01*
X292653Y154429D01*
X292723Y154395D01*
X292803Y154360D01*
X292896Y154326D01*
X292999Y154279D01*
X293115Y154245D01*
X293253Y154210D01*
X293391Y154176D01*
X293553Y154141D01*
X293726Y154130D01*
X293910Y154107D01*
X294210D01*
X294291Y154118D01*
X294383D01*
X294487Y154130D01*
X294717Y154164D01*
X294983Y154210D01*
X295259Y154279D01*
X295501Y154383D01*
X295617Y154453D01*
X295720Y154522D01*
X295743Y154545D01*
X295801Y154602D01*
X295882Y154695D01*
X295963Y154822D01*
X296055Y154971D01*
X296135Y155167D01*
X296193Y155375D01*
X296205Y155490D01*
X296216Y155617D01*
Y155629D01*
Y155640D01*
Y155709D01*
X296193Y155813D01*
X296170Y155940D01*
X296135Y156078D01*
X296078Y156240D01*
X295997Y156389D01*
X295882Y156528D01*
X295870Y156539D01*
X295813Y156586D01*
X295743Y156655D01*
X295628Y156724D01*
X295478Y156805D01*
X295305Y156885D01*
X295086Y156955D01*
X294844Y157001D01*
X294971Y157912D01*
X294983D01*
X295017Y157900D01*
D02*
G37*
G36*
X306693Y35795D02*
X300766D01*
X300778Y35783D01*
X300824Y35737D01*
X300882Y35656D01*
X300962Y35552D01*
X301066Y35426D01*
X301170Y35276D01*
X301297Y35103D01*
X301412Y34907D01*
Y34895D01*
X301424Y34884D01*
X301470Y34815D01*
X301528Y34711D01*
X301597Y34584D01*
X301677Y34434D01*
X301747Y34273D01*
X301827Y34100D01*
X301896Y33938D01*
X300986D01*
Y33950D01*
X300974Y33973D01*
X300951Y34019D01*
X300916Y34065D01*
X300882Y34134D01*
X300847Y34215D01*
X300743Y34400D01*
X300617Y34607D01*
X300467Y34838D01*
X300294Y35068D01*
X300109Y35287D01*
X300098Y35299D01*
X300086Y35310D01*
X300017Y35380D01*
X299913Y35483D01*
X299786Y35610D01*
X299625Y35748D01*
X299452Y35887D01*
X299268Y36014D01*
X299083Y36118D01*
Y36729D01*
X306693D01*
Y35795D01*
D02*
G37*
G36*
Y21186D02*
Y20310D01*
X301205Y18223D01*
Y19203D01*
X304502Y20379D01*
X304525Y20391D01*
X304594Y20414D01*
X304698Y20448D01*
X304837Y20494D01*
X304998Y20552D01*
X305183Y20610D01*
X305390Y20679D01*
X305598Y20736D01*
X305574Y20748D01*
X305517Y20760D01*
X305425Y20794D01*
X305309Y20829D01*
X305159Y20875D01*
X304975Y20933D01*
X304779Y21002D01*
X304560Y21082D01*
X301205Y22305D01*
Y23261D01*
X306693Y21186D01*
D02*
G37*
G36*
Y10578D02*
X306013D01*
X306024Y10567D01*
X306047Y10555D01*
X306082Y10521D01*
X306139Y10475D01*
X306197Y10429D01*
X306266Y10359D01*
X306335Y10279D01*
X306416Y10187D01*
X306485Y10083D01*
X306566Y9967D01*
X306635Y9841D01*
X306693Y9714D01*
X306751Y9564D01*
X306785Y9403D01*
X306808Y9229D01*
X306820Y9045D01*
Y9033D01*
Y9010D01*
Y8976D01*
X306808Y8930D01*
X306797Y8803D01*
X306774Y8653D01*
X306728Y8457D01*
X306670Y8261D01*
X306578Y8042D01*
X306462Y7834D01*
Y7823D01*
X306451Y7811D01*
X306393Y7742D01*
X306312Y7650D01*
X306197Y7523D01*
X306059Y7396D01*
X305886Y7246D01*
X305690Y7119D01*
X305459Y6993D01*
X305448D01*
X305425Y6981D01*
X305390Y6970D01*
X305344Y6947D01*
X305286Y6923D01*
X305205Y6900D01*
X305021Y6843D01*
X304802Y6785D01*
X304548Y6739D01*
X304272Y6704D01*
X303960Y6693D01*
X303822D01*
X303753Y6704D01*
X303660D01*
X303465Y6728D01*
X303234Y6762D01*
X302992Y6808D01*
X302727Y6866D01*
X302473Y6958D01*
X302461D01*
X302438Y6970D01*
X302404Y6993D01*
X302358Y7016D01*
X302242Y7073D01*
X302092Y7166D01*
X301920Y7281D01*
X301747Y7419D01*
X301585Y7581D01*
X301435Y7777D01*
Y7788D01*
X301424Y7800D01*
X301378Y7869D01*
X301320Y7984D01*
X301251Y8134D01*
X301193Y8319D01*
X301135Y8526D01*
X301089Y8757D01*
X301078Y8999D01*
Y9010D01*
Y9022D01*
Y9080D01*
X301089Y9172D01*
X301101Y9299D01*
X301135Y9426D01*
X301170Y9575D01*
X301228Y9725D01*
X301297Y9875D01*
X301308Y9898D01*
X301331Y9944D01*
X301378Y10013D01*
X301447Y10106D01*
X301516Y10198D01*
X301608Y10313D01*
X301724Y10417D01*
X301839Y10509D01*
X299118D01*
Y11443D01*
X306693D01*
Y10578D01*
D02*
G37*
G36*
X296839Y40337D02*
X296850Y40291D01*
X296862Y40222D01*
X296873Y40118D01*
X296897Y40015D01*
X296908Y39899D01*
X296920Y39657D01*
Y39634D01*
Y39577D01*
X296908Y39484D01*
X296897Y39369D01*
X296885Y39242D01*
X296850Y39104D01*
X296816Y38977D01*
X296770Y38862D01*
X296758Y38850D01*
X296735Y38816D01*
X296701Y38769D01*
X296654Y38712D01*
X296597Y38642D01*
X296528Y38585D01*
X296447Y38516D01*
X296355Y38470D01*
X296343D01*
X296297Y38458D01*
X296228Y38435D01*
X296112Y38423D01*
X295963Y38400D01*
X295882Y38389D01*
X295778Y38377D01*
X295663D01*
X295536Y38366D01*
X292089D01*
Y37674D01*
X291362D01*
Y38366D01*
X290013D01*
X289448Y39300D01*
X291362D01*
Y40234D01*
X292089D01*
Y39300D01*
X295432D01*
X295513Y39311D01*
X295686Y39323D01*
X295755Y39334D01*
X295813Y39346D01*
X295836Y39357D01*
X295882Y39380D01*
X295939Y39427D01*
X295997Y39496D01*
X296009Y39519D01*
X296020Y39577D01*
X296043Y39680D01*
X296055Y39819D01*
Y39830D01*
Y39853D01*
Y39888D01*
Y39934D01*
X296043Y39992D01*
Y40061D01*
X296020Y40234D01*
X296839Y40361D01*
Y40337D01*
D02*
G37*
G36*
X294302Y37109D02*
X294406D01*
X294521Y37097D01*
X294648Y37086D01*
X294913Y37040D01*
X295190Y36982D01*
X295467Y36902D01*
X295709Y36798D01*
X295720D01*
X295732Y36786D01*
X295813Y36740D01*
X295917Y36659D01*
X296055Y36556D01*
X296205Y36429D01*
X296355Y36267D01*
X296504Y36083D01*
X296643Y35864D01*
Y35852D01*
X296654Y35841D01*
X296677Y35806D01*
X296689Y35760D01*
X296747Y35633D01*
X296804Y35472D01*
X296873Y35276D01*
X296920Y35057D01*
X296966Y34815D01*
X296977Y34549D01*
Y34538D01*
Y34503D01*
Y34434D01*
X296966Y34353D01*
X296954Y34261D01*
X296943Y34146D01*
X296920Y34019D01*
X296885Y33881D01*
X296793Y33592D01*
X296735Y33431D01*
X296666Y33281D01*
X296585Y33120D01*
X296481Y32970D01*
X296366Y32820D01*
X296239Y32682D01*
X296228Y32670D01*
X296205Y32647D01*
X296159Y32612D01*
X296101Y32578D01*
X296020Y32520D01*
X295928Y32462D01*
X295824Y32393D01*
X295697Y32336D01*
X295548Y32266D01*
X295398Y32197D01*
X295213Y32140D01*
X295029Y32094D01*
X294821Y32047D01*
X294602Y32013D01*
X294360Y31990D01*
X294106Y31978D01*
X294037D01*
X293956Y31990D01*
X293853D01*
X293726Y32001D01*
X293587Y32024D01*
X293426Y32047D01*
X293253Y32082D01*
X293069Y32128D01*
X292884Y32186D01*
X292700Y32255D01*
X292515Y32336D01*
X292331Y32428D01*
X292158Y32543D01*
X291996Y32670D01*
X291846Y32820D01*
X291835Y32831D01*
X291823Y32855D01*
X291789Y32889D01*
X291754Y32947D01*
X291708Y33016D01*
X291650Y33097D01*
X291593Y33189D01*
X291535Y33304D01*
X291489Y33419D01*
X291431Y33546D01*
X291328Y33846D01*
X291258Y34180D01*
X291247Y34365D01*
X291235Y34549D01*
Y34561D01*
Y34596D01*
Y34653D01*
X291247Y34734D01*
X291258Y34838D01*
X291270Y34941D01*
X291293Y35068D01*
X291328Y35207D01*
X291420Y35495D01*
X291477Y35645D01*
X291547Y35806D01*
X291639Y35956D01*
X291743Y36106D01*
X291858Y36256D01*
X291985Y36394D01*
X291996Y36406D01*
X292019Y36429D01*
X292065Y36463D01*
X292123Y36509D01*
X292192Y36567D01*
X292284Y36625D01*
X292400Y36694D01*
X292515Y36763D01*
X292653Y36821D01*
X292815Y36890D01*
X292976Y36948D01*
X293161Y37005D01*
X293357Y37051D01*
X293576Y37086D01*
X293795Y37109D01*
X294037Y37121D01*
X294210D01*
X294302Y37109D01*
D02*
G37*
G36*
X296850Y24092D02*
X293322D01*
X293195Y24080D01*
X293069Y24069D01*
X292919Y24046D01*
X292792Y24011D01*
X292676Y23976D01*
X292665D01*
X292630Y23953D01*
X292573Y23930D01*
X292515Y23896D01*
X292434Y23838D01*
X292365Y23769D01*
X292284Y23688D01*
X292215Y23596D01*
X292204Y23584D01*
X292192Y23550D01*
X292158Y23492D01*
X292123Y23411D01*
X292100Y23319D01*
X292065Y23204D01*
X292054Y23089D01*
X292042Y22950D01*
Y22939D01*
Y22927D01*
Y22893D01*
Y22846D01*
X292065Y22743D01*
X292089Y22593D01*
X292135Y22431D01*
X292204Y22270D01*
X292296Y22085D01*
X292423Y21924D01*
X292446Y21901D01*
X292504Y21855D01*
X292596Y21786D01*
X292665Y21751D01*
X292746Y21716D01*
X292838Y21670D01*
X292942Y21636D01*
X293057Y21601D01*
X293184Y21567D01*
X293334Y21532D01*
X293495Y21520D01*
X293668Y21497D01*
X296850D01*
Y20563D01*
X291362D01*
Y21405D01*
X292146D01*
X292135Y21417D01*
X292112Y21428D01*
X292065Y21463D01*
X292008Y21520D01*
X291939Y21578D01*
X291858Y21659D01*
X291777Y21739D01*
X291685Y21843D01*
X291604Y21970D01*
X291524Y22097D01*
X291443Y22235D01*
X291374Y22397D01*
X291316Y22558D01*
X291270Y22743D01*
X291247Y22939D01*
X291235Y23146D01*
Y23158D01*
Y23169D01*
Y23227D01*
X291247Y23331D01*
X291258Y23446D01*
X291281Y23584D01*
X291316Y23746D01*
X291362Y23896D01*
X291420Y24057D01*
X291431Y24080D01*
X291454Y24126D01*
X291489Y24195D01*
X291547Y24288D01*
X291616Y24392D01*
X291697Y24495D01*
X291789Y24599D01*
X291893Y24680D01*
X291904Y24691D01*
X291939Y24714D01*
X292008Y24749D01*
X292089Y24795D01*
X292181Y24841D01*
X292296Y24887D01*
X292434Y24933D01*
X292573Y24968D01*
X292584D01*
X292619Y24980D01*
X292688Y24991D01*
X292780Y25003D01*
X292907D01*
X293069Y25014D01*
X293253Y25026D01*
X296850D01*
Y24092D01*
D02*
G37*
G36*
X304191Y17646D02*
Y13565D01*
X304225D01*
X304283Y13576D01*
X304341D01*
X304421Y13588D01*
X304502Y13599D01*
X304710Y13645D01*
X304929Y13715D01*
X305159Y13795D01*
X305390Y13922D01*
X305586Y14072D01*
X305609Y14095D01*
X305655Y14153D01*
X305736Y14257D01*
X305817Y14383D01*
X305909Y14556D01*
X305990Y14752D01*
X306036Y14971D01*
X306059Y15214D01*
Y15225D01*
Y15237D01*
Y15306D01*
X306047Y15398D01*
X306024Y15513D01*
X305990Y15652D01*
X305943Y15802D01*
X305886Y15951D01*
X305794Y16090D01*
X305782Y16101D01*
X305736Y16148D01*
X305678Y16217D01*
X305574Y16297D01*
X305459Y16390D01*
X305309Y16482D01*
X305125Y16574D01*
X304917Y16666D01*
X305044Y17623D01*
X305056D01*
X305079Y17612D01*
X305125Y17600D01*
X305183Y17577D01*
X305252Y17554D01*
X305332Y17520D01*
X305528Y17427D01*
X305736Y17312D01*
X305955Y17174D01*
X306174Y16989D01*
X306359Y16782D01*
Y16770D01*
X306382Y16759D01*
X306405Y16724D01*
X306428Y16666D01*
X306462Y16609D01*
X306508Y16540D01*
X306543Y16459D01*
X306589Y16355D01*
X306670Y16136D01*
X306751Y15859D01*
X306797Y15560D01*
X306820Y15214D01*
Y15202D01*
Y15156D01*
Y15098D01*
X306808Y15018D01*
X306797Y14914D01*
X306785Y14798D01*
X306762Y14672D01*
X306728Y14522D01*
X306635Y14222D01*
X306578Y14061D01*
X306508Y13911D01*
X306428Y13749D01*
X306324Y13599D01*
X306209Y13450D01*
X306082Y13311D01*
X306070Y13300D01*
X306047Y13276D01*
X306001Y13242D01*
X305943Y13207D01*
X305874Y13150D01*
X305782Y13092D01*
X305667Y13023D01*
X305540Y12965D01*
X305401Y12896D01*
X305252Y12827D01*
X305079Y12769D01*
X304894Y12723D01*
X304698Y12677D01*
X304479Y12642D01*
X304248Y12619D01*
X304006Y12608D01*
X303868D01*
X303776Y12619D01*
X303660Y12631D01*
X303522Y12642D01*
X303372Y12665D01*
X303211Y12700D01*
X302865Y12781D01*
X302692Y12838D01*
X302507Y12908D01*
X302335Y12988D01*
X302162Y13081D01*
X302000Y13184D01*
X301850Y13311D01*
X301839Y13323D01*
X301816Y13346D01*
X301781Y13380D01*
X301724Y13438D01*
X301666Y13507D01*
X301608Y13599D01*
X301539Y13692D01*
X301458Y13807D01*
X301389Y13934D01*
X301320Y14072D01*
X301262Y14222D01*
X301193Y14395D01*
X301147Y14568D01*
X301112Y14752D01*
X301089Y14948D01*
X301078Y15156D01*
Y15168D01*
Y15202D01*
Y15260D01*
X301089Y15340D01*
X301101Y15433D01*
X301112Y15548D01*
X301135Y15663D01*
X301170Y15802D01*
X301262Y16078D01*
X301320Y16228D01*
X301401Y16378D01*
X301481Y16528D01*
X301585Y16678D01*
X301700Y16816D01*
X301839Y16955D01*
X301850Y16966D01*
X301873Y16989D01*
X301920Y17024D01*
X301977Y17070D01*
X302058Y17116D01*
X302150Y17174D01*
X302254Y17243D01*
X302381Y17312D01*
X302531Y17370D01*
X302680Y17439D01*
X302853Y17496D01*
X303049Y17554D01*
X303245Y17589D01*
X303465Y17623D01*
X303695Y17646D01*
X303949Y17658D01*
X304087D01*
X304191Y17646D01*
D02*
G37*
G36*
X296850Y29995D02*
X296170D01*
X296182Y29983D01*
X296205Y29972D01*
X296239Y29937D01*
X296297Y29891D01*
X296355Y29845D01*
X296424Y29776D01*
X296493Y29695D01*
X296574Y29603D01*
X296643Y29499D01*
X296724Y29384D01*
X296793Y29257D01*
X296850Y29130D01*
X296908Y28980D01*
X296943Y28819D01*
X296966Y28646D01*
X296977Y28462D01*
Y28450D01*
Y28427D01*
Y28392D01*
X296966Y28346D01*
X296954Y28219D01*
X296931Y28069D01*
X296885Y27874D01*
X296827Y27678D01*
X296735Y27458D01*
X296620Y27251D01*
Y27239D01*
X296608Y27228D01*
X296551Y27159D01*
X296470Y27066D01*
X296355Y26940D01*
X296216Y26813D01*
X296043Y26663D01*
X295847Y26536D01*
X295617Y26409D01*
X295605D01*
X295582Y26398D01*
X295548Y26386D01*
X295501Y26363D01*
X295444Y26340D01*
X295363Y26317D01*
X295179Y26259D01*
X294959Y26202D01*
X294706Y26155D01*
X294429Y26121D01*
X294118Y26109D01*
X293979D01*
X293910Y26121D01*
X293818D01*
X293622Y26144D01*
X293391Y26179D01*
X293149Y26225D01*
X292884Y26282D01*
X292630Y26375D01*
X292619D01*
X292596Y26386D01*
X292561Y26409D01*
X292515Y26432D01*
X292400Y26490D01*
X292250Y26582D01*
X292077Y26697D01*
X291904Y26836D01*
X291743Y26997D01*
X291593Y27193D01*
Y27205D01*
X291581Y27216D01*
X291535Y27286D01*
X291477Y27401D01*
X291408Y27551D01*
X291351Y27735D01*
X291293Y27943D01*
X291247Y28173D01*
X291235Y28415D01*
Y28427D01*
Y28438D01*
Y28496D01*
X291247Y28588D01*
X291258Y28715D01*
X291293Y28842D01*
X291328Y28992D01*
X291385Y29142D01*
X291454Y29292D01*
X291466Y29315D01*
X291489Y29361D01*
X291535Y29430D01*
X291604Y29522D01*
X291673Y29614D01*
X291766Y29730D01*
X291881Y29834D01*
X291996Y29926D01*
X289275D01*
Y30860D01*
X296850D01*
Y29995D01*
D02*
G37*
G36*
X304473Y164080D02*
X304599D01*
X304749Y164068D01*
X304911Y164057D01*
X305257Y164022D01*
X305614Y163976D01*
X305972Y163907D01*
X306133Y163861D01*
X306294Y163815D01*
X306306D01*
X306329Y163803D01*
X306375Y163792D01*
X306433Y163769D01*
X306502Y163734D01*
X306571Y163700D01*
X306756Y163607D01*
X306963Y163492D01*
X307171Y163354D01*
X307378Y163192D01*
X307563Y162996D01*
Y162985D01*
X307586Y162973D01*
X307597Y162939D01*
X307632Y162904D01*
X307701Y162777D01*
X307782Y162627D01*
X307862Y162420D01*
X307932Y162189D01*
X307978Y161924D01*
X308001Y161624D01*
Y161613D01*
Y161578D01*
Y161520D01*
X307989Y161440D01*
X307978Y161347D01*
X307955Y161244D01*
X307932Y161128D01*
X307909Y161002D01*
X307816Y160725D01*
X307747Y160575D01*
X307678Y160437D01*
X307586Y160287D01*
X307482Y160148D01*
X307367Y160021D01*
X307228Y159895D01*
X307217Y159883D01*
X307182Y159860D01*
X307125Y159826D01*
X307044Y159779D01*
X306940Y159722D01*
X306813Y159664D01*
X306663Y159595D01*
X306479Y159526D01*
X306283Y159457D01*
X306052Y159387D01*
X305799Y159330D01*
X305522Y159272D01*
X305211Y159226D01*
X304888Y159191D01*
X304519Y159168D01*
X304138Y159157D01*
X303919D01*
X303804Y159168D01*
X303677D01*
X303527Y159180D01*
X303366Y159191D01*
X303020Y159226D01*
X302662Y159272D01*
X302305Y159330D01*
X302144Y159376D01*
X301982Y159422D01*
X301971D01*
X301948Y159433D01*
X301902Y159457D01*
X301844Y159480D01*
X301775Y159503D01*
X301694Y159537D01*
X301509Y159629D01*
X301302Y159745D01*
X301094Y159883D01*
X300898Y160045D01*
X300714Y160241D01*
Y160252D01*
X300691Y160264D01*
X300668Y160298D01*
X300645Y160344D01*
X300575Y160460D01*
X300483Y160621D01*
X300403Y160817D01*
X300333Y161059D01*
X300287Y161324D01*
X300264Y161624D01*
Y161636D01*
Y161647D01*
Y161682D01*
Y161728D01*
X300276Y161843D01*
X300299Y161982D01*
X300322Y162143D01*
X300368Y162328D01*
X300437Y162512D01*
X300518Y162685D01*
X300529Y162708D01*
X300564Y162766D01*
X300622Y162846D01*
X300691Y162962D01*
X300795Y163077D01*
X300921Y163204D01*
X301060Y163331D01*
X301221Y163446D01*
X301244Y163457D01*
X301302Y163492D01*
X301406Y163550D01*
X301533Y163619D01*
X301694Y163688D01*
X301890Y163769D01*
X302109Y163849D01*
X302351Y163919D01*
X302363D01*
X302386Y163930D01*
X302420D01*
X302478Y163942D01*
X302536Y163965D01*
X302616Y163976D01*
X302720Y163988D01*
X302824Y164011D01*
X302951Y164022D01*
X303078Y164034D01*
X303227Y164057D01*
X303389Y164068D01*
X303562Y164080D01*
X303735D01*
X304138Y164092D01*
X304357D01*
X304473Y164080D01*
D02*
G37*
G36*
X307874Y153150D02*
X307747D01*
X307666Y153161D01*
X307574Y153173D01*
X307470Y153184D01*
X307355Y153219D01*
X307240Y153253D01*
X307228D01*
X307217Y153265D01*
X307148Y153288D01*
X307055Y153334D01*
X306917Y153403D01*
X306767Y153484D01*
X306594Y153599D01*
X306421Y153715D01*
X306237Y153865D01*
X306225D01*
X306214Y153887D01*
X306144Y153945D01*
X306041Y154037D01*
X305902Y154176D01*
X305741Y154349D01*
X305545Y154556D01*
X305326Y154810D01*
X305084Y155087D01*
X305072Y155098D01*
X305038Y155144D01*
X304992Y155202D01*
X304911Y155283D01*
X304830Y155386D01*
X304726Y155502D01*
X304507Y155755D01*
X304242Y156032D01*
X303977Y156309D01*
X303850Y156447D01*
X303723Y156562D01*
X303596Y156666D01*
X303481Y156758D01*
X303470D01*
X303458Y156782D01*
X303423Y156805D01*
X303377Y156828D01*
X303262Y156897D01*
X303112Y156978D01*
X302939Y157058D01*
X302755Y157127D01*
X302547Y157174D01*
X302351Y157197D01*
X302328D01*
X302259Y157185D01*
X302155Y157174D01*
X302028Y157150D01*
X301878Y157093D01*
X301729Y157024D01*
X301567Y156931D01*
X301417Y156793D01*
X301406Y156770D01*
X301360Y156724D01*
X301302Y156632D01*
X301221Y156516D01*
X301152Y156367D01*
X301094Y156193D01*
X301048Y155986D01*
X301037Y155755D01*
Y155744D01*
Y155721D01*
Y155686D01*
X301048Y155640D01*
X301060Y155525D01*
X301083Y155375D01*
X301140Y155202D01*
X301210Y155017D01*
X301313Y154844D01*
X301452Y154683D01*
X301475Y154672D01*
X301521Y154625D01*
X301613Y154556D01*
X301740Y154487D01*
X301902Y154406D01*
X302086Y154349D01*
X302305Y154303D01*
X302559Y154280D01*
X302455Y153323D01*
X302409D01*
X302351Y153334D01*
X302282Y153346D01*
X302190Y153369D01*
X302086Y153380D01*
X301855Y153449D01*
X301590Y153542D01*
X301325Y153668D01*
X301060Y153841D01*
X300944Y153934D01*
X300829Y154049D01*
X300818Y154060D01*
X300806Y154084D01*
X300771Y154118D01*
X300737Y154164D01*
X300702Y154233D01*
X300645Y154314D01*
X300599Y154406D01*
X300541Y154510D01*
X300495Y154625D01*
X300437Y154752D01*
X300391Y154902D01*
X300357Y155052D01*
X300287Y155398D01*
X300276Y155582D01*
X300264Y155779D01*
Y155790D01*
Y155825D01*
Y155882D01*
X300276Y155963D01*
X300287Y156055D01*
X300299Y156159D01*
X300310Y156274D01*
X300345Y156401D01*
X300414Y156678D01*
X300518Y156966D01*
X300587Y157116D01*
X300668Y157254D01*
X300771Y157381D01*
X300875Y157508D01*
X300887Y157519D01*
X300898Y157531D01*
X300933Y157566D01*
X300979Y157612D01*
X301048Y157658D01*
X301117Y157715D01*
X301290Y157831D01*
X301509Y157946D01*
X301763Y158050D01*
X302051Y158131D01*
X302213Y158142D01*
X302374Y158154D01*
X302455D01*
X302547Y158142D01*
X302662Y158131D01*
X302801Y158107D01*
X302951Y158073D01*
X303112Y158027D01*
X303274Y157958D01*
X303297Y157946D01*
X303354Y157923D01*
X303435Y157877D01*
X303550Y157808D01*
X303689Y157727D01*
X303850Y157623D01*
X304012Y157485D01*
X304196Y157335D01*
X304219Y157312D01*
X304288Y157254D01*
X304392Y157150D01*
X304461Y157081D01*
X304542Y157001D01*
X304634Y156908D01*
X304738Y156793D01*
X304842Y156678D01*
X304969Y156551D01*
X305095Y156413D01*
X305234Y156251D01*
X305372Y156090D01*
X305533Y155905D01*
X305545Y155894D01*
X305568Y155871D01*
X305603Y155825D01*
X305649Y155767D01*
X305764Y155629D01*
X305914Y155456D01*
X306075Y155283D01*
X306237Y155098D01*
X306375Y154948D01*
X306433Y154891D01*
X306490Y154833D01*
X306502Y154822D01*
X306537Y154798D01*
X306583Y154752D01*
X306652Y154695D01*
X306802Y154568D01*
X306986Y154441D01*
Y158165D01*
X307874D01*
Y153150D01*
D02*
G37*
G36*
X296850Y191268D02*
X296839Y191256D01*
X296804Y191245D01*
X296735Y191222D01*
X296654Y191187D01*
X296551Y191153D01*
X296435Y191129D01*
X296308Y191106D01*
X296159Y191083D01*
X296182Y191060D01*
X296228Y190991D01*
X296308Y190899D01*
X296401Y190761D01*
X296516Y190611D01*
X296620Y190438D01*
X296712Y190265D01*
X296793Y190080D01*
X296804Y190057D01*
X296816Y189999D01*
X296850Y189907D01*
X296885Y189780D01*
X296920Y189619D01*
X296943Y189446D01*
X296966Y189262D01*
X296977Y189054D01*
Y189042D01*
Y189019D01*
Y188973D01*
X296966Y188904D01*
Y188835D01*
X296954Y188743D01*
X296920Y188547D01*
X296873Y188316D01*
X296793Y188097D01*
X296689Y187866D01*
X296539Y187670D01*
X296516Y187647D01*
X296458Y187590D01*
X296366Y187521D01*
X296228Y187428D01*
X296066Y187336D01*
X295882Y187267D01*
X295651Y187209D01*
X295409Y187186D01*
X295340D01*
X295259Y187198D01*
X295167Y187209D01*
X295052Y187232D01*
X294925Y187255D01*
X294798Y187302D01*
X294671Y187359D01*
X294660Y187371D01*
X294614Y187394D01*
X294556Y187428D01*
X294475Y187486D01*
X294394Y187555D01*
X294302Y187647D01*
X294221Y187740D01*
X294141Y187843D01*
X294129Y187855D01*
X294106Y187901D01*
X294072Y187959D01*
X294025Y188039D01*
X293968Y188143D01*
X293922Y188247D01*
X293876Y188374D01*
X293829Y188512D01*
Y188524D01*
X293818Y188570D01*
X293807Y188627D01*
X293783Y188720D01*
X293760Y188835D01*
X293737Y188985D01*
X293714Y189146D01*
X293691Y189342D01*
Y189354D01*
X293680Y189388D01*
Y189446D01*
X293668Y189527D01*
X293657Y189619D01*
X293645Y189723D01*
X293599Y189976D01*
X293553Y190242D01*
X293507Y190518D01*
X293438Y190784D01*
X293403Y190899D01*
X293368Y191003D01*
X293334D01*
X293265Y191014D01*
X293034D01*
X292930Y191003D01*
X292815Y190980D01*
X292688Y190945D01*
X292550Y190899D01*
X292434Y190841D01*
X292331Y190749D01*
X292319Y190737D01*
X292284Y190680D01*
X292227Y190599D01*
X292169Y190484D01*
X292112Y190334D01*
X292054Y190149D01*
X292019Y189930D01*
X292008Y189688D01*
Y189677D01*
Y189665D01*
Y189630D01*
Y189584D01*
X292019Y189469D01*
X292031Y189319D01*
X292065Y189158D01*
X292100Y189008D01*
X292158Y188847D01*
X292238Y188720D01*
X292250Y188708D01*
X292284Y188673D01*
X292342Y188616D01*
X292423Y188547D01*
X292538Y188466D01*
X292676Y188397D01*
X292849Y188316D01*
X293045Y188259D01*
X292919Y187348D01*
X292907D01*
X292896Y187359D01*
X292826Y187371D01*
X292723Y187405D01*
X292584Y187440D01*
X292434Y187497D01*
X292284Y187567D01*
X292123Y187647D01*
X291985Y187751D01*
X291973Y187763D01*
X291927Y187809D01*
X291858Y187866D01*
X291777Y187959D01*
X291697Y188074D01*
X291604Y188224D01*
X291512Y188385D01*
X291431Y188570D01*
Y188581D01*
X291420Y188593D01*
X291408Y188627D01*
X291397Y188662D01*
X291374Y188777D01*
X291328Y188927D01*
X291293Y189112D01*
X291270Y189319D01*
X291247Y189561D01*
X291235Y189815D01*
Y189827D01*
Y189850D01*
Y189884D01*
Y189930D01*
X291247Y190057D01*
X291258Y190219D01*
X291281Y190403D01*
X291304Y190599D01*
X291351Y190784D01*
X291408Y190956D01*
X291420Y190980D01*
X291431Y191026D01*
X291477Y191106D01*
X291524Y191199D01*
X291581Y191302D01*
X291650Y191418D01*
X291731Y191510D01*
X291823Y191602D01*
X291835Y191614D01*
X291869Y191637D01*
X291915Y191671D01*
X291996Y191718D01*
X292089Y191764D01*
X292192Y191810D01*
X292319Y191856D01*
X292458Y191890D01*
X292469D01*
X292504Y191902D01*
X292561Y191913D01*
X292653Y191925D01*
X292769D01*
X292919Y191937D01*
X293092Y191948D01*
X294983D01*
X295248Y191960D01*
X295536D01*
X295801Y191971D01*
X295928Y191983D01*
X296032D01*
X296124Y191994D01*
X296205Y192006D01*
X296216D01*
X296262Y192017D01*
X296332Y192029D01*
X296412Y192052D01*
X296504Y192086D01*
X296620Y192132D01*
X296850Y192236D01*
Y191268D01*
D02*
G37*
G36*
X301129Y175864D02*
X301152Y175841D01*
X301198Y175806D01*
X301256Y175748D01*
X301337Y175691D01*
X301429Y175610D01*
X301544Y175518D01*
X301659Y175426D01*
X301798Y175322D01*
X301959Y175206D01*
X302121Y175080D01*
X302305Y174964D01*
X302501Y174838D01*
X302709Y174699D01*
X302939Y174572D01*
X303170Y174434D01*
X303181Y174423D01*
X303227Y174399D01*
X303297Y174365D01*
X303389Y174319D01*
X303504Y174261D01*
X303643Y174192D01*
X303804Y174111D01*
X303977Y174030D01*
X304161Y173950D01*
X304369Y173857D01*
X304588Y173765D01*
X304819Y173673D01*
X305291Y173500D01*
X305799Y173339D01*
X305810D01*
X305845Y173327D01*
X305891Y173316D01*
X305960Y173293D01*
X306052Y173269D01*
X306156Y173246D01*
X306283Y173223D01*
X306410Y173189D01*
X306560Y173166D01*
X306721Y173131D01*
X307067Y173073D01*
X307459Y173027D01*
X307874Y172993D01*
Y172036D01*
X307782D01*
X307713Y172047D01*
X307632D01*
X307528Y172059D01*
X307401Y172070D01*
X307275Y172082D01*
X307125Y172105D01*
X306952Y172128D01*
X306779Y172151D01*
X306594Y172186D01*
X306387Y172220D01*
X306179Y172266D01*
X305718Y172382D01*
X305706D01*
X305660Y172393D01*
X305591Y172416D01*
X305499Y172439D01*
X305383Y172474D01*
X305257Y172520D01*
X305107Y172566D01*
X304934Y172624D01*
X304761Y172693D01*
X304565Y172762D01*
X304150Y172924D01*
X303712Y173120D01*
X303274Y173339D01*
X303262Y173350D01*
X303216Y173373D01*
X303158Y173408D01*
X303078Y173454D01*
X302974Y173512D01*
X302858Y173581D01*
X302732Y173661D01*
X302582Y173742D01*
X302270Y173950D01*
X301936Y174180D01*
X301602Y174423D01*
X301279Y174688D01*
Y170975D01*
X300391D01*
Y175875D01*
X301117D01*
X301129Y175864D01*
D02*
G37*
G36*
X307874Y167608D02*
X301948D01*
X301959Y167597D01*
X302005Y167551D01*
X302063Y167470D01*
X302144Y167366D01*
X302247Y167239D01*
X302351Y167089D01*
X302478Y166916D01*
X302593Y166720D01*
Y166709D01*
X302605Y166697D01*
X302651Y166628D01*
X302709Y166524D01*
X302778Y166398D01*
X302858Y166248D01*
X302928Y166086D01*
X303008Y165913D01*
X303078Y165752D01*
X302167D01*
Y165763D01*
X302155Y165787D01*
X302132Y165833D01*
X302098Y165879D01*
X302063Y165948D01*
X302028Y166029D01*
X301924Y166213D01*
X301798Y166421D01*
X301648Y166651D01*
X301475Y166882D01*
X301290Y167101D01*
X301279Y167112D01*
X301267Y167124D01*
X301198Y167193D01*
X301094Y167297D01*
X300968Y167424D01*
X300806Y167562D01*
X300633Y167701D01*
X300449Y167827D01*
X300264Y167931D01*
Y168542D01*
X307874D01*
Y167608D01*
D02*
G37*
G36*
X294302Y11824D02*
X294406D01*
X294521Y11812D01*
X294648Y11801D01*
X294913Y11755D01*
X295190Y11697D01*
X295467Y11616D01*
X295709Y11512D01*
X295720D01*
X295732Y11501D01*
X295813Y11455D01*
X295917Y11374D01*
X296055Y11270D01*
X296205Y11144D01*
X296355Y10982D01*
X296504Y10798D01*
X296643Y10578D01*
Y10567D01*
X296654Y10555D01*
X296677Y10521D01*
X296689Y10475D01*
X296747Y10348D01*
X296804Y10187D01*
X296873Y9990D01*
X296920Y9771D01*
X296966Y9529D01*
X296977Y9264D01*
Y9253D01*
Y9218D01*
Y9149D01*
X296966Y9068D01*
X296954Y8976D01*
X296943Y8861D01*
X296920Y8734D01*
X296885Y8595D01*
X296793Y8307D01*
X296735Y8146D01*
X296666Y7996D01*
X296585Y7834D01*
X296481Y7684D01*
X296366Y7535D01*
X296239Y7396D01*
X296228Y7385D01*
X296205Y7362D01*
X296159Y7327D01*
X296101Y7293D01*
X296020Y7235D01*
X295928Y7177D01*
X295824Y7108D01*
X295697Y7050D01*
X295548Y6981D01*
X295398Y6912D01*
X295213Y6854D01*
X295029Y6808D01*
X294821Y6762D01*
X294602Y6728D01*
X294360Y6704D01*
X294106Y6693D01*
X294037D01*
X293956Y6704D01*
X293853D01*
X293726Y6716D01*
X293587Y6739D01*
X293426Y6762D01*
X293253Y6797D01*
X293069Y6843D01*
X292884Y6900D01*
X292700Y6970D01*
X292515Y7050D01*
X292331Y7143D01*
X292158Y7258D01*
X291996Y7385D01*
X291846Y7535D01*
X291835Y7546D01*
X291823Y7569D01*
X291789Y7604D01*
X291754Y7661D01*
X291708Y7731D01*
X291650Y7811D01*
X291593Y7903D01*
X291535Y8019D01*
X291489Y8134D01*
X291431Y8261D01*
X291328Y8561D01*
X291258Y8895D01*
X291247Y9080D01*
X291235Y9264D01*
Y9276D01*
Y9310D01*
Y9368D01*
X291247Y9449D01*
X291258Y9552D01*
X291270Y9656D01*
X291293Y9783D01*
X291328Y9921D01*
X291420Y10210D01*
X291477Y10359D01*
X291547Y10521D01*
X291639Y10671D01*
X291743Y10821D01*
X291858Y10971D01*
X291985Y11109D01*
X291996Y11120D01*
X292019Y11144D01*
X292065Y11178D01*
X292123Y11224D01*
X292192Y11282D01*
X292284Y11339D01*
X292400Y11409D01*
X292515Y11478D01*
X292653Y11535D01*
X292815Y11605D01*
X292976Y11662D01*
X293161Y11720D01*
X293357Y11766D01*
X293576Y11801D01*
X293795Y11824D01*
X294037Y11835D01*
X294210D01*
X294302Y11824D01*
D02*
G37*
G36*
X296850Y12908D02*
X289275D01*
Y13841D01*
X296850D01*
Y12908D01*
D02*
G37*
G36*
X294256Y172243D02*
X294383Y172232D01*
X294510Y172220D01*
X294671Y172197D01*
X294833Y172163D01*
X295179Y172082D01*
X295363Y172024D01*
X295548Y171955D01*
X295732Y171874D01*
X295905Y171782D01*
X296066Y171678D01*
X296216Y171552D01*
X296228Y171540D01*
X296251Y171517D01*
X296285Y171482D01*
X296332Y171425D01*
X296389Y171367D01*
X296458Y171286D01*
X296528Y171194D01*
X296597Y171079D01*
X296735Y170837D01*
X296862Y170560D01*
X296908Y170398D01*
X296943Y170237D01*
X296966Y170064D01*
X296977Y169880D01*
Y169868D01*
Y169834D01*
Y169787D01*
X296966Y169718D01*
X296954Y169638D01*
X296931Y169545D01*
X296873Y169326D01*
X296839Y169211D01*
X296781Y169084D01*
X296712Y168957D01*
X296631Y168830D01*
X296539Y168715D01*
X296435Y168588D01*
X296308Y168473D01*
X296170Y168369D01*
X296850D01*
Y167505D01*
X289275D01*
Y168438D01*
X291973D01*
X291962Y168450D01*
X291939Y168461D01*
X291904Y168496D01*
X291858Y168542D01*
X291800Y168600D01*
X291743Y168669D01*
X291604Y168842D01*
X291466Y169050D01*
X291351Y169315D01*
X291304Y169453D01*
X291270Y169603D01*
X291247Y169764D01*
X291235Y169926D01*
Y169937D01*
Y169949D01*
Y170018D01*
X291247Y170110D01*
X291258Y170237D01*
X291281Y170387D01*
X291328Y170548D01*
X291374Y170710D01*
X291443Y170883D01*
X291454Y170906D01*
X291477Y170964D01*
X291524Y171044D01*
X291593Y171148D01*
X291673Y171263D01*
X291777Y171379D01*
X291893Y171505D01*
X292019Y171621D01*
X292031Y171632D01*
X292089Y171667D01*
X292169Y171724D01*
X292273Y171794D01*
X292400Y171863D01*
X292550Y171943D01*
X292723Y172013D01*
X292919Y172082D01*
X292942Y172093D01*
X293011Y172105D01*
X293115Y172140D01*
X293253Y172174D01*
X293414Y172197D01*
X293599Y172232D01*
X293807Y172243D01*
X294025Y172255D01*
X294164D01*
X294256Y172243D01*
D02*
G37*
G36*
X294579Y163642D02*
X293645D01*
Y166490D01*
X294579D01*
Y163642D01*
D02*
G37*
G36*
X296943Y175818D02*
X296954D01*
X296977Y175806D01*
X297023Y175783D01*
X297093Y175760D01*
X297162Y175737D01*
X297242Y175702D01*
X297438Y175633D01*
X297646Y175541D01*
X297842Y175460D01*
X298038Y175379D01*
X298119Y175333D01*
X298188Y175299D01*
X298211Y175287D01*
X298257Y175253D01*
X298338Y175206D01*
X298442Y175137D01*
X298545Y175045D01*
X298661Y174953D01*
X298764Y174838D01*
X298857Y174722D01*
X298868Y174711D01*
X298891Y174665D01*
X298926Y174595D01*
X298960Y174503D01*
X299007Y174399D01*
X299041Y174261D01*
X299064Y174123D01*
X299076Y173961D01*
Y173950D01*
Y173915D01*
X299064Y173857D01*
Y173788D01*
X299053Y173696D01*
X299030Y173592D01*
X298960Y173362D01*
X298096Y173258D01*
Y173269D01*
X298107Y173304D01*
X298119Y173362D01*
X298142Y173442D01*
X298176Y173604D01*
X298188Y173788D01*
Y173800D01*
Y173846D01*
X298176Y173892D01*
Y173973D01*
X298142Y174134D01*
X298119Y174215D01*
X298084Y174284D01*
Y174296D01*
X298061Y174319D01*
X298038Y174353D01*
X298003Y174388D01*
X297911Y174492D01*
X297784Y174595D01*
X297773D01*
X297750Y174607D01*
X297715Y174630D01*
X297646Y174665D01*
X297554Y174699D01*
X297438Y174745D01*
X297277Y174803D01*
X297093Y174872D01*
X297081Y174884D01*
X297035Y174895D01*
X296966Y174930D01*
X296862Y174964D01*
X291362Y172877D01*
Y173869D01*
X294521Y175011D01*
X294533D01*
X294544Y175022D01*
X294579Y175033D01*
X294625Y175045D01*
X294752Y175091D01*
X294913Y175149D01*
X295098Y175206D01*
X295317Y175276D01*
X295548Y175345D01*
X295790Y175414D01*
X295778D01*
X295767Y175426D01*
X295732D01*
X295686Y175449D01*
X295559Y175472D01*
X295409Y175518D01*
X295225Y175575D01*
X295017Y175645D01*
X294798Y175714D01*
X294567Y175794D01*
X291362Y176971D01*
Y177893D01*
X296943Y175818D01*
D02*
G37*
G36*
X295421Y186391D02*
X295524Y186367D01*
X295663Y186333D01*
X295813Y186287D01*
X295963Y186218D01*
X296124Y186125D01*
X296147Y186114D01*
X296193Y186079D01*
X296262Y186010D01*
X296355Y185918D01*
X296458Y185814D01*
X296562Y185676D01*
X296666Y185514D01*
X296758Y185330D01*
X296770Y185307D01*
X296793Y185238D01*
X296827Y185134D01*
X296862Y184995D01*
X296908Y184822D01*
X296943Y184626D01*
X296966Y184407D01*
X296977Y184177D01*
Y184165D01*
Y184131D01*
Y184073D01*
X296966Y184004D01*
Y183912D01*
X296954Y183808D01*
X296920Y183566D01*
X296873Y183301D01*
X296793Y183035D01*
X296689Y182770D01*
X296620Y182655D01*
X296539Y182540D01*
Y182528D01*
X296516Y182517D01*
X296458Y182447D01*
X296355Y182355D01*
X296205Y182240D01*
X296020Y182124D01*
X295790Y182009D01*
X295524Y181905D01*
X295213Y181836D01*
X295063Y182759D01*
X295086D01*
X295156Y182770D01*
X295259Y182805D01*
X295386Y182839D01*
X295524Y182897D01*
X295663Y182966D01*
X295801Y183070D01*
X295928Y183185D01*
X295939Y183197D01*
X295974Y183254D01*
X296020Y183335D01*
X296066Y183439D01*
X296124Y183589D01*
X296170Y183750D01*
X296205Y183958D01*
X296216Y184177D01*
Y184188D01*
Y184200D01*
Y184234D01*
Y184281D01*
X296205Y184396D01*
X296182Y184534D01*
X296159Y184696D01*
X296112Y184857D01*
X296043Y185007D01*
X295963Y185134D01*
X295951Y185145D01*
X295917Y185180D01*
X295859Y185238D01*
X295790Y185295D01*
X295697Y185341D01*
X295582Y185399D01*
X295467Y185434D01*
X295340Y185445D01*
X295282D01*
X295236Y185434D01*
X295156Y185410D01*
X295086Y185376D01*
X294994Y185330D01*
X294913Y185261D01*
X294844Y185168D01*
X294833Y185157D01*
X294821Y185122D01*
X294798Y185065D01*
X294752Y184972D01*
X294717Y184846D01*
X294660Y184684D01*
X294625Y184580D01*
X294602Y184477D01*
X294567Y184350D01*
X294533Y184211D01*
Y184200D01*
X294521Y184165D01*
X294510Y184119D01*
X294487Y184050D01*
X294464Y183958D01*
X294441Y183865D01*
X294371Y183647D01*
X294302Y183416D01*
X294233Y183174D01*
X294152Y182955D01*
X294118Y182862D01*
X294083Y182782D01*
X294072Y182770D01*
X294049Y182712D01*
X294003Y182643D01*
X293945Y182563D01*
X293876Y182459D01*
X293783Y182367D01*
X293680Y182263D01*
X293564Y182182D01*
X293553Y182171D01*
X293507Y182148D01*
X293438Y182124D01*
X293345Y182090D01*
X293242Y182044D01*
X293115Y182021D01*
X292976Y181998D01*
X292826Y181986D01*
X292769D01*
X292688Y181998D01*
X292607Y182009D01*
X292504Y182021D01*
X292388Y182055D01*
X292262Y182090D01*
X292146Y182148D01*
X292135Y182159D01*
X292089Y182182D01*
X292031Y182217D01*
X291962Y182274D01*
X291881Y182332D01*
X291800Y182413D01*
X291708Y182505D01*
X291627Y182609D01*
X291616Y182620D01*
X291604Y182655D01*
X291570Y182701D01*
X291535Y182770D01*
X291489Y182851D01*
X291443Y182955D01*
X291397Y183070D01*
X291351Y183197D01*
Y183220D01*
X291328Y183266D01*
X291316Y183335D01*
X291293Y183439D01*
X291270Y183566D01*
X291258Y183693D01*
X291235Y183843D01*
Y184004D01*
Y184015D01*
Y184038D01*
Y184062D01*
Y184108D01*
X291247Y184234D01*
X291258Y184384D01*
X291281Y184569D01*
X291316Y184753D01*
X291362Y184949D01*
X291431Y185134D01*
Y185145D01*
X291443Y185157D01*
X291466Y185214D01*
X291512Y185307D01*
X291558Y185410D01*
X291639Y185526D01*
X291720Y185653D01*
X291823Y185768D01*
X291939Y185860D01*
X291950Y185872D01*
X291996Y185895D01*
X292065Y185941D01*
X292158Y185999D01*
X292273Y186045D01*
X292423Y186102D01*
X292584Y186149D01*
X292769Y186195D01*
X292896Y185284D01*
X292873D01*
X292826Y185272D01*
X292746Y185249D01*
X292653Y185214D01*
X292550Y185168D01*
X292446Y185099D01*
X292331Y185019D01*
X292238Y184915D01*
X292227Y184903D01*
X292204Y184857D01*
X292158Y184788D01*
X292112Y184696D01*
X292077Y184580D01*
X292031Y184431D01*
X292008Y184269D01*
X291996Y184073D01*
Y184062D01*
Y184050D01*
Y184015D01*
Y183969D01*
X292008Y183854D01*
X292019Y183716D01*
X292054Y183566D01*
X292089Y183416D01*
X292146Y183266D01*
X292215Y183151D01*
X292227Y183139D01*
X292250Y183105D01*
X292296Y183070D01*
X292354Y183024D01*
X292423Y182966D01*
X292515Y182932D01*
X292607Y182897D01*
X292711Y182886D01*
X292746D01*
X292780Y182897D01*
X292826D01*
X292930Y182932D01*
X293045Y182989D01*
X293057Y183001D01*
X293069Y183012D01*
X293126Y183081D01*
X293172Y183128D01*
X293207Y183185D01*
X293253Y183266D01*
X293288Y183347D01*
Y183358D01*
X293299Y183381D01*
X293311Y183427D01*
X293334Y183508D01*
X293368Y183612D01*
X293414Y183762D01*
X293461Y183946D01*
X293495Y184050D01*
X293530Y184177D01*
Y184188D01*
X293541Y184223D01*
X293553Y184269D01*
X293576Y184338D01*
X293599Y184419D01*
X293622Y184511D01*
X293680Y184719D01*
X293749Y184949D01*
X293829Y185180D01*
X293899Y185388D01*
X293933Y185480D01*
X293968Y185560D01*
X293979Y185583D01*
X294003Y185630D01*
X294037Y185699D01*
X294083Y185780D01*
X294152Y185883D01*
X294245Y185987D01*
X294337Y186079D01*
X294452Y186171D01*
X294464Y186183D01*
X294510Y186206D01*
X294579Y186241D01*
X294671Y186287D01*
X294787Y186333D01*
X294925Y186367D01*
X295075Y186391D01*
X295248Y186402D01*
X295328D01*
X295421Y186391D01*
D02*
G37*
G36*
X294579Y178331D02*
X293645D01*
Y181179D01*
X294579D01*
Y178331D01*
D02*
G37*
%LPC*%
G36*
X303292Y31321D02*
X302784D01*
X302657Y31310D01*
X302507D01*
X302335Y31298D01*
X302150Y31286D01*
X301942Y31263D01*
X301528Y31217D01*
X301124Y31137D01*
X300928Y31090D01*
X300755Y31033D01*
X300605Y30964D01*
X300478Y30883D01*
X300467D01*
X300455Y30860D01*
X300386Y30802D01*
X300282Y30710D01*
X300167Y30583D01*
X300052Y30422D01*
X299948Y30237D01*
X299879Y30030D01*
X299867Y29914D01*
X299856Y29799D01*
Y29787D01*
Y29776D01*
Y29741D01*
X299867Y29695D01*
X299879Y29580D01*
X299925Y29430D01*
X299994Y29269D01*
X300086Y29096D01*
X300225Y28923D01*
X300317Y28842D01*
X300409Y28773D01*
X300421D01*
X300444Y28750D01*
X300490Y28727D01*
X300547Y28704D01*
X300628Y28669D01*
X300720Y28623D01*
X300847Y28577D01*
X300986Y28542D01*
X301147Y28496D01*
X301331Y28450D01*
X301539Y28415D01*
X301781Y28369D01*
X302035Y28346D01*
X302311Y28323D01*
X302623Y28300D01*
X303130D01*
X303257Y28312D01*
X303407D01*
X303580Y28323D01*
X303776Y28335D01*
X303972Y28358D01*
X304387Y28404D01*
X304802Y28485D01*
X304987Y28531D01*
X305159Y28588D01*
X305321Y28658D01*
X305448Y28727D01*
X305459D01*
X305471Y28750D01*
X305540Y28808D01*
X305644Y28900D01*
X305747Y29026D01*
X305863Y29188D01*
X305966Y29372D01*
X306036Y29580D01*
X306047Y29695D01*
X306059Y29811D01*
Y29822D01*
Y29834D01*
Y29868D01*
X306047Y29914D01*
X306024Y30030D01*
X305978Y30180D01*
X305909Y30353D01*
X305805Y30525D01*
X305736Y30618D01*
X305644Y30710D01*
X305551Y30802D01*
X305448Y30883D01*
X305436D01*
X305413Y30906D01*
X305379Y30929D01*
X305321Y30952D01*
X305252Y30987D01*
X305148Y31021D01*
X305033Y31056D01*
X304906Y31102D01*
X304744Y31148D01*
X304571Y31183D01*
X304364Y31217D01*
X304133Y31252D01*
X303880Y31286D01*
X303603Y31298D01*
X303292Y31321D01*
D02*
G37*
G36*
X304225Y10602D02*
X303937D01*
X303856Y10590D01*
X303764D01*
X303660Y10578D01*
X303407Y10544D01*
X303142Y10498D01*
X302865Y10417D01*
X302600Y10313D01*
X302484Y10244D01*
X302381Y10163D01*
X302369D01*
X302358Y10140D01*
X302300Y10083D01*
X302208Y9990D01*
X302116Y9864D01*
X302023Y9714D01*
X301931Y9529D01*
X301873Y9322D01*
X301850Y9206D01*
Y9091D01*
Y9080D01*
Y9068D01*
Y9033D01*
X301862Y8987D01*
X301873Y8872D01*
X301908Y8734D01*
X301977Y8572D01*
X302069Y8399D01*
X302185Y8226D01*
X302265Y8146D01*
X302358Y8065D01*
X302381Y8042D01*
X302415Y8030D01*
X302450Y7996D01*
X302507Y7973D01*
X302577Y7938D01*
X302657Y7892D01*
X302750Y7857D01*
X302853Y7823D01*
X302969Y7777D01*
X303107Y7742D01*
X303245Y7719D01*
X303407Y7684D01*
X303580Y7673D01*
X303764Y7650D01*
X304064D01*
X304133Y7661D01*
X304225D01*
X304318Y7673D01*
X304560Y7708D01*
X304814Y7754D01*
X305079Y7834D01*
X305321Y7938D01*
X305436Y8007D01*
X305540Y8088D01*
X305563Y8111D01*
X305621Y8169D01*
X305701Y8261D01*
X305794Y8388D01*
X305897Y8538D01*
X305978Y8711D01*
X306036Y8918D01*
X306047Y9022D01*
X306059Y9137D01*
Y9149D01*
Y9160D01*
Y9195D01*
X306047Y9241D01*
X306036Y9356D01*
X306001Y9495D01*
X305932Y9656D01*
X305851Y9829D01*
X305724Y10013D01*
X305655Y10094D01*
X305563Y10175D01*
X305551D01*
X305540Y10198D01*
X305505Y10210D01*
X305471Y10244D01*
X305413Y10279D01*
X305355Y10313D01*
X305275Y10348D01*
X305183Y10394D01*
X305090Y10429D01*
X304975Y10463D01*
X304848Y10498D01*
X304710Y10532D01*
X304560Y10567D01*
X304398Y10578D01*
X304225Y10602D01*
D02*
G37*
G36*
X294279Y36164D02*
X293991D01*
X293910Y36152D01*
X293829D01*
X293737Y36140D01*
X293507Y36106D01*
X293265Y36048D01*
X292999Y35968D01*
X292757Y35852D01*
X292538Y35691D01*
X292527D01*
X292515Y35668D01*
X292458Y35610D01*
X292365Y35506D01*
X292273Y35379D01*
X292181Y35207D01*
X292089Y35011D01*
X292031Y34791D01*
X292008Y34676D01*
Y34549D01*
Y34538D01*
Y34515D01*
Y34480D01*
X292019Y34434D01*
X292031Y34307D01*
X292077Y34146D01*
X292135Y33961D01*
X292227Y33765D01*
X292365Y33569D01*
X292446Y33477D01*
X292538Y33385D01*
X292561Y33362D01*
X292596Y33339D01*
X292630Y33316D01*
X292688Y33281D01*
X292757Y33246D01*
X292838Y33200D01*
X292930Y33166D01*
X293034Y33120D01*
X293149Y33073D01*
X293276Y33039D01*
X293426Y33004D01*
X293576Y32981D01*
X293749Y32958D01*
X293922Y32935D01*
X294221D01*
X294291Y32947D01*
X294371D01*
X294475Y32958D01*
X294706Y32993D01*
X294959Y33051D01*
X295225Y33120D01*
X295478Y33235D01*
X295594Y33304D01*
X295697Y33385D01*
X295720Y33408D01*
X295778Y33466D01*
X295859Y33569D01*
X295951Y33708D01*
X296055Y33869D01*
X296135Y34077D01*
X296193Y34296D01*
X296205Y34423D01*
X296216Y34549D01*
Y34561D01*
Y34584D01*
Y34619D01*
X296205Y34665D01*
X296193Y34791D01*
X296147Y34953D01*
X296089Y35137D01*
X295997Y35333D01*
X295870Y35518D01*
X295790Y35610D01*
X295697Y35702D01*
X295686D01*
X295674Y35725D01*
X295640Y35748D01*
X295594Y35772D01*
X295536Y35806D01*
X295467Y35852D01*
X295386Y35887D01*
X295294Y35933D01*
X295190Y35979D01*
X295075Y36014D01*
X294936Y36060D01*
X294787Y36094D01*
X294637Y36118D01*
X294464Y36140D01*
X294279Y36164D01*
D02*
G37*
G36*
X303430Y16678D02*
X303395D01*
X303361Y16666D01*
X303315D01*
X303188Y16643D01*
X303038Y16609D01*
X302876Y16563D01*
X302703Y16493D01*
X302531Y16424D01*
X302392Y16320D01*
X302381D01*
X302369Y16297D01*
X302300Y16240D01*
X302219Y16136D01*
X302116Y16009D01*
X302012Y15836D01*
X301920Y15640D01*
X301862Y15421D01*
X301850Y15294D01*
X301839Y15168D01*
Y15156D01*
Y15144D01*
Y15110D01*
X301850Y15064D01*
X301862Y14937D01*
X301896Y14787D01*
X301942Y14614D01*
X302023Y14441D01*
X302127Y14257D01*
X302277Y14084D01*
X302300Y14061D01*
X302358Y14015D01*
X302450Y13945D01*
X302588Y13865D01*
X302750Y13784D01*
X302946Y13703D01*
X303176Y13645D01*
X303430Y13611D01*
Y16678D01*
D02*
G37*
G36*
X294383Y30018D02*
X294095D01*
X294014Y30007D01*
X293922D01*
X293818Y29995D01*
X293564Y29960D01*
X293299Y29914D01*
X293022Y29834D01*
X292757Y29730D01*
X292642Y29661D01*
X292538Y29580D01*
X292527D01*
X292515Y29557D01*
X292458Y29499D01*
X292365Y29407D01*
X292273Y29280D01*
X292181Y29130D01*
X292089Y28946D01*
X292031Y28738D01*
X292008Y28623D01*
Y28508D01*
Y28496D01*
Y28485D01*
Y28450D01*
X292019Y28404D01*
X292031Y28289D01*
X292065Y28150D01*
X292135Y27989D01*
X292227Y27816D01*
X292342Y27643D01*
X292423Y27562D01*
X292515Y27481D01*
X292538Y27458D01*
X292573Y27447D01*
X292607Y27412D01*
X292665Y27389D01*
X292734Y27355D01*
X292815Y27308D01*
X292907Y27274D01*
X293011Y27239D01*
X293126Y27193D01*
X293265Y27159D01*
X293403Y27136D01*
X293564Y27101D01*
X293737Y27090D01*
X293922Y27066D01*
X294221D01*
X294291Y27078D01*
X294383D01*
X294475Y27090D01*
X294717Y27124D01*
X294971Y27170D01*
X295236Y27251D01*
X295478Y27355D01*
X295594Y27424D01*
X295697Y27505D01*
X295720Y27528D01*
X295778Y27585D01*
X295859Y27678D01*
X295951Y27804D01*
X296055Y27954D01*
X296135Y28127D01*
X296193Y28335D01*
X296205Y28438D01*
X296216Y28554D01*
Y28565D01*
Y28577D01*
Y28611D01*
X296205Y28657D01*
X296193Y28773D01*
X296159Y28911D01*
X296089Y29073D01*
X296009Y29246D01*
X295882Y29430D01*
X295813Y29511D01*
X295720Y29592D01*
X295709D01*
X295697Y29614D01*
X295663Y29626D01*
X295628Y29661D01*
X295571Y29695D01*
X295513Y29730D01*
X295432Y29764D01*
X295340Y29811D01*
X295248Y29845D01*
X295132Y29880D01*
X295006Y29914D01*
X294867Y29949D01*
X294717Y29983D01*
X294556Y29995D01*
X294383Y30018D01*
D02*
G37*
G36*
X304473Y163135D02*
X303965D01*
X303838Y163123D01*
X303689D01*
X303516Y163111D01*
X303331Y163100D01*
X303124Y163077D01*
X302709Y163031D01*
X302305Y162950D01*
X302109Y162904D01*
X301936Y162846D01*
X301786Y162777D01*
X301659Y162697D01*
X301648D01*
X301636Y162673D01*
X301567Y162616D01*
X301463Y162523D01*
X301348Y162397D01*
X301233Y162235D01*
X301129Y162051D01*
X301060Y161843D01*
X301048Y161728D01*
X301037Y161613D01*
Y161601D01*
Y161590D01*
Y161555D01*
X301048Y161509D01*
X301060Y161394D01*
X301106Y161244D01*
X301175Y161082D01*
X301267Y160909D01*
X301406Y160736D01*
X301498Y160656D01*
X301590Y160587D01*
X301602D01*
X301625Y160563D01*
X301671Y160540D01*
X301729Y160517D01*
X301809Y160483D01*
X301902Y160437D01*
X302028Y160390D01*
X302167Y160356D01*
X302328Y160310D01*
X302513Y160264D01*
X302720Y160229D01*
X302962Y160183D01*
X303216Y160160D01*
X303493Y160137D01*
X303804Y160114D01*
X304311D01*
X304438Y160125D01*
X304588D01*
X304761Y160137D01*
X304957Y160148D01*
X305153Y160171D01*
X305568Y160217D01*
X305983Y160298D01*
X306168Y160344D01*
X306341Y160402D01*
X306502Y160471D01*
X306629Y160540D01*
X306640D01*
X306652Y160563D01*
X306721Y160621D01*
X306825Y160713D01*
X306929Y160840D01*
X307044Y161002D01*
X307148Y161186D01*
X307217Y161394D01*
X307228Y161509D01*
X307240Y161624D01*
Y161636D01*
Y161647D01*
Y161682D01*
X307228Y161728D01*
X307205Y161843D01*
X307159Y161993D01*
X307090Y162166D01*
X306986Y162339D01*
X306917Y162431D01*
X306825Y162523D01*
X306733Y162616D01*
X306629Y162697D01*
X306617D01*
X306594Y162720D01*
X306560Y162743D01*
X306502Y162766D01*
X306433Y162800D01*
X306329Y162835D01*
X306214Y162869D01*
X306087Y162916D01*
X305925Y162962D01*
X305752Y162996D01*
X305545Y163031D01*
X305314Y163065D01*
X305061Y163100D01*
X304784Y163111D01*
X304473Y163135D01*
D02*
G37*
G36*
X294441Y191003D02*
X294095D01*
X294106Y190980D01*
X294118Y190945D01*
X294129Y190910D01*
X294152Y190853D01*
X294164Y190784D01*
X294187Y190714D01*
X294221Y190622D01*
X294245Y190518D01*
X294268Y190403D01*
X294302Y190288D01*
X294337Y190149D01*
X294360Y189999D01*
X294394Y189838D01*
X294418Y189665D01*
X294452Y189481D01*
Y189469D01*
Y189458D01*
X294464Y189388D01*
X294487Y189285D01*
X294510Y189158D01*
X294567Y188893D01*
X294602Y188766D01*
X294637Y188662D01*
Y188651D01*
X294660Y188627D01*
X294683Y188581D01*
X294717Y188535D01*
X294810Y188420D01*
X294948Y188305D01*
X294959D01*
X294983Y188282D01*
X295017Y188270D01*
X295075Y188247D01*
X295213Y188201D01*
X295294Y188189D01*
X295386Y188178D01*
X295444D01*
X295513Y188189D01*
X295605Y188212D01*
X295697Y188247D01*
X295801Y188293D01*
X295905Y188362D01*
X296009Y188454D01*
X296020Y188466D01*
X296043Y188512D01*
X296089Y188570D01*
X296124Y188662D01*
X296170Y188777D01*
X296216Y188927D01*
X296239Y189089D01*
X296251Y189285D01*
Y189296D01*
Y189308D01*
Y189377D01*
X296239Y189469D01*
X296216Y189608D01*
X296193Y189746D01*
X296159Y189907D01*
X296101Y190069D01*
X296020Y190230D01*
X296009Y190253D01*
X295974Y190299D01*
X295928Y190380D01*
X295847Y190472D01*
X295767Y190565D01*
X295651Y190668D01*
X295524Y190772D01*
X295374Y190853D01*
X295363Y190864D01*
X295317Y190876D01*
X295248Y190899D01*
X295144Y190933D01*
X295006Y190956D01*
X294844Y190980D01*
X294660Y190991D01*
X294441Y191003D01*
D02*
G37*
G36*
X294279Y10878D02*
X293991D01*
X293910Y10867D01*
X293829D01*
X293737Y10855D01*
X293507Y10821D01*
X293265Y10763D01*
X292999Y10682D01*
X292757Y10567D01*
X292538Y10406D01*
X292527D01*
X292515Y10383D01*
X292458Y10325D01*
X292365Y10221D01*
X292273Y10094D01*
X292181Y9921D01*
X292089Y9725D01*
X292031Y9506D01*
X292008Y9391D01*
Y9264D01*
Y9253D01*
Y9229D01*
Y9195D01*
X292019Y9149D01*
X292031Y9022D01*
X292077Y8861D01*
X292135Y8676D01*
X292227Y8480D01*
X292365Y8284D01*
X292446Y8192D01*
X292538Y8100D01*
X292561Y8077D01*
X292596Y8053D01*
X292630Y8030D01*
X292688Y7996D01*
X292757Y7961D01*
X292838Y7915D01*
X292930Y7880D01*
X293034Y7834D01*
X293149Y7788D01*
X293276Y7754D01*
X293426Y7719D01*
X293576Y7696D01*
X293749Y7673D01*
X293922Y7650D01*
X294221D01*
X294291Y7661D01*
X294371D01*
X294475Y7673D01*
X294706Y7707D01*
X294959Y7765D01*
X295225Y7834D01*
X295478Y7950D01*
X295594Y8019D01*
X295697Y8100D01*
X295720Y8123D01*
X295778Y8180D01*
X295859Y8284D01*
X295951Y8422D01*
X296055Y8584D01*
X296135Y8791D01*
X296193Y9010D01*
X296205Y9137D01*
X296216Y9264D01*
Y9276D01*
Y9299D01*
Y9333D01*
X296205Y9379D01*
X296193Y9506D01*
X296147Y9668D01*
X296089Y9852D01*
X295997Y10048D01*
X295870Y10233D01*
X295790Y10325D01*
X295697Y10417D01*
X295686D01*
X295674Y10440D01*
X295640Y10463D01*
X295594Y10486D01*
X295536Y10521D01*
X295467Y10567D01*
X295386Y10602D01*
X295294Y10648D01*
X295190Y10694D01*
X295075Y10728D01*
X294936Y10774D01*
X294787Y10809D01*
X294637Y10832D01*
X294464Y10855D01*
X294279Y10878D01*
D02*
G37*
G36*
X294302Y171298D02*
X294003D01*
X293933Y171286D01*
X293841D01*
X293737Y171275D01*
X293507Y171240D01*
X293242Y171194D01*
X292988Y171113D01*
X292734Y171010D01*
X292619Y170952D01*
X292515Y170871D01*
X292504D01*
X292492Y170848D01*
X292434Y170791D01*
X292354Y170710D01*
X292250Y170583D01*
X292158Y170433D01*
X292077Y170249D01*
X292019Y170053D01*
X291996Y169949D01*
Y169834D01*
Y169822D01*
Y169810D01*
Y169776D01*
X292008Y169730D01*
X292019Y169615D01*
X292065Y169476D01*
X292123Y169315D01*
X292227Y169130D01*
X292354Y168957D01*
X292446Y168865D01*
X292538Y168784D01*
X292550D01*
X292561Y168761D01*
X292596Y168750D01*
X292642Y168715D01*
X292688Y168681D01*
X292757Y168646D01*
X292838Y168611D01*
X292930Y168565D01*
X293034Y168519D01*
X293149Y168484D01*
X293276Y168450D01*
X293403Y168415D01*
X293714Y168369D01*
X294072Y168346D01*
X294233D01*
X294314Y168358D01*
X294406D01*
X294625Y168381D01*
X294856Y168415D01*
X295098Y168461D01*
X295317Y168519D01*
X295409Y168565D01*
X295501Y168611D01*
X295513D01*
X295536Y168634D01*
X295571Y168658D01*
X295617Y168692D01*
X295732Y168784D01*
X295859Y168923D01*
X295986Y169096D01*
X296101Y169303D01*
X296147Y169407D01*
X296182Y169534D01*
X296205Y169661D01*
X296216Y169799D01*
Y169810D01*
Y169822D01*
Y169857D01*
X296205Y169903D01*
X296193Y170018D01*
X296147Y170156D01*
X296089Y170329D01*
X295997Y170502D01*
X295859Y170675D01*
X295778Y170767D01*
X295686Y170848D01*
X295674D01*
X295663Y170871D01*
X295628Y170894D01*
X295582Y170917D01*
X295536Y170952D01*
X295467Y170986D01*
X295386Y171033D01*
X295294Y171079D01*
X295179Y171113D01*
X295063Y171160D01*
X294936Y171194D01*
X294798Y171229D01*
X294637Y171252D01*
X294475Y171275D01*
X294302Y171298D01*
D02*
G37*
%LPD*%
D26*
X196850Y122047D02*
G03*
X196850Y122047I-19685J0D01*
G01*
Y74803D02*
G03*
X196850Y74803I-19685J0D01*
G01*
X59055D02*
G03*
X59055Y74803I-19685J0D01*
G01*
Y122047D02*
G03*
X59055Y122047I-19685J0D01*
G01*
X338181Y150925D02*
G03*
X338181Y150925I-3536J0D01*
G01*
Y48425D02*
G03*
X338181Y48425I-3536J0D01*
G01*
X22638Y19685D02*
G03*
X22638Y19685I-10827J0D01*
G01*
Y177165D02*
G03*
X22638Y177165I-10827J0D01*
G01*
X337598D02*
G03*
X337598Y177165I-10827J0D01*
G01*
Y19685D02*
G03*
X337598Y19685I-10827J0D01*
G01*
X168307Y62992D02*
G03*
X168307Y62992I-10827J0D01*
G01*
Y133858D02*
G03*
X168307Y133858I-10827J0D01*
G01*
X118898Y121653D02*
X120866Y126378D01*
X125984Y116535D02*
Y117717D01*
X131102D01*
X140551D02*
Y118898D01*
X135827Y117717D02*
X140551D01*
X121653Y110236D02*
X145276D01*
X121653D02*
Y125197D01*
X145276D01*
Y110236D02*
Y125197D01*
X135827Y113779D02*
Y121653D01*
X131102Y113779D02*
Y121653D01*
X132677Y114961D02*
Y120473D01*
X134252D01*
Y114961D02*
Y120473D01*
X132677Y114961D02*
X134252D01*
X186221Y129527D02*
Y134252D01*
X183858Y131890D02*
X188583D01*
X190551Y112205D02*
X192520Y110236D01*
X187008Y112205D02*
X190945Y108268D01*
X183071Y112205D02*
X188976Y106299D01*
X179134Y112205D02*
X186221Y105118D01*
X175197Y112205D02*
X183465Y103937D01*
X171260Y112205D02*
X180709Y102756D01*
X167323Y112205D02*
X177165Y102362D01*
X163386Y112205D02*
X172441Y103150D01*
X160236Y112205D02*
X193701D01*
X295276Y94488D02*
X303150Y102362D01*
X287402D02*
X295276Y94488D01*
X279528D02*
X287402Y102362D01*
X271654D02*
X279528Y94488D01*
X271654D02*
X303150D01*
X271654Y102362D02*
X303150D01*
X295276Y131890D02*
X311024Y135827D01*
X279528D02*
X295276Y131890D01*
X279528Y135827D02*
X311024D01*
Y131890D02*
Y135827D01*
X279528Y131890D02*
X311024D01*
X279528D02*
Y135827D01*
X295276Y61024D02*
X311024Y64961D01*
X279528D02*
X295276Y61024D01*
X279528Y64961D02*
X311024D01*
Y61024D02*
Y64961D01*
X279528Y61024D02*
X311024D01*
X279528D02*
Y64961D01*
X178740Y100787D02*
X185433Y101575D01*
X168110Y62598D02*
Y67323D01*
X165748Y64961D02*
X170472D01*
X161811Y86614D02*
X163779Y84646D01*
X163386Y88583D02*
X167323Y84646D01*
X165354Y90551D02*
X171260Y84646D01*
X168110Y91732D02*
X175197Y84646D01*
X170866Y92913D02*
X179134Y84646D01*
X173622Y94095D02*
X183071Y84646D01*
X177165Y94488D02*
X187008Y84646D01*
X181890Y93701D02*
X190945Y84646D01*
X160630D02*
X194095D01*
X30315Y62598D02*
Y67323D01*
X27953Y64961D02*
X32677D01*
X24016Y86614D02*
X25984Y84646D01*
X25591Y88583D02*
X29528Y84646D01*
X27559Y90551D02*
X33465Y84646D01*
X30315Y91732D02*
X37402Y84646D01*
X33071Y92913D02*
X41339Y84646D01*
X35827Y94095D02*
X45276Y84646D01*
X39370Y94488D02*
X49213Y84646D01*
X44094Y93701D02*
X53150Y84646D01*
X22835D02*
X56299D01*
X48425Y129527D02*
Y134252D01*
X46063Y131890D02*
X50787D01*
X52756Y112205D02*
X54724Y110236D01*
X49213Y112205D02*
X53150Y108268D01*
X45276Y112205D02*
X51181Y106299D01*
X41339Y112205D02*
X48425Y105118D01*
X37402Y112205D02*
X45669Y103937D01*
X33465Y112205D02*
X42913Y102756D01*
X29528Y112205D02*
X39370Y102362D01*
X25591Y112205D02*
X34646Y103150D01*
X22441Y112205D02*
X55905D01*
X10039Y149016D02*
X12008Y147047D01*
X10039Y149016D02*
Y150984D01*
X12008Y152953D01*
X2165D02*
X4134Y150984D01*
Y149016D02*
Y150984D01*
X2165Y147047D02*
X4134Y149016D01*
X2165Y159843D02*
X12008D01*
Y140157D02*
Y159843D01*
X2165Y140157D02*
X12008D01*
X2165D02*
Y159843D01*
X162795Y9449D02*
Y48819D01*
X152953Y9449D02*
X162795D01*
X152953D02*
Y48819D01*
X162795D01*
X160827Y39961D02*
X162795Y41929D01*
X160827Y37992D02*
Y39961D01*
Y37992D02*
X162795Y36024D01*
X160827Y30118D02*
X162795Y32087D01*
X160827Y28150D02*
Y30118D01*
Y28150D02*
X162795Y26181D01*
X152953Y32087D02*
X154921Y30118D01*
Y28150D02*
Y30118D01*
X152953Y26181D02*
X154921Y28150D01*
X152953Y36024D02*
X154921Y37992D01*
Y39961D01*
X152953Y41929D02*
X154921Y39961D01*
X152953Y22244D02*
X154921Y20276D01*
Y18307D02*
Y20276D01*
X152953Y16339D02*
X154921Y18307D01*
X160827D02*
X162795Y16339D01*
X160827Y18307D02*
Y20276D01*
X162795Y22244D01*
X344488Y39370D02*
Y157480D01*
X320866Y96457D02*
Y98425D01*
Y39370D02*
Y96457D01*
Y39370D02*
X350394D01*
Y157480D01*
X320866D02*
X350394D01*
X320866Y98425D02*
Y157480D01*
X4331Y12205D02*
X19291Y27165D01*
X4331D02*
X19291Y12205D01*
X4331Y169685D02*
X19291Y184646D01*
X4331D02*
X19291Y169685D01*
X319291D02*
X334252Y184646D01*
X319291D02*
X334252Y169685D01*
X319291Y12205D02*
X334252Y27165D01*
X319291D02*
X334252Y12205D01*
X150000Y55512D02*
X164961Y70472D01*
X150000D02*
X164961Y55512D01*
X150000Y126378D02*
X164961Y141339D01*
X150000D02*
X164961Y126378D01*
X114961Y111417D02*
X110962D01*
Y113417D01*
X111628Y114083D01*
X112961D01*
X113628Y113417D01*
Y111417D01*
Y112750D02*
X114961Y114083D01*
X111628Y115416D02*
X110962Y116083D01*
Y117415D01*
X111628Y118082D01*
X112295D01*
X112961Y117415D01*
X113628Y118082D01*
X114294D01*
X114961Y117415D01*
Y116083D01*
X114294Y115416D01*
X113628D01*
X112961Y116083D01*
X112295Y115416D01*
X111628D01*
X112961Y116083D02*
Y117415D01*
X94699Y97548D02*
X94033Y96881D01*
Y95548D01*
X94699Y94882D01*
X97365D01*
X98032Y95548D01*
Y96881D01*
X97365Y97548D01*
X98032Y98881D02*
Y100214D01*
Y99547D01*
X94033D01*
X94699Y98881D01*
X97365Y102213D02*
X98032Y102879D01*
Y104212D01*
X97365Y104879D01*
X94699D01*
X94033Y104212D01*
Y102879D01*
X94699Y102213D01*
X95366D01*
X96032Y102879D01*
Y104879D01*
X103847Y93490D02*
X103180Y94156D01*
X101848D01*
X101181Y93490D01*
Y90824D01*
X101848Y90158D01*
X103180D01*
X103847Y90824D01*
X105180Y90158D02*
X106513D01*
X105846D01*
Y94156D01*
X105180Y93490D01*
X108512D02*
X109178Y94156D01*
X110511D01*
X111178Y93490D01*
Y92823D01*
X110511Y92157D01*
X111178Y91490D01*
Y90824D01*
X110511Y90158D01*
X109178D01*
X108512Y90824D01*
Y91490D01*
X109178Y92157D01*
X108512Y92823D01*
Y93490D01*
X109178Y92157D02*
X110511D01*
X20804Y31496D02*
X24803D01*
Y34162D01*
X20804Y38161D02*
Y35495D01*
X24803D01*
Y38161D01*
X22804Y35495D02*
Y36828D01*
X20804Y39494D02*
X24803D01*
Y41493D01*
X24137Y42159D01*
X21471D01*
X20804Y41493D01*
Y39494D01*
X24803Y46158D02*
Y43492D01*
X22137Y46158D01*
X21471D01*
X20804Y45491D01*
Y44159D01*
X21471Y43492D01*
X1256Y34913D02*
X5254D01*
Y37579D01*
X1256Y41578D02*
Y38912D01*
X5254D01*
Y41578D01*
X3255Y38912D02*
Y40245D01*
X1256Y42911D02*
X5254D01*
Y44910D01*
X4588Y45577D01*
X1922D01*
X1256Y44910D01*
Y42911D01*
X5254Y46910D02*
Y48243D01*
Y47576D01*
X1256D01*
X1922Y46910D01*
X139370Y130377D02*
Y129710D01*
X140703Y128377D01*
X142036Y129710D01*
Y130377D01*
X140703Y128377D02*
Y126378D01*
X143369D02*
X144702D01*
X144035D01*
Y130377D01*
X143369Y129710D01*
X156090Y56310D02*
X154757D01*
X155424D01*
Y52978D01*
X154757Y52312D01*
X154091D01*
X153424Y52978D01*
X160089Y56310D02*
X157423D01*
Y54311D01*
X158756Y54978D01*
X159423D01*
X160089Y54311D01*
Y52978D01*
X159423Y52312D01*
X158090D01*
X157423Y52978D01*
X3088Y134162D02*
Y132829D01*
Y133495D01*
X6420D01*
X7087Y132829D01*
Y132162D01*
X6420Y131496D01*
X7087Y137494D02*
X3088D01*
X5087Y135495D01*
Y138161D01*
X285433Y127621D02*
Y124288D01*
X286100Y123622D01*
X287432D01*
X288099Y124288D01*
Y127621D01*
X289432D02*
X292098D01*
Y126954D01*
X289432Y124288D01*
Y123622D01*
X163386Y120928D02*
Y117596D01*
X164052Y116929D01*
X165385D01*
X166052Y117596D01*
Y120928D01*
X170050Y116929D02*
X167385D01*
X170050Y119595D01*
Y120261D01*
X169384Y120928D01*
X168051D01*
X167385Y120261D01*
X187008Y101181D02*
Y105180D01*
X189007D01*
X189674Y104513D01*
Y103180D01*
X189007Y102514D01*
X187008D01*
X188341D02*
X189674Y101181D01*
X193006D02*
Y105180D01*
X191007Y103180D01*
X193672D01*
X15354Y132677D02*
Y136676D01*
X17354D01*
X18020Y136009D01*
Y134677D01*
X17354Y134010D01*
X15354D01*
X16687D02*
X18020Y132677D01*
X19353Y136009D02*
X20019Y136676D01*
X21352D01*
X22019Y136009D01*
Y135343D01*
X21352Y134677D01*
X20686D01*
X21352D01*
X22019Y134010D01*
Y133344D01*
X21352Y132677D01*
X20019D01*
X19353Y133344D01*
X18110Y48819D02*
Y52818D01*
X20110D01*
X20776Y52151D01*
Y50818D01*
X20110Y50152D01*
X18110D01*
X19443D02*
X20776Y48819D01*
X24775D02*
X22109D01*
X24775Y51485D01*
Y52151D01*
X24108Y52818D01*
X22775D01*
X22109Y52151D01*
X7874Y66535D02*
X3875D01*
Y68535D01*
X4542Y69201D01*
X5875D01*
X6541Y68535D01*
Y66535D01*
Y67868D02*
X7874Y69201D01*
Y70534D02*
Y71867D01*
Y71201D01*
X3875D01*
X4542Y70534D01*
X323990Y165010D02*
X322657D01*
X323324D01*
Y161678D01*
X322657Y161012D01*
X321991D01*
X321324Y161678D01*
X325323Y161012D02*
X326656D01*
X325990D01*
Y165010D01*
X325323Y164344D01*
X189280Y98608D02*
X188613Y99274D01*
X187281D01*
X186614Y98608D01*
Y95942D01*
X187281Y95276D01*
X188613D01*
X189280Y95942D01*
X192612Y95276D02*
Y99274D01*
X190613Y97275D01*
X193279D01*
X120684Y130225D02*
X120017Y129558D01*
Y128226D01*
X120684Y127559D01*
X123349D01*
X124016Y128226D01*
Y129558D01*
X123349Y130225D01*
X120684Y131558D02*
X120017Y132224D01*
Y133557D01*
X120684Y134224D01*
X121350D01*
X122016Y133557D01*
Y132891D01*
Y133557D01*
X122683Y134224D01*
X123349D01*
X124016Y133557D01*
Y132224D01*
X123349Y131558D01*
X131800Y136797D02*
X131133Y137463D01*
X129800D01*
X129134Y136797D01*
Y134131D01*
X129800Y133465D01*
X131133D01*
X131800Y134131D01*
X135798Y133465D02*
X133133D01*
X135798Y136130D01*
Y136797D01*
X135132Y137463D01*
X133799D01*
X133133Y136797D01*
X294004Y72896D02*
X292671D01*
X293338D01*
Y69564D01*
X292671Y68898D01*
X292005D01*
X291339Y69564D01*
X295337D02*
X296004Y68898D01*
X297337D01*
X298003Y69564D01*
Y72230D01*
X297337Y72896D01*
X296004D01*
X295337Y72230D01*
Y71563D01*
X296004Y70897D01*
X298003D01*
X306996Y128408D02*
X305664D01*
X306330D01*
Y125076D01*
X305664Y124409D01*
X304997D01*
X304331Y125076D01*
X308329Y127742D02*
X308996Y128408D01*
X310329D01*
X310995Y127742D01*
Y127075D01*
X310329Y126409D01*
X310995Y125742D01*
Y125076D01*
X310329Y124409D01*
X308996D01*
X308329Y125076D01*
Y125742D01*
X308996Y126409D01*
X308329Y127075D01*
Y127742D01*
X308996Y126409D02*
X310329D01*
X65293Y116142D02*
X68625D01*
X69291Y116808D01*
Y118141D01*
X68625Y118807D01*
X65293D01*
Y122806D02*
X65959Y121473D01*
X67292Y120140D01*
X68625D01*
X69291Y120807D01*
Y122140D01*
X68625Y122806D01*
X67958D01*
X67292Y122140D01*
Y120140D01*
X199151Y111417D02*
X202483D01*
X203150Y112084D01*
Y113417D01*
X202483Y114083D01*
X199151D01*
Y118082D02*
Y115416D01*
X201150D01*
X200484Y116749D01*
Y117415D01*
X201150Y118082D01*
X202483D01*
X203150Y117415D01*
Y116083D01*
X202483Y115416D01*
X245214Y74016D02*
X248546D01*
X249213Y74682D01*
Y76015D01*
X248546Y76682D01*
X245214D01*
X249213Y80014D02*
X245214D01*
X247213Y78014D01*
Y80680D01*
X145214Y83071D02*
X148546D01*
X149213Y83737D01*
Y85070D01*
X148546Y85737D01*
X145214D01*
X145880Y87070D02*
X145214Y87736D01*
Y89069D01*
X145880Y89735D01*
X146547D01*
X147213Y89069D01*
Y88402D01*
Y89069D01*
X147880Y89735D01*
X148546D01*
X149213Y89069D01*
Y87736D01*
X148546Y87070D01*
X67716Y99668D02*
Y96336D01*
X68383Y95669D01*
X69716D01*
X70382Y96336D01*
Y99668D01*
X71715Y95669D02*
X73048D01*
X72382D01*
Y99668D01*
X71715Y99001D01*
X31190Y227910D02*
X29857D01*
X30524D01*
Y224578D01*
X29857Y223912D01*
X29191D01*
X28524Y224578D01*
X32523Y227910D02*
X35189D01*
Y227244D01*
X32523Y224578D01*
Y223912D01*
X168990Y227910D02*
X167657D01*
X168324D01*
Y224578D01*
X167657Y223912D01*
X166991D01*
X166324Y224578D01*
X172989Y227910D02*
X171656Y227244D01*
X170323Y225911D01*
Y224578D01*
X170990Y223912D01*
X172322D01*
X172989Y224578D01*
Y225245D01*
X172322Y225911D01*
X170323D01*
X168990Y66510D02*
X167657D01*
X168324D01*
Y63178D01*
X167657Y62512D01*
X166991D01*
X166324Y63178D01*
X170323Y65844D02*
X170990Y66510D01*
X172322D01*
X172989Y65844D01*
Y65178D01*
X172322Y64511D01*
X171656D01*
X172322D01*
X172989Y63845D01*
Y63178D01*
X172322Y62512D01*
X170990D01*
X170323Y63178D01*
X134556Y56361D02*
X133223D01*
X133889D01*
Y53029D01*
X133223Y52362D01*
X132556D01*
X131890Y53029D01*
X138554Y52362D02*
X135889D01*
X138554Y55028D01*
Y55695D01*
X137888Y56361D01*
X136555D01*
X135889Y55695D01*
X32587Y72624D02*
X31921Y73290D01*
X30588D01*
X29921Y72624D01*
Y69958D01*
X30588Y69291D01*
X31921D01*
X32587Y69958D01*
X33920Y72624D02*
X34586Y73290D01*
X35919D01*
X36586Y72624D01*
Y71957D01*
X35919Y71291D01*
X36586Y70624D01*
Y69958D01*
X35919Y69291D01*
X34586D01*
X33920Y69958D01*
Y70624D01*
X34586Y71291D01*
X33920Y71957D01*
Y72624D01*
X34586Y71291D02*
X35919D01*
X33375Y61206D02*
X32708Y61873D01*
X31375D01*
X30709Y61206D01*
Y58540D01*
X31375Y57874D01*
X32708D01*
X33375Y58540D01*
X34707D02*
X35374Y57874D01*
X36707D01*
X37373Y58540D01*
Y61206D01*
X36707Y61873D01*
X35374D01*
X34707Y61206D01*
Y60540D01*
X35374Y59873D01*
X37373D01*
X122258Y67233D02*
X121592Y66566D01*
Y65233D01*
X122258Y64567D01*
X124924D01*
X125591Y65233D01*
Y66566D01*
X124924Y67233D01*
X125591Y68566D02*
Y69898D01*
Y69232D01*
X121592D01*
X122258Y68566D01*
Y71898D02*
X121592Y72564D01*
Y73897D01*
X122258Y74564D01*
X124924D01*
X125591Y73897D01*
Y72564D01*
X124924Y71898D01*
X122258D01*
X61721Y89553D02*
X61054Y90219D01*
X59722D01*
X59055Y89553D01*
Y86887D01*
X59722Y86221D01*
X61054D01*
X61721Y86887D01*
X63054Y86221D02*
X64387D01*
X63720D01*
Y90219D01*
X63054Y89553D01*
X66386Y86221D02*
X67719D01*
X67053D01*
Y90219D01*
X66386Y89553D01*
X114778Y138099D02*
X114111Y137432D01*
Y136100D01*
X114778Y135433D01*
X117444D01*
X118110Y136100D01*
Y137432D01*
X117444Y138099D01*
X118110Y139432D02*
Y140765D01*
Y140098D01*
X114111D01*
X114778Y139432D01*
X118110Y145430D02*
Y142764D01*
X115444Y145430D01*
X114778D01*
X114111Y144763D01*
Y143430D01*
X114778Y142764D01*
X250211Y124319D02*
X249545Y123653D01*
Y122320D01*
X250211Y121653D01*
X252877D01*
X253543Y122320D01*
Y123653D01*
X252877Y124319D01*
X253543Y125652D02*
Y126985D01*
Y126319D01*
X249545D01*
X250211Y125652D01*
Y128984D02*
X249545Y129651D01*
Y130984D01*
X250211Y131650D01*
X250877D01*
X251544Y130984D01*
Y130317D01*
Y130984D01*
X252210Y131650D01*
X252877D01*
X253543Y130984D01*
Y129651D01*
X252877Y128984D01*
X198636Y84949D02*
X197970Y84283D01*
Y82950D01*
X198636Y82284D01*
X201302D01*
X201969Y82950D01*
Y84283D01*
X201302Y84949D01*
X201969Y86282D02*
Y87615D01*
Y86949D01*
X197970D01*
X198636Y86282D01*
X201969Y91614D02*
X197970D01*
X199969Y89614D01*
Y92280D01*
X53060Y100183D02*
X52393Y100849D01*
X51060D01*
X50394Y100183D01*
Y97517D01*
X51060Y96850D01*
X52393D01*
X53060Y97517D01*
X54392Y96850D02*
X55725D01*
X55059D01*
Y100849D01*
X54392Y100183D01*
X60391Y100849D02*
X57725D01*
Y98850D01*
X59058Y99516D01*
X59724D01*
X60391Y98850D01*
Y97517D01*
X59724Y96850D01*
X58391D01*
X57725Y97517D01*
X307298Y111327D02*
X306631Y110661D01*
Y109328D01*
X307298Y108661D01*
X309963D01*
X310630Y109328D01*
Y110661D01*
X309963Y111327D01*
X310630Y112660D02*
Y113993D01*
Y113327D01*
X306631D01*
X307298Y112660D01*
X306631Y118658D02*
X307298Y117325D01*
X308631Y115992D01*
X309963D01*
X310630Y116659D01*
Y117992D01*
X309963Y118658D01*
X309297D01*
X308631Y117992D01*
Y115992D01*
X294792Y91915D02*
X294125Y92581D01*
X292792D01*
X292126Y91915D01*
Y89249D01*
X292792Y88583D01*
X294125D01*
X294792Y89249D01*
X296125Y88583D02*
X297458D01*
X296791D01*
Y92581D01*
X296125Y91915D01*
X299457Y92581D02*
X302123D01*
Y91915D01*
X299457Y89249D01*
Y88583D01*
X258178Y119080D02*
X257511Y119747D01*
X256178D01*
X255512Y119080D01*
Y116414D01*
X256178Y115748D01*
X257511D01*
X258178Y116414D01*
X262176Y115748D02*
X259510D01*
X262176Y118414D01*
Y119080D01*
X261510Y119747D01*
X260177D01*
X259510Y119080D01*
X263509D02*
X264176Y119747D01*
X265509D01*
X266175Y119080D01*
Y116414D01*
X265509Y115748D01*
X264176D01*
X263509Y116414D01*
Y119080D01*
X5844Y108268D02*
Y109601D01*
Y108934D01*
X9843D01*
Y108268D01*
Y109601D01*
X6510Y114266D02*
X5844Y113599D01*
Y112266D01*
X6510Y111600D01*
X9176D01*
X9843Y112266D01*
Y113599D01*
X9176Y114266D01*
X9843Y115599D02*
Y116932D01*
Y116265D01*
X5844D01*
X6510Y115599D01*
X313386Y96457D02*
Y100455D01*
X315385D01*
X316052Y99789D01*
Y98456D01*
X315385Y97790D01*
X313386D01*
X314719D02*
X316052Y96457D01*
X320050Y100455D02*
X318717Y99789D01*
X317385Y98456D01*
Y97123D01*
X318051Y96457D01*
X319384D01*
X320050Y97123D01*
Y97790D01*
X319384Y98456D01*
X317385D01*
X273228Y105905D02*
Y109904D01*
X275228D01*
X275894Y109238D01*
Y107905D01*
X275228Y107238D01*
X273228D01*
X274561D02*
X275894Y105905D01*
X279893Y109904D02*
X277227D01*
Y107905D01*
X278560Y108571D01*
X279226D01*
X279893Y107905D01*
Y106572D01*
X279226Y105905D01*
X277893D01*
X277227Y106572D01*
X261024Y106693D02*
X257025D01*
Y108692D01*
X257691Y109359D01*
X259024D01*
X259691Y108692D01*
Y106693D01*
Y108026D02*
X261024Y109359D01*
X257025Y110692D02*
Y113357D01*
X257691D01*
X260357Y110692D01*
X261024D01*
X292126Y104331D02*
Y108329D01*
X294125D01*
X294792Y107663D01*
Y106330D01*
X294125Y105664D01*
X292126D01*
X293459D02*
X294792Y104331D01*
X296125D02*
X297458D01*
X296791D01*
Y108329D01*
X296125Y107663D01*
X299457D02*
X300123Y108329D01*
X301456D01*
X302123Y107663D01*
Y104997D01*
X301456Y104331D01*
X300123D01*
X299457Y104997D01*
Y107663D01*
X264961Y133071D02*
X260962D01*
Y135070D01*
X261628Y135737D01*
X262961D01*
X263628Y135070D01*
Y133071D01*
Y134404D02*
X264961Y135737D01*
Y137070D02*
Y138402D01*
Y137736D01*
X260962D01*
X261628Y137070D01*
X264961Y140402D02*
Y141735D01*
Y141068D01*
X260962D01*
X261628Y140402D01*
X277559Y128740D02*
X273560D01*
Y130739D01*
X274227Y131406D01*
X275560D01*
X276226Y130739D01*
Y128740D01*
Y130073D02*
X277559Y131406D01*
Y132739D02*
Y134072D01*
Y133405D01*
X273560D01*
X274227Y132739D01*
X277559Y138737D02*
Y136071D01*
X274893Y138737D01*
X274227D01*
X273560Y138070D01*
Y136738D01*
X274227Y136071D01*
X282283Y81496D02*
Y85495D01*
X284283D01*
X284949Y84828D01*
Y83495D01*
X284283Y82829D01*
X282283D01*
X283616D02*
X284949Y81496D01*
X286282Y82162D02*
X286949Y81496D01*
X288281D01*
X288948Y82162D01*
Y84828D01*
X288281Y85495D01*
X286949D01*
X286282Y84828D01*
Y84162D01*
X286949Y83495D01*
X288948D01*
X39674Y79317D02*
X39007Y79983D01*
X37674D01*
X37008Y79317D01*
Y76651D01*
X37674Y75984D01*
X39007D01*
X39674Y76651D01*
X41007Y75984D02*
X42340D01*
X41673D01*
Y79983D01*
X41007Y79317D01*
X176288Y75380D02*
X175621Y76046D01*
X174288D01*
X173622Y75380D01*
Y72714D01*
X174288Y72047D01*
X175621D01*
X176288Y72714D01*
X180287Y76046D02*
X177621D01*
Y74047D01*
X178954Y74713D01*
X179620D01*
X180287Y74047D01*
Y72714D01*
X179620Y72047D01*
X178287D01*
X177621Y72714D01*
X176288Y123017D02*
X175621Y123684D01*
X174288D01*
X173622Y123017D01*
Y120352D01*
X174288Y119685D01*
X175621D01*
X176288Y120352D01*
X180287Y123684D02*
X178954Y123017D01*
X177621Y121684D01*
Y120352D01*
X178287Y119685D01*
X179620D01*
X180287Y120352D01*
Y121018D01*
X179620Y121684D01*
X177621D01*
X38886Y123017D02*
X38220Y123684D01*
X36887D01*
X36220Y123017D01*
Y120352D01*
X36887Y119685D01*
X38220D01*
X38886Y120352D01*
X40219Y123684D02*
X42885D01*
Y123017D01*
X40219Y120352D01*
Y119685D01*
X290158Y143944D02*
X294156D01*
X292157Y145943D02*
Y141945D01*
X296156Y140945D02*
X298155D01*
X297155D01*
Y146943D01*
X296156Y145943D01*
X305153Y140945D02*
X301154D01*
X305153Y144944D01*
Y145943D01*
X304153Y146943D01*
X302154D01*
X301154Y145943D01*
X307152Y146943D02*
Y142944D01*
X309151Y140945D01*
X311151Y142944D01*
Y146943D01*
X299274Y54605D02*
X298275Y55604D01*
X296275D01*
X295276Y54605D01*
Y50606D01*
X296275Y49606D01*
X298275D01*
X299274Y50606D01*
Y52605D01*
X297275D01*
X301274Y49606D02*
Y55604D01*
X305272Y49606D01*
Y55604D01*
X307272D02*
Y49606D01*
X310271D01*
X311270Y50606D01*
Y54605D01*
X310271Y55604D01*
X307272D01*
X16474Y140945D02*
X20472D01*
Y142944D01*
X19806Y143611D01*
X19139D01*
X18473Y142944D01*
Y140945D01*
Y142944D01*
X17807Y143611D01*
X17140D01*
X16474Y142944D01*
Y140945D01*
Y146943D02*
Y145610D01*
X17140Y144944D01*
X19806D01*
X20472Y145610D01*
Y146943D01*
X19806Y147609D01*
X17140D01*
X16474Y146943D01*
Y150942D02*
Y149609D01*
X17140Y148942D01*
X19806D01*
X20472Y149609D01*
Y150942D01*
X19806Y151608D01*
X17140D01*
X16474Y150942D01*
Y152941D02*
Y155607D01*
Y154274D01*
X20472D01*
X17140Y156940D02*
X16474Y157606D01*
Y158939D01*
X17140Y159606D01*
X19806D01*
X20472Y158939D01*
Y157606D01*
X19806Y156940D01*
X17140D01*
D45*
X107480Y124409D02*
G03*
X107480Y124409I-1181J0D01*
G01*
X241339Y120473D02*
G03*
X241339Y120473I-1181J0D01*
G01*
X209842Y72441D02*
G03*
X209842Y72441I-1181J0D01*
G01*
X142126Y93504D02*
G03*
X142126Y93504I-1181J0D01*
G01*
X75984Y72441D02*
G03*
X75984Y72441I-1181J0D01*
G01*
D46*
X111988Y133169D02*
G03*
X111988Y133169I-492J0D01*
G01*
X277854Y123031D02*
G03*
X277854Y123031I-492J0D01*
G01*
X245847Y129232D02*
G03*
X245847Y129232I-492J0D01*
G01*
X203957Y63681D02*
G03*
X203957Y63681I-492J0D01*
G01*
X148898Y90748D02*
G03*
X148898Y90748I-492J0D01*
G01*
X146752Y101969D02*
G03*
X146752Y101969I-492J0D01*
G01*
X6988Y86811D02*
G03*
X6988Y86811I-492J0D01*
G01*
X70098Y63681D02*
G03*
X70098Y63681I-492J0D01*
G01*
D47*
X285630Y119095D02*
G03*
X285630Y119095I-787J0D01*
G01*
D48*
X9974Y33064D02*
G03*
X10824Y33914I0J850D01*
G01*
X4924D02*
G03*
X5774Y33064I850J0D01*
G01*
X10824Y44826D02*
G03*
X9974Y45676I-850J0D01*
G01*
X5774D02*
G03*
X4924Y44826I0J-850D01*
G01*
X17848Y33064D02*
G03*
X18698Y33914I0J850D01*
G01*
X12798D02*
G03*
X13648Y33064I850J0D01*
G01*
X18698Y44826D02*
G03*
X17848Y45676I-850J0D01*
G01*
X13648D02*
G03*
X12798Y44826I0J-850D01*
G01*
X5774Y33064D02*
X9974D01*
X5774Y45676D02*
X9974D01*
X10824Y33914D02*
Y44826D01*
X4924Y33914D02*
Y44826D01*
X13648Y33064D02*
X17848D01*
X13648Y45676D02*
X17848D01*
X18698Y33914D02*
Y44826D01*
X12798Y33914D02*
Y44826D01*
D49*
X53681Y-18917D02*
G03*
X56417Y-21654I2736J0D01*
G01*
X53661Y-787D02*
G03*
X50925Y1949I-2736J0D01*
G01*
X120709Y-21654D02*
G03*
X123445Y-18917I0J2736D01*
G01*
X126201Y1949D02*
G03*
X123465Y-787I0J-2736D01*
G01*
X123465Y217736D02*
G03*
X120728Y220472I-2736J0D01*
G01*
X123484Y199606D02*
G03*
X126221Y196870I2736J0D01*
G01*
X56437Y220472D02*
G03*
X53701Y217736I0J-2736D01*
G01*
X50945Y196870D02*
G03*
X53681Y199606I0J2736D01*
G01*
X261260Y217736D02*
G03*
X258524Y220472I-2736J0D01*
G01*
X261280Y199606D02*
G03*
X264016Y196870I2736J0D01*
G01*
X194232Y220472D02*
G03*
X191496Y217736I0J-2736D01*
G01*
X188740Y196870D02*
G03*
X191476Y199606I0J2736D01*
G01*
X191496Y-18602D02*
G03*
X194232Y-21339I2736J0D01*
G01*
X191476Y-472D02*
G03*
X188740Y2264I-2736J0D01*
G01*
X258524Y-21339D02*
G03*
X261260Y-18602I0J2736D01*
G01*
X264016Y2264D02*
G03*
X261280Y-472I0J-2736D01*
G01*
X70866Y115748D02*
Y128347D01*
X110236Y115748D02*
Y128347D01*
X70866Y115748D02*
X110236D01*
X70866Y128347D02*
X110236D01*
X117520D02*
Y129921D01*
X114764Y128347D02*
Y129921D01*
X116732Y115354D02*
Y116929D01*
X119488Y115354D02*
Y116929D01*
X132677Y130905D02*
X134252D01*
X132677Y128150D02*
X134252D01*
X268701Y131496D02*
Y133071D01*
X271457Y131496D02*
Y133071D01*
X252953Y114173D02*
Y115748D01*
X250197Y114173D02*
Y115748D01*
X265945Y126378D02*
Y127953D01*
X263189Y126378D02*
Y127953D01*
X271457Y120079D02*
Y121654D01*
X268701Y120079D02*
Y121654D01*
X281693Y110039D02*
X289173D01*
X281693Y122244D02*
X289173D01*
Y110039D02*
Y122244D01*
X281693Y110039D02*
Y122244D01*
X271457Y108661D02*
Y110236D01*
X268701Y108661D02*
Y110236D01*
X265945Y108661D02*
Y110236D01*
X263189Y108661D02*
Y110236D01*
X285827Y95866D02*
Y100984D01*
X285039Y87598D02*
X286614D01*
X285039Y90354D02*
X286614D01*
X284646Y104921D02*
X286221D01*
X284646Y107677D02*
X286221D01*
X300984Y113386D02*
Y114961D01*
X303740Y113386D02*
Y114961D01*
X196653Y74803D02*
Y76378D01*
X199409Y74803D02*
Y76378D01*
X204724Y111811D02*
Y124409D01*
X244094Y111811D02*
Y124409D01*
X204724Y111811D02*
X244094D01*
X204724Y124409D02*
X244094D01*
Y68504D02*
Y81102D01*
X204724Y68504D02*
Y81102D01*
X244094D01*
X204724Y68504D02*
X244094D01*
X169291Y97244D02*
Y103543D01*
X149606Y97244D02*
Y103543D01*
X169291D01*
X149606Y97244D02*
X169291D01*
X174213Y99606D02*
Y101181D01*
X176969Y99606D02*
Y101181D01*
X184055Y93701D02*
Y95276D01*
X181299Y93701D02*
Y95276D01*
X118898Y84449D02*
Y97441D01*
X144882Y84449D02*
Y97441D01*
X118898Y84449D02*
X144882D01*
X118898Y97441D02*
X144882D01*
X115945Y104331D02*
Y105905D01*
X113189Y104331D02*
Y105905D01*
X108465Y99213D02*
Y100787D01*
X105709Y99213D02*
Y100787D01*
X102953Y99213D02*
Y100787D01*
X100197Y99213D02*
Y100787D01*
X131102Y73425D02*
X132677D01*
X131102Y70669D02*
X132677D01*
X62008Y79134D02*
Y80709D01*
X64764Y79134D02*
Y80709D01*
X19685Y68307D02*
Y73425D01*
Y57677D02*
Y62795D01*
X6496Y59252D02*
Y60827D01*
X9252Y59252D02*
Y60827D01*
X11024Y49803D02*
X12598D01*
X11024Y52559D02*
X12598D01*
X53661Y-18898D02*
Y-787D01*
X123465Y-18898D02*
Y-787D01*
X116122Y13780D02*
Y50787D01*
X27933Y1969D02*
X149193D01*
X61004Y13780D02*
Y50787D01*
X27933Y50787D02*
X149193D01*
X56417Y-21654D02*
X120709D01*
X149193Y1969D02*
Y50787D01*
X27933Y1969D02*
Y50787D01*
Y13780D02*
X149193D01*
X32874Y93307D02*
Y103543D01*
X6496Y93307D02*
Y103543D01*
X32874D01*
X6496Y93307D02*
X32874D01*
X10433Y134646D02*
Y136221D01*
X13189Y134646D02*
Y136221D01*
X40748Y98819D02*
X45866D01*
X110236Y68504D02*
Y81102D01*
X70866Y68504D02*
Y81102D01*
X110236D01*
X70866Y68504D02*
X110236D01*
X123484Y199606D02*
Y217717D01*
X53681Y199606D02*
Y217717D01*
X61024Y148031D02*
Y185039D01*
X27953Y196850D02*
X149213D01*
X116142Y148031D02*
Y185039D01*
X27953Y148031D02*
X149213D01*
X56437Y220472D02*
X120728D01*
X27953Y148031D02*
Y196850D01*
X149213Y148031D02*
Y196850D01*
X27953Y185039D02*
X149213D01*
X261280Y199606D02*
Y217717D01*
X191476Y199606D02*
Y217717D01*
X198819Y148031D02*
Y185039D01*
X165748Y196850D02*
X287008D01*
X253937Y148031D02*
Y185039D01*
X165748Y148031D02*
X287008D01*
X194232Y220472D02*
X258524D01*
X165748Y148031D02*
Y196850D01*
X287008Y148031D02*
Y196850D01*
X165748Y185039D02*
X287008D01*
X191476Y-18583D02*
Y-472D01*
X261280Y-18583D02*
Y-472D01*
X253937Y14095D02*
Y51102D01*
X165748Y2283D02*
X287008D01*
X198819Y14095D02*
Y51102D01*
X165748Y51102D02*
X287008D01*
X194232Y-21339D02*
X258524D01*
X287008Y2283D02*
Y51102D01*
X165748Y2283D02*
Y51102D01*
Y14095D02*
X287008D01*
D50*
X102954Y15652D02*
X104922Y16635D01*
X106890Y18603D01*
Y20571D01*
X105906Y21555D01*
X103938D01*
X102954Y20571D01*
Y19587D01*
X103938Y18603D01*
X106890D01*
X74173Y20571D02*
X73189Y21555D01*
X71221D01*
X70237Y20571D01*
Y16635D01*
X71221Y15652D01*
X73189D01*
X74173Y16635D01*
Y17619D01*
X73189Y18603D01*
X70237D01*
X64785Y52659D02*
X68721D01*
Y55611D01*
X66753Y54627D01*
X65769D01*
X64785Y55611D01*
Y57579D01*
X65769Y58563D01*
X67737D01*
X68721Y57579D01*
X111358Y58563D02*
X109390D01*
X110374D01*
Y52659D01*
X111358Y53643D01*
X74192Y183167D02*
X72224Y182183D01*
X70256Y180216D01*
Y178248D01*
X71240Y177264D01*
X73208D01*
X74192Y178248D01*
Y179232D01*
X73208Y180216D01*
X70256D01*
X102972Y178248D02*
X103956Y177264D01*
X105924D01*
X106908Y178248D01*
Y182183D01*
X105924Y183167D01*
X103956D01*
X102972Y182183D01*
Y181200D01*
X103956Y180216D01*
X106908D01*
X112361Y146160D02*
X108425D01*
Y143208D01*
X110393Y144192D01*
X111377D01*
X112361Y143208D01*
Y141240D01*
X111377Y140256D01*
X109409D01*
X108425Y141240D01*
X65787Y140256D02*
X67755D01*
X66771D01*
Y146160D01*
X65787Y145176D01*
X211987Y183167D02*
X210019Y182183D01*
X208051Y180216D01*
Y178248D01*
X209035Y177264D01*
X211003D01*
X211987Y178248D01*
Y179232D01*
X211003Y180216D01*
X208051D01*
X240768Y178248D02*
X241752Y177264D01*
X243720D01*
X244704Y178248D01*
Y182183D01*
X243720Y183167D01*
X241752D01*
X240768Y182183D01*
Y181200D01*
X241752Y180216D01*
X244704D01*
X250156Y146160D02*
X246220D01*
Y143208D01*
X248188Y144192D01*
X249172D01*
X250156Y143208D01*
Y141240D01*
X249172Y140256D01*
X247204D01*
X246220Y141240D01*
X203583Y140256D02*
X205551D01*
X204567D01*
Y146160D01*
X203583Y145176D01*
X240769Y15967D02*
X242737Y16950D01*
X244705Y18918D01*
Y20886D01*
X243721Y21870D01*
X241753D01*
X240769Y20886D01*
Y19902D01*
X241753Y18918D01*
X244705D01*
X211988Y20886D02*
X211004Y21870D01*
X209036D01*
X208052Y20886D01*
Y16950D01*
X209036Y15967D01*
X211004D01*
X211988Y16950D01*
Y17934D01*
X211004Y18918D01*
X208052D01*
X202600Y52974D02*
X206535D01*
Y55926D01*
X204568Y54942D01*
X203584D01*
X202600Y55926D01*
Y57894D01*
X203584Y58878D01*
X205552D01*
X206535Y57894D01*
X249173Y58878D02*
X247205D01*
X248189D01*
Y52974D01*
X249173Y53958D01*
D51*
X10899Y33503D02*
D03*
X18773Y33503D02*
D03*
D52*
X7874Y32503D02*
D03*
X15748Y32503D02*
D03*
D53*
X4889Y33633D02*
D03*
X12763Y33633D02*
D03*
M02*
