M48
;Layer_Color=9474304
;FILE_FORMAT=2:5
INCH,LZ
;TYPE=PLATED
T1F00S00C0.01200
T2F00S00C0.01600
T3F00S00C0.02400
T4F00S00C0.03150
T5F00S00C0.03937
T6F00S00C0.04291
T7F00S00C0.04724
T8F00S00C0.06299
T9F00S00C0.06693
T10F00S00C0.12835
;TYPE=NON_PLATED
T11F00S00C0.12598
%
T01
X0054724Y0049606
Y0055905
X0062598Y0070472
X007559Y0070866
X0086614Y0069291
X0088189Y0057874
X01Y0070472
X0104464Y0070079
X0105118Y007874
X0122441Y0087795
X0129921Y006496
X0132433Y0067085
X0135433Y0066929
X0138582Y006811
X0138189Y0063386
X0136221Y006063
X0117323Y0058268
X0116535Y0048425
X0120866Y0049213
X0146063Y0075197
X0146457Y0078347
X0080709Y0080709
X0168504Y0072835
X0169685Y0069291
X0193701Y007126
X019685Y0067716
X0201181Y006811
X0214173Y0069685
X0212598Y0072835
X0236221Y007126
X0248819Y0064173
X0251575Y0052756
X0227559Y0056299
X0194881Y0084252
X0199606Y0122047
X0200394Y0129921
X0216929Y0123228
X022559Y0135827
X0244488Y0136221
X0245669Y0132283
X0255906Y0129921
X023937Y0113386
X0294357Y0106299
X0144488Y013937
X01209Y0149179
X0114173Y0135827
X011063Y0124409
X0106299Y0116141
X01Y0127559
X0089764Y0138583
X0079921Y012559
X0069291Y0127165
X0059449Y0129134
T02
X010748Y005315
X0116535Y0077559
T03
X0146063Y0062598
X0139085Y0071763
X0139764Y0137795
X0126378Y0146063
T04
X003937Y0064961
Y0084646
X0177165
Y0064961
Y0112205
Y013189
X003937
Y0112205
T05
X0157874Y0014134
Y0024134
Y0034134
Y0044134
X0007087Y0145
Y0155
T06
X0072205Y0033779
X008311
X0094016
X0104921
X0110374Y0044961
X0099468
X0088563
X0077658
X0066752
X0204567Y0045276
X0215472
X0226378
X0237283
X0248189
X0242736Y0034095
X0231831
X0220925
X021002
X0215472Y0153858
X0204567
X021002Y0165039
X0220925
X0231831
X0242736
X0248189Y0153858
X0237283
X0226378
X0110394
X0099488
X0088583
X0077677
X0066772
X0072224Y0165039
X008313
X0094035
X0104941
T07
X0334646Y0068425
Y0088425
Y0108425
Y0128425
T08
X0285433Y0062992
X0305118
Y0133858
X0285433
T09
X0267717Y0098425
X0307087
T10
X003937Y003937
X0137756
X0177185Y0039685
X0275571
X0275571Y0159449
X0177185
X0137776
X003939
T11
X0011811Y0019685
X015748Y0062992
X0326772Y0019685
Y0177165
X015748Y0133858
X0011811Y0177165
M30
